<?xml version="1.0" encoding="utf-8"?>
<svg xmlns="http://www.w3.org/2000/svg" xmlns:xlink="http://www.w3.org/1999/xlink" width="600" height="400" viewBox="0 0 2400 1600">
<defs>
  <clipPath id="clip900">
    <rect x="0" y="0" width="2400" height="1600"/>
  </clipPath>
</defs>
<path clip-path="url(#clip900)" d="
M0 1600 L2400 1600 L2400 0 L0 0  Z
  " fill="#ffffff" fill-rule="evenodd" fill-opacity="1"/>
<defs>
  <clipPath id="clip901">
    <rect x="480" y="0" width="1681" height="1600"/>
  </clipPath>
</defs>
<path clip-path="url(#clip900)" d="
M193.936 1423.18 L2352.76 1423.18 L2352.76 47.2441 L193.936 47.2441  Z
  " fill="#ffffff" fill-rule="evenodd" fill-opacity="1"/>
<defs>
  <clipPath id="clip902">
    <rect x="193" y="47" width="2160" height="1377"/>
  </clipPath>
</defs>
<polyline clip-path="url(#clip902)" style="stroke:#000000; stroke-linecap:butt; stroke-linejoin:round; stroke-width:2; stroke-opacity:0.1; fill:none" points="
  301.659,1423.18 301.659,47.2441 
  "/>
<polyline clip-path="url(#clip902)" style="stroke:#000000; stroke-linecap:butt; stroke-linejoin:round; stroke-width:2; stroke-opacity:0.1; fill:none" points="
  630.942,1423.18 630.942,47.2441 
  "/>
<polyline clip-path="url(#clip902)" style="stroke:#000000; stroke-linecap:butt; stroke-linejoin:round; stroke-width:2; stroke-opacity:0.1; fill:none" points="
  960.226,1423.18 960.226,47.2441 
  "/>
<polyline clip-path="url(#clip902)" style="stroke:#000000; stroke-linecap:butt; stroke-linejoin:round; stroke-width:2; stroke-opacity:0.1; fill:none" points="
  1289.51,1423.18 1289.51,47.2441 
  "/>
<polyline clip-path="url(#clip902)" style="stroke:#000000; stroke-linecap:butt; stroke-linejoin:round; stroke-width:2; stroke-opacity:0.1; fill:none" points="
  1618.79,1423.18 1618.79,47.2441 
  "/>
<polyline clip-path="url(#clip902)" style="stroke:#000000; stroke-linecap:butt; stroke-linejoin:round; stroke-width:2; stroke-opacity:0.1; fill:none" points="
  1948.08,1423.18 1948.08,47.2441 
  "/>
<polyline clip-path="url(#clip902)" style="stroke:#000000; stroke-linecap:butt; stroke-linejoin:round; stroke-width:2; stroke-opacity:0.1; fill:none" points="
  2277.36,1423.18 2277.36,47.2441 
  "/>
<polyline clip-path="url(#clip900)" style="stroke:#000000; stroke-linecap:butt; stroke-linejoin:round; stroke-width:4; stroke-opacity:1; fill:none" points="
  193.936,1423.18 2352.76,1423.18 
  "/>
<polyline clip-path="url(#clip900)" style="stroke:#000000; stroke-linecap:butt; stroke-linejoin:round; stroke-width:4; stroke-opacity:1; fill:none" points="
  301.659,1423.18 301.659,1404.28 
  "/>
<polyline clip-path="url(#clip900)" style="stroke:#000000; stroke-linecap:butt; stroke-linejoin:round; stroke-width:4; stroke-opacity:1; fill:none" points="
  630.942,1423.18 630.942,1404.28 
  "/>
<polyline clip-path="url(#clip900)" style="stroke:#000000; stroke-linecap:butt; stroke-linejoin:round; stroke-width:4; stroke-opacity:1; fill:none" points="
  960.226,1423.18 960.226,1404.28 
  "/>
<polyline clip-path="url(#clip900)" style="stroke:#000000; stroke-linecap:butt; stroke-linejoin:round; stroke-width:4; stroke-opacity:1; fill:none" points="
  1289.51,1423.18 1289.51,1404.28 
  "/>
<polyline clip-path="url(#clip900)" style="stroke:#000000; stroke-linecap:butt; stroke-linejoin:round; stroke-width:4; stroke-opacity:1; fill:none" points="
  1618.79,1423.18 1618.79,1404.28 
  "/>
<polyline clip-path="url(#clip900)" style="stroke:#000000; stroke-linecap:butt; stroke-linejoin:round; stroke-width:4; stroke-opacity:1; fill:none" points="
  1948.08,1423.18 1948.08,1404.28 
  "/>
<polyline clip-path="url(#clip900)" style="stroke:#000000; stroke-linecap:butt; stroke-linejoin:round; stroke-width:4; stroke-opacity:1; fill:none" points="
  2277.36,1423.18 2277.36,1404.28 
  "/>
<path clip-path="url(#clip900)" d="M271.127 1468.75 L300.802 1468.75 L300.802 1472.69 L271.127 1472.69 L271.127 1468.75 Z" fill="#000000" fill-rule="evenodd" fill-opacity="1" /><path clip-path="url(#clip900)" d="M325.061 1466.95 Q328.418 1467.66 330.293 1469.93 Q332.191 1472.2 332.191 1475.53 Q332.191 1480.65 328.673 1483.45 Q325.154 1486.25 318.673 1486.25 Q316.497 1486.25 314.182 1485.81 Q311.89 1485.39 309.437 1484.54 L309.437 1480.02 Q311.381 1481.16 313.696 1481.74 Q316.011 1482.32 318.534 1482.32 Q322.932 1482.32 325.224 1480.58 Q327.538 1478.84 327.538 1475.53 Q327.538 1472.48 325.386 1470.77 Q323.256 1469.03 319.436 1469.03 L315.409 1469.03 L315.409 1465.19 L319.622 1465.19 Q323.071 1465.19 324.899 1463.82 Q326.728 1462.43 326.728 1459.84 Q326.728 1457.18 324.83 1455.77 Q322.955 1454.33 319.436 1454.33 Q317.515 1454.33 315.316 1454.75 Q313.117 1455.16 310.478 1456.04 L310.478 1451.88 Q313.14 1451.14 315.455 1450.77 Q317.793 1450.39 319.853 1450.39 Q325.177 1450.39 328.279 1452.83 Q331.381 1455.23 331.381 1459.35 Q331.381 1462.22 329.737 1464.21 Q328.094 1466.18 325.061 1466.95 Z" fill="#000000" fill-rule="evenodd" fill-opacity="1" /><path clip-path="url(#clip900)" d="M600.885 1468.75 L630.56 1468.75 L630.56 1472.69 L600.885 1472.69 L600.885 1468.75 Z" fill="#000000" fill-rule="evenodd" fill-opacity="1" /><path clip-path="url(#clip900)" d="M644.681 1481.64 L661 1481.64 L661 1485.58 L639.056 1485.58 L639.056 1481.64 Q641.718 1478.89 646.301 1474.26 Q650.908 1469.61 652.088 1468.27 Q654.333 1465.74 655.213 1464.01 Q656.116 1462.25 656.116 1460.56 Q656.116 1457.8 654.171 1456.07 Q652.25 1454.33 649.148 1454.33 Q646.949 1454.33 644.496 1455.09 Q642.065 1455.86 639.287 1457.41 L639.287 1452.69 Q642.111 1451.55 644.565 1450.97 Q647.019 1450.39 649.056 1450.39 Q654.426 1450.39 657.621 1453.08 Q660.815 1455.77 660.815 1460.26 Q660.815 1462.39 660.005 1464.31 Q659.218 1466.2 657.111 1468.8 Q656.533 1469.47 653.431 1472.69 Q650.329 1475.88 644.681 1481.64 Z" fill="#000000" fill-rule="evenodd" fill-opacity="1" /><path clip-path="url(#clip900)" d="M929.983 1468.75 L959.659 1468.75 L959.659 1472.69 L929.983 1472.69 L929.983 1468.75 Z" fill="#000000" fill-rule="evenodd" fill-opacity="1" /><path clip-path="url(#clip900)" d="M970.562 1481.64 L978.2 1481.64 L978.2 1455.28 L969.89 1456.95 L969.89 1452.69 L978.154 1451.02 L982.83 1451.02 L982.83 1481.64 L990.469 1481.64 L990.469 1485.58 L970.562 1485.58 L970.562 1481.64 Z" fill="#000000" fill-rule="evenodd" fill-opacity="1" /><path clip-path="url(#clip900)" d="M1289.51 1454.1 Q1285.9 1454.1 1284.07 1457.66 Q1282.26 1461.2 1282.26 1468.33 Q1282.26 1475.44 1284.07 1479.01 Q1285.9 1482.55 1289.51 1482.55 Q1293.14 1482.55 1294.95 1479.01 Q1296.78 1475.44 1296.78 1468.33 Q1296.78 1461.2 1294.95 1457.66 Q1293.14 1454.1 1289.51 1454.1 M1289.51 1450.39 Q1295.32 1450.39 1298.38 1455 Q1301.45 1459.58 1301.45 1468.33 Q1301.45 1477.06 1298.38 1481.67 Q1295.32 1486.25 1289.51 1486.25 Q1283.7 1486.25 1280.62 1481.67 Q1277.57 1477.06 1277.57 1468.33 Q1277.57 1459.58 1280.62 1455 Q1283.7 1450.39 1289.51 1450.39 Z" fill="#000000" fill-rule="evenodd" fill-opacity="1" /><path clip-path="url(#clip900)" d="M1609.18 1481.64 L1616.81 1481.64 L1616.81 1455.28 L1608.5 1456.95 L1608.5 1452.69 L1616.77 1451.02 L1621.44 1451.02 L1621.44 1481.64 L1629.08 1481.64 L1629.08 1485.58 L1609.18 1485.58 L1609.18 1481.64 Z" fill="#000000" fill-rule="evenodd" fill-opacity="1" /><path clip-path="url(#clip900)" d="M1942.73 1481.64 L1959.05 1481.64 L1959.05 1485.58 L1937.1 1485.58 L1937.1 1481.64 Q1939.77 1478.89 1944.35 1474.26 Q1948.96 1469.61 1950.14 1468.27 Q1952.38 1465.74 1953.26 1464.01 Q1954.16 1462.25 1954.16 1460.56 Q1954.16 1457.8 1952.22 1456.07 Q1950.3 1454.33 1947.2 1454.33 Q1945 1454.33 1942.54 1455.09 Q1940.11 1455.86 1937.34 1457.41 L1937.34 1452.69 Q1940.16 1451.55 1942.61 1450.97 Q1945.07 1450.39 1947.1 1450.39 Q1952.47 1450.39 1955.67 1453.08 Q1958.86 1455.77 1958.86 1460.26 Q1958.86 1462.39 1958.05 1464.31 Q1957.27 1466.2 1955.16 1468.8 Q1954.58 1469.47 1951.48 1472.69 Q1948.38 1475.88 1942.73 1481.64 Z" fill="#000000" fill-rule="evenodd" fill-opacity="1" /><path clip-path="url(#clip900)" d="M2281.61 1466.95 Q2284.96 1467.66 2286.84 1469.93 Q2288.74 1472.2 2288.74 1475.53 Q2288.74 1480.65 2285.22 1483.45 Q2281.7 1486.25 2275.22 1486.25 Q2273.04 1486.25 2270.73 1485.81 Q2268.44 1485.39 2265.98 1484.54 L2265.98 1480.02 Q2267.93 1481.16 2270.24 1481.74 Q2272.56 1482.32 2275.08 1482.32 Q2279.48 1482.32 2281.77 1480.58 Q2284.08 1478.84 2284.08 1475.53 Q2284.08 1472.48 2281.93 1470.77 Q2279.8 1469.03 2275.98 1469.03 L2271.96 1469.03 L2271.96 1465.19 L2276.17 1465.19 Q2279.62 1465.19 2281.45 1463.82 Q2283.27 1462.43 2283.27 1459.84 Q2283.27 1457.18 2281.38 1455.77 Q2279.5 1454.33 2275.98 1454.33 Q2274.06 1454.33 2271.86 1454.75 Q2269.66 1455.16 2267.02 1456.04 L2267.02 1451.88 Q2269.69 1451.14 2272 1450.77 Q2274.34 1450.39 2276.4 1450.39 Q2281.72 1450.39 2284.83 1452.83 Q2287.93 1455.23 2287.93 1459.35 Q2287.93 1462.22 2286.28 1464.21 Q2284.64 1466.18 2281.61 1466.95 Z" fill="#000000" fill-rule="evenodd" fill-opacity="1" /><path clip-path="url(#clip900)" d="M1289.96 1532.4 L1277.07 1549.74 L1290.63 1568.04 L1283.72 1568.04 L1273.35 1554.04 L1262.97 1568.04 L1256.06 1568.04 L1269.91 1549.39 L1257.24 1532.4 L1264.15 1532.4 L1273.6 1545.1 L1283.05 1532.4 L1289.96 1532.4 Z" fill="#000000" fill-rule="evenodd" fill-opacity="1" /><polyline clip-path="url(#clip902)" style="stroke:#000000; stroke-linecap:butt; stroke-linejoin:round; stroke-width:2; stroke-opacity:0.1; fill:none" points="
  193.936,1402.36 2352.76,1402.36 
  "/>
<polyline clip-path="url(#clip902)" style="stroke:#000000; stroke-linecap:butt; stroke-linejoin:round; stroke-width:2; stroke-opacity:0.1; fill:none" points="
  193.936,1179.98 2352.76,1179.98 
  "/>
<polyline clip-path="url(#clip902)" style="stroke:#000000; stroke-linecap:butt; stroke-linejoin:round; stroke-width:2; stroke-opacity:0.1; fill:none" points="
  193.936,957.595 2352.76,957.595 
  "/>
<polyline clip-path="url(#clip902)" style="stroke:#000000; stroke-linecap:butt; stroke-linejoin:round; stroke-width:2; stroke-opacity:0.1; fill:none" points="
  193.936,735.212 2352.76,735.212 
  "/>
<polyline clip-path="url(#clip902)" style="stroke:#000000; stroke-linecap:butt; stroke-linejoin:round; stroke-width:2; stroke-opacity:0.1; fill:none" points="
  193.936,512.829 2352.76,512.829 
  "/>
<polyline clip-path="url(#clip902)" style="stroke:#000000; stroke-linecap:butt; stroke-linejoin:round; stroke-width:2; stroke-opacity:0.1; fill:none" points="
  193.936,290.447 2352.76,290.447 
  "/>
<polyline clip-path="url(#clip902)" style="stroke:#000000; stroke-linecap:butt; stroke-linejoin:round; stroke-width:2; stroke-opacity:0.1; fill:none" points="
  193.936,68.0639 2352.76,68.0639 
  "/>
<polyline clip-path="url(#clip900)" style="stroke:#000000; stroke-linecap:butt; stroke-linejoin:round; stroke-width:4; stroke-opacity:1; fill:none" points="
  193.936,1423.18 193.936,47.2441 
  "/>
<polyline clip-path="url(#clip900)" style="stroke:#000000; stroke-linecap:butt; stroke-linejoin:round; stroke-width:4; stroke-opacity:1; fill:none" points="
  193.936,1402.36 212.834,1402.36 
  "/>
<polyline clip-path="url(#clip900)" style="stroke:#000000; stroke-linecap:butt; stroke-linejoin:round; stroke-width:4; stroke-opacity:1; fill:none" points="
  193.936,1179.98 212.834,1179.98 
  "/>
<polyline clip-path="url(#clip900)" style="stroke:#000000; stroke-linecap:butt; stroke-linejoin:round; stroke-width:4; stroke-opacity:1; fill:none" points="
  193.936,957.595 212.834,957.595 
  "/>
<polyline clip-path="url(#clip900)" style="stroke:#000000; stroke-linecap:butt; stroke-linejoin:round; stroke-width:4; stroke-opacity:1; fill:none" points="
  193.936,735.212 212.834,735.212 
  "/>
<polyline clip-path="url(#clip900)" style="stroke:#000000; stroke-linecap:butt; stroke-linejoin:round; stroke-width:4; stroke-opacity:1; fill:none" points="
  193.936,512.829 212.834,512.829 
  "/>
<polyline clip-path="url(#clip900)" style="stroke:#000000; stroke-linecap:butt; stroke-linejoin:round; stroke-width:4; stroke-opacity:1; fill:none" points="
  193.936,290.447 212.834,290.447 
  "/>
<polyline clip-path="url(#clip900)" style="stroke:#000000; stroke-linecap:butt; stroke-linejoin:round; stroke-width:4; stroke-opacity:1; fill:none" points="
  193.936,68.0639 212.834,68.0639 
  "/>
<path clip-path="url(#clip900)" d="M51.9875 1402.81 L81.6633 1402.81 L81.6633 1406.75 L51.9875 1406.75 L51.9875 1402.81 Z" fill="#000000" fill-rule="evenodd" fill-opacity="1" /><path clip-path="url(#clip900)" d="M92.566 1415.7 L100.205 1415.7 L100.205 1389.34 L91.8947 1391.01 L91.8947 1386.75 L100.159 1385.08 L104.834 1385.08 L104.834 1415.7 L112.473 1415.7 L112.473 1419.64 L92.566 1419.64 L92.566 1415.7 Z" fill="#000000" fill-rule="evenodd" fill-opacity="1" /><path clip-path="url(#clip900)" d="M121.918 1413.76 L126.802 1413.76 L126.802 1419.64 L121.918 1419.64 L121.918 1413.76 Z" fill="#000000" fill-rule="evenodd" fill-opacity="1" /><path clip-path="url(#clip900)" d="M137.033 1385.08 L155.39 1385.08 L155.39 1389.02 L141.316 1389.02 L141.316 1397.49 Q142.334 1397.14 143.353 1396.98 Q144.371 1396.79 145.39 1396.79 Q151.177 1396.79 154.556 1399.96 Q157.936 1403.14 157.936 1408.55 Q157.936 1414.13 154.464 1417.23 Q150.992 1420.31 144.672 1420.31 Q142.496 1420.31 140.228 1419.94 Q137.982 1419.57 135.575 1418.83 L135.575 1414.13 Q137.658 1415.27 139.881 1415.82 Q142.103 1416.38 144.58 1416.38 Q148.584 1416.38 150.922 1414.27 Q153.26 1412.16 153.26 1408.55 Q153.26 1404.94 150.922 1402.83 Q148.584 1400.73 144.58 1400.73 Q142.705 1400.73 140.83 1401.14 Q138.978 1401.56 137.033 1402.44 L137.033 1385.08 Z" fill="#000000" fill-rule="evenodd" fill-opacity="1" /><path clip-path="url(#clip900)" d="M50.9921 1180.43 L80.6679 1180.43 L80.6679 1184.36 L50.9921 1184.36 L50.9921 1180.43 Z" fill="#000000" fill-rule="evenodd" fill-opacity="1" /><path clip-path="url(#clip900)" d="M91.5706 1193.32 L99.2095 1193.32 L99.2095 1166.96 L90.8993 1168.62 L90.8993 1164.36 L99.1632 1162.7 L103.839 1162.7 L103.839 1193.32 L111.478 1193.32 L111.478 1197.26 L91.5706 1197.26 L91.5706 1193.32 Z" fill="#000000" fill-rule="evenodd" fill-opacity="1" /><path clip-path="url(#clip900)" d="M120.922 1191.38 L125.807 1191.38 L125.807 1197.26 L120.922 1197.26 L120.922 1191.38 Z" fill="#000000" fill-rule="evenodd" fill-opacity="1" /><path clip-path="url(#clip900)" d="M145.992 1165.78 Q142.381 1165.78 140.552 1169.34 Q138.746 1172.88 138.746 1180.01 Q138.746 1187.12 140.552 1190.68 Q142.381 1194.22 145.992 1194.22 Q149.626 1194.22 151.431 1190.68 Q153.26 1187.12 153.26 1180.01 Q153.26 1172.88 151.431 1169.34 Q149.626 1165.78 145.992 1165.78 M145.992 1162.07 Q151.802 1162.07 154.857 1166.68 Q157.936 1171.26 157.936 1180.01 Q157.936 1188.74 154.857 1193.35 Q151.802 1197.93 145.992 1197.93 Q140.181 1197.93 137.103 1193.35 Q134.047 1188.74 134.047 1180.01 Q134.047 1171.26 137.103 1166.68 Q140.181 1162.07 145.992 1162.07 Z" fill="#000000" fill-rule="evenodd" fill-opacity="1" /><path clip-path="url(#clip900)" d="M51.9875 958.046 L81.6633 958.046 L81.6633 961.981 L51.9875 961.981 L51.9875 958.046 Z" fill="#000000" fill-rule="evenodd" fill-opacity="1" /><path clip-path="url(#clip900)" d="M101.756 943.393 Q98.1447 943.393 96.316 946.958 Q94.5104 950.5 94.5104 957.629 Q94.5104 964.736 96.316 968.301 Q98.1447 971.842 101.756 971.842 Q105.39 971.842 107.196 968.301 Q109.024 964.736 109.024 957.629 Q109.024 950.5 107.196 946.958 Q105.39 943.393 101.756 943.393 M101.756 939.69 Q107.566 939.69 110.621 944.296 Q113.7 948.879 113.7 957.629 Q113.7 966.356 110.621 970.963 Q107.566 975.546 101.756 975.546 Q95.9456 975.546 92.8669 970.963 Q89.8114 966.356 89.8114 957.629 Q89.8114 948.879 92.8669 944.296 Q95.9456 939.69 101.756 939.69 Z" fill="#000000" fill-rule="evenodd" fill-opacity="1" /><path clip-path="url(#clip900)" d="M121.918 968.995 L126.802 968.995 L126.802 974.875 L121.918 974.875 L121.918 968.995 Z" fill="#000000" fill-rule="evenodd" fill-opacity="1" /><path clip-path="url(#clip900)" d="M137.033 940.315 L155.39 940.315 L155.39 944.25 L141.316 944.25 L141.316 952.722 Q142.334 952.375 143.353 952.213 Q144.371 952.028 145.39 952.028 Q151.177 952.028 154.556 955.199 Q157.936 958.37 157.936 963.787 Q157.936 969.365 154.464 972.467 Q150.992 975.546 144.672 975.546 Q142.496 975.546 140.228 975.176 Q137.982 974.805 135.575 974.064 L135.575 969.365 Q137.658 970.5 139.881 971.055 Q142.103 971.611 144.58 971.611 Q148.584 971.611 150.922 969.504 Q153.26 967.398 153.26 963.787 Q153.26 960.176 150.922 958.069 Q148.584 955.963 144.58 955.963 Q142.705 955.963 140.83 956.379 Q138.978 956.796 137.033 957.676 L137.033 940.315 Z" fill="#000000" fill-rule="evenodd" fill-opacity="1" /><path clip-path="url(#clip900)" d="M100.76 721.011 Q97.1493 721.011 95.3206 724.575 Q93.515 728.117 93.515 735.247 Q93.515 742.353 95.3206 745.918 Q97.1493 749.46 100.76 749.46 Q104.395 749.46 106.2 745.918 Q108.029 742.353 108.029 735.247 Q108.029 728.117 106.2 724.575 Q104.395 721.011 100.76 721.011 M100.76 717.307 Q106.571 717.307 109.626 721.913 Q112.705 726.497 112.705 735.247 Q112.705 743.973 109.626 748.58 Q106.571 753.163 100.76 753.163 Q94.9502 753.163 91.8715 748.58 Q88.816 743.973 88.816 735.247 Q88.816 726.497 91.8715 721.913 Q94.9502 717.307 100.76 717.307 Z" fill="#000000" fill-rule="evenodd" fill-opacity="1" /><path clip-path="url(#clip900)" d="M120.922 746.612 L125.807 746.612 L125.807 752.492 L120.922 752.492 L120.922 746.612 Z" fill="#000000" fill-rule="evenodd" fill-opacity="1" /><path clip-path="url(#clip900)" d="M145.992 721.011 Q142.381 721.011 140.552 724.575 Q138.746 728.117 138.746 735.247 Q138.746 742.353 140.552 745.918 Q142.381 749.46 145.992 749.46 Q149.626 749.46 151.431 745.918 Q153.26 742.353 153.26 735.247 Q153.26 728.117 151.431 724.575 Q149.626 721.011 145.992 721.011 M145.992 717.307 Q151.802 717.307 154.857 721.913 Q157.936 726.497 157.936 735.247 Q157.936 743.973 154.857 748.58 Q151.802 753.163 145.992 753.163 Q140.181 753.163 137.103 748.58 Q134.047 743.973 134.047 735.247 Q134.047 726.497 137.103 721.913 Q140.181 717.307 145.992 717.307 Z" fill="#000000" fill-rule="evenodd" fill-opacity="1" /><path clip-path="url(#clip900)" d="M101.756 498.628 Q98.1447 498.628 96.316 502.193 Q94.5104 505.734 94.5104 512.864 Q94.5104 519.97 96.316 523.535 Q98.1447 527.077 101.756 527.077 Q105.39 527.077 107.196 523.535 Q109.024 519.97 109.024 512.864 Q109.024 505.734 107.196 502.193 Q105.39 498.628 101.756 498.628 M101.756 494.924 Q107.566 494.924 110.621 499.531 Q113.7 504.114 113.7 512.864 Q113.7 521.591 110.621 526.197 Q107.566 530.781 101.756 530.781 Q95.9456 530.781 92.8669 526.197 Q89.8114 521.591 89.8114 512.864 Q89.8114 504.114 92.8669 499.531 Q95.9456 494.924 101.756 494.924 Z" fill="#000000" fill-rule="evenodd" fill-opacity="1" /><path clip-path="url(#clip900)" d="M121.918 524.23 L126.802 524.23 L126.802 530.109 L121.918 530.109 L121.918 524.23 Z" fill="#000000" fill-rule="evenodd" fill-opacity="1" /><path clip-path="url(#clip900)" d="M137.033 495.549 L155.39 495.549 L155.39 499.484 L141.316 499.484 L141.316 507.957 Q142.334 507.609 143.353 507.447 Q144.371 507.262 145.39 507.262 Q151.177 507.262 154.556 510.433 Q157.936 513.605 157.936 519.021 Q157.936 524.6 154.464 527.702 Q150.992 530.781 144.672 530.781 Q142.496 530.781 140.228 530.41 Q137.982 530.04 135.575 529.299 L135.575 524.6 Q137.658 525.734 139.881 526.29 Q142.103 526.845 144.58 526.845 Q148.584 526.845 150.922 524.739 Q153.26 522.632 153.26 519.021 Q153.26 515.41 150.922 513.304 Q148.584 511.197 144.58 511.197 Q142.705 511.197 140.83 511.614 Q138.978 512.031 137.033 512.91 L137.033 495.549 Z" fill="#000000" fill-rule="evenodd" fill-opacity="1" /><path clip-path="url(#clip900)" d="M91.5706 303.791 L99.2095 303.791 L99.2095 277.426 L90.8993 279.092 L90.8993 274.833 L99.1632 273.167 L103.839 273.167 L103.839 303.791 L111.478 303.791 L111.478 307.727 L91.5706 307.727 L91.5706 303.791 Z" fill="#000000" fill-rule="evenodd" fill-opacity="1" /><path clip-path="url(#clip900)" d="M120.922 301.847 L125.807 301.847 L125.807 307.727 L120.922 307.727 L120.922 301.847 Z" fill="#000000" fill-rule="evenodd" fill-opacity="1" /><path clip-path="url(#clip900)" d="M145.992 276.245 Q142.381 276.245 140.552 279.81 Q138.746 283.352 138.746 290.481 Q138.746 297.588 140.552 301.153 Q142.381 304.694 145.992 304.694 Q149.626 304.694 151.431 301.153 Q153.26 297.588 153.26 290.481 Q153.26 283.352 151.431 279.81 Q149.626 276.245 145.992 276.245 M145.992 272.542 Q151.802 272.542 154.857 277.148 Q157.936 281.731 157.936 290.481 Q157.936 299.208 154.857 303.815 Q151.802 308.398 145.992 308.398 Q140.181 308.398 137.103 303.815 Q134.047 299.208 134.047 290.481 Q134.047 281.731 137.103 277.148 Q140.181 272.542 145.992 272.542 Z" fill="#000000" fill-rule="evenodd" fill-opacity="1" /><path clip-path="url(#clip900)" d="M92.566 81.4087 L100.205 81.4087 L100.205 55.0431 L91.8947 56.7098 L91.8947 52.4506 L100.159 50.7839 L104.834 50.7839 L104.834 81.4087 L112.473 81.4087 L112.473 85.3439 L92.566 85.3439 L92.566 81.4087 Z" fill="#000000" fill-rule="evenodd" fill-opacity="1" /><path clip-path="url(#clip900)" d="M121.918 79.4643 L126.802 79.4643 L126.802 85.3439 L121.918 85.3439 L121.918 79.4643 Z" fill="#000000" fill-rule="evenodd" fill-opacity="1" /><path clip-path="url(#clip900)" d="M137.033 50.7839 L155.39 50.7839 L155.39 54.7191 L141.316 54.7191 L141.316 63.1912 Q142.334 62.844 143.353 62.682 Q144.371 62.4968 145.39 62.4968 Q151.177 62.4968 154.556 65.6681 Q157.936 68.8394 157.936 74.256 Q157.936 79.8347 154.464 82.9365 Q150.992 86.0152 144.672 86.0152 Q142.496 86.0152 140.228 85.6448 Q137.982 85.2745 135.575 84.5337 L135.575 79.8347 Q137.658 80.9689 139.881 81.5245 Q142.103 82.08 144.58 82.08 Q148.584 82.08 150.922 79.9736 Q153.26 77.8671 153.26 74.256 Q153.26 70.6449 150.922 68.5384 Q148.584 66.432 144.58 66.432 Q142.705 66.432 140.83 66.8486 Q138.978 67.2653 137.033 68.1449 L137.033 50.7839 Z" fill="#000000" fill-rule="evenodd" fill-opacity="1" /><polyline clip-path="url(#clip902)" style="stroke:#009af9; stroke-linecap:butt; stroke-linejoin:round; stroke-width:12; stroke-opacity:1; fill:none" points="
  255.035,957.595 287.362,844.567 319.689,688.557 352.017,509.911 384.344,335.613 416.671,193.499 448.999,106.193 481.326,86.1857 513.653,133.198 545.981,234.438 
  578.308,367.687 610.635,506.481 642.963,626.17 675.29,709.425 707.617,749.912 739.945,753.273 772.272,735.212 804.599,717.151 836.927,720.512 869.254,760.999 
  901.582,844.254 933.909,963.943 966.236,1102.74 998.564,1235.99 1030.89,1337.23 1063.22,1384.24 1095.55,1364.23 1127.87,1276.93 1160.2,1134.81 1192.53,960.513 
  1224.85,781.867 1257.18,625.857 1289.51,512.829 1321.84,452.319 1354.16,441.458 1386.49,466.316 1418.82,505.818 1451.15,537.307 1483.47,542.412 1515.8,511.8 
  1548.13,447.695 1580.46,363.547 1612.78,280.918 1645.11,224.325 1677.44,215.261 1709.77,266.802 1742.09,380.103 1774.42,543.612 1806.75,735.212 1839.07,926.812 
  1871.4,1090.32 1903.73,1203.62 1936.06,1255.16 1968.38,1246.1 2000.71,1189.51 2033.04,1106.88 2065.37,1022.73 2097.69,958.624 2130.02,928.012 2162.35,933.117 
  2194.68,964.606 2227,1004.11 2259.33,1028.97 2291.66,1018.11 
  "/>
<path clip-path="url(#clip900)" d="
M2019.08 196.789 L2280.8 196.789 L2280.8 93.1086 L2019.08 93.1086  Z
  " fill="#ffffff" fill-rule="evenodd" fill-opacity="1"/>
<polyline clip-path="url(#clip900)" style="stroke:#000000; stroke-linecap:butt; stroke-linejoin:round; stroke-width:4; stroke-opacity:1; fill:none" points="
  2019.08,196.789 2280.8,196.789 2280.8,93.1086 2019.08,93.1086 2019.08,196.789 
  "/>
<polyline clip-path="url(#clip900)" style="stroke:#009af9; stroke-linecap:butt; stroke-linejoin:round; stroke-width:4; stroke-opacity:1; fill:none" points="
  2043.08,144.949 2187.08,144.949 
  "/>
<path clip-path="url(#clip900)" d="M2211.08 151.997 L2211.08 136.303 L2215.34 136.303 L2215.34 151.835 Q2215.34 155.516 2216.78 157.368 Q2218.21 159.196 2221.08 159.196 Q2224.53 159.196 2226.52 156.997 Q2228.54 154.798 2228.54 151.002 L2228.54 136.303 L2232.8 136.303 L2232.8 162.229 L2228.54 162.229 L2228.54 158.247 Q2226.99 160.608 2224.92 161.766 Q2222.89 162.9 2220.18 162.9 Q2215.71 162.9 2213.4 160.122 Q2211.08 157.344 2211.08 151.997 M2221.8 135.678 L2221.8 135.678 Z" fill="#000000" fill-rule="evenodd" fill-opacity="1" /></svg>
