<?xml version="1.0" encoding="utf-8"?>
<svg xmlns="http://www.w3.org/2000/svg" xmlns:xlink="http://www.w3.org/1999/xlink" width="600" height="400" viewBox="0 0 2400 1600">
<defs>
  <clipPath id="clip100">
    <rect x="0" y="0" width="2400" height="1600"/>
  </clipPath>
</defs>
<path clip-path="url(#clip100)" d="
M0 1600 L2400 1600 L2400 0 L0 0  Z
  " fill="#ffffff" fill-rule="evenodd" fill-opacity="1"/>
<defs>
  <clipPath id="clip101">
    <rect x="480" y="0" width="1681" height="1600"/>
  </clipPath>
</defs>
<path clip-path="url(#clip100)" d="
M292.651 1375.66 L2352.76 1375.66 L2352.76 47.2441 L292.651 47.2441  Z
  " fill="#ffffff" fill-rule="evenodd" fill-opacity="1"/>
<defs>
  <clipPath id="clip102">
    <rect x="292" y="47" width="2061" height="1329"/>
  </clipPath>
</defs>
<polyline clip-path="url(#clip102)" style="stroke:#000000; stroke-linecap:butt; stroke-linejoin:round; stroke-width:2; stroke-opacity:0.1; fill:none" points="
  386.292,1375.66 386.292,47.2441 
  "/>
<polyline clip-path="url(#clip102)" style="stroke:#000000; stroke-linecap:butt; stroke-linejoin:round; stroke-width:2; stroke-opacity:0.1; fill:none" points="
  573.574,1375.66 573.574,47.2441 
  "/>
<polyline clip-path="url(#clip102)" style="stroke:#000000; stroke-linecap:butt; stroke-linejoin:round; stroke-width:2; stroke-opacity:0.1; fill:none" points="
  760.856,1375.66 760.856,47.2441 
  "/>
<polyline clip-path="url(#clip102)" style="stroke:#000000; stroke-linecap:butt; stroke-linejoin:round; stroke-width:2; stroke-opacity:0.1; fill:none" points="
  948.139,1375.66 948.139,47.2441 
  "/>
<polyline clip-path="url(#clip102)" style="stroke:#000000; stroke-linecap:butt; stroke-linejoin:round; stroke-width:2; stroke-opacity:0.1; fill:none" points="
  1135.42,1375.66 1135.42,47.2441 
  "/>
<polyline clip-path="url(#clip102)" style="stroke:#000000; stroke-linecap:butt; stroke-linejoin:round; stroke-width:2; stroke-opacity:0.1; fill:none" points="
  1322.7,1375.66 1322.7,47.2441 
  "/>
<polyline clip-path="url(#clip102)" style="stroke:#000000; stroke-linecap:butt; stroke-linejoin:round; stroke-width:2; stroke-opacity:0.1; fill:none" points="
  1509.99,1375.66 1509.99,47.2441 
  "/>
<polyline clip-path="url(#clip102)" style="stroke:#000000; stroke-linecap:butt; stroke-linejoin:round; stroke-width:2; stroke-opacity:0.1; fill:none" points="
  1697.27,1375.66 1697.27,47.2441 
  "/>
<polyline clip-path="url(#clip102)" style="stroke:#000000; stroke-linecap:butt; stroke-linejoin:round; stroke-width:2; stroke-opacity:0.1; fill:none" points="
  1884.55,1375.66 1884.55,47.2441 
  "/>
<polyline clip-path="url(#clip102)" style="stroke:#000000; stroke-linecap:butt; stroke-linejoin:round; stroke-width:2; stroke-opacity:0.1; fill:none" points="
  2071.83,1375.66 2071.83,47.2441 
  "/>
<polyline clip-path="url(#clip102)" style="stroke:#000000; stroke-linecap:butt; stroke-linejoin:round; stroke-width:2; stroke-opacity:0.1; fill:none" points="
  2259.11,1375.66 2259.11,47.2441 
  "/>
<polyline clip-path="url(#clip100)" style="stroke:#000000; stroke-linecap:butt; stroke-linejoin:round; stroke-width:4; stroke-opacity:1; fill:none" points="
  292.651,1375.66 2352.76,1375.66 
  "/>
<polyline clip-path="url(#clip100)" style="stroke:#000000; stroke-linecap:butt; stroke-linejoin:round; stroke-width:4; stroke-opacity:1; fill:none" points="
  386.292,1375.66 386.292,1359.72 
  "/>
<polyline clip-path="url(#clip100)" style="stroke:#000000; stroke-linecap:butt; stroke-linejoin:round; stroke-width:4; stroke-opacity:1; fill:none" points="
  573.574,1375.66 573.574,1359.72 
  "/>
<polyline clip-path="url(#clip100)" style="stroke:#000000; stroke-linecap:butt; stroke-linejoin:round; stroke-width:4; stroke-opacity:1; fill:none" points="
  760.856,1375.66 760.856,1359.72 
  "/>
<polyline clip-path="url(#clip100)" style="stroke:#000000; stroke-linecap:butt; stroke-linejoin:round; stroke-width:4; stroke-opacity:1; fill:none" points="
  948.139,1375.66 948.139,1359.72 
  "/>
<polyline clip-path="url(#clip100)" style="stroke:#000000; stroke-linecap:butt; stroke-linejoin:round; stroke-width:4; stroke-opacity:1; fill:none" points="
  1135.42,1375.66 1135.42,1359.72 
  "/>
<polyline clip-path="url(#clip100)" style="stroke:#000000; stroke-linecap:butt; stroke-linejoin:round; stroke-width:4; stroke-opacity:1; fill:none" points="
  1322.7,1375.66 1322.7,1359.72 
  "/>
<polyline clip-path="url(#clip100)" style="stroke:#000000; stroke-linecap:butt; stroke-linejoin:round; stroke-width:4; stroke-opacity:1; fill:none" points="
  1509.99,1375.66 1509.99,1359.72 
  "/>
<polyline clip-path="url(#clip100)" style="stroke:#000000; stroke-linecap:butt; stroke-linejoin:round; stroke-width:4; stroke-opacity:1; fill:none" points="
  1697.27,1375.66 1697.27,1359.72 
  "/>
<polyline clip-path="url(#clip100)" style="stroke:#000000; stroke-linecap:butt; stroke-linejoin:round; stroke-width:4; stroke-opacity:1; fill:none" points="
  1884.55,1375.66 1884.55,1359.72 
  "/>
<polyline clip-path="url(#clip100)" style="stroke:#000000; stroke-linecap:butt; stroke-linejoin:round; stroke-width:4; stroke-opacity:1; fill:none" points="
  2071.83,1375.66 2071.83,1359.72 
  "/>
<polyline clip-path="url(#clip100)" style="stroke:#000000; stroke-linecap:butt; stroke-linejoin:round; stroke-width:4; stroke-opacity:1; fill:none" points="
  2259.11,1375.66 2259.11,1359.72 
  "/>
<path clip-path="url(#clip100)" d="M386.292 1409.85 Q380.875 1409.85 378.132 1415.19 Q375.424 1420.51 375.424 1431.2 Q375.424 1441.86 378.132 1447.21 Q380.875 1452.52 386.292 1452.52 Q391.743 1452.52 394.452 1447.21 Q397.195 1441.86 397.195 1431.2 Q397.195 1420.51 394.452 1415.19 Q391.743 1409.85 386.292 1409.85 M386.292 1404.29 Q395.007 1404.29 399.59 1411.2 Q404.208 1418.07 404.208 1431.2 Q404.208 1444.29 399.59 1451.2 Q395.007 1458.07 386.292 1458.07 Q377.577 1458.07 372.959 1451.2 Q368.375 1444.29 368.375 1431.2 Q368.375 1418.07 372.959 1411.2 Q377.577 1404.29 386.292 1404.29 Z" fill="#000000" fill-rule="evenodd" fill-opacity="1" /><path clip-path="url(#clip100)" d="M559.147 1451.17 L570.605 1451.17 L570.605 1411.62 L558.14 1414.12 L558.14 1407.73 L570.536 1405.23 L577.55 1405.23 L577.55 1451.17 L589.008 1451.17 L589.008 1457.07 L559.147 1457.07 L559.147 1451.17 Z" fill="#000000" fill-rule="evenodd" fill-opacity="1" /><path clip-path="url(#clip100)" d="M752.836 1451.17 L777.315 1451.17 L777.315 1457.07 L744.398 1457.07 L744.398 1451.17 Q748.391 1447.03 755.266 1440.09 Q762.176 1433.11 763.947 1431.1 Q767.315 1427.31 768.634 1424.71 Q769.988 1422.07 769.988 1419.53 Q769.988 1415.4 767.072 1412.8 Q764.19 1410.19 759.537 1410.19 Q756.238 1410.19 752.558 1411.34 Q748.912 1412.48 744.745 1414.81 L744.745 1407.73 Q748.982 1406.03 752.662 1405.16 Q756.343 1404.29 759.398 1404.29 Q767.454 1404.29 772.245 1408.32 Q777.037 1412.35 777.037 1419.08 Q777.037 1422.28 775.822 1425.16 Q774.641 1428.01 771.481 1431.89 Q770.613 1432.9 765.961 1437.73 Q761.308 1442.52 752.836 1451.17 Z" fill="#000000" fill-rule="evenodd" fill-opacity="1" /><path clip-path="url(#clip100)" d="M954.51 1429.12 Q959.545 1430.19 962.357 1433.6 Q965.205 1437 965.205 1442 Q965.205 1449.67 959.927 1453.87 Q954.649 1458.07 944.927 1458.07 Q941.663 1458.07 938.191 1457.42 Q934.753 1456.79 931.073 1455.51 L931.073 1448.73 Q933.99 1450.44 937.462 1451.3 Q940.934 1452.17 944.719 1452.17 Q951.316 1452.17 954.753 1449.57 Q958.226 1446.96 958.226 1442 Q958.226 1437.42 954.996 1434.85 Q951.802 1432.24 946.073 1432.24 L940.031 1432.24 L940.031 1426.48 L946.351 1426.48 Q951.524 1426.48 954.267 1424.43 Q957.01 1422.35 957.01 1418.46 Q957.01 1414.46 954.163 1412.35 Q951.351 1410.19 946.073 1410.19 Q943.191 1410.19 939.892 1410.82 Q936.594 1411.44 932.635 1412.76 L932.635 1406.51 Q936.628 1405.4 940.101 1404.85 Q943.608 1404.29 946.698 1404.29 Q954.684 1404.29 959.337 1407.94 Q963.989 1411.55 963.989 1417.73 Q963.989 1422.03 961.524 1425.02 Q959.059 1427.97 954.51 1429.12 Z" fill="#000000" fill-rule="evenodd" fill-opacity="1" /><path clip-path="url(#clip100)" d="M1139.93 1411.34 L1122.23 1439.01 L1139.93 1439.01 L1139.93 1411.34 M1138.09 1405.23 L1146.91 1405.23 L1146.91 1439.01 L1154.31 1439.01 L1154.31 1444.85 L1146.91 1444.85 L1146.91 1457.07 L1139.93 1457.07 L1139.93 1444.85 L1116.53 1444.85 L1116.53 1438.07 L1138.09 1405.23 Z" fill="#000000" fill-rule="evenodd" fill-opacity="1" /><path clip-path="url(#clip100)" d="M1308.12 1405.23 L1335.65 1405.23 L1335.65 1411.13 L1314.54 1411.13 L1314.54 1423.84 Q1316.07 1423.32 1317.6 1423.07 Q1319.13 1422.8 1320.65 1422.8 Q1329.34 1422.8 1334.4 1427.55 Q1339.47 1432.31 1339.47 1440.44 Q1339.47 1448.8 1334.27 1453.46 Q1329.06 1458.07 1319.58 1458.07 Q1316.31 1458.07 1312.91 1457.52 Q1309.54 1456.96 1305.93 1455.85 L1305.93 1448.8 Q1309.06 1450.51 1312.39 1451.34 Q1315.72 1452.17 1319.44 1452.17 Q1325.45 1452.17 1328.95 1449.01 Q1332.46 1445.85 1332.46 1440.44 Q1332.46 1435.02 1328.95 1431.86 Q1325.45 1428.7 1319.44 1428.7 Q1316.63 1428.7 1313.81 1429.32 Q1311.04 1429.95 1308.12 1431.27 L1308.12 1405.23 Z" fill="#000000" fill-rule="evenodd" fill-opacity="1" /><path clip-path="url(#clip100)" d="M1510.59 1428.35 Q1505.87 1428.35 1503.09 1431.58 Q1500.35 1434.81 1500.35 1440.44 Q1500.35 1446.03 1503.09 1449.29 Q1505.87 1452.52 1510.59 1452.52 Q1515.32 1452.52 1518.06 1449.29 Q1520.84 1446.03 1520.84 1440.44 Q1520.84 1434.81 1518.06 1431.58 Q1515.32 1428.35 1510.59 1428.35 M1524.52 1406.37 L1524.52 1412.76 Q1521.88 1411.51 1519.17 1410.85 Q1516.5 1410.19 1513.86 1410.19 Q1506.91 1410.19 1503.23 1414.88 Q1499.59 1419.57 1499.07 1429.05 Q1501.11 1426.03 1504.2 1424.43 Q1507.29 1422.8 1511.01 1422.8 Q1518.82 1422.8 1523.34 1427.55 Q1527.88 1432.28 1527.88 1440.44 Q1527.88 1448.42 1523.16 1453.25 Q1518.44 1458.07 1510.59 1458.07 Q1501.6 1458.07 1496.84 1451.2 Q1492.09 1444.29 1492.09 1431.2 Q1492.09 1418.91 1497.92 1411.62 Q1503.75 1404.29 1513.58 1404.29 Q1516.22 1404.29 1518.89 1404.81 Q1521.6 1405.33 1524.52 1406.37 Z" fill="#000000" fill-rule="evenodd" fill-opacity="1" /><path clip-path="url(#clip100)" d="M1680.6 1405.23 L1713.93 1405.23 L1713.93 1408.21 L1695.12 1457.07 L1687.79 1457.07 L1705.5 1411.13 L1680.6 1411.13 L1680.6 1405.23 Z" fill="#000000" fill-rule="evenodd" fill-opacity="1" /><path clip-path="url(#clip100)" d="M1884.55 1432.45 Q1879.55 1432.45 1876.67 1435.12 Q1873.82 1437.8 1873.82 1442.48 Q1873.82 1447.17 1876.67 1449.85 Q1879.55 1452.52 1884.55 1452.52 Q1889.55 1452.52 1892.43 1449.85 Q1895.31 1447.14 1895.31 1442.48 Q1895.31 1437.8 1892.43 1435.12 Q1889.58 1432.45 1884.55 1432.45 M1877.54 1429.46 Q1873.02 1428.35 1870.49 1425.26 Q1867.99 1422.17 1867.99 1417.73 Q1867.99 1411.51 1872.4 1407.9 Q1876.84 1404.29 1884.55 1404.29 Q1892.29 1404.29 1896.7 1407.9 Q1901.11 1411.51 1901.11 1417.73 Q1901.11 1422.17 1898.58 1425.26 Q1896.08 1428.35 1891.6 1429.46 Q1896.67 1430.64 1899.48 1434.08 Q1902.33 1437.52 1902.33 1442.48 Q1902.33 1450.02 1897.71 1454.05 Q1893.13 1458.07 1884.55 1458.07 Q1875.97 1458.07 1871.36 1454.05 Q1866.77 1450.02 1866.77 1442.48 Q1866.77 1437.52 1869.62 1434.08 Q1872.47 1430.64 1877.54 1429.46 M1874.97 1418.39 Q1874.97 1422.42 1877.47 1424.67 Q1880 1426.93 1884.55 1426.93 Q1889.06 1426.93 1891.6 1424.67 Q1894.17 1422.42 1894.17 1418.39 Q1894.17 1414.36 1891.6 1412.1 Q1889.06 1409.85 1884.55 1409.85 Q1880 1409.85 1877.47 1412.1 Q1874.97 1414.36 1874.97 1418.39 Z" fill="#000000" fill-rule="evenodd" fill-opacity="1" /><path clip-path="url(#clip100)" d="M2057.28 1455.99 L2057.28 1449.6 Q2059.92 1450.85 2062.63 1451.51 Q2065.34 1452.17 2067.94 1452.17 Q2074.89 1452.17 2078.53 1447.52 Q2082.21 1442.83 2082.74 1433.32 Q2080.72 1436.3 2077.63 1437.9 Q2074.54 1439.5 2070.79 1439.5 Q2063.01 1439.5 2058.46 1434.81 Q2053.95 1430.09 2053.95 1421.93 Q2053.95 1413.94 2058.67 1409.12 Q2063.4 1404.29 2071.24 1404.29 Q2080.24 1404.29 2084.96 1411.2 Q2089.71 1418.07 2089.71 1431.2 Q2089.71 1443.46 2083.88 1450.78 Q2078.08 1458.07 2068.26 1458.07 Q2065.62 1458.07 2062.91 1457.55 Q2060.2 1457.03 2057.28 1455.99 M2071.24 1434.01 Q2075.96 1434.01 2078.71 1430.78 Q2081.49 1427.55 2081.49 1421.93 Q2081.49 1416.34 2078.71 1413.11 Q2075.96 1409.85 2071.24 1409.85 Q2066.52 1409.85 2063.74 1413.11 Q2061 1416.34 2061 1421.93 Q2061 1427.55 2063.74 1430.78 Q2066.52 1434.01 2071.24 1434.01 Z" fill="#000000" fill-rule="evenodd" fill-opacity="1" /><path clip-path="url(#clip100)" d="M2221.15 1451.17 L2232.6 1451.17 L2232.6 1411.62 L2220.14 1414.12 L2220.14 1407.73 L2232.54 1405.23 L2239.55 1405.23 L2239.55 1451.17 L2251.01 1451.17 L2251.01 1457.07 L2221.15 1457.07 L2221.15 1451.17 Z" fill="#000000" fill-rule="evenodd" fill-opacity="1" /><path clip-path="url(#clip100)" d="M2280.17 1409.85 Q2274.76 1409.85 2272.01 1415.19 Q2269.31 1420.51 2269.31 1431.2 Q2269.31 1441.86 2272.01 1447.21 Q2274.76 1452.52 2280.17 1452.52 Q2285.63 1452.52 2288.33 1447.21 Q2291.08 1441.86 2291.08 1431.2 Q2291.08 1420.51 2288.33 1415.19 Q2285.63 1409.85 2280.17 1409.85 M2280.17 1404.29 Q2288.89 1404.29 2293.47 1411.2 Q2298.09 1418.07 2298.09 1431.2 Q2298.09 1444.29 2293.47 1451.2 Q2288.89 1458.07 2280.17 1458.07 Q2271.46 1458.07 2266.84 1451.2 Q2262.26 1444.29 2262.26 1431.2 Q2262.26 1418.07 2266.84 1411.2 Q2271.46 1404.29 2280.17 1404.29 Z" fill="#000000" fill-rule="evenodd" fill-opacity="1" /><path clip-path="url(#clip100)" d="M1296.82 1501.69 L1306.45 1501.69 L1306.45 1549.55 L1335.05 1524.4 L1347.29 1524.4 L1316.35 1551.69 L1348.59 1582.73 L1336.09 1582.73 L1306.45 1554.24 L1306.45 1582.73 L1296.82 1582.73 L1296.82 1501.69 Z" fill="#000000" fill-rule="evenodd" fill-opacity="1" /><polyline clip-path="url(#clip102)" style="stroke:#000000; stroke-linecap:butt; stroke-linejoin:round; stroke-width:2; stroke-opacity:0.1; fill:none" points="
  292.651,1315.28 2352.76,1315.28 
  "/>
<polyline clip-path="url(#clip102)" style="stroke:#000000; stroke-linecap:butt; stroke-linejoin:round; stroke-width:2; stroke-opacity:0.1; fill:none" points="
  292.651,1013.36 2352.76,1013.36 
  "/>
<polyline clip-path="url(#clip102)" style="stroke:#000000; stroke-linecap:butt; stroke-linejoin:round; stroke-width:2; stroke-opacity:0.1; fill:none" points="
  292.651,711.452 2352.76,711.452 
  "/>
<polyline clip-path="url(#clip102)" style="stroke:#000000; stroke-linecap:butt; stroke-linejoin:round; stroke-width:2; stroke-opacity:0.1; fill:none" points="
  292.651,409.539 2352.76,409.539 
  "/>
<polyline clip-path="url(#clip102)" style="stroke:#000000; stroke-linecap:butt; stroke-linejoin:round; stroke-width:2; stroke-opacity:0.1; fill:none" points="
  292.651,107.627 2352.76,107.627 
  "/>
<polyline clip-path="url(#clip100)" style="stroke:#000000; stroke-linecap:butt; stroke-linejoin:round; stroke-width:4; stroke-opacity:1; fill:none" points="
  292.651,1375.66 292.651,47.2441 
  "/>
<polyline clip-path="url(#clip100)" style="stroke:#000000; stroke-linecap:butt; stroke-linejoin:round; stroke-width:4; stroke-opacity:1; fill:none" points="
  292.651,1315.28 317.372,1315.28 
  "/>
<polyline clip-path="url(#clip100)" style="stroke:#000000; stroke-linecap:butt; stroke-linejoin:round; stroke-width:4; stroke-opacity:1; fill:none" points="
  292.651,1013.36 317.372,1013.36 
  "/>
<polyline clip-path="url(#clip100)" style="stroke:#000000; stroke-linecap:butt; stroke-linejoin:round; stroke-width:4; stroke-opacity:1; fill:none" points="
  292.651,711.452 317.372,711.452 
  "/>
<polyline clip-path="url(#clip100)" style="stroke:#000000; stroke-linecap:butt; stroke-linejoin:round; stroke-width:4; stroke-opacity:1; fill:none" points="
  292.651,409.539 317.372,409.539 
  "/>
<polyline clip-path="url(#clip100)" style="stroke:#000000; stroke-linecap:butt; stroke-linejoin:round; stroke-width:4; stroke-opacity:1; fill:none" points="
  292.651,107.627 317.372,107.627 
  "/>
<path clip-path="url(#clip100)" d="M50.9921 1315.95 L95.5058 1315.95 L95.5058 1321.86 L50.9921 1321.86 L50.9921 1315.95 Z" fill="#000000" fill-rule="evenodd" fill-opacity="1" /><path clip-path="url(#clip100)" d="M125.645 1293.98 Q120.228 1293.98 117.485 1299.32 Q114.777 1304.64 114.777 1315.33 Q114.777 1325.99 117.485 1331.34 Q120.228 1336.65 125.645 1336.65 Q131.096 1336.65 133.804 1331.34 Q136.547 1325.99 136.547 1315.33 Q136.547 1304.64 133.804 1299.32 Q131.096 1293.98 125.645 1293.98 M125.645 1288.42 Q134.36 1288.42 138.943 1295.33 Q143.561 1302.2 143.561 1315.33 Q143.561 1328.42 138.943 1335.33 Q134.36 1342.2 125.645 1342.2 Q116.929 1342.2 112.311 1335.33 Q107.728 1328.42 107.728 1315.33 Q107.728 1302.2 112.311 1295.33 Q116.929 1288.42 125.645 1288.42 Z" fill="#000000" fill-rule="evenodd" fill-opacity="1" /><path clip-path="url(#clip100)" d="M155.887 1332.38 L163.214 1332.38 L163.214 1341.2 L155.887 1341.2 L155.887 1332.38 Z" fill="#000000" fill-rule="evenodd" fill-opacity="1" /><path clip-path="url(#clip100)" d="M178.561 1289.36 L206.095 1289.36 L206.095 1295.26 L184.984 1295.26 L184.984 1307.97 Q186.512 1307.45 188.04 1307.2 Q189.568 1306.93 191.096 1306.93 Q199.776 1306.93 204.845 1311.68 Q209.915 1316.44 209.915 1324.57 Q209.915 1332.93 204.707 1337.59 Q199.498 1342.2 190.019 1342.2 Q186.755 1342.2 183.353 1341.65 Q179.984 1341.09 176.373 1339.98 L176.373 1332.93 Q179.498 1334.63 182.832 1335.47 Q186.165 1336.3 189.88 1336.3 Q195.887 1336.3 199.394 1333.14 Q202.901 1329.98 202.901 1324.57 Q202.901 1319.15 199.394 1315.99 Q195.887 1312.83 189.88 1312.83 Q187.068 1312.83 184.255 1313.45 Q181.478 1314.08 178.561 1315.4 L178.561 1289.36 Z" fill="#000000" fill-rule="evenodd" fill-opacity="1" /><path clip-path="url(#clip100)" d="M238.734 1293.98 Q233.318 1293.98 230.574 1299.32 Q227.866 1304.64 227.866 1315.33 Q227.866 1325.99 230.574 1331.34 Q233.318 1336.65 238.734 1336.65 Q244.186 1336.65 246.894 1331.34 Q249.637 1325.99 249.637 1315.33 Q249.637 1304.64 246.894 1299.32 Q244.186 1293.98 238.734 1293.98 M238.734 1288.42 Q247.449 1288.42 252.033 1295.33 Q256.651 1302.2 256.651 1315.33 Q256.651 1328.42 252.033 1335.33 Q247.449 1342.2 238.734 1342.2 Q230.019 1342.2 225.401 1335.33 Q220.818 1328.42 220.818 1315.33 Q220.818 1302.2 225.401 1295.33 Q230.019 1288.42 238.734 1288.42 Z" fill="#000000" fill-rule="evenodd" fill-opacity="1" /><path clip-path="url(#clip100)" d="M52.4852 1014.04 L96.9988 1014.04 L96.9988 1019.94 L52.4852 1019.94 L52.4852 1014.04 Z" fill="#000000" fill-rule="evenodd" fill-opacity="1" /><path clip-path="url(#clip100)" d="M127.138 992.063 Q121.721 992.063 118.978 997.41 Q116.27 1002.72 116.27 1013.42 Q116.27 1024.08 118.978 1029.42 Q121.721 1034.74 127.138 1034.74 Q132.589 1034.74 135.297 1029.42 Q138.04 1024.08 138.04 1013.42 Q138.04 1002.72 135.297 997.41 Q132.589 992.063 127.138 992.063 M127.138 986.507 Q135.853 986.507 140.436 993.417 Q145.054 1000.29 145.054 1013.42 Q145.054 1026.51 140.436 1033.42 Q135.853 1040.29 127.138 1040.29 Q118.422 1040.29 113.804 1033.42 Q109.221 1026.51 109.221 1013.42 Q109.221 1000.29 113.804 993.417 Q118.422 986.507 127.138 986.507 Z" fill="#000000" fill-rule="evenodd" fill-opacity="1" /><path clip-path="url(#clip100)" d="M157.38 1030.47 L164.707 1030.47 L164.707 1039.28 L157.38 1039.28 L157.38 1030.47 Z" fill="#000000" fill-rule="evenodd" fill-opacity="1" /><path clip-path="url(#clip100)" d="M186.026 1033.38 L210.505 1033.38 L210.505 1039.28 L177.589 1039.28 L177.589 1033.38 Q181.582 1029.25 188.457 1022.31 Q195.366 1015.33 197.137 1013.31 Q200.505 1009.53 201.825 1006.92 Q203.179 1004.28 203.179 1001.75 Q203.179 997.618 200.262 995.014 Q197.38 992.41 192.727 992.41 Q189.429 992.41 185.748 993.556 Q182.103 994.702 177.936 997.028 L177.936 989.945 Q182.172 988.243 185.853 987.375 Q189.533 986.507 192.589 986.507 Q200.644 986.507 205.436 990.535 Q210.227 994.563 210.227 1001.3 Q210.227 1004.49 209.012 1007.38 Q207.832 1010.22 204.672 1014.11 Q203.804 1015.12 199.151 1019.94 Q194.498 1024.74 186.026 1033.38 Z" fill="#000000" fill-rule="evenodd" fill-opacity="1" /><path clip-path="url(#clip100)" d="M225.297 987.445 L252.831 987.445 L252.831 993.347 L231.72 993.347 L231.72 1006.06 Q233.248 1005.53 234.776 1005.29 Q236.304 1005.01 237.831 1005.01 Q246.512 1005.01 251.581 1009.77 Q256.651 1014.53 256.651 1022.65 Q256.651 1031.02 251.442 1035.67 Q246.234 1040.29 236.755 1040.29 Q233.491 1040.29 230.088 1039.74 Q226.72 1039.18 223.109 1038.07 L223.109 1031.02 Q226.234 1032.72 229.568 1033.56 Q232.901 1034.39 236.616 1034.39 Q242.623 1034.39 246.13 1031.23 Q249.637 1028.07 249.637 1022.65 Q249.637 1017.24 246.13 1014.08 Q242.623 1010.92 236.616 1010.92 Q233.804 1010.92 230.991 1011.54 Q228.213 1012.17 225.297 1013.49 L225.297 987.445 Z" fill="#000000" fill-rule="evenodd" fill-opacity="1" /><path clip-path="url(#clip100)" d="M125.645 690.15 Q120.228 690.15 117.485 695.497 Q114.777 700.81 114.777 711.504 Q114.777 722.164 117.485 727.511 Q120.228 732.823 125.645 732.823 Q131.096 732.823 133.804 727.511 Q136.547 722.164 136.547 711.504 Q136.547 700.81 133.804 695.497 Q131.096 690.15 125.645 690.15 M125.645 684.594 Q134.36 684.594 138.943 691.504 Q143.561 698.379 143.561 711.504 Q143.561 724.594 138.943 731.504 Q134.36 738.379 125.645 738.379 Q116.929 738.379 112.311 731.504 Q107.728 724.594 107.728 711.504 Q107.728 698.379 112.311 691.504 Q116.929 684.594 125.645 684.594 Z" fill="#000000" fill-rule="evenodd" fill-opacity="1" /><path clip-path="url(#clip100)" d="M155.887 728.553 L163.214 728.553 L163.214 737.372 L155.887 737.372 L155.887 728.553 Z" fill="#000000" fill-rule="evenodd" fill-opacity="1" /><path clip-path="url(#clip100)" d="M193.491 690.15 Q188.075 690.15 185.332 695.497 Q182.623 700.81 182.623 711.504 Q182.623 722.164 185.332 727.511 Q188.075 732.823 193.491 732.823 Q198.943 732.823 201.651 727.511 Q204.394 722.164 204.394 711.504 Q204.394 700.81 201.651 695.497 Q198.943 690.15 193.491 690.15 M193.491 684.594 Q202.207 684.594 206.79 691.504 Q211.408 698.379 211.408 711.504 Q211.408 724.594 206.79 731.504 Q202.207 738.379 193.491 738.379 Q184.776 738.379 180.158 731.504 Q175.575 724.594 175.575 711.504 Q175.575 698.379 180.158 691.504 Q184.776 684.594 193.491 684.594 Z" fill="#000000" fill-rule="evenodd" fill-opacity="1" /><path clip-path="url(#clip100)" d="M238.734 690.15 Q233.318 690.15 230.574 695.497 Q227.866 700.81 227.866 711.504 Q227.866 722.164 230.574 727.511 Q233.318 732.823 238.734 732.823 Q244.186 732.823 246.894 727.511 Q249.637 722.164 249.637 711.504 Q249.637 700.81 246.894 695.497 Q244.186 690.15 238.734 690.15 M238.734 684.594 Q247.449 684.594 252.033 691.504 Q256.651 698.379 256.651 711.504 Q256.651 724.594 252.033 731.504 Q247.449 738.379 238.734 738.379 Q230.019 738.379 225.401 731.504 Q220.818 724.594 220.818 711.504 Q220.818 698.379 225.401 691.504 Q230.019 684.594 238.734 684.594 Z" fill="#000000" fill-rule="evenodd" fill-opacity="1" /><path clip-path="url(#clip100)" d="M127.138 388.237 Q121.721 388.237 118.978 393.585 Q116.27 398.897 116.27 409.591 Q116.27 420.251 118.978 425.598 Q121.721 430.911 127.138 430.911 Q132.589 430.911 135.297 425.598 Q138.04 420.251 138.04 409.591 Q138.04 398.897 135.297 393.585 Q132.589 388.237 127.138 388.237 M127.138 382.682 Q135.853 382.682 140.436 389.591 Q145.054 396.466 145.054 409.591 Q145.054 422.682 140.436 429.591 Q135.853 436.466 127.138 436.466 Q118.422 436.466 113.804 429.591 Q109.221 422.682 109.221 409.591 Q109.221 396.466 113.804 389.591 Q118.422 382.682 127.138 382.682 Z" fill="#000000" fill-rule="evenodd" fill-opacity="1" /><path clip-path="url(#clip100)" d="M157.38 426.64 L164.707 426.64 L164.707 435.459 L157.38 435.459 L157.38 426.64 Z" fill="#000000" fill-rule="evenodd" fill-opacity="1" /><path clip-path="url(#clip100)" d="M186.026 429.557 L210.505 429.557 L210.505 435.459 L177.589 435.459 L177.589 429.557 Q181.582 425.425 188.457 418.48 Q195.366 411.501 197.137 409.487 Q200.505 405.703 201.825 403.098 Q203.179 400.459 203.179 397.925 Q203.179 393.793 200.262 391.189 Q197.38 388.585 192.727 388.585 Q189.429 388.585 185.748 389.73 Q182.103 390.876 177.936 393.203 L177.936 386.119 Q182.172 384.418 185.853 383.55 Q189.533 382.682 192.589 382.682 Q200.644 382.682 205.436 386.71 Q210.227 390.737 210.227 397.473 Q210.227 400.668 209.012 403.55 Q207.832 406.397 204.672 410.286 Q203.804 411.293 199.151 416.119 Q194.498 420.911 186.026 429.557 Z" fill="#000000" fill-rule="evenodd" fill-opacity="1" /><path clip-path="url(#clip100)" d="M225.297 383.619 L252.831 383.619 L252.831 389.522 L231.72 389.522 L231.72 402.23 Q233.248 401.709 234.776 401.466 Q236.304 401.189 237.831 401.189 Q246.512 401.189 251.581 405.946 Q256.651 410.702 256.651 418.827 Q256.651 427.195 251.442 431.848 Q246.234 436.466 236.755 436.466 Q233.491 436.466 230.088 435.911 Q226.72 435.355 223.109 434.244 L223.109 427.195 Q226.234 428.897 229.568 429.73 Q232.901 430.563 236.616 430.563 Q242.623 430.563 246.13 427.404 Q249.637 424.244 249.637 418.827 Q249.637 413.411 246.13 410.251 Q242.623 407.091 236.616 407.091 Q233.804 407.091 230.991 407.716 Q228.213 408.341 225.297 409.661 L225.297 383.619 Z" fill="#000000" fill-rule="evenodd" fill-opacity="1" /><path clip-path="url(#clip100)" d="M125.645 86.3247 Q120.228 86.3247 117.485 91.6719 Q114.777 96.9843 114.777 107.679 Q114.777 118.338 117.485 123.686 Q120.228 128.998 125.645 128.998 Q131.096 128.998 133.804 123.686 Q136.547 118.338 136.547 107.679 Q136.547 96.9843 133.804 91.6719 Q131.096 86.3247 125.645 86.3247 M125.645 80.7691 Q134.36 80.7691 138.943 87.6788 Q143.561 94.5538 143.561 107.679 Q143.561 120.769 138.943 127.679 Q134.36 134.554 125.645 134.554 Q116.929 134.554 112.311 127.679 Q107.728 120.769 107.728 107.679 Q107.728 94.5538 112.311 87.6788 Q116.929 80.7691 125.645 80.7691 Z" fill="#000000" fill-rule="evenodd" fill-opacity="1" /><path clip-path="url(#clip100)" d="M155.887 124.727 L163.214 124.727 L163.214 133.547 L155.887 133.547 L155.887 124.727 Z" fill="#000000" fill-rule="evenodd" fill-opacity="1" /><path clip-path="url(#clip100)" d="M178.561 81.7066 L206.095 81.7066 L206.095 87.6094 L184.984 87.6094 L184.984 100.318 Q186.512 99.7968 188.04 99.5538 Q189.568 99.276 191.096 99.276 Q199.776 99.276 204.845 104.033 Q209.915 108.79 209.915 116.915 Q209.915 125.283 204.707 129.936 Q199.498 134.554 190.019 134.554 Q186.755 134.554 183.353 133.998 Q179.984 133.442 176.373 132.331 L176.373 125.283 Q179.498 126.984 182.832 127.817 Q186.165 128.651 189.88 128.651 Q195.887 128.651 199.394 125.491 Q202.901 122.331 202.901 116.915 Q202.901 111.498 199.394 108.338 Q195.887 105.179 189.88 105.179 Q187.068 105.179 184.255 105.804 Q181.478 106.429 178.561 107.748 L178.561 81.7066 Z" fill="#000000" fill-rule="evenodd" fill-opacity="1" /><path clip-path="url(#clip100)" d="M238.734 86.3247 Q233.318 86.3247 230.574 91.6719 Q227.866 96.9843 227.866 107.679 Q227.866 118.338 230.574 123.686 Q233.318 128.998 238.734 128.998 Q244.186 128.998 246.894 123.686 Q249.637 118.338 249.637 107.679 Q249.637 96.9843 246.894 91.6719 Q244.186 86.3247 238.734 86.3247 M238.734 80.7691 Q247.449 80.7691 252.033 87.6788 Q256.651 94.5538 256.651 107.679 Q256.651 120.769 252.033 127.679 Q247.449 134.554 238.734 134.554 Q230.019 134.554 225.401 127.679 Q220.818 120.769 220.818 107.679 Q220.818 94.5538 225.401 87.6788 Q230.019 80.7691 238.734 80.7691 Z" fill="#000000" fill-rule="evenodd" fill-opacity="1" /><polyline clip-path="url(#clip102)" style="stroke:#009af9; stroke-linecap:butt; stroke-linejoin:round; stroke-width:12; stroke-opacity:1; fill:none" points="
  386.292,711.452 573.574,711.452 760.856,711.452 948.139,711.452 1135.42,711.452 1322.7,409.539 1509.99,711.452 1697.27,711.452 1884.55,711.452 2071.83,711.452 
  2259.11,711.452 2446.4,711.452 2633.68,711.452 2820.96,711.452 3008.24,711.452 3195.53,711.452 3382.81,711.452 3570.09,711.452 3757.37,711.452 3944.66,711.452 
  4131.94,711.452 4319.22,711.452 4506.5,711.452 4693.78,711.452 4881.07,711.452 5068.35,711.452 5255.63,711.452 5442.91,711.452 5630.2,711.452 5817.48,711.452 
  6004.76,711.452 6192.04,711.452 6379.33,711.452 
  "/>
<circle clip-path="url(#clip102)" cx="386.292" cy="711.452" r="14" fill="#009af9" fill-rule="evenodd" fill-opacity="1" stroke="#000000" stroke-opacity="1" stroke-width="3.2"/>
<circle clip-path="url(#clip102)" cx="573.574" cy="711.452" r="14" fill="#009af9" fill-rule="evenodd" fill-opacity="1" stroke="#000000" stroke-opacity="1" stroke-width="3.2"/>
<circle clip-path="url(#clip102)" cx="760.856" cy="711.452" r="14" fill="#009af9" fill-rule="evenodd" fill-opacity="1" stroke="#000000" stroke-opacity="1" stroke-width="3.2"/>
<circle clip-path="url(#clip102)" cx="948.139" cy="711.452" r="14" fill="#009af9" fill-rule="evenodd" fill-opacity="1" stroke="#000000" stroke-opacity="1" stroke-width="3.2"/>
<circle clip-path="url(#clip102)" cx="1135.42" cy="711.452" r="14" fill="#009af9" fill-rule="evenodd" fill-opacity="1" stroke="#000000" stroke-opacity="1" stroke-width="3.2"/>
<circle clip-path="url(#clip102)" cx="1322.7" cy="409.539" r="14" fill="#009af9" fill-rule="evenodd" fill-opacity="1" stroke="#000000" stroke-opacity="1" stroke-width="3.2"/>
<circle clip-path="url(#clip102)" cx="1509.99" cy="711.452" r="14" fill="#009af9" fill-rule="evenodd" fill-opacity="1" stroke="#000000" stroke-opacity="1" stroke-width="3.2"/>
<circle clip-path="url(#clip102)" cx="1697.27" cy="711.452" r="14" fill="#009af9" fill-rule="evenodd" fill-opacity="1" stroke="#000000" stroke-opacity="1" stroke-width="3.2"/>
<circle clip-path="url(#clip102)" cx="1884.55" cy="711.452" r="14" fill="#009af9" fill-rule="evenodd" fill-opacity="1" stroke="#000000" stroke-opacity="1" stroke-width="3.2"/>
<circle clip-path="url(#clip102)" cx="2071.83" cy="711.452" r="14" fill="#009af9" fill-rule="evenodd" fill-opacity="1" stroke="#000000" stroke-opacity="1" stroke-width="3.2"/>
<circle clip-path="url(#clip102)" cx="2259.11" cy="711.452" r="14" fill="#009af9" fill-rule="evenodd" fill-opacity="1" stroke="#000000" stroke-opacity="1" stroke-width="3.2"/>
<polyline clip-path="url(#clip102)" style="stroke:#e26f46; stroke-linecap:butt; stroke-linejoin:round; stroke-width:12; stroke-opacity:1; fill:none" points="
  386.292,711.452 573.574,711.452 760.856,1315.28 948.139,711.452 1135.42,711.452 1322.7,711.452 1509.99,711.452 1697.27,711.452 1884.55,711.452 2071.83,711.452 
  2259.11,711.452 2446.4,711.452 2633.68,711.452 2820.96,711.452 3008.24,711.452 3195.53,711.452 3382.81,711.452 3570.09,711.452 3757.37,711.452 3944.66,711.452 
  4131.94,711.452 4319.22,711.452 4506.5,711.452 4693.78,711.452 4881.07,711.452 5068.35,711.452 5255.63,711.452 5442.91,711.452 5630.2,711.452 5817.48,711.452 
  6004.76,711.452 6192.04,711.452 6379.33,711.452 
  "/>
<path clip-path="url(#clip102)" d="M370.292 695.452 L370.292 727.452 L402.292 727.452 L402.292 695.452 L370.292 695.452 Z" fill="#e26f46" fill-rule="evenodd" fill-opacity="1" stroke="#000000" stroke-opacity="1" stroke-width="3.2"/>
<path clip-path="url(#clip102)" d="M557.574 695.452 L557.574 727.452 L589.574 727.452 L589.574 695.452 L557.574 695.452 Z" fill="#e26f46" fill-rule="evenodd" fill-opacity="1" stroke="#000000" stroke-opacity="1" stroke-width="3.2"/>
<path clip-path="url(#clip102)" d="M744.856 1299.28 L744.856 1331.28 L776.856 1331.28 L776.856 1299.28 L744.856 1299.28 Z" fill="#e26f46" fill-rule="evenodd" fill-opacity="1" stroke="#000000" stroke-opacity="1" stroke-width="3.2"/>
<path clip-path="url(#clip102)" d="M932.139 695.452 L932.139 727.452 L964.139 727.452 L964.139 695.452 L932.139 695.452 Z" fill="#e26f46" fill-rule="evenodd" fill-opacity="1" stroke="#000000" stroke-opacity="1" stroke-width="3.2"/>
<path clip-path="url(#clip102)" d="M1119.42 695.452 L1119.42 727.452 L1151.42 727.452 L1151.42 695.452 L1119.42 695.452 Z" fill="#e26f46" fill-rule="evenodd" fill-opacity="1" stroke="#000000" stroke-opacity="1" stroke-width="3.2"/>
<path clip-path="url(#clip102)" d="M1306.7 695.452 L1306.7 727.452 L1338.7 727.452 L1338.7 695.452 L1306.7 695.452 Z" fill="#e26f46" fill-rule="evenodd" fill-opacity="1" stroke="#000000" stroke-opacity="1" stroke-width="3.2"/>
<path clip-path="url(#clip102)" d="M1493.99 695.452 L1493.99 727.452 L1525.99 727.452 L1525.99 695.452 L1493.99 695.452 Z" fill="#e26f46" fill-rule="evenodd" fill-opacity="1" stroke="#000000" stroke-opacity="1" stroke-width="3.2"/>
<path clip-path="url(#clip102)" d="M1681.27 695.452 L1681.27 727.452 L1713.27 727.452 L1713.27 695.452 L1681.27 695.452 Z" fill="#e26f46" fill-rule="evenodd" fill-opacity="1" stroke="#000000" stroke-opacity="1" stroke-width="3.2"/>
<path clip-path="url(#clip102)" d="M1868.55 695.452 L1868.55 727.452 L1900.55 727.452 L1900.55 695.452 L1868.55 695.452 Z" fill="#e26f46" fill-rule="evenodd" fill-opacity="1" stroke="#000000" stroke-opacity="1" stroke-width="3.2"/>
<path clip-path="url(#clip102)" d="M2055.83 695.452 L2055.83 727.452 L2087.83 727.452 L2087.83 695.452 L2055.83 695.452 Z" fill="#e26f46" fill-rule="evenodd" fill-opacity="1" stroke="#000000" stroke-opacity="1" stroke-width="3.2"/>
<path clip-path="url(#clip102)" d="M2243.11 695.452 L2243.11 727.452 L2275.11 727.452 L2275.11 695.452 L2243.11 695.452 Z" fill="#e26f46" fill-rule="evenodd" fill-opacity="1" stroke="#000000" stroke-opacity="1" stroke-width="3.2"/>
<path clip-path="url(#clip100)" d="
M1744.49 363.685 L2284.09 363.685 L2284.09 91.5246 L1744.49 91.5246  Z
  " fill="#ffffff" fill-rule="evenodd" fill-opacity="1"/>
<polyline clip-path="url(#clip100)" style="stroke:#000000; stroke-linecap:butt; stroke-linejoin:round; stroke-width:4; stroke-opacity:1; fill:none" points="
  1744.49,363.685 2284.09,363.685 2284.09,91.5246 1744.49,91.5246 1744.49,363.685 
  "/>
<polyline clip-path="url(#clip100)" style="stroke:#009af9; stroke-linecap:butt; stroke-linejoin:round; stroke-width:6; stroke-opacity:1; fill:none" points="
  1767.38,182.245 1904.72,182.245 
  "/>
<circle clip-path="url(#clip100)" cx="1836.05" cy="182.245" r="34" fill="#009af9" fill-rule="evenodd" fill-opacity="1" stroke="#000000" stroke-opacity="1" stroke-width="7.68"/>
<path clip-path="url(#clip100)" d="M1950.39 175.248 Q1949.31 174.623 1948.03 174.345 Q1946.78 174.033 1945.25 174.033 Q1939.83 174.033 1936.92 177.575 Q1934.04 181.081 1934.04 187.679 L1934.04 208.165 L1927.61 208.165 L1927.61 169.276 L1934.04 169.276 L1934.04 175.318 Q1936.05 171.776 1939.28 170.075 Q1942.51 168.338 1947.13 168.338 Q1947.79 168.338 1948.58 168.443 Q1949.38 168.512 1950.36 168.686 L1950.39 175.248 Z" fill="#000000" fill-rule="evenodd" fill-opacity="1" /><path clip-path="url(#clip100)" d="M1988.79 187.123 L1988.79 190.248 L1959.42 190.248 Q1959.83 196.845 1963.38 200.317 Q1966.95 203.755 1973.31 203.755 Q1976.99 203.755 1980.43 202.852 Q1983.9 201.949 1987.3 200.144 L1987.3 206.185 Q1983.86 207.644 1980.25 208.408 Q1976.64 209.172 1972.93 209.172 Q1963.62 209.172 1958.17 203.755 Q1952.75 198.338 1952.75 189.102 Q1952.75 179.554 1957.89 173.963 Q1963.06 168.338 1971.81 168.338 Q1979.66 168.338 1984.21 173.408 Q1988.79 178.443 1988.79 187.123 M1982.4 185.248 Q1982.33 180.005 1979.45 176.88 Q1976.61 173.755 1971.88 173.755 Q1966.54 173.755 1963.31 176.776 Q1960.11 179.797 1959.63 185.283 L1982.4 185.248 Z" fill="#000000" fill-rule="evenodd" fill-opacity="1" /><path clip-path="url(#clip100)" d="M2016.95 188.616 Q2009.21 188.616 2006.22 190.387 Q2003.24 192.158 2003.24 196.429 Q2003.24 199.831 2005.46 201.845 Q2007.72 203.824 2011.57 203.824 Q2016.88 203.824 2020.08 200.074 Q2023.31 196.29 2023.31 190.04 L2023.31 188.616 L2016.95 188.616 M2029.7 185.977 L2029.7 208.165 L2023.31 208.165 L2023.31 202.262 Q2021.12 205.804 2017.86 207.505 Q2014.59 209.172 2009.87 209.172 Q2003.9 209.172 2000.36 205.838 Q1996.85 202.47 1996.85 196.845 Q1996.85 190.283 2001.22 186.949 Q2005.63 183.616 2014.35 183.616 L2023.31 183.616 L2023.31 182.991 Q2023.31 178.581 2020.39 176.186 Q2017.51 173.755 2012.27 173.755 Q2008.93 173.755 2005.77 174.554 Q2002.61 175.352 1999.7 176.95 L1999.7 171.047 Q2003.2 169.693 2006.5 169.033 Q2009.8 168.338 2012.92 168.338 Q2021.36 168.338 2025.53 172.713 Q2029.7 177.088 2029.7 185.977 Z" fill="#000000" fill-rule="evenodd" fill-opacity="1" /><path clip-path="url(#clip100)" d="M2042.86 154.137 L2049.24 154.137 L2049.24 208.165 L2042.86 208.165 L2042.86 154.137 Z" fill="#000000" fill-rule="evenodd" fill-opacity="1" /><path clip-path="url(#clip100)" d="M2077.96 154.207 Q2073.31 162.193 2071.05 170.005 Q2068.79 177.818 2068.79 185.838 Q2068.79 193.859 2071.05 201.741 Q2073.34 209.588 2077.96 217.54 L2072.4 217.54 Q2067.2 209.38 2064.59 201.498 Q2062.02 193.616 2062.02 185.838 Q2062.02 178.095 2064.59 170.248 Q2067.16 162.401 2072.4 154.207 L2077.96 154.207 Z" fill="#000000" fill-rule="evenodd" fill-opacity="1" /><path clip-path="url(#clip100)" d="M2112.3 192.817 L2112.3 169.276 L2118.69 169.276 L2118.69 192.574 Q2118.69 198.095 2120.84 200.873 Q2122.99 203.616 2127.3 203.616 Q2132.47 203.616 2135.46 200.317 Q2138.48 197.019 2138.48 191.324 L2138.48 169.276 L2144.87 169.276 L2144.87 208.165 L2138.48 208.165 L2138.48 202.192 Q2136.15 205.734 2133.06 207.47 Q2130.01 209.172 2125.95 209.172 Q2119.24 209.172 2115.77 205.005 Q2112.3 200.838 2112.3 192.817 M2128.38 168.338 L2128.38 168.338 Z" fill="#000000" fill-rule="evenodd" fill-opacity="1" /><path clip-path="url(#clip100)" d="M2130.98 151.29 L2136.12 151.29 L2144.63 164.345 L2139.8 164.345 L2133.55 155.839 L2127.3 164.345 L2122.47 164.345 L2130.98 151.29 M2133.55 168.338 L2133.55 168.338 Z" fill="#000000" fill-rule="evenodd" fill-opacity="1" /><path clip-path="url(#clip100)" d="M2179.63 154.207 L2185.18 154.207 Q2190.39 162.401 2192.96 170.248 Q2195.56 178.095 2195.56 185.838 Q2195.56 193.616 2192.96 201.498 Q2190.39 209.38 2185.18 217.54 L2179.63 217.54 Q2184.24 209.588 2186.5 201.741 Q2188.79 193.859 2188.79 185.838 Q2188.79 177.818 2186.5 170.005 Q2184.24 162.193 2179.63 154.207 Z" fill="#000000" fill-rule="evenodd" fill-opacity="1" /><polyline clip-path="url(#clip100)" style="stroke:#e26f46; stroke-linecap:butt; stroke-linejoin:round; stroke-width:6; stroke-opacity:1; fill:none" points="
  1767.38,272.965 1904.72,272.965 
  "/>
<path clip-path="url(#clip100)" d="M1797.65 234.565 L1797.65 311.365 L1874.45 311.365 L1874.45 234.565 L1797.65 234.565 Z" fill="#e26f46" fill-rule="evenodd" fill-opacity="1" stroke="#000000" stroke-opacity="1" stroke-width="7.68"/>
<path clip-path="url(#clip100)" d="M1927.61 259.996 L1934 259.996 L1934 298.885 L1927.61 298.885 L1927.61 259.996 M1927.61 244.857 L1934 244.857 L1934 252.947 L1927.61 252.947 L1927.61 244.857 Z" fill="#000000" fill-rule="evenodd" fill-opacity="1" /><path clip-path="url(#clip100)" d="M1977.65 267.461 Q1980.04 263.156 1983.38 261.107 Q1986.71 259.058 1991.22 259.058 Q1997.3 259.058 2000.6 263.329 Q2003.9 267.565 2003.9 275.413 L2003.9 298.885 L1997.47 298.885 L1997.47 275.621 Q1997.47 270.031 1995.49 267.322 Q1993.52 264.614 1989.45 264.614 Q1984.49 264.614 1981.61 267.913 Q1978.72 271.211 1978.72 276.906 L1978.72 298.885 L1972.3 298.885 L1972.3 275.621 Q1972.3 269.996 1970.32 267.322 Q1968.34 264.614 1964.21 264.614 Q1959.31 264.614 1956.43 267.947 Q1953.55 271.246 1953.55 276.906 L1953.55 298.885 L1947.13 298.885 L1947.13 259.996 L1953.55 259.996 L1953.55 266.038 Q1955.74 262.461 1958.79 260.76 Q1961.85 259.058 1966.05 259.058 Q1970.29 259.058 1973.24 261.211 Q1976.22 263.364 1977.65 267.461 Z" fill="#000000" fill-rule="evenodd" fill-opacity="1" /><path clip-path="url(#clip100)" d="M2034.31 279.336 Q2026.57 279.336 2023.58 281.107 Q2020.6 282.878 2020.6 287.149 Q2020.6 290.551 2022.82 292.565 Q2025.08 294.544 2028.93 294.544 Q2034.24 294.544 2037.44 290.794 Q2040.67 287.01 2040.67 280.76 L2040.67 279.336 L2034.31 279.336 M2047.06 276.697 L2047.06 298.885 L2040.67 298.885 L2040.67 292.982 Q2038.48 296.524 2035.22 298.225 Q2031.95 299.892 2027.23 299.892 Q2021.26 299.892 2017.72 296.558 Q2014.21 293.19 2014.21 287.565 Q2014.21 281.003 2018.58 277.669 Q2022.99 274.336 2031.71 274.336 L2040.67 274.336 L2040.67 273.711 Q2040.67 269.301 2037.75 266.906 Q2034.87 264.475 2029.63 264.475 Q2026.29 264.475 2023.13 265.274 Q2019.97 266.072 2017.06 267.67 L2017.06 261.767 Q2020.56 260.413 2023.86 259.753 Q2027.16 259.058 2030.29 259.058 Q2038.72 259.058 2042.89 263.433 Q2047.06 267.808 2047.06 276.697 Z" fill="#000000" fill-rule="evenodd" fill-opacity="1" /><path clip-path="url(#clip100)" d="M2085.81 278.989 Q2085.81 272.044 2082.92 268.225 Q2080.08 264.406 2074.9 264.406 Q2069.76 264.406 2066.88 268.225 Q2064.04 272.044 2064.04 278.989 Q2064.04 285.899 2066.88 289.718 Q2069.76 293.537 2074.9 293.537 Q2080.08 293.537 2082.92 289.718 Q2085.81 285.899 2085.81 278.989 M2092.2 294.058 Q2092.2 303.989 2087.79 308.815 Q2083.38 313.676 2074.28 313.676 Q2070.91 313.676 2067.92 313.155 Q2064.94 312.669 2062.13 311.628 L2062.13 305.412 Q2064.94 306.94 2067.68 307.669 Q2070.42 308.398 2073.27 308.398 Q2079.56 308.398 2082.68 305.1 Q2085.81 301.836 2085.81 295.204 L2085.81 292.044 Q2083.83 295.482 2080.74 297.183 Q2077.65 298.885 2073.34 298.885 Q2066.19 298.885 2061.81 293.433 Q2057.44 287.982 2057.44 278.989 Q2057.44 269.961 2061.81 264.51 Q2066.19 259.058 2073.34 259.058 Q2077.65 259.058 2080.74 260.76 Q2083.83 262.461 2085.81 265.899 L2085.81 259.996 L2092.2 259.996 L2092.2 294.058 Z" fill="#000000" fill-rule="evenodd" fill-opacity="1" /><path clip-path="url(#clip100)" d="M2120.7 244.927 Q2116.05 252.913 2113.79 260.725 Q2111.54 268.538 2111.54 276.558 Q2111.54 284.579 2113.79 292.461 Q2116.08 300.308 2120.7 308.26 L2115.15 308.26 Q2109.94 300.1 2107.33 292.218 Q2104.76 284.336 2104.76 276.558 Q2104.76 268.815 2107.33 260.968 Q2109.9 253.121 2115.15 244.927 L2120.7 244.927 Z" fill="#000000" fill-rule="evenodd" fill-opacity="1" /><path clip-path="url(#clip100)" d="M2155.04 283.537 L2155.04 259.996 L2161.43 259.996 L2161.43 283.294 Q2161.43 288.815 2163.58 291.593 Q2165.74 294.336 2170.04 294.336 Q2175.22 294.336 2178.2 291.037 Q2181.22 287.739 2181.22 282.044 L2181.22 259.996 L2187.61 259.996 L2187.61 298.885 L2181.22 298.885 L2181.22 292.912 Q2178.9 296.454 2175.81 298.19 Q2172.75 299.892 2168.69 299.892 Q2161.99 299.892 2158.51 295.725 Q2155.04 291.558 2155.04 283.537 M2171.12 259.058 L2171.12 259.058 Z" fill="#000000" fill-rule="evenodd" fill-opacity="1" /><path clip-path="url(#clip100)" d="M2173.72 242.01 L2178.86 242.01 L2187.37 255.065 L2182.54 255.065 L2176.29 246.559 L2170.04 255.065 L2165.22 255.065 L2173.72 242.01 M2176.29 259.058 L2176.29 259.058 Z" fill="#000000" fill-rule="evenodd" fill-opacity="1" /><path clip-path="url(#clip100)" d="M2222.37 244.927 L2227.92 244.927 Q2233.13 253.121 2235.7 260.968 Q2238.31 268.815 2238.31 276.558 Q2238.31 284.336 2235.7 292.218 Q2233.13 300.1 2227.92 308.26 L2222.37 308.26 Q2226.99 300.308 2229.24 292.461 Q2231.53 284.579 2231.53 276.558 Q2231.53 268.538 2229.24 260.725 Q2226.99 252.913 2222.37 244.927 Z" fill="#000000" fill-rule="evenodd" fill-opacity="1" /></svg>
