<?xml version="1.0" encoding="utf-8"?>
<svg xmlns="http://www.w3.org/2000/svg" xmlns:xlink="http://www.w3.org/1999/xlink" width="600" height="400" viewBox="0 0 2400 1600">
<defs>
  <clipPath id="clip160">
    <rect x="0" y="0" width="2400" height="1600"/>
  </clipPath>
</defs>
<path clip-path="url(#clip160)" d="
M0 1600 L2400 1600 L2400 0 L0 0  Z
  " fill="#ffffff" fill-rule="evenodd" fill-opacity="1"/>
<defs>
  <clipPath id="clip161">
    <rect x="480" y="0" width="1681" height="1600"/>
  </clipPath>
</defs>
<path clip-path="url(#clip160)" d="
M287.512 1345.42 L2352.76 1345.42 L2352.76 183.952 L287.512 183.952  Z
  " fill="#ffffff" fill-rule="evenodd" fill-opacity="1"/>
<defs>
  <clipPath id="clip162">
    <rect x="287" y="183" width="2066" height="1162"/>
  </clipPath>
</defs>
<polyline clip-path="url(#clip162)" style="stroke:#000000; stroke-linecap:butt; stroke-linejoin:round; stroke-width:2; stroke-opacity:0.1; fill:none" points="
  345.962,1345.42 345.962,183.952 
  "/>
<polyline clip-path="url(#clip162)" style="stroke:#000000; stroke-linecap:butt; stroke-linejoin:round; stroke-width:2; stroke-opacity:0.1; fill:none" points="
  833.048,1345.42 833.048,183.952 
  "/>
<polyline clip-path="url(#clip162)" style="stroke:#000000; stroke-linecap:butt; stroke-linejoin:round; stroke-width:2; stroke-opacity:0.1; fill:none" points="
  1320.13,1345.42 1320.13,183.952 
  "/>
<polyline clip-path="url(#clip162)" style="stroke:#000000; stroke-linecap:butt; stroke-linejoin:round; stroke-width:2; stroke-opacity:0.1; fill:none" points="
  1807.22,1345.42 1807.22,183.952 
  "/>
<polyline clip-path="url(#clip162)" style="stroke:#000000; stroke-linecap:butt; stroke-linejoin:round; stroke-width:2; stroke-opacity:0.1; fill:none" points="
  2294.31,1345.42 2294.31,183.952 
  "/>
<polyline clip-path="url(#clip160)" style="stroke:#000000; stroke-linecap:butt; stroke-linejoin:round; stroke-width:4; stroke-opacity:1; fill:none" points="
  287.512,1345.42 2352.76,1345.42 
  "/>
<polyline clip-path="url(#clip160)" style="stroke:#000000; stroke-linecap:butt; stroke-linejoin:round; stroke-width:4; stroke-opacity:1; fill:none" points="
  345.962,1345.42 345.962,1331.48 
  "/>
<polyline clip-path="url(#clip160)" style="stroke:#000000; stroke-linecap:butt; stroke-linejoin:round; stroke-width:4; stroke-opacity:1; fill:none" points="
  833.048,1345.42 833.048,1331.48 
  "/>
<polyline clip-path="url(#clip160)" style="stroke:#000000; stroke-linecap:butt; stroke-linejoin:round; stroke-width:4; stroke-opacity:1; fill:none" points="
  1320.13,1345.42 1320.13,1331.48 
  "/>
<polyline clip-path="url(#clip160)" style="stroke:#000000; stroke-linecap:butt; stroke-linejoin:round; stroke-width:4; stroke-opacity:1; fill:none" points="
  1807.22,1345.42 1807.22,1331.48 
  "/>
<polyline clip-path="url(#clip160)" style="stroke:#000000; stroke-linecap:butt; stroke-linejoin:round; stroke-width:4; stroke-opacity:1; fill:none" points="
  2294.31,1345.42 2294.31,1331.48 
  "/>
<path clip-path="url(#clip160)" d="M245.702 1410.83 L301.344 1410.83 L301.344 1418.2 L245.702 1418.2 L245.702 1410.83 Z" fill="#000000" fill-rule="evenodd" fill-opacity="1" /><path clip-path="url(#clip160)" d="M321.787 1435 L336.11 1435 L336.11 1385.57 L320.528 1388.69 L320.528 1380.7 L336.023 1377.58 L344.79 1377.58 L344.79 1435 L359.113 1435 L359.113 1442.38 L321.787 1442.38 L321.787 1435 Z" fill="#000000" fill-rule="evenodd" fill-opacity="1" /><path clip-path="url(#clip160)" d="M376.821 1431.36 L385.979 1431.36 L385.979 1442.38 L376.821 1442.38 L376.821 1431.36 Z" fill="#000000" fill-rule="evenodd" fill-opacity="1" /><path clip-path="url(#clip160)" d="M423.826 1383.35 Q417.056 1383.35 413.627 1390.04 Q410.241 1396.68 410.241 1410.04 Q410.241 1423.37 413.627 1430.05 Q417.056 1436.69 423.826 1436.69 Q430.641 1436.69 434.026 1430.05 Q437.455 1423.37 437.455 1410.04 Q437.455 1396.68 434.026 1390.04 Q430.641 1383.35 423.826 1383.35 M423.826 1376.41 Q434.72 1376.41 440.45 1385.05 Q446.222 1393.64 446.222 1410.04 Q446.222 1426.41 440.45 1435.04 Q434.72 1443.64 423.826 1443.64 Q412.932 1443.64 407.16 1435.04 Q401.431 1426.41 401.431 1410.04 Q401.431 1393.64 407.16 1385.05 Q412.932 1376.41 423.826 1376.41 Z" fill="#000000" fill-rule="evenodd" fill-opacity="1" /><path clip-path="url(#clip160)" d="M733.721 1410.83 L789.363 1410.83 L789.363 1418.2 L733.721 1418.2 L733.721 1410.83 Z" fill="#000000" fill-rule="evenodd" fill-opacity="1" /><path clip-path="url(#clip160)" d="M827.037 1383.35 Q820.266 1383.35 816.837 1390.04 Q813.452 1396.68 813.452 1410.04 Q813.452 1423.37 816.837 1430.05 Q820.266 1436.69 827.037 1436.69 Q833.851 1436.69 837.236 1430.05 Q840.665 1423.37 840.665 1410.04 Q840.665 1396.68 837.236 1390.04 Q833.851 1383.35 827.037 1383.35 M827.037 1376.41 Q837.931 1376.41 843.66 1385.05 Q849.433 1393.64 849.433 1410.04 Q849.433 1426.41 843.66 1435.04 Q837.931 1443.64 827.037 1443.64 Q816.143 1443.64 810.37 1435.04 Q804.641 1426.41 804.641 1410.04 Q804.641 1393.64 810.37 1385.05 Q816.143 1376.41 827.037 1376.41 Z" fill="#000000" fill-rule="evenodd" fill-opacity="1" /><path clip-path="url(#clip160)" d="M864.84 1431.36 L873.998 1431.36 L873.998 1442.38 L864.84 1442.38 L864.84 1431.36 Z" fill="#000000" fill-rule="evenodd" fill-opacity="1" /><path clip-path="url(#clip160)" d="M893.182 1377.58 L927.6 1377.58 L927.6 1384.96 L901.212 1384.96 L901.212 1400.84 Q903.121 1400.19 905.031 1399.89 Q906.941 1399.54 908.851 1399.54 Q919.701 1399.54 926.038 1405.49 Q932.375 1411.43 932.375 1421.59 Q932.375 1432.05 925.864 1437.87 Q919.354 1443.64 907.505 1443.64 Q903.425 1443.64 899.172 1442.94 Q894.962 1442.25 890.448 1440.86 L890.448 1432.05 Q894.354 1434.18 898.521 1435.22 Q902.687 1436.26 907.331 1436.26 Q914.84 1436.26 919.224 1432.31 Q923.607 1428.36 923.607 1421.59 Q923.607 1414.82 919.224 1410.87 Q914.84 1406.92 907.331 1406.92 Q903.816 1406.92 900.3 1407.7 Q896.828 1408.48 893.182 1410.13 L893.182 1377.58 Z" fill="#000000" fill-rule="evenodd" fill-opacity="1" /><path clip-path="url(#clip160)" d="M1277.73 1383.35 Q1270.96 1383.35 1267.53 1390.04 Q1264.14 1396.68 1264.14 1410.04 Q1264.14 1423.37 1267.53 1430.05 Q1270.96 1436.69 1277.73 1436.69 Q1284.54 1436.69 1287.93 1430.05 Q1291.36 1423.37 1291.36 1410.04 Q1291.36 1396.68 1287.93 1390.04 Q1284.54 1383.35 1277.73 1383.35 M1277.73 1376.41 Q1288.62 1376.41 1294.35 1385.05 Q1300.13 1393.64 1300.13 1410.04 Q1300.13 1426.41 1294.35 1435.04 Q1288.62 1443.64 1277.73 1443.64 Q1266.84 1443.64 1261.06 1435.04 Q1255.33 1426.41 1255.33 1410.04 Q1255.33 1393.64 1261.06 1385.05 Q1266.84 1376.41 1277.73 1376.41 Z" fill="#000000" fill-rule="evenodd" fill-opacity="1" /><path clip-path="url(#clip160)" d="M1315.53 1431.36 L1324.69 1431.36 L1324.69 1442.38 L1315.53 1442.38 L1315.53 1431.36 Z" fill="#000000" fill-rule="evenodd" fill-opacity="1" /><path clip-path="url(#clip160)" d="M1362.54 1383.35 Q1355.77 1383.35 1352.34 1390.04 Q1348.95 1396.68 1348.95 1410.04 Q1348.95 1423.37 1352.34 1430.05 Q1355.77 1436.69 1362.54 1436.69 Q1369.35 1436.69 1372.74 1430.05 Q1376.17 1423.37 1376.17 1410.04 Q1376.17 1396.68 1372.74 1390.04 Q1369.35 1383.35 1362.54 1383.35 M1362.54 1376.41 Q1373.43 1376.41 1379.16 1385.05 Q1384.93 1393.64 1384.93 1410.04 Q1384.93 1426.41 1379.16 1435.04 Q1373.43 1443.64 1362.54 1443.64 Q1351.64 1443.64 1345.87 1435.04 Q1340.14 1426.41 1340.14 1410.04 Q1340.14 1393.64 1345.87 1385.05 Q1351.64 1376.41 1362.54 1376.41 Z" fill="#000000" fill-rule="evenodd" fill-opacity="1" /><path clip-path="url(#clip160)" d="M1765.75 1383.35 Q1758.98 1383.35 1755.55 1390.04 Q1752.16 1396.68 1752.16 1410.04 Q1752.16 1423.37 1755.55 1430.05 Q1758.98 1436.69 1765.75 1436.69 Q1772.56 1436.69 1775.95 1430.05 Q1779.38 1423.37 1779.38 1410.04 Q1779.38 1396.68 1775.95 1390.04 Q1772.56 1383.35 1765.75 1383.35 M1765.75 1376.41 Q1776.64 1376.41 1782.37 1385.05 Q1788.14 1393.64 1788.14 1410.04 Q1788.14 1426.41 1782.37 1435.04 Q1776.64 1443.64 1765.75 1443.64 Q1754.85 1443.64 1749.08 1435.04 Q1743.35 1426.41 1743.35 1410.04 Q1743.35 1393.64 1749.08 1385.05 Q1754.85 1376.41 1765.75 1376.41 Z" fill="#000000" fill-rule="evenodd" fill-opacity="1" /><path clip-path="url(#clip160)" d="M1803.55 1431.36 L1812.71 1431.36 L1812.71 1442.38 L1803.55 1442.38 L1803.55 1431.36 Z" fill="#000000" fill-rule="evenodd" fill-opacity="1" /><path clip-path="url(#clip160)" d="M1831.89 1377.58 L1866.31 1377.58 L1866.31 1384.96 L1839.92 1384.96 L1839.92 1400.84 Q1841.83 1400.19 1843.74 1399.89 Q1845.65 1399.54 1847.56 1399.54 Q1858.41 1399.54 1864.75 1405.49 Q1871.09 1411.43 1871.09 1421.59 Q1871.09 1432.05 1864.58 1437.87 Q1858.07 1443.64 1846.22 1443.64 Q1842.14 1443.64 1837.88 1442.94 Q1833.67 1442.25 1829.16 1440.86 L1829.16 1432.05 Q1833.07 1434.18 1837.23 1435.22 Q1841.4 1436.26 1846.04 1436.26 Q1853.55 1436.26 1857.94 1432.31 Q1862.32 1428.36 1862.32 1421.59 Q1862.32 1414.82 1857.94 1410.87 Q1853.55 1406.92 1846.04 1406.92 Q1842.53 1406.92 1839.01 1407.7 Q1835.54 1408.48 1831.89 1410.13 L1831.89 1377.58 Z" fill="#000000" fill-rule="evenodd" fill-opacity="1" /><path clip-path="url(#clip160)" d="M2232.72 1435 L2247.04 1435 L2247.04 1385.57 L2231.46 1388.69 L2231.46 1380.7 L2246.95 1377.58 L2255.72 1377.58 L2255.72 1435 L2270.04 1435 L2270.04 1442.38 L2232.72 1442.38 L2232.72 1435 Z" fill="#000000" fill-rule="evenodd" fill-opacity="1" /><path clip-path="url(#clip160)" d="M2287.75 1431.36 L2296.91 1431.36 L2296.91 1442.38 L2287.75 1442.38 L2287.75 1431.36 Z" fill="#000000" fill-rule="evenodd" fill-opacity="1" /><path clip-path="url(#clip160)" d="M2334.76 1383.35 Q2327.99 1383.35 2324.56 1390.04 Q2321.17 1396.68 2321.17 1410.04 Q2321.17 1423.37 2324.56 1430.05 Q2327.99 1436.69 2334.76 1436.69 Q2341.57 1436.69 2344.96 1430.05 Q2348.39 1423.37 2348.39 1410.04 Q2348.39 1396.68 2344.96 1390.04 Q2341.57 1383.35 2334.76 1383.35 M2334.76 1376.41 Q2345.65 1376.41 2351.38 1385.05 Q2357.15 1393.64 2357.15 1410.04 Q2357.15 1426.41 2351.38 1435.04 Q2345.65 1443.64 2334.76 1443.64 Q2323.86 1443.64 2318.09 1435.04 Q2312.36 1426.41 2312.36 1410.04 Q2312.36 1393.64 2318.09 1385.05 Q2323.86 1376.41 2334.76 1376.41 Z" fill="#000000" fill-rule="evenodd" fill-opacity="1" /><path clip-path="url(#clip160)" d="M1353.36 1521.37 L1327.58 1556.07 L1354.7 1592.67 L1340.89 1592.67 L1320.13 1564.66 L1299.38 1592.67 L1285.57 1592.67 L1313.26 1555.36 L1287.92 1521.37 L1301.74 1521.37 L1320.64 1546.77 L1339.55 1521.37 L1353.36 1521.37 Z" fill="#000000" fill-rule="evenodd" fill-opacity="1" /><polyline clip-path="url(#clip162)" style="stroke:#000000; stroke-linecap:butt; stroke-linejoin:round; stroke-width:2; stroke-opacity:0.1; fill:none" points="
  287.512,1312.55 2352.76,1312.55 
  "/>
<polyline clip-path="url(#clip162)" style="stroke:#000000; stroke-linecap:butt; stroke-linejoin:round; stroke-width:2; stroke-opacity:0.1; fill:none" points="
  287.512,1038.6 2352.76,1038.6 
  "/>
<polyline clip-path="url(#clip162)" style="stroke:#000000; stroke-linecap:butt; stroke-linejoin:round; stroke-width:2; stroke-opacity:0.1; fill:none" points="
  287.512,764.653 2352.76,764.653 
  "/>
<polyline clip-path="url(#clip162)" style="stroke:#000000; stroke-linecap:butt; stroke-linejoin:round; stroke-width:2; stroke-opacity:0.1; fill:none" points="
  287.512,490.706 2352.76,490.706 
  "/>
<polyline clip-path="url(#clip162)" style="stroke:#000000; stroke-linecap:butt; stroke-linejoin:round; stroke-width:2; stroke-opacity:0.1; fill:none" points="
  287.512,216.758 2352.76,216.758 
  "/>
<polyline clip-path="url(#clip160)" style="stroke:#000000; stroke-linecap:butt; stroke-linejoin:round; stroke-width:4; stroke-opacity:1; fill:none" points="
  287.512,1345.42 287.512,183.952 
  "/>
<polyline clip-path="url(#clip160)" style="stroke:#000000; stroke-linecap:butt; stroke-linejoin:round; stroke-width:4; stroke-opacity:1; fill:none" points="
  287.512,1312.55 312.295,1312.55 
  "/>
<polyline clip-path="url(#clip160)" style="stroke:#000000; stroke-linecap:butt; stroke-linejoin:round; stroke-width:4; stroke-opacity:1; fill:none" points="
  287.512,1038.6 312.295,1038.6 
  "/>
<polyline clip-path="url(#clip160)" style="stroke:#000000; stroke-linecap:butt; stroke-linejoin:round; stroke-width:4; stroke-opacity:1; fill:none" points="
  287.512,764.653 312.295,764.653 
  "/>
<polyline clip-path="url(#clip160)" style="stroke:#000000; stroke-linecap:butt; stroke-linejoin:round; stroke-width:4; stroke-opacity:1; fill:none" points="
  287.512,490.706 312.295,490.706 
  "/>
<polyline clip-path="url(#clip160)" style="stroke:#000000; stroke-linecap:butt; stroke-linejoin:round; stroke-width:4; stroke-opacity:1; fill:none" points="
  287.512,216.758 312.295,216.758 
  "/>
<path clip-path="url(#clip160)" d="M50.9921 1313.39 L106.634 1313.39 L106.634 1320.77 L50.9921 1320.77 L50.9921 1313.39 Z" fill="#000000" fill-rule="evenodd" fill-opacity="1" /><path clip-path="url(#clip160)" d="M127.077 1337.57 L141.4 1337.57 L141.4 1288.13 L125.818 1291.26 L125.818 1283.27 L141.313 1280.15 L150.08 1280.15 L150.08 1337.57 L164.403 1337.57 L164.403 1344.95 L127.077 1344.95 L127.077 1337.57 Z" fill="#000000" fill-rule="evenodd" fill-opacity="1" /><path clip-path="url(#clip160)" d="M182.111 1333.92 L191.269 1333.92 L191.269 1344.95 L182.111 1344.95 L182.111 1333.92 Z" fill="#000000" fill-rule="evenodd" fill-opacity="1" /><path clip-path="url(#clip160)" d="M229.116 1285.92 Q222.345 1285.92 218.917 1292.6 Q215.531 1299.25 215.531 1312.61 Q215.531 1325.94 218.917 1332.62 Q222.345 1339.26 229.116 1339.26 Q235.93 1339.26 239.316 1332.62 Q242.745 1325.94 242.745 1312.61 Q242.745 1299.25 239.316 1292.6 Q235.93 1285.92 229.116 1285.92 M229.116 1278.98 Q240.01 1278.98 245.739 1287.61 Q251.512 1296.21 251.512 1312.61 Q251.512 1328.98 245.739 1337.61 Q240.01 1346.21 229.116 1346.21 Q218.222 1346.21 212.45 1337.61 Q206.72 1328.98 206.72 1312.61 Q206.72 1296.21 212.45 1287.61 Q218.222 1278.98 229.116 1278.98 Z" fill="#000000" fill-rule="evenodd" fill-opacity="1" /><path clip-path="url(#clip160)" d="M52.8584 1039.45 L108.5 1039.45 L108.5 1046.83 L52.8584 1046.83 L52.8584 1039.45 Z" fill="#000000" fill-rule="evenodd" fill-opacity="1" /><path clip-path="url(#clip160)" d="M146.174 1011.97 Q139.403 1011.97 135.974 1018.66 Q132.589 1025.3 132.589 1038.67 Q132.589 1051.99 135.974 1058.67 Q139.403 1065.31 146.174 1065.31 Q152.988 1065.31 156.374 1058.67 Q159.802 1051.99 159.802 1038.67 Q159.802 1025.3 156.374 1018.66 Q152.988 1011.97 146.174 1011.97 M146.174 1005.03 Q157.068 1005.03 162.797 1013.67 Q168.57 1022.26 168.57 1038.67 Q168.57 1055.03 162.797 1063.67 Q157.068 1072.26 146.174 1072.26 Q135.28 1072.26 129.507 1063.67 Q123.778 1055.03 123.778 1038.67 Q123.778 1022.26 129.507 1013.67 Q135.28 1005.03 146.174 1005.03 Z" fill="#000000" fill-rule="evenodd" fill-opacity="1" /><path clip-path="url(#clip160)" d="M183.978 1059.98 L193.135 1059.98 L193.135 1071 L183.978 1071 L183.978 1059.98 Z" fill="#000000" fill-rule="evenodd" fill-opacity="1" /><path clip-path="url(#clip160)" d="M212.319 1006.2 L246.738 1006.2 L246.738 1013.58 L220.349 1013.58 L220.349 1029.46 Q222.259 1028.81 224.168 1028.51 Q226.078 1028.16 227.988 1028.16 Q238.838 1028.16 245.175 1034.11 Q251.512 1040.05 251.512 1050.21 Q251.512 1060.67 245.002 1066.49 Q238.491 1072.26 226.642 1072.26 Q222.562 1072.26 218.309 1071.56 Q214.099 1070.87 209.585 1069.48 L209.585 1060.67 Q213.491 1062.8 217.658 1063.84 Q221.825 1064.88 226.469 1064.88 Q233.977 1064.88 238.361 1060.93 Q242.745 1056.98 242.745 1050.21 Q242.745 1043.44 238.361 1039.49 Q233.977 1035.54 226.469 1035.54 Q222.953 1035.54 219.437 1036.32 Q215.965 1037.1 212.319 1038.75 L212.319 1006.2 Z" fill="#000000" fill-rule="evenodd" fill-opacity="1" /><path clip-path="url(#clip160)" d="M144.308 738.026 Q137.537 738.026 134.108 744.71 Q130.723 751.35 130.723 764.718 Q130.723 778.043 134.108 784.727 Q137.537 791.367 144.308 791.367 Q151.122 791.367 154.507 784.727 Q157.936 778.043 157.936 764.718 Q157.936 751.35 154.507 744.71 Q151.122 738.026 144.308 738.026 M144.308 731.081 Q155.202 731.081 160.931 739.718 Q166.703 748.312 166.703 764.718 Q166.703 781.081 160.931 789.718 Q155.202 798.312 144.308 798.312 Q133.414 798.312 127.641 789.718 Q121.912 781.081 121.912 764.718 Q121.912 748.312 127.641 739.718 Q133.414 731.081 144.308 731.081 Z" fill="#000000" fill-rule="evenodd" fill-opacity="1" /><path clip-path="url(#clip160)" d="M182.111 786.029 L191.269 786.029 L191.269 797.053 L182.111 797.053 L182.111 786.029 Z" fill="#000000" fill-rule="evenodd" fill-opacity="1" /><path clip-path="url(#clip160)" d="M229.116 738.026 Q222.345 738.026 218.917 744.71 Q215.531 751.35 215.531 764.718 Q215.531 778.043 218.917 784.727 Q222.345 791.367 229.116 791.367 Q235.93 791.367 239.316 784.727 Q242.745 778.043 242.745 764.718 Q242.745 751.35 239.316 744.71 Q235.93 738.026 229.116 738.026 M229.116 731.081 Q240.01 731.081 245.739 739.718 Q251.512 748.312 251.512 764.718 Q251.512 781.081 245.739 789.718 Q240.01 798.312 229.116 798.312 Q218.222 798.312 212.45 789.718 Q206.72 781.081 206.72 764.718 Q206.72 748.312 212.45 739.718 Q218.222 731.081 229.116 731.081 Z" fill="#000000" fill-rule="evenodd" fill-opacity="1" /><path clip-path="url(#clip160)" d="M146.174 464.078 Q139.403 464.078 135.974 470.762 Q132.589 477.403 132.589 490.771 Q132.589 504.095 135.974 510.779 Q139.403 517.42 146.174 517.42 Q152.988 517.42 156.374 510.779 Q159.802 504.095 159.802 490.771 Q159.802 477.403 156.374 470.762 Q152.988 464.078 146.174 464.078 M146.174 457.134 Q157.068 457.134 162.797 465.771 Q168.57 474.364 168.57 490.771 Q168.57 507.133 162.797 515.77 Q157.068 524.364 146.174 524.364 Q135.28 524.364 129.507 515.77 Q123.778 507.133 123.778 490.771 Q123.778 474.364 129.507 465.771 Q135.28 457.134 146.174 457.134 Z" fill="#000000" fill-rule="evenodd" fill-opacity="1" /><path clip-path="url(#clip160)" d="M183.978 512.081 L193.135 512.081 L193.135 523.106 L183.978 523.106 L183.978 512.081 Z" fill="#000000" fill-rule="evenodd" fill-opacity="1" /><path clip-path="url(#clip160)" d="M212.319 458.306 L246.738 458.306 L246.738 465.684 L220.349 465.684 L220.349 481.569 Q222.259 480.918 224.168 480.614 Q226.078 480.267 227.988 480.267 Q238.838 480.267 245.175 486.213 Q251.512 492.16 251.512 502.316 Q251.512 512.776 245.002 518.592 Q238.491 524.364 226.642 524.364 Q222.562 524.364 218.309 523.67 Q214.099 522.975 209.585 521.586 L209.585 512.776 Q213.491 514.902 217.658 515.944 Q221.825 516.986 226.469 516.986 Q233.977 516.986 238.361 513.036 Q242.745 509.087 242.745 502.316 Q242.745 495.545 238.361 491.595 Q233.977 487.646 226.469 487.646 Q222.953 487.646 219.437 488.427 Q215.965 489.208 212.319 490.857 L212.319 458.306 Z" fill="#000000" fill-rule="evenodd" fill-opacity="1" /><path clip-path="url(#clip160)" d="M127.077 241.78 L141.4 241.78 L141.4 192.344 L125.818 195.469 L125.818 187.483 L141.313 184.358 L150.08 184.358 L150.08 241.78 L164.403 241.78 L164.403 249.158 L127.077 249.158 L127.077 241.78 Z" fill="#000000" fill-rule="evenodd" fill-opacity="1" /><path clip-path="url(#clip160)" d="M182.111 238.134 L191.269 238.134 L191.269 249.158 L182.111 249.158 L182.111 238.134 Z" fill="#000000" fill-rule="evenodd" fill-opacity="1" /><path clip-path="url(#clip160)" d="M229.116 190.131 Q222.345 190.131 218.917 196.815 Q215.531 203.455 215.531 216.823 Q215.531 230.148 218.917 236.832 Q222.345 243.472 229.116 243.472 Q235.93 243.472 239.316 236.832 Q242.745 230.148 242.745 216.823 Q242.745 203.455 239.316 196.815 Q235.93 190.131 229.116 190.131 M229.116 183.186 Q240.01 183.186 245.739 191.823 Q251.512 200.417 251.512 216.823 Q251.512 233.186 245.739 241.823 Q240.01 250.417 229.116 250.417 Q218.222 250.417 212.45 241.823 Q206.72 233.186 206.72 216.823 Q206.72 200.417 212.45 191.823 Q218.222 183.186 229.116 183.186 Z" fill="#000000" fill-rule="evenodd" fill-opacity="1" /><path clip-path="url(#clip160)" d="M881.178 109.342 L881.178 54.4117 L896.085 54.4117 L896.085 108.775 Q896.085 121.657 901.108 128.138 Q906.131 134.539 916.178 134.539 Q928.249 134.539 935.217 126.842 Q942.266 119.145 942.266 105.858 L942.266 54.4117 L957.173 54.4117 L957.173 145.152 L942.266 145.152 L942.266 131.217 Q936.837 139.481 929.627 143.532 Q922.497 147.502 913.018 147.502 Q897.382 147.502 889.28 137.779 Q881.178 128.057 881.178 109.342 M918.689 52.2243 L918.689 52.2243 Z" fill="#000000" fill-rule="evenodd" fill-opacity="1" /><path clip-path="url(#clip160)" d="M1023.69 19.2499 Q1012.83 37.8841 1007.57 56.1131 Q1002.3 74.3422 1002.3 93.0574 Q1002.3 111.773 1007.57 130.164 Q1012.91 148.474 1023.69 167.027 L1010.73 167.027 Q998.573 147.988 992.497 129.597 Q986.501 111.205 986.501 93.0574 Q986.501 74.9903 992.497 56.6803 Q998.492 38.3702 1010.73 19.2499 L1023.69 19.2499 Z" fill="#000000" fill-rule="evenodd" fill-opacity="1" /><path clip-path="url(#clip160)" d="M1128.04 54.4117 L1095.23 98.5666 L1129.74 145.152 L1112.16 145.152 L1085.75 109.504 L1059.34 145.152 L1041.76 145.152 L1077 97.6754 L1044.75 54.4117 L1062.33 54.4117 L1086.4 86.738 L1110.46 54.4117 L1128.04 54.4117 Z" fill="#000000" fill-rule="evenodd" fill-opacity="1" /><path clip-path="url(#clip160)" d="M1154.61 124.573 L1171.71 124.573 L1171.71 138.509 L1158.42 164.434 L1147.97 164.434 L1154.61 138.509 L1154.61 124.573 Z" fill="#000000" fill-rule="evenodd" fill-opacity="1" /><path clip-path="url(#clip160)" d="M1271.04 28.648 L1271.04 54.4117 L1301.74 54.4117 L1301.74 65.9973 L1271.04 65.9973 L1271.04 115.256 Q1271.04 126.356 1274.03 129.516 Q1277.11 132.675 1286.43 132.675 L1301.74 132.675 L1301.74 145.152 L1286.43 145.152 Q1269.17 145.152 1262.61 138.752 Q1256.05 132.27 1256.05 115.256 L1256.05 65.9973 L1245.11 65.9973 L1245.11 54.4117 L1256.05 54.4117 L1256.05 28.648 L1271.04 28.648 Z" fill="#000000" fill-rule="evenodd" fill-opacity="1" /><path clip-path="url(#clip160)" d="M1323.29 69.8052 L1427.16 69.8052 L1427.16 83.4162 L1323.29 83.4162 L1323.29 69.8052 M1323.29 102.861 L1427.16 102.861 L1427.16 116.634 L1323.29 116.634 L1323.29 102.861 Z" fill="#000000" fill-rule="evenodd" fill-opacity="1" /><path clip-path="url(#clip160)" d="M1476.58 131.379 L1533.7 131.379 L1533.7 145.152 L1456.89 145.152 L1456.89 131.379 Q1466.21 121.738 1482.25 105.534 Q1498.37 89.2495 1502.51 84.5505 Q1510.36 75.7195 1513.44 69.6431 Q1516.6 63.4858 1516.6 57.5715 Q1516.6 47.9303 1509.8 41.8539 Q1503.07 35.7776 1492.22 35.7776 Q1484.52 35.7776 1475.93 38.4512 Q1467.42 41.1248 1457.7 46.553 L1457.7 30.0253 Q1467.59 26.0554 1476.17 24.03 Q1484.76 22.0045 1491.89 22.0045 Q1510.69 22.0045 1521.87 31.4026 Q1533.05 40.8007 1533.05 56.5182 Q1533.05 63.9719 1530.21 70.6964 Q1527.46 77.3399 1520.09 86.4139 Q1518.06 88.7634 1507.2 100.025 Q1496.35 111.205 1476.58 131.379 Z" fill="#000000" fill-rule="evenodd" fill-opacity="1" /><path clip-path="url(#clip160)" d="M1568.05 124.573 L1585.14 124.573 L1585.14 145.152 L1568.05 145.152 L1568.05 124.573 Z" fill="#000000" fill-rule="evenodd" fill-opacity="1" /><path clip-path="url(#clip160)" d="M1655.79 34.9674 Q1643.15 34.9674 1636.75 47.4442 Q1630.43 59.84 1630.43 84.7935 Q1630.43 109.666 1636.75 122.143 Q1643.15 134.539 1655.79 134.539 Q1668.51 134.539 1674.83 122.143 Q1681.23 109.666 1681.23 84.7935 Q1681.23 59.84 1674.83 47.4442 Q1668.51 34.9674 1655.79 34.9674 M1655.79 22.0045 Q1676.13 22.0045 1686.82 38.1271 Q1697.6 54.1687 1697.6 84.7935 Q1697.6 115.337 1686.82 131.46 Q1676.13 147.502 1655.79 147.502 Q1635.46 147.502 1624.68 131.46 Q1613.99 115.337 1613.99 84.7935 Q1613.99 54.1687 1624.68 38.1271 Q1635.46 22.0045 1655.79 22.0045 Z" fill="#000000" fill-rule="evenodd" fill-opacity="1" /><path clip-path="url(#clip160)" d="M1721.9 19.2499 L1734.87 19.2499 Q1747.02 38.3702 1753.01 56.6803 Q1759.09 74.9903 1759.09 93.0574 Q1759.09 111.205 1753.01 129.597 Q1747.02 147.988 1734.87 167.027 L1721.9 167.027 Q1732.68 148.474 1737.94 130.164 Q1743.29 111.773 1743.29 93.0574 Q1743.29 74.3422 1737.94 56.1131 Q1732.68 37.8841 1721.9 19.2499 Z" fill="#000000" fill-rule="evenodd" fill-opacity="1" /><circle clip-path="url(#clip162)" cx="345.962" cy="1213.19" r="14" fill="#009af9" fill-rule="evenodd" fill-opacity="1" stroke="#000000" stroke-opacity="1" stroke-width="3.2"/>
<circle clip-path="url(#clip162)" cx="406.848" cy="1204.57" r="14" fill="#009af9" fill-rule="evenodd" fill-opacity="1" stroke="#000000" stroke-opacity="1" stroke-width="3.2"/>
<circle clip-path="url(#clip162)" cx="467.734" cy="1179.04" r="14" fill="#009af9" fill-rule="evenodd" fill-opacity="1" stroke="#000000" stroke-opacity="1" stroke-width="3.2"/>
<circle clip-path="url(#clip162)" cx="528.619" cy="1137.6" r="14" fill="#009af9" fill-rule="evenodd" fill-opacity="1" stroke="#000000" stroke-opacity="1" stroke-width="3.2"/>
<circle clip-path="url(#clip162)" cx="589.505" cy="1081.81" r="14" fill="#009af9" fill-rule="evenodd" fill-opacity="1" stroke="#000000" stroke-opacity="1" stroke-width="3.2"/>
<circle clip-path="url(#clip162)" cx="650.391" cy="1013.84" r="14" fill="#009af9" fill-rule="evenodd" fill-opacity="1" stroke="#000000" stroke-opacity="1" stroke-width="3.2"/>
<circle clip-path="url(#clip162)" cx="711.277" cy="936.299" r="14" fill="#009af9" fill-rule="evenodd" fill-opacity="1" stroke="#000000" stroke-opacity="1" stroke-width="3.2"/>
<circle clip-path="url(#clip162)" cx="772.162" cy="852.158" r="14" fill="#009af9" fill-rule="evenodd" fill-opacity="1" stroke="#000000" stroke-opacity="1" stroke-width="3.2"/>
<circle clip-path="url(#clip162)" cx="833.048" cy="764.653" r="14" fill="#009af9" fill-rule="evenodd" fill-opacity="1" stroke="#000000" stroke-opacity="1" stroke-width="3.2"/>
<circle clip-path="url(#clip162)" cx="893.934" cy="677.148" r="14" fill="#009af9" fill-rule="evenodd" fill-opacity="1" stroke="#000000" stroke-opacity="1" stroke-width="3.2"/>
<circle clip-path="url(#clip162)" cx="954.82" cy="593.007" r="14" fill="#009af9" fill-rule="evenodd" fill-opacity="1" stroke="#000000" stroke-opacity="1" stroke-width="3.2"/>
<circle clip-path="url(#clip162)" cx="1015.71" cy="515.461" r="14" fill="#009af9" fill-rule="evenodd" fill-opacity="1" stroke="#000000" stroke-opacity="1" stroke-width="3.2"/>
<circle clip-path="url(#clip162)" cx="1076.59" cy="447.492" r="14" fill="#009af9" fill-rule="evenodd" fill-opacity="1" stroke="#000000" stroke-opacity="1" stroke-width="3.2"/>
<circle clip-path="url(#clip162)" cx="1137.48" cy="391.711" r="14" fill="#009af9" fill-rule="evenodd" fill-opacity="1" stroke="#000000" stroke-opacity="1" stroke-width="3.2"/>
<circle clip-path="url(#clip162)" cx="1198.36" cy="350.262" r="14" fill="#009af9" fill-rule="evenodd" fill-opacity="1" stroke="#000000" stroke-opacity="1" stroke-width="3.2"/>
<circle clip-path="url(#clip162)" cx="1259.25" cy="324.738" r="14" fill="#009af9" fill-rule="evenodd" fill-opacity="1" stroke="#000000" stroke-opacity="1" stroke-width="3.2"/>
<circle clip-path="url(#clip162)" cx="1320.13" cy="316.119" r="14" fill="#009af9" fill-rule="evenodd" fill-opacity="1" stroke="#000000" stroke-opacity="1" stroke-width="3.2"/>
<circle clip-path="url(#clip162)" cx="1381.02" cy="324.738" r="14" fill="#009af9" fill-rule="evenodd" fill-opacity="1" stroke="#000000" stroke-opacity="1" stroke-width="3.2"/>
<circle clip-path="url(#clip162)" cx="1441.91" cy="350.262" r="14" fill="#009af9" fill-rule="evenodd" fill-opacity="1" stroke="#000000" stroke-opacity="1" stroke-width="3.2"/>
<circle clip-path="url(#clip162)" cx="1502.79" cy="391.711" r="14" fill="#009af9" fill-rule="evenodd" fill-opacity="1" stroke="#000000" stroke-opacity="1" stroke-width="3.2"/>
<circle clip-path="url(#clip162)" cx="1563.68" cy="447.492" r="14" fill="#009af9" fill-rule="evenodd" fill-opacity="1" stroke="#000000" stroke-opacity="1" stroke-width="3.2"/>
<circle clip-path="url(#clip162)" cx="1624.56" cy="515.461" r="14" fill="#009af9" fill-rule="evenodd" fill-opacity="1" stroke="#000000" stroke-opacity="1" stroke-width="3.2"/>
<circle clip-path="url(#clip162)" cx="1685.45" cy="593.007" r="14" fill="#009af9" fill-rule="evenodd" fill-opacity="1" stroke="#000000" stroke-opacity="1" stroke-width="3.2"/>
<circle clip-path="url(#clip162)" cx="1746.33" cy="677.148" r="14" fill="#009af9" fill-rule="evenodd" fill-opacity="1" stroke="#000000" stroke-opacity="1" stroke-width="3.2"/>
<circle clip-path="url(#clip162)" cx="1807.22" cy="764.653" r="14" fill="#009af9" fill-rule="evenodd" fill-opacity="1" stroke="#000000" stroke-opacity="1" stroke-width="3.2"/>
<circle clip-path="url(#clip162)" cx="1868.11" cy="852.158" r="14" fill="#009af9" fill-rule="evenodd" fill-opacity="1" stroke="#000000" stroke-opacity="1" stroke-width="3.2"/>
<circle clip-path="url(#clip162)" cx="1928.99" cy="936.299" r="14" fill="#009af9" fill-rule="evenodd" fill-opacity="1" stroke="#000000" stroke-opacity="1" stroke-width="3.2"/>
<circle clip-path="url(#clip162)" cx="1989.88" cy="1013.84" r="14" fill="#009af9" fill-rule="evenodd" fill-opacity="1" stroke="#000000" stroke-opacity="1" stroke-width="3.2"/>
<circle clip-path="url(#clip162)" cx="2050.76" cy="1081.81" r="14" fill="#009af9" fill-rule="evenodd" fill-opacity="1" stroke="#000000" stroke-opacity="1" stroke-width="3.2"/>
<circle clip-path="url(#clip162)" cx="2111.65" cy="1137.6" r="14" fill="#009af9" fill-rule="evenodd" fill-opacity="1" stroke="#000000" stroke-opacity="1" stroke-width="3.2"/>
<circle clip-path="url(#clip162)" cx="2172.53" cy="1179.04" r="14" fill="#009af9" fill-rule="evenodd" fill-opacity="1" stroke="#000000" stroke-opacity="1" stroke-width="3.2"/>
<circle clip-path="url(#clip162)" cx="2233.42" cy="1204.57" r="14" fill="#009af9" fill-rule="evenodd" fill-opacity="1" stroke="#000000" stroke-opacity="1" stroke-width="3.2"/>
<polyline clip-path="url(#clip162)" style="stroke:#e26f46; stroke-linecap:butt; stroke-linejoin:round; stroke-width:8; stroke-opacity:1; fill:none" points="
  345.962,1213.23 350.719,1213.18 355.476,1213.02 360.233,1212.76 364.989,1212.39 408.973,1204 452.956,1186.79 496.94,1161.1 540.923,1127.45 567.355,1103.68 
  593.787,1077.44 620.22,1048.92 646.652,1018.35 691.348,962.578 736.044,902.703 833.149,764.507 922.672,636.8 970.66,572.051 1018.65,511.907 1074.25,449.865 
  1129.85,397.917 1154.55,378.521 1179.26,361.576 1203.96,347.187 1228.67,335.447 1272,321.469 1315.33,316.128 1362.57,320.268 1409.81,334.7 1457.33,359.266 
  1504.85,393.333 1557.39,441.091 1609.93,498.115 1659.92,559.486 1709.91,626.178 1813.86,774.263 1901.37,898.773 1954.79,970.166 2008.21,1035.48 2058.43,1089.59 
  2108.64,1135.2 2148.87,1164.79 2189.09,1187.66 2229.32,1203.42 2269.54,1211.8 2275.73,1212.43 2281.92,1212.87 2288.12,1213.14 2294.31,1213.23 
  "/>
<polyline clip-path="url(#clip162)" style="stroke:#808080; stroke-linecap:butt; stroke-linejoin:round; stroke-width:8; stroke-opacity:1; fill:none" stroke-dasharray="32, 20" points="
  345.962,1312.55 350.719,1312.48 355.476,1312.29 360.233,1311.97 364.989,1311.52 408.973,1301.28 452.956,1280.26 496.94,1248.88 540.923,1207.78 567.355,1178.74 
  593.787,1146.69 620.22,1111.86 646.652,1074.52 691.348,1006.4 736.044,933.267 833.149,764.474 922.672,608.493 970.66,529.409 1018.65,455.948 1074.25,380.17 
  1129.85,316.72 1154.55,293.031 1179.26,272.333 1203.96,254.759 1228.67,240.42 1272,223.346 1315.33,216.824 1362.57,221.88 1409.81,239.508 1457.33,269.512 
  1504.85,311.122 1557.39,369.453 1609.93,439.103 1659.92,514.062 1709.91,595.519 1813.86,776.391 1901.37,928.468 1954.79,1015.67 2008.21,1095.44 2058.43,1161.53 
  2108.64,1217.24 2148.87,1253.38 2189.09,1281.31 2229.32,1300.56 2269.54,1310.8 2275.73,1311.57 2281.92,1312.11 2288.12,1312.44 2294.31,1312.55 
  "/>
<path clip-path="url(#clip160)" d="
M1386.69 676.268 L2283.91 676.268 L2283.91 222.668 L1386.69 222.668  Z
  " fill="#ffffff" fill-rule="evenodd" fill-opacity="1"/>
<polyline clip-path="url(#clip160)" style="stroke:#000000; stroke-linecap:butt; stroke-linejoin:round; stroke-width:4; stroke-opacity:1; fill:none" points="
  1386.69,676.268 2283.91,676.268 2283.91,222.668 1386.69,222.668 1386.69,676.268 
  "/>
<circle clip-path="url(#clip160)" cx="1478.48" cy="336.068" r="43" fill="#009af9" fill-rule="evenodd" fill-opacity="1" stroke="#000000" stroke-opacity="1" stroke-width="9.6"/>
<path clip-path="url(#clip160)" d="M1610.98 339.128 L1610.98 368.468 L1603 368.468 L1603 339.388 Q1603 332.487 1600.31 329.058 Q1597.62 325.629 1592.23 325.629 Q1585.77 325.629 1582.03 329.753 Q1578.3 333.876 1578.3 340.994 L1578.3 368.468 L1570.27 368.468 L1570.27 319.857 L1578.3 319.857 L1578.3 327.409 Q1581.17 323.025 1585.03 320.855 Q1588.94 318.685 1594.01 318.685 Q1602.39 318.685 1606.69 323.893 Q1610.98 329.058 1610.98 339.128 Z" fill="#000000" fill-rule="evenodd" fill-opacity="1" /><path clip-path="url(#clip160)" d="M1626.09 349.284 L1626.09 319.857 L1634.07 319.857 L1634.07 348.98 Q1634.07 355.881 1636.76 359.353 Q1639.46 362.782 1644.84 362.782 Q1651.3 362.782 1655.04 358.659 Q1658.81 354.535 1658.81 347.417 L1658.81 319.857 L1666.8 319.857 L1666.8 368.468 L1658.81 368.468 L1658.81 361.002 Q1655.91 365.43 1652.04 367.6 Q1648.22 369.726 1643.14 369.726 Q1634.77 369.726 1630.43 364.518 Q1626.09 359.31 1626.09 349.284 M1646.18 318.685 L1646.18 318.685 Z" fill="#000000" fill-rule="evenodd" fill-opacity="1" /><path clip-path="url(#clip160)" d="M1721.1 329.188 Q1724.09 323.806 1728.26 321.246 Q1732.42 318.685 1738.07 318.685 Q1745.66 318.685 1749.78 324.024 Q1753.91 329.319 1753.91 339.128 L1753.91 368.468 L1745.88 368.468 L1745.88 339.388 Q1745.88 332.4 1743.4 329.015 Q1740.93 325.629 1735.85 325.629 Q1729.65 325.629 1726.04 329.753 Q1722.44 333.876 1722.44 340.994 L1722.44 368.468 L1714.41 368.468 L1714.41 339.388 Q1714.41 332.357 1711.94 329.015 Q1709.46 325.629 1704.3 325.629 Q1698.18 325.629 1694.58 329.796 Q1690.97 333.919 1690.97 340.994 L1690.97 368.468 L1682.94 368.468 L1682.94 319.857 L1690.97 319.857 L1690.97 327.409 Q1693.71 322.938 1697.53 320.812 Q1701.35 318.685 1706.6 318.685 Q1711.89 318.685 1715.58 321.376 Q1719.32 324.067 1721.1 329.188 Z" fill="#000000" fill-rule="evenodd" fill-opacity="1" /><path clip-path="url(#clip160)" d="M1811.42 342.166 L1811.42 346.072 L1774.7 346.072 Q1775.22 354.318 1779.65 358.659 Q1784.12 362.956 1792.06 362.956 Q1796.66 362.956 1800.96 361.827 Q1805.3 360.699 1809.55 358.442 L1809.55 365.994 Q1805.25 367.817 1800.74 368.772 Q1796.23 369.726 1791.58 369.726 Q1779.95 369.726 1773.14 362.956 Q1766.36 356.185 1766.36 344.64 Q1766.36 332.704 1772.79 325.716 Q1779.26 318.685 1790.19 318.685 Q1800 318.685 1805.69 325.022 Q1811.42 331.315 1811.42 342.166 M1803.43 339.822 Q1803.34 333.268 1799.74 329.362 Q1796.18 325.456 1790.28 325.456 Q1783.6 325.456 1779.56 329.232 Q1775.57 333.008 1774.96 339.865 L1803.43 339.822 Z" fill="#000000" fill-rule="evenodd" fill-opacity="1" /><path clip-path="url(#clip160)" d="M1852.69 327.322 Q1851.35 326.541 1849.74 326.194 Q1848.18 325.803 1846.27 325.803 Q1839.5 325.803 1835.85 330.23 Q1832.25 334.614 1832.25 342.86 L1832.25 368.468 L1824.22 368.468 L1824.22 319.857 L1832.25 319.857 L1832.25 327.409 Q1834.77 322.982 1838.8 320.855 Q1842.84 318.685 1848.61 318.685 Q1849.44 318.685 1850.44 318.815 Q1851.43 318.902 1852.65 319.119 L1852.69 327.322 Z" fill="#000000" fill-rule="evenodd" fill-opacity="1" /><path clip-path="url(#clip160)" d="M1861.07 319.857 L1869.06 319.857 L1869.06 368.468 L1861.07 368.468 L1861.07 319.857 M1861.07 300.933 L1869.06 300.933 L1869.06 311.046 L1861.07 311.046 L1861.07 300.933 Z" fill="#000000" fill-rule="evenodd" fill-opacity="1" /><path clip-path="url(#clip160)" d="M1920.75 321.723 L1920.75 329.188 Q1917.36 327.322 1913.93 326.411 Q1910.55 325.456 1907.08 325.456 Q1899.31 325.456 1895.01 330.404 Q1890.71 335.308 1890.71 344.206 Q1890.71 353.103 1895.01 358.051 Q1899.31 362.956 1907.08 362.956 Q1910.55 362.956 1913.93 362.044 Q1917.36 361.089 1920.75 359.223 L1920.75 366.601 Q1917.41 368.164 1913.8 368.945 Q1910.24 369.726 1906.21 369.726 Q1895.23 369.726 1888.76 362.825 Q1882.29 355.924 1882.29 344.206 Q1882.29 332.313 1888.8 325.499 Q1895.36 318.685 1906.73 318.685 Q1910.42 318.685 1913.93 319.466 Q1917.45 320.204 1920.75 321.723 Z" fill="#000000" fill-rule="evenodd" fill-opacity="1" /><path clip-path="url(#clip160)" d="M1956.73 344.032 Q1947.05 344.032 1943.32 346.246 Q1939.58 348.459 1939.58 353.798 Q1939.58 358.051 1942.36 360.568 Q1945.18 363.042 1950 363.042 Q1956.64 363.042 1960.63 358.355 Q1964.67 353.624 1964.67 345.812 L1964.67 344.032 L1956.73 344.032 M1972.66 340.733 L1972.66 368.468 L1964.67 368.468 L1964.67 361.089 Q1961.94 365.516 1957.86 367.643 Q1953.78 369.726 1947.87 369.726 Q1940.41 369.726 1935.98 365.56 Q1931.6 361.35 1931.6 354.318 Q1931.6 346.115 1937.07 341.949 Q1942.58 337.782 1953.47 337.782 L1964.67 337.782 L1964.67 337.001 Q1964.67 331.489 1961.03 328.494 Q1957.42 325.456 1950.87 325.456 Q1946.7 325.456 1942.75 326.454 Q1938.8 327.452 1935.16 329.449 L1935.16 322.07 Q1939.54 320.378 1943.66 319.553 Q1947.79 318.685 1951.69 318.685 Q1962.24 318.685 1967.45 324.154 Q1972.66 329.622 1972.66 340.733 Z" fill="#000000" fill-rule="evenodd" fill-opacity="1" /><path clip-path="url(#clip160)" d="M1989.11 300.933 L1997.09 300.933 L1997.09 368.468 L1989.11 368.468 L1989.11 300.933 Z" fill="#000000" fill-rule="evenodd" fill-opacity="1" /><polyline clip-path="url(#clip160)" style="stroke:#e26f46; stroke-linecap:butt; stroke-linejoin:round; stroke-width:7.5; stroke-opacity:1; fill:none" points="
  1409.64,449.468 1547.32,449.468 
  "/>
<path clip-path="url(#clip160)" d="M1595.4 457.432 Q1585.72 457.432 1581.99 459.646 Q1578.26 461.859 1578.26 467.198 Q1578.26 471.451 1581.04 473.968 Q1583.86 476.442 1588.67 476.442 Q1595.32 476.442 1599.31 471.755 Q1603.34 467.024 1603.34 459.212 L1603.34 457.432 L1595.4 457.432 M1611.33 454.133 L1611.33 481.868 L1603.34 481.868 L1603.34 474.489 Q1600.61 478.916 1596.53 481.043 Q1592.45 483.126 1586.55 483.126 Q1579.08 483.126 1574.66 478.96 Q1570.27 474.75 1570.27 467.718 Q1570.27 459.515 1575.74 455.349 Q1581.25 451.182 1592.15 451.182 L1603.34 451.182 L1603.34 450.401 Q1603.34 444.889 1599.7 441.894 Q1596.1 438.856 1589.54 438.856 Q1585.38 438.856 1581.43 439.854 Q1577.48 440.852 1573.83 442.849 L1573.83 435.47 Q1578.21 433.778 1582.34 432.953 Q1586.46 432.085 1590.37 432.085 Q1600.91 432.085 1606.12 437.554 Q1611.33 443.022 1611.33 454.133 Z" fill="#000000" fill-rule="evenodd" fill-opacity="1" /><path clip-path="url(#clip160)" d="M1668.19 452.528 L1668.19 481.868 L1660.2 481.868 L1660.2 452.788 Q1660.2 445.887 1657.51 442.458 Q1654.82 439.029 1649.44 439.029 Q1642.97 439.029 1639.24 443.153 Q1635.51 447.276 1635.51 454.394 L1635.51 481.868 L1627.48 481.868 L1627.48 433.257 L1635.51 433.257 L1635.51 440.809 Q1638.37 436.425 1642.23 434.255 Q1646.14 432.085 1651.22 432.085 Q1659.59 432.085 1663.89 437.293 Q1668.19 442.458 1668.19 452.528 Z" fill="#000000" fill-rule="evenodd" fill-opacity="1" /><path clip-path="url(#clip160)" d="M1706.21 457.432 Q1696.53 457.432 1692.8 459.646 Q1689.06 461.859 1689.06 467.198 Q1689.06 471.451 1691.84 473.968 Q1694.66 476.442 1699.48 476.442 Q1706.12 476.442 1710.11 471.755 Q1714.15 467.024 1714.15 459.212 L1714.15 457.432 L1706.21 457.432 M1722.14 454.133 L1722.14 481.868 L1714.15 481.868 L1714.15 474.489 Q1711.42 478.916 1707.34 481.043 Q1703.26 483.126 1697.35 483.126 Q1689.89 483.126 1685.46 478.96 Q1681.08 474.75 1681.08 467.718 Q1681.08 459.515 1686.55 455.349 Q1692.06 451.182 1702.95 451.182 L1714.15 451.182 L1714.15 450.401 Q1714.15 444.889 1710.51 441.894 Q1706.9 438.856 1700.35 438.856 Q1696.18 438.856 1692.23 439.854 Q1688.28 440.852 1684.64 442.849 L1684.64 435.47 Q1689.02 433.778 1693.14 432.953 Q1697.27 432.085 1701.17 432.085 Q1711.72 432.085 1716.93 437.554 Q1722.14 443.022 1722.14 454.133 Z" fill="#000000" fill-rule="evenodd" fill-opacity="1" /><path clip-path="url(#clip160)" d="M1738.59 414.333 L1746.57 414.333 L1746.57 481.868 L1738.59 481.868 L1738.59 414.333 Z" fill="#000000" fill-rule="evenodd" fill-opacity="1" /><path clip-path="url(#clip160)" d="M1783.51 486.382 Q1780.12 495.062 1776.91 497.71 Q1773.7 500.357 1768.32 500.357 L1761.94 500.357 L1761.94 493.673 L1766.63 493.673 Q1769.92 493.673 1771.75 492.111 Q1773.57 490.548 1775.78 484.732 L1777.22 481.086 L1757.55 433.257 L1766.02 433.257 L1781.21 471.277 L1796.4 433.257 L1804.86 433.257 L1783.51 486.382 Z" fill="#000000" fill-rule="evenodd" fill-opacity="1" /><path clip-path="url(#clip160)" d="M1823.79 419.455 L1823.79 433.257 L1840.24 433.257 L1840.24 439.463 L1823.79 439.463 L1823.79 465.852 Q1823.79 471.798 1825.39 473.491 Q1827.04 475.184 1832.03 475.184 L1840.24 475.184 L1840.24 481.868 L1832.03 481.868 Q1822.79 481.868 1819.27 478.439 Q1815.76 474.967 1815.76 465.852 L1815.76 439.463 L1809.9 439.463 L1809.9 433.257 L1815.76 433.257 L1815.76 419.455 L1823.79 419.455 Z" fill="#000000" fill-rule="evenodd" fill-opacity="1" /><path clip-path="url(#clip160)" d="M1850.74 433.257 L1858.73 433.257 L1858.73 481.868 L1850.74 481.868 L1850.74 433.257 M1850.74 414.333 L1858.73 414.333 L1858.73 424.446 L1850.74 424.446 L1850.74 414.333 Z" fill="#000000" fill-rule="evenodd" fill-opacity="1" /><path clip-path="url(#clip160)" d="M1910.42 435.123 L1910.42 442.588 Q1907.03 440.722 1903.6 439.811 Q1900.22 438.856 1896.75 438.856 Q1888.98 438.856 1884.68 443.804 Q1880.38 448.708 1880.38 457.606 Q1880.38 466.503 1884.68 471.451 Q1888.98 476.356 1896.75 476.356 Q1900.22 476.356 1903.6 475.444 Q1907.03 474.489 1910.42 472.623 L1910.42 480.001 Q1907.08 481.564 1903.47 482.345 Q1899.91 483.126 1895.88 483.126 Q1884.9 483.126 1878.43 476.225 Q1871.96 469.324 1871.96 457.606 Q1871.96 445.713 1878.47 438.899 Q1885.03 432.085 1896.4 432.085 Q1900.09 432.085 1903.6 432.866 Q1907.12 433.604 1910.42 435.123 Z" fill="#000000" fill-rule="evenodd" fill-opacity="1" /><path clip-path="url(#clip160)" d="M1946.4 457.432 Q1936.72 457.432 1932.99 459.646 Q1929.25 461.859 1929.25 467.198 Q1929.25 471.451 1932.03 473.968 Q1934.85 476.442 1939.67 476.442 Q1946.31 476.442 1950.3 471.755 Q1954.34 467.024 1954.34 459.212 L1954.34 457.432 L1946.4 457.432 M1962.33 454.133 L1962.33 481.868 L1954.34 481.868 L1954.34 474.489 Q1951.61 478.916 1947.53 481.043 Q1943.45 483.126 1937.54 483.126 Q1930.08 483.126 1925.65 478.96 Q1921.27 474.75 1921.27 467.718 Q1921.27 459.515 1926.74 455.349 Q1932.25 451.182 1943.14 451.182 L1954.34 451.182 L1954.34 450.401 Q1954.34 444.889 1950.7 441.894 Q1947.09 438.856 1940.54 438.856 Q1936.37 438.856 1932.42 439.854 Q1928.47 440.852 1924.83 442.849 L1924.83 435.47 Q1929.21 433.778 1933.33 432.953 Q1937.46 432.085 1941.36 432.085 Q1951.91 432.085 1957.12 437.554 Q1962.33 443.022 1962.33 454.133 Z" fill="#000000" fill-rule="evenodd" fill-opacity="1" /><path clip-path="url(#clip160)" d="M1978.78 414.333 L1986.76 414.333 L1986.76 481.868 L1978.78 481.868 L1978.78 414.333 Z" fill="#000000" fill-rule="evenodd" fill-opacity="1" /><polyline clip-path="url(#clip160)" style="stroke:#808080; stroke-linecap:butt; stroke-linejoin:round; stroke-width:7.5; stroke-opacity:1; fill:none" stroke-dasharray="30, 19" points="
  1409.64,562.868 1547.32,562.868 
  "/>
<path clip-path="url(#clip160)" d="M1570.27 546.657 L1578.26 546.657 L1578.26 595.268 L1570.27 595.268 L1570.27 546.657 M1570.27 527.733 L1578.26 527.733 L1578.26 537.846 L1570.27 537.846 L1570.27 527.733 Z" fill="#000000" fill-rule="evenodd" fill-opacity="1" /><path clip-path="url(#clip160)" d="M1635.38 565.928 L1635.38 595.268 L1627.39 595.268 L1627.39 566.188 Q1627.39 559.287 1624.7 555.858 Q1622.01 552.429 1616.63 552.429 Q1610.16 552.429 1606.43 556.553 Q1602.69 560.676 1602.69 567.794 L1602.69 595.268 L1594.66 595.268 L1594.66 546.657 L1602.69 546.657 L1602.69 554.209 Q1605.56 549.825 1609.42 547.655 Q1613.33 545.485 1618.41 545.485 Q1626.78 545.485 1631.08 550.693 Q1635.38 555.858 1635.38 565.928 Z" fill="#000000" fill-rule="evenodd" fill-opacity="1" /><path clip-path="url(#clip160)" d="M1651.3 546.657 L1659.29 546.657 L1659.29 595.268 L1651.3 595.268 L1651.3 546.657 M1651.3 527.733 L1659.29 527.733 L1659.29 537.846 L1651.3 537.846 L1651.3 527.733 Z" fill="#000000" fill-rule="evenodd" fill-opacity="1" /><path clip-path="url(#clip160)" d="M1683.9 532.855 L1683.9 546.657 L1700.35 546.657 L1700.35 552.863 L1683.9 552.863 L1683.9 579.252 Q1683.9 585.198 1685.51 586.891 Q1687.16 588.584 1692.15 588.584 L1700.35 588.584 L1700.35 595.268 L1692.15 595.268 Q1682.9 595.268 1679.39 591.839 Q1675.87 588.367 1675.87 579.252 L1675.87 552.863 L1670.01 552.863 L1670.01 546.657 L1675.87 546.657 L1675.87 532.855 L1683.9 532.855 Z" fill="#000000" fill-rule="evenodd" fill-opacity="1" /><path clip-path="url(#clip160)" d="M1710.85 546.657 L1718.84 546.657 L1718.84 595.268 L1710.85 595.268 L1710.85 546.657 M1710.85 527.733 L1718.84 527.733 L1718.84 537.846 L1710.85 537.846 L1710.85 527.733 Z" fill="#000000" fill-rule="evenodd" fill-opacity="1" /><path clip-path="url(#clip160)" d="M1757.64 570.832 Q1747.96 570.832 1744.23 573.046 Q1740.5 575.259 1740.5 580.598 Q1740.5 584.851 1743.27 587.368 Q1746.1 589.842 1750.91 589.842 Q1757.55 589.842 1761.55 585.155 Q1765.58 580.424 1765.58 572.612 L1765.58 570.832 L1757.64 570.832 M1773.57 567.533 L1773.57 595.268 L1765.58 595.268 L1765.58 587.889 Q1762.85 592.316 1758.77 594.443 Q1754.69 596.526 1748.79 596.526 Q1741.32 596.526 1736.89 592.36 Q1732.51 588.15 1732.51 581.118 Q1732.51 572.915 1737.98 568.749 Q1743.49 564.582 1754.39 564.582 L1765.58 564.582 L1765.58 563.801 Q1765.58 558.289 1761.94 555.294 Q1758.34 552.256 1751.78 552.256 Q1747.61 552.256 1743.67 553.254 Q1739.72 554.252 1736.07 556.249 L1736.07 548.87 Q1740.45 547.178 1744.58 546.353 Q1748.7 545.485 1752.61 545.485 Q1763.15 545.485 1768.36 550.954 Q1773.57 556.422 1773.57 567.533 Z" fill="#000000" fill-rule="evenodd" fill-opacity="1" /><path clip-path="url(#clip160)" d="M1790.02 527.733 L1798.01 527.733 L1798.01 595.268 L1790.02 595.268 L1790.02 527.733 Z" fill="#000000" fill-rule="evenodd" fill-opacity="1" /><path clip-path="url(#clip160)" d="M1877.95 548.523 L1877.95 555.988 Q1874.57 554.122 1871.14 553.211 Q1867.75 552.256 1864.28 552.256 Q1856.51 552.256 1852.21 557.204 Q1847.92 562.108 1847.92 571.006 Q1847.92 579.903 1852.21 584.851 Q1856.51 589.756 1864.28 589.756 Q1867.75 589.756 1871.14 588.844 Q1874.57 587.889 1877.95 586.023 L1877.95 593.401 Q1874.61 594.964 1871.01 595.745 Q1867.45 596.526 1863.41 596.526 Q1852.43 596.526 1845.96 589.625 Q1839.5 582.724 1839.5 571.006 Q1839.5 559.113 1846.01 552.299 Q1852.56 545.485 1863.93 545.485 Q1867.62 545.485 1871.14 546.266 Q1874.65 547.004 1877.95 548.523 Z" fill="#000000" fill-rule="evenodd" fill-opacity="1" /><path clip-path="url(#clip160)" d="M1910.68 552.256 Q1904.25 552.256 1900.52 557.29 Q1896.79 562.282 1896.79 571.006 Q1896.79 579.73 1900.48 584.764 Q1904.21 589.756 1910.68 589.756 Q1917.06 589.756 1920.79 584.721 Q1924.52 579.686 1924.52 571.006 Q1924.52 562.369 1920.79 557.334 Q1917.06 552.256 1910.68 552.256 M1910.68 545.485 Q1921.09 545.485 1927.04 552.256 Q1932.99 559.027 1932.99 571.006 Q1932.99 582.941 1927.04 589.756 Q1921.09 596.526 1910.68 596.526 Q1900.22 596.526 1894.27 589.756 Q1888.37 582.941 1888.37 571.006 Q1888.37 559.027 1894.27 552.256 Q1900.22 545.485 1910.68 545.485 Z" fill="#000000" fill-rule="evenodd" fill-opacity="1" /><path clip-path="url(#clip160)" d="M1986.63 565.928 L1986.63 595.268 L1978.65 595.268 L1978.65 566.188 Q1978.65 559.287 1975.96 555.858 Q1973.26 552.429 1967.88 552.429 Q1961.42 552.429 1957.68 556.553 Q1953.95 560.676 1953.95 567.794 L1953.95 595.268 L1945.92 595.268 L1945.92 546.657 L1953.95 546.657 L1953.95 554.209 Q1956.82 549.825 1960.68 547.655 Q1964.58 545.485 1969.66 545.485 Q1978.04 545.485 1982.34 550.693 Q1986.63 555.858 1986.63 565.928 Z" fill="#000000" fill-rule="evenodd" fill-opacity="1" /><path clip-path="url(#clip160)" d="M2034.55 554.035 L2034.55 527.733 L2042.54 527.733 L2042.54 595.268 L2034.55 595.268 L2034.55 587.976 Q2032.03 592.316 2028.17 594.443 Q2024.35 596.526 2018.97 596.526 Q2010.16 596.526 2004.6 589.495 Q1999.09 582.464 1999.09 571.006 Q1999.09 559.547 2004.6 552.516 Q2010.16 545.485 2018.97 545.485 Q2024.35 545.485 2028.17 547.612 Q2032.03 549.695 2034.55 554.035 M2007.34 571.006 Q2007.34 579.816 2010.94 584.851 Q2014.58 589.842 2020.92 589.842 Q2027.26 589.842 2030.9 584.851 Q2034.55 579.816 2034.55 571.006 Q2034.55 562.195 2030.9 557.204 Q2027.26 552.169 2020.92 552.169 Q2014.58 552.169 2010.94 557.204 Q2007.34 562.195 2007.34 571.006 Z" fill="#000000" fill-rule="evenodd" fill-opacity="1" /><path clip-path="url(#clip160)" d="M2058.98 546.657 L2066.97 546.657 L2066.97 595.268 L2058.98 595.268 L2058.98 546.657 M2058.98 527.733 L2066.97 527.733 L2066.97 537.846 L2058.98 537.846 L2058.98 527.733 Z" fill="#000000" fill-rule="evenodd" fill-opacity="1" /><path clip-path="url(#clip160)" d="M2091.58 532.855 L2091.58 546.657 L2108.03 546.657 L2108.03 552.863 L2091.58 552.863 L2091.58 579.252 Q2091.58 585.198 2093.19 586.891 Q2094.84 588.584 2099.83 588.584 L2108.03 588.584 L2108.03 595.268 L2099.83 595.268 Q2090.58 595.268 2087.07 591.839 Q2083.55 588.367 2083.55 579.252 L2083.55 552.863 L2077.69 552.863 L2077.69 546.657 L2083.55 546.657 L2083.55 532.855 L2091.58 532.855 Z" fill="#000000" fill-rule="evenodd" fill-opacity="1" /><path clip-path="url(#clip160)" d="M2118.53 546.657 L2126.52 546.657 L2126.52 595.268 L2118.53 595.268 L2118.53 546.657 M2118.53 527.733 L2126.52 527.733 L2126.52 537.846 L2118.53 537.846 L2118.53 527.733 Z" fill="#000000" fill-rule="evenodd" fill-opacity="1" /><path clip-path="url(#clip160)" d="M2162.07 552.256 Q2155.64 552.256 2151.91 557.29 Q2148.18 562.282 2148.18 571.006 Q2148.18 579.73 2151.87 584.764 Q2155.6 589.756 2162.07 589.756 Q2168.45 589.756 2172.18 584.721 Q2175.91 579.686 2175.91 571.006 Q2175.91 562.369 2172.18 557.334 Q2168.45 552.256 2162.07 552.256 M2162.07 545.485 Q2172.48 545.485 2178.43 552.256 Q2184.37 559.027 2184.37 571.006 Q2184.37 582.941 2178.43 589.756 Q2172.48 596.526 2162.07 596.526 Q2151.61 596.526 2145.66 589.756 Q2139.76 582.941 2139.76 571.006 Q2139.76 559.027 2145.66 552.256 Q2151.61 545.485 2162.07 545.485 Z" fill="#000000" fill-rule="evenodd" fill-opacity="1" /><path clip-path="url(#clip160)" d="M2238.02 565.928 L2238.02 595.268 L2230.03 595.268 L2230.03 566.188 Q2230.03 559.287 2227.34 555.858 Q2224.65 552.429 2219.27 552.429 Q2212.8 552.429 2209.07 556.553 Q2205.34 560.676 2205.34 567.794 L2205.34 595.268 L2197.31 595.268 L2197.31 546.657 L2205.34 546.657 L2205.34 554.209 Q2208.2 549.825 2212.07 547.655 Q2215.97 545.485 2221.05 545.485 Q2229.43 545.485 2233.72 550.693 Q2238.02 555.858 2238.02 565.928 Z" fill="#000000" fill-rule="evenodd" fill-opacity="1" /></svg>
