<?xml version="1.0" encoding="utf-8"?>
<svg xmlns="http://www.w3.org/2000/svg" xmlns:xlink="http://www.w3.org/1999/xlink" width="600" height="400" viewBox="0 0 2400 1600">
<defs>
  <clipPath id="clip130">
    <rect x="0" y="0" width="2400" height="1600"/>
  </clipPath>
</defs>
<path clip-path="url(#clip130)" d="
M0 1600 L2400 1600 L2400 0 L0 0  Z
  " fill="#ffffff" fill-rule="evenodd" fill-opacity="1"/>
<defs>
  <clipPath id="clip131">
    <rect x="480" y="0" width="1681" height="1600"/>
  </clipPath>
</defs>
<path clip-path="url(#clip130)" d="
M180.29 1375.66 L2352.76 1375.66 L2352.76 47.2441 L180.29 47.2441  Z
  " fill="#ffffff" fill-rule="evenodd" fill-opacity="1"/>
<defs>
  <clipPath id="clip132">
    <rect x="180" y="47" width="2173" height="1329"/>
  </clipPath>
</defs>
<polyline clip-path="url(#clip132)" style="stroke:#000000; stroke-linecap:butt; stroke-linejoin:round; stroke-width:2; stroke-opacity:0.1; fill:none" points="
  288.694,1375.66 288.694,47.2441 
  "/>
<polyline clip-path="url(#clip132)" style="stroke:#000000; stroke-linecap:butt; stroke-linejoin:round; stroke-width:2; stroke-opacity:0.1; fill:none" points="
  620.059,1375.66 620.059,47.2441 
  "/>
<polyline clip-path="url(#clip132)" style="stroke:#000000; stroke-linecap:butt; stroke-linejoin:round; stroke-width:2; stroke-opacity:0.1; fill:none" points="
  951.424,1375.66 951.424,47.2441 
  "/>
<polyline clip-path="url(#clip132)" style="stroke:#000000; stroke-linecap:butt; stroke-linejoin:round; stroke-width:2; stroke-opacity:0.1; fill:none" points="
  1282.79,1375.66 1282.79,47.2441 
  "/>
<polyline clip-path="url(#clip132)" style="stroke:#000000; stroke-linecap:butt; stroke-linejoin:round; stroke-width:2; stroke-opacity:0.1; fill:none" points="
  1614.15,1375.66 1614.15,47.2441 
  "/>
<polyline clip-path="url(#clip132)" style="stroke:#000000; stroke-linecap:butt; stroke-linejoin:round; stroke-width:2; stroke-opacity:0.1; fill:none" points="
  1945.52,1375.66 1945.52,47.2441 
  "/>
<polyline clip-path="url(#clip132)" style="stroke:#000000; stroke-linecap:butt; stroke-linejoin:round; stroke-width:2; stroke-opacity:0.1; fill:none" points="
  2276.88,1375.66 2276.88,47.2441 
  "/>
<polyline clip-path="url(#clip130)" style="stroke:#000000; stroke-linecap:butt; stroke-linejoin:round; stroke-width:4; stroke-opacity:1; fill:none" points="
  180.29,1375.66 2352.76,1375.66 
  "/>
<polyline clip-path="url(#clip130)" style="stroke:#000000; stroke-linecap:butt; stroke-linejoin:round; stroke-width:4; stroke-opacity:1; fill:none" points="
  288.694,1375.66 288.694,1359.72 
  "/>
<polyline clip-path="url(#clip130)" style="stroke:#000000; stroke-linecap:butt; stroke-linejoin:round; stroke-width:4; stroke-opacity:1; fill:none" points="
  620.059,1375.66 620.059,1359.72 
  "/>
<polyline clip-path="url(#clip130)" style="stroke:#000000; stroke-linecap:butt; stroke-linejoin:round; stroke-width:4; stroke-opacity:1; fill:none" points="
  951.424,1375.66 951.424,1359.72 
  "/>
<polyline clip-path="url(#clip130)" style="stroke:#000000; stroke-linecap:butt; stroke-linejoin:round; stroke-width:4; stroke-opacity:1; fill:none" points="
  1282.79,1375.66 1282.79,1359.72 
  "/>
<polyline clip-path="url(#clip130)" style="stroke:#000000; stroke-linecap:butt; stroke-linejoin:round; stroke-width:4; stroke-opacity:1; fill:none" points="
  1614.15,1375.66 1614.15,1359.72 
  "/>
<polyline clip-path="url(#clip130)" style="stroke:#000000; stroke-linecap:butt; stroke-linejoin:round; stroke-width:4; stroke-opacity:1; fill:none" points="
  1945.52,1375.66 1945.52,1359.72 
  "/>
<polyline clip-path="url(#clip130)" style="stroke:#000000; stroke-linecap:butt; stroke-linejoin:round; stroke-width:4; stroke-opacity:1; fill:none" points="
  2276.88,1375.66 2276.88,1359.72 
  "/>
<path clip-path="url(#clip130)" d="M242.896 1431.82 L287.409 1431.82 L287.409 1437.73 L242.896 1437.73 L242.896 1431.82 Z" fill="#000000" fill-rule="evenodd" fill-opacity="1" /><path clip-path="url(#clip130)" d="M323.798 1429.12 Q328.833 1430.19 331.645 1433.6 Q334.492 1437 334.492 1442 Q334.492 1449.67 329.215 1453.87 Q323.937 1458.07 314.215 1458.07 Q310.951 1458.07 307.479 1457.42 Q304.041 1456.79 300.361 1455.51 L300.361 1448.73 Q303.277 1450.44 306.749 1451.3 Q310.222 1452.17 314.006 1452.17 Q320.604 1452.17 324.041 1449.57 Q327.513 1446.96 327.513 1442 Q327.513 1437.42 324.284 1434.85 Q321.09 1432.24 315.36 1432.24 L309.319 1432.24 L309.319 1426.48 L315.638 1426.48 Q320.812 1426.48 323.555 1424.43 Q326.298 1422.35 326.298 1418.46 Q326.298 1414.46 323.451 1412.35 Q320.638 1410.19 315.36 1410.19 Q312.479 1410.19 309.18 1410.82 Q305.881 1411.44 301.923 1412.76 L301.923 1406.51 Q305.916 1405.4 309.388 1404.85 Q312.895 1404.29 315.985 1404.29 Q323.972 1404.29 328.624 1407.94 Q333.277 1411.55 333.277 1417.73 Q333.277 1422.03 330.812 1425.02 Q328.347 1427.97 323.798 1429.12 Z" fill="#000000" fill-rule="evenodd" fill-opacity="1" /><path clip-path="url(#clip130)" d="M574.972 1431.82 L619.486 1431.82 L619.486 1437.73 L574.972 1437.73 L574.972 1431.82 Z" fill="#000000" fill-rule="evenodd" fill-opacity="1" /><path clip-path="url(#clip130)" d="M640.666 1451.17 L665.146 1451.17 L665.146 1457.07 L632.229 1457.07 L632.229 1451.17 Q636.222 1447.03 643.097 1440.09 Q650.007 1433.11 651.778 1431.1 Q655.146 1427.31 656.465 1424.71 Q657.819 1422.07 657.819 1419.53 Q657.819 1415.4 654.903 1412.8 Q652.021 1410.19 647.368 1410.19 Q644.069 1410.19 640.389 1411.34 Q636.743 1412.48 632.576 1414.81 L632.576 1407.73 Q636.812 1406.03 640.493 1405.16 Q644.173 1404.29 647.229 1404.29 Q655.284 1404.29 660.076 1408.32 Q664.868 1412.35 664.868 1419.08 Q664.868 1422.28 663.652 1425.16 Q662.472 1428.01 659.312 1431.89 Q658.444 1432.9 653.791 1437.73 Q649.139 1442.52 640.666 1451.17 Z" fill="#000000" fill-rule="evenodd" fill-opacity="1" /><path clip-path="url(#clip130)" d="M906.06 1431.82 L950.573 1431.82 L950.573 1437.73 L906.06 1437.73 L906.06 1431.82 Z" fill="#000000" fill-rule="evenodd" fill-opacity="1" /><path clip-path="url(#clip130)" d="M966.927 1451.17 L978.386 1451.17 L978.386 1411.62 L965.92 1414.12 L965.92 1407.73 L978.316 1405.23 L985.33 1405.23 L985.33 1451.17 L996.788 1451.17 L996.788 1457.07 L966.927 1457.07 L966.927 1451.17 Z" fill="#000000" fill-rule="evenodd" fill-opacity="1" /><path clip-path="url(#clip130)" d="M1282.79 1409.85 Q1277.37 1409.85 1274.63 1415.19 Q1271.92 1420.51 1271.92 1431.2 Q1271.92 1441.86 1274.63 1447.21 Q1277.37 1452.52 1282.79 1452.52 Q1288.24 1452.52 1290.95 1447.21 Q1293.69 1441.86 1293.69 1431.2 Q1293.69 1420.51 1290.95 1415.19 Q1288.24 1409.85 1282.79 1409.85 M1282.79 1404.29 Q1291.5 1404.29 1296.09 1411.2 Q1300.71 1418.07 1300.71 1431.2 Q1300.71 1444.29 1296.09 1451.2 Q1291.5 1458.07 1282.79 1458.07 Q1274.07 1458.07 1269.46 1451.2 Q1264.87 1444.29 1264.87 1431.2 Q1264.87 1418.07 1269.46 1411.2 Q1274.07 1404.29 1282.79 1404.29 Z" fill="#000000" fill-rule="evenodd" fill-opacity="1" /><path clip-path="url(#clip130)" d="M1599.73 1451.17 L1611.19 1451.17 L1611.19 1411.62 L1598.72 1414.12 L1598.72 1407.73 L1611.12 1405.23 L1618.13 1405.23 L1618.13 1451.17 L1629.59 1451.17 L1629.59 1457.07 L1599.73 1457.07 L1599.73 1451.17 Z" fill="#000000" fill-rule="evenodd" fill-opacity="1" /><path clip-path="url(#clip130)" d="M1937.5 1451.17 L1961.98 1451.17 L1961.98 1457.07 L1929.06 1457.07 L1929.06 1451.17 Q1933.05 1447.03 1939.93 1440.09 Q1946.84 1433.11 1948.61 1431.1 Q1951.98 1427.31 1953.3 1424.71 Q1954.65 1422.07 1954.65 1419.53 Q1954.65 1415.4 1951.73 1412.8 Q1948.85 1410.19 1944.2 1410.19 Q1940.9 1410.19 1937.22 1411.34 Q1933.57 1412.48 1929.41 1414.81 L1929.41 1407.73 Q1933.64 1406.03 1937.32 1405.16 Q1941.01 1404.29 1944.06 1404.29 Q1952.12 1404.29 1956.91 1408.32 Q1961.7 1412.35 1961.7 1419.08 Q1961.7 1422.28 1960.48 1425.16 Q1959.3 1428.01 1956.14 1431.89 Q1955.28 1432.9 1950.62 1437.73 Q1945.97 1442.52 1937.5 1451.17 Z" fill="#000000" fill-rule="evenodd" fill-opacity="1" /><path clip-path="url(#clip130)" d="M2283.26 1429.12 Q2288.29 1430.19 2291.1 1433.6 Q2293.95 1437 2293.95 1442 Q2293.95 1449.67 2288.67 1453.87 Q2283.39 1458.07 2273.67 1458.07 Q2270.41 1458.07 2266.94 1457.42 Q2263.5 1456.79 2259.82 1455.51 L2259.82 1448.73 Q2262.73 1450.44 2266.21 1451.3 Q2269.68 1452.17 2273.46 1452.17 Q2280.06 1452.17 2283.5 1449.57 Q2286.97 1446.96 2286.97 1442 Q2286.97 1437.42 2283.74 1434.85 Q2280.55 1432.24 2274.82 1432.24 L2268.78 1432.24 L2268.78 1426.48 L2275.1 1426.48 Q2280.27 1426.48 2283.01 1424.43 Q2285.76 1422.35 2285.76 1418.46 Q2285.76 1414.46 2282.91 1412.35 Q2280.1 1410.19 2274.82 1410.19 Q2271.94 1410.19 2268.64 1410.82 Q2265.34 1411.44 2261.38 1412.76 L2261.38 1406.51 Q2265.37 1405.4 2268.85 1404.85 Q2272.35 1404.29 2275.44 1404.29 Q2283.43 1404.29 2288.08 1407.94 Q2292.73 1411.55 2292.73 1417.73 Q2292.73 1422.03 2290.27 1425.02 Q2287.8 1427.97 2283.26 1429.12 Z" fill="#000000" fill-rule="evenodd" fill-opacity="1" /><path clip-path="url(#clip130)" d="M1293.71 1524.4 L1272.62 1552.78 L1294.8 1582.73 L1283.5 1582.73 L1266.52 1559.82 L1249.54 1582.73 L1238.24 1582.73 L1260.9 1552.21 L1240.17 1524.4 L1251.47 1524.4 L1266.94 1545.18 L1282.41 1524.4 L1293.71 1524.4 Z" fill="#000000" fill-rule="evenodd" fill-opacity="1" /><polyline clip-path="url(#clip132)" style="stroke:#000000; stroke-linecap:butt; stroke-linejoin:round; stroke-width:2; stroke-opacity:0.1; fill:none" points="
  180.29,1265.63 2352.76,1265.63 
  "/>
<polyline clip-path="url(#clip132)" style="stroke:#000000; stroke-linecap:butt; stroke-linejoin:round; stroke-width:2; stroke-opacity:0.1; fill:none" points="
  180.29,975.898 2352.76,975.898 
  "/>
<polyline clip-path="url(#clip132)" style="stroke:#000000; stroke-linecap:butt; stroke-linejoin:round; stroke-width:2; stroke-opacity:0.1; fill:none" points="
  180.29,686.166 2352.76,686.166 
  "/>
<polyline clip-path="url(#clip132)" style="stroke:#000000; stroke-linecap:butt; stroke-linejoin:round; stroke-width:2; stroke-opacity:0.1; fill:none" points="
  180.29,396.433 2352.76,396.433 
  "/>
<polyline clip-path="url(#clip132)" style="stroke:#000000; stroke-linecap:butt; stroke-linejoin:round; stroke-width:2; stroke-opacity:0.1; fill:none" points="
  180.29,106.701 2352.76,106.701 
  "/>
<polyline clip-path="url(#clip130)" style="stroke:#000000; stroke-linecap:butt; stroke-linejoin:round; stroke-width:4; stroke-opacity:1; fill:none" points="
  180.29,1375.66 180.29,47.2441 
  "/>
<polyline clip-path="url(#clip130)" style="stroke:#000000; stroke-linecap:butt; stroke-linejoin:round; stroke-width:4; stroke-opacity:1; fill:none" points="
  180.29,1265.63 206.36,1265.63 
  "/>
<polyline clip-path="url(#clip130)" style="stroke:#000000; stroke-linecap:butt; stroke-linejoin:round; stroke-width:4; stroke-opacity:1; fill:none" points="
  180.29,975.898 206.36,975.898 
  "/>
<polyline clip-path="url(#clip130)" style="stroke:#000000; stroke-linecap:butt; stroke-linejoin:round; stroke-width:4; stroke-opacity:1; fill:none" points="
  180.29,686.166 206.36,686.166 
  "/>
<polyline clip-path="url(#clip130)" style="stroke:#000000; stroke-linecap:butt; stroke-linejoin:round; stroke-width:4; stroke-opacity:1; fill:none" points="
  180.29,396.433 206.36,396.433 
  "/>
<polyline clip-path="url(#clip130)" style="stroke:#000000; stroke-linecap:butt; stroke-linejoin:round; stroke-width:4; stroke-opacity:1; fill:none" points="
  180.29,106.701 206.36,106.701 
  "/>
<path clip-path="url(#clip130)" d="M50.9921 1266.31 L95.5058 1266.31 L95.5058 1272.21 L50.9921 1272.21 L50.9921 1266.31 Z" fill="#000000" fill-rule="evenodd" fill-opacity="1" /><path clip-path="url(#clip130)" d="M129.915 1245.82 L112.207 1273.49 L129.915 1273.49 L129.915 1245.82 M128.075 1239.71 L136.894 1239.71 L136.894 1273.49 L144.29 1273.49 L144.29 1279.33 L136.894 1279.33 L136.894 1291.55 L129.915 1291.55 L129.915 1279.33 L106.513 1279.33 L106.513 1272.56 L128.075 1239.71 Z" fill="#000000" fill-rule="evenodd" fill-opacity="1" /><path clip-path="url(#clip130)" d="M54.1171 976.575 L98.6308 976.575 L98.6308 982.478 L54.1171 982.478 L54.1171 976.575 Z" fill="#000000" fill-rule="evenodd" fill-opacity="1" /><path clip-path="url(#clip130)" d="M119.811 995.915 L144.29 995.915 L144.29 1001.82 L111.374 1001.82 L111.374 995.915 Q115.367 991.783 122.242 984.839 Q129.151 977.86 130.922 975.846 Q134.29 972.061 135.61 969.457 Q136.964 966.818 136.964 964.283 Q136.964 960.151 134.047 957.547 Q131.165 954.943 126.513 954.943 Q123.214 954.943 119.533 956.089 Q115.888 957.235 111.721 959.561 L111.721 952.478 Q115.957 950.776 119.638 949.908 Q123.318 949.04 126.374 949.04 Q134.429 949.04 139.221 953.068 Q144.012 957.096 144.012 963.832 Q144.012 967.026 142.797 969.908 Q141.617 972.756 138.457 976.644 Q137.589 977.651 132.936 982.478 Q128.283 987.269 119.811 995.915 Z" fill="#000000" fill-rule="evenodd" fill-opacity="1" /><path clip-path="url(#clip130)" d="M126.374 664.864 Q120.957 664.864 118.214 670.211 Q115.506 675.523 115.506 686.218 Q115.506 696.877 118.214 702.225 Q120.957 707.537 126.374 707.537 Q131.825 707.537 134.533 702.225 Q137.276 696.877 137.276 686.218 Q137.276 675.523 134.533 670.211 Q131.825 664.864 126.374 664.864 M126.374 659.308 Q135.089 659.308 139.672 666.218 Q144.29 673.093 144.29 686.218 Q144.29 699.308 139.672 706.218 Q135.089 713.093 126.374 713.093 Q117.658 713.093 113.04 706.218 Q108.457 699.308 108.457 686.218 Q108.457 673.093 113.04 666.218 Q117.658 659.308 126.374 659.308 Z" fill="#000000" fill-rule="evenodd" fill-opacity="1" /><path clip-path="url(#clip130)" d="M119.811 416.451 L144.29 416.451 L144.29 422.353 L111.374 422.353 L111.374 416.451 Q115.367 412.319 122.242 405.374 Q129.151 398.395 130.922 396.381 Q134.29 392.597 135.61 389.993 Q136.964 387.354 136.964 384.819 Q136.964 380.687 134.047 378.083 Q131.165 375.479 126.513 375.479 Q123.214 375.479 119.533 376.625 Q115.888 377.77 111.721 380.097 L111.721 373.013 Q115.957 371.312 119.638 370.444 Q123.318 369.576 126.374 369.576 Q134.429 369.576 139.221 373.604 Q144.012 377.631 144.012 384.368 Q144.012 387.562 142.797 390.444 Q141.617 393.291 138.457 397.18 Q137.589 398.187 132.936 403.013 Q128.283 407.805 119.811 416.451 Z" fill="#000000" fill-rule="evenodd" fill-opacity="1" /><path clip-path="url(#clip130)" d="M129.915 86.8923 L112.207 114.566 L129.915 114.566 L129.915 86.8923 M128.075 80.7812 L136.894 80.7812 L136.894 114.566 L144.29 114.566 L144.29 120.399 L136.894 120.399 L136.894 132.621 L129.915 132.621 L129.915 120.399 L106.513 120.399 L106.513 113.628 L128.075 80.7812 Z" fill="#000000" fill-rule="evenodd" fill-opacity="1" /><polyline clip-path="url(#clip132)" style="stroke:#009af9; stroke-linecap:butt; stroke-linejoin:round; stroke-width:12; stroke-opacity:1; fill:none" points="
  241.775,758.599 274.307,721.784 306.838,670.969 339.37,612.782 371.902,556.011 404.434,509.722 436.965,481.286 469.497,474.769 502.029,490.082 534.56,523.057 
  567.092,566.458 599.624,611.665 632.155,650.649 664.687,677.767 697.219,690.954 729.75,692.048 762.282,686.166 794.814,680.283 827.345,681.378 859.877,694.565 
  892.409,721.682 924.94,760.666 957.472,805.874 990.004,849.274 1022.54,882.25 1055.07,897.562 1087.6,891.046 1120.13,862.609 1152.66,816.32 1185.19,759.549 
  1217.73,701.362 1250.26,650.547 1282.79,613.733 1315.32,594.023 1347.85,590.486 1380.38,598.583 1412.92,611.449 1445.45,621.705 1477.98,623.368 1510.51,613.397 
  1543.04,592.517 1575.57,565.109 1608.11,538.196 1640.64,519.763 1673.17,516.81 1705.7,533.598 1738.23,570.502 1770.76,623.759 1803.3,686.166 1835.83,748.572 
  1868.36,801.829 1900.89,838.733 1933.42,855.521 1965.95,852.568 1998.49,834.135 2031.02,807.222 2063.55,779.814 2096.08,758.934 2128.61,748.963 2161.14,750.626 
  2193.68,760.883 2226.21,773.749 2258.74,781.845 2291.27,778.308 
  "/>
<polyline clip-path="url(#clip132)" style="stroke:#e26f46; stroke-linecap:butt; stroke-linejoin:round; stroke-width:12; stroke-opacity:1; fill:none" points="
  241.775,396.433 274.307,231.277 306.838,117.359 339.37,84.8408 371.902,146.697 404.434,295.444 436.965,504.635 469.497,734.773 502.029,942.255 534.56,1089.26 
  567.092,1152.25 599.624,1127.09 632.155,1029.63 664.687,891.571 697.219,752.635 729.75,650.93 762.282,613.733 794.814,650.93 827.345,752.635 859.877,891.571 
  892.409,1029.63 924.94,1127.09 957.472,1152.25 990.004,1089.26 1022.54,942.255 1055.07,734.773 1087.6,504.635 1120.13,295.444 1152.66,146.697 1185.19,84.8408 
  1217.73,117.359 1250.26,231.277 1282.79,396.433 1315.32,572.724 1347.85,719.617 1380.38,805.683 1412.92,815.891 1445.45,754.954 1477.98,645.945 1510.51,524.511 
  1543.04,430.076 1575.57,396.119 1608.11,441.835 1640.64,567.175 1673.17,752.443 1705.7,962.568 1738.23,1155.05 1770.76,1289.73 1803.3,1338.06 1835.83,1289.73 
  1868.36,1155.05 1900.89,962.568 1933.42,752.443 1965.95,567.175 1998.49,441.835 2031.02,396.119 2063.55,430.076 2096.08,524.511 2128.61,645.945 2161.14,754.954 
  2193.68,815.891 2226.21,805.683 2258.74,719.617 2291.27,572.724 
  "/>
<path clip-path="url(#clip130)" d="
M1859.93 363.685 L2280.34 363.685 L2280.34 91.5246 L1859.93 91.5246  Z
  " fill="#ffffff" fill-rule="evenodd" fill-opacity="1"/>
<polyline clip-path="url(#clip130)" style="stroke:#000000; stroke-linecap:butt; stroke-linejoin:round; stroke-width:4; stroke-opacity:1; fill:none" points="
  1859.93,363.685 2280.34,363.685 2280.34,91.5246 1859.93,91.5246 1859.93,363.685 
  "/>
<polyline clip-path="url(#clip130)" style="stroke:#009af9; stroke-linecap:butt; stroke-linejoin:round; stroke-width:6; stroke-opacity:1; fill:none" points="
  1884.07,182.245 2028.9,182.245 
  "/>
<path clip-path="url(#clip130)" d="M2053.04 192.817 L2053.04 169.276 L2059.43 169.276 L2059.43 192.574 Q2059.43 198.095 2061.58 200.873 Q2063.73 203.616 2068.04 203.616 Q2073.21 203.616 2076.2 200.317 Q2079.22 197.019 2079.22 191.324 L2079.22 169.276 L2085.61 169.276 L2085.61 208.165 L2079.22 208.165 L2079.22 202.192 Q2076.89 205.734 2073.8 207.47 Q2070.74 209.172 2066.68 209.172 Q2059.98 209.172 2056.51 205.005 Q2053.04 200.838 2053.04 192.817 M2069.11 168.338 L2069.11 168.338 Z" fill="#000000" fill-rule="evenodd" fill-opacity="1" /><polyline clip-path="url(#clip130)" style="stroke:#e26f46; stroke-linecap:butt; stroke-linejoin:round; stroke-width:6; stroke-opacity:1; fill:none" points="
  1884.07,272.965 2028.9,272.965 
  "/>
<path clip-path="url(#clip130)" d="M2064.91 299.892 Q2060.02 299.892 2056.82 296.94 Q2053.04 293.433 2053.04 287.079 Q2053.04 280.482 2056.37 275.343 Q2059.81 270.065 2065.99 270.065 Q2070.05 270.065 2073.24 272.6 Q2075.12 274.093 2076.4 276.593 Q2076.86 273.781 2076.86 270.586 Q2076.86 265.899 2075.74 263.19 Q2073.28 257.183 2066.75 257.183 Q2064.29 257.183 2060.47 258.711 L2060.47 252.878 Q2064.49 251.802 2068.11 251.802 Q2077.41 251.802 2081.37 260.343 Q2083.21 264.371 2083.21 270.378 Q2083.21 274.301 2082.34 278.85 Q2080.15 290.239 2074.49 295.655 Q2070.05 299.892 2064.91 299.892 M2058.97 288.121 Q2058.97 291.593 2060.5 293.468 Q2062.13 295.447 2064.63 295.447 Q2066.86 295.447 2068.63 293.885 Q2071.13 291.732 2072.97 288.225 Q2074.49 285.343 2075.26 282.253 Q2072.17 274.788 2066.82 274.788 Q2062.24 274.788 2060.22 280.829 Q2058.97 284.579 2058.97 288.121 Z" fill="#000000" fill-rule="evenodd" fill-opacity="1" /><path clip-path="url(#clip130)" d="M2092.55 283.537 L2092.55 259.996 L2098.94 259.996 L2098.94 283.294 Q2098.94 288.815 2101.09 291.593 Q2103.24 294.336 2107.55 294.336 Q2112.72 294.336 2115.71 291.037 Q2118.73 287.739 2118.73 282.044 L2118.73 259.996 L2125.12 259.996 L2125.12 298.885 L2118.73 298.885 L2118.73 292.912 Q2116.4 296.454 2113.31 298.19 Q2110.26 299.892 2106.2 299.892 Q2099.49 299.892 2096.02 295.725 Q2092.55 291.558 2092.55 283.537 M2108.63 259.058 L2108.63 259.058 Z" fill="#000000" fill-rule="evenodd" fill-opacity="1" /><path clip-path="url(#clip130)" d="M2149.63 247.045 L2155.54 247.045 L2137.48 305.482 L2131.58 305.482 L2149.63 247.045 Z" fill="#000000" fill-rule="evenodd" fill-opacity="1" /><path clip-path="url(#clip130)" d="M2170.71 299.892 Q2165.81 299.892 2162.62 296.94 Q2158.83 293.433 2158.83 287.079 Q2158.83 280.482 2162.17 275.343 Q2165.61 270.065 2171.79 270.065 Q2175.85 270.065 2179.04 272.6 Q2180.92 274.093 2182.2 276.593 Q2182.65 273.781 2182.65 270.586 Q2182.65 265.899 2181.54 263.19 Q2179.08 257.183 2172.55 257.183 Q2170.08 257.183 2166.27 258.711 L2166.27 252.878 Q2170.29 251.802 2173.9 251.802 Q2183.21 251.802 2187.17 260.343 Q2189.01 264.371 2189.01 270.378 Q2189.01 274.301 2188.14 278.85 Q2185.95 290.239 2180.29 295.655 Q2175.85 299.892 2170.71 299.892 M2164.77 288.121 Q2164.77 291.593 2166.3 293.468 Q2167.93 295.447 2170.43 295.447 Q2172.65 295.447 2174.42 293.885 Q2176.92 291.732 2178.77 288.225 Q2180.29 285.343 2181.06 282.253 Q2177.97 274.788 2172.62 274.788 Q2168.04 274.788 2166.02 280.829 Q2164.77 284.579 2164.77 288.121 Z" fill="#000000" fill-rule="evenodd" fill-opacity="1" /><path clip-path="url(#clip130)" d="M2231.33 259.996 L2217.27 278.919 L2232.06 298.885 L2224.53 298.885 L2213.21 283.607 L2201.89 298.885 L2194.36 298.885 L2209.46 278.538 L2195.64 259.996 L2203.17 259.996 L2213.49 273.85 L2223.8 259.996 L2231.33 259.996 Z" fill="#000000" fill-rule="evenodd" fill-opacity="1" /></svg>
