<?xml version="1.0" encoding="utf-8"?>
<svg xmlns="http://www.w3.org/2000/svg" xmlns:xlink="http://www.w3.org/1999/xlink" width="600" height="400" viewBox="0 0 2400 1600">
<defs>
  <clipPath id="clip800">
    <rect x="0" y="0" width="2400" height="1600"/>
  </clipPath>
</defs>
<path clip-path="url(#clip800)" d="
M0 1600 L2400 1600 L2400 0 L0 0  Z
  " fill="#ffffff" fill-rule="evenodd" fill-opacity="1"/>
<defs>
  <clipPath id="clip801">
    <rect x="480" y="0" width="1681" height="1600"/>
  </clipPath>
</defs>
<path clip-path="url(#clip800)" d="
M220.672 1401.58 L2352.76 1401.58 L2352.76 47.2441 L220.672 47.2441  Z
  " fill="#ffffff" fill-rule="evenodd" fill-opacity="1"/>
<defs>
  <clipPath id="clip802">
    <rect x="220" y="47" width="2133" height="1355"/>
  </clipPath>
</defs>
<polyline clip-path="url(#clip802)" style="stroke:#000000; stroke-linecap:butt; stroke-linejoin:round; stroke-width:2; stroke-opacity:0.1; fill:none" points="
  317.585,1401.58 317.585,47.2441 
  "/>
<polyline clip-path="url(#clip802)" style="stroke:#000000; stroke-linecap:butt; stroke-linejoin:round; stroke-width:2; stroke-opacity:0.1; fill:none" points="
  640.628,1401.58 640.628,47.2441 
  "/>
<polyline clip-path="url(#clip802)" style="stroke:#000000; stroke-linecap:butt; stroke-linejoin:round; stroke-width:2; stroke-opacity:0.1; fill:none" points="
  963.671,1401.58 963.671,47.2441 
  "/>
<polyline clip-path="url(#clip802)" style="stroke:#000000; stroke-linecap:butt; stroke-linejoin:round; stroke-width:2; stroke-opacity:0.1; fill:none" points="
  1286.71,1401.58 1286.71,47.2441 
  "/>
<polyline clip-path="url(#clip802)" style="stroke:#000000; stroke-linecap:butt; stroke-linejoin:round; stroke-width:2; stroke-opacity:0.1; fill:none" points="
  1609.76,1401.58 1609.76,47.2441 
  "/>
<polyline clip-path="url(#clip802)" style="stroke:#000000; stroke-linecap:butt; stroke-linejoin:round; stroke-width:2; stroke-opacity:0.1; fill:none" points="
  1932.8,1401.58 1932.8,47.2441 
  "/>
<polyline clip-path="url(#clip802)" style="stroke:#000000; stroke-linecap:butt; stroke-linejoin:round; stroke-width:2; stroke-opacity:0.1; fill:none" points="
  2255.84,1401.58 2255.84,47.2441 
  "/>
<polyline clip-path="url(#clip800)" style="stroke:#000000; stroke-linecap:butt; stroke-linejoin:round; stroke-width:4; stroke-opacity:1; fill:none" points="
  220.672,1401.58 2352.76,1401.58 
  "/>
<polyline clip-path="url(#clip800)" style="stroke:#000000; stroke-linecap:butt; stroke-linejoin:round; stroke-width:4; stroke-opacity:1; fill:none" points="
  317.585,1401.58 317.585,1385.33 
  "/>
<polyline clip-path="url(#clip800)" style="stroke:#000000; stroke-linecap:butt; stroke-linejoin:round; stroke-width:4; stroke-opacity:1; fill:none" points="
  640.628,1401.58 640.628,1385.33 
  "/>
<polyline clip-path="url(#clip800)" style="stroke:#000000; stroke-linecap:butt; stroke-linejoin:round; stroke-width:4; stroke-opacity:1; fill:none" points="
  963.671,1401.58 963.671,1385.33 
  "/>
<polyline clip-path="url(#clip800)" style="stroke:#000000; stroke-linecap:butt; stroke-linejoin:round; stroke-width:4; stroke-opacity:1; fill:none" points="
  1286.71,1401.58 1286.71,1385.33 
  "/>
<polyline clip-path="url(#clip800)" style="stroke:#000000; stroke-linecap:butt; stroke-linejoin:round; stroke-width:4; stroke-opacity:1; fill:none" points="
  1609.76,1401.58 1609.76,1385.33 
  "/>
<polyline clip-path="url(#clip800)" style="stroke:#000000; stroke-linecap:butt; stroke-linejoin:round; stroke-width:4; stroke-opacity:1; fill:none" points="
  1932.8,1401.58 1932.8,1385.33 
  "/>
<polyline clip-path="url(#clip800)" style="stroke:#000000; stroke-linecap:butt; stroke-linejoin:round; stroke-width:4; stroke-opacity:1; fill:none" points="
  2255.84,1401.58 2255.84,1385.33 
  "/>
<path clip-path="url(#clip800)" d="M279.42 1451.58 L316.514 1451.58 L316.514 1456.5 L279.42 1456.5 L279.42 1451.58 Z" fill="#000000" fill-rule="evenodd" fill-opacity="1" /><path clip-path="url(#clip800)" d="M346.838 1449.33 Q351.034 1450.22 353.378 1453.06 Q355.75 1455.9 355.75 1460.06 Q355.75 1466.46 351.352 1469.96 Q346.954 1473.46 338.852 1473.46 Q336.132 1473.46 333.239 1472.91 Q330.374 1472.39 327.307 1471.32 L327.307 1465.68 Q329.738 1467.09 332.631 1467.82 Q335.525 1468.54 338.679 1468.54 Q344.176 1468.54 347.041 1466.37 Q349.934 1464.2 349.934 1460.06 Q349.934 1456.24 347.243 1454.1 Q344.581 1451.93 339.807 1451.93 L334.772 1451.93 L334.772 1447.13 L340.038 1447.13 Q344.35 1447.13 346.636 1445.42 Q348.922 1443.68 348.922 1440.44 Q348.922 1437.12 346.549 1435.35 Q344.205 1433.56 339.807 1433.56 Q337.405 1433.56 334.657 1434.08 Q331.908 1434.6 328.609 1435.7 L328.609 1430.49 Q331.937 1429.56 334.83 1429.1 Q337.753 1428.64 340.328 1428.64 Q346.983 1428.64 350.86 1431.68 Q354.737 1434.69 354.737 1439.84 Q354.737 1443.42 352.683 1445.91 Q350.629 1448.37 346.838 1449.33 Z" fill="#000000" fill-rule="evenodd" fill-opacity="1" /><path clip-path="url(#clip800)" d="M603.056 1451.58 L640.15 1451.58 L640.15 1456.5 L603.056 1456.5 L603.056 1451.58 Z" fill="#000000" fill-rule="evenodd" fill-opacity="1" /><path clip-path="url(#clip800)" d="M657.801 1467.7 L678.2 1467.7 L678.2 1472.62 L650.77 1472.62 L650.77 1467.7 Q654.097 1464.26 659.826 1458.47 Q665.584 1452.65 667.06 1450.98 Q669.867 1447.82 670.966 1445.65 Q672.095 1443.45 672.095 1441.34 Q672.095 1437.9 669.664 1435.73 Q667.263 1433.56 663.385 1433.56 Q660.636 1433.56 657.569 1434.51 Q654.531 1435.47 651.059 1437.41 L651.059 1431.5 Q654.589 1430.09 657.656 1429.36 Q660.723 1428.64 663.27 1428.64 Q669.982 1428.64 673.976 1432 Q677.969 1435.35 677.969 1440.96 Q677.969 1443.63 676.956 1446.03 Q675.972 1448.4 673.339 1451.64 Q672.616 1452.48 668.738 1456.5 Q664.861 1460.5 657.801 1467.7 Z" fill="#000000" fill-rule="evenodd" fill-opacity="1" /><path clip-path="url(#clip800)" d="M925.867 1451.58 L962.962 1451.58 L962.962 1456.5 L925.867 1456.5 L925.867 1451.58 Z" fill="#000000" fill-rule="evenodd" fill-opacity="1" /><path clip-path="url(#clip800)" d="M976.59 1467.7 L986.139 1467.7 L986.139 1434.74 L975.751 1436.83 L975.751 1431.5 L986.081 1429.42 L991.926 1429.42 L991.926 1467.7 L1001.47 1467.7 L1001.47 1472.62 L976.59 1472.62 L976.59 1467.7 Z" fill="#000000" fill-rule="evenodd" fill-opacity="1" /><path clip-path="url(#clip800)" d="M1286.71 1433.27 Q1282.2 1433.27 1279.91 1437.72 Q1277.66 1442.15 1277.66 1451.06 Q1277.66 1459.95 1279.91 1464.4 Q1282.2 1468.83 1286.71 1468.83 Q1291.26 1468.83 1293.51 1464.4 Q1295.8 1459.95 1295.8 1451.06 Q1295.8 1442.15 1293.51 1437.72 Q1291.26 1433.27 1286.71 1433.27 M1286.71 1428.64 Q1293.98 1428.64 1297.8 1434.4 Q1301.64 1440.13 1301.64 1451.06 Q1301.64 1461.97 1297.8 1467.73 Q1293.98 1473.46 1286.71 1473.46 Q1279.45 1473.46 1275.6 1467.73 Q1271.78 1461.97 1271.78 1451.06 Q1271.78 1440.13 1275.6 1434.4 Q1279.45 1428.64 1286.71 1428.64 Z" fill="#000000" fill-rule="evenodd" fill-opacity="1" /><path clip-path="url(#clip800)" d="M1597.73 1467.7 L1607.28 1467.7 L1607.28 1434.74 L1596.9 1436.83 L1596.9 1431.5 L1607.23 1429.42 L1613.07 1429.42 L1613.07 1467.7 L1622.62 1467.7 L1622.62 1472.62 L1597.73 1472.62 L1597.73 1467.7 Z" fill="#000000" fill-rule="evenodd" fill-opacity="1" /><path clip-path="url(#clip800)" d="M1926.12 1467.7 L1946.52 1467.7 L1946.52 1472.62 L1919.08 1472.62 L1919.08 1467.7 Q1922.41 1464.26 1928.14 1458.47 Q1933.9 1452.65 1935.38 1450.98 Q1938.18 1447.82 1939.28 1445.65 Q1940.41 1443.45 1940.41 1441.34 Q1940.41 1437.9 1937.98 1435.73 Q1935.58 1433.56 1931.7 1433.56 Q1928.95 1433.56 1925.88 1434.51 Q1922.85 1435.47 1919.37 1437.41 L1919.37 1431.5 Q1922.9 1430.09 1925.97 1429.36 Q1929.04 1428.64 1931.58 1428.64 Q1938.3 1428.64 1942.29 1432 Q1946.28 1435.35 1946.28 1440.96 Q1946.28 1443.63 1945.27 1446.03 Q1944.29 1448.4 1941.65 1451.64 Q1940.93 1452.48 1937.05 1456.5 Q1933.18 1460.5 1926.12 1467.7 Z" fill="#000000" fill-rule="evenodd" fill-opacity="1" /><path clip-path="url(#clip800)" d="M2261.15 1449.33 Q2265.35 1450.22 2267.69 1453.06 Q2270.06 1455.9 2270.06 1460.06 Q2270.06 1466.46 2265.67 1469.96 Q2261.27 1473.46 2253.17 1473.46 Q2250.45 1473.46 2247.55 1472.91 Q2244.69 1472.39 2241.62 1471.32 L2241.62 1465.68 Q2244.05 1467.09 2246.95 1467.82 Q2249.84 1468.54 2252.99 1468.54 Q2258.49 1468.54 2261.36 1466.37 Q2264.25 1464.2 2264.25 1460.06 Q2264.25 1456.24 2261.56 1454.1 Q2258.9 1451.93 2254.12 1451.93 L2249.09 1451.93 L2249.09 1447.13 L2254.35 1447.13 Q2258.66 1447.13 2260.95 1445.42 Q2263.24 1443.68 2263.24 1440.44 Q2263.24 1437.12 2260.86 1435.35 Q2258.52 1433.56 2254.12 1433.56 Q2251.72 1433.56 2248.97 1434.08 Q2246.22 1434.6 2242.92 1435.7 L2242.92 1430.49 Q2246.25 1429.56 2249.14 1429.1 Q2252.07 1428.64 2254.64 1428.64 Q2261.3 1428.64 2265.17 1431.68 Q2269.05 1434.69 2269.05 1439.84 Q2269.05 1443.42 2267 1445.91 Q2264.94 1448.37 2261.15 1449.33 Z" fill="#000000" fill-rule="evenodd" fill-opacity="1" /><path clip-path="url(#clip800)" d="M1307.86 1529.59 L1291.45 1551.66 L1308.71 1574.96 L1299.92 1574.96 L1286.71 1557.13 L1273.51 1574.96 L1264.72 1574.96 L1282.34 1551.22 L1266.22 1529.59 L1275.01 1529.59 L1287.04 1545.75 L1299.07 1529.59 L1307.86 1529.59 Z" fill="#000000" fill-rule="evenodd" fill-opacity="1" /><polyline clip-path="url(#clip802)" style="stroke:#000000; stroke-linecap:butt; stroke-linejoin:round; stroke-width:2; stroke-opacity:0.1; fill:none" points="
  220.672,1359.26 2352.76,1359.26 
  "/>
<polyline clip-path="url(#clip802)" style="stroke:#000000; stroke-linecap:butt; stroke-linejoin:round; stroke-width:2; stroke-opacity:0.1; fill:none" points="
  220.672,1147.64 2352.76,1147.64 
  "/>
<polyline clip-path="url(#clip802)" style="stroke:#000000; stroke-linecap:butt; stroke-linejoin:round; stroke-width:2; stroke-opacity:0.1; fill:none" points="
  220.672,936.027 2352.76,936.027 
  "/>
<polyline clip-path="url(#clip802)" style="stroke:#000000; stroke-linecap:butt; stroke-linejoin:round; stroke-width:2; stroke-opacity:0.1; fill:none" points="
  220.672,724.412 2352.76,724.412 
  "/>
<polyline clip-path="url(#clip802)" style="stroke:#000000; stroke-linecap:butt; stroke-linejoin:round; stroke-width:2; stroke-opacity:0.1; fill:none" points="
  220.672,512.797 2352.76,512.797 
  "/>
<polyline clip-path="url(#clip802)" style="stroke:#000000; stroke-linecap:butt; stroke-linejoin:round; stroke-width:2; stroke-opacity:0.1; fill:none" points="
  220.672,301.182 2352.76,301.182 
  "/>
<polyline clip-path="url(#clip802)" style="stroke:#000000; stroke-linecap:butt; stroke-linejoin:round; stroke-width:2; stroke-opacity:0.1; fill:none" points="
  220.672,89.5671 2352.76,89.5671 
  "/>
<polyline clip-path="url(#clip800)" style="stroke:#000000; stroke-linecap:butt; stroke-linejoin:round; stroke-width:4; stroke-opacity:1; fill:none" points="
  220.672,1401.58 220.672,47.2441 
  "/>
<polyline clip-path="url(#clip800)" style="stroke:#000000; stroke-linecap:butt; stroke-linejoin:round; stroke-width:4; stroke-opacity:1; fill:none" points="
  220.672,1359.26 246.257,1359.26 
  "/>
<polyline clip-path="url(#clip800)" style="stroke:#000000; stroke-linecap:butt; stroke-linejoin:round; stroke-width:4; stroke-opacity:1; fill:none" points="
  220.672,1147.64 246.257,1147.64 
  "/>
<polyline clip-path="url(#clip800)" style="stroke:#000000; stroke-linecap:butt; stroke-linejoin:round; stroke-width:4; stroke-opacity:1; fill:none" points="
  220.672,936.027 246.257,936.027 
  "/>
<polyline clip-path="url(#clip800)" style="stroke:#000000; stroke-linecap:butt; stroke-linejoin:round; stroke-width:4; stroke-opacity:1; fill:none" points="
  220.672,724.412 246.257,724.412 
  "/>
<polyline clip-path="url(#clip800)" style="stroke:#000000; stroke-linecap:butt; stroke-linejoin:round; stroke-width:4; stroke-opacity:1; fill:none" points="
  220.672,512.797 246.257,512.797 
  "/>
<polyline clip-path="url(#clip800)" style="stroke:#000000; stroke-linecap:butt; stroke-linejoin:round; stroke-width:4; stroke-opacity:1; fill:none" points="
  220.672,301.182 246.257,301.182 
  "/>
<polyline clip-path="url(#clip800)" style="stroke:#000000; stroke-linecap:butt; stroke-linejoin:round; stroke-width:4; stroke-opacity:1; fill:none" points="
  220.672,89.5671 246.257,89.5671 
  "/>
<path clip-path="url(#clip800)" d="M52.2363 1359.82 L89.331 1359.82 L89.331 1364.74 L52.2363 1364.74 L52.2363 1359.82 Z" fill="#000000" fill-rule="evenodd" fill-opacity="1" /><path clip-path="url(#clip800)" d="M102.959 1375.94 L112.508 1375.94 L112.508 1342.98 L102.12 1345.06 L102.12 1339.74 L112.45 1337.66 L118.295 1337.66 L118.295 1375.94 L127.844 1375.94 L127.844 1380.86 L102.959 1380.86 L102.959 1375.94 Z" fill="#000000" fill-rule="evenodd" fill-opacity="1" /><path clip-path="url(#clip800)" d="M139.649 1373.51 L145.754 1373.51 L145.754 1380.86 L139.649 1380.86 L139.649 1373.51 Z" fill="#000000" fill-rule="evenodd" fill-opacity="1" /><path clip-path="url(#clip800)" d="M158.544 1337.66 L181.489 1337.66 L181.489 1342.58 L163.897 1342.58 L163.897 1353.17 Q165.17 1352.73 166.443 1352.53 Q167.716 1352.3 168.989 1352.3 Q176.223 1352.3 180.447 1356.26 Q184.672 1360.23 184.672 1367 Q184.672 1373.97 180.332 1377.85 Q175.991 1381.7 168.092 1381.7 Q165.372 1381.7 162.537 1381.23 Q159.73 1380.77 156.721 1379.84 L156.721 1373.97 Q159.325 1375.39 162.103 1376.08 Q164.88 1376.78 167.976 1376.78 Q172.982 1376.78 175.905 1374.14 Q178.827 1371.51 178.827 1367 Q178.827 1362.48 175.905 1359.85 Q172.982 1357.22 167.976 1357.22 Q165.633 1357.22 163.289 1357.74 Q160.974 1358.26 158.544 1359.36 L158.544 1337.66 Z" fill="#000000" fill-rule="evenodd" fill-opacity="1" /><path clip-path="url(#clip800)" d="M50.9921 1148.21 L88.0868 1148.21 L88.0868 1153.13 L50.9921 1153.13 L50.9921 1148.21 Z" fill="#000000" fill-rule="evenodd" fill-opacity="1" /><path clip-path="url(#clip800)" d="M101.715 1164.32 L111.264 1164.32 L111.264 1131.37 L100.876 1133.45 L100.876 1128.13 L111.206 1126.04 L117.051 1126.04 L117.051 1164.32 L126.599 1164.32 L126.599 1169.24 L101.715 1169.24 L101.715 1164.32 Z" fill="#000000" fill-rule="evenodd" fill-opacity="1" /><path clip-path="url(#clip800)" d="M138.405 1161.89 L144.51 1161.89 L144.51 1169.24 L138.405 1169.24 L138.405 1161.89 Z" fill="#000000" fill-rule="evenodd" fill-opacity="1" /><path clip-path="url(#clip800)" d="M169.741 1129.89 Q165.228 1129.89 162.942 1134.35 Q160.685 1138.77 160.685 1147.69 Q160.685 1156.57 162.942 1161.02 Q165.228 1165.45 169.741 1165.45 Q174.284 1165.45 176.541 1161.02 Q178.827 1156.57 178.827 1147.69 Q178.827 1138.77 176.541 1134.35 Q174.284 1129.89 169.741 1129.89 M169.741 1125.26 Q177.004 1125.26 180.824 1131.02 Q184.672 1136.75 184.672 1147.69 Q184.672 1158.59 180.824 1164.35 Q177.004 1170.08 169.741 1170.08 Q162.479 1170.08 158.63 1164.35 Q154.811 1158.59 154.811 1147.69 Q154.811 1136.75 158.63 1131.02 Q162.479 1125.26 169.741 1125.26 Z" fill="#000000" fill-rule="evenodd" fill-opacity="1" /><path clip-path="url(#clip800)" d="M52.2363 936.591 L89.331 936.591 L89.331 941.51 L52.2363 941.51 L52.2363 936.591 Z" fill="#000000" fill-rule="evenodd" fill-opacity="1" /><path clip-path="url(#clip800)" d="M114.447 918.275 Q109.933 918.275 107.647 922.731 Q105.39 927.158 105.39 936.07 Q105.39 944.953 107.647 949.409 Q109.933 953.836 114.447 953.836 Q118.989 953.836 121.246 949.409 Q123.532 944.953 123.532 936.07 Q123.532 927.158 121.246 922.731 Q118.989 918.275 114.447 918.275 M114.447 913.646 Q121.709 913.646 125.529 919.404 Q129.377 925.133 129.377 936.07 Q129.377 946.979 125.529 952.737 Q121.709 958.466 114.447 958.466 Q107.184 958.466 103.336 952.737 Q99.5162 946.979 99.5162 936.07 Q99.5162 925.133 103.336 919.404 Q107.184 913.646 114.447 913.646 Z" fill="#000000" fill-rule="evenodd" fill-opacity="1" /><path clip-path="url(#clip800)" d="M139.649 950.277 L145.754 950.277 L145.754 957.627 L139.649 957.627 L139.649 950.277 Z" fill="#000000" fill-rule="evenodd" fill-opacity="1" /><path clip-path="url(#clip800)" d="M158.544 914.427 L181.489 914.427 L181.489 919.346 L163.897 919.346 L163.897 929.936 Q165.17 929.502 166.443 929.3 Q167.716 929.068 168.989 929.068 Q176.223 929.068 180.447 933.032 Q184.672 936.996 184.672 943.767 Q184.672 950.74 180.332 954.618 Q175.991 958.466 168.092 958.466 Q165.372 958.466 162.537 958.003 Q159.73 957.54 156.721 956.614 L156.721 950.74 Q159.325 952.158 162.103 952.853 Q164.88 953.547 167.976 953.547 Q172.982 953.547 175.905 950.914 Q178.827 948.281 178.827 943.767 Q178.827 939.253 175.905 936.62 Q172.982 933.987 167.976 933.987 Q165.633 933.987 163.289 934.508 Q160.974 935.029 158.544 936.128 L158.544 914.427 Z" fill="#000000" fill-rule="evenodd" fill-opacity="1" /><path clip-path="url(#clip800)" d="M113.202 706.66 Q108.689 706.66 106.403 711.116 Q104.146 715.543 104.146 724.455 Q104.146 733.338 106.403 737.794 Q108.689 742.221 113.202 742.221 Q117.745 742.221 120.002 737.794 Q122.288 733.338 122.288 724.455 Q122.288 715.543 120.002 711.116 Q117.745 706.66 113.202 706.66 M113.202 702.031 Q120.465 702.031 124.285 707.789 Q128.133 713.518 128.133 724.455 Q128.133 735.364 124.285 741.122 Q120.465 746.851 113.202 746.851 Q105.94 746.851 102.091 741.122 Q98.272 735.364 98.272 724.455 Q98.272 713.518 102.091 707.789 Q105.94 702.031 113.202 702.031 Z" fill="#000000" fill-rule="evenodd" fill-opacity="1" /><path clip-path="url(#clip800)" d="M138.405 738.662 L144.51 738.662 L144.51 746.012 L138.405 746.012 L138.405 738.662 Z" fill="#000000" fill-rule="evenodd" fill-opacity="1" /><path clip-path="url(#clip800)" d="M169.741 706.66 Q165.228 706.66 162.942 711.116 Q160.685 715.543 160.685 724.455 Q160.685 733.338 162.942 737.794 Q165.228 742.221 169.741 742.221 Q174.284 742.221 176.541 737.794 Q178.827 733.338 178.827 724.455 Q178.827 715.543 176.541 711.116 Q174.284 706.66 169.741 706.66 M169.741 702.031 Q177.004 702.031 180.824 707.789 Q184.672 713.518 184.672 724.455 Q184.672 735.364 180.824 741.122 Q177.004 746.851 169.741 746.851 Q162.479 746.851 158.63 741.122 Q154.811 735.364 154.811 724.455 Q154.811 713.518 158.63 707.789 Q162.479 702.031 169.741 702.031 Z" fill="#000000" fill-rule="evenodd" fill-opacity="1" /><path clip-path="url(#clip800)" d="M114.447 495.045 Q109.933 495.045 107.647 499.501 Q105.39 503.928 105.39 512.84 Q105.39 521.723 107.647 526.179 Q109.933 530.607 114.447 530.607 Q118.989 530.607 121.246 526.179 Q123.532 521.723 123.532 512.84 Q123.532 503.928 121.246 499.501 Q118.989 495.045 114.447 495.045 M114.447 490.416 Q121.709 490.416 125.529 496.174 Q129.377 501.903 129.377 512.84 Q129.377 523.749 125.529 529.507 Q121.709 535.236 114.447 535.236 Q107.184 535.236 103.336 529.507 Q99.5162 523.749 99.5162 512.84 Q99.5162 501.903 103.336 496.174 Q107.184 490.416 114.447 490.416 Z" fill="#000000" fill-rule="evenodd" fill-opacity="1" /><path clip-path="url(#clip800)" d="M139.649 527.048 L145.754 527.048 L145.754 534.397 L139.649 534.397 L139.649 527.048 Z" fill="#000000" fill-rule="evenodd" fill-opacity="1" /><path clip-path="url(#clip800)" d="M158.544 491.197 L181.489 491.197 L181.489 496.116 L163.897 496.116 L163.897 506.706 Q165.17 506.272 166.443 506.07 Q167.716 505.838 168.989 505.838 Q176.223 505.838 180.447 509.802 Q184.672 513.766 184.672 520.537 Q184.672 527.51 180.332 531.388 Q175.991 535.236 168.092 535.236 Q165.372 535.236 162.537 534.773 Q159.73 534.31 156.721 533.384 L156.721 527.51 Q159.325 528.928 162.103 529.623 Q164.88 530.317 167.976 530.317 Q172.982 530.317 175.905 527.684 Q178.827 525.051 178.827 520.537 Q178.827 516.023 175.905 513.39 Q172.982 510.757 167.976 510.757 Q165.633 510.757 163.289 511.278 Q160.974 511.799 158.544 512.898 L158.544 491.197 Z" fill="#000000" fill-rule="evenodd" fill-opacity="1" /><path clip-path="url(#clip800)" d="M101.715 317.863 L111.264 317.863 L111.264 284.906 L100.876 286.989 L100.876 281.665 L111.206 279.582 L117.051 279.582 L117.051 317.863 L126.599 317.863 L126.599 322.782 L101.715 322.782 L101.715 317.863 Z" fill="#000000" fill-rule="evenodd" fill-opacity="1" /><path clip-path="url(#clip800)" d="M138.405 315.433 L144.51 315.433 L144.51 322.782 L138.405 322.782 L138.405 315.433 Z" fill="#000000" fill-rule="evenodd" fill-opacity="1" /><path clip-path="url(#clip800)" d="M169.741 283.43 Q165.228 283.43 162.942 287.886 Q160.685 292.313 160.685 301.225 Q160.685 310.109 162.942 314.564 Q165.228 318.992 169.741 318.992 Q174.284 318.992 176.541 314.564 Q178.827 310.109 178.827 301.225 Q178.827 292.313 176.541 287.886 Q174.284 283.43 169.741 283.43 M169.741 278.801 Q177.004 278.801 180.824 284.559 Q184.672 290.288 184.672 301.225 Q184.672 312.134 180.824 317.892 Q177.004 323.621 169.741 323.621 Q162.479 323.621 158.63 317.892 Q154.811 312.134 154.811 301.225 Q154.811 290.288 158.63 284.559 Q162.479 278.801 169.741 278.801 Z" fill="#000000" fill-rule="evenodd" fill-opacity="1" /><path clip-path="url(#clip800)" d="M102.959 106.248 L112.508 106.248 L112.508 73.2911 L102.12 75.3745 L102.12 70.0504 L112.45 67.9671 L118.295 67.9671 L118.295 106.248 L127.844 106.248 L127.844 111.167 L102.959 111.167 L102.959 106.248 Z" fill="#000000" fill-rule="evenodd" fill-opacity="1" /><path clip-path="url(#clip800)" d="M139.649 103.818 L145.754 103.818 L145.754 111.167 L139.649 111.167 L139.649 103.818 Z" fill="#000000" fill-rule="evenodd" fill-opacity="1" /><path clip-path="url(#clip800)" d="M158.544 67.9671 L181.489 67.9671 L181.489 72.886 L163.897 72.886 L163.897 83.4763 Q165.17 83.0422 166.443 82.8397 Q167.716 82.6082 168.989 82.6082 Q176.223 82.6082 180.447 86.5723 Q184.672 90.5364 184.672 97.3072 Q184.672 104.281 180.332 108.158 Q175.991 112.006 168.092 112.006 Q165.372 112.006 162.537 111.543 Q159.73 111.08 156.721 110.154 L156.721 104.281 Q159.325 105.698 162.103 106.393 Q164.88 107.087 167.976 107.087 Q172.982 107.087 175.905 104.454 Q178.827 101.821 178.827 97.3072 Q178.827 92.7933 175.905 90.1603 Q172.982 87.5272 167.976 87.5272 Q165.633 87.5272 163.289 88.048 Q160.974 88.5688 158.544 89.6684 L158.544 67.9671 Z" fill="#000000" fill-rule="evenodd" fill-opacity="1" /><polyline clip-path="url(#clip802)" style="stroke:#ff0000; stroke-linecap:butt; stroke-linejoin:round; stroke-width:0; stroke-opacity:1; fill:none" points="
  271.844,301.182 474.818,1066.81 677.792,593.627 880.766,593.627 1083.74,1066.81 1286.71,301.182 1489.69,1066.81 1692.66,593.627 1895.64,593.627 2098.61,1066.81 
  
  "/>
<circle clip-path="url(#clip802)" cx="271.844" cy="301.182" r="28" fill="#ff0000" fill-rule="evenodd" fill-opacity="1" stroke="#000000" stroke-opacity="1" stroke-width="3.2"/>
<circle clip-path="url(#clip802)" cx="474.818" cy="1066.81" r="28" fill="#ff0000" fill-rule="evenodd" fill-opacity="1" stroke="#000000" stroke-opacity="1" stroke-width="3.2"/>
<circle clip-path="url(#clip802)" cx="677.792" cy="593.627" r="28" fill="#ff0000" fill-rule="evenodd" fill-opacity="1" stroke="#000000" stroke-opacity="1" stroke-width="3.2"/>
<circle clip-path="url(#clip802)" cx="880.766" cy="593.627" r="28" fill="#ff0000" fill-rule="evenodd" fill-opacity="1" stroke="#000000" stroke-opacity="1" stroke-width="3.2"/>
<circle clip-path="url(#clip802)" cx="1083.74" cy="1066.81" r="28" fill="#ff0000" fill-rule="evenodd" fill-opacity="1" stroke="#000000" stroke-opacity="1" stroke-width="3.2"/>
<circle clip-path="url(#clip802)" cx="1286.71" cy="301.182" r="28" fill="#ff0000" fill-rule="evenodd" fill-opacity="1" stroke="#000000" stroke-opacity="1" stroke-width="3.2"/>
<circle clip-path="url(#clip802)" cx="1489.69" cy="1066.81" r="28" fill="#ff0000" fill-rule="evenodd" fill-opacity="1" stroke="#000000" stroke-opacity="1" stroke-width="3.2"/>
<circle clip-path="url(#clip802)" cx="1692.66" cy="593.627" r="28" fill="#ff0000" fill-rule="evenodd" fill-opacity="1" stroke="#000000" stroke-opacity="1" stroke-width="3.2"/>
<circle clip-path="url(#clip802)" cx="1895.64" cy="593.627" r="28" fill="#ff0000" fill-rule="evenodd" fill-opacity="1" stroke="#000000" stroke-opacity="1" stroke-width="3.2"/>
<circle clip-path="url(#clip802)" cx="2098.61" cy="1066.81" r="28" fill="#ff0000" fill-rule="evenodd" fill-opacity="1" stroke="#000000" stroke-opacity="1" stroke-width="3.2"/>
<polyline clip-path="url(#clip802)" style="stroke:#ff0000; stroke-linecap:butt; stroke-linejoin:round; stroke-width:12; stroke-opacity:0.2; fill:none" points="
  271.844,301.182 276.8,301.979 281.755,304.365 286.711,308.333 291.666,313.866 303.122,332.527 314.577,359.059 326.032,392.929 337.487,433.457 348.943,479.829 
  360.398,531.114 371.853,586.281 383.308,644.222 406.219,763.741 429.129,880.116 440.584,934.187 452.04,984.044 463.495,1028.69 474.95,1067.22 488.718,1104.36 
  502.486,1130.48 509.371,1139.16 516.255,1144.83 523.139,1147.45 530.023,1147 536.907,1143.47 543.791,1136.91 550.675,1127.34 557.559,1114.86 564.444,1099.53 
  571.328,1081.48 578.212,1060.84 585.096,1037.76 596.737,993.647 608.378,943.949 620.018,889.697 631.659,832.017 654.941,711.205 678.223,591.483 690.868,530.451 
  703.513,474.165 716.158,424.002 728.804,381.188 741.449,346.772 754.094,321.595 766.739,306.274 779.385,301.182 791.042,305.664 802.7,318.855 814.358,340.483 
  826.016,370.096 837.674,407.079 849.331,450.663 860.989,499.942 872.647,553.889 897.644,679.98 922.64,810.294 935.139,873.148 947.637,932.446 960.136,986.772 
  972.634,1034.83 979.874,1059.34 987.115,1081.16 994.355,1100.11 1001.6,1116.05 1008.84,1128.84 1016.08,1138.39 1023.32,1144.61 1030.56,1147.45 1037.8,1146.89 
  1045.04,1142.95 1052.28,1135.64 1059.52,1125.03 1066.76,1111.2 1074,1094.26 1081.24,1074.35 1088.48,1051.63 1101.35,1004.9 1114.22,951.057 1127.08,891.473 
  1139.95,827.656 1165.69,693.857 1191.43,563.136 1202.71,510.21 1214,461.459 1225.28,417.834 1236.57,380.185 1247.85,349.245 1259.14,325.619 1270.42,309.766 
  1281.71,301.996 1294.01,302.907 1306.31,313.582 1318.62,333.774 1330.92,363.013 1343.22,400.624 1355.52,445.735 1367.83,497.301 1380.13,554.128 1404.88,678.969 
  1429.64,808.045 1442.01,870.397 1454.39,929.326 1466.77,983.453 1479.14,1031.51 1485.98,1055.05 1492.83,1076.22 1499.67,1094.87 1506.51,1110.86 1520.19,1134.42 
  1533.88,1146.25 1540.72,1147.64 1547.56,1145.99 1554.4,1141.32 1561.25,1133.66 1568.09,1123.07 1574.93,1109.61 1581.77,1093.4 1588.61,1074.53 1601.63,1031.82 
  1614.65,981.143 1627.67,923.806 1640.69,861.297 1666.73,727.342 1692.77,593.086 1706.31,527.8 1719.85,468.026 1733.38,415.439 1746.92,371.512 1753.69,353.193 
  1760.46,337.479 1767.23,324.482 1774,314.292 1780.76,306.981 1787.53,302.601 1794.3,301.183 1801.07,302.735 1812.47,312.021 1823.86,329.504 1835.26,354.837 
  1846.65,387.516 1858.05,426.891 1869.44,472.18 1880.84,522.483 1892.24,576.8 1920.06,719.452 1947.89,862.687 1961.8,929.21 1975.71,989.669 1989.63,1042.28 
  2003.54,1085.47 2016.62,1116.35 2029.69,1136.97 2036.23,1143.26 2042.77,1146.8 2049.31,1147.57 2055.85,1145.57 2062.39,1140.82 2068.93,1133.33 2075.47,1123.16 
  2082.01,1110.38 2095.09,1077.33 2108.17,1035.05 2118.64,995.258 2129.12,950.913 2139.59,902.762 2150.07,851.614 2171.02,743.801 2191.98,634.69 2212.93,531.585 
  2233.88,441.386 2244.36,403.059 2254.83,370.131 2265.31,343.157 2275.79,322.589 2282.24,313.269 2288.69,306.568 2295.13,302.531 2301.58,301.182 
  "/>
<polyline clip-path="url(#clip802)" style="stroke:#0000ff; stroke-linecap:butt; stroke-linejoin:round; stroke-width:0; stroke-opacity:0.8; fill:none" points="
  271.844,301.182 474.818,1066.81 677.792,593.627 880.766,593.627 1083.74,1066.81 1286.71,301.182 1489.69,1066.81 1692.66,593.627 1895.64,593.627 2098.61,1066.81 
  
  "/>
<path clip-path="url(#clip802)" d="M271.844 267.182 L263.854 290.166 L239.51 290.676 L258.924 305.398 L251.852 328.688 L271.844 314.782 L291.836 328.688 L284.764 305.398 L304.178 290.676 L279.834 290.166 L271.844 267.182 Z" fill="#0000ff" fill-rule="evenodd" fill-opacity="0.8" stroke="#000000" stroke-opacity="0.8" stroke-width="3.2"/>
<path clip-path="url(#clip802)" d="M474.818 1032.81 L466.828 1055.8 L442.484 1056.31 L461.898 1071.03 L454.826 1094.32 L474.818 1080.41 L494.81 1094.32 L487.738 1071.03 L507.152 1056.31 L482.808 1055.8 L474.818 1032.81 Z" fill="#0000ff" fill-rule="evenodd" fill-opacity="0.8" stroke="#000000" stroke-opacity="0.8" stroke-width="3.2"/>
<path clip-path="url(#clip802)" d="M677.792 559.627 L669.802 582.611 L645.458 583.121 L664.872 597.843 L657.8 621.133 L677.792 607.227 L697.784 621.133 L690.712 597.843 L710.126 583.121 L685.782 582.611 L677.792 559.627 Z" fill="#0000ff" fill-rule="evenodd" fill-opacity="0.8" stroke="#000000" stroke-opacity="0.8" stroke-width="3.2"/>
<path clip-path="url(#clip802)" d="M880.766 559.627 L872.776 582.611 L848.432 583.121 L867.846 597.843 L860.774 621.133 L880.766 607.227 L900.758 621.133 L893.686 597.843 L913.1 583.121 L888.756 582.611 L880.766 559.627 Z" fill="#0000ff" fill-rule="evenodd" fill-opacity="0.8" stroke="#000000" stroke-opacity="0.8" stroke-width="3.2"/>
<path clip-path="url(#clip802)" d="M1083.74 1032.81 L1075.75 1055.8 L1051.41 1056.31 L1070.82 1071.03 L1063.75 1094.32 L1083.74 1080.41 L1103.73 1094.32 L1096.66 1071.03 L1116.07 1056.31 L1091.73 1055.8 L1083.74 1032.81 Z" fill="#0000ff" fill-rule="evenodd" fill-opacity="0.8" stroke="#000000" stroke-opacity="0.8" stroke-width="3.2"/>
<path clip-path="url(#clip802)" d="M1286.71 267.182 L1278.72 290.166 L1254.38 290.676 L1273.79 305.398 L1266.72 328.688 L1286.71 314.782 L1306.71 328.688 L1299.63 305.398 L1319.05 290.676 L1294.7 290.166 L1286.71 267.182 Z" fill="#0000ff" fill-rule="evenodd" fill-opacity="0.8" stroke="#000000" stroke-opacity="0.8" stroke-width="3.2"/>
<path clip-path="url(#clip802)" d="M1489.69 1032.81 L1481.7 1055.8 L1457.35 1056.31 L1476.77 1071.03 L1469.7 1094.32 L1489.69 1080.41 L1509.68 1094.32 L1502.61 1071.03 L1522.02 1056.31 L1497.68 1055.8 L1489.69 1032.81 Z" fill="#0000ff" fill-rule="evenodd" fill-opacity="0.8" stroke="#000000" stroke-opacity="0.8" stroke-width="3.2"/>
<path clip-path="url(#clip802)" d="M1692.66 559.627 L1684.67 582.611 L1660.33 583.121 L1679.74 597.843 L1672.67 621.133 L1692.66 607.227 L1712.65 621.133 L1705.58 597.843 L1725 583.121 L1700.65 582.611 L1692.66 559.627 Z" fill="#0000ff" fill-rule="evenodd" fill-opacity="0.8" stroke="#000000" stroke-opacity="0.8" stroke-width="3.2"/>
<path clip-path="url(#clip802)" d="M1895.64 559.627 L1887.65 582.611 L1863.3 583.121 L1882.72 597.843 L1875.64 621.133 L1895.64 607.227 L1915.63 621.133 L1908.56 597.843 L1927.97 583.121 L1903.63 582.611 L1895.64 559.627 Z" fill="#0000ff" fill-rule="evenodd" fill-opacity="0.8" stroke="#000000" stroke-opacity="0.8" stroke-width="3.2"/>
<path clip-path="url(#clip802)" d="M2098.61 1032.81 L2090.62 1055.8 L2066.28 1056.31 L2085.69 1071.03 L2078.62 1094.32 L2098.61 1080.41 L2118.6 1094.32 L2111.53 1071.03 L2130.94 1056.31 L2106.6 1055.8 L2098.61 1032.81 Z" fill="#0000ff" fill-rule="evenodd" fill-opacity="0.8" stroke="#000000" stroke-opacity="0.8" stroke-width="3.2"/>
<polyline clip-path="url(#clip802)" style="stroke:#0000ff; stroke-linecap:butt; stroke-linejoin:round; stroke-width:12; stroke-opacity:0.2; fill:none" points="
  271.844,301.182 276.8,302.973 281.755,308.333 286.711,317.214 291.666,329.543 297.394,347.948 303.122,370.611 308.849,397.273 314.577,427.634 320.304,461.351 
  326.032,498.041 331.76,537.292 337.487,578.658 360.398,755.677 383.308,927.12 389.036,965.423 394.763,1001 400.491,1033.45 406.219,1062.41 411.946,1087.54 
  417.674,1108.57 423.402,1125.26 429.129,1137.41 434.857,1144.9 440.584,1147.63 446.312,1145.58 452.04,1138.76 457.767,1127.26 463.495,1111.2 469.222,1090.77 
  474.95,1066.2 481.834,1031.58 488.718,991.951 495.602,947.95 502.486,900.3 516.255,797.209 530.023,689.383 543.791,583.836 557.559,487.432 564.444,444.652 
  571.328,406.44 578.212,373.419 585.096,346.129 590.916,327.858 596.737,314.218 602.557,305.366 608.378,301.407 614.198,302.387 620.018,308.294 625.839,319.059 
  631.659,334.557 637.48,354.607 643.3,378.974 649.121,407.375 654.941,439.476 660.761,474.905 666.582,513.247 672.402,554.054 678.223,596.85 690.868,694.262 
  703.513,793.33 716.158,888.614 728.804,974.882 735.126,1013.13 741.449,1047.4 747.772,1077.22 754.094,1102.18 760.417,1121.93 766.739,1136.21 773.062,1144.82 
  779.385,1147.64 785.214,1145.07 791.042,1137.58 796.871,1125.25 802.7,1108.23 808.529,1086.71 814.358,1060.95 820.187,1031.24 826.016,997.95 837.674,922.18 
  849.331,837.174 860.989,746.903 872.647,655.581 885.145,561.356 897.644,475.878 903.893,437.878 910.142,403.734 916.391,373.905 922.64,348.792 928.89,328.734 
  935.139,314.001 941.388,304.791 947.637,301.227 953.886,303.358 960.136,311.155 966.385,324.514 972.634,343.253 979.874,371.359 987.115,405.839 994.355,446.072 
  1001.6,491.33 1016.08,593.58 1030.56,705.237 1045.04,818.273 1059.52,924.56 1066.76,972.75 1074,1016.46 1081.24,1054.89 1088.48,1087.35 1094.91,1110.72 
  1101.35,1128.58 1107.78,1140.67 1114.22,1146.82 1120.65,1146.95 1127.08,1141.05 1133.52,1129.21 1139.95,1111.59 1146.39,1088.45 1152.82,1060.11 1159.26,1026.99 
  1165.69,989.552 1178.56,903.916 1191.43,808.073 1202.71,719.922 1214,631.967 1225.28,548.058 1236.57,471.868 1242.21,437.727 1247.85,406.731 1253.49,379.221 
  1259.14,355.499 1264.78,335.825 1270.42,320.414 1276.06,309.437 1281.71,303.012 1287.86,301.277 1294.01,305.061 1300.16,314.312 1306.31,328.912 1312.46,348.669 
  1318.62,373.326 1324.77,402.561 1330.92,435.993 1343.22,513.656 1355.52,602.277 1367.83,697.247 1380.13,793.63 1392.51,886.945 1404.88,971.709 1411.07,1009.47 
  1417.26,1043.46 1423.45,1073.25 1429.64,1098.43 1435.83,1118.68 1442.01,1133.73 1448.2,1143.37 1454.39,1147.48 1460.58,1146.02 1466.77,1138.99 1472.95,1126.48 
  1479.14,1108.68 1485.98,1083.1 1492.83,1051.74 1499.67,1015.09 1506.51,973.765 1520.19,879.774 1533.88,775.801 1547.56,668.527 1561.25,564.843 1568.09,516.45 
  1574.93,471.411 1581.77,430.452 1588.61,394.234 1595.12,364.708 1601.63,340.435 1608.14,321.768 1614.65,308.981 1621.16,302.259 1627.67,301.702 1634.18,307.316 
  1640.69,319.021 1647.2,336.645 1653.71,359.931 1660.22,388.539 1666.73,422.051 1673.24,459.978 1679.75,501.766 1686.26,546.806 1692.77,594.438 1706.31,698.734 
  1719.85,804.645 1733.38,905.511 1746.92,994.987 1753.69,1033.66 1760.46,1067.45 1767.23,1095.82 1774,1118.34 1780.76,1134.63 1787.53,1144.45 1794.3,1147.64 
  1801.07,1144.15 1806.77,1136.07 1812.47,1123.38 1818.16,1106.23 1823.86,1084.81 1829.56,1059.36 1835.26,1030.16 1840.95,997.533 1846.65,961.853 1858.05,882.953 
  1869.44,796.978 1880.84,707.763 1892.24,619.292 1899.19,567.346 1906.15,518.018 1913.1,472.131 1920.06,430.45 1927.02,393.669 1933.97,362.402 1940.93,337.17 
  1947.89,318.393 1954.84,306.385 1961.8,301.345 1968.76,303.358 1975.71,312.391 1982.67,328.292 1989.63,350.796 1996.58,379.529 2003.54,414.011 2010.08,451.155 
  2016.62,492.326 2023.16,536.915 2029.69,584.267 2042.77,684.438 2055.85,786.956 2068.93,885.801 2082.01,975.17 2088.55,1014.63 2095.09,1049.82 2101.63,1080.21 
  2108.17,1105.36 2113.4,1121.47 2118.64,1133.82 2123.88,1142.31 2129.12,1146.84 2134.36,1147.37 2139.59,1143.91 2144.83,1136.48 2150.07,1125.15 2155.31,1110.03 
  2160.55,1091.26 2165.79,1069.03 2171.02,1043.53 2176.26,1015.02 2181.5,983.754 2186.74,950.038 2191.98,914.189 2212.93,756.468 2233.88,593.953 2244.36,518.566 
  2254.83,450.948 2260.07,420.864 2265.31,393.651 2270.55,369.566 2275.79,348.838 2282.24,328.214 2288.69,313.269 2295.13,304.215 2301.58,301.182 
  "/>
<path clip-path="url(#clip800)" d="
M1834.43 319.189 L2281.69 319.189 L2281.69 92.3886 L1834.43 92.3886  Z
  " fill="#ffffff" fill-rule="evenodd" fill-opacity="1"/>
<polyline clip-path="url(#clip800)" style="stroke:#000000; stroke-linecap:butt; stroke-linejoin:round; stroke-width:4; stroke-opacity:1; fill:none" points="
  1834.43,319.189 2281.69,319.189 2281.69,92.3886 1834.43,92.3886 1834.43,319.189 
  "/>
<polyline clip-path="url(#clip800)" style="stroke:#ff0000; stroke-linecap:butt; stroke-linejoin:round; stroke-width:5; stroke-opacity:1; fill:none" points="
  1858.12,167.989 2000.26,167.989 
  "/>
<circle clip-path="url(#clip800)" cx="1929.19" cy="167.989" r="28" fill="#ff0000" fill-rule="evenodd" fill-opacity="1" stroke="#000000" stroke-opacity="1" stroke-width="3.2"/>
<path clip-path="url(#clip800)" d="M2049.59 158.426 L2049.59 163.402 Q2047.33 162.158 2045.04 161.551 Q2042.79 160.914 2040.47 160.914 Q2035.29 160.914 2032.43 164.213 Q2029.56 167.482 2029.56 173.414 Q2029.56 179.346 2032.43 182.644 Q2035.29 185.914 2040.47 185.914 Q2042.79 185.914 2045.04 185.306 Q2047.33 184.67 2049.59 183.425 L2049.59 188.344 Q2047.36 189.386 2044.96 189.907 Q2042.58 190.428 2039.89 190.428 Q2032.57 190.428 2028.26 185.827 Q2023.95 181.226 2023.95 173.414 Q2023.95 165.486 2028.29 160.943 Q2032.66 156.4 2040.24 156.4 Q2042.7 156.4 2045.04 156.921 Q2047.39 157.413 2049.59 158.426 Z" fill="#000000" fill-rule="evenodd" fill-opacity="1" /><path clip-path="url(#clip800)" d="M2071.4 160.914 Q2067.12 160.914 2064.63 164.27 Q2062.14 167.598 2062.14 173.414 Q2062.14 179.23 2064.6 182.586 Q2067.09 185.914 2071.4 185.914 Q2075.66 185.914 2078.14 182.557 Q2080.63 179.201 2080.63 173.414 Q2080.63 167.656 2078.14 164.299 Q2075.66 160.914 2071.4 160.914 M2071.4 156.4 Q2078.35 156.4 2082.31 160.914 Q2086.28 165.428 2086.28 173.414 Q2086.28 181.371 2082.31 185.914 Q2078.35 190.428 2071.4 190.428 Q2064.43 190.428 2060.47 185.914 Q2056.53 181.371 2056.53 173.414 Q2056.53 165.428 2060.47 160.914 Q2064.43 156.4 2071.4 156.4 Z" fill="#000000" fill-rule="evenodd" fill-opacity="1" /><path clip-path="url(#clip800)" d="M2115.76 158.136 L2115.76 163.171 Q2113.5 162.014 2111.07 161.435 Q2108.64 160.856 2106.04 160.856 Q2102.07 160.856 2100.08 162.071 Q2098.11 163.287 2098.11 165.717 Q2098.11 167.569 2099.53 168.64 Q2100.95 169.681 2105.23 170.636 L2107.05 171.041 Q2112.72 172.257 2115.09 174.485 Q2117.5 176.684 2117.5 180.648 Q2117.5 185.162 2113.91 187.795 Q2110.35 190.428 2104.1 190.428 Q2101.5 190.428 2098.66 189.907 Q2095.85 189.415 2092.73 188.402 L2092.73 182.905 Q2095.68 184.438 2098.54 185.219 Q2101.41 185.972 2104.21 185.972 Q2107.98 185.972 2110 184.699 Q2112.03 183.397 2112.03 181.053 Q2112.03 178.883 2110.55 177.725 Q2109.1 176.568 2104.16 175.497 L2102.31 175.063 Q2097.36 174.022 2095.16 171.88 Q2092.96 169.71 2092.96 165.949 Q2092.96 161.377 2096.2 158.889 Q2099.44 156.4 2105.4 156.4 Q2108.35 156.4 2110.96 156.834 Q2113.56 157.268 2115.76 158.136 Z" fill="#000000" fill-rule="evenodd" fill-opacity="1" /><path clip-path="url(#clip800)" d="M2138.76 144.624 Q2134.89 151.279 2133.01 157.789 Q2131.12 164.299 2131.12 170.983 Q2131.12 177.667 2133.01 184.236 Q2134.91 190.775 2138.76 197.401 L2134.13 197.401 Q2129.79 190.601 2127.62 184.033 Q2125.48 177.465 2125.48 170.983 Q2125.48 164.531 2127.62 157.992 Q2129.76 151.452 2134.13 144.624 L2138.76 144.624 Z" fill="#000000" fill-rule="evenodd" fill-opacity="1" /><path clip-path="url(#clip800)" d="M2165.9 151.481 L2151.15 174.542 L2165.9 174.542 L2165.9 151.481 M2164.37 146.389 L2171.72 146.389 L2171.72 174.542 L2177.88 174.542 L2177.88 179.403 L2171.72 179.403 L2171.72 189.589 L2165.9 189.589 L2165.9 179.403 L2146.4 179.403 L2146.4 173.761 L2164.37 146.389 Z" fill="#000000" fill-rule="evenodd" fill-opacity="1" /><path clip-path="url(#clip800)" d="M2213.73 157.181 L2202.02 172.951 L2214.34 189.589 L2208.06 189.589 L2198.63 176.857 L2189.2 189.589 L2182.92 189.589 L2195.5 172.633 L2183.99 157.181 L2190.27 157.181 L2198.86 168.726 L2207.46 157.181 L2213.73 157.181 Z" fill="#000000" fill-rule="evenodd" fill-opacity="1" /><path clip-path="url(#clip800)" d="M2221.03 144.624 L2225.66 144.624 Q2230 151.452 2232.14 157.992 Q2234.31 164.531 2234.31 170.983 Q2234.31 177.465 2232.14 184.033 Q2230 190.601 2225.66 197.401 L2221.03 197.401 Q2224.87 190.775 2226.75 184.236 Q2228.66 177.667 2228.66 170.983 Q2228.66 164.299 2226.75 157.789 Q2224.87 151.279 2221.03 144.624 Z" fill="#000000" fill-rule="evenodd" fill-opacity="1" /><polyline clip-path="url(#clip800)" style="stroke:#0000ff; stroke-linecap:butt; stroke-linejoin:round; stroke-width:5; stroke-opacity:0.8; fill:none" points="
  1858.12,243.589 2000.26,243.589 
  "/>
<path clip-path="url(#clip800)" d="M1929.19 211.589 L1921.67 233.221 L1898.76 233.701 L1917.03 247.557 L1910.37 269.477 L1929.19 256.389 L1948.01 269.477 L1941.35 247.557 L1959.62 233.701 L1936.71 233.221 L1929.19 211.589 Z" fill="#0000ff" fill-rule="evenodd" fill-opacity="0.8" stroke="#000000" stroke-opacity="0.8" stroke-width="3.01176"/>
<path clip-path="url(#clip800)" d="M2049.59 234.026 L2049.59 239.002 Q2047.33 237.758 2045.04 237.151 Q2042.79 236.514 2040.47 236.514 Q2035.29 236.514 2032.43 239.813 Q2029.56 243.082 2029.56 249.014 Q2029.56 254.946 2032.43 258.244 Q2035.29 261.514 2040.47 261.514 Q2042.79 261.514 2045.04 260.906 Q2047.33 260.27 2049.59 259.025 L2049.59 263.944 Q2047.36 264.986 2044.96 265.507 Q2042.58 266.028 2039.89 266.028 Q2032.57 266.028 2028.26 261.427 Q2023.95 256.826 2023.95 249.014 Q2023.95 241.086 2028.29 236.543 Q2032.66 232 2040.24 232 Q2042.7 232 2045.04 232.521 Q2047.39 233.013 2049.59 234.026 Z" fill="#000000" fill-rule="evenodd" fill-opacity="1" /><path clip-path="url(#clip800)" d="M2071.4 236.514 Q2067.12 236.514 2064.63 239.87 Q2062.14 243.198 2062.14 249.014 Q2062.14 254.83 2064.6 258.186 Q2067.09 261.514 2071.4 261.514 Q2075.66 261.514 2078.14 258.157 Q2080.63 254.801 2080.63 249.014 Q2080.63 243.256 2078.14 239.899 Q2075.66 236.514 2071.4 236.514 M2071.4 232 Q2078.35 232 2082.31 236.514 Q2086.28 241.028 2086.28 249.014 Q2086.28 256.971 2082.31 261.514 Q2078.35 266.028 2071.4 266.028 Q2064.43 266.028 2060.47 261.514 Q2056.53 256.971 2056.53 249.014 Q2056.53 241.028 2060.47 236.514 Q2064.43 232 2071.4 232 Z" fill="#000000" fill-rule="evenodd" fill-opacity="1" /><path clip-path="url(#clip800)" d="M2115.76 233.736 L2115.76 238.771 Q2113.5 237.614 2111.07 237.035 Q2108.64 236.456 2106.04 236.456 Q2102.07 236.456 2100.08 237.671 Q2098.11 238.887 2098.11 241.317 Q2098.11 243.169 2099.53 244.24 Q2100.95 245.281 2105.23 246.236 L2107.05 246.641 Q2112.72 247.857 2115.09 250.085 Q2117.5 252.284 2117.5 256.248 Q2117.5 260.762 2113.91 263.395 Q2110.35 266.028 2104.1 266.028 Q2101.5 266.028 2098.66 265.507 Q2095.85 265.015 2092.73 264.002 L2092.73 258.505 Q2095.68 260.038 2098.54 260.819 Q2101.41 261.572 2104.21 261.572 Q2107.98 261.572 2110 260.299 Q2112.03 258.997 2112.03 256.653 Q2112.03 254.483 2110.55 253.325 Q2109.1 252.168 2104.16 251.097 L2102.31 250.663 Q2097.36 249.622 2095.16 247.48 Q2092.96 245.31 2092.96 241.549 Q2092.96 236.977 2096.2 234.489 Q2099.44 232 2105.4 232 Q2108.35 232 2110.96 232.434 Q2113.56 232.868 2115.76 233.736 Z" fill="#000000" fill-rule="evenodd" fill-opacity="1" /><path clip-path="url(#clip800)" d="M2138.76 220.224 Q2134.89 226.879 2133.01 233.389 Q2131.12 239.899 2131.12 246.583 Q2131.12 253.267 2133.01 259.836 Q2134.91 266.375 2138.76 273.001 L2134.13 273.001 Q2129.79 266.201 2127.62 259.633 Q2125.48 253.065 2125.48 246.583 Q2125.48 240.131 2127.62 233.592 Q2129.76 227.052 2134.13 220.224 L2138.76 220.224 Z" fill="#000000" fill-rule="evenodd" fill-opacity="1" /><path clip-path="url(#clip800)" d="M2163.07 241.259 Q2159.13 241.259 2156.82 243.95 Q2154.53 246.641 2154.53 251.329 Q2154.53 255.987 2156.82 258.707 Q2159.13 261.398 2163.07 261.398 Q2167 261.398 2169.29 258.707 Q2171.6 255.987 2171.6 251.329 Q2171.6 246.641 2169.29 243.95 Q2167 241.259 2163.07 241.259 M2174.67 222.943 L2174.67 228.268 Q2172.47 227.226 2170.22 226.676 Q2167.99 226.126 2165.79 226.126 Q2160 226.126 2156.93 230.033 Q2153.9 233.939 2153.46 241.838 Q2155.17 239.321 2157.74 237.99 Q2160.32 236.63 2163.42 236.63 Q2169.93 236.63 2173.69 240.594 Q2177.48 244.529 2177.48 251.329 Q2177.48 257.984 2173.54 262.006 Q2169.61 266.028 2163.07 266.028 Q2155.57 266.028 2151.61 260.299 Q2147.65 254.541 2147.65 243.632 Q2147.65 233.389 2152.51 227.313 Q2157.37 221.207 2165.56 221.207 Q2167.76 221.207 2169.98 221.641 Q2172.24 222.075 2174.67 222.943 Z" fill="#000000" fill-rule="evenodd" fill-opacity="1" /><path clip-path="url(#clip800)" d="M2213.73 232.781 L2202.02 248.551 L2214.34 265.189 L2208.06 265.189 L2198.63 252.457 L2189.2 265.189 L2182.92 265.189 L2195.5 248.233 L2183.99 232.781 L2190.27 232.781 L2198.86 244.326 L2207.46 232.781 L2213.73 232.781 Z" fill="#000000" fill-rule="evenodd" fill-opacity="1" /><path clip-path="url(#clip800)" d="M2221.03 220.224 L2225.66 220.224 Q2230 227.052 2232.14 233.592 Q2234.31 240.131 2234.31 246.583 Q2234.31 253.065 2232.14 259.633 Q2230 266.201 2225.66 273.001 L2221.03 273.001 Q2224.87 266.375 2226.75 259.836 Q2228.66 253.267 2228.66 246.583 Q2228.66 239.899 2226.75 233.389 Q2224.87 226.879 2221.03 220.224 Z" fill="#000000" fill-rule="evenodd" fill-opacity="1" /></svg>
