<?xml version="1.0" encoding="utf-8"?>
<svg xmlns="http://www.w3.org/2000/svg" xmlns:xlink="http://www.w3.org/1999/xlink" width="600" height="400" viewBox="0 0 2400 1600">
<defs>
  <clipPath id="clip030">
    <rect x="0" y="0" width="2400" height="1600"/>
  </clipPath>
</defs>
<path clip-path="url(#clip030)" d="
M0 1600 L2400 1600 L2400 0 L0 0  Z
  " fill="#ffffff" fill-rule="evenodd" fill-opacity="1"/>
<defs>
  <clipPath id="clip031">
    <rect x="480" y="0" width="1681" height="1600"/>
  </clipPath>
</defs>
<path clip-path="url(#clip030)" d="
M258.374 1401.58 L2352.76 1401.58 L2352.76 47.2441 L258.374 47.2441  Z
  " fill="#ffffff" fill-rule="evenodd" fill-opacity="1"/>
<defs>
  <clipPath id="clip032">
    <rect x="258" y="47" width="2095" height="1355"/>
  </clipPath>
</defs>
<polyline clip-path="url(#clip032)" style="stroke:#000000; stroke-linecap:butt; stroke-linejoin:round; stroke-width:2; stroke-opacity:0.1; fill:none" points="
  353.573,1401.58 353.573,47.2441 
  "/>
<polyline clip-path="url(#clip032)" style="stroke:#000000; stroke-linecap:butt; stroke-linejoin:round; stroke-width:2; stroke-opacity:0.1; fill:none" points="
  543.972,1401.58 543.972,47.2441 
  "/>
<polyline clip-path="url(#clip032)" style="stroke:#000000; stroke-linecap:butt; stroke-linejoin:round; stroke-width:2; stroke-opacity:0.1; fill:none" points="
  734.37,1401.58 734.37,47.2441 
  "/>
<polyline clip-path="url(#clip032)" style="stroke:#000000; stroke-linecap:butt; stroke-linejoin:round; stroke-width:2; stroke-opacity:0.1; fill:none" points="
  924.768,1401.58 924.768,47.2441 
  "/>
<polyline clip-path="url(#clip032)" style="stroke:#000000; stroke-linecap:butt; stroke-linejoin:round; stroke-width:2; stroke-opacity:0.1; fill:none" points="
  1115.17,1401.58 1115.17,47.2441 
  "/>
<polyline clip-path="url(#clip032)" style="stroke:#000000; stroke-linecap:butt; stroke-linejoin:round; stroke-width:2; stroke-opacity:0.1; fill:none" points="
  1305.57,1401.58 1305.57,47.2441 
  "/>
<polyline clip-path="url(#clip032)" style="stroke:#000000; stroke-linecap:butt; stroke-linejoin:round; stroke-width:2; stroke-opacity:0.1; fill:none" points="
  1495.96,1401.58 1495.96,47.2441 
  "/>
<polyline clip-path="url(#clip032)" style="stroke:#000000; stroke-linecap:butt; stroke-linejoin:round; stroke-width:2; stroke-opacity:0.1; fill:none" points="
  1686.36,1401.58 1686.36,47.2441 
  "/>
<polyline clip-path="url(#clip032)" style="stroke:#000000; stroke-linecap:butt; stroke-linejoin:round; stroke-width:2; stroke-opacity:0.1; fill:none" points="
  1876.76,1401.58 1876.76,47.2441 
  "/>
<polyline clip-path="url(#clip032)" style="stroke:#000000; stroke-linecap:butt; stroke-linejoin:round; stroke-width:2; stroke-opacity:0.1; fill:none" points="
  2067.16,1401.58 2067.16,47.2441 
  "/>
<polyline clip-path="url(#clip032)" style="stroke:#000000; stroke-linecap:butt; stroke-linejoin:round; stroke-width:2; stroke-opacity:0.1; fill:none" points="
  2257.56,1401.58 2257.56,47.2441 
  "/>
<polyline clip-path="url(#clip030)" style="stroke:#000000; stroke-linecap:butt; stroke-linejoin:round; stroke-width:4; stroke-opacity:1; fill:none" points="
  258.374,1401.58 2352.76,1401.58 
  "/>
<polyline clip-path="url(#clip030)" style="stroke:#000000; stroke-linecap:butt; stroke-linejoin:round; stroke-width:4; stroke-opacity:1; fill:none" points="
  353.573,1401.58 353.573,1382.68 
  "/>
<polyline clip-path="url(#clip030)" style="stroke:#000000; stroke-linecap:butt; stroke-linejoin:round; stroke-width:4; stroke-opacity:1; fill:none" points="
  543.972,1401.58 543.972,1382.68 
  "/>
<polyline clip-path="url(#clip030)" style="stroke:#000000; stroke-linecap:butt; stroke-linejoin:round; stroke-width:4; stroke-opacity:1; fill:none" points="
  734.37,1401.58 734.37,1382.68 
  "/>
<polyline clip-path="url(#clip030)" style="stroke:#000000; stroke-linecap:butt; stroke-linejoin:round; stroke-width:4; stroke-opacity:1; fill:none" points="
  924.768,1401.58 924.768,1382.68 
  "/>
<polyline clip-path="url(#clip030)" style="stroke:#000000; stroke-linecap:butt; stroke-linejoin:round; stroke-width:4; stroke-opacity:1; fill:none" points="
  1115.17,1401.58 1115.17,1382.68 
  "/>
<polyline clip-path="url(#clip030)" style="stroke:#000000; stroke-linecap:butt; stroke-linejoin:round; stroke-width:4; stroke-opacity:1; fill:none" points="
  1305.57,1401.58 1305.57,1382.68 
  "/>
<polyline clip-path="url(#clip030)" style="stroke:#000000; stroke-linecap:butt; stroke-linejoin:round; stroke-width:4; stroke-opacity:1; fill:none" points="
  1495.96,1401.58 1495.96,1382.68 
  "/>
<polyline clip-path="url(#clip030)" style="stroke:#000000; stroke-linecap:butt; stroke-linejoin:round; stroke-width:4; stroke-opacity:1; fill:none" points="
  1686.36,1401.58 1686.36,1382.68 
  "/>
<polyline clip-path="url(#clip030)" style="stroke:#000000; stroke-linecap:butt; stroke-linejoin:round; stroke-width:4; stroke-opacity:1; fill:none" points="
  1876.76,1401.58 1876.76,1382.68 
  "/>
<polyline clip-path="url(#clip030)" style="stroke:#000000; stroke-linecap:butt; stroke-linejoin:round; stroke-width:4; stroke-opacity:1; fill:none" points="
  2067.16,1401.58 2067.16,1382.68 
  "/>
<polyline clip-path="url(#clip030)" style="stroke:#000000; stroke-linecap:butt; stroke-linejoin:round; stroke-width:4; stroke-opacity:1; fill:none" points="
  2257.56,1401.58 2257.56,1382.68 
  "/>
<path clip-path="url(#clip030)" d="M353.573 1435.43 Q349.06 1435.43 346.774 1439.88 Q344.517 1444.31 344.517 1453.22 Q344.517 1462.11 346.774 1466.56 Q349.06 1470.99 353.573 1470.99 Q358.116 1470.99 360.373 1466.56 Q362.659 1462.11 362.659 1453.22 Q362.659 1444.31 360.373 1439.88 Q358.116 1435.43 353.573 1435.43 M353.573 1430.8 Q360.836 1430.8 364.656 1436.56 Q368.504 1442.29 368.504 1453.22 Q368.504 1464.13 364.656 1469.89 Q360.836 1475.62 353.573 1475.62 Q346.311 1475.62 342.462 1469.89 Q338.643 1464.13 338.643 1453.22 Q338.643 1442.29 342.462 1436.56 Q346.311 1430.8 353.573 1430.8 Z" fill="#000000" fill-rule="evenodd" fill-opacity="1" /><path clip-path="url(#clip030)" d="M531.949 1469.86 L541.498 1469.86 L541.498 1436.9 L531.11 1438.99 L531.11 1433.66 L541.44 1431.58 L547.285 1431.58 L547.285 1469.86 L556.833 1469.86 L556.833 1474.78 L531.949 1474.78 L531.949 1469.86 Z" fill="#000000" fill-rule="evenodd" fill-opacity="1" /><path clip-path="url(#clip030)" d="M727.686 1469.86 L748.085 1469.86 L748.085 1474.78 L720.655 1474.78 L720.655 1469.86 Q723.982 1466.42 729.712 1460.63 Q735.47 1454.81 736.945 1453.14 Q739.752 1449.98 740.852 1447.81 Q741.98 1445.61 741.98 1443.5 Q741.98 1440.06 739.549 1437.89 Q737.148 1435.72 733.271 1435.72 Q730.522 1435.72 727.455 1436.67 Q724.416 1437.63 720.944 1439.57 L720.944 1433.66 Q724.474 1432.25 727.541 1431.52 Q730.609 1430.8 733.155 1430.8 Q739.868 1430.8 743.861 1434.16 Q747.854 1437.51 747.854 1443.12 Q747.854 1445.79 746.841 1448.19 Q745.857 1450.56 743.224 1453.8 Q742.501 1454.64 738.624 1458.66 Q734.746 1462.66 727.686 1469.86 Z" fill="#000000" fill-rule="evenodd" fill-opacity="1" /><path clip-path="url(#clip030)" d="M930.078 1451.49 Q934.274 1452.38 936.617 1455.22 Q938.99 1458.06 938.99 1462.22 Q938.99 1468.62 934.592 1472.12 Q930.194 1475.62 922.092 1475.62 Q919.372 1475.62 916.479 1475.07 Q913.614 1474.55 910.547 1473.48 L910.547 1467.84 Q912.977 1469.25 915.871 1469.98 Q918.764 1470.7 921.918 1470.7 Q927.416 1470.7 930.281 1468.53 Q933.174 1466.36 933.174 1462.22 Q933.174 1458.4 930.483 1456.26 Q927.821 1454.09 923.047 1454.09 L918.012 1454.09 L918.012 1449.29 L923.278 1449.29 Q927.59 1449.29 929.875 1447.58 Q932.161 1445.84 932.161 1442.6 Q932.161 1439.28 929.789 1437.51 Q927.445 1435.72 923.047 1435.72 Q920.645 1435.72 917.896 1436.24 Q915.148 1436.76 911.849 1437.86 L911.849 1432.65 Q915.176 1431.72 918.07 1431.26 Q920.992 1430.8 923.568 1430.8 Q930.223 1430.8 934.1 1433.84 Q937.977 1436.85 937.977 1442 Q937.977 1445.58 935.923 1448.07 Q933.869 1450.53 930.078 1451.49 Z" fill="#000000" fill-rule="evenodd" fill-opacity="1" /><path clip-path="url(#clip030)" d="M1118.93 1436.67 L1104.17 1459.73 L1118.93 1459.73 L1118.93 1436.67 M1117.39 1431.58 L1124.74 1431.58 L1124.74 1459.73 L1130.91 1459.73 L1130.91 1464.59 L1124.74 1464.59 L1124.74 1474.78 L1118.93 1474.78 L1118.93 1464.59 L1099.43 1464.59 L1099.43 1458.95 L1117.39 1431.58 Z" fill="#000000" fill-rule="evenodd" fill-opacity="1" /><path clip-path="url(#clip030)" d="M1293.41 1431.58 L1316.36 1431.58 L1316.36 1436.5 L1298.77 1436.5 L1298.77 1447.09 Q1300.04 1446.65 1301.31 1446.45 Q1302.58 1446.22 1303.86 1446.22 Q1311.09 1446.22 1315.32 1450.19 Q1319.54 1454.15 1319.54 1460.92 Q1319.54 1467.89 1315.2 1471.77 Q1310.86 1475.62 1302.96 1475.62 Q1300.24 1475.62 1297.41 1475.16 Q1294.6 1474.69 1291.59 1473.77 L1291.59 1467.89 Q1294.19 1469.31 1296.97 1470.01 Q1299.75 1470.7 1302.85 1470.7 Q1307.85 1470.7 1310.77 1468.07 Q1313.7 1465.43 1313.7 1460.92 Q1313.7 1456.41 1310.77 1453.77 Q1307.85 1451.14 1302.85 1451.14 Q1300.5 1451.14 1298.16 1451.66 Q1295.84 1452.18 1293.41 1453.28 L1293.41 1431.58 Z" fill="#000000" fill-rule="evenodd" fill-opacity="1" /><path clip-path="url(#clip030)" d="M1496.47 1450.85 Q1492.53 1450.85 1490.22 1453.54 Q1487.93 1456.23 1487.93 1460.92 Q1487.93 1465.58 1490.22 1468.3 Q1492.53 1470.99 1496.47 1470.99 Q1500.4 1470.99 1502.69 1468.3 Q1505.01 1465.58 1505.01 1460.92 Q1505.01 1456.23 1502.69 1453.54 Q1500.4 1450.85 1496.47 1450.85 M1508.07 1432.53 L1508.07 1437.86 Q1505.87 1436.82 1503.62 1436.27 Q1501.39 1435.72 1499.19 1435.72 Q1493.4 1435.72 1490.34 1439.62 Q1487.3 1443.53 1486.86 1451.43 Q1488.57 1448.91 1491.15 1447.58 Q1493.72 1446.22 1496.82 1446.22 Q1503.33 1446.22 1507.09 1450.19 Q1510.88 1454.12 1510.88 1460.92 Q1510.88 1467.58 1506.94 1471.6 Q1503.01 1475.62 1496.47 1475.62 Q1488.98 1475.62 1485.01 1469.89 Q1481.05 1464.13 1481.05 1453.22 Q1481.05 1442.98 1485.91 1436.9 Q1490.77 1430.8 1498.96 1430.8 Q1501.16 1430.8 1503.39 1431.23 Q1505.64 1431.67 1508.07 1432.53 Z" fill="#000000" fill-rule="evenodd" fill-opacity="1" /><path clip-path="url(#clip030)" d="M1672.47 1431.58 L1700.25 1431.58 L1700.25 1434.07 L1684.57 1474.78 L1678.46 1474.78 L1693.22 1436.5 L1672.47 1436.5 L1672.47 1431.58 Z" fill="#000000" fill-rule="evenodd" fill-opacity="1" /><path clip-path="url(#clip030)" d="M1876.76 1454.26 Q1872.59 1454.26 1870.19 1456.49 Q1867.82 1458.72 1867.82 1462.63 Q1867.82 1466.53 1870.19 1468.76 Q1872.59 1470.99 1876.76 1470.99 Q1880.93 1470.99 1883.33 1468.76 Q1885.73 1466.5 1885.73 1462.63 Q1885.73 1458.72 1883.33 1456.49 Q1880.96 1454.26 1876.76 1454.26 M1870.92 1451.78 Q1867.15 1450.85 1865.04 1448.28 Q1862.96 1445.7 1862.96 1442 Q1862.96 1436.82 1866.63 1433.81 Q1870.34 1430.8 1876.76 1430.8 Q1883.21 1430.8 1886.89 1433.81 Q1890.56 1436.82 1890.56 1442 Q1890.56 1445.7 1888.45 1448.28 Q1886.37 1450.85 1882.63 1451.78 Q1886.86 1452.76 1889.2 1455.62 Q1891.57 1458.49 1891.57 1462.63 Q1891.57 1468.91 1887.73 1472.26 Q1883.91 1475.62 1876.76 1475.62 Q1869.61 1475.62 1865.76 1472.26 Q1861.95 1468.91 1861.95 1462.63 Q1861.95 1458.49 1864.32 1455.62 Q1866.69 1452.76 1870.92 1451.78 M1868.77 1442.55 Q1868.77 1445.9 1870.86 1447.78 Q1872.97 1449.66 1876.76 1449.66 Q1880.52 1449.66 1882.63 1447.78 Q1884.78 1445.9 1884.78 1442.55 Q1884.78 1439.19 1882.63 1437.31 Q1880.52 1435.43 1876.76 1435.43 Q1872.97 1435.43 1870.86 1437.31 Q1868.77 1439.19 1868.77 1442.55 Z" fill="#000000" fill-rule="evenodd" fill-opacity="1" /><path clip-path="url(#clip030)" d="M2055.03 1473.88 L2055.03 1468.56 Q2057.23 1469.6 2059.49 1470.15 Q2061.75 1470.7 2063.92 1470.7 Q2069.7 1470.7 2072.74 1466.82 Q2075.81 1462.92 2076.24 1454.99 Q2074.57 1457.48 2071.99 1458.81 Q2069.42 1460.14 2066.29 1460.14 Q2059.81 1460.14 2056.02 1456.23 Q2052.26 1452.3 2052.26 1445.5 Q2052.26 1438.84 2056.19 1434.82 Q2060.13 1430.8 2066.67 1430.8 Q2074.16 1430.8 2078.1 1436.56 Q2082.06 1442.29 2082.06 1453.22 Q2082.06 1463.44 2077.2 1469.54 Q2072.37 1475.62 2064.18 1475.62 Q2061.98 1475.62 2059.72 1475.18 Q2057.47 1474.75 2055.03 1473.88 M2066.67 1455.57 Q2070.6 1455.57 2072.89 1452.88 Q2075.2 1450.19 2075.2 1445.5 Q2075.2 1440.84 2072.89 1438.15 Q2070.6 1435.43 2066.67 1435.43 Q2062.73 1435.43 2060.42 1438.15 Q2058.13 1440.84 2058.13 1445.5 Q2058.13 1450.19 2060.42 1452.88 Q2062.73 1455.57 2066.67 1455.57 Z" fill="#000000" fill-rule="evenodd" fill-opacity="1" /><path clip-path="url(#clip030)" d="M2225.92 1469.86 L2235.46 1469.86 L2235.46 1436.9 L2225.08 1438.99 L2225.08 1433.66 L2235.41 1431.58 L2241.25 1431.58 L2241.25 1469.86 L2250.8 1469.86 L2250.8 1474.78 L2225.92 1474.78 L2225.92 1469.86 Z" fill="#000000" fill-rule="evenodd" fill-opacity="1" /><path clip-path="url(#clip030)" d="M2275.11 1435.43 Q2270.59 1435.43 2268.31 1439.88 Q2266.05 1444.31 2266.05 1453.22 Q2266.05 1462.11 2268.31 1466.56 Q2270.59 1470.99 2275.11 1470.99 Q2279.65 1470.99 2281.91 1466.56 Q2284.19 1462.11 2284.19 1453.22 Q2284.19 1444.31 2281.91 1439.88 Q2279.65 1435.43 2275.11 1435.43 M2275.11 1430.8 Q2282.37 1430.8 2286.19 1436.56 Q2290.04 1442.29 2290.04 1453.22 Q2290.04 1464.13 2286.19 1469.89 Q2282.37 1475.62 2275.11 1475.62 Q2267.84 1475.62 2263.99 1469.89 Q2260.18 1464.13 2260.18 1453.22 Q2260.18 1442.29 2263.99 1436.56 Q2267.84 1430.8 2275.11 1430.8 Z" fill="#000000" fill-rule="evenodd" fill-opacity="1" /><path clip-path="url(#clip030)" d="M1285.43 1511.92 L1292.93 1511.92 L1292.93 1549.15 L1315.17 1529.59 L1324.69 1529.59 L1300.62 1550.81 L1325.7 1574.96 L1315.98 1574.96 L1292.93 1552.8 L1292.93 1574.96 L1285.43 1574.96 L1285.43 1511.92 Z" fill="#000000" fill-rule="evenodd" fill-opacity="1" /><polyline clip-path="url(#clip032)" style="stroke:#000000; stroke-linecap:butt; stroke-linejoin:round; stroke-width:2; stroke-opacity:0.1; fill:none" points="
  258.374,1340.02 2352.76,1340.02 
  "/>
<polyline clip-path="url(#clip032)" style="stroke:#000000; stroke-linecap:butt; stroke-linejoin:round; stroke-width:2; stroke-opacity:0.1; fill:none" points="
  258.374,1032.22 2352.76,1032.22 
  "/>
<polyline clip-path="url(#clip032)" style="stroke:#000000; stroke-linecap:butt; stroke-linejoin:round; stroke-width:2; stroke-opacity:0.1; fill:none" points="
  258.374,724.412 2352.76,724.412 
  "/>
<polyline clip-path="url(#clip032)" style="stroke:#000000; stroke-linecap:butt; stroke-linejoin:round; stroke-width:2; stroke-opacity:0.1; fill:none" points="
  258.374,416.608 2352.76,416.608 
  "/>
<polyline clip-path="url(#clip032)" style="stroke:#000000; stroke-linecap:butt; stroke-linejoin:round; stroke-width:2; stroke-opacity:0.1; fill:none" points="
  258.374,108.805 2352.76,108.805 
  "/>
<polyline clip-path="url(#clip030)" style="stroke:#000000; stroke-linecap:butt; stroke-linejoin:round; stroke-width:4; stroke-opacity:1; fill:none" points="
  258.374,1401.58 258.374,47.2441 
  "/>
<polyline clip-path="url(#clip030)" style="stroke:#000000; stroke-linecap:butt; stroke-linejoin:round; stroke-width:4; stroke-opacity:1; fill:none" points="
  258.374,1340.02 277.272,1340.02 
  "/>
<polyline clip-path="url(#clip030)" style="stroke:#000000; stroke-linecap:butt; stroke-linejoin:round; stroke-width:4; stroke-opacity:1; fill:none" points="
  258.374,1032.22 277.272,1032.22 
  "/>
<polyline clip-path="url(#clip030)" style="stroke:#000000; stroke-linecap:butt; stroke-linejoin:round; stroke-width:4; stroke-opacity:1; fill:none" points="
  258.374,724.412 277.272,724.412 
  "/>
<polyline clip-path="url(#clip030)" style="stroke:#000000; stroke-linecap:butt; stroke-linejoin:round; stroke-width:4; stroke-opacity:1; fill:none" points="
  258.374,416.608 277.272,416.608 
  "/>
<polyline clip-path="url(#clip030)" style="stroke:#000000; stroke-linecap:butt; stroke-linejoin:round; stroke-width:4; stroke-opacity:1; fill:none" points="
  258.374,108.805 277.272,108.805 
  "/>
<path clip-path="url(#clip030)" d="M50.9921 1340.58 L88.0868 1340.58 L88.0868 1345.5 L50.9921 1345.5 L50.9921 1340.58 Z" fill="#000000" fill-rule="evenodd" fill-opacity="1" /><path clip-path="url(#clip030)" d="M113.202 1322.27 Q108.689 1322.27 106.403 1326.72 Q104.146 1331.15 104.146 1340.06 Q104.146 1348.95 106.403 1353.4 Q108.689 1357.83 113.202 1357.83 Q117.745 1357.83 120.002 1353.4 Q122.288 1348.95 122.288 1340.06 Q122.288 1331.15 120.002 1326.72 Q117.745 1322.27 113.202 1322.27 M113.202 1317.64 Q120.465 1317.64 124.285 1323.4 Q128.133 1329.13 128.133 1340.06 Q128.133 1350.97 124.285 1356.73 Q120.465 1362.46 113.202 1362.46 Q105.94 1362.46 102.091 1356.73 Q98.272 1350.97 98.272 1340.06 Q98.272 1329.13 102.091 1323.4 Q105.94 1317.64 113.202 1317.64 Z" fill="#000000" fill-rule="evenodd" fill-opacity="1" /><path clip-path="url(#clip030)" d="M138.405 1354.27 L144.51 1354.27 L144.51 1361.62 L138.405 1361.62 L138.405 1354.27 Z" fill="#000000" fill-rule="evenodd" fill-opacity="1" /><path clip-path="url(#clip030)" d="M157.299 1318.42 L180.245 1318.42 L180.245 1323.34 L162.652 1323.34 L162.652 1333.93 Q163.926 1333.49 165.199 1333.29 Q166.472 1333.06 167.745 1333.06 Q174.979 1333.06 179.203 1337.02 Q183.428 1340.99 183.428 1347.76 Q183.428 1354.73 179.088 1358.61 Q174.747 1362.46 166.848 1362.46 Q164.128 1362.46 161.292 1362 Q158.486 1361.53 155.477 1360.61 L155.477 1354.73 Q158.081 1356.15 160.858 1356.84 Q163.636 1357.54 166.732 1357.54 Q171.738 1357.54 174.66 1354.91 Q177.583 1352.27 177.583 1347.76 Q177.583 1343.25 174.66 1340.61 Q171.738 1337.98 166.732 1337.98 Q164.389 1337.98 162.045 1338.5 Q159.73 1339.02 157.299 1340.12 L157.299 1318.42 Z" fill="#000000" fill-rule="evenodd" fill-opacity="1" /><path clip-path="url(#clip030)" d="M207.444 1322.27 Q202.93 1322.27 200.644 1326.72 Q198.387 1331.15 198.387 1340.06 Q198.387 1348.95 200.644 1353.4 Q202.93 1357.83 207.444 1357.83 Q211.987 1357.83 214.244 1353.4 Q216.529 1348.95 216.529 1340.06 Q216.529 1331.15 214.244 1326.72 Q211.987 1322.27 207.444 1322.27 M207.444 1317.64 Q214.707 1317.64 218.526 1323.4 Q222.374 1329.13 222.374 1340.06 Q222.374 1350.97 218.526 1356.73 Q214.707 1362.46 207.444 1362.46 Q200.181 1362.46 196.333 1356.73 Q192.513 1350.97 192.513 1340.06 Q192.513 1329.13 196.333 1323.4 Q200.181 1317.64 207.444 1317.64 Z" fill="#000000" fill-rule="evenodd" fill-opacity="1" /><path clip-path="url(#clip030)" d="M52.2363 1032.78 L89.331 1032.78 L89.331 1037.7 L52.2363 1037.7 L52.2363 1032.78 Z" fill="#000000" fill-rule="evenodd" fill-opacity="1" /><path clip-path="url(#clip030)" d="M114.447 1014.46 Q109.933 1014.46 107.647 1018.92 Q105.39 1023.35 105.39 1032.26 Q105.39 1041.14 107.647 1045.6 Q109.933 1050.03 114.447 1050.03 Q118.989 1050.03 121.246 1045.6 Q123.532 1041.14 123.532 1032.26 Q123.532 1023.35 121.246 1018.92 Q118.989 1014.46 114.447 1014.46 M114.447 1009.83 Q121.709 1009.83 125.529 1015.59 Q129.377 1021.32 129.377 1032.26 Q129.377 1043.17 125.529 1048.93 Q121.709 1054.65 114.447 1054.65 Q107.184 1054.65 103.336 1048.93 Q99.5162 1043.17 99.5162 1032.26 Q99.5162 1021.32 103.336 1015.59 Q107.184 1009.83 114.447 1009.83 Z" fill="#000000" fill-rule="evenodd" fill-opacity="1" /><path clip-path="url(#clip030)" d="M139.649 1046.47 L145.754 1046.47 L145.754 1053.82 L139.649 1053.82 L139.649 1046.47 Z" fill="#000000" fill-rule="evenodd" fill-opacity="1" /><path clip-path="url(#clip030)" d="M163.52 1048.9 L183.92 1048.9 L183.92 1053.82 L156.489 1053.82 L156.489 1048.9 Q159.817 1045.45 165.546 1039.67 Q171.304 1033.85 172.78 1032.17 Q175.586 1029.02 176.686 1026.85 Q177.814 1024.65 177.814 1022.54 Q177.814 1019.09 175.384 1016.92 Q172.982 1014.75 169.105 1014.75 Q166.356 1014.75 163.289 1015.71 Q160.251 1016.66 156.779 1018.6 L156.779 1012.7 Q160.309 1011.28 163.376 1010.56 Q166.443 1009.83 168.989 1009.83 Q175.702 1009.83 179.695 1013.19 Q183.688 1016.55 183.688 1022.16 Q183.688 1024.82 182.675 1027.22 Q181.692 1029.6 179.059 1032.84 Q178.335 1033.68 174.458 1037.7 Q170.581 1041.69 163.52 1048.9 Z" fill="#000000" fill-rule="evenodd" fill-opacity="1" /><path clip-path="url(#clip030)" d="M196.246 1010.62 L219.191 1010.62 L219.191 1015.53 L201.599 1015.53 L201.599 1026.12 Q202.872 1025.69 204.145 1025.49 Q205.418 1025.26 206.692 1025.26 Q213.925 1025.26 218.15 1029.22 Q222.374 1033.18 222.374 1039.96 Q222.374 1046.93 218.034 1050.81 Q213.694 1054.65 205.795 1054.65 Q203.075 1054.65 200.239 1054.19 Q197.432 1053.73 194.423 1052.8 L194.423 1046.93 Q197.027 1048.35 199.805 1049.04 Q202.583 1049.74 205.679 1049.74 Q210.685 1049.74 213.607 1047.1 Q216.529 1044.47 216.529 1039.96 Q216.529 1035.44 213.607 1032.81 Q210.685 1030.18 205.679 1030.18 Q203.335 1030.18 200.991 1030.7 Q198.677 1031.22 196.246 1032.32 L196.246 1010.62 Z" fill="#000000" fill-rule="evenodd" fill-opacity="1" /><path clip-path="url(#clip030)" d="M113.202 706.66 Q108.689 706.66 106.403 711.116 Q104.146 715.543 104.146 724.455 Q104.146 733.338 106.403 737.794 Q108.689 742.221 113.202 742.221 Q117.745 742.221 120.002 737.794 Q122.288 733.338 122.288 724.455 Q122.288 715.543 120.002 711.116 Q117.745 706.66 113.202 706.66 M113.202 702.031 Q120.465 702.031 124.285 707.789 Q128.133 713.518 128.133 724.455 Q128.133 735.364 124.285 741.122 Q120.465 746.851 113.202 746.851 Q105.94 746.851 102.091 741.122 Q98.272 735.364 98.272 724.455 Q98.272 713.518 102.091 707.789 Q105.94 702.031 113.202 702.031 Z" fill="#000000" fill-rule="evenodd" fill-opacity="1" /><path clip-path="url(#clip030)" d="M138.405 738.662 L144.51 738.662 L144.51 746.012 L138.405 746.012 L138.405 738.662 Z" fill="#000000" fill-rule="evenodd" fill-opacity="1" /><path clip-path="url(#clip030)" d="M169.741 706.66 Q165.228 706.66 162.942 711.116 Q160.685 715.543 160.685 724.455 Q160.685 733.338 162.942 737.794 Q165.228 742.221 169.741 742.221 Q174.284 742.221 176.541 737.794 Q178.827 733.338 178.827 724.455 Q178.827 715.543 176.541 711.116 Q174.284 706.66 169.741 706.66 M169.741 702.031 Q177.004 702.031 180.824 707.789 Q184.672 713.518 184.672 724.455 Q184.672 735.364 180.824 741.122 Q177.004 746.851 169.741 746.851 Q162.479 746.851 158.63 741.122 Q154.811 735.364 154.811 724.455 Q154.811 713.518 158.63 707.789 Q162.479 702.031 169.741 702.031 Z" fill="#000000" fill-rule="evenodd" fill-opacity="1" /><path clip-path="url(#clip030)" d="M207.444 706.66 Q202.93 706.66 200.644 711.116 Q198.387 715.543 198.387 724.455 Q198.387 733.338 200.644 737.794 Q202.93 742.221 207.444 742.221 Q211.987 742.221 214.244 737.794 Q216.529 733.338 216.529 724.455 Q216.529 715.543 214.244 711.116 Q211.987 706.66 207.444 706.66 M207.444 702.031 Q214.707 702.031 218.526 707.789 Q222.374 713.518 222.374 724.455 Q222.374 735.364 218.526 741.122 Q214.707 746.851 207.444 746.851 Q200.181 746.851 196.333 741.122 Q192.513 735.364 192.513 724.455 Q192.513 713.518 196.333 707.789 Q200.181 702.031 207.444 702.031 Z" fill="#000000" fill-rule="evenodd" fill-opacity="1" /><path clip-path="url(#clip030)" d="M114.447 398.857 Q109.933 398.857 107.647 403.313 Q105.39 407.74 105.39 416.652 Q105.39 425.535 107.647 429.991 Q109.933 434.418 114.447 434.418 Q118.989 434.418 121.246 429.991 Q123.532 425.535 123.532 416.652 Q123.532 407.74 121.246 403.313 Q118.989 398.857 114.447 398.857 M114.447 394.227 Q121.709 394.227 125.529 399.985 Q129.377 405.714 129.377 416.652 Q129.377 427.56 125.529 433.318 Q121.709 439.048 114.447 439.048 Q107.184 439.048 103.336 433.318 Q99.5162 427.56 99.5162 416.652 Q99.5162 405.714 103.336 399.985 Q107.184 394.227 114.447 394.227 Z" fill="#000000" fill-rule="evenodd" fill-opacity="1" /><path clip-path="url(#clip030)" d="M139.649 430.859 L145.754 430.859 L145.754 438.208 L139.649 438.208 L139.649 430.859 Z" fill="#000000" fill-rule="evenodd" fill-opacity="1" /><path clip-path="url(#clip030)" d="M163.52 433.289 L183.92 433.289 L183.92 438.208 L156.489 438.208 L156.489 433.289 Q159.817 429.846 165.546 424.059 Q171.304 418.243 172.78 416.565 Q175.586 413.411 176.686 411.241 Q177.814 409.042 177.814 406.93 Q177.814 403.486 175.384 401.316 Q172.982 399.146 169.105 399.146 Q166.356 399.146 163.289 400.101 Q160.251 401.056 156.779 402.994 L156.779 397.092 Q160.309 395.674 163.376 394.951 Q166.443 394.227 168.989 394.227 Q175.702 394.227 179.695 397.584 Q183.688 400.94 183.688 406.553 Q183.688 409.215 182.675 411.617 Q181.692 413.99 179.059 417.23 Q178.335 418.07 174.458 422.092 Q170.581 426.085 163.52 433.289 Z" fill="#000000" fill-rule="evenodd" fill-opacity="1" /><path clip-path="url(#clip030)" d="M196.246 395.008 L219.191 395.008 L219.191 399.927 L201.599 399.927 L201.599 410.518 Q202.872 410.084 204.145 409.881 Q205.418 409.65 206.692 409.65 Q213.925 409.65 218.15 413.614 Q222.374 417.578 222.374 424.349 Q222.374 431.322 218.034 435.199 Q213.694 439.048 205.795 439.048 Q203.075 439.048 200.239 438.585 Q197.432 438.122 194.423 437.196 L194.423 431.322 Q197.027 432.74 199.805 433.434 Q202.583 434.129 205.679 434.129 Q210.685 434.129 213.607 431.495 Q216.529 428.862 216.529 424.349 Q216.529 419.835 213.607 417.202 Q210.685 414.568 205.679 414.568 Q203.335 414.568 200.991 415.089 Q198.677 415.61 196.246 416.71 L196.246 395.008 Z" fill="#000000" fill-rule="evenodd" fill-opacity="1" /><path clip-path="url(#clip030)" d="M113.202 91.0532 Q108.689 91.0532 106.403 95.5092 Q104.146 99.9362 104.146 108.848 Q104.146 117.731 106.403 122.187 Q108.689 126.614 113.202 126.614 Q117.745 126.614 120.002 122.187 Q122.288 117.731 122.288 108.848 Q122.288 99.9362 120.002 95.5092 Q117.745 91.0532 113.202 91.0532 M113.202 86.4236 Q120.465 86.4236 124.285 92.1816 Q128.133 97.9108 128.133 108.848 Q128.133 119.757 124.285 125.515 Q120.465 131.244 113.202 131.244 Q105.94 131.244 102.091 125.515 Q98.272 119.757 98.272 108.848 Q98.272 97.9108 102.091 92.1816 Q105.94 86.4236 113.202 86.4236 Z" fill="#000000" fill-rule="evenodd" fill-opacity="1" /><path clip-path="url(#clip030)" d="M138.405 123.055 L144.51 123.055 L144.51 130.405 L138.405 130.405 L138.405 123.055 Z" fill="#000000" fill-rule="evenodd" fill-opacity="1" /><path clip-path="url(#clip030)" d="M157.299 87.2048 L180.245 87.2048 L180.245 92.1238 L162.652 92.1238 L162.652 102.714 Q163.926 102.28 165.199 102.077 Q166.472 101.846 167.745 101.846 Q174.979 101.846 179.203 105.81 Q183.428 109.774 183.428 116.545 Q183.428 123.518 179.088 127.396 Q174.747 131.244 166.848 131.244 Q164.128 131.244 161.292 130.781 Q158.486 130.318 155.477 129.392 L155.477 123.518 Q158.081 124.936 160.858 125.631 Q163.636 126.325 166.732 126.325 Q171.738 126.325 174.66 123.692 Q177.583 121.059 177.583 116.545 Q177.583 112.031 174.66 109.398 Q171.738 106.765 166.732 106.765 Q164.389 106.765 162.045 107.286 Q159.73 107.807 157.299 108.906 L157.299 87.2048 Z" fill="#000000" fill-rule="evenodd" fill-opacity="1" /><path clip-path="url(#clip030)" d="M207.444 91.0532 Q202.93 91.0532 200.644 95.5092 Q198.387 99.9362 198.387 108.848 Q198.387 117.731 200.644 122.187 Q202.93 126.614 207.444 126.614 Q211.987 126.614 214.244 122.187 Q216.529 117.731 216.529 108.848 Q216.529 99.9362 214.244 95.5092 Q211.987 91.0532 207.444 91.0532 M207.444 86.4236 Q214.707 86.4236 218.526 92.1816 Q222.374 97.9108 222.374 108.848 Q222.374 119.757 218.526 125.515 Q214.707 131.244 207.444 131.244 Q200.181 131.244 196.333 125.515 Q192.513 119.757 192.513 108.848 Q192.513 97.9108 196.333 92.1816 Q200.181 86.4236 207.444 86.4236 Z" fill="#000000" fill-rule="evenodd" fill-opacity="1" /><polyline clip-path="url(#clip032)" style="stroke:#009af9; stroke-linecap:butt; stroke-linejoin:round; stroke-width:12; stroke-opacity:1; fill:none" points="
  353.573,724.412 543.972,724.412 734.37,724.412 924.768,724.412 1115.17,724.412 1305.57,416.608 1495.96,724.412 1686.36,724.412 1876.76,724.412 2067.16,724.412 
  2257.56,724.412 2447.96,724.412 2638.35,724.412 2828.75,724.412 3019.15,724.412 3209.55,724.412 3399.95,724.412 3590.35,724.412 3780.74,724.412 3971.14,724.412 
  4161.54,724.412 4351.94,724.412 4542.34,724.412 4732.73,724.412 4923.13,724.412 5113.53,724.412 5303.93,724.412 5494.33,724.412 5684.73,724.412 5875.12,724.412 
  6065.52,724.412 6255.92,724.412 6446.32,724.412 
  "/>
<circle clip-path="url(#clip032)" cx="353.573" cy="724.412" r="14" fill="#009af9" fill-rule="evenodd" fill-opacity="1" stroke="#000000" stroke-opacity="1" stroke-width="3.2"/>
<circle clip-path="url(#clip032)" cx="543.972" cy="724.412" r="14" fill="#009af9" fill-rule="evenodd" fill-opacity="1" stroke="#000000" stroke-opacity="1" stroke-width="3.2"/>
<circle clip-path="url(#clip032)" cx="734.37" cy="724.412" r="14" fill="#009af9" fill-rule="evenodd" fill-opacity="1" stroke="#000000" stroke-opacity="1" stroke-width="3.2"/>
<circle clip-path="url(#clip032)" cx="924.768" cy="724.412" r="14" fill="#009af9" fill-rule="evenodd" fill-opacity="1" stroke="#000000" stroke-opacity="1" stroke-width="3.2"/>
<circle clip-path="url(#clip032)" cx="1115.17" cy="724.412" r="14" fill="#009af9" fill-rule="evenodd" fill-opacity="1" stroke="#000000" stroke-opacity="1" stroke-width="3.2"/>
<circle clip-path="url(#clip032)" cx="1305.57" cy="416.608" r="14" fill="#009af9" fill-rule="evenodd" fill-opacity="1" stroke="#000000" stroke-opacity="1" stroke-width="3.2"/>
<circle clip-path="url(#clip032)" cx="1495.96" cy="724.412" r="14" fill="#009af9" fill-rule="evenodd" fill-opacity="1" stroke="#000000" stroke-opacity="1" stroke-width="3.2"/>
<circle clip-path="url(#clip032)" cx="1686.36" cy="724.412" r="14" fill="#009af9" fill-rule="evenodd" fill-opacity="1" stroke="#000000" stroke-opacity="1" stroke-width="3.2"/>
<circle clip-path="url(#clip032)" cx="1876.76" cy="724.412" r="14" fill="#009af9" fill-rule="evenodd" fill-opacity="1" stroke="#000000" stroke-opacity="1" stroke-width="3.2"/>
<circle clip-path="url(#clip032)" cx="2067.16" cy="724.412" r="14" fill="#009af9" fill-rule="evenodd" fill-opacity="1" stroke="#000000" stroke-opacity="1" stroke-width="3.2"/>
<circle clip-path="url(#clip032)" cx="2257.56" cy="724.412" r="14" fill="#009af9" fill-rule="evenodd" fill-opacity="1" stroke="#000000" stroke-opacity="1" stroke-width="3.2"/>
<polyline clip-path="url(#clip032)" style="stroke:#e26f46; stroke-linecap:butt; stroke-linejoin:round; stroke-width:12; stroke-opacity:1; fill:none" points="
  353.573,724.412 543.972,724.412 734.37,1340.02 924.768,724.412 1115.17,724.412 1305.57,724.412 1495.96,724.412 1686.36,724.412 1876.76,724.412 2067.16,724.412 
  2257.56,724.412 2447.96,724.412 2638.35,724.412 2828.75,724.412 3019.15,724.412 3209.55,724.412 3399.95,724.412 3590.35,724.412 3780.74,724.412 3971.14,724.412 
  4161.54,724.412 4351.94,724.412 4542.34,724.412 4732.73,724.412 4923.13,724.412 5113.53,724.412 5303.93,724.412 5494.33,724.412 5684.73,724.412 5875.12,724.412 
  6065.52,724.412 6255.92,724.412 6446.32,724.412 
  "/>
<path clip-path="url(#clip032)" d="M337.573 708.412 L337.573 740.412 L369.573 740.412 L369.573 708.412 L337.573 708.412 Z" fill="#e26f46" fill-rule="evenodd" fill-opacity="1" stroke="#000000" stroke-opacity="1" stroke-width="3.2"/>
<path clip-path="url(#clip032)" d="M527.972 708.412 L527.972 740.412 L559.972 740.412 L559.972 708.412 L527.972 708.412 Z" fill="#e26f46" fill-rule="evenodd" fill-opacity="1" stroke="#000000" stroke-opacity="1" stroke-width="3.2"/>
<path clip-path="url(#clip032)" d="M718.37 1324.02 L718.37 1356.02 L750.37 1356.02 L750.37 1324.02 L718.37 1324.02 Z" fill="#e26f46" fill-rule="evenodd" fill-opacity="1" stroke="#000000" stroke-opacity="1" stroke-width="3.2"/>
<path clip-path="url(#clip032)" d="M908.768 708.412 L908.768 740.412 L940.768 740.412 L940.768 708.412 L908.768 708.412 Z" fill="#e26f46" fill-rule="evenodd" fill-opacity="1" stroke="#000000" stroke-opacity="1" stroke-width="3.2"/>
<path clip-path="url(#clip032)" d="M1099.17 708.412 L1099.17 740.412 L1131.17 740.412 L1131.17 708.412 L1099.17 708.412 Z" fill="#e26f46" fill-rule="evenodd" fill-opacity="1" stroke="#000000" stroke-opacity="1" stroke-width="3.2"/>
<path clip-path="url(#clip032)" d="M1289.57 708.412 L1289.57 740.412 L1321.57 740.412 L1321.57 708.412 L1289.57 708.412 Z" fill="#e26f46" fill-rule="evenodd" fill-opacity="1" stroke="#000000" stroke-opacity="1" stroke-width="3.2"/>
<path clip-path="url(#clip032)" d="M1479.96 708.412 L1479.96 740.412 L1511.96 740.412 L1511.96 708.412 L1479.96 708.412 Z" fill="#e26f46" fill-rule="evenodd" fill-opacity="1" stroke="#000000" stroke-opacity="1" stroke-width="3.2"/>
<path clip-path="url(#clip032)" d="M1670.36 708.412 L1670.36 740.412 L1702.36 740.412 L1702.36 708.412 L1670.36 708.412 Z" fill="#e26f46" fill-rule="evenodd" fill-opacity="1" stroke="#000000" stroke-opacity="1" stroke-width="3.2"/>
<path clip-path="url(#clip032)" d="M1860.76 708.412 L1860.76 740.412 L1892.76 740.412 L1892.76 708.412 L1860.76 708.412 Z" fill="#e26f46" fill-rule="evenodd" fill-opacity="1" stroke="#000000" stroke-opacity="1" stroke-width="3.2"/>
<path clip-path="url(#clip032)" d="M2051.16 708.412 L2051.16 740.412 L2083.16 740.412 L2083.16 708.412 L2051.16 708.412 Z" fill="#e26f46" fill-rule="evenodd" fill-opacity="1" stroke="#000000" stroke-opacity="1" stroke-width="3.2"/>
<path clip-path="url(#clip032)" d="M2241.56 708.412 L2241.56 740.412 L2273.56 740.412 L2273.56 708.412 L2241.56 708.412 Z" fill="#e26f46" fill-rule="evenodd" fill-opacity="1" stroke="#000000" stroke-opacity="1" stroke-width="3.2"/>
<path clip-path="url(#clip030)" d="
M1791.32 286.789 L2282.94 286.789 L2282.94 92.3886 L1791.32 92.3886  Z
  " fill="#ffffff" fill-rule="evenodd" fill-opacity="1"/>
<polyline clip-path="url(#clip030)" style="stroke:#000000; stroke-linecap:butt; stroke-linejoin:round; stroke-width:4; stroke-opacity:1; fill:none" points="
  1791.32,286.789 2282.94,286.789 2282.94,92.3886 1791.32,92.3886 1791.32,286.789 
  "/>
<polyline clip-path="url(#clip030)" style="stroke:#009af9; stroke-linecap:butt; stroke-linejoin:round; stroke-width:5; stroke-opacity:1; fill:none" points="
  1814.59,157.189 1954.22,157.189 
  "/>
<circle clip-path="url(#clip030)" cx="1884.41" cy="157.189" r="28" fill="#009af9" fill-rule="evenodd" fill-opacity="1" stroke="#000000" stroke-opacity="1" stroke-width="6.4"/>
<path clip-path="url(#clip030)" d="M1996.47 151.358 Q1995.58 150.837 1994.5 150.606 Q1993.46 150.345 1992.19 150.345 Q1987.68 150.345 1985.25 153.297 Q1982.84 156.219 1982.84 161.717 L1982.84 178.789 L1977.49 178.789 L1977.49 146.381 L1982.84 146.381 L1982.84 151.416 Q1984.52 148.465 1987.21 147.047 Q1989.9 145.6 1993.75 145.6 Q1994.3 145.6 1994.97 145.687 Q1995.63 145.745 1996.44 145.889 L1996.47 151.358 Z" fill="#000000" fill-rule="evenodd" fill-opacity="1" /><path clip-path="url(#clip030)" d="M2028.47 161.254 L2028.47 163.858 L2004 163.858 Q2004.34 169.356 2007.29 172.249 Q2010.27 175.114 2015.57 175.114 Q2018.64 175.114 2021.5 174.362 Q2024.39 173.609 2027.23 172.105 L2027.23 177.139 Q2024.37 178.355 2021.36 178.991 Q2018.35 179.628 2015.25 179.628 Q2007.5 179.628 2002.95 175.114 Q1998.44 170.6 1998.44 162.903 Q1998.44 154.946 2002.72 150.288 Q2007.03 145.6 2014.33 145.6 Q2020.86 145.6 2024.65 149.825 Q2028.47 154.02 2028.47 161.254 M2023.15 159.691 Q2023.09 155.322 2020.69 152.718 Q2018.32 150.114 2014.38 150.114 Q2009.93 150.114 2007.24 152.631 Q2004.57 155.149 2004.17 159.72 L2023.15 159.691 Z" fill="#000000" fill-rule="evenodd" fill-opacity="1" /><path clip-path="url(#clip030)" d="M2051.94 162.498 Q2045.49 162.498 2043 163.974 Q2040.51 165.45 2040.51 169.009 Q2040.51 171.844 2042.36 173.522 Q2044.24 175.172 2047.46 175.172 Q2051.88 175.172 2054.54 172.047 Q2057.24 168.893 2057.24 163.685 L2057.24 162.498 L2051.94 162.498 M2062.56 160.299 L2062.56 178.789 L2057.24 178.789 L2057.24 173.87 Q2055.41 176.821 2052.69 178.239 Q2049.97 179.628 2046.04 179.628 Q2041.06 179.628 2038.11 176.85 Q2035.19 174.043 2035.19 169.356 Q2035.19 163.887 2038.83 161.109 Q2042.51 158.332 2049.77 158.332 L2057.24 158.332 L2057.24 157.811 Q2057.24 154.136 2054.81 152.139 Q2052.4 150.114 2048.03 150.114 Q2045.26 150.114 2042.62 150.78 Q2039.99 151.445 2037.56 152.776 L2037.56 147.857 Q2040.48 146.729 2043.23 146.179 Q2045.98 145.6 2048.58 145.6 Q2055.62 145.6 2059.09 149.246 Q2062.56 152.892 2062.56 160.299 Z" fill="#000000" fill-rule="evenodd" fill-opacity="1" /><path clip-path="url(#clip030)" d="M2073.53 133.766 L2078.85 133.766 L2078.85 178.789 L2073.53 178.789 L2073.53 133.766 Z" fill="#000000" fill-rule="evenodd" fill-opacity="1" /><path clip-path="url(#clip030)" d="M2102.78 133.824 Q2098.9 140.479 2097.02 146.989 Q2095.14 153.499 2095.14 160.183 Q2095.14 166.867 2097.02 173.436 Q2098.93 179.975 2102.78 186.601 L2098.15 186.601 Q2093.81 179.801 2091.64 173.233 Q2089.5 166.665 2089.5 160.183 Q2089.5 153.731 2091.64 147.192 Q2093.78 140.652 2098.15 133.824 L2102.78 133.824 Z" fill="#000000" fill-rule="evenodd" fill-opacity="1" /><path clip-path="url(#clip030)" d="M2131.4 165.999 L2131.4 146.381 L2136.72 146.381 L2136.72 165.797 Q2136.72 170.397 2138.51 172.712 Q2140.31 174.998 2143.9 174.998 Q2148.21 174.998 2150.7 172.249 Q2153.21 169.5 2153.21 164.755 L2153.21 146.381 L2158.54 146.381 L2158.54 178.789 L2153.21 178.789 L2153.21 173.812 Q2151.27 176.763 2148.7 178.21 Q2146.15 179.628 2142.77 179.628 Q2137.18 179.628 2134.29 176.156 Q2131.4 172.683 2131.4 165.999 M2144.79 145.6 L2144.79 145.6 Z" fill="#000000" fill-rule="evenodd" fill-opacity="1" /><path clip-path="url(#clip030)" d="M2146.96 131.393 L2151.25 131.393 L2158.33 142.273 L2154.31 142.273 L2149.1 135.184 L2143.9 142.273 L2139.87 142.273 L2146.96 131.393 M2149.1 145.6 L2149.1 145.6 Z" fill="#000000" fill-rule="evenodd" fill-opacity="1" /><path clip-path="url(#clip030)" d="M2187.5 133.824 L2192.13 133.824 Q2196.47 140.652 2198.61 147.192 Q2200.78 153.731 2200.78 160.183 Q2200.78 166.665 2198.61 173.233 Q2196.47 179.801 2192.13 186.601 L2187.5 186.601 Q2191.35 179.975 2193.23 173.436 Q2195.14 166.867 2195.14 160.183 Q2195.14 153.499 2193.23 146.989 Q2191.35 140.479 2187.5 133.824 Z" fill="#000000" fill-rule="evenodd" fill-opacity="1" /><polyline clip-path="url(#clip030)" style="stroke:#e26f46; stroke-linecap:butt; stroke-linejoin:round; stroke-width:5; stroke-opacity:1; fill:none" points="
  1814.59,221.989 1954.22,221.989 
  "/>
<path clip-path="url(#clip030)" d="M1852.41 189.989 L1852.41 253.989 L1916.41 253.989 L1916.41 189.989 L1852.41 189.989 Z" fill="#e26f46" fill-rule="evenodd" fill-opacity="1" stroke="#000000" stroke-opacity="1" stroke-width="6.4"/>
<path clip-path="url(#clip030)" d="M1977.49 211.181 L1982.81 211.181 L1982.81 243.589 L1977.49 243.589 L1977.49 211.181 M1977.49 198.566 L1982.81 198.566 L1982.81 205.308 L1977.49 205.308 L1977.49 198.566 Z" fill="#000000" fill-rule="evenodd" fill-opacity="1" /><path clip-path="url(#clip030)" d="M2019.19 217.402 Q2021.18 213.814 2023.96 212.107 Q2026.74 210.4 2030.5 210.4 Q2035.56 210.4 2038.31 213.959 Q2041.06 217.489 2041.06 224.029 L2041.06 243.589 L2035.71 243.589 L2035.71 224.202 Q2035.71 219.544 2034.06 217.287 Q2032.41 215.03 2029.02 215.03 Q2024.89 215.03 2022.48 217.779 Q2020.08 220.527 2020.08 225.273 L2020.08 243.589 L2014.73 243.589 L2014.73 224.202 Q2014.73 219.515 2013.08 217.287 Q2011.43 215.03 2007.99 215.03 Q2003.91 215.03 2001.51 217.808 Q1999.11 220.556 1999.11 225.273 L1999.11 243.589 L1993.75 243.589 L1993.75 211.181 L1999.11 211.181 L1999.11 216.216 Q2000.93 213.236 2003.47 211.818 Q2006.02 210.4 2009.52 210.4 Q2013.05 210.4 2015.51 212.194 Q2018 213.988 2019.19 217.402 Z" fill="#000000" fill-rule="evenodd" fill-opacity="1" /><path clip-path="url(#clip030)" d="M2066.41 227.298 Q2059.96 227.298 2057.47 228.774 Q2054.98 230.25 2054.98 233.809 Q2054.98 236.644 2056.83 238.322 Q2058.71 239.972 2061.92 239.972 Q2066.35 239.972 2069.01 236.847 Q2071.7 233.693 2071.7 228.485 L2071.7 227.298 L2066.41 227.298 M2077.03 225.099 L2077.03 243.589 L2071.7 243.589 L2071.7 238.67 Q2069.88 241.621 2067.16 243.039 Q2064.44 244.428 2060.51 244.428 Q2055.53 244.428 2052.58 241.65 Q2049.65 238.843 2049.65 234.156 Q2049.65 228.687 2053.3 225.909 Q2056.98 223.132 2064.24 223.132 L2071.7 223.132 L2071.7 222.611 Q2071.7 218.936 2069.27 216.939 Q2066.87 214.914 2062.5 214.914 Q2059.72 214.914 2057.09 215.58 Q2054.46 216.245 2052.03 217.576 L2052.03 212.657 Q2054.95 211.529 2057.7 210.979 Q2060.45 210.4 2063.05 210.4 Q2070.08 210.4 2073.56 214.046 Q2077.03 217.692 2077.03 225.099 Z" fill="#000000" fill-rule="evenodd" fill-opacity="1" /><path clip-path="url(#clip030)" d="M2109.32 227.009 Q2109.32 221.222 2106.92 218.039 Q2104.54 214.856 2100.23 214.856 Q2095.95 214.856 2093.55 218.039 Q2091.18 221.222 2091.18 227.009 Q2091.18 232.767 2093.55 235.95 Q2095.95 239.133 2100.23 239.133 Q2104.54 239.133 2106.92 235.95 Q2109.32 232.767 2109.32 227.009 M2114.64 239.567 Q2114.64 247.842 2110.97 251.864 Q2107.29 255.915 2099.71 255.915 Q2096.91 255.915 2094.42 255.481 Q2091.93 255.076 2089.59 254.208 L2089.59 249.028 Q2091.93 250.302 2094.21 250.909 Q2096.5 251.517 2098.87 251.517 Q2104.11 251.517 2106.71 248.768 Q2109.32 246.048 2109.32 240.522 L2109.32 237.888 Q2107.67 240.753 2105.09 242.171 Q2102.52 243.589 2098.93 243.589 Q2092.97 243.589 2089.32 239.046 Q2085.68 234.503 2085.68 227.009 Q2085.68 219.486 2089.32 214.943 Q2092.97 210.4 2098.93 210.4 Q2102.52 210.4 2105.09 211.818 Q2107.67 213.236 2109.32 216.1 L2109.32 211.181 L2114.64 211.181 L2114.64 239.567 Z" fill="#000000" fill-rule="evenodd" fill-opacity="1" /><path clip-path="url(#clip030)" d="M2138.4 198.624 Q2134.52 205.279 2132.64 211.789 Q2130.76 218.299 2130.76 224.983 Q2130.76 231.667 2132.64 238.236 Q2134.55 244.775 2138.4 251.401 L2133.77 251.401 Q2129.43 244.601 2127.26 238.033 Q2125.12 231.465 2125.12 224.983 Q2125.12 218.531 2127.26 211.992 Q2129.4 205.452 2133.77 198.624 L2138.4 198.624 Z" fill="#000000" fill-rule="evenodd" fill-opacity="1" /><path clip-path="url(#clip030)" d="M2167.02 230.799 L2167.02 211.181 L2172.34 211.181 L2172.34 230.597 Q2172.34 235.197 2174.13 237.512 Q2175.93 239.798 2179.52 239.798 Q2183.83 239.798 2186.31 237.049 Q2188.83 234.3 2188.83 229.555 L2188.83 211.181 L2194.16 211.181 L2194.16 243.589 L2188.83 243.589 L2188.83 238.612 Q2186.89 241.563 2184.32 243.01 Q2181.77 244.428 2178.39 244.428 Q2172.8 244.428 2169.91 240.956 Q2167.02 237.483 2167.02 230.799 M2180.41 210.4 L2180.41 210.4 Z" fill="#000000" fill-rule="evenodd" fill-opacity="1" /><path clip-path="url(#clip030)" d="M2182.58 196.193 L2186.86 196.193 L2193.95 207.073 L2189.93 207.073 L2184.72 199.984 L2179.52 207.073 L2175.49 207.073 L2182.58 196.193 M2184.72 210.4 L2184.72 210.4 Z" fill="#000000" fill-rule="evenodd" fill-opacity="1" /><path clip-path="url(#clip030)" d="M2223.12 198.624 L2227.75 198.624 Q2232.09 205.452 2234.23 211.992 Q2236.4 218.531 2236.4 224.983 Q2236.4 231.465 2234.23 238.033 Q2232.09 244.601 2227.75 251.401 L2223.12 251.401 Q2226.97 244.775 2228.85 238.236 Q2230.76 231.667 2230.76 224.983 Q2230.76 218.299 2228.85 211.789 Q2226.97 205.279 2223.12 198.624 Z" fill="#000000" fill-rule="evenodd" fill-opacity="1" /></svg>
