<?xml version="1.0" encoding="utf-8"?>
<svg xmlns="http://www.w3.org/2000/svg" xmlns:xlink="http://www.w3.org/1999/xlink" width="600" height="400" viewBox="0 0 2400 1600">
<defs>
  <clipPath id="clip970">
    <rect x="0" y="0" width="2400" height="1600"/>
  </clipPath>
</defs>
<path clip-path="url(#clip970)" d="
M0 1600 L2400 1600 L2400 0 L0 0  Z
  " fill="#ffffff" fill-rule="evenodd" fill-opacity="1"/>
<defs>
  <clipPath id="clip971">
    <rect x="480" y="0" width="1681" height="1600"/>
  </clipPath>
</defs>
<path clip-path="url(#clip970)" d="
M173.595 1401.58 L2352.76 1401.58 L2352.76 47.2441 L173.595 47.2441  Z
  " fill="#ffffff" fill-rule="evenodd" fill-opacity="1"/>
<defs>
  <clipPath id="clip972">
    <rect x="173" y="47" width="2180" height="1355"/>
  </clipPath>
</defs>
<polyline clip-path="url(#clip972)" style="stroke:#000000; stroke-linecap:butt; stroke-linejoin:round; stroke-width:2; stroke-opacity:0.1; fill:none" points="
  235.269,1401.58 235.269,47.2441 
  "/>
<polyline clip-path="url(#clip972)" style="stroke:#000000; stroke-linecap:butt; stroke-linejoin:round; stroke-width:2; stroke-opacity:0.1; fill:none" points="
  749.222,1401.58 749.222,47.2441 
  "/>
<polyline clip-path="url(#clip972)" style="stroke:#000000; stroke-linecap:butt; stroke-linejoin:round; stroke-width:2; stroke-opacity:0.1; fill:none" points="
  1263.18,1401.58 1263.18,47.2441 
  "/>
<polyline clip-path="url(#clip972)" style="stroke:#000000; stroke-linecap:butt; stroke-linejoin:round; stroke-width:2; stroke-opacity:0.1; fill:none" points="
  1777.13,1401.58 1777.13,47.2441 
  "/>
<polyline clip-path="url(#clip972)" style="stroke:#000000; stroke-linecap:butt; stroke-linejoin:round; stroke-width:2; stroke-opacity:0.1; fill:none" points="
  2291.08,1401.58 2291.08,47.2441 
  "/>
<polyline clip-path="url(#clip970)" style="stroke:#000000; stroke-linecap:butt; stroke-linejoin:round; stroke-width:4; stroke-opacity:1; fill:none" points="
  173.595,1401.58 2352.76,1401.58 
  "/>
<polyline clip-path="url(#clip970)" style="stroke:#000000; stroke-linecap:butt; stroke-linejoin:round; stroke-width:4; stroke-opacity:1; fill:none" points="
  235.269,1401.58 235.269,1382.68 
  "/>
<polyline clip-path="url(#clip970)" style="stroke:#000000; stroke-linecap:butt; stroke-linejoin:round; stroke-width:4; stroke-opacity:1; fill:none" points="
  749.222,1401.58 749.222,1382.68 
  "/>
<polyline clip-path="url(#clip970)" style="stroke:#000000; stroke-linecap:butt; stroke-linejoin:round; stroke-width:4; stroke-opacity:1; fill:none" points="
  1263.18,1401.58 1263.18,1382.68 
  "/>
<polyline clip-path="url(#clip970)" style="stroke:#000000; stroke-linecap:butt; stroke-linejoin:round; stroke-width:4; stroke-opacity:1; fill:none" points="
  1777.13,1401.58 1777.13,1382.68 
  "/>
<polyline clip-path="url(#clip970)" style="stroke:#000000; stroke-linecap:butt; stroke-linejoin:round; stroke-width:4; stroke-opacity:1; fill:none" points="
  2291.08,1401.58 2291.08,1382.68 
  "/>
<path clip-path="url(#clip970)" d="M235.269 1435.43 Q230.755 1435.43 228.469 1439.88 Q226.212 1444.31 226.212 1453.22 Q226.212 1462.11 228.469 1466.56 Q230.755 1470.99 235.269 1470.99 Q239.812 1470.99 242.069 1466.56 Q244.355 1462.11 244.355 1453.22 Q244.355 1444.31 242.069 1439.88 Q239.812 1435.43 235.269 1435.43 M235.269 1430.8 Q242.532 1430.8 246.351 1436.56 Q250.2 1442.29 250.2 1453.22 Q250.2 1464.13 246.351 1469.89 Q242.532 1475.62 235.269 1475.62 Q228.006 1475.62 224.158 1469.89 Q220.339 1464.13 220.339 1453.22 Q220.339 1442.29 224.158 1436.56 Q228.006 1430.8 235.269 1430.8 Z" fill="#000000" fill-rule="evenodd" fill-opacity="1" /><path clip-path="url(#clip970)" d="M737.2 1469.86 L746.748 1469.86 L746.748 1436.9 L736.361 1438.99 L736.361 1433.66 L746.69 1431.58 L752.535 1431.58 L752.535 1469.86 L762.084 1469.86 L762.084 1474.78 L737.2 1474.78 L737.2 1469.86 Z" fill="#000000" fill-rule="evenodd" fill-opacity="1" /><path clip-path="url(#clip970)" d="M1256.49 1469.86 L1276.89 1469.86 L1276.89 1474.78 L1249.46 1474.78 L1249.46 1469.86 Q1252.79 1466.42 1258.52 1460.63 Q1264.27 1454.81 1265.75 1453.14 Q1268.56 1449.98 1269.66 1447.81 Q1270.79 1445.61 1270.79 1443.5 Q1270.79 1440.06 1268.35 1437.89 Q1265.95 1435.72 1262.08 1435.72 Q1259.33 1435.72 1256.26 1436.67 Q1253.22 1437.63 1249.75 1439.57 L1249.75 1433.66 Q1253.28 1432.25 1256.35 1431.52 Q1259.41 1430.8 1261.96 1430.8 Q1268.67 1430.8 1272.67 1434.16 Q1276.66 1437.51 1276.66 1443.12 Q1276.66 1445.79 1275.65 1448.19 Q1274.66 1450.56 1272.03 1453.8 Q1271.31 1454.64 1267.43 1458.66 Q1263.55 1462.66 1256.49 1469.86 Z" fill="#000000" fill-rule="evenodd" fill-opacity="1" /><path clip-path="url(#clip970)" d="M1782.44 1451.49 Q1786.63 1452.38 1788.98 1455.22 Q1791.35 1458.06 1791.35 1462.22 Q1791.35 1468.62 1786.95 1472.12 Q1782.55 1475.62 1774.45 1475.62 Q1771.73 1475.62 1768.84 1475.07 Q1765.97 1474.55 1762.91 1473.48 L1762.91 1467.84 Q1765.34 1469.25 1768.23 1469.98 Q1771.12 1470.7 1774.28 1470.7 Q1779.78 1470.7 1782.64 1468.53 Q1785.53 1466.36 1785.53 1462.22 Q1785.53 1458.4 1782.84 1456.26 Q1780.18 1454.09 1775.41 1454.09 L1770.37 1454.09 L1770.37 1449.29 L1775.64 1449.29 Q1779.95 1449.29 1782.24 1447.58 Q1784.52 1445.84 1784.52 1442.6 Q1784.52 1439.28 1782.15 1437.51 Q1779.8 1435.72 1775.41 1435.72 Q1773.01 1435.72 1770.26 1436.24 Q1767.51 1436.76 1764.21 1437.86 L1764.21 1432.65 Q1767.54 1431.72 1770.43 1431.26 Q1773.35 1430.8 1775.93 1430.8 Q1782.58 1430.8 1786.46 1433.84 Q1790.34 1436.85 1790.34 1442 Q1790.34 1445.58 1788.28 1448.07 Q1786.23 1450.53 1782.44 1451.49 Z" fill="#000000" fill-rule="evenodd" fill-opacity="1" /><path clip-path="url(#clip970)" d="M2294.84 1436.67 L2280.09 1459.73 L2294.84 1459.73 L2294.84 1436.67 M2293.31 1431.58 L2300.66 1431.58 L2300.66 1459.73 L2306.82 1459.73 L2306.82 1464.59 L2300.66 1464.59 L2300.66 1474.78 L2294.84 1474.78 L2294.84 1464.59 L2275.34 1464.59 L2275.34 1458.95 L2293.31 1431.58 Z" fill="#000000" fill-rule="evenodd" fill-opacity="1" /><path clip-path="url(#clip970)" d="M1261.98 1516.7 L1261.98 1529.59 L1277.33 1529.59 L1277.33 1535.38 L1261.98 1535.38 L1261.98 1560.01 Q1261.98 1565.56 1263.48 1567.14 Q1265.02 1568.72 1269.68 1568.72 L1277.33 1568.72 L1277.33 1574.96 L1269.68 1574.96 Q1261.05 1574.96 1257.77 1571.76 Q1254.49 1568.51 1254.49 1560.01 L1254.49 1535.38 L1249.02 1535.38 L1249.02 1529.59 L1254.49 1529.59 L1254.49 1516.7 L1261.98 1516.7 Z" fill="#000000" fill-rule="evenodd" fill-opacity="1" /><polyline clip-path="url(#clip972)" style="stroke:#000000; stroke-linecap:butt; stroke-linejoin:round; stroke-width:2; stroke-opacity:0.1; fill:none" points="
  173.595,1244.92 2352.76,1244.92 
  "/>
<polyline clip-path="url(#clip972)" style="stroke:#000000; stroke-linecap:butt; stroke-linejoin:round; stroke-width:2; stroke-opacity:0.1; fill:none" points="
  173.595,1013.05 2352.76,1013.05 
  "/>
<polyline clip-path="url(#clip972)" style="stroke:#000000; stroke-linecap:butt; stroke-linejoin:round; stroke-width:2; stroke-opacity:0.1; fill:none" points="
  173.595,781.184 2352.76,781.184 
  "/>
<polyline clip-path="url(#clip972)" style="stroke:#000000; stroke-linecap:butt; stroke-linejoin:round; stroke-width:2; stroke-opacity:0.1; fill:none" points="
  173.595,549.314 2352.76,549.314 
  "/>
<polyline clip-path="url(#clip972)" style="stroke:#000000; stroke-linecap:butt; stroke-linejoin:round; stroke-width:2; stroke-opacity:0.1; fill:none" points="
  173.595,317.444 2352.76,317.444 
  "/>
<polyline clip-path="url(#clip972)" style="stroke:#000000; stroke-linecap:butt; stroke-linejoin:round; stroke-width:2; stroke-opacity:0.1; fill:none" points="
  173.595,85.5744 2352.76,85.5744 
  "/>
<polyline clip-path="url(#clip970)" style="stroke:#000000; stroke-linecap:butt; stroke-linejoin:round; stroke-width:4; stroke-opacity:1; fill:none" points="
  173.595,1401.58 173.595,47.2441 
  "/>
<polyline clip-path="url(#clip970)" style="stroke:#000000; stroke-linecap:butt; stroke-linejoin:round; stroke-width:4; stroke-opacity:1; fill:none" points="
  173.595,1244.92 192.492,1244.92 
  "/>
<polyline clip-path="url(#clip970)" style="stroke:#000000; stroke-linecap:butt; stroke-linejoin:round; stroke-width:4; stroke-opacity:1; fill:none" points="
  173.595,1013.05 192.492,1013.05 
  "/>
<polyline clip-path="url(#clip970)" style="stroke:#000000; stroke-linecap:butt; stroke-linejoin:round; stroke-width:4; stroke-opacity:1; fill:none" points="
  173.595,781.184 192.492,781.184 
  "/>
<polyline clip-path="url(#clip970)" style="stroke:#000000; stroke-linecap:butt; stroke-linejoin:round; stroke-width:4; stroke-opacity:1; fill:none" points="
  173.595,549.314 192.492,549.314 
  "/>
<polyline clip-path="url(#clip970)" style="stroke:#000000; stroke-linecap:butt; stroke-linejoin:round; stroke-width:4; stroke-opacity:1; fill:none" points="
  173.595,317.444 192.492,317.444 
  "/>
<polyline clip-path="url(#clip970)" style="stroke:#000000; stroke-linecap:butt; stroke-linejoin:round; stroke-width:4; stroke-opacity:1; fill:none" points="
  173.595,85.5744 192.492,85.5744 
  "/>
<path clip-path="url(#clip970)" d="M67.3694 1227.17 Q62.8555 1227.17 60.5696 1231.63 Q58.3127 1236.06 58.3127 1244.97 Q58.3127 1253.85 60.5696 1258.31 Q62.8555 1262.73 67.3694 1262.73 Q71.9122 1262.73 74.1691 1258.31 Q76.455 1253.85 76.455 1244.97 Q76.455 1236.06 74.1691 1231.63 Q71.9122 1227.17 67.3694 1227.17 M67.3694 1222.54 Q74.632 1222.54 78.4515 1228.3 Q82.2998 1234.03 82.2998 1244.97 Q82.2998 1255.88 78.4515 1261.63 Q74.632 1267.36 67.3694 1267.36 Q60.1067 1267.36 56.2583 1261.63 Q52.4389 1255.88 52.4389 1244.97 Q52.4389 1234.03 56.2583 1228.3 Q60.1067 1222.54 67.3694 1222.54 Z" fill="#000000" fill-rule="evenodd" fill-opacity="1" /><path clip-path="url(#clip970)" d="M92.5718 1259.17 L98.6771 1259.17 L98.6771 1266.52 L92.5718 1266.52 L92.5718 1259.17 Z" fill="#000000" fill-rule="evenodd" fill-opacity="1" /><path clip-path="url(#clip970)" d="M111.466 1223.32 L134.412 1223.32 L134.412 1228.24 L116.819 1228.24 L116.819 1238.83 Q118.092 1238.4 119.366 1238.2 Q120.639 1237.97 121.912 1237.97 Q129.146 1237.97 133.37 1241.93 Q137.595 1245.89 137.595 1252.66 Q137.595 1259.64 133.254 1263.52 Q128.914 1267.36 121.015 1267.36 Q118.295 1267.36 115.459 1266.9 Q112.653 1266.44 109.643 1265.51 L109.643 1259.64 Q112.248 1261.06 115.025 1261.75 Q117.803 1262.44 120.899 1262.44 Q125.905 1262.44 128.827 1259.81 Q131.75 1257.18 131.75 1252.66 Q131.75 1248.15 128.827 1245.52 Q125.905 1242.88 120.899 1242.88 Q118.555 1242.88 116.212 1243.41 Q113.897 1243.93 111.466 1245.03 L111.466 1223.32 Z" fill="#000000" fill-rule="evenodd" fill-opacity="1" /><path clip-path="url(#clip970)" d="M65.9226 995.303 Q61.4087 995.303 59.1229 999.759 Q56.8659 1004.19 56.8659 1013.1 Q56.8659 1021.98 59.1229 1026.44 Q61.4087 1030.86 65.9226 1030.86 Q70.4654 1030.86 72.7223 1026.44 Q75.0082 1021.98 75.0082 1013.1 Q75.0082 1004.19 72.7223 999.759 Q70.4654 995.303 65.9226 995.303 M65.9226 990.673 Q73.1853 990.673 77.0047 996.431 Q80.8531 1002.16 80.8531 1013.1 Q80.8531 1024.01 77.0047 1029.76 Q73.1853 1035.49 65.9226 1035.49 Q58.6599 1035.49 54.8115 1029.76 Q50.9921 1024.01 50.9921 1013.1 Q50.9921 1002.16 54.8115 996.431 Q58.6599 990.673 65.9226 990.673 Z" fill="#000000" fill-rule="evenodd" fill-opacity="1" /><path clip-path="url(#clip970)" d="M91.125 1027.3 L97.2303 1027.3 L97.2303 1034.65 L91.125 1034.65 L91.125 1027.3 Z" fill="#000000" fill-rule="evenodd" fill-opacity="1" /><path clip-path="url(#clip970)" d="M123.185 1010.73 Q119.25 1010.73 116.935 1013.42 Q114.649 1016.11 114.649 1020.79 Q114.649 1025.45 116.935 1028.17 Q119.25 1030.86 123.185 1030.86 Q127.12 1030.86 129.406 1028.17 Q131.721 1025.45 131.721 1020.79 Q131.721 1016.11 129.406 1013.42 Q127.12 1010.73 123.185 1010.73 M134.788 992.409 L134.788 997.733 Q132.589 996.692 130.332 996.142 Q128.104 995.592 125.905 995.592 Q120.118 995.592 117.051 999.498 Q114.013 1003.4 113.579 1011.3 Q115.286 1008.79 117.861 1007.46 Q120.436 1006.1 123.532 1006.1 Q130.043 1006.1 133.804 1010.06 Q137.595 1013.99 137.595 1020.79 Q137.595 1027.45 133.66 1031.47 Q129.724 1035.49 123.185 1035.49 Q115.691 1035.49 111.727 1029.76 Q107.763 1024.01 107.763 1013.1 Q107.763 1002.85 112.624 996.778 Q117.485 990.673 125.673 990.673 Q127.873 990.673 130.1 991.107 Q132.357 991.541 134.788 992.409 Z" fill="#000000" fill-rule="evenodd" fill-opacity="1" /><path clip-path="url(#clip970)" d="M67.2536 763.433 Q62.7397 763.433 60.4539 767.889 Q58.1969 772.316 58.1969 781.228 Q58.1969 790.111 60.4539 794.567 Q62.7397 798.994 67.2536 798.994 Q71.7964 798.994 74.0533 794.567 Q76.3392 790.111 76.3392 781.228 Q76.3392 772.316 74.0533 767.889 Q71.7964 763.433 67.2536 763.433 M67.2536 758.803 Q74.5163 758.803 78.3357 764.561 Q82.1841 770.29 82.1841 781.228 Q82.1841 792.136 78.3357 797.894 Q74.5163 803.623 67.2536 803.623 Q59.9909 803.623 56.1426 797.894 Q52.3231 792.136 52.3231 781.228 Q52.3231 770.29 56.1426 764.561 Q59.9909 758.803 67.2536 758.803 Z" fill="#000000" fill-rule="evenodd" fill-opacity="1" /><path clip-path="url(#clip970)" d="M92.456 795.435 L98.5613 795.435 L98.5613 802.784 L92.456 802.784 L92.456 795.435 Z" fill="#000000" fill-rule="evenodd" fill-opacity="1" /><path clip-path="url(#clip970)" d="M109.817 759.584 L137.595 759.584 L137.595 762.073 L121.912 802.784 L115.807 802.784 L130.563 764.503 L109.817 764.503 L109.817 759.584 Z" fill="#000000" fill-rule="evenodd" fill-opacity="1" /><path clip-path="url(#clip970)" d="M66.2409 531.563 Q61.727 531.563 59.4412 536.019 Q57.1842 540.446 57.1842 549.358 Q57.1842 558.241 59.4412 562.697 Q61.727 567.124 66.2409 567.124 Q70.7837 567.124 73.0406 562.697 Q75.3265 558.241 75.3265 549.358 Q75.3265 540.446 73.0406 536.019 Q70.7837 531.563 66.2409 531.563 M66.2409 526.933 Q73.5036 526.933 77.323 532.691 Q81.1714 538.42 81.1714 549.358 Q81.1714 560.266 77.323 566.024 Q73.5036 571.753 66.2409 571.753 Q58.9782 571.753 55.1298 566.024 Q51.3104 560.266 51.3104 549.358 Q51.3104 538.42 55.1298 532.691 Q58.9782 526.933 66.2409 526.933 Z" fill="#000000" fill-rule="evenodd" fill-opacity="1" /><path clip-path="url(#clip970)" d="M91.4433 563.565 L97.5486 563.565 L97.5486 570.914 L91.4433 570.914 L91.4433 563.565 Z" fill="#000000" fill-rule="evenodd" fill-opacity="1" /><path clip-path="url(#clip970)" d="M122.78 550.399 Q118.613 550.399 116.212 552.627 Q113.839 554.855 113.839 558.762 Q113.839 562.668 116.212 564.896 Q118.613 567.124 122.78 567.124 Q126.947 567.124 129.348 564.896 Q131.75 562.639 131.75 558.762 Q131.75 554.855 129.348 552.627 Q126.976 550.399 122.78 550.399 M116.935 547.911 Q113.174 546.985 111.061 544.41 Q108.978 541.835 108.978 538.131 Q108.978 532.952 112.653 529.942 Q116.356 526.933 122.78 526.933 Q129.232 526.933 132.907 529.942 Q136.582 532.952 136.582 538.131 Q136.582 541.835 134.47 544.41 Q132.386 546.985 128.654 547.911 Q132.878 548.895 135.222 551.759 Q137.595 554.624 137.595 558.762 Q137.595 565.041 133.746 568.397 Q129.927 571.753 122.78 571.753 Q115.633 571.753 111.785 568.397 Q107.965 565.041 107.965 558.762 Q107.965 554.624 110.338 551.759 Q112.711 548.895 116.935 547.911 M114.794 538.681 Q114.794 542.037 116.877 543.918 Q118.989 545.799 122.78 545.799 Q126.541 545.799 128.654 543.918 Q130.795 542.037 130.795 538.681 Q130.795 535.324 128.654 533.444 Q126.541 531.563 122.78 531.563 Q118.989 531.563 116.877 533.444 Q114.794 535.324 114.794 538.681 Z" fill="#000000" fill-rule="evenodd" fill-opacity="1" /><path clip-path="url(#clip970)" d="M66.3566 299.693 Q61.8428 299.693 59.5569 304.149 Q57.3 308.576 57.3 317.488 Q57.3 326.371 59.5569 330.827 Q61.8428 335.254 66.3566 335.254 Q70.8994 335.254 73.1564 330.827 Q75.4422 326.371 75.4422 317.488 Q75.4422 308.576 73.1564 304.149 Q70.8994 299.693 66.3566 299.693 M66.3566 295.063 Q73.6193 295.063 77.4387 300.821 Q81.2871 306.55 81.2871 317.488 Q81.2871 328.396 77.4387 334.154 Q73.6193 339.883 66.3566 339.883 Q59.0939 339.883 55.2456 334.154 Q51.4262 328.396 51.4262 317.488 Q51.4262 306.55 55.2456 300.821 Q59.0939 295.063 66.3566 295.063 Z" fill="#000000" fill-rule="evenodd" fill-opacity="1" /><path clip-path="url(#clip970)" d="M91.559 331.695 L97.6643 331.695 L97.6643 339.044 L91.559 339.044 L91.559 331.695 Z" fill="#000000" fill-rule="evenodd" fill-opacity="1" /><path clip-path="url(#clip970)" d="M110.569 338.147 L110.569 332.823 Q112.768 333.865 115.025 334.415 Q117.282 334.965 119.452 334.965 Q125.239 334.965 128.278 331.087 Q131.345 327.181 131.779 319.253 Q130.1 321.741 127.525 323.072 Q124.95 324.403 121.825 324.403 Q115.344 324.403 111.553 320.497 Q107.792 316.562 107.792 309.762 Q107.792 303.107 111.727 299.085 Q115.662 295.063 122.201 295.063 Q129.695 295.063 133.631 300.821 Q137.595 306.55 137.595 317.488 Q137.595 327.702 132.734 333.807 Q127.901 339.883 119.713 339.883 Q117.514 339.883 115.257 339.449 Q113 339.015 110.569 338.147 M122.201 319.831 Q126.136 319.831 128.422 317.141 Q130.737 314.45 130.737 309.762 Q130.737 305.104 128.422 302.413 Q126.136 299.693 122.201 299.693 Q118.266 299.693 115.951 302.413 Q113.665 305.104 113.665 309.762 Q113.665 314.45 115.951 317.141 Q118.266 319.831 122.201 319.831 Z" fill="#000000" fill-rule="evenodd" fill-opacity="1" /><path clip-path="url(#clip970)" d="M54.6379 102.255 L64.1865 102.255 L64.1865 69.2984 L53.7988 71.3817 L53.7988 66.0577 L64.1286 63.9744 L69.9735 63.9744 L69.9735 102.255 L79.5221 102.255 L79.5221 107.174 L54.6379 107.174 L54.6379 102.255 Z" fill="#000000" fill-rule="evenodd" fill-opacity="1" /><path clip-path="url(#clip970)" d="M91.3276 99.8249 L97.4328 99.8249 L97.4328 107.174 L91.3276 107.174 L91.3276 99.8249 Z" fill="#000000" fill-rule="evenodd" fill-opacity="1" /><path clip-path="url(#clip970)" d="M122.664 67.8227 Q118.15 67.8227 115.864 72.2787 Q113.608 76.7058 113.608 85.6178 Q113.608 94.5008 115.864 98.9568 Q118.15 103.384 122.664 103.384 Q127.207 103.384 129.464 98.9568 Q131.75 94.5008 131.75 85.6178 Q131.75 76.7058 129.464 72.2787 Q127.207 67.8227 122.664 67.8227 M122.664 63.1931 Q129.927 63.1931 133.746 68.9512 Q137.595 74.6803 137.595 85.6178 Q137.595 96.5263 133.746 102.284 Q129.927 108.013 122.664 108.013 Q115.402 108.013 111.553 102.284 Q107.734 96.5263 107.734 85.6178 Q107.734 74.6803 111.553 68.9512 Q115.402 63.1931 122.664 63.1931 Z" fill="#000000" fill-rule="evenodd" fill-opacity="1" /><polyline clip-path="url(#clip972)" style="stroke:#009af9; stroke-linecap:butt; stroke-linejoin:round; stroke-width:12; stroke-opacity:1; fill:none" points="
  235.269,85.5744 255.827,104.068 276.385,122.415 296.943,140.615 317.502,158.67 338.06,176.581 358.618,194.349 379.176,211.976 399.734,229.462 420.292,246.808 
  440.85,264.016 461.408,281.087 481.967,298.021 502.525,314.821 523.083,331.486 543.641,348.019 564.199,364.42 584.757,380.69 605.315,396.83 625.873,412.841 
  646.432,428.725 666.99,444.482 687.548,460.114 708.106,475.62 728.664,491.003 749.222,506.264 769.78,521.402 790.338,536.42 810.897,551.318 831.455,566.097 
  852.013,580.759 872.571,595.303 893.129,609.731 913.687,624.045 934.245,638.244 954.803,652.33 975.362,666.303 995.92,680.166 1016.48,693.917 1037.04,707.559 
  1057.59,721.092 1078.15,734.517 1098.71,747.835 1119.27,761.047 1139.83,774.153 1160.38,787.155 1180.94,800.054 1201.5,812.849 1222.06,825.542 1242.62,838.134 
  1263.18,850.626 1283.73,863.018 1304.29,875.311 1324.85,887.506 1345.41,899.604 1365.97,911.605 1386.52,923.511 1407.08,935.321 1427.64,947.038 1448.2,958.661 
  1468.76,970.191 1489.31,981.629 1509.87,992.976 1530.43,1004.23 1550.99,1015.4 1571.55,1026.48 1592.11,1037.47 1612.66,1048.37 1633.22,1059.18 1653.78,1069.91 
  1674.34,1080.55 1694.9,1091.11 1715.45,1101.59 1736.01,1111.98 1756.57,1122.28 1777.13,1132.51 1797.69,1142.65 1818.24,1152.72 1838.8,1162.7 1859.36,1172.6 
  1879.92,1182.42 1900.48,1192.17 1921.04,1201.84 1941.59,1211.43 1962.15,1220.94 1982.71,1230.38 2003.27,1239.74 2023.83,1249.03 2044.38,1258.25 2064.94,1267.39 
  2085.5,1276.46 2106.06,1285.45 2126.62,1294.37 2147.17,1303.23 2167.73,1312.01 2188.29,1320.72 2208.85,1329.36 2229.41,1337.94 2249.97,1346.44 2270.52,1354.88 
  2291.08,1363.25 
  "/>
<path clip-path="url(#clip970)" d="
M1836.54 221.989 L2280.12 221.989 L2280.12 92.3886 L1836.54 92.3886  Z
  " fill="#ffffff" fill-rule="evenodd" fill-opacity="1"/>
<polyline clip-path="url(#clip970)" style="stroke:#000000; stroke-linecap:butt; stroke-linejoin:round; stroke-width:4; stroke-opacity:1; fill:none" points="
  1836.54,221.989 2280.12,221.989 2280.12,92.3886 1836.54,92.3886 1836.54,221.989 
  "/>
<polyline clip-path="url(#clip970)" style="stroke:#009af9; stroke-linecap:butt; stroke-linejoin:round; stroke-width:5; stroke-opacity:1; fill:none" points="
  1860.76,157.189 2006.03,157.189 
  "/>
<path clip-path="url(#clip970)" d="M2060.28 161.254 L2060.28 163.858 L2035.8 163.858 Q2036.15 169.356 2039.1 172.249 Q2042.08 175.114 2047.38 175.114 Q2050.44 175.114 2053.31 174.362 Q2056.2 173.609 2059.04 172.105 L2059.04 177.139 Q2056.17 178.355 2053.16 178.991 Q2050.15 179.628 2047.06 179.628 Q2039.3 179.628 2034.76 175.114 Q2030.25 170.6 2030.25 162.903 Q2030.25 154.946 2034.53 150.288 Q2038.84 145.6 2046.13 145.6 Q2052.67 145.6 2056.46 149.825 Q2060.28 154.02 2060.28 161.254 M2054.96 159.691 Q2054.9 155.322 2052.5 152.718 Q2050.12 150.114 2046.19 150.114 Q2041.73 150.114 2039.04 152.631 Q2036.38 155.149 2035.97 159.72 L2054.96 159.691 Z" fill="#000000" fill-rule="evenodd" fill-opacity="1" /><path clip-path="url(#clip970)" d="M2095.96 159.229 L2095.96 178.789 L2090.63 178.789 L2090.63 159.402 Q2090.63 154.801 2088.84 152.516 Q2087.05 150.23 2083.46 150.23 Q2079.15 150.23 2076.66 152.979 Q2074.17 155.727 2074.17 160.473 L2074.17 178.789 L2068.82 178.789 L2068.82 146.381 L2074.17 146.381 L2074.17 151.416 Q2076.08 148.494 2078.65 147.047 Q2081.26 145.6 2084.64 145.6 Q2090.23 145.6 2093.09 149.072 Q2095.96 152.516 2095.96 159.229 Z" fill="#000000" fill-rule="evenodd" fill-opacity="1" /><path clip-path="url(#clip970)" d="M2134.3 161.254 L2134.3 163.858 L2109.82 163.858 Q2110.16 169.356 2113.12 172.249 Q2116.1 175.114 2121.39 175.114 Q2124.46 175.114 2127.32 174.362 Q2130.22 173.609 2133.05 172.105 L2133.05 177.139 Q2130.19 178.355 2127.18 178.991 Q2124.17 179.628 2121.07 179.628 Q2113.32 179.628 2108.78 175.114 Q2104.26 170.6 2104.26 162.903 Q2104.26 154.946 2108.54 150.288 Q2112.86 145.6 2120.15 145.6 Q2126.69 145.6 2130.48 149.825 Q2134.3 154.02 2134.3 161.254 M2128.97 159.691 Q2128.91 155.322 2126.51 152.718 Q2124.14 150.114 2120.2 150.114 Q2115.75 150.114 2113.06 152.631 Q2110.4 155.149 2109.99 159.72 L2128.97 159.691 Z" fill="#000000" fill-rule="evenodd" fill-opacity="1" /><path clip-path="url(#clip970)" d="M2161.81 151.358 Q2160.92 150.837 2159.85 150.606 Q2158.8 150.345 2157.53 150.345 Q2153.02 150.345 2150.59 153.297 Q2148.18 156.219 2148.18 161.717 L2148.18 178.789 L2142.83 178.789 L2142.83 146.381 L2148.18 146.381 L2148.18 151.416 Q2149.86 148.465 2152.55 147.047 Q2155.25 145.6 2159.09 145.6 Q2159.64 145.6 2160.31 145.687 Q2160.97 145.745 2161.78 145.889 L2161.81 151.358 Z" fill="#000000" fill-rule="evenodd" fill-opacity="1" /><path clip-path="url(#clip970)" d="M2187.68 162.209 Q2187.68 156.422 2185.28 153.239 Q2182.91 150.056 2178.6 150.056 Q2174.31 150.056 2171.91 153.239 Q2169.54 156.422 2169.54 162.209 Q2169.54 167.967 2171.91 171.15 Q2174.31 174.333 2178.6 174.333 Q2182.91 174.333 2185.28 171.15 Q2187.68 167.967 2187.68 162.209 M2193.01 174.767 Q2193.01 183.042 2189.33 187.064 Q2185.66 191.115 2178.07 191.115 Q2175.27 191.115 2172.78 190.681 Q2170.29 190.276 2167.95 189.408 L2167.95 184.228 Q2170.29 185.502 2172.58 186.109 Q2174.86 186.717 2177.24 186.717 Q2182.47 186.717 2185.08 183.968 Q2187.68 181.248 2187.68 175.722 L2187.68 173.088 Q2186.03 175.953 2183.46 177.371 Q2180.88 178.789 2177.29 178.789 Q2171.33 178.789 2167.69 174.246 Q2164.04 169.703 2164.04 162.209 Q2164.04 154.686 2167.69 150.143 Q2171.33 145.6 2177.29 145.6 Q2180.88 145.6 2183.46 147.018 Q2186.03 148.436 2187.68 151.3 L2187.68 146.381 L2193.01 146.381 L2193.01 174.767 Z" fill="#000000" fill-rule="evenodd" fill-opacity="1" /><path clip-path="url(#clip970)" d="M2217.46 181.798 Q2215.2 187.585 2213.06 189.35 Q2210.92 191.115 2207.33 191.115 L2203.07 191.115 L2203.07 186.659 L2206.2 186.659 Q2208.4 186.659 2209.61 185.617 Q2210.83 184.576 2212.3 180.698 L2213.26 178.268 L2200.15 146.381 L2205.79 146.381 L2215.92 171.728 L2226.05 146.381 L2231.69 146.381 L2217.46 181.798 Z" fill="#000000" fill-rule="evenodd" fill-opacity="1" /></svg>
