<?xml version="1.0" encoding="utf-8"?>
<svg xmlns="http://www.w3.org/2000/svg" xmlns:xlink="http://www.w3.org/1999/xlink" width="600" height="400" viewBox="0 0 2400 1600">
<defs>
  <clipPath id="clip060">
    <rect x="0" y="0" width="2400" height="1600"/>
  </clipPath>
</defs>
<path clip-path="url(#clip060)" d="
M0 1600 L2400 1600 L2400 0 L0 0  Z
  " fill="#ffffff" fill-rule="evenodd" fill-opacity="1"/>
<defs>
  <clipPath id="clip061">
    <rect x="480" y="0" width="1681" height="1600"/>
  </clipPath>
</defs>
<path clip-path="url(#clip060)" d="
M164.741 1401.58 L2352.76 1401.58 L2352.76 47.2441 L164.741 47.2441  Z
  " fill="#ffffff" fill-rule="evenodd" fill-opacity="1"/>
<defs>
  <clipPath id="clip062">
    <rect x="164" y="47" width="2189" height="1355"/>
  </clipPath>
</defs>
<polyline clip-path="url(#clip062)" style="stroke:#000000; stroke-linecap:butt; stroke-linejoin:round; stroke-width:2; stroke-opacity:0.1; fill:none" points="
  273.92,1401.58 273.92,47.2441 
  "/>
<polyline clip-path="url(#clip062)" style="stroke:#000000; stroke-linecap:butt; stroke-linejoin:round; stroke-width:2; stroke-opacity:0.1; fill:none" points="
  607.657,1401.58 607.657,47.2441 
  "/>
<polyline clip-path="url(#clip062)" style="stroke:#000000; stroke-linecap:butt; stroke-linejoin:round; stroke-width:2; stroke-opacity:0.1; fill:none" points="
  941.394,1401.58 941.394,47.2441 
  "/>
<polyline clip-path="url(#clip062)" style="stroke:#000000; stroke-linecap:butt; stroke-linejoin:round; stroke-width:2; stroke-opacity:0.1; fill:none" points="
  1275.13,1401.58 1275.13,47.2441 
  "/>
<polyline clip-path="url(#clip062)" style="stroke:#000000; stroke-linecap:butt; stroke-linejoin:round; stroke-width:2; stroke-opacity:0.1; fill:none" points="
  1608.87,1401.58 1608.87,47.2441 
  "/>
<polyline clip-path="url(#clip062)" style="stroke:#000000; stroke-linecap:butt; stroke-linejoin:round; stroke-width:2; stroke-opacity:0.1; fill:none" points="
  1942.6,1401.58 1942.6,47.2441 
  "/>
<polyline clip-path="url(#clip062)" style="stroke:#000000; stroke-linecap:butt; stroke-linejoin:round; stroke-width:2; stroke-opacity:0.1; fill:none" points="
  2276.34,1401.58 2276.34,47.2441 
  "/>
<polyline clip-path="url(#clip060)" style="stroke:#000000; stroke-linecap:butt; stroke-linejoin:round; stroke-width:4; stroke-opacity:1; fill:none" points="
  164.741,1401.58 2352.76,1401.58 
  "/>
<polyline clip-path="url(#clip060)" style="stroke:#000000; stroke-linecap:butt; stroke-linejoin:round; stroke-width:4; stroke-opacity:1; fill:none" points="
  273.92,1401.58 273.92,1382.68 
  "/>
<polyline clip-path="url(#clip060)" style="stroke:#000000; stroke-linecap:butt; stroke-linejoin:round; stroke-width:4; stroke-opacity:1; fill:none" points="
  607.657,1401.58 607.657,1382.68 
  "/>
<polyline clip-path="url(#clip060)" style="stroke:#000000; stroke-linecap:butt; stroke-linejoin:round; stroke-width:4; stroke-opacity:1; fill:none" points="
  941.394,1401.58 941.394,1382.68 
  "/>
<polyline clip-path="url(#clip060)" style="stroke:#000000; stroke-linecap:butt; stroke-linejoin:round; stroke-width:4; stroke-opacity:1; fill:none" points="
  1275.13,1401.58 1275.13,1382.68 
  "/>
<polyline clip-path="url(#clip060)" style="stroke:#000000; stroke-linecap:butt; stroke-linejoin:round; stroke-width:4; stroke-opacity:1; fill:none" points="
  1608.87,1401.58 1608.87,1382.68 
  "/>
<polyline clip-path="url(#clip060)" style="stroke:#000000; stroke-linecap:butt; stroke-linejoin:round; stroke-width:4; stroke-opacity:1; fill:none" points="
  1942.6,1401.58 1942.6,1382.68 
  "/>
<polyline clip-path="url(#clip060)" style="stroke:#000000; stroke-linecap:butt; stroke-linejoin:round; stroke-width:4; stroke-opacity:1; fill:none" points="
  2276.34,1401.58 2276.34,1382.68 
  "/>
<path clip-path="url(#clip060)" d="M235.755 1453.74 L272.85 1453.74 L272.85 1458.66 L235.755 1458.66 L235.755 1453.74 Z" fill="#000000" fill-rule="evenodd" fill-opacity="1" /><path clip-path="url(#clip060)" d="M303.174 1451.49 Q307.369 1452.38 309.713 1455.22 Q312.085 1458.06 312.085 1462.22 Q312.085 1468.62 307.687 1472.12 Q303.289 1475.62 295.187 1475.62 Q292.468 1475.62 289.574 1475.07 Q286.709 1474.55 283.642 1473.48 L283.642 1467.84 Q286.073 1469.25 288.966 1469.98 Q291.86 1470.7 295.014 1470.7 Q300.511 1470.7 303.376 1468.53 Q306.27 1466.36 306.27 1462.22 Q306.27 1458.4 303.579 1456.26 Q300.917 1454.09 296.142 1454.09 L291.108 1454.09 L291.108 1449.29 L296.374 1449.29 Q300.685 1449.29 302.971 1447.58 Q305.257 1445.84 305.257 1442.6 Q305.257 1439.28 302.884 1437.51 Q300.54 1435.72 296.142 1435.72 Q293.741 1435.72 290.992 1436.24 Q288.243 1436.76 284.944 1437.86 L284.944 1432.65 Q288.272 1431.72 291.165 1431.26 Q294.088 1430.8 296.663 1430.8 Q303.318 1430.8 307.195 1433.84 Q311.073 1436.85 311.073 1442 Q311.073 1445.58 309.018 1448.07 Q306.964 1450.53 303.174 1451.49 Z" fill="#000000" fill-rule="evenodd" fill-opacity="1" /><path clip-path="url(#clip060)" d="M570.085 1453.74 L607.18 1453.74 L607.18 1458.66 L570.085 1458.66 L570.085 1453.74 Z" fill="#000000" fill-rule="evenodd" fill-opacity="1" /><path clip-path="url(#clip060)" d="M624.83 1469.86 L645.229 1469.86 L645.229 1474.78 L617.799 1474.78 L617.799 1469.86 Q621.126 1466.42 626.855 1460.63 Q632.613 1454.81 634.089 1453.14 Q636.896 1449.98 637.995 1447.81 Q639.124 1445.61 639.124 1443.5 Q639.124 1440.06 636.693 1437.89 Q634.292 1435.72 630.414 1435.72 Q627.666 1435.72 624.598 1436.67 Q621.56 1437.63 618.088 1439.57 L618.088 1433.66 Q621.618 1432.25 624.685 1431.52 Q627.752 1430.8 630.299 1430.8 Q637.012 1430.8 641.005 1434.16 Q644.998 1437.51 644.998 1443.12 Q644.998 1445.79 643.985 1448.19 Q643.001 1450.56 640.368 1453.8 Q639.645 1454.64 635.767 1458.66 Q631.89 1462.66 624.83 1469.86 Z" fill="#000000" fill-rule="evenodd" fill-opacity="1" /><path clip-path="url(#clip060)" d="M903.59 1453.74 L940.685 1453.74 L940.685 1458.66 L903.59 1458.66 L903.59 1453.74 Z" fill="#000000" fill-rule="evenodd" fill-opacity="1" /><path clip-path="url(#clip060)" d="M954.313 1469.86 L963.862 1469.86 L963.862 1436.9 L953.474 1438.99 L953.474 1433.66 L963.804 1431.58 L969.649 1431.58 L969.649 1469.86 L979.197 1469.86 L979.197 1474.78 L954.313 1474.78 L954.313 1469.86 Z" fill="#000000" fill-rule="evenodd" fill-opacity="1" /><path clip-path="url(#clip060)" d="M1275.13 1435.43 Q1270.62 1435.43 1268.33 1439.88 Q1266.07 1444.31 1266.07 1453.22 Q1266.07 1462.11 1268.33 1466.56 Q1270.62 1470.99 1275.13 1470.99 Q1279.67 1470.99 1281.93 1466.56 Q1284.22 1462.11 1284.22 1453.22 Q1284.22 1444.31 1281.93 1439.88 Q1279.67 1435.43 1275.13 1435.43 M1275.13 1430.8 Q1282.39 1430.8 1286.21 1436.56 Q1290.06 1442.29 1290.06 1453.22 Q1290.06 1464.13 1286.21 1469.89 Q1282.39 1475.62 1275.13 1475.62 Q1267.87 1475.62 1264.02 1469.89 Q1260.2 1464.13 1260.2 1453.22 Q1260.2 1442.29 1264.02 1436.56 Q1267.87 1430.8 1275.13 1430.8 Z" fill="#000000" fill-rule="evenodd" fill-opacity="1" /><path clip-path="url(#clip060)" d="M1596.84 1469.86 L1606.39 1469.86 L1606.39 1436.9 L1596.01 1438.99 L1596.01 1433.66 L1606.34 1431.58 L1612.18 1431.58 L1612.18 1469.86 L1621.73 1469.86 L1621.73 1474.78 L1596.84 1474.78 L1596.84 1469.86 Z" fill="#000000" fill-rule="evenodd" fill-opacity="1" /><path clip-path="url(#clip060)" d="M1935.92 1469.86 L1956.32 1469.86 L1956.32 1474.78 L1928.89 1474.78 L1928.89 1469.86 Q1932.22 1466.42 1937.95 1460.63 Q1943.7 1454.81 1945.18 1453.14 Q1947.99 1449.98 1949.09 1447.81 Q1950.21 1445.61 1950.21 1443.5 Q1950.21 1440.06 1947.78 1437.89 Q1945.38 1435.72 1941.5 1435.72 Q1938.76 1435.72 1935.69 1436.67 Q1932.65 1437.63 1929.18 1439.57 L1929.18 1433.66 Q1932.71 1432.25 1935.78 1431.52 Q1938.84 1430.8 1941.39 1430.8 Q1948.1 1430.8 1952.09 1434.16 Q1956.09 1437.51 1956.09 1443.12 Q1956.09 1445.79 1955.08 1448.19 Q1954.09 1450.56 1951.46 1453.8 Q1950.73 1454.64 1946.86 1458.66 Q1942.98 1462.66 1935.92 1469.86 Z" fill="#000000" fill-rule="evenodd" fill-opacity="1" /><path clip-path="url(#clip060)" d="M2281.65 1451.49 Q2285.85 1452.38 2288.19 1455.22 Q2290.56 1458.06 2290.56 1462.22 Q2290.56 1468.62 2286.16 1472.12 Q2281.77 1475.62 2273.66 1475.62 Q2270.94 1475.62 2268.05 1475.07 Q2265.19 1474.55 2262.12 1473.48 L2262.12 1467.84 Q2264.55 1469.25 2267.44 1469.98 Q2270.34 1470.7 2273.49 1470.7 Q2278.99 1470.7 2281.85 1468.53 Q2284.75 1466.36 2284.75 1462.22 Q2284.75 1458.4 2282.06 1456.26 Q2279.39 1454.09 2274.62 1454.09 L2269.58 1454.09 L2269.58 1449.29 L2274.85 1449.29 Q2279.16 1449.29 2281.45 1447.58 Q2283.73 1445.84 2283.73 1442.6 Q2283.73 1439.28 2281.36 1437.51 Q2279.02 1435.72 2274.62 1435.72 Q2272.22 1435.72 2269.47 1436.24 Q2266.72 1436.76 2263.42 1437.86 L2263.42 1432.65 Q2266.75 1431.72 2269.64 1431.26 Q2272.56 1430.8 2275.14 1430.8 Q2281.8 1430.8 2285.67 1433.84 Q2289.55 1436.85 2289.55 1442 Q2289.55 1445.58 2287.5 1448.07 Q2285.44 1450.53 2281.65 1451.49 Z" fill="#000000" fill-rule="evenodd" fill-opacity="1" /><path clip-path="url(#clip060)" d="M1279.89 1529.59 L1263.49 1551.66 L1280.74 1574.96 L1271.95 1574.96 L1258.75 1557.13 L1245.54 1574.96 L1236.75 1574.96 L1254.37 1551.22 L1238.25 1529.59 L1247.04 1529.59 L1259.07 1545.75 L1271.1 1529.59 L1279.89 1529.59 Z" fill="#000000" fill-rule="evenodd" fill-opacity="1" /><polyline clip-path="url(#clip062)" style="stroke:#000000; stroke-linecap:butt; stroke-linejoin:round; stroke-width:2; stroke-opacity:0.1; fill:none" points="
  164.741,1289.4 2352.76,1289.4 
  "/>
<polyline clip-path="url(#clip062)" style="stroke:#000000; stroke-linecap:butt; stroke-linejoin:round; stroke-width:2; stroke-opacity:0.1; fill:none" points="
  164.741,994.018 2352.76,994.018 
  "/>
<polyline clip-path="url(#clip062)" style="stroke:#000000; stroke-linecap:butt; stroke-linejoin:round; stroke-width:2; stroke-opacity:0.1; fill:none" points="
  164.741,698.632 2352.76,698.632 
  "/>
<polyline clip-path="url(#clip062)" style="stroke:#000000; stroke-linecap:butt; stroke-linejoin:round; stroke-width:2; stroke-opacity:0.1; fill:none" points="
  164.741,403.247 2352.76,403.247 
  "/>
<polyline clip-path="url(#clip062)" style="stroke:#000000; stroke-linecap:butt; stroke-linejoin:round; stroke-width:2; stroke-opacity:0.1; fill:none" points="
  164.741,107.861 2352.76,107.861 
  "/>
<polyline clip-path="url(#clip060)" style="stroke:#000000; stroke-linecap:butt; stroke-linejoin:round; stroke-width:4; stroke-opacity:1; fill:none" points="
  164.741,1401.58 164.741,47.2441 
  "/>
<polyline clip-path="url(#clip060)" style="stroke:#000000; stroke-linecap:butt; stroke-linejoin:round; stroke-width:4; stroke-opacity:1; fill:none" points="
  164.741,1289.4 183.638,1289.4 
  "/>
<polyline clip-path="url(#clip060)" style="stroke:#000000; stroke-linecap:butt; stroke-linejoin:round; stroke-width:4; stroke-opacity:1; fill:none" points="
  164.741,994.018 183.638,994.018 
  "/>
<polyline clip-path="url(#clip060)" style="stroke:#000000; stroke-linecap:butt; stroke-linejoin:round; stroke-width:4; stroke-opacity:1; fill:none" points="
  164.741,698.632 183.638,698.632 
  "/>
<polyline clip-path="url(#clip060)" style="stroke:#000000; stroke-linecap:butt; stroke-linejoin:round; stroke-width:4; stroke-opacity:1; fill:none" points="
  164.741,403.247 183.638,403.247 
  "/>
<polyline clip-path="url(#clip060)" style="stroke:#000000; stroke-linecap:butt; stroke-linejoin:round; stroke-width:4; stroke-opacity:1; fill:none" points="
  164.741,107.861 183.638,107.861 
  "/>
<path clip-path="url(#clip060)" d="M50.9921 1289.97 L88.0868 1289.97 L88.0868 1294.89 L50.9921 1294.89 L50.9921 1289.97 Z" fill="#000000" fill-rule="evenodd" fill-opacity="1" /><path clip-path="url(#clip060)" d="M116.761 1272.9 L102.005 1295.96 L116.761 1295.96 L116.761 1272.9 M115.228 1267.8 L122.577 1267.8 L122.577 1295.96 L128.741 1295.96 L128.741 1300.82 L122.577 1300.82 L122.577 1311 L116.761 1311 L116.761 1300.82 L97.2592 1300.82 L97.2592 1295.18 L115.228 1267.8 Z" fill="#000000" fill-rule="evenodd" fill-opacity="1" /><path clip-path="url(#clip060)" d="M53.5963 994.582 L90.691 994.582 L90.691 999.501 L53.5963 999.501 L53.5963 994.582 Z" fill="#000000" fill-rule="evenodd" fill-opacity="1" /><path clip-path="url(#clip060)" d="M108.341 1010.7 L128.741 1010.7 L128.741 1015.62 L101.31 1015.62 L101.31 1010.7 Q104.638 1007.26 110.367 1001.47 Q116.125 995.653 117.601 993.974 Q120.407 990.82 121.507 988.65 Q122.635 986.451 122.635 984.339 Q122.635 980.896 120.205 978.726 Q117.803 976.555 113.926 976.555 Q111.177 976.555 108.11 977.51 Q105.072 978.465 101.599 980.404 L101.599 974.501 Q105.13 973.083 108.197 972.36 Q111.264 971.637 113.81 971.637 Q120.523 971.637 124.516 974.993 Q128.509 978.349 128.509 983.963 Q128.509 986.625 127.496 989.026 Q126.513 991.399 123.879 994.64 Q123.156 995.479 119.279 999.501 Q115.402 1003.49 108.341 1010.7 Z" fill="#000000" fill-rule="evenodd" fill-opacity="1" /><path clip-path="url(#clip060)" d="M113.81 680.881 Q109.296 680.881 107.01 685.337 Q104.753 689.764 104.753 698.676 Q104.753 707.559 107.01 712.015 Q109.296 716.442 113.81 716.442 Q118.353 716.442 120.61 712.015 Q122.896 707.559 122.896 698.676 Q122.896 689.764 120.61 685.337 Q118.353 680.881 113.81 680.881 M113.81 676.251 Q121.073 676.251 124.892 682.009 Q128.741 687.738 128.741 698.676 Q128.741 709.584 124.892 715.342 Q121.073 721.071 113.81 721.071 Q106.547 721.071 102.699 715.342 Q98.8796 709.584 98.8796 698.676 Q98.8796 687.738 102.699 682.009 Q106.547 676.251 113.81 676.251 Z" fill="#000000" fill-rule="evenodd" fill-opacity="1" /><path clip-path="url(#clip060)" d="M108.341 419.928 L128.741 419.928 L128.741 424.847 L101.31 424.847 L101.31 419.928 Q104.638 416.485 110.367 410.698 Q116.125 404.882 117.601 403.203 Q120.407 400.049 121.507 397.879 Q122.635 395.68 122.635 393.568 Q122.635 390.125 120.205 387.955 Q117.803 385.785 113.926 385.785 Q111.177 385.785 108.11 386.739 Q105.072 387.694 101.599 389.633 L101.599 383.73 Q105.13 382.312 108.197 381.589 Q111.264 380.866 113.81 380.866 Q120.523 380.866 124.516 384.222 Q128.509 387.578 128.509 393.192 Q128.509 395.854 127.496 398.256 Q126.513 400.628 123.879 403.869 Q123.156 404.708 119.279 408.73 Q115.402 412.723 108.341 419.928 Z" fill="#000000" fill-rule="evenodd" fill-opacity="1" /><path clip-path="url(#clip060)" d="M116.761 91.3539 L102.005 114.415 L116.761 114.415 L116.761 91.3539 M115.228 86.2613 L122.577 86.2613 L122.577 114.415 L128.741 114.415 L128.741 119.276 L122.577 119.276 L122.577 129.461 L116.761 129.461 L116.761 119.276 L97.2592 119.276 L97.2592 113.634 L115.228 86.2613 Z" fill="#000000" fill-rule="evenodd" fill-opacity="1" /><polyline clip-path="url(#clip062)" style="stroke:#009af9; stroke-linecap:butt; stroke-linejoin:round; stroke-width:12; stroke-opacity:1; fill:none" points="
  226.666,772.479 259.43,734.946 292.195,683.14 324.959,623.817 357.724,565.938 390.488,518.746 423.253,489.755 456.017,483.111 488.782,498.722 521.546,532.341 
  554.311,576.589 587.075,622.678 619.84,662.423 652.604,690.069 685.369,703.514 718.133,704.63 750.898,698.632 783.663,692.635 816.427,693.751 849.192,707.195 
  881.956,734.842 914.721,774.587 947.485,820.676 980.25,864.924 1013.01,898.542 1045.78,914.154 1078.54,907.51 1111.31,878.518 1144.07,831.327 1176.84,773.448 
  1209.6,714.125 1242.37,662.319 1275.13,624.786 1307.9,604.692 1340.66,601.086 1373.42,609.34 1406.19,622.458 1438.95,632.914 1471.72,634.609 1504.48,624.444 
  1537.25,603.157 1570.01,575.214 1602.78,547.775 1635.54,528.983 1668.3,525.973 1701.07,543.088 1733.83,580.712 1766.6,635.008 1799.36,698.632 1832.13,762.257 
  1864.89,816.553 1897.66,854.177 1930.42,871.292 1963.19,868.282 1995.95,849.489 2028.71,822.051 2061.48,794.108 2094.24,772.821 2127.01,762.655 2159.77,764.35 
  2192.54,774.807 2225.3,787.924 2258.07,796.179 2290.83,792.572 
  "/>
<polyline clip-path="url(#clip062)" style="stroke:#e26f46; stroke-linecap:butt; stroke-linejoin:round; stroke-width:12; stroke-opacity:1; fill:none" points="
  226.666,403.247 259.43,234.868 292.195,118.727 324.959,85.5744 357.724,148.637 390.488,300.287 423.253,513.56 456.017,748.188 488.782,959.719 521.546,1109.59 
  554.311,1173.81 587.075,1148.16 619.84,1048.8 652.604,908.045 685.369,766.399 718.133,662.709 750.898,624.786 783.663,662.709 816.427,766.399 849.192,908.045 
  881.956,1048.8 914.721,1148.16 947.485,1173.81 980.25,1109.59 1013.01,959.719 1045.78,748.188 1078.54,513.56 1111.31,300.287 1144.07,148.637 1176.84,85.5744 
  1209.6,118.727 1242.37,234.868 1275.13,403.247 1307.9,582.977 1340.66,732.737 1373.42,820.482 1406.19,830.889 1438.95,768.763 1471.72,657.627 1504.48,533.823 
  1537.25,437.546 1570.01,402.926 1602.78,449.534 1635.54,577.32 1668.3,766.202 1701.07,980.427 1733.83,1176.67 1766.6,1313.98 1799.36,1363.25 1832.13,1313.98 
  1864.89,1176.67 1897.66,980.427 1930.42,766.202 1963.19,577.32 1995.95,449.534 2028.71,402.926 2061.48,437.546 2094.24,533.823 2127.01,657.627 2159.77,768.763 
  2192.54,830.889 2225.3,820.482 2258.07,732.737 2290.83,582.977 
  "/>
<path clip-path="url(#clip060)" d="
M1887.52 286.789 L2279.82 286.789 L2279.82 92.3886 L1887.52 92.3886  Z
  " fill="#ffffff" fill-rule="evenodd" fill-opacity="1"/>
<polyline clip-path="url(#clip060)" style="stroke:#000000; stroke-linecap:butt; stroke-linejoin:round; stroke-width:4; stroke-opacity:1; fill:none" points="
  1887.52,286.789 2279.82,286.789 2279.82,92.3886 1887.52,92.3886 1887.52,286.789 
  "/>
<polyline clip-path="url(#clip060)" style="stroke:#009af9; stroke-linecap:butt; stroke-linejoin:round; stroke-width:5; stroke-opacity:1; fill:none" points="
  1911.83,157.189 2057.7,157.189 
  "/>
<path clip-path="url(#clip060)" d="M2082.01 165.999 L2082.01 146.381 L2087.33 146.381 L2087.33 165.797 Q2087.33 170.397 2089.13 172.712 Q2090.92 174.998 2094.51 174.998 Q2098.82 174.998 2101.31 172.249 Q2103.83 169.5 2103.83 164.755 L2103.83 146.381 L2109.15 146.381 L2109.15 178.789 L2103.83 178.789 L2103.83 173.812 Q2101.89 176.763 2099.31 178.21 Q2096.77 179.628 2093.38 179.628 Q2087.8 179.628 2084.9 176.156 Q2082.01 172.683 2082.01 165.999 M2095.41 145.6 L2095.41 145.6 Z" fill="#000000" fill-rule="evenodd" fill-opacity="1" /><polyline clip-path="url(#clip060)" style="stroke:#e26f46; stroke-linecap:butt; stroke-linejoin:round; stroke-width:5; stroke-opacity:1; fill:none" points="
  1911.83,221.989 2057.7,221.989 
  "/>
<path clip-path="url(#clip060)" d="M2091.91 244.428 Q2087.83 244.428 2085.16 241.968 Q2082.01 239.046 2082.01 233.751 Q2082.01 228.253 2084.79 223.971 Q2087.65 219.573 2092.8 219.573 Q2096.19 219.573 2098.85 221.685 Q2100.41 222.929 2101.48 225.012 Q2101.86 222.669 2101.86 220.007 Q2101.86 216.1 2100.93 213.843 Q2098.88 208.838 2093.44 208.838 Q2091.39 208.838 2088.2 210.111 L2088.2 205.25 Q2091.56 204.353 2094.57 204.353 Q2102.32 204.353 2105.62 211.471 Q2107.16 214.827 2107.16 219.833 Q2107.16 223.103 2106.43 226.893 Q2104.61 236.384 2099.89 240.898 Q2096.19 244.428 2091.91 244.428 M2086.96 234.619 Q2086.96 237.512 2088.23 239.075 Q2089.59 240.724 2091.67 240.724 Q2093.53 240.724 2095 239.422 Q2097.09 237.628 2098.62 234.706 Q2099.89 232.304 2100.53 229.729 Q2097.95 223.508 2093.5 223.508 Q2089.68 223.508 2088 228.542 Q2086.96 231.667 2086.96 234.619 Z" fill="#000000" fill-rule="evenodd" fill-opacity="1" /><path clip-path="url(#clip060)" d="M2114.94 230.799 L2114.94 211.181 L2120.26 211.181 L2120.26 230.597 Q2120.26 235.197 2122.06 237.512 Q2123.85 239.798 2127.44 239.798 Q2131.75 239.798 2134.24 237.049 Q2136.76 234.3 2136.76 229.555 L2136.76 211.181 L2142.08 211.181 L2142.08 243.589 L2136.76 243.589 L2136.76 238.612 Q2134.82 241.563 2132.24 243.01 Q2129.7 244.428 2126.31 244.428 Q2120.73 244.428 2117.83 240.956 Q2114.94 237.483 2114.94 230.799 M2128.34 210.4 L2128.34 210.4 Z" fill="#000000" fill-rule="evenodd" fill-opacity="1" /><path clip-path="url(#clip060)" d="M2162.51 200.389 L2167.43 200.389 L2152.38 249.086 L2147.46 249.086 L2162.51 200.389 Z" fill="#000000" fill-rule="evenodd" fill-opacity="1" /><path clip-path="url(#clip060)" d="M2180.07 244.428 Q2175.99 244.428 2173.33 241.968 Q2170.18 239.046 2170.18 233.751 Q2170.18 228.253 2172.95 223.971 Q2175.82 219.573 2180.97 219.573 Q2184.35 219.573 2187.02 221.685 Q2188.58 222.929 2189.65 225.012 Q2190.02 222.669 2190.02 220.007 Q2190.02 216.1 2189.1 213.843 Q2187.04 208.838 2181.6 208.838 Q2179.55 208.838 2176.37 210.111 L2176.37 205.25 Q2179.72 204.353 2182.73 204.353 Q2190.49 204.353 2193.79 211.471 Q2195.32 214.827 2195.32 219.833 Q2195.32 223.103 2194.6 226.893 Q2192.77 236.384 2188.06 240.898 Q2184.35 244.428 2180.07 244.428 M2175.12 234.619 Q2175.12 237.512 2176.4 239.075 Q2177.76 240.724 2179.84 240.724 Q2181.69 240.724 2183.17 239.422 Q2185.25 237.628 2186.78 234.706 Q2188.06 232.304 2188.69 229.729 Q2186.12 223.508 2181.66 223.508 Q2177.84 223.508 2176.17 228.542 Q2175.12 231.667 2175.12 234.619 Z" fill="#000000" fill-rule="evenodd" fill-opacity="1" /><path clip-path="url(#clip060)" d="M2230.59 211.181 L2218.87 226.951 L2231.2 243.589 L2224.92 243.589 L2215.49 230.857 L2206.05 243.589 L2199.78 243.589 L2212.36 226.633 L2200.85 211.181 L2207.13 211.181 L2215.72 222.726 L2224.31 211.181 L2230.59 211.181 Z" fill="#000000" fill-rule="evenodd" fill-opacity="1" /></svg>
