<?xml version="1.0" encoding="utf-8"?>
<svg xmlns="http://www.w3.org/2000/svg" xmlns:xlink="http://www.w3.org/1999/xlink" width="600" height="400" viewBox="0 0 2400 1600">
<defs>
  <clipPath id="clip940">
    <rect x="0" y="0" width="2400" height="1600"/>
  </clipPath>
</defs>
<path clip-path="url(#clip940)" d="
M0 1600 L2400 1600 L2400 0 L0 0  Z
  " fill="#ffffff" fill-rule="evenodd" fill-opacity="1"/>
<defs>
  <clipPath id="clip941">
    <rect x="480" y="0" width="1681" height="1600"/>
  </clipPath>
</defs>
<path clip-path="url(#clip940)" d="
M193.936 1423.18 L2352.76 1423.18 L2352.76 47.2441 L193.936 47.2441  Z
  " fill="#ffffff" fill-rule="evenodd" fill-opacity="1"/>
<defs>
  <clipPath id="clip942">
    <rect x="193" y="47" width="2160" height="1377"/>
  </clipPath>
</defs>
<polyline clip-path="url(#clip942)" style="stroke:#000000; stroke-linecap:butt; stroke-linejoin:round; stroke-width:2; stroke-opacity:0.1; fill:none" points="
  292.064,1423.18 292.064,47.2441 
  "/>
<polyline clip-path="url(#clip942)" style="stroke:#000000; stroke-linecap:butt; stroke-linejoin:round; stroke-width:2; stroke-opacity:0.1; fill:none" points="
  619.158,1423.18 619.158,47.2441 
  "/>
<polyline clip-path="url(#clip942)" style="stroke:#000000; stroke-linecap:butt; stroke-linejoin:round; stroke-width:2; stroke-opacity:0.1; fill:none" points="
  946.252,1423.18 946.252,47.2441 
  "/>
<polyline clip-path="url(#clip942)" style="stroke:#000000; stroke-linecap:butt; stroke-linejoin:round; stroke-width:2; stroke-opacity:0.1; fill:none" points="
  1273.35,1423.18 1273.35,47.2441 
  "/>
<polyline clip-path="url(#clip942)" style="stroke:#000000; stroke-linecap:butt; stroke-linejoin:round; stroke-width:2; stroke-opacity:0.1; fill:none" points="
  1600.44,1423.18 1600.44,47.2441 
  "/>
<polyline clip-path="url(#clip942)" style="stroke:#000000; stroke-linecap:butt; stroke-linejoin:round; stroke-width:2; stroke-opacity:0.1; fill:none" points="
  1927.53,1423.18 1927.53,47.2441 
  "/>
<polyline clip-path="url(#clip942)" style="stroke:#000000; stroke-linecap:butt; stroke-linejoin:round; stroke-width:2; stroke-opacity:0.1; fill:none" points="
  2254.63,1423.18 2254.63,47.2441 
  "/>
<polyline clip-path="url(#clip940)" style="stroke:#000000; stroke-linecap:butt; stroke-linejoin:round; stroke-width:4; stroke-opacity:1; fill:none" points="
  193.936,1423.18 2352.76,1423.18 
  "/>
<polyline clip-path="url(#clip940)" style="stroke:#000000; stroke-linecap:butt; stroke-linejoin:round; stroke-width:4; stroke-opacity:1; fill:none" points="
  292.064,1423.18 292.064,1404.28 
  "/>
<polyline clip-path="url(#clip940)" style="stroke:#000000; stroke-linecap:butt; stroke-linejoin:round; stroke-width:4; stroke-opacity:1; fill:none" points="
  619.158,1423.18 619.158,1404.28 
  "/>
<polyline clip-path="url(#clip940)" style="stroke:#000000; stroke-linecap:butt; stroke-linejoin:round; stroke-width:4; stroke-opacity:1; fill:none" points="
  946.252,1423.18 946.252,1404.28 
  "/>
<polyline clip-path="url(#clip940)" style="stroke:#000000; stroke-linecap:butt; stroke-linejoin:round; stroke-width:4; stroke-opacity:1; fill:none" points="
  1273.35,1423.18 1273.35,1404.28 
  "/>
<polyline clip-path="url(#clip940)" style="stroke:#000000; stroke-linecap:butt; stroke-linejoin:round; stroke-width:4; stroke-opacity:1; fill:none" points="
  1600.44,1423.18 1600.44,1404.28 
  "/>
<polyline clip-path="url(#clip940)" style="stroke:#000000; stroke-linecap:butt; stroke-linejoin:round; stroke-width:4; stroke-opacity:1; fill:none" points="
  1927.53,1423.18 1927.53,1404.28 
  "/>
<polyline clip-path="url(#clip940)" style="stroke:#000000; stroke-linecap:butt; stroke-linejoin:round; stroke-width:4; stroke-opacity:1; fill:none" points="
  2254.63,1423.18 2254.63,1404.28 
  "/>
<path clip-path="url(#clip940)" d="M261.532 1468.75 L291.208 1468.75 L291.208 1472.69 L261.532 1472.69 L261.532 1468.75 Z" fill="#000000" fill-rule="evenodd" fill-opacity="1" /><path clip-path="url(#clip940)" d="M315.467 1466.95 Q318.823 1467.66 320.698 1469.93 Q322.596 1472.2 322.596 1475.53 Q322.596 1480.65 319.078 1483.45 Q315.559 1486.25 309.078 1486.25 Q306.902 1486.25 304.587 1485.81 Q302.296 1485.39 299.842 1484.54 L299.842 1480.02 Q301.786 1481.16 304.101 1481.74 Q306.416 1482.32 308.939 1482.32 Q313.337 1482.32 315.629 1480.58 Q317.944 1478.84 317.944 1475.53 Q317.944 1472.48 315.791 1470.77 Q313.661 1469.03 309.842 1469.03 L305.814 1469.03 L305.814 1465.19 L310.027 1465.19 Q313.476 1465.19 315.305 1463.82 Q317.133 1462.43 317.133 1459.84 Q317.133 1457.18 315.235 1455.77 Q313.36 1454.33 309.842 1454.33 Q307.921 1454.33 305.722 1454.75 Q303.522 1455.16 300.884 1456.04 L300.884 1451.88 Q303.546 1451.14 305.86 1450.77 Q308.198 1450.39 310.259 1450.39 Q315.583 1450.39 318.684 1452.83 Q321.786 1455.23 321.786 1459.35 Q321.786 1462.22 320.143 1464.21 Q318.499 1466.18 315.467 1466.95 Z" fill="#000000" fill-rule="evenodd" fill-opacity="1" /><path clip-path="url(#clip940)" d="M589.1 1468.75 L618.776 1468.75 L618.776 1472.69 L589.1 1472.69 L589.1 1468.75 Z" fill="#000000" fill-rule="evenodd" fill-opacity="1" /><path clip-path="url(#clip940)" d="M632.896 1481.64 L649.216 1481.64 L649.216 1485.58 L627.271 1485.58 L627.271 1481.64 Q629.934 1478.89 634.517 1474.26 Q639.123 1469.61 640.304 1468.27 Q642.549 1465.74 643.429 1464.01 Q644.332 1462.25 644.332 1460.56 Q644.332 1457.8 642.387 1456.07 Q640.466 1454.33 637.364 1454.33 Q635.165 1454.33 632.711 1455.09 Q630.281 1455.86 627.503 1457.41 L627.503 1452.69 Q630.327 1451.55 632.781 1450.97 Q635.234 1450.39 637.271 1450.39 Q642.642 1450.39 645.836 1453.08 Q649.031 1455.77 649.031 1460.26 Q649.031 1462.39 648.22 1464.31 Q647.433 1466.2 645.327 1468.8 Q644.748 1469.47 641.646 1472.69 Q638.545 1475.88 632.896 1481.64 Z" fill="#000000" fill-rule="evenodd" fill-opacity="1" /><path clip-path="url(#clip940)" d="M916.009 1468.75 L945.685 1468.75 L945.685 1472.69 L916.009 1472.69 L916.009 1468.75 Z" fill="#000000" fill-rule="evenodd" fill-opacity="1" /><path clip-path="url(#clip940)" d="M956.588 1481.64 L964.226 1481.64 L964.226 1455.28 L955.916 1456.95 L955.916 1452.69 L964.18 1451.02 L968.856 1451.02 L968.856 1481.64 L976.495 1481.64 L976.495 1485.58 L956.588 1485.58 L956.588 1481.64 Z" fill="#000000" fill-rule="evenodd" fill-opacity="1" /><path clip-path="url(#clip940)" d="M1273.35 1454.1 Q1269.73 1454.1 1267.91 1457.66 Q1266.1 1461.2 1266.1 1468.33 Q1266.1 1475.44 1267.91 1479.01 Q1269.73 1482.55 1273.35 1482.55 Q1276.98 1482.55 1278.79 1479.01 Q1280.61 1475.44 1280.61 1468.33 Q1280.61 1461.2 1278.79 1457.66 Q1276.98 1454.1 1273.35 1454.1 M1273.35 1450.39 Q1279.16 1450.39 1282.21 1455 Q1285.29 1459.58 1285.29 1468.33 Q1285.29 1477.06 1282.21 1481.67 Q1279.16 1486.25 1273.35 1486.25 Q1267.54 1486.25 1264.46 1481.67 Q1261.4 1477.06 1261.4 1468.33 Q1261.4 1459.58 1264.46 1455 Q1267.54 1450.39 1273.35 1450.39 Z" fill="#000000" fill-rule="evenodd" fill-opacity="1" /><path clip-path="url(#clip940)" d="M1590.82 1481.64 L1598.46 1481.64 L1598.46 1455.28 L1590.15 1456.95 L1590.15 1452.69 L1598.41 1451.02 L1603.09 1451.02 L1603.09 1481.64 L1610.73 1481.64 L1610.73 1485.58 L1590.82 1485.58 L1590.82 1481.64 Z" fill="#000000" fill-rule="evenodd" fill-opacity="1" /><path clip-path="url(#clip940)" d="M1922.19 1481.64 L1938.51 1481.64 L1938.51 1485.58 L1916.56 1485.58 L1916.56 1481.64 Q1919.22 1478.89 1923.81 1474.26 Q1928.41 1469.61 1929.59 1468.27 Q1931.84 1465.74 1932.72 1464.01 Q1933.62 1462.25 1933.62 1460.56 Q1933.62 1457.8 1931.68 1456.07 Q1929.76 1454.33 1926.65 1454.33 Q1924.46 1454.33 1922 1455.09 Q1919.57 1455.86 1916.79 1457.41 L1916.79 1452.69 Q1919.62 1451.55 1922.07 1450.97 Q1924.52 1450.39 1926.56 1450.39 Q1931.93 1450.39 1935.13 1453.08 Q1938.32 1455.77 1938.32 1460.26 Q1938.32 1462.39 1937.51 1464.31 Q1936.72 1466.2 1934.62 1468.8 Q1934.04 1469.47 1930.94 1472.69 Q1927.83 1475.88 1922.19 1481.64 Z" fill="#000000" fill-rule="evenodd" fill-opacity="1" /><path clip-path="url(#clip940)" d="M2258.88 1466.95 Q2262.23 1467.66 2264.11 1469.93 Q2266 1472.2 2266 1475.53 Q2266 1480.65 2262.49 1483.45 Q2258.97 1486.25 2252.49 1486.25 Q2250.31 1486.25 2248 1485.81 Q2245.7 1485.39 2243.25 1484.54 L2243.25 1480.02 Q2245.19 1481.16 2247.51 1481.74 Q2249.82 1482.32 2252.35 1482.32 Q2256.75 1482.32 2259.04 1480.58 Q2261.35 1478.84 2261.35 1475.53 Q2261.35 1472.48 2259.2 1470.77 Q2257.07 1469.03 2253.25 1469.03 L2249.22 1469.03 L2249.22 1465.19 L2253.44 1465.19 Q2256.88 1465.19 2258.71 1463.82 Q2260.54 1462.43 2260.54 1459.84 Q2260.54 1457.18 2258.64 1455.77 Q2256.77 1454.33 2253.25 1454.33 Q2251.33 1454.33 2249.13 1454.75 Q2246.93 1455.16 2244.29 1456.04 L2244.29 1451.88 Q2246.95 1451.14 2249.27 1450.77 Q2251.61 1450.39 2253.67 1450.39 Q2258.99 1450.39 2262.09 1452.83 Q2265.19 1455.23 2265.19 1459.35 Q2265.19 1462.22 2263.55 1464.21 Q2261.91 1466.18 2258.88 1466.95 Z" fill="#000000" fill-rule="evenodd" fill-opacity="1" /><path clip-path="url(#clip940)" d="M1289.96 1532.4 L1277.07 1549.74 L1290.63 1568.04 L1283.72 1568.04 L1273.35 1554.04 L1262.97 1568.04 L1256.06 1568.04 L1269.91 1549.39 L1257.24 1532.4 L1264.15 1532.4 L1273.6 1545.1 L1283.05 1532.4 L1289.96 1532.4 Z" fill="#000000" fill-rule="evenodd" fill-opacity="1" /><polyline clip-path="url(#clip942)" style="stroke:#000000; stroke-linecap:butt; stroke-linejoin:round; stroke-width:2; stroke-opacity:0.1; fill:none" points="
  193.936,1380.18 2352.76,1380.18 
  "/>
<polyline clip-path="url(#clip942)" style="stroke:#000000; stroke-linecap:butt; stroke-linejoin:round; stroke-width:2; stroke-opacity:0.1; fill:none" points="
  193.936,1165.19 2352.76,1165.19 
  "/>
<polyline clip-path="url(#clip942)" style="stroke:#000000; stroke-linecap:butt; stroke-linejoin:round; stroke-width:2; stroke-opacity:0.1; fill:none" points="
  193.936,950.202 2352.76,950.202 
  "/>
<polyline clip-path="url(#clip942)" style="stroke:#000000; stroke-linecap:butt; stroke-linejoin:round; stroke-width:2; stroke-opacity:0.1; fill:none" points="
  193.936,735.212 2352.76,735.212 
  "/>
<polyline clip-path="url(#clip942)" style="stroke:#000000; stroke-linecap:butt; stroke-linejoin:round; stroke-width:2; stroke-opacity:0.1; fill:none" points="
  193.936,520.222 2352.76,520.222 
  "/>
<polyline clip-path="url(#clip942)" style="stroke:#000000; stroke-linecap:butt; stroke-linejoin:round; stroke-width:2; stroke-opacity:0.1; fill:none" points="
  193.936,305.232 2352.76,305.232 
  "/>
<polyline clip-path="url(#clip942)" style="stroke:#000000; stroke-linecap:butt; stroke-linejoin:round; stroke-width:2; stroke-opacity:0.1; fill:none" points="
  193.936,90.2421 2352.76,90.2421 
  "/>
<polyline clip-path="url(#clip940)" style="stroke:#000000; stroke-linecap:butt; stroke-linejoin:round; stroke-width:4; stroke-opacity:1; fill:none" points="
  193.936,1423.18 193.936,47.2441 
  "/>
<polyline clip-path="url(#clip940)" style="stroke:#000000; stroke-linecap:butt; stroke-linejoin:round; stroke-width:4; stroke-opacity:1; fill:none" points="
  193.936,1380.18 212.834,1380.18 
  "/>
<polyline clip-path="url(#clip940)" style="stroke:#000000; stroke-linecap:butt; stroke-linejoin:round; stroke-width:4; stroke-opacity:1; fill:none" points="
  193.936,1165.19 212.834,1165.19 
  "/>
<polyline clip-path="url(#clip940)" style="stroke:#000000; stroke-linecap:butt; stroke-linejoin:round; stroke-width:4; stroke-opacity:1; fill:none" points="
  193.936,950.202 212.834,950.202 
  "/>
<polyline clip-path="url(#clip940)" style="stroke:#000000; stroke-linecap:butt; stroke-linejoin:round; stroke-width:4; stroke-opacity:1; fill:none" points="
  193.936,735.212 212.834,735.212 
  "/>
<polyline clip-path="url(#clip940)" style="stroke:#000000; stroke-linecap:butt; stroke-linejoin:round; stroke-width:4; stroke-opacity:1; fill:none" points="
  193.936,520.222 212.834,520.222 
  "/>
<polyline clip-path="url(#clip940)" style="stroke:#000000; stroke-linecap:butt; stroke-linejoin:round; stroke-width:4; stroke-opacity:1; fill:none" points="
  193.936,305.232 212.834,305.232 
  "/>
<polyline clip-path="url(#clip940)" style="stroke:#000000; stroke-linecap:butt; stroke-linejoin:round; stroke-width:4; stroke-opacity:1; fill:none" points="
  193.936,90.2421 212.834,90.2421 
  "/>
<path clip-path="url(#clip940)" d="M51.9875 1380.63 L81.6633 1380.63 L81.6633 1384.57 L51.9875 1384.57 L51.9875 1380.63 Z" fill="#000000" fill-rule="evenodd" fill-opacity="1" /><path clip-path="url(#clip940)" d="M92.566 1393.53 L100.205 1393.53 L100.205 1367.16 L91.8947 1368.83 L91.8947 1364.57 L100.159 1362.9 L104.834 1362.9 L104.834 1393.53 L112.473 1393.53 L112.473 1397.46 L92.566 1397.46 L92.566 1393.53 Z" fill="#000000" fill-rule="evenodd" fill-opacity="1" /><path clip-path="url(#clip940)" d="M121.918 1391.58 L126.802 1391.58 L126.802 1397.46 L121.918 1397.46 L121.918 1391.58 Z" fill="#000000" fill-rule="evenodd" fill-opacity="1" /><path clip-path="url(#clip940)" d="M137.033 1362.9 L155.39 1362.9 L155.39 1366.84 L141.316 1366.84 L141.316 1375.31 Q142.334 1374.96 143.353 1374.8 Q144.371 1374.61 145.39 1374.61 Q151.177 1374.61 154.556 1377.79 Q157.936 1380.96 157.936 1386.37 Q157.936 1391.95 154.464 1395.05 Q150.992 1398.13 144.672 1398.13 Q142.496 1398.13 140.228 1397.76 Q137.982 1397.39 135.575 1396.65 L135.575 1391.95 Q137.658 1393.09 139.881 1393.64 Q142.103 1394.2 144.58 1394.2 Q148.584 1394.2 150.922 1392.09 Q153.26 1389.99 153.26 1386.37 Q153.26 1382.76 150.922 1380.66 Q148.584 1378.55 144.58 1378.55 Q142.705 1378.55 140.83 1378.97 Q138.978 1379.38 137.033 1380.26 L137.033 1362.9 Z" fill="#000000" fill-rule="evenodd" fill-opacity="1" /><path clip-path="url(#clip940)" d="M50.9921 1165.64 L80.6679 1165.64 L80.6679 1169.58 L50.9921 1169.58 L50.9921 1165.64 Z" fill="#000000" fill-rule="evenodd" fill-opacity="1" /><path clip-path="url(#clip940)" d="M91.5706 1178.54 L99.2095 1178.54 L99.2095 1152.17 L90.8993 1153.84 L90.8993 1149.58 L99.1632 1147.91 L103.839 1147.91 L103.839 1178.54 L111.478 1178.54 L111.478 1182.47 L91.5706 1182.47 L91.5706 1178.54 Z" fill="#000000" fill-rule="evenodd" fill-opacity="1" /><path clip-path="url(#clip940)" d="M120.922 1176.59 L125.807 1176.59 L125.807 1182.47 L120.922 1182.47 L120.922 1176.59 Z" fill="#000000" fill-rule="evenodd" fill-opacity="1" /><path clip-path="url(#clip940)" d="M145.992 1150.99 Q142.381 1150.99 140.552 1154.56 Q138.746 1158.1 138.746 1165.23 Q138.746 1172.33 140.552 1175.9 Q142.381 1179.44 145.992 1179.44 Q149.626 1179.44 151.431 1175.9 Q153.26 1172.33 153.26 1165.23 Q153.26 1158.1 151.431 1154.56 Q149.626 1150.99 145.992 1150.99 M145.992 1147.29 Q151.802 1147.29 154.857 1151.89 Q157.936 1156.48 157.936 1165.23 Q157.936 1173.95 154.857 1178.56 Q151.802 1183.14 145.992 1183.14 Q140.181 1183.14 137.103 1178.56 Q134.047 1173.95 134.047 1165.23 Q134.047 1156.48 137.103 1151.89 Q140.181 1147.29 145.992 1147.29 Z" fill="#000000" fill-rule="evenodd" fill-opacity="1" /><path clip-path="url(#clip940)" d="M51.9875 950.653 L81.6633 950.653 L81.6633 954.588 L51.9875 954.588 L51.9875 950.653 Z" fill="#000000" fill-rule="evenodd" fill-opacity="1" /><path clip-path="url(#clip940)" d="M101.756 936.001 Q98.1447 936.001 96.316 939.565 Q94.5104 943.107 94.5104 950.237 Q94.5104 957.343 96.316 960.908 Q98.1447 964.45 101.756 964.45 Q105.39 964.45 107.196 960.908 Q109.024 957.343 109.024 950.237 Q109.024 943.107 107.196 939.565 Q105.39 936.001 101.756 936.001 M101.756 932.297 Q107.566 932.297 110.621 936.903 Q113.7 941.487 113.7 950.237 Q113.7 958.963 110.621 963.57 Q107.566 968.153 101.756 968.153 Q95.9456 968.153 92.8669 963.57 Q89.8114 958.963 89.8114 950.237 Q89.8114 941.487 92.8669 936.903 Q95.9456 932.297 101.756 932.297 Z" fill="#000000" fill-rule="evenodd" fill-opacity="1" /><path clip-path="url(#clip940)" d="M121.918 961.602 L126.802 961.602 L126.802 967.482 L121.918 967.482 L121.918 961.602 Z" fill="#000000" fill-rule="evenodd" fill-opacity="1" /><path clip-path="url(#clip940)" d="M137.033 932.922 L155.39 932.922 L155.39 936.857 L141.316 936.857 L141.316 945.329 Q142.334 944.982 143.353 944.82 Q144.371 944.635 145.39 944.635 Q151.177 944.635 154.556 947.806 Q157.936 950.977 157.936 956.394 Q157.936 961.973 154.464 965.075 Q150.992 968.153 144.672 968.153 Q142.496 968.153 140.228 967.783 Q137.982 967.412 135.575 966.672 L135.575 961.973 Q137.658 963.107 139.881 963.663 Q142.103 964.218 144.58 964.218 Q148.584 964.218 150.922 962.112 Q153.26 960.005 153.26 956.394 Q153.26 952.783 150.922 950.676 Q148.584 948.57 144.58 948.57 Q142.705 948.57 140.83 948.987 Q138.978 949.403 137.033 950.283 L137.033 932.922 Z" fill="#000000" fill-rule="evenodd" fill-opacity="1" /><path clip-path="url(#clip940)" d="M100.76 721.011 Q97.1493 721.011 95.3206 724.575 Q93.515 728.117 93.515 735.247 Q93.515 742.353 95.3206 745.918 Q97.1493 749.46 100.76 749.46 Q104.395 749.46 106.2 745.918 Q108.029 742.353 108.029 735.247 Q108.029 728.117 106.2 724.575 Q104.395 721.011 100.76 721.011 M100.76 717.307 Q106.571 717.307 109.626 721.913 Q112.705 726.497 112.705 735.247 Q112.705 743.973 109.626 748.58 Q106.571 753.163 100.76 753.163 Q94.9502 753.163 91.8715 748.58 Q88.816 743.973 88.816 735.247 Q88.816 726.497 91.8715 721.913 Q94.9502 717.307 100.76 717.307 Z" fill="#000000" fill-rule="evenodd" fill-opacity="1" /><path clip-path="url(#clip940)" d="M120.922 746.612 L125.807 746.612 L125.807 752.492 L120.922 752.492 L120.922 746.612 Z" fill="#000000" fill-rule="evenodd" fill-opacity="1" /><path clip-path="url(#clip940)" d="M145.992 721.011 Q142.381 721.011 140.552 724.575 Q138.746 728.117 138.746 735.247 Q138.746 742.353 140.552 745.918 Q142.381 749.46 145.992 749.46 Q149.626 749.46 151.431 745.918 Q153.26 742.353 153.26 735.247 Q153.26 728.117 151.431 724.575 Q149.626 721.011 145.992 721.011 M145.992 717.307 Q151.802 717.307 154.857 721.913 Q157.936 726.497 157.936 735.247 Q157.936 743.973 154.857 748.58 Q151.802 753.163 145.992 753.163 Q140.181 753.163 137.103 748.58 Q134.047 743.973 134.047 735.247 Q134.047 726.497 137.103 721.913 Q140.181 717.307 145.992 717.307 Z" fill="#000000" fill-rule="evenodd" fill-opacity="1" /><path clip-path="url(#clip940)" d="M101.756 506.021 Q98.1447 506.021 96.316 509.585 Q94.5104 513.127 94.5104 520.257 Q94.5104 527.363 96.316 530.928 Q98.1447 534.47 101.756 534.47 Q105.39 534.47 107.196 530.928 Q109.024 527.363 109.024 520.257 Q109.024 513.127 107.196 509.585 Q105.39 506.021 101.756 506.021 M101.756 502.317 Q107.566 502.317 110.621 506.923 Q113.7 511.507 113.7 520.257 Q113.7 528.984 110.621 533.59 Q107.566 538.173 101.756 538.173 Q95.9456 538.173 92.8669 533.59 Q89.8114 528.984 89.8114 520.257 Q89.8114 511.507 92.8669 506.923 Q95.9456 502.317 101.756 502.317 Z" fill="#000000" fill-rule="evenodd" fill-opacity="1" /><path clip-path="url(#clip940)" d="M121.918 531.622 L126.802 531.622 L126.802 537.502 L121.918 537.502 L121.918 531.622 Z" fill="#000000" fill-rule="evenodd" fill-opacity="1" /><path clip-path="url(#clip940)" d="M137.033 502.942 L155.39 502.942 L155.39 506.877 L141.316 506.877 L141.316 515.349 Q142.334 515.002 143.353 514.84 Q144.371 514.655 145.39 514.655 Q151.177 514.655 154.556 517.826 Q157.936 520.997 157.936 526.414 Q157.936 531.993 154.464 535.095 Q150.992 538.173 144.672 538.173 Q142.496 538.173 140.228 537.803 Q137.982 537.433 135.575 536.692 L135.575 531.993 Q137.658 533.127 139.881 533.683 Q142.103 534.238 144.58 534.238 Q148.584 534.238 150.922 532.132 Q153.26 530.025 153.26 526.414 Q153.26 522.803 150.922 520.697 Q148.584 518.59 144.58 518.59 Q142.705 518.59 140.83 519.007 Q138.978 519.423 137.033 520.303 L137.033 502.942 Z" fill="#000000" fill-rule="evenodd" fill-opacity="1" /><path clip-path="url(#clip940)" d="M91.5706 318.577 L99.2095 318.577 L99.2095 292.211 L90.8993 293.878 L90.8993 289.619 L99.1632 287.952 L103.839 287.952 L103.839 318.577 L111.478 318.577 L111.478 322.512 L91.5706 322.512 L91.5706 318.577 Z" fill="#000000" fill-rule="evenodd" fill-opacity="1" /><path clip-path="url(#clip940)" d="M120.922 316.632 L125.807 316.632 L125.807 322.512 L120.922 322.512 L120.922 316.632 Z" fill="#000000" fill-rule="evenodd" fill-opacity="1" /><path clip-path="url(#clip940)" d="M145.992 291.031 Q142.381 291.031 140.552 294.596 Q138.746 298.137 138.746 305.267 Q138.746 312.373 140.552 315.938 Q142.381 319.48 145.992 319.48 Q149.626 319.48 151.431 315.938 Q153.26 312.373 153.26 305.267 Q153.26 298.137 151.431 294.596 Q149.626 291.031 145.992 291.031 M145.992 287.327 Q151.802 287.327 154.857 291.934 Q157.936 296.517 157.936 305.267 Q157.936 313.994 154.857 318.6 Q151.802 323.183 145.992 323.183 Q140.181 323.183 137.103 318.6 Q134.047 313.994 134.047 305.267 Q134.047 296.517 137.103 291.934 Q140.181 287.327 145.992 287.327 Z" fill="#000000" fill-rule="evenodd" fill-opacity="1" /><path clip-path="url(#clip940)" d="M92.566 103.587 L100.205 103.587 L100.205 77.2213 L91.8947 78.888 L91.8947 74.6287 L100.159 72.9621 L104.834 72.9621 L104.834 103.587 L112.473 103.587 L112.473 107.522 L92.566 107.522 L92.566 103.587 Z" fill="#000000" fill-rule="evenodd" fill-opacity="1" /><path clip-path="url(#clip940)" d="M121.918 101.642 L126.802 101.642 L126.802 107.522 L121.918 107.522 L121.918 101.642 Z" fill="#000000" fill-rule="evenodd" fill-opacity="1" /><path clip-path="url(#clip940)" d="M137.033 72.9621 L155.39 72.9621 L155.39 76.8973 L141.316 76.8973 L141.316 85.3694 Q142.334 85.0222 143.353 84.8602 Q144.371 84.675 145.39 84.675 Q151.177 84.675 154.556 87.8463 Q157.936 91.0175 157.936 96.4342 Q157.936 102.013 154.464 105.115 Q150.992 108.193 144.672 108.193 Q142.496 108.193 140.228 107.823 Q137.982 107.453 135.575 106.712 L135.575 102.013 Q137.658 103.147 139.881 103.703 Q142.103 104.258 144.58 104.258 Q148.584 104.258 150.922 102.152 Q153.26 100.045 153.26 96.4342 Q153.26 92.8231 150.922 90.7166 Q148.584 88.6102 144.58 88.6102 Q142.705 88.6102 140.83 89.0268 Q138.978 89.4435 137.033 90.3231 L137.033 72.9621 Z" fill="#000000" fill-rule="evenodd" fill-opacity="1" /><polyline clip-path="url(#clip942)" style="stroke:#ff0000; stroke-linecap:butt; stroke-linejoin:round; stroke-width:0; stroke-opacity:1; fill:none" points="
  245.75,305.232 451.269,1083.07 656.788,602.341 862.308,602.341 1067.83,1083.07 1273.35,305.232 1478.87,1083.07 1684.38,602.341 1889.9,602.341 2095.42,1083.07 
  
  "/>
<circle clip-path="url(#clip942)" cx="245.75" cy="305.232" r="28" fill="#ff0000" fill-rule="evenodd" fill-opacity="1" stroke="#000000" stroke-opacity="1" stroke-width="3.2"/>
<circle clip-path="url(#clip942)" cx="451.269" cy="1083.07" r="28" fill="#ff0000" fill-rule="evenodd" fill-opacity="1" stroke="#000000" stroke-opacity="1" stroke-width="3.2"/>
<circle clip-path="url(#clip942)" cx="656.788" cy="602.341" r="28" fill="#ff0000" fill-rule="evenodd" fill-opacity="1" stroke="#000000" stroke-opacity="1" stroke-width="3.2"/>
<circle clip-path="url(#clip942)" cx="862.308" cy="602.341" r="28" fill="#ff0000" fill-rule="evenodd" fill-opacity="1" stroke="#000000" stroke-opacity="1" stroke-width="3.2"/>
<circle clip-path="url(#clip942)" cx="1067.83" cy="1083.07" r="28" fill="#ff0000" fill-rule="evenodd" fill-opacity="1" stroke="#000000" stroke-opacity="1" stroke-width="3.2"/>
<circle clip-path="url(#clip942)" cx="1273.35" cy="305.232" r="28" fill="#ff0000" fill-rule="evenodd" fill-opacity="1" stroke="#000000" stroke-opacity="1" stroke-width="3.2"/>
<circle clip-path="url(#clip942)" cx="1478.87" cy="1083.07" r="28" fill="#ff0000" fill-rule="evenodd" fill-opacity="1" stroke="#000000" stroke-opacity="1" stroke-width="3.2"/>
<circle clip-path="url(#clip942)" cx="1684.38" cy="602.341" r="28" fill="#ff0000" fill-rule="evenodd" fill-opacity="1" stroke="#000000" stroke-opacity="1" stroke-width="3.2"/>
<circle clip-path="url(#clip942)" cx="1889.9" cy="602.341" r="28" fill="#ff0000" fill-rule="evenodd" fill-opacity="1" stroke="#000000" stroke-opacity="1" stroke-width="3.2"/>
<circle clip-path="url(#clip942)" cx="2095.42" cy="1083.07" r="28" fill="#ff0000" fill-rule="evenodd" fill-opacity="1" stroke="#000000" stroke-opacity="1" stroke-width="3.2"/>
<polyline clip-path="url(#clip942)" style="stroke:#ff0000; stroke-linecap:butt; stroke-linejoin:round; stroke-width:12; stroke-opacity:0.2; fill:none" points="
  245.75,305.232 250.768,306.041 255.785,308.466 260.803,312.497 265.821,318.119 277.42,337.077 289.018,364.032 300.617,398.443 312.216,439.617 323.815,486.729 
  335.414,538.831 347.013,594.878 358.612,653.744 381.809,775.168 405.007,893.399 416.606,948.332 428.205,998.985 439.804,1044.34 451.403,1083.48 465.344,1121.22 
  479.284,1147.76 486.255,1156.58 493.225,1162.34 500.196,1165 507.166,1164.54 514.137,1160.96 521.107,1154.28 528.077,1144.57 535.048,1131.88 542.018,1116.31 
  548.989,1097.98 555.959,1077.01 562.93,1053.56 574.717,1008.74 586.503,958.25 598.29,903.133 610.077,844.533 633.651,721.794 657.224,600.163 670.028,538.158 
  682.832,480.974 695.636,430.01 708.44,386.514 721.243,351.549 734.047,325.971 746.851,310.405 759.655,305.232 771.459,309.785 783.263,323.187 795.067,345.159 
  806.871,375.245 818.675,412.818 830.479,457.097 842.283,507.162 854.087,561.969 879.397,690.072 904.707,822.464 917.362,886.32 930.017,946.564 942.672,1001.76 
  955.328,1050.58 962.659,1075.48 969.99,1097.65 977.321,1116.91 984.652,1133.1 991.983,1146.09 999.314,1155.79 1006.65,1162.11 1013.98,1165 1021.31,1164.43 
  1028.64,1160.42 1035.97,1153 1043.3,1142.21 1050.63,1128.16 1057.96,1110.96 1065.29,1090.73 1072.63,1067.65 1085.66,1020.17 1098.69,965.472 1111.72,904.937 
  1124.75,840.102 1150.81,704.17 1176.87,571.364 1188.29,517.594 1199.72,468.065 1211.14,423.744 1222.57,385.495 1234,354.062 1245.42,330.059 1256.85,313.953 
  1268.27,306.059 1280.73,306.985 1293.19,317.83 1305.65,338.343 1318.1,368.049 1330.56,406.26 1343.02,452.091 1355.48,504.479 1367.94,562.212 1393,689.044 
  1418.06,820.179 1430.59,883.525 1443.12,943.394 1455.66,998.384 1468.19,1047.21 1475.12,1071.12 1482.04,1092.63 1488.97,1111.57 1495.9,1127.82 1509.75,1151.76 
  1523.61,1163.78 1530.54,1165.19 1537.46,1163.52 1544.39,1158.77 1551.32,1150.99 1558.25,1140.23 1565.18,1126.56 1572.1,1110.08 1579.03,1090.91 1592.21,1047.53 
  1605.4,996.038 1618.58,937.786 1631.76,874.28 1658.13,738.189 1684.49,601.792 1698.2,535.465 1711.91,474.737 1725.62,421.311 1739.32,376.684 1746.18,358.072 
  1753.03,342.108 1759.88,328.903 1766.74,318.551 1773.59,311.124 1780.44,306.674 1787.3,305.233 1794.15,306.81 1805.69,316.244 1817.23,334.006 1828.77,359.742 
  1840.31,392.942 1851.84,432.946 1863.38,478.958 1874.92,530.063 1886.46,585.246 1914.64,730.173 1942.81,875.693 1956.9,943.276 1970.98,1004.7 1985.07,1058.15 
  1999.16,1102.03 2012.4,1133.4 2025.64,1154.35 2032.26,1160.74 2038.89,1164.34 2045.51,1165.12 2052.13,1163.09 2058.75,1158.26 2065.37,1150.65 2071.99,1140.32 
  2078.61,1127.34 2091.86,1093.76 2105.1,1050.81 2115.71,1010.38 2126.31,965.325 2136.92,916.406 2147.53,864.442 2168.74,754.91 2189.96,644.059 2211.18,539.309 
  2232.39,447.672 2243,408.733 2253.61,375.281 2264.21,347.876 2274.82,326.981 2281.35,317.511 2287.88,310.704 2294.41,306.602 2300.94,305.232 
  "/>
<polyline clip-path="url(#clip942)" style="stroke:#0000ff; stroke-linecap:butt; stroke-linejoin:round; stroke-width:0; stroke-opacity:0.8; fill:none" points="
  245.75,305.232 451.269,1083.07 656.788,602.341 862.308,602.341 1067.83,1083.07 1273.35,305.232 1478.87,1083.07 1684.38,602.341 1889.9,602.341 2095.42,1083.07 
  
  "/>
<path clip-path="url(#clip942)" d="M245.75 271.232 L237.76 294.216 L213.416 294.726 L232.83 309.448 L225.758 332.738 L245.75 318.832 L265.742 332.738 L258.67 309.448 L278.084 294.726 L253.74 294.216 L245.75 271.232 Z" fill="#0000ff" fill-rule="evenodd" fill-opacity="0.8" stroke="#000000" stroke-opacity="0.8" stroke-width="3.2"/>
<path clip-path="url(#clip942)" d="M451.269 1049.07 L443.279 1072.06 L418.935 1072.57 L438.349 1087.29 L431.277 1110.58 L451.269 1096.67 L471.261 1110.58 L464.189 1087.29 L483.603 1072.57 L459.259 1072.06 L451.269 1049.07 Z" fill="#0000ff" fill-rule="evenodd" fill-opacity="0.8" stroke="#000000" stroke-opacity="0.8" stroke-width="3.2"/>
<path clip-path="url(#clip942)" d="M656.788 568.341 L648.798 591.325 L624.454 591.835 L643.868 606.557 L636.796 629.847 L656.788 615.941 L676.78 629.847 L669.708 606.557 L689.122 591.835 L664.778 591.325 L656.788 568.341 Z" fill="#0000ff" fill-rule="evenodd" fill-opacity="0.8" stroke="#000000" stroke-opacity="0.8" stroke-width="3.2"/>
<path clip-path="url(#clip942)" d="M862.308 568.341 L854.318 591.325 L829.974 591.835 L849.388 606.557 L842.316 629.847 L862.308 615.941 L882.3 629.847 L875.228 606.557 L894.642 591.835 L870.298 591.325 L862.308 568.341 Z" fill="#0000ff" fill-rule="evenodd" fill-opacity="0.8" stroke="#000000" stroke-opacity="0.8" stroke-width="3.2"/>
<path clip-path="url(#clip942)" d="M1067.83 1049.07 L1059.84 1072.06 L1035.49 1072.57 L1054.91 1087.29 L1047.83 1110.58 L1067.83 1096.67 L1087.82 1110.58 L1080.75 1087.29 L1100.16 1072.57 L1075.82 1072.06 L1067.83 1049.07 Z" fill="#0000ff" fill-rule="evenodd" fill-opacity="0.8" stroke="#000000" stroke-opacity="0.8" stroke-width="3.2"/>
<path clip-path="url(#clip942)" d="M1273.35 271.232 L1265.36 294.216 L1241.01 294.726 L1260.43 309.448 L1253.35 332.738 L1273.35 318.832 L1293.34 332.738 L1286.27 309.448 L1305.68 294.726 L1281.34 294.216 L1273.35 271.232 Z" fill="#0000ff" fill-rule="evenodd" fill-opacity="0.8" stroke="#000000" stroke-opacity="0.8" stroke-width="3.2"/>
<path clip-path="url(#clip942)" d="M1478.87 1049.07 L1470.88 1072.06 L1446.53 1072.57 L1465.95 1087.29 L1458.87 1110.58 L1478.87 1096.67 L1498.86 1110.58 L1491.79 1087.29 L1511.2 1072.57 L1486.86 1072.06 L1478.87 1049.07 Z" fill="#0000ff" fill-rule="evenodd" fill-opacity="0.8" stroke="#000000" stroke-opacity="0.8" stroke-width="3.2"/>
<path clip-path="url(#clip942)" d="M1684.38 568.341 L1676.39 591.325 L1652.05 591.835 L1671.46 606.557 L1664.39 629.847 L1684.38 615.941 L1704.38 629.847 L1697.3 606.557 L1716.72 591.835 L1692.37 591.325 L1684.38 568.341 Z" fill="#0000ff" fill-rule="evenodd" fill-opacity="0.8" stroke="#000000" stroke-opacity="0.8" stroke-width="3.2"/>
<path clip-path="url(#clip942)" d="M1889.9 568.341 L1881.91 591.325 L1857.57 591.835 L1876.98 606.557 L1869.91 629.847 L1889.9 615.941 L1909.9 629.847 L1902.82 606.557 L1922.24 591.835 L1897.89 591.325 L1889.9 568.341 Z" fill="#0000ff" fill-rule="evenodd" fill-opacity="0.8" stroke="#000000" stroke-opacity="0.8" stroke-width="3.2"/>
<path clip-path="url(#clip942)" d="M2095.42 1049.07 L2087.43 1072.06 L2063.09 1072.57 L2082.5 1087.29 L2075.43 1110.58 L2095.42 1096.67 L2115.41 1110.58 L2108.34 1087.29 L2127.76 1072.57 L2103.41 1072.06 L2095.42 1049.07 Z" fill="#0000ff" fill-rule="evenodd" fill-opacity="0.8" stroke="#000000" stroke-opacity="0.8" stroke-width="3.2"/>
<polyline clip-path="url(#clip942)" style="stroke:#0000ff; stroke-linecap:butt; stroke-linejoin:round; stroke-width:12; stroke-opacity:0.2; fill:none" points="
  245.75,305.232 250.768,307.052 255.785,312.497 260.803,321.52 265.821,334.045 271.62,352.744 277.42,375.768 283.219,402.856 289.018,433.701 294.818,467.955 
  300.617,505.231 306.417,545.107 312.216,587.133 335.414,766.976 358.612,941.153 364.411,980.067 370.211,1016.21 376.01,1049.18 381.809,1078.6 387.609,1104.14 
  393.408,1125.5 399.208,1142.45 405.007,1154.8 410.807,1162.41 416.606,1165.18 422.405,1163.09 428.205,1156.17 434.004,1144.48 439.804,1128.17 445.603,1107.42 
  451.403,1082.45 458.373,1047.28 465.344,1007.02 472.314,962.315 479.284,913.905 493.225,809.17 507.166,699.625 521.107,592.394 535.048,494.452 542.018,450.99 
  548.989,412.169 555.959,378.621 562.93,350.896 568.823,332.334 574.717,318.476 580.61,309.483 586.503,305.461 592.397,306.456 598.29,312.457 604.184,323.395 
  610.077,339.14 615.97,359.509 621.864,384.265 627.757,413.118 633.651,445.732 639.544,481.726 645.438,520.679 651.331,562.137 657.224,605.615 670.028,704.581 
  682.832,805.229 695.636,902.033 708.44,989.676 714.842,1028.53 721.243,1063.35 727.645,1093.64 734.047,1119 740.449,1139.07 746.851,1153.58 753.253,1162.33 
  759.655,1165.19 765.557,1162.58 771.459,1154.97 777.361,1142.44 783.263,1125.15 789.165,1103.28 795.067,1077.11 800.969,1046.94 806.871,1013.11 818.675,936.134 
  830.479,849.773 842.283,758.061 854.087,665.283 866.742,569.555 879.397,482.714 885.724,444.108 892.052,409.419 898.38,379.114 904.707,353.601 911.035,333.224 
  917.362,318.256 923.69,308.898 930.017,305.278 936.345,307.443 942.672,315.365 949,328.936 955.328,347.974 962.659,376.528 969.99,411.558 977.321,452.432 
  984.652,498.413 999.314,602.294 1013.98,715.731 1028.64,830.57 1043.3,938.552 1050.63,987.511 1057.96,1031.91 1065.29,1070.96 1072.63,1103.94 1079.14,1127.68 
  1085.66,1145.82 1092.17,1158.11 1098.69,1164.36 1105.2,1164.49 1111.72,1158.49 1118.23,1146.46 1124.75,1128.56 1131.26,1105.05 1137.78,1076.27 1144.29,1042.62 
  1150.81,1004.58 1163.84,917.578 1176.87,820.208 1188.29,730.65 1199.72,641.292 1211.14,556.045 1222.57,478.64 1228.28,443.954 1234,412.465 1239.71,384.516 
  1245.42,360.416 1251.14,340.428 1256.85,324.771 1262.56,313.618 1268.27,307.091 1274.5,305.329 1280.73,309.172 1286.96,318.572 1293.19,333.404 1299.42,353.476 
  1305.65,378.526 1311.88,408.228 1318.1,442.193 1330.56,521.095 1343.02,611.129 1355.48,707.614 1367.94,805.534 1380.47,900.337 1393,986.453 1399.26,1024.81 
  1405.53,1059.35 1411.8,1089.61 1418.06,1115.2 1424.33,1135.77 1430.59,1151.05 1436.86,1160.85 1443.12,1165.03 1449.39,1163.54 1455.66,1156.4 1461.92,1143.7 
  1468.19,1125.61 1475.12,1099.62 1482.04,1067.76 1488.97,1030.53 1495.9,988.542 1509.75,893.052 1523.61,787.421 1537.46,678.436 1551.32,573.098 1558.25,523.934 
  1565.18,478.176 1572.1,436.564 1579.03,399.768 1585.62,369.771 1592.21,345.111 1598.8,326.147 1605.4,313.155 1611.99,306.326 1618.58,305.76 1625.17,311.464 
  1631.76,323.355 1638.35,341.261 1644.95,364.918 1651.54,393.982 1658.13,428.029 1664.72,466.561 1671.31,509.015 1677.9,554.773 1684.49,603.165 1698.2,709.125 
  1711.91,816.725 1725.62,919.199 1739.32,1010.1 1746.18,1049.39 1753.03,1083.72 1759.88,1112.55 1766.74,1135.42 1773.59,1151.97 1780.44,1161.95 1787.3,1165.19 
  1794.15,1161.64 1799.92,1153.44 1805.69,1140.55 1811.46,1123.12 1817.23,1101.36 1823,1075.5 1828.77,1045.83 1834.54,1012.69 1840.31,976.44 1851.84,896.282 
  1863.38,808.935 1874.92,718.298 1886.46,628.415 1893.5,575.641 1900.55,525.526 1907.59,478.907 1914.64,436.561 1921.68,399.194 1928.72,367.428 1935.77,341.793 
  1942.81,322.717 1949.85,310.518 1956.9,305.398 1963.94,307.443 1970.98,316.619 1978.03,332.774 1985.07,355.637 1992.12,384.828 1999.16,419.861 2005.78,457.597 
  2012.4,499.424 2019.02,544.725 2025.64,592.832 2038.89,694.601 2052.13,798.753 2065.37,899.175 2078.61,989.97 2085.23,1030.06 2091.86,1065.81 2098.48,1096.68 
  2105.1,1122.23 2110.4,1138.6 2115.71,1151.15 2121.01,1159.77 2126.31,1164.37 2131.62,1164.92 2136.92,1161.4 2142.23,1153.85 2147.53,1142.34 2152.83,1126.98 
  2158.14,1107.91 2163.44,1085.32 2168.74,1059.42 2174.05,1030.45 2179.35,998.69 2184.66,964.437 2189.96,928.016 2211.18,767.779 2232.39,602.673 2243,526.083 
  2253.61,457.387 2258.91,426.823 2264.21,399.176 2269.52,374.707 2274.82,353.648 2281.35,332.696 2287.88,317.511 2294.41,308.313 2300.94,305.232 
  "/>
<path clip-path="url(#clip940)" d="
M1872.64 248.629 L2280.8 248.629 L2280.8 93.1086 L1872.64 93.1086  Z
  " fill="#ffffff" fill-rule="evenodd" fill-opacity="1"/>
<polyline clip-path="url(#clip940)" style="stroke:#000000; stroke-linecap:butt; stroke-linejoin:round; stroke-width:4; stroke-opacity:1; fill:none" points="
  1872.64,248.629 2280.8,248.629 2280.8,93.1086 1872.64,93.1086 1872.64,248.629 
  "/>
<polyline clip-path="url(#clip940)" style="stroke:#ff0000; stroke-linecap:butt; stroke-linejoin:round; stroke-width:4; stroke-opacity:1; fill:none" points="
  1896.63,144.949 2040.55,144.949 
  "/>
<circle clip-path="url(#clip940)" cx="1968.59" cy="144.949" r="23" fill="#ff0000" fill-rule="evenodd" fill-opacity="1" stroke="#000000" stroke-opacity="1" stroke-width="2.56"/>
<path clip-path="url(#clip940)" d="M2085.04 137.298 L2085.04 141.28 Q2083.24 140.284 2081.41 139.798 Q2079.6 139.289 2077.75 139.289 Q2073.61 139.289 2071.32 141.928 Q2069.03 144.544 2069.03 149.289 Q2069.03 154.034 2071.32 156.673 Q2073.61 159.289 2077.75 159.289 Q2079.6 159.289 2081.41 158.803 Q2083.24 158.293 2085.04 157.298 L2085.04 161.233 Q2083.26 162.067 2081.34 162.483 Q2079.44 162.9 2077.29 162.9 Q2071.43 162.9 2067.98 159.219 Q2064.54 155.539 2064.54 149.289 Q2064.54 142.946 2068.01 139.312 Q2071.5 135.678 2077.57 135.678 Q2079.54 135.678 2081.41 136.095 Q2083.29 136.488 2085.04 137.298 Z" fill="#000000" fill-rule="evenodd" fill-opacity="1" /><path clip-path="url(#clip940)" d="M2102.5 139.289 Q2099.07 139.289 2097.08 141.974 Q2095.09 144.636 2095.09 149.289 Q2095.09 153.942 2097.06 156.627 Q2099.05 159.289 2102.5 159.289 Q2105.9 159.289 2107.89 156.604 Q2109.88 153.918 2109.88 149.289 Q2109.88 144.682 2107.89 141.997 Q2105.9 139.289 2102.5 139.289 M2102.5 135.678 Q2108.05 135.678 2111.22 139.289 Q2114.4 142.9 2114.4 149.289 Q2114.4 155.655 2111.22 159.289 Q2108.05 162.9 2102.5 162.9 Q2096.92 162.9 2093.75 159.289 Q2090.6 155.655 2090.6 149.289 Q2090.6 142.9 2093.75 139.289 Q2096.92 135.678 2102.5 135.678 Z" fill="#000000" fill-rule="evenodd" fill-opacity="1" /><path clip-path="url(#clip940)" d="M2137.98 137.067 L2137.98 141.094 Q2136.18 140.169 2134.23 139.706 Q2132.29 139.243 2130.21 139.243 Q2127.03 139.243 2125.44 140.215 Q2123.86 141.187 2123.86 143.131 Q2123.86 144.613 2125 145.469 Q2126.13 146.303 2129.56 147.067 L2131.02 147.391 Q2135.55 148.363 2137.45 150.145 Q2139.37 151.905 2139.37 155.076 Q2139.37 158.687 2136.5 160.793 Q2133.66 162.9 2128.66 162.9 Q2126.57 162.9 2124.3 162.483 Q2122.06 162.09 2119.56 161.28 L2119.56 156.881 Q2121.92 158.108 2124.21 158.733 Q2126.5 159.335 2128.75 159.335 Q2131.76 159.335 2133.38 158.317 Q2135 157.275 2135 155.4 Q2135 153.664 2133.82 152.738 Q2132.66 151.812 2128.7 150.956 L2127.22 150.608 Q2123.26 149.775 2121.5 148.062 Q2119.74 146.326 2119.74 143.317 Q2119.74 139.659 2122.34 137.669 Q2124.93 135.678 2129.7 135.678 Q2132.06 135.678 2134.14 136.025 Q2136.22 136.372 2137.98 137.067 Z" fill="#000000" fill-rule="evenodd" fill-opacity="1" /><path clip-path="url(#clip940)" d="M2156.39 126.257 Q2153.28 131.581 2151.78 136.789 Q2150.28 141.997 2150.28 147.344 Q2150.28 152.692 2151.78 157.946 Q2153.31 163.178 2156.39 168.479 L2152.68 168.479 Q2149.21 163.039 2147.47 157.784 Q2145.76 152.53 2145.76 147.344 Q2145.76 142.182 2147.47 136.951 Q2149.19 131.72 2152.68 126.257 L2156.39 126.257 Z" fill="#000000" fill-rule="evenodd" fill-opacity="1" /><path clip-path="url(#clip940)" d="M2178.1 131.743 L2166.29 150.192 L2178.1 150.192 L2178.1 131.743 M2176.87 127.669 L2182.75 127.669 L2182.75 150.192 L2187.68 150.192 L2187.68 154.081 L2182.75 154.081 L2182.75 162.229 L2178.1 162.229 L2178.1 154.081 L2162.5 154.081 L2162.5 149.567 L2176.87 127.669 Z" fill="#000000" fill-rule="evenodd" fill-opacity="1" /><path clip-path="url(#clip940)" d="M2216.36 136.303 L2206.99 148.919 L2216.85 162.229 L2211.83 162.229 L2204.28 152.043 L2196.73 162.229 L2191.71 162.229 L2201.78 148.664 L2192.57 136.303 L2197.59 136.303 L2204.47 145.539 L2211.34 136.303 L2216.36 136.303 Z" fill="#000000" fill-rule="evenodd" fill-opacity="1" /><path clip-path="url(#clip940)" d="M2222.2 126.257 L2225.9 126.257 Q2229.37 131.72 2231.09 136.951 Q2232.82 142.182 2232.82 147.344 Q2232.82 152.53 2231.09 157.784 Q2229.37 163.039 2225.9 168.479 L2222.2 168.479 Q2225.28 163.178 2226.78 157.946 Q2228.31 152.692 2228.31 147.344 Q2228.31 141.997 2226.78 136.789 Q2225.28 131.581 2222.2 126.257 Z" fill="#000000" fill-rule="evenodd" fill-opacity="1" /><polyline clip-path="url(#clip940)" style="stroke:#0000ff; stroke-linecap:butt; stroke-linejoin:round; stroke-width:4; stroke-opacity:0.8; fill:none" points="
  1896.63,196.789 2040.55,196.789 
  "/>
<path clip-path="url(#clip940)" d="M1968.59 171.189 L1962.57 188.494 L1944.24 188.878 L1958.86 199.963 L1953.53 217.499 L1968.59 207.029 L1983.64 217.499 L1978.32 199.963 L1992.93 188.878 L1974.6 188.494 L1968.59 171.189 Z" fill="#0000ff" fill-rule="evenodd" fill-opacity="0.8" stroke="#000000" stroke-opacity="0.8" stroke-width="2.40941"/>
<path clip-path="url(#clip940)" d="M2085.04 189.138 L2085.04 193.12 Q2083.24 192.124 2081.41 191.638 Q2079.6 191.129 2077.75 191.129 Q2073.61 191.129 2071.32 193.768 Q2069.03 196.384 2069.03 201.129 Q2069.03 205.874 2071.32 208.513 Q2073.61 211.129 2077.75 211.129 Q2079.6 211.129 2081.41 210.643 Q2083.24 210.133 2085.04 209.138 L2085.04 213.073 Q2083.26 213.907 2081.34 214.323 Q2079.44 214.74 2077.29 214.74 Q2071.43 214.74 2067.98 211.059 Q2064.54 207.379 2064.54 201.129 Q2064.54 194.786 2068.01 191.152 Q2071.5 187.518 2077.57 187.518 Q2079.54 187.518 2081.41 187.935 Q2083.29 188.328 2085.04 189.138 Z" fill="#000000" fill-rule="evenodd" fill-opacity="1" /><path clip-path="url(#clip940)" d="M2102.5 191.129 Q2099.07 191.129 2097.08 193.814 Q2095.09 196.476 2095.09 201.129 Q2095.09 205.782 2097.06 208.467 Q2099.05 211.129 2102.5 211.129 Q2105.9 211.129 2107.89 208.444 Q2109.88 205.758 2109.88 201.129 Q2109.88 196.522 2107.89 193.837 Q2105.9 191.129 2102.5 191.129 M2102.5 187.518 Q2108.05 187.518 2111.22 191.129 Q2114.4 194.74 2114.4 201.129 Q2114.4 207.495 2111.22 211.129 Q2108.05 214.74 2102.5 214.74 Q2096.92 214.74 2093.75 211.129 Q2090.6 207.495 2090.6 201.129 Q2090.6 194.74 2093.75 191.129 Q2096.92 187.518 2102.5 187.518 Z" fill="#000000" fill-rule="evenodd" fill-opacity="1" /><path clip-path="url(#clip940)" d="M2137.98 188.907 L2137.98 192.934 Q2136.18 192.009 2134.23 191.546 Q2132.29 191.083 2130.21 191.083 Q2127.03 191.083 2125.44 192.055 Q2123.86 193.027 2123.86 194.971 Q2123.86 196.453 2125 197.309 Q2126.13 198.143 2129.56 198.907 L2131.02 199.231 Q2135.55 200.203 2137.45 201.985 Q2139.37 203.745 2139.37 206.916 Q2139.37 210.527 2136.5 212.633 Q2133.66 214.74 2128.66 214.74 Q2126.57 214.74 2124.3 214.323 Q2122.06 213.93 2119.56 213.12 L2119.56 208.721 Q2121.92 209.948 2124.21 210.573 Q2126.5 211.175 2128.75 211.175 Q2131.76 211.175 2133.38 210.157 Q2135 209.115 2135 207.24 Q2135 205.504 2133.82 204.578 Q2132.66 203.652 2128.7 202.796 L2127.22 202.448 Q2123.26 201.615 2121.5 199.902 Q2119.74 198.166 2119.74 195.157 Q2119.74 191.499 2122.34 189.509 Q2124.93 187.518 2129.7 187.518 Q2132.06 187.518 2134.14 187.865 Q2136.22 188.212 2137.98 188.907 Z" fill="#000000" fill-rule="evenodd" fill-opacity="1" /><path clip-path="url(#clip940)" d="M2156.39 178.097 Q2153.28 183.421 2151.78 188.629 Q2150.28 193.837 2150.28 199.184 Q2150.28 204.532 2151.78 209.786 Q2153.31 215.018 2156.39 220.319 L2152.68 220.319 Q2149.21 214.879 2147.47 209.624 Q2145.76 204.37 2145.76 199.184 Q2145.76 194.022 2147.47 188.791 Q2149.19 183.56 2152.68 178.097 L2156.39 178.097 Z" fill="#000000" fill-rule="evenodd" fill-opacity="1" /><path clip-path="url(#clip940)" d="M2175.83 194.925 Q2172.68 194.925 2170.83 197.078 Q2169 199.231 2169 202.981 Q2169 206.708 2170.83 208.883 Q2172.68 211.036 2175.83 211.036 Q2178.98 211.036 2180.81 208.883 Q2182.66 206.708 2182.66 202.981 Q2182.66 199.231 2180.81 197.078 Q2178.98 194.925 2175.83 194.925 M2185.11 180.273 L2185.11 184.532 Q2183.35 183.698 2181.55 183.259 Q2179.77 182.819 2178.01 182.819 Q2173.38 182.819 2170.92 185.944 Q2168.49 189.069 2168.15 195.388 Q2169.51 193.374 2171.57 192.309 Q2173.63 191.222 2176.11 191.222 Q2181.32 191.222 2184.33 194.393 Q2187.36 197.541 2187.36 202.981 Q2187.36 208.305 2184.21 211.522 Q2181.06 214.74 2175.83 214.74 Q2169.84 214.74 2166.66 210.157 Q2163.49 205.55 2163.49 196.823 Q2163.49 188.629 2167.38 183.768 Q2171.27 178.884 2177.82 178.884 Q2179.58 178.884 2181.36 179.231 Q2183.17 179.578 2185.11 180.273 Z" fill="#000000" fill-rule="evenodd" fill-opacity="1" /><path clip-path="url(#clip940)" d="M2216.36 188.143 L2206.99 200.759 L2216.85 214.069 L2211.83 214.069 L2204.28 203.883 L2196.73 214.069 L2191.71 214.069 L2201.78 200.504 L2192.57 188.143 L2197.59 188.143 L2204.47 197.379 L2211.34 188.143 L2216.36 188.143 Z" fill="#000000" fill-rule="evenodd" fill-opacity="1" /><path clip-path="url(#clip940)" d="M2222.2 178.097 L2225.9 178.097 Q2229.37 183.56 2231.09 188.791 Q2232.82 194.022 2232.82 199.184 Q2232.82 204.37 2231.09 209.624 Q2229.37 214.879 2225.9 220.319 L2222.2 220.319 Q2225.28 215.018 2226.78 209.786 Q2228.31 204.532 2228.31 199.184 Q2228.31 193.837 2226.78 188.629 Q2225.28 183.421 2222.2 178.097 Z" fill="#000000" fill-rule="evenodd" fill-opacity="1" /></svg>
