<?xml version="1.0" encoding="utf-8"?>
<svg xmlns="http://www.w3.org/2000/svg" xmlns:xlink="http://www.w3.org/1999/xlink" width="600" height="400" viewBox="0 0 2400 1600">
<defs>
  <clipPath id="clip360">
    <rect x="0" y="0" width="2400" height="1600"/>
  </clipPath>
</defs>
<path clip-path="url(#clip360)" d="
M0 1600 L2400 1600 L2400 0 L0 0  Z
  " fill="#ffffff" fill-rule="evenodd" fill-opacity="1"/>
<defs>
  <clipPath id="clip361">
    <rect x="480" y="0" width="1681" height="1600"/>
  </clipPath>
</defs>
<path clip-path="url(#clip360)" d="
M220.672 1401.58 L2352.76 1401.58 L2352.76 140.752 L220.672 140.752  Z
  " fill="#ffffff" fill-rule="evenodd" fill-opacity="1"/>
<defs>
  <clipPath id="clip362">
    <rect x="220" y="140" width="2133" height="1262"/>
  </clipPath>
</defs>
<polyline clip-path="url(#clip362)" style="stroke:#000000; stroke-linecap:butt; stroke-linejoin:round; stroke-width:2; stroke-opacity:0.1; fill:none" points="
  281.014,1401.58 281.014,140.752 
  "/>
<polyline clip-path="url(#clip362)" style="stroke:#000000; stroke-linecap:butt; stroke-linejoin:round; stroke-width:2; stroke-opacity:0.1; fill:none" points="
  783.864,1401.58 783.864,140.752 
  "/>
<polyline clip-path="url(#clip362)" style="stroke:#000000; stroke-linecap:butt; stroke-linejoin:round; stroke-width:2; stroke-opacity:0.1; fill:none" points="
  1286.71,1401.58 1286.71,140.752 
  "/>
<polyline clip-path="url(#clip362)" style="stroke:#000000; stroke-linecap:butt; stroke-linejoin:round; stroke-width:2; stroke-opacity:0.1; fill:none" points="
  1789.56,1401.58 1789.56,140.752 
  "/>
<polyline clip-path="url(#clip362)" style="stroke:#000000; stroke-linecap:butt; stroke-linejoin:round; stroke-width:2; stroke-opacity:0.1; fill:none" points="
  2292.41,1401.58 2292.41,140.752 
  "/>
<polyline clip-path="url(#clip360)" style="stroke:#000000; stroke-linecap:butt; stroke-linejoin:round; stroke-width:4; stroke-opacity:1; fill:none" points="
  220.672,1401.58 2352.76,1401.58 
  "/>
<polyline clip-path="url(#clip360)" style="stroke:#000000; stroke-linecap:butt; stroke-linejoin:round; stroke-width:4; stroke-opacity:1; fill:none" points="
  281.014,1401.58 281.014,1382.68 
  "/>
<polyline clip-path="url(#clip360)" style="stroke:#000000; stroke-linecap:butt; stroke-linejoin:round; stroke-width:4; stroke-opacity:1; fill:none" points="
  783.864,1401.58 783.864,1382.68 
  "/>
<polyline clip-path="url(#clip360)" style="stroke:#000000; stroke-linecap:butt; stroke-linejoin:round; stroke-width:4; stroke-opacity:1; fill:none" points="
  1286.71,1401.58 1286.71,1382.68 
  "/>
<polyline clip-path="url(#clip360)" style="stroke:#000000; stroke-linecap:butt; stroke-linejoin:round; stroke-width:4; stroke-opacity:1; fill:none" points="
  1789.56,1401.58 1789.56,1382.68 
  "/>
<polyline clip-path="url(#clip360)" style="stroke:#000000; stroke-linecap:butt; stroke-linejoin:round; stroke-width:4; stroke-opacity:1; fill:none" points="
  2292.41,1401.58 2292.41,1382.68 
  "/>
<path clip-path="url(#clip360)" d="M214.174 1453.74 L251.269 1453.74 L251.269 1458.66 L214.174 1458.66 L214.174 1453.74 Z" fill="#000000" fill-rule="evenodd" fill-opacity="1" /><path clip-path="url(#clip360)" d="M264.897 1469.86 L274.446 1469.86 L274.446 1436.9 L264.058 1438.99 L264.058 1433.66 L274.388 1431.58 L280.233 1431.58 L280.233 1469.86 L289.781 1469.86 L289.781 1474.78 L264.897 1474.78 L264.897 1469.86 Z" fill="#000000" fill-rule="evenodd" fill-opacity="1" /><path clip-path="url(#clip360)" d="M301.587 1467.43 L307.692 1467.43 L307.692 1474.78 L301.587 1474.78 L301.587 1467.43 Z" fill="#000000" fill-rule="evenodd" fill-opacity="1" /><path clip-path="url(#clip360)" d="M332.923 1435.43 Q328.41 1435.43 326.124 1439.88 Q323.867 1444.31 323.867 1453.22 Q323.867 1462.11 326.124 1466.56 Q328.41 1470.99 332.923 1470.99 Q337.466 1470.99 339.723 1466.56 Q342.009 1462.11 342.009 1453.22 Q342.009 1444.31 339.723 1439.88 Q337.466 1435.43 332.923 1435.43 M332.923 1430.8 Q340.186 1430.8 344.006 1436.56 Q347.854 1442.29 347.854 1453.22 Q347.854 1464.13 344.006 1469.89 Q340.186 1475.62 332.923 1475.62 Q325.661 1475.62 321.812 1469.89 Q317.993 1464.13 317.993 1453.22 Q317.993 1442.29 321.812 1436.56 Q325.661 1430.8 332.923 1430.8 Z" fill="#000000" fill-rule="evenodd" fill-opacity="1" /><path clip-path="url(#clip360)" d="M717.646 1453.74 L754.741 1453.74 L754.741 1458.66 L717.646 1458.66 L717.646 1453.74 Z" fill="#000000" fill-rule="evenodd" fill-opacity="1" /><path clip-path="url(#clip360)" d="M779.856 1435.43 Q775.343 1435.43 773.057 1439.88 Q770.8 1444.31 770.8 1453.22 Q770.8 1462.11 773.057 1466.56 Q775.343 1470.99 779.856 1470.99 Q784.399 1470.99 786.656 1466.56 Q788.942 1462.11 788.942 1453.22 Q788.942 1444.31 786.656 1439.88 Q784.399 1435.43 779.856 1435.43 M779.856 1430.8 Q787.119 1430.8 790.939 1436.56 Q794.787 1442.29 794.787 1453.22 Q794.787 1464.13 790.939 1469.89 Q787.119 1475.62 779.856 1475.62 Q772.594 1475.62 768.745 1469.89 Q764.926 1464.13 764.926 1453.22 Q764.926 1442.29 768.745 1436.56 Q772.594 1430.8 779.856 1430.8 Z" fill="#000000" fill-rule="evenodd" fill-opacity="1" /><path clip-path="url(#clip360)" d="M805.059 1467.43 L811.164 1467.43 L811.164 1474.78 L805.059 1474.78 L805.059 1467.43 Z" fill="#000000" fill-rule="evenodd" fill-opacity="1" /><path clip-path="url(#clip360)" d="M823.953 1431.58 L846.899 1431.58 L846.899 1436.5 L829.306 1436.5 L829.306 1447.09 Q830.58 1446.65 831.853 1446.45 Q833.126 1446.22 834.399 1446.22 Q841.633 1446.22 845.857 1450.19 Q850.082 1454.15 850.082 1460.92 Q850.082 1467.89 845.742 1471.77 Q841.401 1475.62 833.502 1475.62 Q830.782 1475.62 827.946 1475.16 Q825.14 1474.69 822.131 1473.77 L822.131 1467.89 Q824.735 1469.31 827.512 1470.01 Q830.29 1470.7 833.386 1470.7 Q838.392 1470.7 841.314 1468.07 Q844.237 1465.43 844.237 1460.92 Q844.237 1456.41 841.314 1453.77 Q838.392 1451.14 833.386 1451.14 Q831.043 1451.14 828.699 1451.66 Q826.384 1452.18 823.953 1453.28 L823.953 1431.58 Z" fill="#000000" fill-rule="evenodd" fill-opacity="1" /><path clip-path="url(#clip360)" d="M1258.44 1435.43 Q1253.93 1435.43 1251.64 1439.88 Q1249.39 1444.31 1249.39 1453.22 Q1249.39 1462.11 1251.64 1466.56 Q1253.93 1470.99 1258.44 1470.99 Q1262.99 1470.99 1265.24 1466.56 Q1267.53 1462.11 1267.53 1453.22 Q1267.53 1444.31 1265.24 1439.88 Q1262.99 1435.43 1258.44 1435.43 M1258.44 1430.8 Q1265.71 1430.8 1269.53 1436.56 Q1273.37 1442.29 1273.37 1453.22 Q1273.37 1464.13 1269.53 1469.89 Q1265.71 1475.62 1258.44 1475.62 Q1251.18 1475.62 1247.33 1469.89 Q1243.51 1464.13 1243.51 1453.22 Q1243.51 1442.29 1247.33 1436.56 Q1251.18 1430.8 1258.44 1430.8 Z" fill="#000000" fill-rule="evenodd" fill-opacity="1" /><path clip-path="url(#clip360)" d="M1283.65 1467.43 L1289.75 1467.43 L1289.75 1474.78 L1283.65 1474.78 L1283.65 1467.43 Z" fill="#000000" fill-rule="evenodd" fill-opacity="1" /><path clip-path="url(#clip360)" d="M1314.98 1435.43 Q1310.47 1435.43 1308.18 1439.88 Q1305.93 1444.31 1305.93 1453.22 Q1305.93 1462.11 1308.18 1466.56 Q1310.47 1470.99 1314.98 1470.99 Q1319.53 1470.99 1321.78 1466.56 Q1324.07 1462.11 1324.07 1453.22 Q1324.07 1444.31 1321.78 1439.88 Q1319.53 1435.43 1314.98 1435.43 M1314.98 1430.8 Q1322.25 1430.8 1326.07 1436.56 Q1329.91 1442.29 1329.91 1453.22 Q1329.91 1464.13 1326.07 1469.89 Q1322.25 1475.62 1314.98 1475.62 Q1307.72 1475.62 1303.87 1469.89 Q1300.05 1464.13 1300.05 1453.22 Q1300.05 1442.29 1303.87 1436.56 Q1307.72 1430.8 1314.98 1430.8 Z" fill="#000000" fill-rule="evenodd" fill-opacity="1" /><path clip-path="url(#clip360)" d="M1761.92 1435.43 Q1757.4 1435.43 1755.12 1439.88 Q1752.86 1444.31 1752.86 1453.22 Q1752.86 1462.11 1755.12 1466.56 Q1757.4 1470.99 1761.92 1470.99 Q1766.46 1470.99 1768.72 1466.56 Q1771 1462.11 1771 1453.22 Q1771 1444.31 1768.72 1439.88 Q1766.46 1435.43 1761.92 1435.43 M1761.92 1430.8 Q1769.18 1430.8 1773 1436.56 Q1776.85 1442.29 1776.85 1453.22 Q1776.85 1464.13 1773 1469.89 Q1769.18 1475.62 1761.92 1475.62 Q1754.65 1475.62 1750.81 1469.89 Q1746.99 1464.13 1746.99 1453.22 Q1746.99 1442.29 1750.81 1436.56 Q1754.65 1430.8 1761.92 1430.8 Z" fill="#000000" fill-rule="evenodd" fill-opacity="1" /><path clip-path="url(#clip360)" d="M1787.12 1467.43 L1793.22 1467.43 L1793.22 1474.78 L1787.12 1474.78 L1787.12 1467.43 Z" fill="#000000" fill-rule="evenodd" fill-opacity="1" /><path clip-path="url(#clip360)" d="M1806.01 1431.58 L1828.96 1431.58 L1828.96 1436.5 L1811.37 1436.5 L1811.37 1447.09 Q1812.64 1446.65 1813.91 1446.45 Q1815.19 1446.22 1816.46 1446.22 Q1823.69 1446.22 1827.92 1450.19 Q1832.14 1454.15 1832.14 1460.92 Q1832.14 1467.89 1827.8 1471.77 Q1823.46 1475.62 1815.56 1475.62 Q1812.84 1475.62 1810.01 1475.16 Q1807.2 1474.69 1804.19 1473.77 L1804.19 1467.89 Q1806.79 1469.31 1809.57 1470.01 Q1812.35 1470.7 1815.45 1470.7 Q1820.45 1470.7 1823.37 1468.07 Q1826.3 1465.43 1826.3 1460.92 Q1826.3 1456.41 1823.37 1453.77 Q1820.45 1451.14 1815.45 1451.14 Q1813.1 1451.14 1810.76 1451.66 Q1808.44 1452.18 1806.01 1453.28 L1806.01 1431.58 Z" fill="#000000" fill-rule="evenodd" fill-opacity="1" /><path clip-path="url(#clip360)" d="M2251.36 1469.86 L2260.9 1469.86 L2260.9 1436.9 L2250.52 1438.99 L2250.52 1433.66 L2260.85 1431.58 L2266.69 1431.58 L2266.69 1469.86 L2276.24 1469.86 L2276.24 1474.78 L2251.36 1474.78 L2251.36 1469.86 Z" fill="#000000" fill-rule="evenodd" fill-opacity="1" /><path clip-path="url(#clip360)" d="M2288.04 1467.43 L2294.15 1467.43 L2294.15 1474.78 L2288.04 1474.78 L2288.04 1467.43 Z" fill="#000000" fill-rule="evenodd" fill-opacity="1" /><path clip-path="url(#clip360)" d="M2319.38 1435.43 Q2314.87 1435.43 2312.58 1439.88 Q2310.32 1444.31 2310.32 1453.22 Q2310.32 1462.11 2312.58 1466.56 Q2314.87 1470.99 2319.38 1470.99 Q2323.92 1470.99 2326.18 1466.56 Q2328.47 1462.11 2328.47 1453.22 Q2328.47 1444.31 2326.18 1439.88 Q2323.92 1435.43 2319.38 1435.43 M2319.38 1430.8 Q2326.64 1430.8 2330.46 1436.56 Q2334.31 1442.29 2334.31 1453.22 Q2334.31 1464.13 2330.46 1469.89 Q2326.64 1475.62 2319.38 1475.62 Q2312.12 1475.62 2308.27 1469.89 Q2304.45 1464.13 2304.45 1453.22 Q2304.45 1442.29 2308.27 1436.56 Q2312.12 1430.8 2319.38 1430.8 Z" fill="#000000" fill-rule="evenodd" fill-opacity="1" /><path clip-path="url(#clip360)" d="M1307.86 1529.59 L1291.45 1551.66 L1308.71 1574.96 L1299.92 1574.96 L1286.71 1557.13 L1273.51 1574.96 L1264.72 1574.96 L1282.34 1551.22 L1266.22 1529.59 L1275.01 1529.59 L1287.04 1545.75 L1299.07 1529.59 L1307.86 1529.59 Z" fill="#000000" fill-rule="evenodd" fill-opacity="1" /><polyline clip-path="url(#clip362)" style="stroke:#000000; stroke-linecap:butt; stroke-linejoin:round; stroke-width:2; stroke-opacity:0.1; fill:none" points="
  220.672,1365.9 2352.76,1365.9 
  "/>
<polyline clip-path="url(#clip362)" style="stroke:#000000; stroke-linecap:butt; stroke-linejoin:round; stroke-width:2; stroke-opacity:0.1; fill:none" points="
  220.672,1068.51 2352.76,1068.51 
  "/>
<polyline clip-path="url(#clip362)" style="stroke:#000000; stroke-linecap:butt; stroke-linejoin:round; stroke-width:2; stroke-opacity:0.1; fill:none" points="
  220.672,771.13 2352.76,771.13 
  "/>
<polyline clip-path="url(#clip362)" style="stroke:#000000; stroke-linecap:butt; stroke-linejoin:round; stroke-width:2; stroke-opacity:0.1; fill:none" points="
  220.672,473.747 2352.76,473.747 
  "/>
<polyline clip-path="url(#clip362)" style="stroke:#000000; stroke-linecap:butt; stroke-linejoin:round; stroke-width:2; stroke-opacity:0.1; fill:none" points="
  220.672,176.364 2352.76,176.364 
  "/>
<polyline clip-path="url(#clip360)" style="stroke:#000000; stroke-linecap:butt; stroke-linejoin:round; stroke-width:4; stroke-opacity:1; fill:none" points="
  220.672,1401.58 220.672,140.752 
  "/>
<polyline clip-path="url(#clip360)" style="stroke:#000000; stroke-linecap:butt; stroke-linejoin:round; stroke-width:4; stroke-opacity:1; fill:none" points="
  220.672,1365.9 239.57,1365.9 
  "/>
<polyline clip-path="url(#clip360)" style="stroke:#000000; stroke-linecap:butt; stroke-linejoin:round; stroke-width:4; stroke-opacity:1; fill:none" points="
  220.672,1068.51 239.57,1068.51 
  "/>
<polyline clip-path="url(#clip360)" style="stroke:#000000; stroke-linecap:butt; stroke-linejoin:round; stroke-width:4; stroke-opacity:1; fill:none" points="
  220.672,771.13 239.57,771.13 
  "/>
<polyline clip-path="url(#clip360)" style="stroke:#000000; stroke-linecap:butt; stroke-linejoin:round; stroke-width:4; stroke-opacity:1; fill:none" points="
  220.672,473.747 239.57,473.747 
  "/>
<polyline clip-path="url(#clip360)" style="stroke:#000000; stroke-linecap:butt; stroke-linejoin:round; stroke-width:4; stroke-opacity:1; fill:none" points="
  220.672,176.364 239.57,176.364 
  "/>
<path clip-path="url(#clip360)" d="M50.9921 1366.46 L88.0868 1366.46 L88.0868 1371.38 L50.9921 1371.38 L50.9921 1366.46 Z" fill="#000000" fill-rule="evenodd" fill-opacity="1" /><path clip-path="url(#clip360)" d="M101.715 1382.58 L111.264 1382.58 L111.264 1349.62 L100.876 1351.7 L100.876 1346.38 L111.206 1344.3 L117.051 1344.3 L117.051 1382.58 L126.599 1382.58 L126.599 1387.5 L101.715 1387.5 L101.715 1382.58 Z" fill="#000000" fill-rule="evenodd" fill-opacity="1" /><path clip-path="url(#clip360)" d="M138.405 1380.15 L144.51 1380.15 L144.51 1387.5 L138.405 1387.5 L138.405 1380.15 Z" fill="#000000" fill-rule="evenodd" fill-opacity="1" /><path clip-path="url(#clip360)" d="M169.741 1348.14 Q165.228 1348.14 162.942 1352.6 Q160.685 1357.03 160.685 1365.94 Q160.685 1374.82 162.942 1379.28 Q165.228 1383.71 169.741 1383.71 Q174.284 1383.71 176.541 1379.28 Q178.827 1374.82 178.827 1365.94 Q178.827 1357.03 176.541 1352.6 Q174.284 1348.14 169.741 1348.14 M169.741 1343.51 Q177.004 1343.51 180.824 1349.27 Q184.672 1355 184.672 1365.94 Q184.672 1376.85 180.824 1382.61 Q177.004 1388.34 169.741 1388.34 Q162.479 1388.34 158.63 1382.61 Q154.811 1376.85 154.811 1365.94 Q154.811 1355 158.63 1349.27 Q162.479 1343.51 169.741 1343.51 Z" fill="#000000" fill-rule="evenodd" fill-opacity="1" /><path clip-path="url(#clip360)" d="M52.2363 1069.08 L89.331 1069.08 L89.331 1074 L52.2363 1074 L52.2363 1069.08 Z" fill="#000000" fill-rule="evenodd" fill-opacity="1" /><path clip-path="url(#clip360)" d="M114.447 1050.76 Q109.933 1050.76 107.647 1055.22 Q105.39 1059.64 105.39 1068.56 Q105.39 1077.44 107.647 1081.9 Q109.933 1086.32 114.447 1086.32 Q118.989 1086.32 121.246 1081.9 Q123.532 1077.44 123.532 1068.56 Q123.532 1059.64 121.246 1055.22 Q118.989 1050.76 114.447 1050.76 M114.447 1046.13 Q121.709 1046.13 125.529 1051.89 Q129.377 1057.62 129.377 1068.56 Q129.377 1079.47 125.529 1085.22 Q121.709 1090.95 114.447 1090.95 Q107.184 1090.95 103.336 1085.22 Q99.5162 1079.47 99.5162 1068.56 Q99.5162 1057.62 103.336 1051.89 Q107.184 1046.13 114.447 1046.13 Z" fill="#000000" fill-rule="evenodd" fill-opacity="1" /><path clip-path="url(#clip360)" d="M139.649 1082.76 L145.754 1082.76 L145.754 1090.11 L139.649 1090.11 L139.649 1082.76 Z" fill="#000000" fill-rule="evenodd" fill-opacity="1" /><path clip-path="url(#clip360)" d="M158.544 1046.91 L181.489 1046.91 L181.489 1051.83 L163.897 1051.83 L163.897 1062.42 Q165.17 1061.99 166.443 1061.79 Q167.716 1061.55 168.989 1061.55 Q176.223 1061.55 180.447 1065.52 Q184.672 1069.48 184.672 1076.25 Q184.672 1083.23 180.332 1087.1 Q175.991 1090.95 168.092 1090.95 Q165.372 1090.95 162.537 1090.49 Q159.73 1090.03 156.721 1089.1 L156.721 1083.23 Q159.325 1084.64 162.103 1085.34 Q164.88 1086.03 167.976 1086.03 Q172.982 1086.03 175.905 1083.4 Q178.827 1080.77 178.827 1076.25 Q178.827 1071.74 175.905 1069.11 Q172.982 1066.47 167.976 1066.47 Q165.633 1066.47 163.289 1066.99 Q160.974 1067.51 158.544 1068.61 L158.544 1046.91 Z" fill="#000000" fill-rule="evenodd" fill-opacity="1" /><path clip-path="url(#clip360)" d="M113.202 753.379 Q108.689 753.379 106.403 757.835 Q104.146 762.262 104.146 771.174 Q104.146 780.057 106.403 784.513 Q108.689 788.94 113.202 788.94 Q117.745 788.94 120.002 784.513 Q122.288 780.057 122.288 771.174 Q122.288 762.262 120.002 757.835 Q117.745 753.379 113.202 753.379 M113.202 748.749 Q120.465 748.749 124.285 754.507 Q128.133 760.236 128.133 771.174 Q128.133 782.082 124.285 787.84 Q120.465 793.569 113.202 793.569 Q105.94 793.569 102.091 787.84 Q98.272 782.082 98.272 771.174 Q98.272 760.236 102.091 754.507 Q105.94 748.749 113.202 748.749 Z" fill="#000000" fill-rule="evenodd" fill-opacity="1" /><path clip-path="url(#clip360)" d="M138.405 785.381 L144.51 785.381 L144.51 792.73 L138.405 792.73 L138.405 785.381 Z" fill="#000000" fill-rule="evenodd" fill-opacity="1" /><path clip-path="url(#clip360)" d="M169.741 753.379 Q165.228 753.379 162.942 757.835 Q160.685 762.262 160.685 771.174 Q160.685 780.057 162.942 784.513 Q165.228 788.94 169.741 788.94 Q174.284 788.94 176.541 784.513 Q178.827 780.057 178.827 771.174 Q178.827 762.262 176.541 757.835 Q174.284 753.379 169.741 753.379 M169.741 748.749 Q177.004 748.749 180.824 754.507 Q184.672 760.236 184.672 771.174 Q184.672 782.082 180.824 787.84 Q177.004 793.569 169.741 793.569 Q162.479 793.569 158.63 787.84 Q154.811 782.082 154.811 771.174 Q154.811 760.236 158.63 754.507 Q162.479 748.749 169.741 748.749 Z" fill="#000000" fill-rule="evenodd" fill-opacity="1" /><path clip-path="url(#clip360)" d="M114.447 455.996 Q109.933 455.996 107.647 460.452 Q105.39 464.879 105.39 473.791 Q105.39 482.674 107.647 487.13 Q109.933 491.557 114.447 491.557 Q118.989 491.557 121.246 487.13 Q123.532 482.674 123.532 473.791 Q123.532 464.879 121.246 460.452 Q118.989 455.996 114.447 455.996 M114.447 451.366 Q121.709 451.366 125.529 457.124 Q129.377 462.853 129.377 473.791 Q129.377 484.699 125.529 490.457 Q121.709 496.186 114.447 496.186 Q107.184 496.186 103.336 490.457 Q99.5162 484.699 99.5162 473.791 Q99.5162 462.853 103.336 457.124 Q107.184 451.366 114.447 451.366 Z" fill="#000000" fill-rule="evenodd" fill-opacity="1" /><path clip-path="url(#clip360)" d="M139.649 487.998 L145.754 487.998 L145.754 495.347 L139.649 495.347 L139.649 487.998 Z" fill="#000000" fill-rule="evenodd" fill-opacity="1" /><path clip-path="url(#clip360)" d="M158.544 452.147 L181.489 452.147 L181.489 457.066 L163.897 457.066 L163.897 467.657 Q165.17 467.222 166.443 467.02 Q167.716 466.788 168.989 466.788 Q176.223 466.788 180.447 470.753 Q184.672 474.717 184.672 481.487 Q184.672 488.461 180.332 492.338 Q175.991 496.186 168.092 496.186 Q165.372 496.186 162.537 495.723 Q159.73 495.261 156.721 494.335 L156.721 488.461 Q159.325 489.879 162.103 490.573 Q164.88 491.268 167.976 491.268 Q172.982 491.268 175.905 488.634 Q178.827 486.001 178.827 481.487 Q178.827 476.974 175.905 474.341 Q172.982 471.707 167.976 471.707 Q165.633 471.707 163.289 472.228 Q160.974 472.749 158.544 473.849 L158.544 452.147 Z" fill="#000000" fill-rule="evenodd" fill-opacity="1" /><path clip-path="url(#clip360)" d="M101.715 193.045 L111.264 193.045 L111.264 160.088 L100.876 162.172 L100.876 156.848 L111.206 154.764 L117.051 154.764 L117.051 193.045 L126.599 193.045 L126.599 197.964 L101.715 197.964 L101.715 193.045 Z" fill="#000000" fill-rule="evenodd" fill-opacity="1" /><path clip-path="url(#clip360)" d="M138.405 190.615 L144.51 190.615 L144.51 197.964 L138.405 197.964 L138.405 190.615 Z" fill="#000000" fill-rule="evenodd" fill-opacity="1" /><path clip-path="url(#clip360)" d="M169.741 158.613 Q165.228 158.613 162.942 163.069 Q160.685 167.496 160.685 176.408 Q160.685 185.291 162.942 189.747 Q165.228 194.174 169.741 194.174 Q174.284 194.174 176.541 189.747 Q178.827 185.291 178.827 176.408 Q178.827 167.496 176.541 163.069 Q174.284 158.613 169.741 158.613 M169.741 153.983 Q177.004 153.983 180.824 159.741 Q184.672 165.47 184.672 176.408 Q184.672 187.316 180.824 193.074 Q177.004 198.804 169.741 198.804 Q162.479 198.804 158.63 193.074 Q154.811 187.316 154.811 176.408 Q154.811 165.47 158.63 159.741 Q162.479 153.983 169.741 153.983 Z" fill="#000000" fill-rule="evenodd" fill-opacity="1" /><path clip-path="url(#clip360)" d="M970.596 70.2913 L970.596 34.979 L980.179 34.979 L980.179 69.9267 Q980.179 78.2079 983.408 82.3746 Q986.637 86.4891 993.096 86.4891 Q1000.86 86.4891 1005.34 81.5412 Q1009.87 76.5933 1009.87 68.0517 L1009.87 34.979 L1019.45 34.979 L1019.45 93.312 L1009.87 93.312 L1009.87 84.3537 Q1006.38 89.6662 1001.74 92.2703 Q997.158 94.8224 991.064 94.8224 Q981.012 94.8224 975.804 88.5724 Q970.596 82.3225 970.596 70.2913 M994.71 33.5727 L994.71 33.5727 Z" fill="#000000" fill-rule="evenodd" fill-opacity="1" /><path clip-path="url(#clip360)" d="M1062.21 12.3749 Q1055.23 24.354 1051.85 36.0727 Q1048.46 47.7914 1048.46 59.8226 Q1048.46 71.8538 1051.85 83.6766 Q1055.28 95.4474 1062.21 107.374 L1053.88 107.374 Q1046.06 95.1349 1042.16 83.3121 Q1038.3 71.4892 1038.3 59.8226 Q1038.3 48.2081 1042.16 36.4373 Q1046.01 24.6665 1053.88 12.3749 L1062.21 12.3749 Z" fill="#000000" fill-rule="evenodd" fill-opacity="1" /><path clip-path="url(#clip360)" d="M1129.29 34.979 L1108.2 63.3642 L1130.39 93.312 L1119.08 93.312 L1102.11 70.3955 L1085.13 93.312 L1073.82 93.312 L1096.48 62.7913 L1075.75 34.979 L1087.05 34.979 L1102.52 55.7601 L1117.99 34.979 L1129.29 34.979 Z" fill="#000000" fill-rule="evenodd" fill-opacity="1" /><path clip-path="url(#clip360)" d="M1146.38 80.0829 L1157.37 80.0829 L1157.37 89.0412 L1148.82 105.708 L1142.11 105.708 L1146.38 89.0412 L1146.38 80.0829 Z" fill="#000000" fill-rule="evenodd" fill-opacity="1" /><path clip-path="url(#clip360)" d="M1221.22 18.4166 L1221.22 34.979 L1240.96 34.979 L1240.96 42.4269 L1221.22 42.4269 L1221.22 74.0934 Q1221.22 81.2287 1223.15 83.26 Q1225.13 85.2912 1231.12 85.2912 L1240.96 85.2912 L1240.96 93.312 L1231.12 93.312 Q1220.02 93.312 1215.8 89.1974 Q1211.58 85.0308 1211.58 74.0934 L1211.58 42.4269 L1204.55 42.4269 L1204.55 34.979 L1211.58 34.979 L1211.58 18.4166 L1221.22 18.4166 Z" fill="#000000" fill-rule="evenodd" fill-opacity="1" /><path clip-path="url(#clip360)" d="M1254.81 44.8748 L1321.58 44.8748 L1321.58 53.6247 L1254.81 53.6247 L1254.81 44.8748 M1254.81 66.1246 L1321.58 66.1246 L1321.58 74.9788 L1254.81 74.9788 L1254.81 66.1246 Z" fill="#000000" fill-rule="evenodd" fill-opacity="1" /><path clip-path="url(#clip360)" d="M1373.2 24.7186 L1346.64 66.2288 L1373.2 66.2288 L1373.2 24.7186 M1370.44 15.552 L1383.67 15.552 L1383.67 66.2288 L1394.76 66.2288 L1394.76 74.9788 L1383.67 74.9788 L1383.67 93.312 L1373.2 93.312 L1373.2 74.9788 L1338.09 74.9788 L1338.09 64.8226 L1370.44 15.552 Z" fill="#000000" fill-rule="evenodd" fill-opacity="1" /><path clip-path="url(#clip360)" d="M1412.16 80.0829 L1423.15 80.0829 L1423.15 93.312 L1412.16 93.312 L1412.16 80.0829 Z" fill="#000000" fill-rule="evenodd" fill-opacity="1" /><path clip-path="url(#clip360)" d="M1468.56 22.479 Q1460.44 22.479 1456.32 30.4998 Q1452.26 38.4685 1452.26 54.5101 Q1452.26 70.4996 1456.32 78.5204 Q1460.44 86.4891 1468.56 86.4891 Q1476.74 86.4891 1480.8 78.5204 Q1484.92 70.4996 1484.92 54.5101 Q1484.92 38.4685 1480.8 30.4998 Q1476.74 22.479 1468.56 22.479 M1468.56 14.1458 Q1481.63 14.1458 1488.51 24.5103 Q1495.44 34.8227 1495.44 54.5101 Q1495.44 74.1454 1488.51 84.51 Q1481.63 94.8224 1468.56 94.8224 Q1455.49 94.8224 1448.56 84.51 Q1441.69 74.1454 1441.69 54.5101 Q1441.69 34.8227 1448.56 24.5103 Q1455.49 14.1458 1468.56 14.1458 Z" fill="#000000" fill-rule="evenodd" fill-opacity="1" /><path clip-path="url(#clip360)" d="M1536.43 22.479 Q1528.3 22.479 1524.19 30.4998 Q1520.12 38.4685 1520.12 54.5101 Q1520.12 70.4996 1524.19 78.5204 Q1528.3 86.4891 1536.43 86.4891 Q1544.6 86.4891 1548.67 78.5204 Q1552.78 70.4996 1552.78 54.5101 Q1552.78 38.4685 1548.67 30.4998 Q1544.6 22.479 1536.43 22.479 M1536.43 14.1458 Q1549.5 14.1458 1556.37 24.5103 Q1563.3 34.8227 1563.3 54.5101 Q1563.3 74.1454 1556.37 84.51 Q1549.5 94.8224 1536.43 94.8224 Q1523.35 94.8224 1516.43 84.51 Q1509.55 74.1454 1509.55 54.5101 Q1509.55 34.8227 1516.43 24.5103 Q1523.35 14.1458 1536.43 14.1458 Z" fill="#000000" fill-rule="evenodd" fill-opacity="1" /><path clip-path="url(#clip360)" d="M1578.93 12.3749 L1587.26 12.3749 Q1595.07 24.6665 1598.93 36.4373 Q1602.83 48.2081 1602.83 59.8226 Q1602.83 71.4892 1598.93 83.3121 Q1595.07 95.1349 1587.26 107.374 L1578.93 107.374 Q1585.85 95.4474 1589.24 83.6766 Q1592.68 71.8538 1592.68 59.8226 Q1592.68 47.7914 1589.24 36.0727 Q1585.85 24.354 1578.93 12.3749 Z" fill="#000000" fill-rule="evenodd" fill-opacity="1" /><circle clip-path="url(#clip362)" cx="281.014" cy="1169.65" r="14" fill="#009af9" fill-rule="evenodd" fill-opacity="1" stroke="#000000" stroke-opacity="1" stroke-width="3.2"/>
<circle clip-path="url(#clip362)" cx="343.87" cy="1162" r="14" fill="#009af9" fill-rule="evenodd" fill-opacity="1" stroke="#000000" stroke-opacity="1" stroke-width="3.2"/>
<circle clip-path="url(#clip362)" cx="406.726" cy="1139.32" r="14" fill="#009af9" fill-rule="evenodd" fill-opacity="1" stroke="#000000" stroke-opacity="1" stroke-width="3.2"/>
<circle clip-path="url(#clip362)" cx="469.583" cy="1102.49" r="14" fill="#009af9" fill-rule="evenodd" fill-opacity="1" stroke="#000000" stroke-opacity="1" stroke-width="3.2"/>
<circle clip-path="url(#clip362)" cx="532.439" cy="1052.93" r="14" fill="#009af9" fill-rule="evenodd" fill-opacity="1" stroke="#000000" stroke-opacity="1" stroke-width="3.2"/>
<circle clip-path="url(#clip362)" cx="595.295" cy="992.538" r="14" fill="#009af9" fill-rule="evenodd" fill-opacity="1" stroke="#000000" stroke-opacity="1" stroke-width="3.2"/>
<circle clip-path="url(#clip362)" cx="658.151" cy="923.639" r="14" fill="#009af9" fill-rule="evenodd" fill-opacity="1" stroke="#000000" stroke-opacity="1" stroke-width="3.2"/>
<circle clip-path="url(#clip362)" cx="721.008" cy="848.878" r="14" fill="#009af9" fill-rule="evenodd" fill-opacity="1" stroke="#000000" stroke-opacity="1" stroke-width="3.2"/>
<circle clip-path="url(#clip362)" cx="783.864" cy="771.13" r="14" fill="#009af9" fill-rule="evenodd" fill-opacity="1" stroke="#000000" stroke-opacity="1" stroke-width="3.2"/>
<circle clip-path="url(#clip362)" cx="846.72" cy="693.382" r="14" fill="#009af9" fill-rule="evenodd" fill-opacity="1" stroke="#000000" stroke-opacity="1" stroke-width="3.2"/>
<circle clip-path="url(#clip362)" cx="909.576" cy="618.622" r="14" fill="#009af9" fill-rule="evenodd" fill-opacity="1" stroke="#000000" stroke-opacity="1" stroke-width="3.2"/>
<circle clip-path="url(#clip362)" cx="972.433" cy="549.722" r="14" fill="#009af9" fill-rule="evenodd" fill-opacity="1" stroke="#000000" stroke-opacity="1" stroke-width="3.2"/>
<circle clip-path="url(#clip362)" cx="1035.29" cy="489.331" r="14" fill="#009af9" fill-rule="evenodd" fill-opacity="1" stroke="#000000" stroke-opacity="1" stroke-width="3.2"/>
<circle clip-path="url(#clip362)" cx="1098.15" cy="439.77" r="14" fill="#009af9" fill-rule="evenodd" fill-opacity="1" stroke="#000000" stroke-opacity="1" stroke-width="3.2"/>
<circle clip-path="url(#clip362)" cx="1161" cy="402.942" r="14" fill="#009af9" fill-rule="evenodd" fill-opacity="1" stroke="#000000" stroke-opacity="1" stroke-width="3.2"/>
<circle clip-path="url(#clip362)" cx="1223.86" cy="380.264" r="14" fill="#009af9" fill-rule="evenodd" fill-opacity="1" stroke="#000000" stroke-opacity="1" stroke-width="3.2"/>
<circle clip-path="url(#clip362)" cx="1286.71" cy="372.606" r="14" fill="#009af9" fill-rule="evenodd" fill-opacity="1" stroke="#000000" stroke-opacity="1" stroke-width="3.2"/>
<circle clip-path="url(#clip362)" cx="1349.57" cy="380.264" r="14" fill="#009af9" fill-rule="evenodd" fill-opacity="1" stroke="#000000" stroke-opacity="1" stroke-width="3.2"/>
<circle clip-path="url(#clip362)" cx="1412.43" cy="402.942" r="14" fill="#009af9" fill-rule="evenodd" fill-opacity="1" stroke="#000000" stroke-opacity="1" stroke-width="3.2"/>
<circle clip-path="url(#clip362)" cx="1475.28" cy="439.77" r="14" fill="#009af9" fill-rule="evenodd" fill-opacity="1" stroke="#000000" stroke-opacity="1" stroke-width="3.2"/>
<circle clip-path="url(#clip362)" cx="1538.14" cy="489.331" r="14" fill="#009af9" fill-rule="evenodd" fill-opacity="1" stroke="#000000" stroke-opacity="1" stroke-width="3.2"/>
<circle clip-path="url(#clip362)" cx="1601" cy="549.722" r="14" fill="#009af9" fill-rule="evenodd" fill-opacity="1" stroke="#000000" stroke-opacity="1" stroke-width="3.2"/>
<circle clip-path="url(#clip362)" cx="1663.85" cy="618.622" r="14" fill="#009af9" fill-rule="evenodd" fill-opacity="1" stroke="#000000" stroke-opacity="1" stroke-width="3.2"/>
<circle clip-path="url(#clip362)" cx="1726.71" cy="693.382" r="14" fill="#009af9" fill-rule="evenodd" fill-opacity="1" stroke="#000000" stroke-opacity="1" stroke-width="3.2"/>
<circle clip-path="url(#clip362)" cx="1789.56" cy="771.13" r="14" fill="#009af9" fill-rule="evenodd" fill-opacity="1" stroke="#000000" stroke-opacity="1" stroke-width="3.2"/>
<circle clip-path="url(#clip362)" cx="1852.42" cy="848.878" r="14" fill="#009af9" fill-rule="evenodd" fill-opacity="1" stroke="#000000" stroke-opacity="1" stroke-width="3.2"/>
<circle clip-path="url(#clip362)" cx="1915.28" cy="923.639" r="14" fill="#009af9" fill-rule="evenodd" fill-opacity="1" stroke="#000000" stroke-opacity="1" stroke-width="3.2"/>
<circle clip-path="url(#clip362)" cx="1978.13" cy="992.538" r="14" fill="#009af9" fill-rule="evenodd" fill-opacity="1" stroke="#000000" stroke-opacity="1" stroke-width="3.2"/>
<circle clip-path="url(#clip362)" cx="2040.99" cy="1052.93" r="14" fill="#009af9" fill-rule="evenodd" fill-opacity="1" stroke="#000000" stroke-opacity="1" stroke-width="3.2"/>
<circle clip-path="url(#clip362)" cx="2103.85" cy="1102.49" r="14" fill="#009af9" fill-rule="evenodd" fill-opacity="1" stroke="#000000" stroke-opacity="1" stroke-width="3.2"/>
<circle clip-path="url(#clip362)" cx="2166.7" cy="1139.32" r="14" fill="#009af9" fill-rule="evenodd" fill-opacity="1" stroke="#000000" stroke-opacity="1" stroke-width="3.2"/>
<circle clip-path="url(#clip362)" cx="2229.56" cy="1162" r="14" fill="#009af9" fill-rule="evenodd" fill-opacity="1" stroke="#000000" stroke-opacity="1" stroke-width="3.2"/>
<polyline clip-path="url(#clip362)" style="stroke:#e26f46; stroke-linecap:butt; stroke-linejoin:round; stroke-width:12; stroke-opacity:1; fill:none" points="
  281.014,1169.81 285.925,1169.77 290.835,1169.63 295.746,1169.39 300.657,1169.06 346.064,1161.61 391.471,1146.32 436.878,1123.48 482.285,1093.58 509.572,1072.44 
  536.86,1049.12 564.147,1023.78 591.435,996.608 637.578,947.041 683.721,893.825 783.968,771 876.388,657.498 925.93,599.952 975.472,546.497 1032.87,491.356 
  1090.27,445.186 1115.77,427.948 1141.28,412.887 1166.78,400.099 1192.29,389.665 1237.02,377.241 1281.75,372.495 1330.52,376.174 1379.29,389.001 1428.35,410.834 
  1477.4,441.112 1531.64,483.558 1585.88,534.239 1637.49,588.784 1689.1,648.058 1796.42,779.672 1886.76,890.332 1941.91,953.784 1997.06,1011.83 2048.9,1059.92 
  2100.74,1100.46 2142.27,1126.76 2183.8,1147.08 2225.32,1161.09 2266.85,1168.54 2273.24,1169.1 2279.63,1169.5 2286.02,1169.73 2292.41,1169.81 
  "/>
<polyline clip-path="url(#clip362)" style="stroke:#808080; stroke-linecap:butt; stroke-linejoin:round; stroke-width:12; stroke-opacity:1; fill:none" stroke-dasharray="48, 30" points="
  281.014,1365.9 285.925,1365.83 290.835,1365.62 295.746,1365.27 300.657,1364.78 346.064,1353.66 391.471,1330.84 436.878,1296.78 482.285,1252.16 509.572,1220.64 
  536.86,1185.85 564.147,1148.04 591.435,1107.5 637.578,1033.56 683.721,954.169 783.968,770.936 876.388,601.611 925.93,515.762 975.472,436.016 1032.87,353.756 
  1090.27,284.878 1115.77,259.162 1141.28,236.694 1166.78,217.617 1192.29,202.051 1237.02,183.516 1281.75,176.436 1330.52,181.924 1379.29,201.06 1428.35,233.632 
  1477.4,278.801 1531.64,342.122 1585.88,417.73 1637.49,499.102 1689.1,587.527 1796.42,783.872 1886.76,948.959 1941.91,1043.62 1997.06,1130.21 2048.9,1201.96 
  2100.74,1262.44 2142.27,1301.67 2183.8,1331.99 2225.32,1352.88 2266.85,1364 2273.24,1364.83 2279.63,1365.42 2286.02,1365.78 2292.41,1365.9 
  "/>
<path clip-path="url(#clip360)" d="
M1599.62 441.98 L2281.69 441.98 L2281.69 182.78 L1599.62 182.78  Z
  " fill="#ffffff" fill-rule="evenodd" fill-opacity="1"/>
<polyline clip-path="url(#clip360)" style="stroke:#000000; stroke-linecap:butt; stroke-linejoin:round; stroke-width:4; stroke-opacity:1; fill:none" points="
  1599.62,441.98 2281.69,441.98 2281.69,182.78 1599.62,182.78 1599.62,441.98 
  "/>
<circle clip-path="url(#clip360)" cx="1694.38" cy="247.58" r="28" fill="#009af9" fill-rule="evenodd" fill-opacity="1" stroke="#000000" stroke-opacity="1" stroke-width="6.4"/>
<path clip-path="url(#clip360)" d="M1816.28 249.62 L1816.28 269.18 L1810.96 269.18 L1810.96 249.793 Q1810.96 245.193 1809.16 242.907 Q1807.37 240.621 1803.78 240.621 Q1799.47 240.621 1796.98 243.37 Q1794.49 246.118 1794.49 250.864 L1794.49 269.18 L1789.14 269.18 L1789.14 236.772 L1794.49 236.772 L1794.49 241.807 Q1796.4 238.885 1798.98 237.438 Q1801.58 235.991 1804.97 235.991 Q1810.55 235.991 1813.42 239.463 Q1816.28 242.907 1816.28 249.62 Z" fill="#000000" fill-rule="evenodd" fill-opacity="1" /><path clip-path="url(#clip360)" d="M1826.35 256.39 L1826.35 236.772 L1831.68 236.772 L1831.68 256.188 Q1831.68 260.789 1833.47 263.103 Q1835.26 265.389 1838.85 265.389 Q1843.16 265.389 1845.65 262.64 Q1848.17 259.892 1848.17 255.146 L1848.17 236.772 L1853.49 236.772 L1853.49 269.18 L1848.17 269.18 L1848.17 264.203 Q1846.23 267.154 1843.65 268.601 Q1841.11 270.019 1837.72 270.019 Q1832.14 270.019 1829.25 266.547 Q1826.35 263.074 1826.35 256.39 M1839.75 235.991 L1839.75 235.991 Z" fill="#000000" fill-rule="evenodd" fill-opacity="1" /><path clip-path="url(#clip360)" d="M1889.69 242.994 Q1891.69 239.406 1894.46 237.698 Q1897.24 235.991 1901 235.991 Q1906.07 235.991 1908.82 239.55 Q1911.57 243.08 1911.57 249.62 L1911.57 269.18 L1906.21 269.18 L1906.21 249.793 Q1906.21 245.135 1904.56 242.878 Q1902.91 240.621 1899.53 240.621 Q1895.39 240.621 1892.99 243.37 Q1890.59 246.118 1890.59 250.864 L1890.59 269.18 L1885.23 269.18 L1885.23 249.793 Q1885.23 245.106 1883.59 242.878 Q1881.94 240.621 1878.49 240.621 Q1874.41 240.621 1872.01 243.399 Q1869.61 246.147 1869.61 250.864 L1869.61 269.18 L1864.26 269.18 L1864.26 236.772 L1869.61 236.772 L1869.61 241.807 Q1871.43 238.827 1873.98 237.409 Q1876.53 235.991 1880.03 235.991 Q1883.56 235.991 1886.02 237.785 Q1888.5 239.579 1889.69 242.994 Z" fill="#000000" fill-rule="evenodd" fill-opacity="1" /><path clip-path="url(#clip360)" d="M1949.9 251.645 L1949.9 254.249 L1925.43 254.249 Q1925.77 259.747 1928.72 262.64 Q1931.7 265.505 1937 265.505 Q1940.07 265.505 1942.93 264.753 Q1945.82 264 1948.66 262.496 L1948.66 267.53 Q1945.8 268.746 1942.79 269.382 Q1939.78 270.019 1936.68 270.019 Q1928.93 270.019 1924.38 265.505 Q1919.87 260.991 1919.87 253.294 Q1919.87 245.337 1924.15 240.679 Q1928.46 235.991 1935.76 235.991 Q1942.29 235.991 1946.08 240.216 Q1949.9 244.411 1949.9 251.645 M1944.58 250.083 Q1944.52 245.713 1942.12 243.109 Q1939.75 240.505 1935.81 240.505 Q1931.36 240.505 1928.67 243.022 Q1926 245.54 1925.6 250.112 L1944.58 250.083 Z" fill="#000000" fill-rule="evenodd" fill-opacity="1" /><path clip-path="url(#clip360)" d="M1977.42 241.749 Q1976.52 241.228 1975.45 240.997 Q1974.41 240.737 1973.14 240.737 Q1968.63 240.737 1966.19 243.688 Q1963.79 246.61 1963.79 252.108 L1963.79 269.18 L1958.44 269.18 L1958.44 236.772 L1963.79 236.772 L1963.79 241.807 Q1965.47 238.856 1968.16 237.438 Q1970.85 235.991 1974.7 235.991 Q1975.25 235.991 1975.92 236.078 Q1976.58 236.136 1977.39 236.281 L1977.42 241.749 Z" fill="#000000" fill-rule="evenodd" fill-opacity="1" /><path clip-path="url(#clip360)" d="M1983.01 236.772 L1988.33 236.772 L1988.33 269.18 L1983.01 269.18 L1983.01 236.772 M1983.01 224.157 L1988.33 224.157 L1988.33 230.899 L1983.01 230.899 L1983.01 224.157 Z" fill="#000000" fill-rule="evenodd" fill-opacity="1" /><path clip-path="url(#clip360)" d="M2022.79 238.017 L2022.79 242.994 Q2020.53 241.749 2018.25 241.142 Q2015.99 240.505 2013.68 240.505 Q2008.5 240.505 2005.63 243.804 Q2002.77 247.073 2002.77 253.005 Q2002.77 258.937 2005.63 262.235 Q2008.5 265.505 2013.68 265.505 Q2015.99 265.505 2018.25 264.897 Q2020.53 264.261 2022.79 263.017 L2022.79 267.936 Q2020.56 268.977 2018.16 269.498 Q2015.79 270.019 2013.1 270.019 Q2005.78 270.019 2001.47 265.418 Q1997.16 260.817 1997.16 253.005 Q1997.16 245.077 2001.5 240.534 Q2005.86 235.991 2013.45 235.991 Q2015.91 235.991 2018.25 236.512 Q2020.59 237.004 2022.79 238.017 Z" fill="#000000" fill-rule="evenodd" fill-opacity="1" /><path clip-path="url(#clip360)" d="M2046.78 252.889 Q2040.33 252.889 2037.84 254.365 Q2035.35 255.841 2035.35 259.4 Q2035.35 262.235 2037.2 263.914 Q2039.08 265.563 2042.29 265.563 Q2046.72 265.563 2049.38 262.438 Q2052.07 259.284 2052.07 254.076 L2052.07 252.889 L2046.78 252.889 M2057.4 250.69 L2057.4 269.18 L2052.07 269.18 L2052.07 264.261 Q2050.25 267.212 2047.53 268.63 Q2044.81 270.019 2040.88 270.019 Q2035.9 270.019 2032.95 267.241 Q2030.03 264.434 2030.03 259.747 Q2030.03 254.278 2033.67 251.5 Q2037.35 248.723 2044.61 248.723 L2052.07 248.723 L2052.07 248.202 Q2052.07 244.527 2049.64 242.531 Q2047.24 240.505 2042.87 240.505 Q2040.09 240.505 2037.46 241.171 Q2034.83 241.836 2032.4 243.167 L2032.4 238.248 Q2035.32 237.12 2038.07 236.57 Q2040.82 235.991 2043.42 235.991 Q2050.45 235.991 2053.93 239.637 Q2057.4 243.283 2057.4 250.69 Z" fill="#000000" fill-rule="evenodd" fill-opacity="1" /><path clip-path="url(#clip360)" d="M2068.36 224.157 L2073.69 224.157 L2073.69 269.18 L2068.36 269.18 L2068.36 224.157 Z" fill="#000000" fill-rule="evenodd" fill-opacity="1" /><polyline clip-path="url(#clip360)" style="stroke:#e26f46; stroke-linecap:butt; stroke-linejoin:round; stroke-width:5; stroke-opacity:1; fill:none" points="
  1623.31,312.38 1765.45,312.38 
  "/>
<path clip-path="url(#clip360)" d="M1805.89 317.689 Q1799.44 317.689 1796.95 319.165 Q1794.47 320.641 1794.47 324.2 Q1794.47 327.035 1796.32 328.714 Q1798.2 330.363 1801.41 330.363 Q1805.84 330.363 1808.5 327.238 Q1811.19 324.084 1811.19 318.876 L1811.19 317.689 L1805.89 317.689 M1816.51 315.49 L1816.51 333.98 L1811.19 333.98 L1811.19 329.061 Q1809.37 332.012 1806.65 333.43 Q1803.93 334.819 1799.99 334.819 Q1795.02 334.819 1792.06 332.041 Q1789.14 329.234 1789.14 324.547 Q1789.14 319.078 1792.79 316.3 Q1796.46 313.523 1803.72 313.523 L1811.19 313.523 L1811.19 313.002 Q1811.19 309.327 1808.76 307.331 Q1806.36 305.305 1801.99 305.305 Q1799.21 305.305 1796.58 305.971 Q1793.94 306.636 1791.51 307.967 L1791.51 303.048 Q1794.44 301.92 1797.19 301.37 Q1799.93 300.791 1802.54 300.791 Q1809.57 300.791 1813.04 304.437 Q1816.51 308.083 1816.51 315.49 Z" fill="#000000" fill-rule="evenodd" fill-opacity="1" /><path clip-path="url(#clip360)" d="M1854.42 314.42 L1854.42 333.98 L1849.09 333.98 L1849.09 314.593 Q1849.09 309.993 1847.3 307.707 Q1845.51 305.421 1841.92 305.421 Q1837.61 305.421 1835.12 308.17 Q1832.63 310.918 1832.63 315.664 L1832.63 333.98 L1827.28 333.98 L1827.28 301.572 L1832.63 301.572 L1832.63 306.607 Q1834.54 303.685 1837.12 302.238 Q1839.72 300.791 1843.11 300.791 Q1848.69 300.791 1851.55 304.263 Q1854.42 307.707 1854.42 314.42 Z" fill="#000000" fill-rule="evenodd" fill-opacity="1" /><path clip-path="url(#clip360)" d="M1879.77 317.689 Q1873.31 317.689 1870.82 319.165 Q1868.34 320.641 1868.34 324.2 Q1868.34 327.035 1870.19 328.714 Q1872.07 330.363 1875.28 330.363 Q1879.71 330.363 1882.37 327.238 Q1885.06 324.084 1885.06 318.876 L1885.06 317.689 L1879.77 317.689 M1890.39 315.49 L1890.39 333.98 L1885.06 333.98 L1885.06 329.061 Q1883.24 332.012 1880.52 333.43 Q1877.8 334.819 1873.86 334.819 Q1868.89 334.819 1865.93 332.041 Q1863.01 329.234 1863.01 324.547 Q1863.01 319.078 1866.66 316.3 Q1870.33 313.523 1877.6 313.523 L1885.06 313.523 L1885.06 313.002 Q1885.06 309.327 1882.63 307.331 Q1880.23 305.305 1875.86 305.305 Q1873.08 305.305 1870.45 305.971 Q1867.82 306.636 1865.39 307.967 L1865.39 303.048 Q1868.31 301.92 1871.06 301.37 Q1873.81 300.791 1876.41 300.791 Q1883.44 300.791 1886.91 304.437 Q1890.39 308.083 1890.39 315.49 Z" fill="#000000" fill-rule="evenodd" fill-opacity="1" /><path clip-path="url(#clip360)" d="M1901.35 288.957 L1906.68 288.957 L1906.68 333.98 L1901.35 333.98 L1901.35 288.957 Z" fill="#000000" fill-rule="evenodd" fill-opacity="1" /><path clip-path="url(#clip360)" d="M1931.3 336.989 Q1929.04 342.776 1926.9 344.541 Q1924.76 346.306 1921.17 346.306 L1916.92 346.306 L1916.92 341.85 L1920.04 341.85 Q1922.24 341.85 1923.46 340.808 Q1924.67 339.767 1926.15 335.889 L1927.1 333.459 L1914 301.572 L1919.64 301.572 L1929.77 326.92 L1939.89 301.572 L1945.54 301.572 L1931.3 336.989 Z" fill="#000000" fill-rule="evenodd" fill-opacity="1" /><path clip-path="url(#clip360)" d="M1958.15 292.371 L1958.15 301.572 L1969.12 301.572 L1969.12 305.71 L1958.15 305.71 L1958.15 323.303 Q1958.15 327.267 1959.22 328.395 Q1960.32 329.524 1963.65 329.524 L1969.12 329.524 L1969.12 333.98 L1963.65 333.98 Q1957.49 333.98 1955.14 331.694 Q1952.8 329.379 1952.8 323.303 L1952.8 305.71 L1948.89 305.71 L1948.89 301.572 L1952.8 301.572 L1952.8 292.371 L1958.15 292.371 Z" fill="#000000" fill-rule="evenodd" fill-opacity="1" /><path clip-path="url(#clip360)" d="M1976.12 301.572 L1981.44 301.572 L1981.44 333.98 L1976.12 333.98 L1976.12 301.572 M1976.12 288.957 L1981.44 288.957 L1981.44 295.699 L1976.12 295.699 L1976.12 288.957 Z" fill="#000000" fill-rule="evenodd" fill-opacity="1" /><path clip-path="url(#clip360)" d="M2015.91 302.817 L2015.91 307.794 Q2013.65 306.549 2011.36 305.942 Q2009.11 305.305 2006.79 305.305 Q2001.61 305.305 1998.75 308.604 Q1995.88 311.873 1995.88 317.805 Q1995.88 323.737 1998.75 327.035 Q2001.61 330.305 2006.79 330.305 Q2009.11 330.305 2011.36 329.697 Q2013.65 329.061 2015.91 327.817 L2015.91 332.736 Q2013.68 333.777 2011.28 334.298 Q2008.9 334.819 2006.21 334.819 Q1998.89 334.819 1994.58 330.218 Q1990.27 325.617 1990.27 317.805 Q1990.27 309.877 1994.61 305.334 Q1998.98 300.791 2006.56 300.791 Q2009.02 300.791 2011.36 301.312 Q2013.71 301.804 2015.91 302.817 Z" fill="#000000" fill-rule="evenodd" fill-opacity="1" /><path clip-path="url(#clip360)" d="M2039.89 317.689 Q2033.44 317.689 2030.95 319.165 Q2028.46 320.641 2028.46 324.2 Q2028.46 327.035 2030.31 328.714 Q2032.2 330.363 2035.41 330.363 Q2039.83 330.363 2042.5 327.238 Q2045.19 324.084 2045.19 318.876 L2045.19 317.689 L2039.89 317.689 M2050.51 315.49 L2050.51 333.98 L2045.19 333.98 L2045.19 329.061 Q2043.36 332.012 2040.64 333.43 Q2037.92 334.819 2033.99 334.819 Q2029.01 334.819 2026.06 332.041 Q2023.14 329.234 2023.14 324.547 Q2023.14 319.078 2026.78 316.3 Q2030.46 313.523 2037.72 313.523 L2045.19 313.523 L2045.19 313.002 Q2045.19 309.327 2042.76 307.331 Q2040.36 305.305 2035.99 305.305 Q2033.21 305.305 2030.58 305.971 Q2027.94 306.636 2025.51 307.967 L2025.51 303.048 Q2028.43 301.92 2031.18 301.37 Q2033.93 300.791 2036.54 300.791 Q2043.57 300.791 2047.04 304.437 Q2050.51 308.083 2050.51 315.49 Z" fill="#000000" fill-rule="evenodd" fill-opacity="1" /><path clip-path="url(#clip360)" d="M2061.48 288.957 L2066.8 288.957 L2066.8 333.98 L2061.48 333.98 L2061.48 288.957 Z" fill="#000000" fill-rule="evenodd" fill-opacity="1" /><polyline clip-path="url(#clip360)" style="stroke:#808080; stroke-linecap:butt; stroke-linejoin:round; stroke-width:5; stroke-opacity:1; fill:none" stroke-dasharray="20, 13" points="
  1623.31,377.18 1765.45,377.18 
  "/>
<path clip-path="url(#clip360)" d="M1789.14 366.372 L1794.47 366.372 L1794.47 398.78 L1789.14 398.78 L1789.14 366.372 M1789.14 353.757 L1794.47 353.757 L1794.47 360.499 L1789.14 360.499 L1789.14 353.757 Z" fill="#000000" fill-rule="evenodd" fill-opacity="1" /><path clip-path="url(#clip360)" d="M1832.54 379.22 L1832.54 398.78 L1827.22 398.78 L1827.22 379.393 Q1827.22 374.793 1825.43 372.507 Q1823.63 370.221 1820.04 370.221 Q1815.73 370.221 1813.24 372.97 Q1810.76 375.718 1810.76 380.464 L1810.76 398.78 L1805.4 398.78 L1805.4 366.372 L1810.76 366.372 L1810.76 371.407 Q1812.67 368.485 1815.24 367.038 Q1817.84 365.591 1821.23 365.591 Q1826.81 365.591 1829.68 369.063 Q1832.54 372.507 1832.54 379.22 Z" fill="#000000" fill-rule="evenodd" fill-opacity="1" /><path clip-path="url(#clip360)" d="M1843.16 366.372 L1848.49 366.372 L1848.49 398.78 L1843.16 398.78 L1843.16 366.372 M1843.16 353.757 L1848.49 353.757 L1848.49 360.499 L1843.16 360.499 L1843.16 353.757 Z" fill="#000000" fill-rule="evenodd" fill-opacity="1" /><path clip-path="url(#clip360)" d="M1864.89 357.171 L1864.89 366.372 L1875.86 366.372 L1875.86 370.51 L1864.89 370.51 L1864.89 388.103 Q1864.89 392.067 1865.96 393.195 Q1867.06 394.324 1870.39 394.324 L1875.86 394.324 L1875.86 398.78 L1870.39 398.78 Q1864.23 398.78 1861.88 396.494 Q1859.54 394.179 1859.54 388.103 L1859.54 370.51 L1855.63 370.51 L1855.63 366.372 L1859.54 366.372 L1859.54 357.171 L1864.89 357.171 Z" fill="#000000" fill-rule="evenodd" fill-opacity="1" /><path clip-path="url(#clip360)" d="M1882.86 366.372 L1888.19 366.372 L1888.19 398.78 L1882.86 398.78 L1882.86 366.372 M1882.86 353.757 L1888.19 353.757 L1888.19 360.499 L1882.86 360.499 L1882.86 353.757 Z" fill="#000000" fill-rule="evenodd" fill-opacity="1" /><path clip-path="url(#clip360)" d="M1914.05 382.489 Q1907.6 382.489 1905.11 383.965 Q1902.62 385.441 1902.62 389 Q1902.62 391.835 1904.48 393.514 Q1906.36 395.163 1909.57 395.163 Q1914 395.163 1916.66 392.038 Q1919.35 388.884 1919.35 383.676 L1919.35 382.489 L1914.05 382.489 M1924.67 380.29 L1924.67 398.78 L1919.35 398.78 L1919.35 393.861 Q1917.53 396.812 1914.81 398.23 Q1912.09 399.619 1908.15 399.619 Q1903.17 399.619 1900.22 396.841 Q1897.3 394.034 1897.3 389.347 Q1897.3 383.878 1900.95 381.1 Q1904.62 378.323 1911.88 378.323 L1919.35 378.323 L1919.35 377.802 Q1919.35 374.127 1916.92 372.131 Q1914.52 370.105 1910.15 370.105 Q1907.37 370.105 1904.74 370.771 Q1902.1 371.436 1899.67 372.767 L1899.67 367.848 Q1902.6 366.72 1905.34 366.17 Q1908.09 365.591 1910.7 365.591 Q1917.73 365.591 1921.2 369.237 Q1924.67 372.883 1924.67 380.29 Z" fill="#000000" fill-rule="evenodd" fill-opacity="1" /><path clip-path="url(#clip360)" d="M1935.64 353.757 L1940.96 353.757 L1940.96 398.78 L1935.64 398.78 L1935.64 353.757 Z" fill="#000000" fill-rule="evenodd" fill-opacity="1" /><path clip-path="url(#clip360)" d="M1994.26 367.617 L1994.26 372.594 Q1992 371.349 1989.72 370.742 Q1987.46 370.105 1985.15 370.105 Q1979.97 370.105 1977.1 373.404 Q1974.24 376.673 1974.24 382.605 Q1974.24 388.537 1977.1 391.835 Q1979.97 395.105 1985.15 395.105 Q1987.46 395.105 1989.72 394.497 Q1992 393.861 1994.26 392.617 L1994.26 397.536 Q1992.03 398.577 1989.63 399.098 Q1987.26 399.619 1984.57 399.619 Q1977.25 399.619 1972.94 395.018 Q1968.63 390.417 1968.63 382.605 Q1968.63 374.677 1972.97 370.134 Q1977.33 365.591 1984.92 365.591 Q1987.38 365.591 1989.72 366.112 Q1992.06 366.604 1994.26 367.617 Z" fill="#000000" fill-rule="evenodd" fill-opacity="1" /><path clip-path="url(#clip360)" d="M2016.08 370.105 Q2011.8 370.105 2009.31 373.462 Q2006.82 376.789 2006.82 382.605 Q2006.82 388.421 2009.28 391.777 Q2011.77 395.105 2016.08 395.105 Q2020.33 395.105 2022.82 391.749 Q2025.31 388.392 2025.31 382.605 Q2025.31 376.847 2022.82 373.491 Q2020.33 370.105 2016.08 370.105 M2016.08 365.591 Q2023.02 365.591 2026.99 370.105 Q2030.95 374.619 2030.95 382.605 Q2030.95 390.562 2026.99 395.105 Q2023.02 399.619 2016.08 399.619 Q2009.11 399.619 2005.14 395.105 Q2001.21 390.562 2001.21 382.605 Q2001.21 374.619 2005.14 370.105 Q2009.11 365.591 2016.08 365.591 Z" fill="#000000" fill-rule="evenodd" fill-opacity="1" /><path clip-path="url(#clip360)" d="M2066.72 379.22 L2066.72 398.78 L2061.39 398.78 L2061.39 379.393 Q2061.39 374.793 2059.6 372.507 Q2057.8 370.221 2054.22 370.221 Q2049.9 370.221 2047.42 372.97 Q2044.93 375.718 2044.93 380.464 L2044.93 398.78 L2039.57 398.78 L2039.57 366.372 L2044.93 366.372 L2044.93 371.407 Q2046.84 368.485 2049.41 367.038 Q2052.02 365.591 2055.4 365.591 Q2060.99 365.591 2063.85 369.063 Q2066.72 372.507 2066.72 379.22 Z" fill="#000000" fill-rule="evenodd" fill-opacity="1" /><path clip-path="url(#clip360)" d="M2098.66 371.291 L2098.66 353.757 L2103.98 353.757 L2103.98 398.78 L2098.66 398.78 L2098.66 393.919 Q2096.98 396.812 2094.41 398.23 Q2091.86 399.619 2088.27 399.619 Q2082.4 399.619 2078.69 394.931 Q2075.02 390.244 2075.02 382.605 Q2075.02 374.966 2078.69 370.279 Q2082.4 365.591 2088.27 365.591 Q2091.86 365.591 2094.41 367.009 Q2096.98 368.398 2098.66 371.291 M2080.52 382.605 Q2080.52 388.479 2082.92 391.835 Q2085.35 395.163 2089.57 395.163 Q2093.8 395.163 2096.23 391.835 Q2098.66 388.479 2098.66 382.605 Q2098.66 376.731 2096.23 373.404 Q2093.8 370.047 2089.57 370.047 Q2085.35 370.047 2082.92 373.404 Q2080.52 376.731 2080.52 382.605 Z" fill="#000000" fill-rule="evenodd" fill-opacity="1" /><path clip-path="url(#clip360)" d="M2114.95 366.372 L2120.27 366.372 L2120.27 398.78 L2114.95 398.78 L2114.95 366.372 M2114.95 353.757 L2120.27 353.757 L2120.27 360.499 L2114.95 360.499 L2114.95 353.757 Z" fill="#000000" fill-rule="evenodd" fill-opacity="1" /><path clip-path="url(#clip360)" d="M2136.68 357.171 L2136.68 366.372 L2147.65 366.372 L2147.65 370.51 L2136.68 370.51 L2136.68 388.103 Q2136.68 392.067 2137.75 393.195 Q2138.85 394.324 2142.18 394.324 L2147.65 394.324 L2147.65 398.78 L2142.18 398.78 Q2136.01 398.78 2133.67 396.494 Q2131.33 394.179 2131.33 388.103 L2131.33 370.51 L2127.42 370.51 L2127.42 366.372 L2131.33 366.372 L2131.33 357.171 L2136.68 357.171 Z" fill="#000000" fill-rule="evenodd" fill-opacity="1" /><path clip-path="url(#clip360)" d="M2154.65 366.372 L2159.97 366.372 L2159.97 398.78 L2154.65 398.78 L2154.65 366.372 M2154.65 353.757 L2159.97 353.757 L2159.97 360.499 L2154.65 360.499 L2154.65 353.757 Z" fill="#000000" fill-rule="evenodd" fill-opacity="1" /><path clip-path="url(#clip360)" d="M2183.67 370.105 Q2179.39 370.105 2176.9 373.462 Q2174.41 376.789 2174.41 382.605 Q2174.41 388.421 2176.87 391.777 Q2179.36 395.105 2183.67 395.105 Q2187.92 395.105 2190.41 391.749 Q2192.9 388.392 2192.9 382.605 Q2192.9 376.847 2190.41 373.491 Q2187.92 370.105 2183.67 370.105 M2183.67 365.591 Q2190.61 365.591 2194.58 370.105 Q2198.54 374.619 2198.54 382.605 Q2198.54 390.562 2194.58 395.105 Q2190.61 399.619 2183.67 399.619 Q2176.7 399.619 2172.73 395.105 Q2168.8 390.562 2168.8 382.605 Q2168.8 374.619 2172.73 370.105 Q2176.7 365.591 2183.67 365.591 Z" fill="#000000" fill-rule="evenodd" fill-opacity="1" /><path clip-path="url(#clip360)" d="M2234.31 379.22 L2234.31 398.78 L2228.98 398.78 L2228.98 379.393 Q2228.98 374.793 2227.19 372.507 Q2225.39 370.221 2221.81 370.221 Q2217.5 370.221 2215.01 372.97 Q2212.52 375.718 2212.52 380.464 L2212.52 398.78 L2207.17 398.78 L2207.17 366.372 L2212.52 366.372 L2212.52 371.407 Q2214.43 368.485 2217 367.038 Q2219.61 365.591 2222.99 365.591 Q2228.58 365.591 2231.44 369.063 Q2234.31 372.507 2234.31 379.22 Z" fill="#000000" fill-rule="evenodd" fill-opacity="1" /></svg>
