<?xml version="1.0" encoding="utf-8"?>
<svg xmlns="http://www.w3.org/2000/svg" xmlns:xlink="http://www.w3.org/1999/xlink" width="600" height="400" viewBox="0 0 2400 1600">
<defs>
  <clipPath id="clip720">
    <rect x="0" y="0" width="2400" height="1600"/>
  </clipPath>
</defs>
<path clip-path="url(#clip720)" d="
M0 1600 L2400 1600 L2400 0 L0 0  Z
  " fill="#ffffff" fill-rule="evenodd" fill-opacity="1"/>
<defs>
  <clipPath id="clip721">
    <rect x="480" y="0" width="1681" height="1600"/>
  </clipPath>
</defs>
<path clip-path="url(#clip720)" d="
M136.963 1401.58 L2352.76 1401.58 L2352.76 47.2441 L136.963 47.2441  Z
  " fill="#ffffff" fill-rule="evenodd" fill-opacity="1"/>
<defs>
  <clipPath id="clip722">
    <rect x="136" y="47" width="2217" height="1355"/>
  </clipPath>
</defs>
<polyline clip-path="url(#clip722)" style="stroke:#000000; stroke-width:2; stroke-opacity:0.1; fill:none" points="
  247.529,1401.58 247.529,47.2441 
  "/>
<polyline clip-path="url(#clip722)" style="stroke:#000000; stroke-width:2; stroke-opacity:0.1; fill:none" points="
  585.502,1401.58 585.502,47.2441 
  "/>
<polyline clip-path="url(#clip722)" style="stroke:#000000; stroke-width:2; stroke-opacity:0.1; fill:none" points="
  923.476,1401.58 923.476,47.2441 
  "/>
<polyline clip-path="url(#clip722)" style="stroke:#000000; stroke-width:2; stroke-opacity:0.1; fill:none" points="
  1261.45,1401.58 1261.45,47.2441 
  "/>
<polyline clip-path="url(#clip722)" style="stroke:#000000; stroke-width:2; stroke-opacity:0.1; fill:none" points="
  1599.42,1401.58 1599.42,47.2441 
  "/>
<polyline clip-path="url(#clip722)" style="stroke:#000000; stroke-width:2; stroke-opacity:0.1; fill:none" points="
  1937.4,1401.58 1937.4,47.2441 
  "/>
<polyline clip-path="url(#clip722)" style="stroke:#000000; stroke-width:2; stroke-opacity:0.1; fill:none" points="
  2275.37,1401.58 2275.37,47.2441 
  "/>
<polyline clip-path="url(#clip722)" style="stroke:#000000; stroke-width:2; stroke-opacity:0.1; fill:none" points="
  136.963,1289.4 2352.76,1289.4 
  "/>
<polyline clip-path="url(#clip722)" style="stroke:#000000; stroke-width:2; stroke-opacity:0.1; fill:none" points="
  136.963,994.018 2352.76,994.018 
  "/>
<polyline clip-path="url(#clip722)" style="stroke:#000000; stroke-width:2; stroke-opacity:0.1; fill:none" points="
  136.963,698.632 2352.76,698.632 
  "/>
<polyline clip-path="url(#clip722)" style="stroke:#000000; stroke-width:2; stroke-opacity:0.1; fill:none" points="
  136.963,403.247 2352.76,403.247 
  "/>
<polyline clip-path="url(#clip722)" style="stroke:#000000; stroke-width:2; stroke-opacity:0.1; fill:none" points="
  136.963,107.861 2352.76,107.861 
  "/>
<polyline clip-path="url(#clip720)" style="stroke:#000000; stroke-width:4; stroke-opacity:1; fill:none" points="
  136.963,1401.58 2352.76,1401.58 
  "/>
<polyline clip-path="url(#clip720)" style="stroke:#000000; stroke-width:4; stroke-opacity:1; fill:none" points="
  136.963,1401.58 136.963,47.2441 
  "/>
<polyline clip-path="url(#clip720)" style="stroke:#000000; stroke-width:4; stroke-opacity:1; fill:none" points="
  247.529,1401.58 247.529,1385.33 
  "/>
<polyline clip-path="url(#clip720)" style="stroke:#000000; stroke-width:4; stroke-opacity:1; fill:none" points="
  585.502,1401.58 585.502,1385.33 
  "/>
<polyline clip-path="url(#clip720)" style="stroke:#000000; stroke-width:4; stroke-opacity:1; fill:none" points="
  923.476,1401.58 923.476,1385.33 
  "/>
<polyline clip-path="url(#clip720)" style="stroke:#000000; stroke-width:4; stroke-opacity:1; fill:none" points="
  1261.45,1401.58 1261.45,1385.33 
  "/>
<polyline clip-path="url(#clip720)" style="stroke:#000000; stroke-width:4; stroke-opacity:1; fill:none" points="
  1599.42,1401.58 1599.42,1385.33 
  "/>
<polyline clip-path="url(#clip720)" style="stroke:#000000; stroke-width:4; stroke-opacity:1; fill:none" points="
  1937.4,1401.58 1937.4,1385.33 
  "/>
<polyline clip-path="url(#clip720)" style="stroke:#000000; stroke-width:4; stroke-opacity:1; fill:none" points="
  2275.37,1401.58 2275.37,1385.33 
  "/>
<polyline clip-path="url(#clip720)" style="stroke:#000000; stroke-width:4; stroke-opacity:1; fill:none" points="
  136.963,1289.4 163.552,1289.4 
  "/>
<polyline clip-path="url(#clip720)" style="stroke:#000000; stroke-width:4; stroke-opacity:1; fill:none" points="
  136.963,994.018 163.552,994.018 
  "/>
<polyline clip-path="url(#clip720)" style="stroke:#000000; stroke-width:4; stroke-opacity:1; fill:none" points="
  136.963,698.632 163.552,698.632 
  "/>
<polyline clip-path="url(#clip720)" style="stroke:#000000; stroke-width:4; stroke-opacity:1; fill:none" points="
  136.963,403.247 163.552,403.247 
  "/>
<polyline clip-path="url(#clip720)" style="stroke:#000000; stroke-width:4; stroke-opacity:1; fill:none" points="
  136.963,107.861 163.552,107.861 
  "/>
<path clip-path="url(#clip720)" d="M 0 0 M223.252 1446.81 L238.848 1446.81 L238.848 1451.56 L223.252 1451.56 L223.252 1446.81 Z" fill="#000000" fill-rule="evenodd" fill-opacity="1" /><path clip-path="url(#clip720)" d="M 0 0 M262.893 1442.13 Q267.089 1443.02 269.432 1445.86 Q271.805 1448.7 271.805 1452.86 Q271.805 1459.26 267.407 1462.76 Q263.009 1466.26 254.907 1466.26 Q252.187 1466.26 249.294 1465.71 Q246.429 1465.19 243.362 1464.12 L243.362 1458.48 Q245.793 1459.89 248.686 1460.62 Q251.58 1461.34 254.733 1461.34 Q260.231 1461.34 263.096 1459.17 Q265.989 1457 265.989 1452.86 Q265.989 1449.04 263.298 1446.9 Q260.636 1444.73 255.862 1444.73 L250.827 1444.73 L250.827 1439.93 L256.093 1439.93 Q260.405 1439.93 262.691 1438.22 Q264.976 1436.48 264.976 1433.24 Q264.976 1429.92 262.604 1428.15 Q260.26 1426.36 255.862 1426.36 Q253.46 1426.36 250.711 1426.88 Q247.963 1427.4 244.664 1428.5 L244.664 1423.29 Q247.992 1422.36 250.885 1421.9 Q253.808 1421.44 256.383 1421.44 Q263.038 1421.44 266.915 1424.48 Q270.792 1427.49 270.792 1432.64 Q270.792 1436.22 268.738 1438.71 Q266.684 1441.17 262.893 1442.13 Z" fill="#000000" fill-rule="evenodd" fill-opacity="1" /><path clip-path="url(#clip720)" d="M 0 0 M561.819 1446.81 L577.415 1446.81 L577.415 1451.56 L561.819 1451.56 L561.819 1446.81 Z" fill="#000000" fill-rule="evenodd" fill-opacity="1" /><path clip-path="url(#clip720)" d="M 0 0 M588.786 1460.5 L609.186 1460.5 L609.186 1465.42 L581.755 1465.42 L581.755 1460.5 Q585.083 1457.06 590.812 1451.27 Q596.57 1445.45 598.046 1443.78 Q600.852 1440.62 601.952 1438.45 Q603.08 1436.25 603.08 1434.14 Q603.08 1430.7 600.65 1428.53 Q598.248 1426.36 594.371 1426.36 Q591.622 1426.36 588.555 1427.31 Q585.517 1428.27 582.045 1430.21 L582.045 1424.3 Q585.575 1422.89 588.642 1422.16 Q591.709 1421.44 594.255 1421.44 Q600.968 1421.44 604.961 1424.8 Q608.954 1428.15 608.954 1433.76 Q608.954 1436.43 607.941 1438.83 Q606.958 1441.2 604.325 1444.44 Q603.601 1445.28 599.724 1449.3 Q595.847 1453.3 588.786 1460.5 Z" fill="#000000" fill-rule="evenodd" fill-opacity="1" /><path clip-path="url(#clip720)" d="M 0 0 M899.561 1446.81 L915.157 1446.81 L915.157 1451.56 L899.561 1451.56 L899.561 1446.81 Z" fill="#000000" fill-rule="evenodd" fill-opacity="1" /><path clip-path="url(#clip720)" d="M 0 0 M922.507 1460.5 L932.055 1460.5 L932.055 1427.54 L921.668 1429.63 L921.668 1424.3 L931.997 1422.22 L937.842 1422.22 L937.842 1460.5 L947.391 1460.5 L947.391 1465.42 L922.507 1465.42 L922.507 1460.5 Z" fill="#000000" fill-rule="evenodd" fill-opacity="1" /><path clip-path="url(#clip720)" d="M 0 0 M1261.45 1426.07 Q1256.94 1426.07 1254.65 1430.52 Q1252.39 1434.95 1252.39 1443.86 Q1252.39 1452.75 1254.65 1457.2 Q1256.94 1461.63 1261.45 1461.63 Q1265.99 1461.63 1268.25 1457.2 Q1270.54 1452.75 1270.54 1443.86 Q1270.54 1434.95 1268.25 1430.52 Q1265.99 1426.07 1261.45 1426.07 M1261.45 1421.44 Q1268.71 1421.44 1272.53 1427.2 Q1276.38 1432.93 1276.38 1443.86 Q1276.38 1454.77 1272.53 1460.53 Q1268.71 1466.26 1261.45 1466.26 Q1254.19 1466.26 1250.34 1460.53 Q1246.52 1454.77 1246.52 1443.86 Q1246.52 1432.93 1250.34 1427.2 Q1254.19 1421.44 1261.45 1421.44 Z" fill="#000000" fill-rule="evenodd" fill-opacity="1" /><path clip-path="url(#clip720)" d="M 0 0 M1587.4 1460.5 L1596.95 1460.5 L1596.95 1427.54 L1586.56 1429.63 L1586.56 1424.3 L1596.89 1422.22 L1602.74 1422.22 L1602.74 1460.5 L1612.28 1460.5 L1612.28 1465.42 L1587.4 1465.42 L1587.4 1460.5 Z" fill="#000000" fill-rule="evenodd" fill-opacity="1" /><path clip-path="url(#clip720)" d="M 0 0 M1930.71 1460.5 L1951.11 1460.5 L1951.11 1465.42 L1923.68 1465.42 L1923.68 1460.5 Q1927.01 1457.06 1932.74 1451.27 Q1938.5 1445.45 1939.97 1443.78 Q1942.78 1440.62 1943.88 1438.45 Q1945.01 1436.25 1945.01 1434.14 Q1945.01 1430.7 1942.58 1428.53 Q1940.17 1426.36 1936.3 1426.36 Q1933.55 1426.36 1930.48 1427.31 Q1927.44 1428.27 1923.97 1430.21 L1923.97 1424.3 Q1927.5 1422.89 1930.57 1422.16 Q1933.64 1421.44 1936.18 1421.44 Q1942.89 1421.44 1946.89 1424.8 Q1950.88 1428.15 1950.88 1433.76 Q1950.88 1436.43 1949.87 1438.83 Q1948.88 1441.2 1946.25 1444.44 Q1945.53 1445.28 1941.65 1449.3 Q1937.77 1453.3 1930.71 1460.5 Z" fill="#000000" fill-rule="evenodd" fill-opacity="1" /><path clip-path="url(#clip720)" d="M 0 0 M2280.68 1442.13 Q2284.88 1443.02 2287.22 1445.86 Q2289.59 1448.7 2289.59 1452.86 Q2289.59 1459.26 2285.19 1462.76 Q2280.8 1466.26 2272.69 1466.26 Q2269.97 1466.26 2267.08 1465.71 Q2264.22 1465.19 2261.15 1464.12 L2261.15 1458.48 Q2263.58 1459.89 2266.47 1460.62 Q2269.37 1461.34 2272.52 1461.34 Q2278.02 1461.34 2280.88 1459.17 Q2283.78 1457 2283.78 1452.86 Q2283.78 1449.04 2281.09 1446.9 Q2278.42 1444.73 2273.65 1444.73 L2268.61 1444.73 L2268.61 1439.93 L2273.88 1439.93 Q2278.19 1439.93 2280.48 1438.22 Q2282.76 1436.48 2282.76 1433.24 Q2282.76 1429.92 2280.39 1428.15 Q2278.05 1426.36 2273.65 1426.36 Q2271.25 1426.36 2268.5 1426.88 Q2265.75 1427.4 2262.45 1428.5 L2262.45 1423.29 Q2265.78 1422.36 2268.67 1421.9 Q2271.59 1421.44 2274.17 1421.44 Q2280.82 1421.44 2284.7 1424.48 Q2288.58 1427.49 2288.58 1432.64 Q2288.58 1436.22 2286.53 1438.71 Q2284.47 1441.17 2280.68 1442.13 Z" fill="#000000" fill-rule="evenodd" fill-opacity="1" /><path clip-path="url(#clip720)" d="M 0 0 M62.9921 1292.4 L78.5881 1292.4 L78.5881 1297.14 L62.9921 1297.14 L62.9921 1292.4 Z" fill="#000000" fill-rule="evenodd" fill-opacity="1" /><path clip-path="url(#clip720)" d="M 0 0 M100.984 1272.9 L86.227 1295.96 L100.984 1295.96 L100.984 1272.9 M99.4503 1267.8 L106.8 1267.8 L106.8 1295.96 L112.963 1295.96 L112.963 1300.82 L106.8 1300.82 L106.8 1311 L100.984 1311 L100.984 1300.82 L81.4816 1300.82 L81.4816 1295.18 L99.4503 1267.8 Z" fill="#000000" fill-rule="evenodd" fill-opacity="1" /><path clip-path="url(#clip720)" d="M 0 0 M65.5963 997.013 L81.1923 997.013 L81.1923 1001.76 L65.5963 1001.76 L65.5963 997.013 Z" fill="#000000" fill-rule="evenodd" fill-opacity="1" /><path clip-path="url(#clip720)" d="M 0 0 M92.5637 1010.7 L112.963 1010.7 L112.963 1015.62 L85.5325 1015.62 L85.5325 1010.7 Q88.86 1007.26 94.5892 1001.47 Q100.347 995.653 101.823 993.974 Q104.63 990.82 105.729 988.65 Q106.858 986.451 106.858 984.339 Q106.858 980.896 104.427 978.726 Q102.025 976.555 98.1482 976.555 Q95.3994 976.555 92.3322 977.51 Q89.2941 978.465 85.8219 980.404 L85.8219 974.501 Q89.3519 973.083 92.4191 972.36 Q95.4862 971.637 98.0324 971.637 Q104.745 971.637 108.738 974.993 Q112.731 978.349 112.731 983.963 Q112.731 986.625 111.719 989.026 Q110.735 991.399 108.102 994.64 Q107.378 995.479 103.501 999.501 Q99.6239 1003.49 92.5637 1010.7 Z" fill="#000000" fill-rule="evenodd" fill-opacity="1" /><path clip-path="url(#clip720)" d="M 0 0 M98.0324 680.881 Q93.5186 680.881 91.2327 685.337 Q88.9758 689.764 88.9758 698.676 Q88.9758 707.559 91.2327 712.015 Q93.5186 716.442 98.0324 716.442 Q102.575 716.442 104.832 712.015 Q107.118 707.559 107.118 698.676 Q107.118 689.764 104.832 685.337 Q102.575 680.881 98.0324 680.881 M98.0324 676.251 Q105.295 676.251 109.115 682.009 Q112.963 687.738 112.963 698.676 Q112.963 709.584 109.115 715.342 Q105.295 721.071 98.0324 721.071 Q90.7698 721.071 86.9214 715.342 Q83.102 709.584 83.102 698.676 Q83.102 687.738 86.9214 682.009 Q90.7698 676.251 98.0324 676.251 Z" fill="#000000" fill-rule="evenodd" fill-opacity="1" /><path clip-path="url(#clip720)" d="M 0 0 M92.5637 419.928 L112.963 419.928 L112.963 424.847 L85.5325 424.847 L85.5325 419.928 Q88.86 416.485 94.5892 410.698 Q100.347 404.882 101.823 403.203 Q104.63 400.049 105.729 397.879 Q106.858 395.68 106.858 393.568 Q106.858 390.125 104.427 387.955 Q102.025 385.785 98.1482 385.785 Q95.3994 385.785 92.3322 386.739 Q89.2941 387.694 85.8219 389.633 L85.8219 383.73 Q89.3519 382.312 92.4191 381.589 Q95.4862 380.866 98.0324 380.866 Q104.745 380.866 108.738 384.222 Q112.731 387.578 112.731 393.192 Q112.731 395.854 111.719 398.256 Q110.735 400.628 108.102 403.869 Q107.378 404.708 103.501 408.73 Q99.6239 412.723 92.5637 419.928 Z" fill="#000000" fill-rule="evenodd" fill-opacity="1" /><path clip-path="url(#clip720)" d="M 0 0 M100.984 91.3539 L86.227 114.415 L100.984 114.415 L100.984 91.3539 M99.4503 86.2613 L106.8 86.2613 L106.8 114.415 L112.963 114.415 L112.963 119.276 L106.8 119.276 L106.8 129.461 L100.984 129.461 L100.984 119.276 L81.4816 119.276 L81.4816 113.634 L99.4503 86.2613 Z" fill="#000000" fill-rule="evenodd" fill-opacity="1" /><path clip-path="url(#clip720)" d="M 0 0 M1266.01 1517.59 L1249.6 1539.66 L1266.86 1562.96 L1258.07 1562.96 L1244.86 1545.13 L1231.65 1562.96 L1222.86 1562.96 L1240.48 1539.22 L1224.36 1517.59 L1233.15 1517.59 L1245.18 1533.75 L1257.21 1517.59 L1266.01 1517.59 Z" fill="#000000" fill-rule="evenodd" fill-opacity="1" /><polyline clip-path="url(#clip722)" style="stroke:#009af9; stroke-width:8; stroke-opacity:1; fill:none" points="
  199.674,772.479 232.855,734.946 266.035,683.14 299.216,623.817 332.396,565.938 365.576,518.746 398.757,489.755 431.937,483.111 465.118,498.722 498.298,532.341 
  531.479,576.589 564.659,622.678 597.84,662.423 631.02,690.069 664.201,703.514 697.381,704.63 730.562,698.632 763.742,692.635 796.923,693.751 830.103,707.195 
  863.284,734.842 896.464,774.587 929.645,820.676 962.825,864.924 996.006,898.542 1029.19,914.154 1062.37,907.51 1095.55,878.518 1128.73,831.327 1161.91,773.448 
  1195.09,714.125 1228.27,662.319 1261.45,624.786 1294.63,604.692 1327.81,601.086 1360.99,609.34 1394.17,622.458 1427.35,632.914 1460.53,634.609 1493.71,624.444 
  1526.89,603.157 1560.07,575.214 1593.25,547.775 1626.44,528.983 1659.62,525.973 1692.8,543.088 1725.98,580.712 1759.16,635.008 1792.34,698.632 1825.52,762.257 
  1858.7,816.553 1891.88,854.177 1925.06,871.292 1958.24,868.282 1991.42,849.489 2024.6,822.051 2057.78,794.108 2090.96,772.821 2124.14,762.655 2157.32,764.35 
  2190.5,774.807 2223.68,787.924 2256.86,796.179 2290.04,792.572 
  "/>
<polyline clip-path="url(#clip722)" style="stroke:#e26f46; stroke-width:8; stroke-opacity:1; fill:none" points="
  199.674,403.247 232.855,234.868 266.035,118.727 299.216,85.5744 332.396,148.637 365.576,300.287 398.757,513.56 431.937,748.188 465.118,959.719 498.298,1109.59 
  531.479,1173.81 564.659,1148.16 597.84,1048.8 631.02,908.045 664.201,766.399 697.381,662.709 730.562,624.786 763.742,662.709 796.923,766.399 830.103,908.045 
  863.284,1048.8 896.464,1148.16 929.645,1173.81 962.825,1109.59 996.006,959.719 1029.19,748.188 1062.37,513.56 1095.55,300.287 1128.73,148.637 1161.91,85.5744 
  1195.09,118.727 1228.27,234.868 1261.45,403.247 1294.63,582.977 1327.81,732.737 1360.99,820.482 1394.17,830.889 1427.35,768.763 1460.53,657.627 1493.71,533.823 
  1526.89,437.546 1560.07,402.926 1593.25,449.534 1626.44,577.32 1659.62,766.202 1692.8,980.427 1725.98,1176.67 1759.16,1313.98 1792.34,1363.25 1825.52,1313.98 
  1858.7,1176.67 1891.88,980.427 1925.06,766.202 1958.24,577.32 1991.42,449.534 2024.6,402.926 2057.78,437.546 2090.96,533.823 2124.14,657.627 2157.32,768.763 
  2190.5,830.889 2223.68,820.482 2256.86,732.737 2290.04,582.977 
  "/>
<path clip-path="url(#clip720)" d="
M1894.39 319.189 L2278.9 319.189 L2278.9 92.3886 L1894.39 92.3886  Z
  " fill="#ffffff" fill-rule="evenodd" fill-opacity="1"/>
<polyline clip-path="url(#clip720)" style="stroke:#000000; stroke-width:4; stroke-opacity:1; fill:none" points="
  1894.39,319.189 2278.9,319.189 2278.9,92.3886 1894.39,92.3886 1894.39,319.189 
  "/>
<polyline clip-path="url(#clip720)" style="stroke:#009af9; stroke-width:5; stroke-opacity:1; fill:none" points="
  1919.01,167.989 2066.73,167.989 
  "/>
<path clip-path="url(#clip720)" d="M 0 0 M2091.35 176.799 L2091.35 157.181 L2096.67 157.181 L2096.67 176.597 Q2096.67 181.197 2098.46 183.512 Q2100.26 185.798 2103.85 185.798 Q2108.16 185.798 2110.65 183.049 Q2113.16 180.3 2113.16 175.555 L2113.16 157.181 L2118.49 157.181 L2118.49 189.589 L2113.16 189.589 L2113.16 184.612 Q2111.23 187.563 2108.65 189.01 Q2106.1 190.428 2102.72 190.428 Q2097.13 190.428 2094.24 186.956 Q2091.35 183.483 2091.35 176.799 M2104.74 156.4 L2104.74 156.4 Z" fill="#000000" fill-rule="evenodd" fill-opacity="1" /><polyline clip-path="url(#clip720)" style="stroke:#e26f46; stroke-width:5; stroke-opacity:1; fill:none" points="
  1919.01,243.589 2066.73,243.589 
  "/>
<path clip-path="url(#clip720)" d="M 0 0 M2101.24 266.028 Q2097.16 266.028 2094.5 263.568 Q2091.35 260.646 2091.35 255.351 Q2091.35 249.853 2094.12 245.571 Q2096.99 241.173 2102.14 241.173 Q2105.53 241.173 2108.19 243.285 Q2109.75 244.529 2110.82 246.612 Q2111.2 244.269 2111.2 241.607 Q2111.2 237.7 2110.27 235.443 Q2108.22 230.438 2102.78 230.438 Q2100.72 230.438 2097.54 231.711 L2097.54 226.85 Q2100.9 225.953 2103.9 225.953 Q2111.66 225.953 2114.96 233.071 Q2116.49 236.427 2116.49 241.433 Q2116.49 244.703 2115.77 248.493 Q2113.95 257.984 2109.23 262.498 Q2105.53 266.028 2101.24 266.028 M2096.29 256.219 Q2096.29 259.112 2097.57 260.675 Q2098.93 262.324 2101.01 262.324 Q2102.86 262.324 2104.34 261.022 Q2106.42 259.228 2107.96 256.306 Q2109.23 253.904 2109.87 251.329 Q2107.29 245.108 2102.83 245.108 Q2099.01 245.108 2097.34 250.142 Q2096.29 253.267 2096.29 256.219 Z" fill="#000000" fill-rule="evenodd" fill-opacity="1" /><path clip-path="url(#clip720)" d="M 0 0 M2121.53 252.399 L2121.53 232.781 L2126.85 232.781 L2126.85 252.197 Q2126.85 256.797 2128.64 259.112 Q2130.44 261.398 2134.03 261.398 Q2138.34 261.398 2140.83 258.649 Q2143.34 255.9 2143.34 251.155 L2143.34 232.781 L2148.67 232.781 L2148.67 265.189 L2143.34 265.189 L2143.34 260.212 Q2141.4 263.163 2138.83 264.61 Q2136.28 266.028 2132.9 266.028 Q2127.31 266.028 2124.42 262.556 Q2121.53 259.083 2121.53 252.399 M2134.92 232 L2134.92 232 Z" fill="#000000" fill-rule="evenodd" fill-opacity="1" /><path clip-path="url(#clip720)" d="M 0 0 M2163.71 221.989 L2168.63 221.989 L2153.59 270.686 L2148.67 270.686 L2163.71 221.989 Z" fill="#000000" fill-rule="evenodd" fill-opacity="1" /><path clip-path="url(#clip720)" d="M 0 0 M2181.28 266.028 Q2177.2 266.028 2174.54 263.568 Q2171.38 260.646 2171.38 255.351 Q2171.38 249.853 2174.16 245.571 Q2177.02 241.173 2182.17 241.173 Q2185.56 241.173 2188.22 243.285 Q2189.78 244.529 2190.85 246.612 Q2191.23 244.269 2191.23 241.607 Q2191.23 237.7 2190.3 235.443 Q2188.25 230.438 2182.81 230.438 Q2180.76 230.438 2177.57 231.711 L2177.57 226.85 Q2180.93 225.953 2183.94 225.953 Q2191.69 225.953 2194.99 233.071 Q2196.53 236.427 2196.53 241.433 Q2196.53 244.703 2195.8 248.493 Q2193.98 257.984 2189.26 262.498 Q2185.56 266.028 2181.28 266.028 M2176.33 256.219 Q2176.33 259.112 2177.6 260.675 Q2178.96 262.324 2181.05 262.324 Q2182.9 262.324 2184.37 261.022 Q2186.46 259.228 2187.99 256.306 Q2189.26 253.904 2189.9 251.329 Q2187.32 245.108 2182.87 245.108 Q2179.05 245.108 2177.37 250.142 Q2176.33 253.267 2176.33 256.219 Z" fill="#000000" fill-rule="evenodd" fill-opacity="1" /><path clip-path="url(#clip720)" d="M 0 0 M2229.05 232.781 L2217.33 248.551 L2229.66 265.189 L2223.38 265.189 L2213.94 252.457 L2204.51 265.189 L2198.23 265.189 L2210.82 248.233 L2199.3 232.781 L2205.58 232.781 L2214.18 244.326 L2222.77 232.781 L2229.05 232.781 Z" fill="#000000" fill-rule="evenodd" fill-opacity="1" /></svg>
