<?xml version="1.0" encoding="utf-8"?>
<svg xmlns="http://www.w3.org/2000/svg" xmlns:xlink="http://www.w3.org/1999/xlink" width="600" height="400" viewBox="0 0 2400 1600">
<defs>
  <clipPath id="clip690">
    <rect x="0" y="0" width="2400" height="1600"/>
  </clipPath>
</defs>
<path clip-path="url(#clip690)" d="
M0 1600 L2400 1600 L2400 0 L0 0  Z
  " fill="#ffffff" fill-rule="evenodd" fill-opacity="1"/>
<defs>
  <clipPath id="clip691">
    <rect x="480" y="0" width="1681" height="1600"/>
  </clipPath>
</defs>
<path clip-path="url(#clip690)" d="
M183.172 1401.58 L2352.76 1401.58 L2352.76 47.2441 L183.172 47.2441  Z
  " fill="#ffffff" fill-rule="evenodd" fill-opacity="1"/>
<defs>
  <clipPath id="clip692">
    <rect x="183" y="47" width="2171" height="1355"/>
  </clipPath>
</defs>
<polyline clip-path="url(#clip692)" style="stroke:#000000; stroke-width:2; stroke-opacity:0.1; fill:none" points="
  281.79,1401.58 281.79,47.2441 
  "/>
<polyline clip-path="url(#clip692)" style="stroke:#000000; stroke-width:2; stroke-opacity:0.1; fill:none" points="
  479.024,1401.58 479.024,47.2441 
  "/>
<polyline clip-path="url(#clip692)" style="stroke:#000000; stroke-width:2; stroke-opacity:0.1; fill:none" points="
  676.259,1401.58 676.259,47.2441 
  "/>
<polyline clip-path="url(#clip692)" style="stroke:#000000; stroke-width:2; stroke-opacity:0.1; fill:none" points="
  873.494,1401.58 873.494,47.2441 
  "/>
<polyline clip-path="url(#clip692)" style="stroke:#000000; stroke-width:2; stroke-opacity:0.1; fill:none" points="
  1070.73,1401.58 1070.73,47.2441 
  "/>
<polyline clip-path="url(#clip692)" style="stroke:#000000; stroke-width:2; stroke-opacity:0.1; fill:none" points="
  1267.96,1401.58 1267.96,47.2441 
  "/>
<polyline clip-path="url(#clip692)" style="stroke:#000000; stroke-width:2; stroke-opacity:0.1; fill:none" points="
  1465.2,1401.58 1465.2,47.2441 
  "/>
<polyline clip-path="url(#clip692)" style="stroke:#000000; stroke-width:2; stroke-opacity:0.1; fill:none" points="
  1662.43,1401.58 1662.43,47.2441 
  "/>
<polyline clip-path="url(#clip692)" style="stroke:#000000; stroke-width:2; stroke-opacity:0.1; fill:none" points="
  1859.67,1401.58 1859.67,47.2441 
  "/>
<polyline clip-path="url(#clip692)" style="stroke:#000000; stroke-width:2; stroke-opacity:0.1; fill:none" points="
  2056.9,1401.58 2056.9,47.2441 
  "/>
<polyline clip-path="url(#clip692)" style="stroke:#000000; stroke-width:2; stroke-opacity:0.1; fill:none" points="
  2254.14,1401.58 2254.14,47.2441 
  "/>
<polyline clip-path="url(#clip692)" style="stroke:#000000; stroke-width:2; stroke-opacity:0.1; fill:none" points="
  183.172,1192.89 2352.76,1192.89 
  "/>
<polyline clip-path="url(#clip692)" style="stroke:#000000; stroke-width:2; stroke-opacity:0.1; fill:none" points="
  183.172,852.179 2352.76,852.179 
  "/>
<polyline clip-path="url(#clip692)" style="stroke:#000000; stroke-width:2; stroke-opacity:0.1; fill:none" points="
  183.172,511.466 2352.76,511.466 
  "/>
<polyline clip-path="url(#clip692)" style="stroke:#000000; stroke-width:2; stroke-opacity:0.1; fill:none" points="
  183.172,170.753 2352.76,170.753 
  "/>
<polyline clip-path="url(#clip690)" style="stroke:#000000; stroke-width:4; stroke-opacity:1; fill:none" points="
  183.172,1401.58 2352.76,1401.58 
  "/>
<polyline clip-path="url(#clip690)" style="stroke:#000000; stroke-width:4; stroke-opacity:1; fill:none" points="
  183.172,1401.58 183.172,47.2441 
  "/>
<polyline clip-path="url(#clip690)" style="stroke:#000000; stroke-width:4; stroke-opacity:1; fill:none" points="
  281.79,1401.58 281.79,1385.33 
  "/>
<polyline clip-path="url(#clip690)" style="stroke:#000000; stroke-width:4; stroke-opacity:1; fill:none" points="
  479.024,1401.58 479.024,1385.33 
  "/>
<polyline clip-path="url(#clip690)" style="stroke:#000000; stroke-width:4; stroke-opacity:1; fill:none" points="
  676.259,1401.58 676.259,1385.33 
  "/>
<polyline clip-path="url(#clip690)" style="stroke:#000000; stroke-width:4; stroke-opacity:1; fill:none" points="
  873.494,1401.58 873.494,1385.33 
  "/>
<polyline clip-path="url(#clip690)" style="stroke:#000000; stroke-width:4; stroke-opacity:1; fill:none" points="
  1070.73,1401.58 1070.73,1385.33 
  "/>
<polyline clip-path="url(#clip690)" style="stroke:#000000; stroke-width:4; stroke-opacity:1; fill:none" points="
  1267.96,1401.58 1267.96,1385.33 
  "/>
<polyline clip-path="url(#clip690)" style="stroke:#000000; stroke-width:4; stroke-opacity:1; fill:none" points="
  1465.2,1401.58 1465.2,1385.33 
  "/>
<polyline clip-path="url(#clip690)" style="stroke:#000000; stroke-width:4; stroke-opacity:1; fill:none" points="
  1662.43,1401.58 1662.43,1385.33 
  "/>
<polyline clip-path="url(#clip690)" style="stroke:#000000; stroke-width:4; stroke-opacity:1; fill:none" points="
  1859.67,1401.58 1859.67,1385.33 
  "/>
<polyline clip-path="url(#clip690)" style="stroke:#000000; stroke-width:4; stroke-opacity:1; fill:none" points="
  2056.9,1401.58 2056.9,1385.33 
  "/>
<polyline clip-path="url(#clip690)" style="stroke:#000000; stroke-width:4; stroke-opacity:1; fill:none" points="
  2254.14,1401.58 2254.14,1385.33 
  "/>
<polyline clip-path="url(#clip690)" style="stroke:#000000; stroke-width:4; stroke-opacity:1; fill:none" points="
  183.172,1192.89 209.207,1192.89 
  "/>
<polyline clip-path="url(#clip690)" style="stroke:#000000; stroke-width:4; stroke-opacity:1; fill:none" points="
  183.172,852.179 209.207,852.179 
  "/>
<polyline clip-path="url(#clip690)" style="stroke:#000000; stroke-width:4; stroke-opacity:1; fill:none" points="
  183.172,511.466 209.207,511.466 
  "/>
<polyline clip-path="url(#clip690)" style="stroke:#000000; stroke-width:4; stroke-opacity:1; fill:none" points="
  183.172,170.753 209.207,170.753 
  "/>
<path clip-path="url(#clip690)" d="M 0 0 M281.79 1426.07 Q277.276 1426.07 274.99 1430.52 Q272.733 1434.95 272.733 1443.86 Q272.733 1452.75 274.99 1457.2 Q277.276 1461.63 281.79 1461.63 Q286.332 1461.63 288.589 1457.2 Q290.875 1452.75 290.875 1443.86 Q290.875 1434.95 288.589 1430.52 Q286.332 1426.07 281.79 1426.07 M281.79 1421.44 Q289.052 1421.44 292.872 1427.2 Q296.72 1432.93 296.72 1443.86 Q296.72 1454.77 292.872 1460.53 Q289.052 1466.26 281.79 1466.26 Q274.527 1466.26 270.679 1460.53 Q266.859 1454.77 266.859 1443.86 Q266.859 1432.93 270.679 1427.2 Q274.527 1421.44 281.79 1421.44 Z" fill="#000000" fill-rule="evenodd" fill-opacity="1" /><path clip-path="url(#clip690)" d="M 0 0 M467.002 1460.5 L476.551 1460.5 L476.551 1427.54 L466.163 1429.63 L466.163 1424.3 L476.493 1422.22 L482.338 1422.22 L482.338 1460.5 L491.886 1460.5 L491.886 1465.42 L467.002 1465.42 L467.002 1460.5 Z" fill="#000000" fill-rule="evenodd" fill-opacity="1" /><path clip-path="url(#clip690)" d="M 0 0 M669.575 1460.5 L689.975 1460.5 L689.975 1465.42 L662.544 1465.42 L662.544 1460.5 Q665.872 1457.06 671.601 1451.27 Q677.359 1445.45 678.835 1443.78 Q681.641 1440.62 682.741 1438.45 Q683.869 1436.25 683.869 1434.14 Q683.869 1430.7 681.439 1428.53 Q679.037 1426.36 675.16 1426.36 Q672.411 1426.36 669.344 1427.31 Q666.306 1428.27 662.834 1430.21 L662.834 1424.3 Q666.364 1422.89 669.431 1422.16 Q672.498 1421.44 675.044 1421.44 Q681.757 1421.44 685.75 1424.8 Q689.743 1428.15 689.743 1433.76 Q689.743 1436.43 688.73 1438.83 Q687.747 1441.2 685.113 1444.44 Q684.39 1445.28 680.513 1449.3 Q676.636 1453.3 669.575 1460.5 Z" fill="#000000" fill-rule="evenodd" fill-opacity="1" /><path clip-path="url(#clip690)" d="M 0 0 M878.804 1442.13 Q882.999 1443.02 885.343 1445.86 Q887.716 1448.7 887.716 1452.86 Q887.716 1459.26 883.318 1462.76 Q878.92 1466.26 870.818 1466.26 Q868.098 1466.26 865.204 1465.71 Q862.34 1465.19 859.273 1464.12 L859.273 1458.48 Q861.703 1459.89 864.597 1460.62 Q867.49 1461.34 870.644 1461.34 Q876.142 1461.34 879.006 1459.17 Q881.9 1457 881.9 1452.86 Q881.9 1449.04 879.209 1446.9 Q876.547 1444.73 871.773 1444.73 L866.738 1444.73 L866.738 1439.93 L872.004 1439.93 Q876.315 1439.93 878.601 1438.22 Q880.887 1436.48 880.887 1433.24 Q880.887 1429.92 878.514 1428.15 Q876.171 1426.36 871.773 1426.36 Q869.371 1426.36 866.622 1426.88 Q863.873 1427.4 860.575 1428.5 L860.575 1423.29 Q863.902 1422.36 866.796 1421.9 Q869.718 1421.44 872.293 1421.44 Q878.949 1421.44 882.826 1424.48 Q886.703 1427.49 886.703 1432.64 Q886.703 1436.22 884.649 1438.71 Q882.594 1441.17 878.804 1442.13 Z" fill="#000000" fill-rule="evenodd" fill-opacity="1" /><path clip-path="url(#clip690)" d="M 0 0 M1074.49 1427.31 L1059.73 1450.37 L1074.49 1450.37 L1074.49 1427.31 M1072.96 1422.22 L1080.31 1422.22 L1080.31 1450.37 L1086.47 1450.37 L1086.47 1455.23 L1080.31 1455.23 L1080.31 1465.42 L1074.49 1465.42 L1074.49 1455.23 L1054.99 1455.23 L1054.99 1449.59 L1072.96 1422.22 Z" fill="#000000" fill-rule="evenodd" fill-opacity="1" /><path clip-path="url(#clip690)" d="M 0 0 M1255.81 1422.22 L1278.76 1422.22 L1278.76 1427.14 L1261.16 1427.14 L1261.16 1437.73 Q1262.44 1437.29 1263.71 1437.09 Q1264.98 1436.86 1266.26 1436.86 Q1273.49 1436.86 1277.72 1440.83 Q1281.94 1444.79 1281.94 1451.56 Q1281.94 1458.53 1277.6 1462.41 Q1273.26 1466.26 1265.36 1466.26 Q1262.64 1466.26 1259.8 1465.8 Q1257 1465.33 1253.99 1464.41 L1253.99 1458.53 Q1256.59 1459.95 1259.37 1460.65 Q1262.15 1461.34 1265.24 1461.34 Q1270.25 1461.34 1273.17 1458.71 Q1276.09 1456.07 1276.09 1451.56 Q1276.09 1447.05 1273.17 1444.41 Q1270.25 1441.78 1265.24 1441.78 Q1262.9 1441.78 1260.56 1442.3 Q1258.24 1442.82 1255.81 1443.92 L1255.81 1422.22 Z" fill="#000000" fill-rule="evenodd" fill-opacity="1" /><path clip-path="url(#clip690)" d="M 0 0 M1465.71 1441.49 Q1461.77 1441.49 1459.46 1444.18 Q1457.17 1446.87 1457.17 1451.56 Q1457.17 1456.22 1459.46 1458.94 Q1461.77 1461.63 1465.71 1461.63 Q1469.64 1461.63 1471.93 1458.94 Q1474.24 1456.22 1474.24 1451.56 Q1474.24 1446.87 1471.93 1444.18 Q1469.64 1441.49 1465.71 1441.49 M1477.31 1423.17 L1477.31 1428.5 Q1475.11 1427.46 1472.85 1426.91 Q1470.62 1426.36 1468.43 1426.36 Q1462.64 1426.36 1459.57 1430.26 Q1456.53 1434.17 1456.1 1442.07 Q1457.81 1439.55 1460.38 1438.22 Q1462.96 1436.86 1466.05 1436.86 Q1472.56 1436.86 1476.32 1440.83 Q1480.11 1444.76 1480.11 1451.56 Q1480.11 1458.22 1476.18 1462.24 Q1472.24 1466.26 1465.71 1466.26 Q1458.21 1466.26 1454.25 1460.53 Q1450.28 1454.77 1450.28 1443.86 Q1450.28 1433.62 1455.14 1427.54 Q1460.01 1421.44 1468.19 1421.44 Q1470.39 1421.44 1472.62 1421.87 Q1474.88 1422.31 1477.31 1423.17 Z" fill="#000000" fill-rule="evenodd" fill-opacity="1" /><path clip-path="url(#clip690)" d="M 0 0 M1648.54 1422.22 L1676.32 1422.22 L1676.32 1424.71 L1660.64 1465.42 L1654.53 1465.42 L1669.29 1427.14 L1648.54 1427.14 L1648.54 1422.22 Z" fill="#000000" fill-rule="evenodd" fill-opacity="1" /><path clip-path="url(#clip690)" d="M 0 0 M1859.67 1444.9 Q1855.5 1444.9 1853.1 1447.13 Q1850.73 1449.36 1850.73 1453.27 Q1850.73 1457.17 1853.1 1459.4 Q1855.5 1461.63 1859.67 1461.63 Q1863.84 1461.63 1866.24 1459.4 Q1868.64 1457.14 1868.64 1453.27 Q1868.64 1449.36 1866.24 1447.13 Q1863.86 1444.9 1859.67 1444.9 M1853.82 1442.42 Q1850.06 1441.49 1847.95 1438.92 Q1845.87 1436.34 1845.87 1432.64 Q1845.87 1427.46 1849.54 1424.45 Q1853.25 1421.44 1859.67 1421.44 Q1866.12 1421.44 1869.8 1424.45 Q1873.47 1427.46 1873.47 1432.64 Q1873.47 1436.34 1871.36 1438.92 Q1869.28 1441.49 1865.54 1442.42 Q1869.77 1443.4 1872.11 1446.26 Q1874.48 1449.13 1874.48 1453.27 Q1874.48 1459.55 1870.64 1462.9 Q1866.82 1466.26 1859.67 1466.26 Q1852.52 1466.26 1848.67 1462.9 Q1844.85 1459.55 1844.85 1453.27 Q1844.85 1449.13 1847.23 1446.26 Q1849.6 1443.4 1853.82 1442.42 M1851.68 1433.19 Q1851.68 1436.54 1853.77 1438.42 Q1855.88 1440.3 1859.67 1440.3 Q1863.43 1440.3 1865.54 1438.42 Q1867.68 1436.54 1867.68 1433.19 Q1867.68 1429.83 1865.54 1427.95 Q1863.43 1426.07 1859.67 1426.07 Q1855.88 1426.07 1853.77 1427.95 Q1851.68 1429.83 1851.68 1433.19 Z" fill="#000000" fill-rule="evenodd" fill-opacity="1" /><path clip-path="url(#clip690)" d="M 0 0 M2044.78 1464.52 L2044.78 1459.2 Q2046.98 1460.24 2049.24 1460.79 Q2051.49 1461.34 2053.66 1461.34 Q2059.45 1461.34 2062.49 1457.46 Q2065.56 1453.56 2065.99 1445.63 Q2064.31 1448.12 2061.74 1449.45 Q2059.16 1450.78 2056.04 1450.78 Q2049.55 1450.78 2045.76 1446.87 Q2042 1442.94 2042 1436.14 Q2042 1429.48 2045.94 1425.46 Q2049.87 1421.44 2056.41 1421.44 Q2063.91 1421.44 2067.84 1427.2 Q2071.81 1432.93 2071.81 1443.86 Q2071.81 1454.08 2066.94 1460.18 Q2062.11 1466.26 2053.92 1466.26 Q2051.72 1466.26 2049.47 1465.82 Q2047.21 1465.39 2044.78 1464.52 M2056.41 1446.21 Q2060.35 1446.21 2062.63 1443.52 Q2064.95 1440.83 2064.95 1436.14 Q2064.95 1431.48 2062.63 1428.79 Q2060.35 1426.07 2056.41 1426.07 Q2052.48 1426.07 2050.16 1428.79 Q2047.88 1431.48 2047.88 1436.14 Q2047.88 1440.83 2050.16 1443.52 Q2052.48 1446.21 2056.41 1446.21 Z" fill="#000000" fill-rule="evenodd" fill-opacity="1" /><path clip-path="url(#clip690)" d="M 0 0 M2225.23 1460.5 L2234.78 1460.5 L2234.78 1427.54 L2224.39 1429.63 L2224.39 1424.3 L2234.72 1422.22 L2240.57 1422.22 L2240.57 1460.5 L2250.12 1460.5 L2250.12 1465.42 L2225.23 1465.42 L2225.23 1460.5 Z" fill="#000000" fill-rule="evenodd" fill-opacity="1" /><path clip-path="url(#clip690)" d="M 0 0 M2268.95 1426.07 Q2264.44 1426.07 2262.15 1430.52 Q2259.9 1434.95 2259.9 1443.86 Q2259.9 1452.75 2262.15 1457.2 Q2264.44 1461.63 2268.95 1461.63 Q2273.5 1461.63 2275.75 1457.2 Q2278.04 1452.75 2278.04 1443.86 Q2278.04 1434.95 2275.75 1430.52 Q2273.5 1426.07 2268.95 1426.07 M2268.95 1421.44 Q2276.22 1421.44 2280.04 1427.2 Q2283.88 1432.93 2283.88 1443.86 Q2283.88 1454.77 2280.04 1460.53 Q2276.22 1466.26 2268.95 1466.26 Q2261.69 1466.26 2257.84 1460.53 Q2254.02 1454.77 2254.02 1443.86 Q2254.02 1432.93 2257.84 1427.2 Q2261.69 1421.44 2268.95 1421.44 Z" fill="#000000" fill-rule="evenodd" fill-opacity="1" /><path clip-path="url(#clip690)" d="M 0 0 M62.9921 1195.89 L78.5881 1195.89 L78.5881 1200.63 L62.9921 1200.63 L62.9921 1195.89 Z" fill="#000000" fill-rule="evenodd" fill-opacity="1" /><path clip-path="url(#clip690)" d="M 0 0 M97.4248 1175.14 Q92.9109 1175.14 90.6251 1179.6 Q88.3681 1184.02 88.3681 1192.94 Q88.3681 1201.82 90.6251 1206.28 Q92.9109 1210.7 97.4248 1210.7 Q101.968 1210.7 104.225 1206.28 Q106.51 1201.82 106.51 1192.94 Q106.51 1184.02 104.225 1179.6 Q101.968 1175.14 97.4248 1175.14 M97.4248 1170.51 Q104.688 1170.51 108.507 1176.27 Q112.355 1182 112.355 1192.94 Q112.355 1203.84 108.507 1209.6 Q104.688 1215.33 97.4248 1215.33 Q90.1621 1215.33 86.3138 1209.6 Q82.4943 1203.84 82.4943 1192.94 Q82.4943 1182 86.3138 1176.27 Q90.1621 1170.51 97.4248 1170.51 Z" fill="#000000" fill-rule="evenodd" fill-opacity="1" /><path clip-path="url(#clip690)" d="M 0 0 M118.692 1207.14 L124.797 1207.14 L124.797 1214.49 L118.692 1214.49 L118.692 1207.14 Z" fill="#000000" fill-rule="evenodd" fill-opacity="1" /><path clip-path="url(#clip690)" d="M 0 0 M147.193 1176.39 L132.436 1199.45 L147.193 1199.45 L147.193 1176.39 M145.66 1171.29 L153.009 1171.29 L153.009 1199.45 L159.172 1199.45 L159.172 1204.31 L153.009 1204.31 L153.009 1214.49 L147.193 1214.49 L147.193 1204.31 L127.691 1204.31 L127.691 1198.67 L145.66 1171.29 Z" fill="#000000" fill-rule="evenodd" fill-opacity="1" /><path clip-path="url(#clip690)" d="M 0 0 M65.5963 855.174 L81.1923 855.174 L81.1923 859.92 L65.5963 859.92 L65.5963 855.174 Z" fill="#000000" fill-rule="evenodd" fill-opacity="1" /><path clip-path="url(#clip690)" d="M 0 0 M100.029 834.428 Q95.5151 834.428 93.2292 838.884 Q90.9723 843.311 90.9723 852.223 Q90.9723 861.106 93.2292 865.562 Q95.5151 869.989 100.029 869.989 Q104.572 869.989 106.829 865.562 Q109.115 861.106 109.115 852.223 Q109.115 843.311 106.829 838.884 Q104.572 834.428 100.029 834.428 M100.029 829.798 Q107.292 829.798 111.111 835.556 Q114.959 841.285 114.959 852.223 Q114.959 863.131 111.111 868.889 Q107.292 874.619 100.029 874.619 Q92.7663 874.619 88.9179 868.889 Q85.0985 863.131 85.0985 852.223 Q85.0985 841.285 88.9179 835.556 Q92.7663 829.798 100.029 829.798 Z" fill="#000000" fill-rule="evenodd" fill-opacity="1" /><path clip-path="url(#clip690)" d="M 0 0 M121.296 866.43 L127.402 866.43 L127.402 873.779 L121.296 873.779 L121.296 866.43 Z" fill="#000000" fill-rule="evenodd" fill-opacity="1" /><path clip-path="url(#clip690)" d="M 0 0 M138.773 868.861 L159.172 868.861 L159.172 873.779 L131.742 873.779 L131.742 868.861 Q135.069 865.417 140.798 859.63 Q146.556 853.814 148.032 852.136 Q150.839 848.982 151.938 846.812 Q153.067 844.613 153.067 842.501 Q153.067 839.057 150.636 836.887 Q148.235 834.717 144.357 834.717 Q141.609 834.717 138.541 835.672 Q135.503 836.627 132.031 838.566 L132.031 832.663 Q135.561 831.245 138.628 830.522 Q141.695 829.798 144.242 829.798 Q150.955 829.798 154.948 833.155 Q158.941 836.511 158.941 842.125 Q158.941 844.787 157.928 847.188 Q156.944 849.561 154.311 852.802 Q153.588 853.641 149.71 857.663 Q145.833 861.656 138.773 868.861 Z" fill="#000000" fill-rule="evenodd" fill-opacity="1" /><path clip-path="url(#clip690)" d="M 0 0 M98.0324 493.714 Q93.5186 493.714 91.2327 498.17 Q88.9758 502.598 88.9758 511.509 Q88.9758 520.393 91.2327 524.849 Q93.5186 529.276 98.0324 529.276 Q102.575 529.276 104.832 524.849 Q107.118 520.393 107.118 511.509 Q107.118 502.598 104.832 498.17 Q102.575 493.714 98.0324 493.714 M98.0324 489.085 Q105.295 489.085 109.115 494.843 Q112.963 500.572 112.963 511.509 Q112.963 522.418 109.115 528.176 Q105.295 533.905 98.0324 533.905 Q90.7698 533.905 86.9214 528.176 Q83.102 522.418 83.102 511.509 Q83.102 500.572 86.9214 494.843 Q90.7698 489.085 98.0324 489.085 Z" fill="#000000" fill-rule="evenodd" fill-opacity="1" /><path clip-path="url(#clip690)" d="M 0 0 M119.3 525.717 L125.405 525.717 L125.405 533.066 L119.3 533.066 L119.3 525.717 Z" fill="#000000" fill-rule="evenodd" fill-opacity="1" /><path clip-path="url(#clip690)" d="M 0 0 M144.242 493.714 Q139.728 493.714 137.442 498.17 Q135.185 502.598 135.185 511.509 Q135.185 520.393 137.442 524.849 Q139.728 529.276 144.242 529.276 Q148.784 529.276 151.041 524.849 Q153.327 520.393 153.327 511.509 Q153.327 502.598 151.041 498.17 Q148.784 493.714 144.242 493.714 M144.242 489.085 Q151.504 489.085 155.324 494.843 Q159.172 500.572 159.172 511.509 Q159.172 522.418 155.324 528.176 Q151.504 533.905 144.242 533.905 Q136.979 533.905 133.131 528.176 Q129.311 522.418 129.311 511.509 Q129.311 500.572 133.131 494.843 Q136.979 489.085 144.242 489.085 Z" fill="#000000" fill-rule="evenodd" fill-opacity="1" /><path clip-path="url(#clip690)" d="M 0 0 M100.029 153.001 Q95.5151 153.001 93.2292 157.457 Q90.9723 161.884 90.9723 170.796 Q90.9723 179.679 93.2292 184.135 Q95.5151 188.562 100.029 188.562 Q104.572 188.562 106.829 184.135 Q109.115 179.679 109.115 170.796 Q109.115 161.884 106.829 157.457 Q104.572 153.001 100.029 153.001 M100.029 148.371 Q107.292 148.371 111.111 154.13 Q114.959 159.859 114.959 170.796 Q114.959 181.705 111.111 187.463 Q107.292 193.192 100.029 193.192 Q92.7663 193.192 88.9179 187.463 Q85.0985 181.705 85.0985 170.796 Q85.0985 159.859 88.9179 154.13 Q92.7663 148.371 100.029 148.371 Z" fill="#000000" fill-rule="evenodd" fill-opacity="1" /><path clip-path="url(#clip690)" d="M 0 0 M121.296 185.003 L127.402 185.003 L127.402 192.353 L121.296 192.353 L121.296 185.003 Z" fill="#000000" fill-rule="evenodd" fill-opacity="1" /><path clip-path="url(#clip690)" d="M 0 0 M138.773 187.434 L159.172 187.434 L159.172 192.353 L131.742 192.353 L131.742 187.434 Q135.069 183.99 140.798 178.203 Q146.556 172.388 148.032 170.709 Q150.839 167.555 151.938 165.385 Q153.067 163.186 153.067 161.074 Q153.067 157.631 150.636 155.461 Q148.235 153.29 144.357 153.29 Q141.609 153.29 138.541 154.245 Q135.503 155.2 132.031 157.139 L132.031 151.236 Q135.561 149.818 138.628 149.095 Q141.695 148.371 144.242 148.371 Q150.955 148.371 154.948 151.728 Q158.941 155.084 158.941 160.698 Q158.941 163.36 157.928 165.761 Q156.944 168.134 154.311 171.375 Q153.588 172.214 149.71 176.236 Q145.833 180.229 138.773 187.434 Z" fill="#000000" fill-rule="evenodd" fill-opacity="1" /><path clip-path="url(#clip690)" d="M 0 0 M1247.83 1499.92 L1255.33 1499.92 L1255.33 1537.15 L1277.56 1517.59 L1287.08 1517.59 L1263.02 1538.81 L1288.1 1562.96 L1278.37 1562.96 L1255.33 1540.8 L1255.33 1562.96 L1247.83 1562.96 L1247.83 1499.92 Z" fill="#000000" fill-rule="evenodd" fill-opacity="1" /><polyline clip-path="url(#clip692)" style="stroke:#009af9; stroke-width:8; stroke-opacity:1; fill:none" points="
  281.79,511.466 479.024,511.466 676.259,511.466 873.494,511.466 1070.73,511.466 1267.96,85.5744 1465.2,511.466 1662.43,511.466 1859.67,511.466 2056.9,511.466 
  2254.14,511.466 2451.37,511.466 2648.61,511.466 2845.84,511.466 3043.08,511.466 3240.31,511.466 3437.55,511.466 3634.78,511.466 3832.02,511.466 4029.25,511.466 
  4226.49,511.466 4423.72,511.466 4620.96,511.466 4818.19,511.466 5015.43,511.466 5212.66,511.466 5409.9,511.466 5607.13,511.466 5804.37,511.466 6001.6,511.466 
  6198.84,511.466 6396.07,511.466 6593.31,511.466 
  "/>
<circle clip-path="url(#clip692)" cx="281.79" cy="511.466" r="14" fill="#009af9" fill-rule="evenodd" fill-opacity="1" stroke="#000000" stroke-opacity="1" stroke-width="3.2"/>
<circle clip-path="url(#clip692)" cx="479.024" cy="511.466" r="14" fill="#009af9" fill-rule="evenodd" fill-opacity="1" stroke="#000000" stroke-opacity="1" stroke-width="3.2"/>
<circle clip-path="url(#clip692)" cx="676.259" cy="511.466" r="14" fill="#009af9" fill-rule="evenodd" fill-opacity="1" stroke="#000000" stroke-opacity="1" stroke-width="3.2"/>
<circle clip-path="url(#clip692)" cx="873.494" cy="511.466" r="14" fill="#009af9" fill-rule="evenodd" fill-opacity="1" stroke="#000000" stroke-opacity="1" stroke-width="3.2"/>
<circle clip-path="url(#clip692)" cx="1070.73" cy="511.466" r="14" fill="#009af9" fill-rule="evenodd" fill-opacity="1" stroke="#000000" stroke-opacity="1" stroke-width="3.2"/>
<circle clip-path="url(#clip692)" cx="1267.96" cy="85.5744" r="14" fill="#009af9" fill-rule="evenodd" fill-opacity="1" stroke="#000000" stroke-opacity="1" stroke-width="3.2"/>
<circle clip-path="url(#clip692)" cx="1465.2" cy="511.466" r="14" fill="#009af9" fill-rule="evenodd" fill-opacity="1" stroke="#000000" stroke-opacity="1" stroke-width="3.2"/>
<circle clip-path="url(#clip692)" cx="1662.43" cy="511.466" r="14" fill="#009af9" fill-rule="evenodd" fill-opacity="1" stroke="#000000" stroke-opacity="1" stroke-width="3.2"/>
<circle clip-path="url(#clip692)" cx="1859.67" cy="511.466" r="14" fill="#009af9" fill-rule="evenodd" fill-opacity="1" stroke="#000000" stroke-opacity="1" stroke-width="3.2"/>
<circle clip-path="url(#clip692)" cx="2056.9" cy="511.466" r="14" fill="#009af9" fill-rule="evenodd" fill-opacity="1" stroke="#000000" stroke-opacity="1" stroke-width="3.2"/>
<circle clip-path="url(#clip692)" cx="2254.14" cy="511.466" r="14" fill="#009af9" fill-rule="evenodd" fill-opacity="1" stroke="#000000" stroke-opacity="1" stroke-width="3.2"/>
<polyline clip-path="url(#clip692)" style="stroke:#e26f46; stroke-width:8; stroke-opacity:1; fill:none" points="
  281.79,511.466 479.024,511.466 676.259,1363.25 873.494,511.466 1070.73,511.466 1267.96,511.466 1465.2,511.466 1662.43,511.466 1859.67,511.466 2056.9,511.466 
  2254.14,511.466 2451.37,511.466 2648.61,511.466 2845.84,511.466 3043.08,511.466 3240.31,511.466 3437.55,511.466 3634.78,511.466 3832.02,511.466 4029.25,511.466 
  4226.49,511.466 4423.72,511.466 4620.96,511.466 4818.19,511.466 5015.43,511.466 5212.66,511.466 5409.9,511.466 5607.13,511.466 5804.37,511.466 6001.6,511.466 
  6198.84,511.466 6396.07,511.466 6593.31,511.466 
  "/>
<path clip-path="url(#clip692)" d="M265.79 495.466 L265.79 527.466 L297.79 527.466 L297.79 495.466 L265.79 495.466 Z" fill="#e26f46" fill-rule="evenodd" fill-opacity="1" stroke="#000000" stroke-opacity="1" stroke-width="3.2"/>
<path clip-path="url(#clip692)" d="M463.024 495.466 L463.024 527.466 L495.024 527.466 L495.024 495.466 L463.024 495.466 Z" fill="#e26f46" fill-rule="evenodd" fill-opacity="1" stroke="#000000" stroke-opacity="1" stroke-width="3.2"/>
<path clip-path="url(#clip692)" d="M660.259 1347.25 L660.259 1379.25 L692.259 1379.25 L692.259 1347.25 L660.259 1347.25 Z" fill="#e26f46" fill-rule="evenodd" fill-opacity="1" stroke="#000000" stroke-opacity="1" stroke-width="3.2"/>
<path clip-path="url(#clip692)" d="M857.494 495.466 L857.494 527.466 L889.494 527.466 L889.494 495.466 L857.494 495.466 Z" fill="#e26f46" fill-rule="evenodd" fill-opacity="1" stroke="#000000" stroke-opacity="1" stroke-width="3.2"/>
<path clip-path="url(#clip692)" d="M1054.73 495.466 L1054.73 527.466 L1086.73 527.466 L1086.73 495.466 L1054.73 495.466 Z" fill="#e26f46" fill-rule="evenodd" fill-opacity="1" stroke="#000000" stroke-opacity="1" stroke-width="3.2"/>
<path clip-path="url(#clip692)" d="M1251.96 495.466 L1251.96 527.466 L1283.96 527.466 L1283.96 495.466 L1251.96 495.466 Z" fill="#e26f46" fill-rule="evenodd" fill-opacity="1" stroke="#000000" stroke-opacity="1" stroke-width="3.2"/>
<path clip-path="url(#clip692)" d="M1449.2 495.466 L1449.2 527.466 L1481.2 527.466 L1481.2 495.466 L1449.2 495.466 Z" fill="#e26f46" fill-rule="evenodd" fill-opacity="1" stroke="#000000" stroke-opacity="1" stroke-width="3.2"/>
<path clip-path="url(#clip692)" d="M1646.43 495.466 L1646.43 527.466 L1678.43 527.466 L1678.43 495.466 L1646.43 495.466 Z" fill="#e26f46" fill-rule="evenodd" fill-opacity="1" stroke="#000000" stroke-opacity="1" stroke-width="3.2"/>
<path clip-path="url(#clip692)" d="M1843.67 495.466 L1843.67 527.466 L1875.67 527.466 L1875.67 495.466 L1843.67 495.466 Z" fill="#e26f46" fill-rule="evenodd" fill-opacity="1" stroke="#000000" stroke-opacity="1" stroke-width="3.2"/>
<path clip-path="url(#clip692)" d="M2040.9 495.466 L2040.9 527.466 L2072.9 527.466 L2072.9 495.466 L2040.9 495.466 Z" fill="#e26f46" fill-rule="evenodd" fill-opacity="1" stroke="#000000" stroke-opacity="1" stroke-width="3.2"/>
<path clip-path="url(#clip692)" d="M2238.14 495.466 L2238.14 527.466 L2270.14 527.466 L2270.14 495.466 L2238.14 495.466 Z" fill="#e26f46" fill-rule="evenodd" fill-opacity="1" stroke="#000000" stroke-opacity="1" stroke-width="3.2"/>
<path clip-path="url(#clip690)" d="
M1817.53 319.189 L2280.44 319.189 L2280.44 92.3886 L1817.53 92.3886  Z
  " fill="#ffffff" fill-rule="evenodd" fill-opacity="1"/>
<polyline clip-path="url(#clip690)" style="stroke:#000000; stroke-width:4; stroke-opacity:1; fill:none" points="
  1817.53,319.189 2280.44,319.189 2280.44,92.3886 1817.53,92.3886 1817.53,319.189 
  "/>
<polyline clip-path="url(#clip690)" style="stroke:#009af9; stroke-width:5; stroke-opacity:1; fill:none" points="
  1841.63,167.989 1986.27,167.989 
  "/>
<circle clip-path="url(#clip690)" cx="1913.95" cy="167.989" r="28" fill="#009af9" fill-rule="evenodd" fill-opacity="1" stroke="#000000" stroke-opacity="1" stroke-width="6.4"/>
<circle clip-path="url(#clip690)" cx="1913.95" cy="167.989" r="28" fill="#009af9" fill-rule="evenodd" fill-opacity="1" stroke="#000000" stroke-opacity="1" stroke-width="6.4"/>
<circle clip-path="url(#clip690)" cx="1913.95" cy="167.989" r="28" fill="#009af9" fill-rule="evenodd" fill-opacity="1" stroke="#000000" stroke-opacity="1" stroke-width="6.4"/>
<circle clip-path="url(#clip690)" cx="1913.95" cy="167.989" r="28" fill="#009af9" fill-rule="evenodd" fill-opacity="1" stroke="#000000" stroke-opacity="1" stroke-width="6.4"/>
<circle clip-path="url(#clip690)" cx="1913.95" cy="167.989" r="28" fill="#009af9" fill-rule="evenodd" fill-opacity="1" stroke="#000000" stroke-opacity="1" stroke-width="6.4"/>
<circle clip-path="url(#clip690)" cx="1913.95" cy="167.989" r="28" fill="#009af9" fill-rule="evenodd" fill-opacity="1" stroke="#000000" stroke-opacity="1" stroke-width="6.4"/>
<circle clip-path="url(#clip690)" cx="1913.95" cy="167.989" r="28" fill="#009af9" fill-rule="evenodd" fill-opacity="1" stroke="#000000" stroke-opacity="1" stroke-width="6.4"/>
<circle clip-path="url(#clip690)" cx="1913.95" cy="167.989" r="28" fill="#009af9" fill-rule="evenodd" fill-opacity="1" stroke="#000000" stroke-opacity="1" stroke-width="6.4"/>
<circle clip-path="url(#clip690)" cx="1913.95" cy="167.989" r="28" fill="#009af9" fill-rule="evenodd" fill-opacity="1" stroke="#000000" stroke-opacity="1" stroke-width="6.4"/>
<circle clip-path="url(#clip690)" cx="1913.95" cy="167.989" r="28" fill="#009af9" fill-rule="evenodd" fill-opacity="1" stroke="#000000" stroke-opacity="1" stroke-width="6.4"/>
<circle clip-path="url(#clip690)" cx="1913.95" cy="167.989" r="28" fill="#009af9" fill-rule="evenodd" fill-opacity="1" stroke="#000000" stroke-opacity="1" stroke-width="6.4"/>
<circle clip-path="url(#clip690)" cx="1913.95" cy="167.989" r="28" fill="#009af9" fill-rule="evenodd" fill-opacity="1" stroke="#000000" stroke-opacity="1" stroke-width="6.4"/>
<circle clip-path="url(#clip690)" cx="1913.95" cy="167.989" r="28" fill="#009af9" fill-rule="evenodd" fill-opacity="1" stroke="#000000" stroke-opacity="1" stroke-width="6.4"/>
<circle clip-path="url(#clip690)" cx="1913.95" cy="167.989" r="28" fill="#009af9" fill-rule="evenodd" fill-opacity="1" stroke="#000000" stroke-opacity="1" stroke-width="6.4"/>
<circle clip-path="url(#clip690)" cx="1913.95" cy="167.989" r="28" fill="#009af9" fill-rule="evenodd" fill-opacity="1" stroke="#000000" stroke-opacity="1" stroke-width="6.4"/>
<circle clip-path="url(#clip690)" cx="1913.95" cy="167.989" r="28" fill="#009af9" fill-rule="evenodd" fill-opacity="1" stroke="#000000" stroke-opacity="1" stroke-width="6.4"/>
<circle clip-path="url(#clip690)" cx="1913.95" cy="167.989" r="28" fill="#009af9" fill-rule="evenodd" fill-opacity="1" stroke="#000000" stroke-opacity="1" stroke-width="6.4"/>
<circle clip-path="url(#clip690)" cx="1913.95" cy="167.989" r="28" fill="#009af9" fill-rule="evenodd" fill-opacity="1" stroke="#000000" stroke-opacity="1" stroke-width="6.4"/>
<circle clip-path="url(#clip690)" cx="1913.95" cy="167.989" r="28" fill="#009af9" fill-rule="evenodd" fill-opacity="1" stroke="#000000" stroke-opacity="1" stroke-width="6.4"/>
<circle clip-path="url(#clip690)" cx="1913.95" cy="167.989" r="28" fill="#009af9" fill-rule="evenodd" fill-opacity="1" stroke="#000000" stroke-opacity="1" stroke-width="6.4"/>
<circle clip-path="url(#clip690)" cx="1913.95" cy="167.989" r="28" fill="#009af9" fill-rule="evenodd" fill-opacity="1" stroke="#000000" stroke-opacity="1" stroke-width="6.4"/>
<circle clip-path="url(#clip690)" cx="1913.95" cy="167.989" r="28" fill="#009af9" fill-rule="evenodd" fill-opacity="1" stroke="#000000" stroke-opacity="1" stroke-width="6.4"/>
<circle clip-path="url(#clip690)" cx="1913.95" cy="167.989" r="28" fill="#009af9" fill-rule="evenodd" fill-opacity="1" stroke="#000000" stroke-opacity="1" stroke-width="6.4"/>
<circle clip-path="url(#clip690)" cx="1913.95" cy="167.989" r="28" fill="#009af9" fill-rule="evenodd" fill-opacity="1" stroke="#000000" stroke-opacity="1" stroke-width="6.4"/>
<circle clip-path="url(#clip690)" cx="1913.95" cy="167.989" r="28" fill="#009af9" fill-rule="evenodd" fill-opacity="1" stroke="#000000" stroke-opacity="1" stroke-width="6.4"/>
<circle clip-path="url(#clip690)" cx="1913.95" cy="167.989" r="28" fill="#009af9" fill-rule="evenodd" fill-opacity="1" stroke="#000000" stroke-opacity="1" stroke-width="6.4"/>
<circle clip-path="url(#clip690)" cx="1913.95" cy="167.989" r="28" fill="#009af9" fill-rule="evenodd" fill-opacity="1" stroke="#000000" stroke-opacity="1" stroke-width="6.4"/>
<circle clip-path="url(#clip690)" cx="1913.95" cy="167.989" r="28" fill="#009af9" fill-rule="evenodd" fill-opacity="1" stroke="#000000" stroke-opacity="1" stroke-width="6.4"/>
<circle clip-path="url(#clip690)" cx="1913.95" cy="167.989" r="28" fill="#009af9" fill-rule="evenodd" fill-opacity="1" stroke="#000000" stroke-opacity="1" stroke-width="6.4"/>
<circle clip-path="url(#clip690)" cx="1913.95" cy="167.989" r="28" fill="#009af9" fill-rule="evenodd" fill-opacity="1" stroke="#000000" stroke-opacity="1" stroke-width="6.4"/>
<circle clip-path="url(#clip690)" cx="1913.95" cy="167.989" r="28" fill="#009af9" fill-rule="evenodd" fill-opacity="1" stroke="#000000" stroke-opacity="1" stroke-width="6.4"/>
<circle clip-path="url(#clip690)" cx="1913.95" cy="167.989" r="28" fill="#009af9" fill-rule="evenodd" fill-opacity="1" stroke="#000000" stroke-opacity="1" stroke-width="6.4"/>
<circle clip-path="url(#clip690)" cx="1913.95" cy="167.989" r="28" fill="#009af9" fill-rule="evenodd" fill-opacity="1" stroke="#000000" stroke-opacity="1" stroke-width="6.4"/>
<path clip-path="url(#clip690)" d="M 0 0 M2029.36 157.622 Q2028.46 157.101 2027.39 156.87 Q2026.35 156.609 2025.08 156.609 Q2020.56 156.609 2018.13 159.561 Q2015.73 162.483 2015.73 167.981 L2015.73 185.053 L2010.38 185.053 L2010.38 152.645 L2015.73 152.645 L2015.73 157.68 Q2017.41 154.729 2020.1 153.311 Q2022.79 151.864 2026.64 151.864 Q2027.19 151.864 2027.86 151.951 Q2028.52 152.009 2029.33 152.153 L2029.36 157.622 Z" fill="#000000" fill-rule="evenodd" fill-opacity="1" /><path clip-path="url(#clip690)" d="M 0 0 M2061.36 167.518 L2061.36 170.122 L2036.88 170.122 Q2037.23 175.62 2040.18 178.513 Q2043.16 181.378 2048.46 181.378 Q2051.52 181.378 2054.39 180.626 Q2057.28 179.873 2060.12 178.369 L2060.12 183.403 Q2057.25 184.619 2054.24 185.255 Q2051.23 185.892 2048.14 185.892 Q2040.38 185.892 2035.84 181.378 Q2031.33 176.864 2031.33 169.167 Q2031.33 161.21 2035.61 156.552 Q2039.92 151.864 2047.21 151.864 Q2053.75 151.864 2057.54 156.089 Q2061.36 160.284 2061.36 167.518 M2056.04 165.955 Q2055.98 161.586 2053.58 158.982 Q2051.21 156.378 2047.27 156.378 Q2042.81 156.378 2040.12 158.895 Q2037.46 161.413 2037.06 165.984 L2056.04 165.955 Z" fill="#000000" fill-rule="evenodd" fill-opacity="1" /><path clip-path="url(#clip690)" d="M 0 0 M2081.67 168.762 Q2075.22 168.762 2072.73 170.238 Q2070.25 171.714 2070.25 175.273 Q2070.25 178.108 2072.1 179.786 Q2073.98 181.436 2077.19 181.436 Q2081.62 181.436 2084.28 178.311 Q2086.97 175.157 2086.97 169.949 L2086.97 168.762 L2081.67 168.762 M2092.29 166.563 L2092.29 185.053 L2086.97 185.053 L2086.97 180.134 Q2085.15 183.085 2082.43 184.503 Q2079.71 185.892 2075.77 185.892 Q2070.79 185.892 2067.84 183.114 Q2064.92 180.307 2064.92 175.62 Q2064.92 170.151 2068.57 167.373 Q2072.24 164.596 2079.5 164.596 L2086.97 164.596 L2086.97 164.075 Q2086.97 160.4 2084.54 158.403 Q2082.14 156.378 2077.77 156.378 Q2074.99 156.378 2072.36 157.044 Q2069.72 157.709 2067.29 159.04 L2067.29 154.121 Q2070.22 152.993 2072.97 152.443 Q2075.71 151.864 2078.32 151.864 Q2085.35 151.864 2088.82 155.51 Q2092.29 159.156 2092.29 166.563 Z" fill="#000000" fill-rule="evenodd" fill-opacity="1" /><path clip-path="url(#clip690)" d="M 0 0 M2097.88 140.03 L2103.2 140.03 L2103.2 185.053 L2097.88 185.053 L2097.88 140.03 Z" fill="#000000" fill-rule="evenodd" fill-opacity="1" /><path clip-path="url(#clip690)" d="M 0 0 M2121.58 140.088 Q2117.7 146.743 2115.82 153.253 Q2113.94 159.763 2113.94 166.447 Q2113.94 173.131 2115.82 179.7 Q2117.73 186.239 2121.58 192.865 L2116.95 192.865 Q2112.61 186.065 2110.44 179.497 Q2108.29 172.929 2108.29 166.447 Q2108.29 159.995 2110.44 153.456 Q2112.58 146.916 2116.95 140.088 L2121.58 140.088 Z" fill="#000000" fill-rule="evenodd" fill-opacity="1" /><path clip-path="url(#clip690)" d="M 0 0 M2145.45 172.263 L2145.45 152.645 L2150.77 152.645 L2150.77 172.061 Q2150.77 176.661 2152.57 178.976 Q2154.36 181.262 2157.95 181.262 Q2162.26 181.262 2164.75 178.513 Q2167.26 175.764 2167.26 171.019 L2167.26 152.645 L2172.59 152.645 L2172.59 185.053 L2167.26 185.053 L2167.26 180.076 Q2165.33 183.027 2162.75 184.474 Q2160.2 185.892 2156.82 185.892 Q2151.23 185.892 2148.34 182.42 Q2145.45 178.947 2145.45 172.263 M2158.84 151.864 L2158.84 151.864 Z" fill="#000000" fill-rule="evenodd" fill-opacity="1" /><path clip-path="url(#clip690)" d="M 0 0 M2155.63 137.657 L2159.91 137.657 L2167 148.537 L2162.98 148.537 L2157.77 141.448 L2152.57 148.537 L2148.54 148.537 L2155.63 137.657 M2157.77 151.864 L2157.77 151.864 Z" fill="#000000" fill-rule="evenodd" fill-opacity="1" /><path clip-path="url(#clip690)" d="M 0 0 M2190.59 140.088 L2195.22 140.088 Q2199.56 146.916 2201.7 153.456 Q2203.87 159.995 2203.87 166.447 Q2203.87 172.929 2201.7 179.497 Q2199.56 186.065 2195.22 192.865 L2190.59 192.865 Q2194.43 186.239 2196.32 179.7 Q2198.22 173.131 2198.22 166.447 Q2198.22 159.763 2196.32 153.253 Q2194.43 146.743 2190.59 140.088 Z" fill="#000000" fill-rule="evenodd" fill-opacity="1" /><polyline clip-path="url(#clip690)" style="stroke:#e26f46; stroke-width:5; stroke-opacity:1; fill:none" points="
  1841.63,243.589 1986.27,243.589 
  "/>
<path clip-path="url(#clip690)" d="M1881.95 211.589 L1881.95 275.589 L1945.95 275.589 L1945.95 211.589 L1881.95 211.589 Z" fill="#e26f46" fill-rule="evenodd" fill-opacity="1" stroke="#000000" stroke-opacity="1" stroke-width="6.4"/>
<path clip-path="url(#clip690)" d="M1881.95 211.589 L1881.95 275.589 L1945.95 275.589 L1945.95 211.589 L1881.95 211.589 Z" fill="#e26f46" fill-rule="evenodd" fill-opacity="1" stroke="#000000" stroke-opacity="1" stroke-width="6.4"/>
<path clip-path="url(#clip690)" d="M1881.95 211.589 L1881.95 275.589 L1945.95 275.589 L1945.95 211.589 L1881.95 211.589 Z" fill="#e26f46" fill-rule="evenodd" fill-opacity="1" stroke="#000000" stroke-opacity="1" stroke-width="6.4"/>
<path clip-path="url(#clip690)" d="M1881.95 211.589 L1881.95 275.589 L1945.95 275.589 L1945.95 211.589 L1881.95 211.589 Z" fill="#e26f46" fill-rule="evenodd" fill-opacity="1" stroke="#000000" stroke-opacity="1" stroke-width="6.4"/>
<path clip-path="url(#clip690)" d="M1881.95 211.589 L1881.95 275.589 L1945.95 275.589 L1945.95 211.589 L1881.95 211.589 Z" fill="#e26f46" fill-rule="evenodd" fill-opacity="1" stroke="#000000" stroke-opacity="1" stroke-width="6.4"/>
<path clip-path="url(#clip690)" d="M1881.95 211.589 L1881.95 275.589 L1945.95 275.589 L1945.95 211.589 L1881.95 211.589 Z" fill="#e26f46" fill-rule="evenodd" fill-opacity="1" stroke="#000000" stroke-opacity="1" stroke-width="6.4"/>
<path clip-path="url(#clip690)" d="M1881.95 211.589 L1881.95 275.589 L1945.95 275.589 L1945.95 211.589 L1881.95 211.589 Z" fill="#e26f46" fill-rule="evenodd" fill-opacity="1" stroke="#000000" stroke-opacity="1" stroke-width="6.4"/>
<path clip-path="url(#clip690)" d="M1881.95 211.589 L1881.95 275.589 L1945.95 275.589 L1945.95 211.589 L1881.95 211.589 Z" fill="#e26f46" fill-rule="evenodd" fill-opacity="1" stroke="#000000" stroke-opacity="1" stroke-width="6.4"/>
<path clip-path="url(#clip690)" d="M1881.95 211.589 L1881.95 275.589 L1945.95 275.589 L1945.95 211.589 L1881.95 211.589 Z" fill="#e26f46" fill-rule="evenodd" fill-opacity="1" stroke="#000000" stroke-opacity="1" stroke-width="6.4"/>
<path clip-path="url(#clip690)" d="M1881.95 211.589 L1881.95 275.589 L1945.95 275.589 L1945.95 211.589 L1881.95 211.589 Z" fill="#e26f46" fill-rule="evenodd" fill-opacity="1" stroke="#000000" stroke-opacity="1" stroke-width="6.4"/>
<path clip-path="url(#clip690)" d="M1881.95 211.589 L1881.95 275.589 L1945.95 275.589 L1945.95 211.589 L1881.95 211.589 Z" fill="#e26f46" fill-rule="evenodd" fill-opacity="1" stroke="#000000" stroke-opacity="1" stroke-width="6.4"/>
<path clip-path="url(#clip690)" d="M1881.95 211.589 L1881.95 275.589 L1945.95 275.589 L1945.95 211.589 L1881.95 211.589 Z" fill="#e26f46" fill-rule="evenodd" fill-opacity="1" stroke="#000000" stroke-opacity="1" stroke-width="6.4"/>
<path clip-path="url(#clip690)" d="M1881.95 211.589 L1881.95 275.589 L1945.95 275.589 L1945.95 211.589 L1881.95 211.589 Z" fill="#e26f46" fill-rule="evenodd" fill-opacity="1" stroke="#000000" stroke-opacity="1" stroke-width="6.4"/>
<path clip-path="url(#clip690)" d="M1881.95 211.589 L1881.95 275.589 L1945.95 275.589 L1945.95 211.589 L1881.95 211.589 Z" fill="#e26f46" fill-rule="evenodd" fill-opacity="1" stroke="#000000" stroke-opacity="1" stroke-width="6.4"/>
<path clip-path="url(#clip690)" d="M1881.95 211.589 L1881.95 275.589 L1945.95 275.589 L1945.95 211.589 L1881.95 211.589 Z" fill="#e26f46" fill-rule="evenodd" fill-opacity="1" stroke="#000000" stroke-opacity="1" stroke-width="6.4"/>
<path clip-path="url(#clip690)" d="M1881.95 211.589 L1881.95 275.589 L1945.95 275.589 L1945.95 211.589 L1881.95 211.589 Z" fill="#e26f46" fill-rule="evenodd" fill-opacity="1" stroke="#000000" stroke-opacity="1" stroke-width="6.4"/>
<path clip-path="url(#clip690)" d="M1881.95 211.589 L1881.95 275.589 L1945.95 275.589 L1945.95 211.589 L1881.95 211.589 Z" fill="#e26f46" fill-rule="evenodd" fill-opacity="1" stroke="#000000" stroke-opacity="1" stroke-width="6.4"/>
<path clip-path="url(#clip690)" d="M1881.95 211.589 L1881.95 275.589 L1945.95 275.589 L1945.95 211.589 L1881.95 211.589 Z" fill="#e26f46" fill-rule="evenodd" fill-opacity="1" stroke="#000000" stroke-opacity="1" stroke-width="6.4"/>
<path clip-path="url(#clip690)" d="M1881.95 211.589 L1881.95 275.589 L1945.95 275.589 L1945.95 211.589 L1881.95 211.589 Z" fill="#e26f46" fill-rule="evenodd" fill-opacity="1" stroke="#000000" stroke-opacity="1" stroke-width="6.4"/>
<path clip-path="url(#clip690)" d="M1881.95 211.589 L1881.95 275.589 L1945.95 275.589 L1945.95 211.589 L1881.95 211.589 Z" fill="#e26f46" fill-rule="evenodd" fill-opacity="1" stroke="#000000" stroke-opacity="1" stroke-width="6.4"/>
<path clip-path="url(#clip690)" d="M1881.95 211.589 L1881.95 275.589 L1945.95 275.589 L1945.95 211.589 L1881.95 211.589 Z" fill="#e26f46" fill-rule="evenodd" fill-opacity="1" stroke="#000000" stroke-opacity="1" stroke-width="6.4"/>
<path clip-path="url(#clip690)" d="M1881.95 211.589 L1881.95 275.589 L1945.95 275.589 L1945.95 211.589 L1881.95 211.589 Z" fill="#e26f46" fill-rule="evenodd" fill-opacity="1" stroke="#000000" stroke-opacity="1" stroke-width="6.4"/>
<path clip-path="url(#clip690)" d="M1881.95 211.589 L1881.95 275.589 L1945.95 275.589 L1945.95 211.589 L1881.95 211.589 Z" fill="#e26f46" fill-rule="evenodd" fill-opacity="1" stroke="#000000" stroke-opacity="1" stroke-width="6.4"/>
<path clip-path="url(#clip690)" d="M1881.95 211.589 L1881.95 275.589 L1945.95 275.589 L1945.95 211.589 L1881.95 211.589 Z" fill="#e26f46" fill-rule="evenodd" fill-opacity="1" stroke="#000000" stroke-opacity="1" stroke-width="6.4"/>
<path clip-path="url(#clip690)" d="M1881.95 211.589 L1881.95 275.589 L1945.95 275.589 L1945.95 211.589 L1881.95 211.589 Z" fill="#e26f46" fill-rule="evenodd" fill-opacity="1" stroke="#000000" stroke-opacity="1" stroke-width="6.4"/>
<path clip-path="url(#clip690)" d="M1881.95 211.589 L1881.95 275.589 L1945.95 275.589 L1945.95 211.589 L1881.95 211.589 Z" fill="#e26f46" fill-rule="evenodd" fill-opacity="1" stroke="#000000" stroke-opacity="1" stroke-width="6.4"/>
<path clip-path="url(#clip690)" d="M1881.95 211.589 L1881.95 275.589 L1945.95 275.589 L1945.95 211.589 L1881.95 211.589 Z" fill="#e26f46" fill-rule="evenodd" fill-opacity="1" stroke="#000000" stroke-opacity="1" stroke-width="6.4"/>
<path clip-path="url(#clip690)" d="M1881.95 211.589 L1881.95 275.589 L1945.95 275.589 L1945.95 211.589 L1881.95 211.589 Z" fill="#e26f46" fill-rule="evenodd" fill-opacity="1" stroke="#000000" stroke-opacity="1" stroke-width="6.4"/>
<path clip-path="url(#clip690)" d="M1881.95 211.589 L1881.95 275.589 L1945.95 275.589 L1945.95 211.589 L1881.95 211.589 Z" fill="#e26f46" fill-rule="evenodd" fill-opacity="1" stroke="#000000" stroke-opacity="1" stroke-width="6.4"/>
<path clip-path="url(#clip690)" d="M1881.95 211.589 L1881.95 275.589 L1945.95 275.589 L1945.95 211.589 L1881.95 211.589 Z" fill="#e26f46" fill-rule="evenodd" fill-opacity="1" stroke="#000000" stroke-opacity="1" stroke-width="6.4"/>
<path clip-path="url(#clip690)" d="M1881.95 211.589 L1881.95 275.589 L1945.95 275.589 L1945.95 211.589 L1881.95 211.589 Z" fill="#e26f46" fill-rule="evenodd" fill-opacity="1" stroke="#000000" stroke-opacity="1" stroke-width="6.4"/>
<path clip-path="url(#clip690)" d="M1881.95 211.589 L1881.95 275.589 L1945.95 275.589 L1945.95 211.589 L1881.95 211.589 Z" fill="#e26f46" fill-rule="evenodd" fill-opacity="1" stroke="#000000" stroke-opacity="1" stroke-width="6.4"/>
<path clip-path="url(#clip690)" d="M1881.95 211.589 L1881.95 275.589 L1945.95 275.589 L1945.95 211.589 L1881.95 211.589 Z" fill="#e26f46" fill-rule="evenodd" fill-opacity="1" stroke="#000000" stroke-opacity="1" stroke-width="6.4"/>
<path clip-path="url(#clip690)" d="M 0 0 M2010.38 228.245 L2015.7 228.245 L2015.7 260.653 L2010.38 260.653 L2010.38 228.245 M2010.38 215.63 L2015.7 215.63 L2015.7 222.372 L2010.38 222.372 L2010.38 215.63 Z" fill="#000000" fill-rule="evenodd" fill-opacity="1" /><path clip-path="url(#clip690)" d="M 0 0 M2046.52 234.466 Q2048.51 230.878 2051.29 229.171 Q2054.07 227.464 2057.83 227.464 Q2062.9 227.464 2065.64 231.023 Q2068.39 234.553 2068.39 241.093 L2068.39 260.653 L2063.04 260.653 L2063.04 241.266 Q2063.04 236.608 2061.39 234.351 Q2059.74 232.094 2056.36 232.094 Q2052.22 232.094 2049.82 234.843 Q2047.42 237.591 2047.42 242.337 L2047.42 260.653 L2042.06 260.653 L2042.06 241.266 Q2042.06 236.579 2040.41 234.351 Q2038.76 232.094 2035.32 232.094 Q2031.24 232.094 2028.84 234.872 Q2026.44 237.62 2026.44 242.337 L2026.44 260.653 L2021.08 260.653 L2021.08 228.245 L2026.44 228.245 L2026.44 233.28 Q2028.26 230.3 2030.81 228.882 Q2033.35 227.464 2036.85 227.464 Q2040.38 227.464 2042.84 229.258 Q2045.33 231.052 2046.52 234.466 Z" fill="#000000" fill-rule="evenodd" fill-opacity="1" /><path clip-path="url(#clip690)" d="M 0 0 M2088.71 244.362 Q2082.25 244.362 2079.76 245.838 Q2077.28 247.314 2077.28 250.873 Q2077.28 253.708 2079.13 255.386 Q2081.01 257.036 2084.22 257.036 Q2088.65 257.036 2091.31 253.911 Q2094 250.757 2094 245.549 L2094 244.362 L2088.71 244.362 M2099.32 242.163 L2099.32 260.653 L2094 260.653 L2094 255.734 Q2092.18 258.685 2089.46 260.103 Q2086.74 261.492 2082.8 261.492 Q2077.83 261.492 2074.87 258.714 Q2071.95 255.907 2071.95 251.22 Q2071.95 245.751 2075.6 242.973 Q2079.27 240.196 2086.54 240.196 L2094 240.196 L2094 239.675 Q2094 236 2091.57 234.003 Q2089.17 231.978 2084.8 231.978 Q2082.02 231.978 2079.39 232.644 Q2076.76 233.309 2074.33 234.64 L2074.33 229.721 Q2077.25 228.593 2080 228.043 Q2082.75 227.464 2085.35 227.464 Q2092.38 227.464 2095.85 231.11 Q2099.32 234.756 2099.32 242.163 Z" fill="#000000" fill-rule="evenodd" fill-opacity="1" /><path clip-path="url(#clip690)" d="M 0 0 M2126.23 244.073 Q2126.23 238.286 2123.83 235.103 Q2121.46 231.92 2117.15 231.92 Q2112.87 231.92 2110.46 235.103 Q2108.09 238.286 2108.09 244.073 Q2108.09 249.831 2110.46 253.014 Q2112.87 256.197 2117.15 256.197 Q2121.46 256.197 2123.83 253.014 Q2126.23 249.831 2126.23 244.073 M2131.56 256.631 Q2131.56 264.906 2127.88 268.928 Q2124.21 272.979 2116.63 272.979 Q2113.82 272.979 2111.33 272.545 Q2108.84 272.14 2106.5 271.272 L2106.5 266.092 Q2108.84 267.366 2111.13 267.973 Q2113.42 268.581 2115.79 268.581 Q2121.03 268.581 2123.63 265.832 Q2126.23 263.112 2126.23 257.586 L2126.23 254.952 Q2124.59 257.817 2122.01 259.235 Q2119.43 260.653 2115.85 260.653 Q2109.89 260.653 2106.24 256.11 Q2102.59 251.567 2102.59 244.073 Q2102.59 236.55 2106.24 232.007 Q2109.89 227.464 2115.85 227.464 Q2119.43 227.464 2122.01 228.882 Q2124.59 230.3 2126.23 233.164 L2126.23 228.245 L2131.56 228.245 L2131.56 256.631 Z" fill="#000000" fill-rule="evenodd" fill-opacity="1" /><path clip-path="url(#clip690)" d="M 0 0 M2149.93 215.688 Q2146.05 222.343 2144.17 228.853 Q2142.29 235.363 2142.29 242.047 Q2142.29 248.731 2144.17 255.3 Q2146.08 261.839 2149.93 268.465 L2145.3 268.465 Q2140.96 261.665 2138.79 255.097 Q2136.65 248.529 2136.65 242.047 Q2136.65 235.595 2138.79 229.056 Q2140.93 222.516 2145.3 215.688 L2149.93 215.688 Z" fill="#000000" fill-rule="evenodd" fill-opacity="1" /><path clip-path="url(#clip690)" d="M 0 0 M2173.8 247.863 L2173.8 228.245 L2179.13 228.245 L2179.13 247.661 Q2179.13 252.261 2180.92 254.576 Q2182.72 256.862 2186.3 256.862 Q2190.61 256.862 2193.1 254.113 Q2195.62 251.364 2195.62 246.619 L2195.62 228.245 L2200.94 228.245 L2200.94 260.653 L2195.62 260.653 L2195.62 255.676 Q2193.68 258.627 2191.11 260.074 Q2188.56 261.492 2185.18 261.492 Q2179.59 261.492 2176.7 258.02 Q2173.8 254.547 2173.8 247.863 M2187.2 227.464 L2187.2 227.464 Z" fill="#000000" fill-rule="evenodd" fill-opacity="1" /><path clip-path="url(#clip690)" d="M 0 0 M2183.99 213.257 L2188.27 213.257 L2195.36 224.137 L2191.34 224.137 L2186.13 217.048 L2180.92 224.137 L2176.9 224.137 L2183.99 213.257 M2186.13 227.464 L2186.13 227.464 Z" fill="#000000" fill-rule="evenodd" fill-opacity="1" /><path clip-path="url(#clip690)" d="M 0 0 M2218.94 215.688 L2223.57 215.688 Q2227.91 222.516 2230.05 229.056 Q2232.22 235.595 2232.22 242.047 Q2232.22 248.529 2230.05 255.097 Q2227.91 261.665 2223.57 268.465 L2218.94 268.465 Q2222.79 261.839 2224.67 255.3 Q2226.58 248.731 2226.58 242.047 Q2226.58 235.363 2224.67 228.853 Q2222.79 222.343 2218.94 215.688 Z" fill="#000000" fill-rule="evenodd" fill-opacity="1" /></svg>
