<?xml version="1.0" encoding="utf-8"?>
<svg xmlns="http://www.w3.org/2000/svg" xmlns:xlink="http://www.w3.org/1999/xlink" width="600" height="400" viewBox="0 0 2400 1600">
<defs>
  <clipPath id="clip750">
    <rect x="0" y="0" width="2400" height="1600"/>
  </clipPath>
</defs>
<path clip-path="url(#clip750)" d="
M0 1600 L2400 1600 L2400 0 L0 0  Z
  " fill="#ffffff" fill-rule="evenodd" fill-opacity="1"/>
<defs>
  <clipPath id="clip751">
    <rect x="480" y="0" width="1681" height="1600"/>
  </clipPath>
</defs>
<path clip-path="url(#clip750)" d="
M200.186 1375.66 L2352.76 1375.66 L2352.76 158.032 L200.186 158.032  Z
  " fill="#ffffff" fill-rule="evenodd" fill-opacity="1"/>
<defs>
  <clipPath id="clip752">
    <rect x="200" y="158" width="2154" height="1219"/>
  </clipPath>
</defs>
<polyline clip-path="url(#clip752)" style="stroke:#000000; stroke-width:2; stroke-opacity:0.1; fill:none" points="
  261.108,1375.66 261.108,158.032 
  "/>
<polyline clip-path="url(#clip752)" style="stroke:#000000; stroke-width:2; stroke-opacity:0.1; fill:none" points="
  768.789,1375.66 768.789,158.032 
  "/>
<polyline clip-path="url(#clip752)" style="stroke:#000000; stroke-width:2; stroke-opacity:0.1; fill:none" points="
  1276.47,1375.66 1276.47,158.032 
  "/>
<polyline clip-path="url(#clip752)" style="stroke:#000000; stroke-width:2; stroke-opacity:0.1; fill:none" points="
  1784.15,1375.66 1784.15,158.032 
  "/>
<polyline clip-path="url(#clip752)" style="stroke:#000000; stroke-width:2; stroke-opacity:0.1; fill:none" points="
  2291.83,1375.66 2291.83,158.032 
  "/>
<polyline clip-path="url(#clip752)" style="stroke:#000000; stroke-width:2; stroke-opacity:0.1; fill:none" points="
  200.186,1341.2 2352.76,1341.2 
  "/>
<polyline clip-path="url(#clip752)" style="stroke:#000000; stroke-width:2; stroke-opacity:0.1; fill:none" points="
  200.186,1054.01 2352.76,1054.01 
  "/>
<polyline clip-path="url(#clip752)" style="stroke:#000000; stroke-width:2; stroke-opacity:0.1; fill:none" points="
  200.186,766.811 2352.76,766.811 
  "/>
<polyline clip-path="url(#clip752)" style="stroke:#000000; stroke-width:2; stroke-opacity:0.1; fill:none" points="
  200.186,479.618 2352.76,479.618 
  "/>
<polyline clip-path="url(#clip752)" style="stroke:#000000; stroke-width:2; stroke-opacity:0.1; fill:none" points="
  200.186,192.424 2352.76,192.424 
  "/>
<polyline clip-path="url(#clip750)" style="stroke:#000000; stroke-width:4; stroke-opacity:1; fill:none" points="
  200.186,1375.66 2352.76,1375.66 
  "/>
<polyline clip-path="url(#clip750)" style="stroke:#000000; stroke-width:4; stroke-opacity:1; fill:none" points="
  200.186,1375.66 200.186,158.032 
  "/>
<polyline clip-path="url(#clip750)" style="stroke:#000000; stroke-width:4; stroke-opacity:1; fill:none" points="
  261.108,1375.66 261.108,1361.05 
  "/>
<polyline clip-path="url(#clip750)" style="stroke:#000000; stroke-width:4; stroke-opacity:1; fill:none" points="
  768.789,1375.66 768.789,1361.05 
  "/>
<polyline clip-path="url(#clip750)" style="stroke:#000000; stroke-width:4; stroke-opacity:1; fill:none" points="
  1276.47,1375.66 1276.47,1361.05 
  "/>
<polyline clip-path="url(#clip750)" style="stroke:#000000; stroke-width:4; stroke-opacity:1; fill:none" points="
  1784.15,1375.66 1784.15,1361.05 
  "/>
<polyline clip-path="url(#clip750)" style="stroke:#000000; stroke-width:4; stroke-opacity:1; fill:none" points="
  2291.83,1375.66 2291.83,1361.05 
  "/>
<polyline clip-path="url(#clip750)" style="stroke:#000000; stroke-width:4; stroke-opacity:1; fill:none" points="
  200.186,1341.2 226.017,1341.2 
  "/>
<polyline clip-path="url(#clip750)" style="stroke:#000000; stroke-width:4; stroke-opacity:1; fill:none" points="
  200.186,1054.01 226.017,1054.01 
  "/>
<polyline clip-path="url(#clip750)" style="stroke:#000000; stroke-width:4; stroke-opacity:1; fill:none" points="
  200.186,766.811 226.017,766.811 
  "/>
<polyline clip-path="url(#clip750)" style="stroke:#000000; stroke-width:4; stroke-opacity:1; fill:none" points="
  200.186,479.618 226.017,479.618 
  "/>
<polyline clip-path="url(#clip750)" style="stroke:#000000; stroke-width:4; stroke-opacity:1; fill:none" points="
  200.186,192.424 226.017,192.424 
  "/>
<path clip-path="url(#clip750)" d="M 0 0 M204.684 1427.54 L223.4 1427.54 L223.4 1433.24 L204.684 1433.24 L204.684 1427.54 Z" fill="#000000" fill-rule="evenodd" fill-opacity="1" /><path clip-path="url(#clip750)" d="M 0 0 M232.219 1443.97 L243.677 1443.97 L243.677 1404.42 L231.212 1406.92 L231.212 1400.53 L243.608 1398.03 L250.622 1398.03 L250.622 1443.97 L262.08 1443.97 L262.08 1449.87 L232.219 1449.87 L232.219 1443.97 Z" fill="#000000" fill-rule="evenodd" fill-opacity="1" /><path clip-path="url(#clip750)" d="M 0 0 M269.684 1441.05 L277.01 1441.05 L277.01 1449.87 L269.684 1449.87 L269.684 1441.05 Z" fill="#000000" fill-rule="evenodd" fill-opacity="1" /><path clip-path="url(#clip750)" d="M 0 0 M299.614 1402.65 Q294.198 1402.65 291.455 1407.99 Q288.746 1413.31 288.746 1424 Q288.746 1434.66 291.455 1440.01 Q294.198 1445.32 299.614 1445.32 Q305.066 1445.32 307.774 1440.01 Q310.517 1434.66 310.517 1424 Q310.517 1413.31 307.774 1407.99 Q305.066 1402.65 299.614 1402.65 M299.614 1397.09 Q308.33 1397.09 312.913 1404 Q317.531 1410.87 317.531 1424 Q317.531 1437.09 312.913 1444 Q308.33 1450.87 299.614 1450.87 Q290.899 1450.87 286.281 1444 Q281.698 1437.09 281.698 1424 Q281.698 1410.87 286.281 1404 Q290.899 1397.09 299.614 1397.09 Z" fill="#000000" fill-rule="evenodd" fill-opacity="1" /><path clip-path="url(#clip750)" d="M 0 0 M712.192 1427.54 L730.908 1427.54 L730.908 1433.24 L712.192 1433.24 L712.192 1427.54 Z" fill="#000000" fill-rule="evenodd" fill-opacity="1" /><path clip-path="url(#clip750)" d="M 0 0 M753.512 1402.65 Q748.095 1402.65 745.352 1407.99 Q742.644 1413.31 742.644 1424 Q742.644 1434.66 745.352 1440.01 Q748.095 1445.32 753.512 1445.32 Q758.963 1445.32 761.671 1440.01 Q764.414 1434.66 764.414 1424 Q764.414 1413.31 761.671 1407.99 Q758.963 1402.65 753.512 1402.65 M753.512 1397.09 Q762.227 1397.09 766.81 1404 Q771.428 1410.87 771.428 1424 Q771.428 1437.09 766.81 1444 Q762.227 1450.87 753.512 1450.87 Q744.796 1450.87 740.178 1444 Q735.595 1437.09 735.595 1424 Q735.595 1410.87 740.178 1404 Q744.796 1397.09 753.512 1397.09 Z" fill="#000000" fill-rule="evenodd" fill-opacity="1" /><path clip-path="url(#clip750)" d="M 0 0 M779.032 1441.05 L786.359 1441.05 L786.359 1449.87 L779.032 1449.87 L779.032 1441.05 Z" fill="#000000" fill-rule="evenodd" fill-opacity="1" /><path clip-path="url(#clip750)" d="M 0 0 M794.032 1398.03 L821.567 1398.03 L821.567 1403.93 L800.456 1403.93 L800.456 1416.64 Q801.984 1416.12 803.511 1415.87 Q805.039 1415.6 806.567 1415.6 Q815.247 1415.6 820.317 1420.35 Q825.386 1425.11 825.386 1433.24 Q825.386 1441.6 820.178 1446.26 Q814.97 1450.87 805.491 1450.87 Q802.227 1450.87 798.824 1450.32 Q795.456 1449.76 791.845 1448.65 L791.845 1441.6 Q794.97 1443.31 798.303 1444.14 Q801.636 1444.97 805.352 1444.97 Q811.359 1444.97 814.865 1441.81 Q818.372 1438.65 818.372 1433.24 Q818.372 1427.82 814.865 1424.66 Q811.359 1421.5 805.352 1421.5 Q802.539 1421.5 799.727 1422.12 Q796.949 1422.75 794.032 1424.07 L794.032 1398.03 Z" fill="#000000" fill-rule="evenodd" fill-opacity="1" /><path clip-path="url(#clip750)" d="M 0 0 M1248.75 1402.65 Q1243.33 1402.65 1240.59 1407.99 Q1237.88 1413.31 1237.88 1424 Q1237.88 1434.66 1240.59 1440.01 Q1243.33 1445.32 1248.75 1445.32 Q1254.2 1445.32 1256.91 1440.01 Q1259.65 1434.66 1259.65 1424 Q1259.65 1413.31 1256.91 1407.99 Q1254.2 1402.65 1248.75 1402.65 M1248.75 1397.09 Q1257.46 1397.09 1262.04 1404 Q1266.66 1410.87 1266.66 1424 Q1266.66 1437.09 1262.04 1444 Q1257.46 1450.87 1248.75 1450.87 Q1240.03 1450.87 1235.41 1444 Q1230.83 1437.09 1230.83 1424 Q1230.83 1410.87 1235.41 1404 Q1240.03 1397.09 1248.75 1397.09 Z" fill="#000000" fill-rule="evenodd" fill-opacity="1" /><path clip-path="url(#clip750)" d="M 0 0 M1274.27 1441.05 L1281.59 1441.05 L1281.59 1449.87 L1274.27 1449.87 L1274.27 1441.05 Z" fill="#000000" fill-rule="evenodd" fill-opacity="1" /><path clip-path="url(#clip750)" d="M 0 0 M1304.2 1402.65 Q1298.78 1402.65 1296.04 1407.99 Q1293.33 1413.31 1293.33 1424 Q1293.33 1434.66 1296.04 1440.01 Q1298.78 1445.32 1304.2 1445.32 Q1309.65 1445.32 1312.36 1440.01 Q1315.1 1434.66 1315.1 1424 Q1315.1 1413.31 1312.36 1407.99 Q1309.65 1402.65 1304.2 1402.65 M1304.2 1397.09 Q1312.91 1397.09 1317.5 1404 Q1322.11 1410.87 1322.11 1424 Q1322.11 1437.09 1317.5 1444 Q1312.91 1450.87 1304.2 1450.87 Q1295.48 1450.87 1290.86 1444 Q1286.28 1437.09 1286.28 1424 Q1286.28 1410.87 1290.86 1404 Q1295.48 1397.09 1304.2 1397.09 Z" fill="#000000" fill-rule="evenodd" fill-opacity="1" /><path clip-path="url(#clip750)" d="M 0 0 M1757.17 1402.65 Q1751.76 1402.65 1749.01 1407.99 Q1746.31 1413.31 1746.31 1424 Q1746.31 1434.66 1749.01 1440.01 Q1751.76 1445.32 1757.17 1445.32 Q1762.62 1445.32 1765.33 1440.01 Q1768.08 1434.66 1768.08 1424 Q1768.08 1413.31 1765.33 1407.99 Q1762.62 1402.65 1757.17 1402.65 M1757.17 1397.09 Q1765.89 1397.09 1770.47 1404 Q1775.09 1410.87 1775.09 1424 Q1775.09 1437.09 1770.47 1444 Q1765.89 1450.87 1757.17 1450.87 Q1748.46 1450.87 1743.84 1444 Q1739.26 1437.09 1739.26 1424 Q1739.26 1410.87 1743.84 1404 Q1748.46 1397.09 1757.17 1397.09 Z" fill="#000000" fill-rule="evenodd" fill-opacity="1" /><path clip-path="url(#clip750)" d="M 0 0 M1782.69 1441.05 L1790.02 1441.05 L1790.02 1449.87 L1782.69 1449.87 L1782.69 1441.05 Z" fill="#000000" fill-rule="evenodd" fill-opacity="1" /><path clip-path="url(#clip750)" d="M 0 0 M1797.69 1398.03 L1825.23 1398.03 L1825.23 1403.93 L1804.12 1403.93 L1804.12 1416.64 Q1805.65 1416.12 1807.17 1415.87 Q1808.7 1415.6 1810.23 1415.6 Q1818.91 1415.6 1823.98 1420.35 Q1829.05 1425.11 1829.05 1433.24 Q1829.05 1441.6 1823.84 1446.26 Q1818.63 1450.87 1809.15 1450.87 Q1805.89 1450.87 1802.49 1450.32 Q1799.12 1449.76 1795.51 1448.65 L1795.51 1441.6 Q1798.63 1443.31 1801.96 1444.14 Q1805.3 1444.97 1809.01 1444.97 Q1815.02 1444.97 1818.53 1441.81 Q1822.03 1438.65 1822.03 1433.24 Q1822.03 1427.82 1818.53 1424.66 Q1815.02 1421.5 1809.01 1421.5 Q1806.2 1421.5 1803.39 1422.12 Q1800.61 1422.75 1797.69 1424.07 L1797.69 1398.03 Z" fill="#000000" fill-rule="evenodd" fill-opacity="1" /><path clip-path="url(#clip750)" d="M 0 0 M2249.68 1443.97 L2261.14 1443.97 L2261.14 1404.42 L2248.67 1406.92 L2248.67 1400.53 L2261.07 1398.03 L2268.08 1398.03 L2268.08 1443.97 L2279.54 1443.97 L2279.54 1449.87 L2249.68 1449.87 L2249.68 1443.97 Z" fill="#000000" fill-rule="evenodd" fill-opacity="1" /><path clip-path="url(#clip750)" d="M 0 0 M2287.15 1441.05 L2294.47 1441.05 L2294.47 1449.87 L2287.15 1449.87 L2287.15 1441.05 Z" fill="#000000" fill-rule="evenodd" fill-opacity="1" /><path clip-path="url(#clip750)" d="M 0 0 M2317.08 1402.65 Q2311.66 1402.65 2308.92 1407.99 Q2306.21 1413.31 2306.21 1424 Q2306.21 1434.66 2308.92 1440.01 Q2311.66 1445.32 2317.08 1445.32 Q2322.53 1445.32 2325.24 1440.01 Q2327.98 1434.66 2327.98 1424 Q2327.98 1413.31 2325.24 1407.99 Q2322.53 1402.65 2317.08 1402.65 M2317.08 1397.09 Q2325.79 1397.09 2330.38 1404 Q2334.99 1410.87 2334.99 1424 Q2334.99 1437.09 2330.38 1444 Q2325.79 1450.87 2317.08 1450.87 Q2308.36 1450.87 2303.74 1444 Q2299.16 1437.09 2299.16 1424 Q2299.16 1410.87 2303.74 1404 Q2308.36 1397.09 2317.08 1397.09 Z" fill="#000000" fill-rule="evenodd" fill-opacity="1" /><path clip-path="url(#clip750)" d="M 0 0 M63.3393 1344.79 L82.0545 1344.79 L82.0545 1350.49 L63.3393 1350.49 L63.3393 1344.79 Z" fill="#000000" fill-rule="evenodd" fill-opacity="1" /><path clip-path="url(#clip750)" d="M 0 0 M90.8739 1361.22 L102.332 1361.22 L102.332 1321.67 L89.867 1324.17 L89.867 1317.78 L102.263 1315.28 L109.277 1315.28 L109.277 1361.22 L120.735 1361.22 L120.735 1367.12 L90.8739 1367.12 L90.8739 1361.22 Z" fill="#000000" fill-rule="evenodd" fill-opacity="1" /><path clip-path="url(#clip750)" d="M 0 0 M128.339 1358.3 L135.665 1358.3 L135.665 1367.12 L128.339 1367.12 L128.339 1358.3 Z" fill="#000000" fill-rule="evenodd" fill-opacity="1" /><path clip-path="url(#clip750)" d="M 0 0 M158.269 1319.9 Q152.853 1319.9 150.11 1325.24 Q147.401 1330.56 147.401 1341.25 Q147.401 1351.91 150.11 1357.26 Q152.853 1362.57 158.269 1362.57 Q163.721 1362.57 166.429 1357.26 Q169.172 1351.91 169.172 1341.25 Q169.172 1330.56 166.429 1325.24 Q163.721 1319.9 158.269 1319.9 M158.269 1314.34 Q166.985 1314.34 171.568 1321.25 Q176.186 1328.13 176.186 1341.25 Q176.186 1354.34 171.568 1361.25 Q166.985 1368.13 158.269 1368.13 Q149.554 1368.13 144.936 1361.25 Q140.353 1354.34 140.353 1341.25 Q140.353 1328.13 144.936 1321.25 Q149.554 1314.34 158.269 1314.34 Z" fill="#000000" fill-rule="evenodd" fill-opacity="1" /><path clip-path="url(#clip750)" d="M 0 0 M62.9921 1057.6 L81.7073 1057.6 L81.7073 1063.29 L62.9921 1063.29 L62.9921 1057.6 Z" fill="#000000" fill-rule="evenodd" fill-opacity="1" /><path clip-path="url(#clip750)" d="M 0 0 M104.311 1032.7 Q98.8947 1032.7 96.1517 1038.05 Q93.4434 1043.36 93.4434 1054.06 Q93.4434 1064.72 96.1517 1070.06 Q98.8947 1075.38 104.311 1075.38 Q109.763 1075.38 112.471 1070.06 Q115.214 1064.72 115.214 1054.06 Q115.214 1043.36 112.471 1038.05 Q109.763 1032.7 104.311 1032.7 M104.311 1027.15 Q113.027 1027.15 117.61 1034.06 Q122.228 1040.93 122.228 1054.06 Q122.228 1067.15 117.61 1074.06 Q113.027 1080.93 104.311 1080.93 Q95.5961 1080.93 90.9781 1074.06 Q86.3948 1067.15 86.3948 1054.06 Q86.3948 1040.93 90.9781 1034.06 Q95.5961 1027.15 104.311 1027.15 Z" fill="#000000" fill-rule="evenodd" fill-opacity="1" /><path clip-path="url(#clip750)" d="M 0 0 M129.832 1071.11 L137.158 1071.11 L137.158 1079.93 L129.832 1079.93 L129.832 1071.11 Z" fill="#000000" fill-rule="evenodd" fill-opacity="1" /><path clip-path="url(#clip750)" d="M 0 0 M144.832 1028.09 L172.367 1028.09 L172.367 1033.99 L151.256 1033.99 L151.256 1046.7 Q152.783 1046.18 154.311 1045.93 Q155.839 1045.65 157.367 1045.65 Q166.047 1045.65 171.117 1050.41 Q176.186 1055.17 176.186 1063.29 Q176.186 1071.66 170.978 1076.31 Q165.769 1080.93 156.29 1080.93 Q153.026 1080.93 149.624 1080.38 Q146.256 1079.82 142.644 1078.71 L142.644 1071.66 Q145.769 1073.36 149.103 1074.2 Q152.436 1075.03 156.151 1075.03 Q162.158 1075.03 165.665 1071.87 Q169.172 1068.71 169.172 1063.29 Q169.172 1057.88 165.665 1054.72 Q162.158 1051.56 156.151 1051.56 Q153.339 1051.56 150.526 1052.18 Q147.749 1052.81 144.832 1054.13 L144.832 1028.09 Z" fill="#000000" fill-rule="evenodd" fill-opacity="1" /><path clip-path="url(#clip750)" d="M 0 0 M102.818 745.509 Q97.4017 745.509 94.6586 750.857 Q91.9503 756.169 91.9503 766.864 Q91.9503 777.523 94.6586 782.87 Q97.4017 788.183 102.818 788.183 Q108.27 788.183 110.978 782.87 Q113.721 777.523 113.721 766.864 Q113.721 756.169 110.978 750.857 Q108.27 745.509 102.818 745.509 M102.818 739.954 Q111.534 739.954 116.117 746.864 Q120.735 753.739 120.735 766.864 Q120.735 779.954 116.117 786.863 Q111.534 793.738 102.818 793.738 Q94.1031 793.738 89.485 786.863 Q84.9017 779.954 84.9017 766.864 Q84.9017 753.739 89.485 746.864 Q94.1031 739.954 102.818 739.954 Z" fill="#000000" fill-rule="evenodd" fill-opacity="1" /><path clip-path="url(#clip750)" d="M 0 0 M128.339 783.912 L135.665 783.912 L135.665 792.731 L128.339 792.731 L128.339 783.912 Z" fill="#000000" fill-rule="evenodd" fill-opacity="1" /><path clip-path="url(#clip750)" d="M 0 0 M158.269 745.509 Q152.853 745.509 150.11 750.857 Q147.401 756.169 147.401 766.864 Q147.401 777.523 150.11 782.87 Q152.853 788.183 158.269 788.183 Q163.721 788.183 166.429 782.87 Q169.172 777.523 169.172 766.864 Q169.172 756.169 166.429 750.857 Q163.721 745.509 158.269 745.509 M158.269 739.954 Q166.985 739.954 171.568 746.864 Q176.186 753.739 176.186 766.864 Q176.186 779.954 171.568 786.863 Q166.985 793.738 158.269 793.738 Q149.554 793.738 144.936 786.863 Q140.353 779.954 140.353 766.864 Q140.353 753.739 144.936 746.864 Q149.554 739.954 158.269 739.954 Z" fill="#000000" fill-rule="evenodd" fill-opacity="1" /><path clip-path="url(#clip750)" d="M 0 0 M104.311 458.316 Q98.8947 458.316 96.1517 463.663 Q93.4434 468.976 93.4434 479.67 Q93.4434 490.33 96.1517 495.677 Q98.8947 500.989 104.311 500.989 Q109.763 500.989 112.471 495.677 Q115.214 490.33 115.214 479.67 Q115.214 468.976 112.471 463.663 Q109.763 458.316 104.311 458.316 M104.311 452.76 Q113.027 452.76 117.61 459.67 Q122.228 466.545 122.228 479.67 Q122.228 492.76 117.61 499.67 Q113.027 506.545 104.311 506.545 Q95.5961 506.545 90.9781 499.67 Q86.3948 492.76 86.3948 479.67 Q86.3948 466.545 90.9781 459.67 Q95.5961 452.76 104.311 452.76 Z" fill="#000000" fill-rule="evenodd" fill-opacity="1" /><path clip-path="url(#clip750)" d="M 0 0 M129.832 496.718 L137.158 496.718 L137.158 505.538 L129.832 505.538 L129.832 496.718 Z" fill="#000000" fill-rule="evenodd" fill-opacity="1" /><path clip-path="url(#clip750)" d="M 0 0 M144.832 453.698 L172.367 453.698 L172.367 459.601 L151.256 459.601 L151.256 472.309 Q152.783 471.788 154.311 471.545 Q155.839 471.267 157.367 471.267 Q166.047 471.267 171.117 476.024 Q176.186 480.781 176.186 488.906 Q176.186 497.274 170.978 501.927 Q165.769 506.545 156.29 506.545 Q153.026 506.545 149.624 505.989 Q146.256 505.434 142.644 504.323 L142.644 497.274 Q145.769 498.975 149.103 499.809 Q152.436 500.642 156.151 500.642 Q162.158 500.642 165.665 497.482 Q169.172 494.323 169.172 488.906 Q169.172 483.489 165.665 480.33 Q162.158 477.17 156.151 477.17 Q153.339 477.17 150.526 477.795 Q147.749 478.42 144.832 479.739 L144.832 453.698 Z" fill="#000000" fill-rule="evenodd" fill-opacity="1" /><path clip-path="url(#clip750)" d="M 0 0 M90.8739 212.442 L102.332 212.442 L102.332 172.893 L89.867 175.393 L89.867 169.004 L102.263 166.504 L109.277 166.504 L109.277 212.442 L120.735 212.442 L120.735 218.344 L90.8739 218.344 L90.8739 212.442 Z" fill="#000000" fill-rule="evenodd" fill-opacity="1" /><path clip-path="url(#clip750)" d="M 0 0 M128.339 209.525 L135.665 209.525 L135.665 218.344 L128.339 218.344 L128.339 209.525 Z" fill="#000000" fill-rule="evenodd" fill-opacity="1" /><path clip-path="url(#clip750)" d="M 0 0 M158.269 171.122 Q152.853 171.122 150.11 176.469 Q147.401 181.782 147.401 192.476 Q147.401 203.136 150.11 208.483 Q152.853 213.796 158.269 213.796 Q163.721 213.796 166.429 208.483 Q169.172 203.136 169.172 192.476 Q169.172 181.782 166.429 176.469 Q163.721 171.122 158.269 171.122 M158.269 165.567 Q166.985 165.567 171.568 172.476 Q176.186 179.351 176.186 192.476 Q176.186 205.567 171.568 212.476 Q166.985 219.351 158.269 219.351 Q149.554 219.351 144.936 212.476 Q140.353 205.567 140.353 192.476 Q140.353 179.351 144.936 172.476 Q149.554 165.567 158.269 165.567 Z" fill="#000000" fill-rule="evenodd" fill-opacity="1" /><path clip-path="url(#clip750)" d="M 0 0 M977.569 85.9116 L977.569 42.7521 L989.282 42.7521 L989.282 85.466 Q989.282 95.5875 993.229 100.68 Q997.176 105.709 1005.07 105.709 Q1014.55 105.709 1020.03 99.6615 Q1025.57 93.6141 1025.57 83.1743 L1025.57 42.7521 L1037.28 42.7521 L1037.28 114.048 L1025.57 114.048 L1025.57 103.099 Q1021.3 109.592 1015.64 112.775 Q1010.03 115.894 1002.59 115.894 Q990.301 115.894 983.935 108.255 Q977.569 100.616 977.569 85.9116 M1007.04 41.0333 L1007.04 41.0333 Z" fill="#000000" fill-rule="evenodd" fill-opacity="1" /><path clip-path="url(#clip750)" d="M 0 0 M1077.7 15.1249 Q1069.17 29.766 1065.03 44.0889 Q1060.9 58.4117 1060.9 73.1165 Q1060.9 87.8213 1065.03 102.271 Q1069.24 116.658 1077.7 131.235 L1067.52 131.235 Q1057.97 116.276 1053.19 101.826 Q1048.48 87.3757 1048.48 73.1165 Q1048.48 58.921 1053.19 44.5345 Q1057.9 30.148 1067.52 15.1249 L1077.7 15.1249 Z" fill="#000000" fill-rule="evenodd" fill-opacity="1" /><path clip-path="url(#clip750)" d="M 0 0 M1149.25 42.7521 L1123.47 77.4452 L1150.59 114.048 L1136.78 114.048 L1116.02 86.0389 L1095.27 114.048 L1081.46 114.048 L1109.15 76.745 L1083.81 42.7521 L1097.63 42.7521 L1116.53 68.1513 L1135.44 42.7521 L1149.25 42.7521 Z" fill="#000000" fill-rule="evenodd" fill-opacity="1" /><path clip-path="url(#clip750)" d="M 0 0 M1165.87 97.8791 L1179.3 97.8791 L1179.3 108.828 L1168.86 129.198 L1160.65 129.198 L1165.87 108.828 L1165.87 97.8791 Z" fill="#000000" fill-rule="evenodd" fill-opacity="1" /><path clip-path="url(#clip750)" d="M 0 0 M1244.61 22.5091 L1244.61 42.7521 L1268.74 42.7521 L1268.74 51.855 L1244.61 51.855 L1244.61 90.5585 Q1244.61 99.2796 1246.97 101.762 Q1249.38 104.245 1256.71 104.245 L1268.74 104.245 L1268.74 114.048 L1256.71 114.048 Q1243.15 114.048 1237.99 109.019 Q1232.83 103.927 1232.83 90.5585 L1232.83 51.855 L1224.24 51.855 L1224.24 42.7521 L1232.83 42.7521 L1232.83 22.5091 L1244.61 22.5091 Z" fill="#000000" fill-rule="evenodd" fill-opacity="1" /><path clip-path="url(#clip750)" d="M 0 0 M1282.55 54.8469 L1364.16 54.8469 L1364.16 65.5413 L1282.55 65.5413 L1282.55 54.8469 M1282.55 80.819 L1364.16 80.819 L1364.16 91.6407 L1282.55 91.6407 L1282.55 80.819 Z" fill="#000000" fill-rule="evenodd" fill-opacity="1" /><path clip-path="url(#clip750)" d="M 0 0 M1389.18 103.226 L1434.05 103.226 L1434.05 114.048 L1373.71 114.048 L1373.71 103.226 Q1381.03 95.6511 1393.63 82.9197 Q1406.3 70.1246 1409.55 66.4325 Q1415.72 59.4939 1418.14 54.7196 Q1420.62 49.8817 1420.62 45.2347 Q1420.62 37.6595 1415.28 32.8852 Q1409.99 28.111 1401.46 28.111 Q1395.41 28.111 1388.67 30.2116 Q1381.98 32.3123 1374.34 36.5774 L1374.34 23.5913 Q1382.11 20.4721 1388.86 18.8807 Q1395.61 17.2893 1401.21 17.2893 Q1415.98 17.2893 1424.76 24.6735 Q1433.54 32.0577 1433.54 44.4072 Q1433.54 50.2636 1431.32 55.5472 Q1429.15 60.767 1423.36 67.8966 Q1421.77 69.7427 1413.24 78.591 Q1404.71 87.3757 1389.18 103.226 Z" fill="#000000" fill-rule="evenodd" fill-opacity="1" /><path clip-path="url(#clip750)" d="M 0 0 M1447.99 97.8791 L1461.43 97.8791 L1461.43 114.048 L1447.99 114.048 L1447.99 97.8791 Z" fill="#000000" fill-rule="evenodd" fill-opacity="1" /><path clip-path="url(#clip750)" d="M 0 0 M1502.87 27.4744 Q1492.94 27.4744 1487.91 37.2776 Q1482.94 47.0171 1482.94 66.6235 Q1482.94 86.1662 1487.91 95.9694 Q1492.94 105.709 1502.87 105.709 Q1512.86 105.709 1517.83 95.9694 Q1522.86 86.1662 1522.86 66.6235 Q1522.86 47.0171 1517.83 37.2776 Q1512.86 27.4744 1502.87 27.4744 M1502.87 17.2893 Q1518.85 17.2893 1527.25 29.957 Q1535.71 42.5611 1535.71 66.6235 Q1535.71 90.6222 1527.25 103.29 Q1518.85 115.894 1502.87 115.894 Q1486.89 115.894 1478.42 103.29 Q1470.02 90.6222 1470.02 66.6235 Q1470.02 42.5611 1478.42 29.957 Q1486.89 17.2893 1502.87 17.2893 Z" fill="#000000" fill-rule="evenodd" fill-opacity="1" /><path clip-path="url(#clip750)" d="M 0 0 M1546.15 15.1249 L1556.34 15.1249 Q1565.89 30.148 1570.6 44.5345 Q1575.37 58.921 1575.37 73.1165 Q1575.37 87.3757 1570.6 101.826 Q1565.89 116.276 1556.34 131.235 L1546.15 131.235 Q1554.62 116.658 1558.76 102.271 Q1562.96 87.8213 1562.96 73.1165 Q1562.96 58.4117 1558.76 44.0889 Q1554.62 29.766 1546.15 15.1249 Z" fill="#000000" fill-rule="evenodd" fill-opacity="1" /><path clip-path="url(#clip750)" d="M 0 0 M1303.66 1512.4 L1282.56 1540.78 L1304.75 1570.73 L1293.45 1570.73 L1276.47 1547.82 L1259.49 1570.73 L1248.19 1570.73 L1270.85 1540.21 L1250.12 1512.4 L1261.42 1512.4 L1276.89 1533.18 L1292.36 1512.4 L1303.66 1512.4 Z" fill="#000000" fill-rule="evenodd" fill-opacity="1" /><circle clip-path="url(#clip752)" cx="261.108" cy="1237.03" r="14" fill="#009af9" fill-rule="evenodd" fill-opacity="1" stroke="#000000" stroke-opacity="1" stroke-width="3.2"/>
<circle clip-path="url(#clip752)" cx="324.568" cy="1228" r="14" fill="#009af9" fill-rule="evenodd" fill-opacity="1" stroke="#000000" stroke-opacity="1" stroke-width="3.2"/>
<circle clip-path="url(#clip752)" cx="388.028" cy="1201.24" r="14" fill="#009af9" fill-rule="evenodd" fill-opacity="1" stroke="#000000" stroke-opacity="1" stroke-width="3.2"/>
<circle clip-path="url(#clip752)" cx="451.488" cy="1157.79" r="14" fill="#009af9" fill-rule="evenodd" fill-opacity="1" stroke="#000000" stroke-opacity="1" stroke-width="3.2"/>
<circle clip-path="url(#clip752)" cx="514.949" cy="1099.31" r="14" fill="#009af9" fill-rule="evenodd" fill-opacity="1" stroke="#000000" stroke-opacity="1" stroke-width="3.2"/>
<circle clip-path="url(#clip752)" cx="578.409" cy="1028.05" r="14" fill="#009af9" fill-rule="evenodd" fill-opacity="1" stroke="#000000" stroke-opacity="1" stroke-width="3.2"/>
<circle clip-path="url(#clip752)" cx="641.869" cy="946.757" r="14" fill="#009af9" fill-rule="evenodd" fill-opacity="1" stroke="#000000" stroke-opacity="1" stroke-width="3.2"/>
<circle clip-path="url(#clip752)" cx="705.329" cy="858.547" r="14" fill="#009af9" fill-rule="evenodd" fill-opacity="1" stroke="#000000" stroke-opacity="1" stroke-width="3.2"/>
<circle clip-path="url(#clip752)" cx="768.789" cy="766.811" r="14" fill="#009af9" fill-rule="evenodd" fill-opacity="1" stroke="#000000" stroke-opacity="1" stroke-width="3.2"/>
<circle clip-path="url(#clip752)" cx="832.25" cy="675.076" r="14" fill="#009af9" fill-rule="evenodd" fill-opacity="1" stroke="#000000" stroke-opacity="1" stroke-width="3.2"/>
<circle clip-path="url(#clip752)" cx="895.71" cy="586.866" r="14" fill="#009af9" fill-rule="evenodd" fill-opacity="1" stroke="#000000" stroke-opacity="1" stroke-width="3.2"/>
<circle clip-path="url(#clip752)" cx="959.17" cy="505.57" r="14" fill="#009af9" fill-rule="evenodd" fill-opacity="1" stroke="#000000" stroke-opacity="1" stroke-width="3.2"/>
<circle clip-path="url(#clip752)" cx="1022.63" cy="434.315" r="14" fill="#009af9" fill-rule="evenodd" fill-opacity="1" stroke="#000000" stroke-opacity="1" stroke-width="3.2"/>
<circle clip-path="url(#clip752)" cx="1086.09" cy="375.837" r="14" fill="#009af9" fill-rule="evenodd" fill-opacity="1" stroke="#000000" stroke-opacity="1" stroke-width="3.2"/>
<circle clip-path="url(#clip752)" cx="1149.55" cy="332.384" r="14" fill="#009af9" fill-rule="evenodd" fill-opacity="1" stroke="#000000" stroke-opacity="1" stroke-width="3.2"/>
<circle clip-path="url(#clip752)" cx="1213.01" cy="305.625" r="14" fill="#009af9" fill-rule="evenodd" fill-opacity="1" stroke="#000000" stroke-opacity="1" stroke-width="3.2"/>
<circle clip-path="url(#clip752)" cx="1276.47" cy="296.59" r="14" fill="#009af9" fill-rule="evenodd" fill-opacity="1" stroke="#000000" stroke-opacity="1" stroke-width="3.2"/>
<circle clip-path="url(#clip752)" cx="1339.93" cy="305.625" r="14" fill="#009af9" fill-rule="evenodd" fill-opacity="1" stroke="#000000" stroke-opacity="1" stroke-width="3.2"/>
<circle clip-path="url(#clip752)" cx="1403.39" cy="332.384" r="14" fill="#009af9" fill-rule="evenodd" fill-opacity="1" stroke="#000000" stroke-opacity="1" stroke-width="3.2"/>
<circle clip-path="url(#clip752)" cx="1466.85" cy="375.837" r="14" fill="#009af9" fill-rule="evenodd" fill-opacity="1" stroke="#000000" stroke-opacity="1" stroke-width="3.2"/>
<circle clip-path="url(#clip752)" cx="1530.31" cy="434.315" r="14" fill="#009af9" fill-rule="evenodd" fill-opacity="1" stroke="#000000" stroke-opacity="1" stroke-width="3.2"/>
<circle clip-path="url(#clip752)" cx="1593.77" cy="505.57" r="14" fill="#009af9" fill-rule="evenodd" fill-opacity="1" stroke="#000000" stroke-opacity="1" stroke-width="3.2"/>
<circle clip-path="url(#clip752)" cx="1657.23" cy="586.866" r="14" fill="#009af9" fill-rule="evenodd" fill-opacity="1" stroke="#000000" stroke-opacity="1" stroke-width="3.2"/>
<circle clip-path="url(#clip752)" cx="1720.69" cy="675.076" r="14" fill="#009af9" fill-rule="evenodd" fill-opacity="1" stroke="#000000" stroke-opacity="1" stroke-width="3.2"/>
<circle clip-path="url(#clip752)" cx="1784.15" cy="766.811" r="14" fill="#009af9" fill-rule="evenodd" fill-opacity="1" stroke="#000000" stroke-opacity="1" stroke-width="3.2"/>
<circle clip-path="url(#clip752)" cx="1847.61" cy="858.547" r="14" fill="#009af9" fill-rule="evenodd" fill-opacity="1" stroke="#000000" stroke-opacity="1" stroke-width="3.2"/>
<circle clip-path="url(#clip752)" cx="1911.07" cy="946.757" r="14" fill="#009af9" fill-rule="evenodd" fill-opacity="1" stroke="#000000" stroke-opacity="1" stroke-width="3.2"/>
<circle clip-path="url(#clip752)" cx="1974.53" cy="1028.05" r="14" fill="#009af9" fill-rule="evenodd" fill-opacity="1" stroke="#000000" stroke-opacity="1" stroke-width="3.2"/>
<circle clip-path="url(#clip752)" cx="2037.99" cy="1099.31" r="14" fill="#009af9" fill-rule="evenodd" fill-opacity="1" stroke="#000000" stroke-opacity="1" stroke-width="3.2"/>
<circle clip-path="url(#clip752)" cx="2101.45" cy="1157.79" r="14" fill="#009af9" fill-rule="evenodd" fill-opacity="1" stroke="#000000" stroke-opacity="1" stroke-width="3.2"/>
<circle clip-path="url(#clip752)" cx="2164.91" cy="1201.24" r="14" fill="#009af9" fill-rule="evenodd" fill-opacity="1" stroke="#000000" stroke-opacity="1" stroke-width="3.2"/>
<circle clip-path="url(#clip752)" cx="2228.37" cy="1228" r="14" fill="#009af9" fill-rule="evenodd" fill-opacity="1" stroke="#000000" stroke-opacity="1" stroke-width="3.2"/>
<polyline clip-path="url(#clip752)" style="stroke:#e26f46; stroke-width:8; stroke-opacity:1; fill:none" points="
  261.108,1237.08 266.066,1237.02 271.024,1236.86 275.982,1236.58 280.939,1236.19 326.783,1227.4 372.626,1209.36 418.469,1182.43 464.312,1147.15 491.862,1122.23 
  519.412,1094.72 546.962,1064.83 574.512,1032.77 621.098,974.307 667.684,911.536 768.895,766.658 862.203,632.776 912.22,564.897 962.238,501.844 1020.19,436.803 
  1078.14,382.343 1103.89,362.009 1129.64,344.244 1155.39,329.16 1181.14,316.853 1226.3,302.198 1271.46,296.6 1320.7,300.939 1369.93,316.069 1419.46,341.823 
  1468.99,377.538 1523.75,427.604 1578.52,487.386 1630.62,551.724 1682.72,621.641 1791.08,776.886 1882.29,907.417 1937.97,982.262 1993.64,1050.73 2045.98,1107.46 
  2098.32,1155.28 2140.25,1186.3 2182.17,1210.27 2224.1,1226.79 2266.03,1235.58 2272.48,1236.24 2278.93,1236.71 2285.38,1236.99 2291.83,1237.08 
  "/>
<polyline clip-path="url(#clip752)" style="stroke:#808080; stroke-width:8; stroke-opacity:1; fill:none" stroke-dasharray="32, 20" points="
  261.108,1341.2 266.066,1341.13 271.024,1340.93 275.982,1340.59 280.939,1340.12 326.783,1329.38 372.626,1307.34 418.469,1274.45 464.312,1231.36 491.862,1200.92 
  519.412,1167.32 546.962,1130.81 574.512,1091.66 621.098,1020.25 667.684,943.579 768.895,766.624 862.203,603.1 912.22,520.193 962.238,443.179 1020.19,363.738 
  1078.14,297.22 1103.89,272.385 1129.64,250.687 1155.39,232.263 1181.14,217.23 1226.3,199.331 1271.46,192.493 1320.7,197.793 1369.93,216.274 1419.46,247.729 
  1468.99,291.351 1523.75,352.503 1578.52,425.52 1630.62,504.103 1682.72,589.499 1791.08,779.117 1882.29,938.547 1937.97,1029.96 1993.64,1113.59 2045.98,1182.88 
  2098.32,1241.28 2140.25,1279.17 2182.17,1308.45 2224.1,1328.63 2266.03,1339.37 2272.48,1340.17 2278.93,1340.74 2285.38,1341.08 2291.83,1341.2 
  "/>
<path clip-path="url(#clip750)" d="
M1588.22 561.5 L2281 561.5 L2281 198.62 L1588.22 198.62  Z
  " fill="#ffffff" fill-rule="evenodd" fill-opacity="1"/>
<polyline clip-path="url(#clip750)" style="stroke:#000000; stroke-width:4; stroke-opacity:1; fill:none" points="
  1588.22,561.5 2281,561.5 2281,198.62 1588.22,198.62 1588.22,561.5 
  "/>
<circle clip-path="url(#clip750)" cx="1683.89" cy="289.34" r="34" fill="#009af9" fill-rule="evenodd" fill-opacity="1" stroke="#000000" stroke-opacity="1" stroke-width="7.68"/>
<circle clip-path="url(#clip750)" cx="1683.89" cy="289.34" r="34" fill="#009af9" fill-rule="evenodd" fill-opacity="1" stroke="#000000" stroke-opacity="1" stroke-width="7.68"/>
<circle clip-path="url(#clip750)" cx="1683.89" cy="289.34" r="34" fill="#009af9" fill-rule="evenodd" fill-opacity="1" stroke="#000000" stroke-opacity="1" stroke-width="7.68"/>
<circle clip-path="url(#clip750)" cx="1683.89" cy="289.34" r="34" fill="#009af9" fill-rule="evenodd" fill-opacity="1" stroke="#000000" stroke-opacity="1" stroke-width="7.68"/>
<circle clip-path="url(#clip750)" cx="1683.89" cy="289.34" r="34" fill="#009af9" fill-rule="evenodd" fill-opacity="1" stroke="#000000" stroke-opacity="1" stroke-width="7.68"/>
<circle clip-path="url(#clip750)" cx="1683.89" cy="289.34" r="34" fill="#009af9" fill-rule="evenodd" fill-opacity="1" stroke="#000000" stroke-opacity="1" stroke-width="7.68"/>
<circle clip-path="url(#clip750)" cx="1683.89" cy="289.34" r="34" fill="#009af9" fill-rule="evenodd" fill-opacity="1" stroke="#000000" stroke-opacity="1" stroke-width="7.68"/>
<circle clip-path="url(#clip750)" cx="1683.89" cy="289.34" r="34" fill="#009af9" fill-rule="evenodd" fill-opacity="1" stroke="#000000" stroke-opacity="1" stroke-width="7.68"/>
<circle clip-path="url(#clip750)" cx="1683.89" cy="289.34" r="34" fill="#009af9" fill-rule="evenodd" fill-opacity="1" stroke="#000000" stroke-opacity="1" stroke-width="7.68"/>
<circle clip-path="url(#clip750)" cx="1683.89" cy="289.34" r="34" fill="#009af9" fill-rule="evenodd" fill-opacity="1" stroke="#000000" stroke-opacity="1" stroke-width="7.68"/>
<circle clip-path="url(#clip750)" cx="1683.89" cy="289.34" r="34" fill="#009af9" fill-rule="evenodd" fill-opacity="1" stroke="#000000" stroke-opacity="1" stroke-width="7.68"/>
<circle clip-path="url(#clip750)" cx="1683.89" cy="289.34" r="34" fill="#009af9" fill-rule="evenodd" fill-opacity="1" stroke="#000000" stroke-opacity="1" stroke-width="7.68"/>
<circle clip-path="url(#clip750)" cx="1683.89" cy="289.34" r="34" fill="#009af9" fill-rule="evenodd" fill-opacity="1" stroke="#000000" stroke-opacity="1" stroke-width="7.68"/>
<circle clip-path="url(#clip750)" cx="1683.89" cy="289.34" r="34" fill="#009af9" fill-rule="evenodd" fill-opacity="1" stroke="#000000" stroke-opacity="1" stroke-width="7.68"/>
<circle clip-path="url(#clip750)" cx="1683.89" cy="289.34" r="34" fill="#009af9" fill-rule="evenodd" fill-opacity="1" stroke="#000000" stroke-opacity="1" stroke-width="7.68"/>
<circle clip-path="url(#clip750)" cx="1683.89" cy="289.34" r="34" fill="#009af9" fill-rule="evenodd" fill-opacity="1" stroke="#000000" stroke-opacity="1" stroke-width="7.68"/>
<circle clip-path="url(#clip750)" cx="1683.89" cy="289.34" r="34" fill="#009af9" fill-rule="evenodd" fill-opacity="1" stroke="#000000" stroke-opacity="1" stroke-width="7.68"/>
<circle clip-path="url(#clip750)" cx="1683.89" cy="289.34" r="34" fill="#009af9" fill-rule="evenodd" fill-opacity="1" stroke="#000000" stroke-opacity="1" stroke-width="7.68"/>
<circle clip-path="url(#clip750)" cx="1683.89" cy="289.34" r="34" fill="#009af9" fill-rule="evenodd" fill-opacity="1" stroke="#000000" stroke-opacity="1" stroke-width="7.68"/>
<circle clip-path="url(#clip750)" cx="1683.89" cy="289.34" r="34" fill="#009af9" fill-rule="evenodd" fill-opacity="1" stroke="#000000" stroke-opacity="1" stroke-width="7.68"/>
<circle clip-path="url(#clip750)" cx="1683.89" cy="289.34" r="34" fill="#009af9" fill-rule="evenodd" fill-opacity="1" stroke="#000000" stroke-opacity="1" stroke-width="7.68"/>
<circle clip-path="url(#clip750)" cx="1683.89" cy="289.34" r="34" fill="#009af9" fill-rule="evenodd" fill-opacity="1" stroke="#000000" stroke-opacity="1" stroke-width="7.68"/>
<circle clip-path="url(#clip750)" cx="1683.89" cy="289.34" r="34" fill="#009af9" fill-rule="evenodd" fill-opacity="1" stroke="#000000" stroke-opacity="1" stroke-width="7.68"/>
<circle clip-path="url(#clip750)" cx="1683.89" cy="289.34" r="34" fill="#009af9" fill-rule="evenodd" fill-opacity="1" stroke="#000000" stroke-opacity="1" stroke-width="7.68"/>
<circle clip-path="url(#clip750)" cx="1683.89" cy="289.34" r="34" fill="#009af9" fill-rule="evenodd" fill-opacity="1" stroke="#000000" stroke-opacity="1" stroke-width="7.68"/>
<circle clip-path="url(#clip750)" cx="1683.89" cy="289.34" r="34" fill="#009af9" fill-rule="evenodd" fill-opacity="1" stroke="#000000" stroke-opacity="1" stroke-width="7.68"/>
<circle clip-path="url(#clip750)" cx="1683.89" cy="289.34" r="34" fill="#009af9" fill-rule="evenodd" fill-opacity="1" stroke="#000000" stroke-opacity="1" stroke-width="7.68"/>
<circle clip-path="url(#clip750)" cx="1683.89" cy="289.34" r="34" fill="#009af9" fill-rule="evenodd" fill-opacity="1" stroke="#000000" stroke-opacity="1" stroke-width="7.68"/>
<circle clip-path="url(#clip750)" cx="1683.89" cy="289.34" r="34" fill="#009af9" fill-rule="evenodd" fill-opacity="1" stroke="#000000" stroke-opacity="1" stroke-width="7.68"/>
<circle clip-path="url(#clip750)" cx="1683.89" cy="289.34" r="34" fill="#009af9" fill-rule="evenodd" fill-opacity="1" stroke="#000000" stroke-opacity="1" stroke-width="7.68"/>
<circle clip-path="url(#clip750)" cx="1683.89" cy="289.34" r="34" fill="#009af9" fill-rule="evenodd" fill-opacity="1" stroke="#000000" stroke-opacity="1" stroke-width="7.68"/>
<circle clip-path="url(#clip750)" cx="1683.89" cy="289.34" r="34" fill="#009af9" fill-rule="evenodd" fill-opacity="1" stroke="#000000" stroke-opacity="1" stroke-width="7.68"/>
<path clip-path="url(#clip750)" d="M 0 0 M1812.13 291.788 L1812.13 315.26 L1805.74 315.26 L1805.74 291.996 Q1805.74 286.475 1803.59 283.732 Q1801.43 280.989 1797.13 280.989 Q1791.96 280.989 1788.97 284.288 Q1785.98 287.586 1785.98 293.281 L1785.98 315.26 L1779.56 315.26 L1779.56 276.371 L1785.98 276.371 L1785.98 282.413 Q1788.28 278.906 1791.37 277.17 Q1794.49 275.434 1798.55 275.434 Q1805.25 275.434 1808.69 279.6 Q1812.13 283.732 1812.13 291.788 Z" fill="#000000" fill-rule="evenodd" fill-opacity="1" /><path clip-path="url(#clip750)" d="M 0 0 M1818.17 299.913 L1818.17 276.371 L1824.56 276.371 L1824.56 299.67 Q1824.56 305.19 1826.71 307.968 Q1828.87 310.711 1833.17 310.711 Q1838.34 310.711 1841.33 307.413 Q1844.35 304.114 1844.35 298.42 L1844.35 276.371 L1850.74 276.371 L1850.74 315.26 L1844.35 315.26 L1844.35 309.288 Q1842.02 312.829 1838.93 314.565 Q1835.88 316.267 1831.82 316.267 Q1825.12 316.267 1821.64 312.1 Q1818.17 307.933 1818.17 299.913 M1834.25 275.434 L1834.25 275.434 Z" fill="#000000" fill-rule="evenodd" fill-opacity="1" /><path clip-path="url(#clip750)" d="M 0 0 M1887.72 283.836 Q1890.11 279.531 1893.45 277.482 Q1896.78 275.434 1901.3 275.434 Q1907.37 275.434 1910.67 279.704 Q1913.97 283.94 1913.97 291.788 L1913.97 315.26 L1907.55 315.26 L1907.55 291.996 Q1907.55 286.406 1905.57 283.697 Q1903.59 280.989 1899.52 280.989 Q1894.56 280.989 1891.68 284.288 Q1888.8 287.586 1888.8 293.281 L1888.8 315.26 L1882.37 315.26 L1882.37 291.996 Q1882.37 286.371 1880.39 283.697 Q1878.41 280.989 1874.28 280.989 Q1869.39 280.989 1866.5 284.322 Q1863.62 287.621 1863.62 293.281 L1863.62 315.26 L1857.2 315.26 L1857.2 276.371 L1863.62 276.371 L1863.62 282.413 Q1865.81 278.836 1868.87 277.135 Q1871.92 275.434 1876.12 275.434 Q1880.36 275.434 1883.31 277.586 Q1886.3 279.739 1887.72 283.836 Z" fill="#000000" fill-rule="evenodd" fill-opacity="1" /><path clip-path="url(#clip750)" d="M 0 0 M1953.93 294.218 L1953.93 297.343 L1924.56 297.343 Q1924.98 303.94 1928.52 307.413 Q1932.09 310.85 1938.45 310.85 Q1942.13 310.85 1945.57 309.947 Q1949.04 309.044 1952.44 307.239 L1952.44 313.281 Q1949 314.739 1945.39 315.503 Q1941.78 316.267 1938.07 316.267 Q1928.76 316.267 1923.31 310.85 Q1917.89 305.433 1917.89 296.197 Q1917.89 286.649 1923.03 281.059 Q1928.21 275.434 1936.95 275.434 Q1944.8 275.434 1949.35 280.503 Q1953.93 285.538 1953.93 294.218 M1947.55 292.343 Q1947.48 287.1 1944.59 283.975 Q1941.75 280.85 1937.02 280.85 Q1931.68 280.85 1928.45 283.871 Q1925.25 286.892 1924.77 292.378 L1947.55 292.343 Z" fill="#000000" fill-rule="evenodd" fill-opacity="1" /><path clip-path="url(#clip750)" d="M 0 0 M1983.17 282.343 Q1982.09 281.718 1980.81 281.44 Q1979.56 281.128 1978.03 281.128 Q1972.61 281.128 1969.7 284.67 Q1966.82 288.177 1966.82 294.774 L1966.82 315.26 L1960.39 315.26 L1960.39 276.371 L1966.82 276.371 L1966.82 282.413 Q1968.83 278.871 1972.06 277.17 Q1975.29 275.434 1979.91 275.434 Q1980.57 275.434 1981.36 275.538 Q1982.16 275.607 1983.14 275.781 L1983.17 282.343 Z" fill="#000000" fill-rule="evenodd" fill-opacity="1" /><path clip-path="url(#clip750)" d="M 0 0 M1989.87 276.371 L1996.26 276.371 L1996.26 315.26 L1989.87 315.26 L1989.87 276.371 M1989.87 261.232 L1996.26 261.232 L1996.26 269.322 L1989.87 269.322 L1989.87 261.232 Z" fill="#000000" fill-rule="evenodd" fill-opacity="1" /><path clip-path="url(#clip750)" d="M 0 0 M2030.95 277.864 L2030.95 283.836 Q2028.24 282.343 2025.5 281.614 Q2022.79 280.85 2020.01 280.85 Q2013.79 280.85 2010.36 284.808 Q2006.92 288.732 2006.92 295.85 Q2006.92 302.968 2010.36 306.926 Q2013.79 310.85 2020.01 310.85 Q2022.79 310.85 2025.5 310.121 Q2028.24 309.357 2030.95 307.864 L2030.95 313.767 Q2028.27 315.017 2025.39 315.642 Q2022.54 316.267 2019.32 316.267 Q2010.53 316.267 2005.36 310.746 Q2000.18 305.225 2000.18 295.85 Q2000.18 286.336 2005.39 280.885 Q2010.64 275.434 2019.73 275.434 Q2022.68 275.434 2025.5 276.059 Q2028.31 276.649 2030.95 277.864 Z" fill="#000000" fill-rule="evenodd" fill-opacity="1" /><path clip-path="url(#clip750)" d="M 0 0 M2055.32 295.711 Q2047.58 295.711 2044.59 297.482 Q2041.61 299.253 2041.61 303.524 Q2041.61 306.926 2043.83 308.94 Q2046.09 310.919 2049.94 310.919 Q2055.25 310.919 2058.45 307.169 Q2061.68 303.385 2061.68 297.135 L2061.68 295.711 L2055.32 295.711 M2068.07 293.072 L2068.07 315.26 L2061.68 315.26 L2061.68 309.357 Q2059.49 312.899 2056.23 314.6 Q2052.96 316.267 2048.24 316.267 Q2042.27 316.267 2038.73 312.933 Q2035.22 309.565 2035.22 303.94 Q2035.22 297.378 2039.59 294.045 Q2044 290.711 2052.72 290.711 L2061.68 290.711 L2061.68 290.086 Q2061.68 285.677 2058.76 283.281 Q2055.88 280.85 2050.63 280.85 Q2047.3 280.85 2044.14 281.649 Q2040.98 282.447 2038.07 284.045 L2038.07 278.142 Q2041.57 276.788 2044.87 276.128 Q2048.17 275.434 2051.29 275.434 Q2059.73 275.434 2063.9 279.809 Q2068.07 284.183 2068.07 293.072 Z" fill="#000000" fill-rule="evenodd" fill-opacity="1" /><path clip-path="url(#clip750)" d="M 0 0 M2074.77 261.232 L2081.16 261.232 L2081.16 315.26 L2074.77 315.26 L2074.77 261.232 Z" fill="#000000" fill-rule="evenodd" fill-opacity="1" /><polyline clip-path="url(#clip750)" style="stroke:#e26f46; stroke-width:6; stroke-opacity:1; fill:none" points="
  1612.14,380.06 1755.64,380.06 
  "/>
<path clip-path="url(#clip750)" d="M 0 0 M1799.66 386.431 Q1791.92 386.431 1788.93 388.202 Q1785.95 389.973 1785.95 394.244 Q1785.95 397.646 1788.17 399.66 Q1790.43 401.639 1794.28 401.639 Q1799.59 401.639 1802.79 397.889 Q1806.02 394.105 1806.02 387.855 L1806.02 386.431 L1799.66 386.431 M1812.41 383.792 L1812.41 405.98 L1806.02 405.98 L1806.02 400.077 Q1803.83 403.619 1800.57 405.32 Q1797.3 406.987 1792.58 406.987 Q1786.61 406.987 1783.07 403.653 Q1779.56 400.285 1779.56 394.66 Q1779.56 388.098 1783.93 384.765 Q1788.34 381.431 1797.06 381.431 L1806.02 381.431 L1806.02 380.806 Q1806.02 376.397 1803.1 374.001 Q1800.22 371.57 1794.98 371.57 Q1791.64 371.57 1788.48 372.369 Q1785.32 373.167 1782.41 374.765 L1782.41 368.862 Q1785.91 367.508 1789.21 366.848 Q1792.51 366.154 1795.64 366.154 Q1804.07 366.154 1808.24 370.529 Q1812.41 374.903 1812.41 383.792 Z" fill="#000000" fill-rule="evenodd" fill-opacity="1" /><path clip-path="url(#clip750)" d="M 0 0 M1851.43 382.508 L1851.43 405.98 L1845.05 405.98 L1845.05 382.716 Q1845.05 377.195 1842.89 374.452 Q1840.74 371.709 1836.43 371.709 Q1831.26 371.709 1828.28 375.008 Q1825.29 378.306 1825.29 384.001 L1825.29 405.98 L1818.87 405.98 L1818.87 367.091 L1825.29 367.091 L1825.29 373.133 Q1827.58 369.626 1830.67 367.89 Q1833.8 366.154 1837.86 366.154 Q1844.56 366.154 1848 370.32 Q1851.43 374.452 1851.43 382.508 Z" fill="#000000" fill-rule="evenodd" fill-opacity="1" /><path clip-path="url(#clip750)" d="M 0 0 M1875.81 386.431 Q1868.07 386.431 1865.08 388.202 Q1862.09 389.973 1862.09 394.244 Q1862.09 397.646 1864.32 399.66 Q1866.57 401.639 1870.43 401.639 Q1875.74 401.639 1878.93 397.889 Q1882.16 394.105 1882.16 387.855 L1882.16 386.431 L1875.81 386.431 M1888.55 383.792 L1888.55 405.98 L1882.16 405.98 L1882.16 400.077 Q1879.98 403.619 1876.71 405.32 Q1873.45 406.987 1868.73 406.987 Q1862.75 406.987 1859.21 403.653 Q1855.71 400.285 1855.71 394.66 Q1855.71 388.098 1860.08 384.765 Q1864.49 381.431 1873.21 381.431 L1882.16 381.431 L1882.16 380.806 Q1882.16 376.397 1879.25 374.001 Q1876.37 371.57 1871.12 371.57 Q1867.79 371.57 1864.63 372.369 Q1861.47 373.167 1858.55 374.765 L1858.55 368.862 Q1862.06 367.508 1865.36 366.848 Q1868.66 366.154 1871.78 366.154 Q1880.22 366.154 1884.39 370.529 Q1888.55 374.903 1888.55 383.792 Z" fill="#000000" fill-rule="evenodd" fill-opacity="1" /><path clip-path="url(#clip750)" d="M 0 0 M1895.25 351.952 L1901.64 351.952 L1901.64 405.98 L1895.25 405.98 L1895.25 351.952 Z" fill="#000000" fill-rule="evenodd" fill-opacity="1" /><path clip-path="url(#clip750)" d="M 0 0 M1924.52 409.591 Q1921.82 416.535 1919.25 418.653 Q1916.68 420.771 1912.37 420.771 L1907.27 420.771 L1907.27 415.424 L1911.02 415.424 Q1913.66 415.424 1915.11 414.174 Q1916.57 412.924 1918.34 408.271 L1919.49 405.355 L1903.76 367.091 L1910.53 367.091 L1922.68 397.508 L1934.84 367.091 L1941.61 367.091 L1924.52 409.591 Z" fill="#000000" fill-rule="evenodd" fill-opacity="1" /><path clip-path="url(#clip750)" d="M 0 0 M1954.63 356.049 L1954.63 367.091 L1967.79 367.091 L1967.79 372.056 L1954.63 372.056 L1954.63 393.167 Q1954.63 397.924 1955.91 399.278 Q1957.23 400.633 1961.23 400.633 L1967.79 400.633 L1967.79 405.98 L1961.23 405.98 Q1953.83 405.98 1951.02 403.237 Q1948.2 400.459 1948.2 393.167 L1948.2 372.056 L1943.52 372.056 L1943.52 367.091 L1948.2 367.091 L1948.2 356.049 L1954.63 356.049 Z" fill="#000000" fill-rule="evenodd" fill-opacity="1" /><path clip-path="url(#clip750)" d="M 0 0 M1974.49 367.091 L1980.88 367.091 L1980.88 405.98 L1974.49 405.98 L1974.49 367.091 M1974.49 351.952 L1980.88 351.952 L1980.88 360.042 L1974.49 360.042 L1974.49 351.952 Z" fill="#000000" fill-rule="evenodd" fill-opacity="1" /><path clip-path="url(#clip750)" d="M 0 0 M2015.57 368.584 L2015.57 374.556 Q2012.86 373.063 2010.11 372.334 Q2007.41 371.57 2004.63 371.57 Q1998.41 371.57 1994.98 375.528 Q1991.54 379.452 1991.54 386.57 Q1991.54 393.688 1994.98 397.646 Q1998.41 401.57 2004.63 401.57 Q2007.41 401.57 2010.11 400.841 Q2012.86 400.077 2015.57 398.584 L2015.57 404.487 Q2012.89 405.737 2010.01 406.362 Q2007.16 406.987 2003.93 406.987 Q1995.15 406.987 1989.98 401.466 Q1984.8 395.945 1984.8 386.57 Q1984.8 377.056 1990.01 371.605 Q1995.25 366.154 2004.35 366.154 Q2007.3 366.154 2010.11 366.779 Q2012.93 367.369 2015.57 368.584 Z" fill="#000000" fill-rule="evenodd" fill-opacity="1" /><path clip-path="url(#clip750)" d="M 0 0 M2039.94 386.431 Q2032.2 386.431 2029.21 388.202 Q2026.23 389.973 2026.23 394.244 Q2026.23 397.646 2028.45 399.66 Q2030.7 401.639 2034.56 401.639 Q2039.87 401.639 2043.07 397.889 Q2046.29 394.105 2046.29 387.855 L2046.29 386.431 L2039.94 386.431 M2052.68 383.792 L2052.68 405.98 L2046.29 405.98 L2046.29 400.077 Q2044.11 403.619 2040.84 405.32 Q2037.58 406.987 2032.86 406.987 Q2026.89 406.987 2023.34 403.653 Q2019.84 400.285 2019.84 394.66 Q2019.84 388.098 2024.21 384.765 Q2028.62 381.431 2037.34 381.431 L2046.29 381.431 L2046.29 380.806 Q2046.29 376.397 2043.38 374.001 Q2040.5 371.57 2035.25 371.57 Q2031.92 371.57 2028.76 372.369 Q2025.6 373.167 2022.68 374.765 L2022.68 368.862 Q2026.19 367.508 2029.49 366.848 Q2032.79 366.154 2035.91 366.154 Q2044.35 366.154 2048.52 370.529 Q2052.68 374.903 2052.68 383.792 Z" fill="#000000" fill-rule="evenodd" fill-opacity="1" /><path clip-path="url(#clip750)" d="M 0 0 M2059.38 351.952 L2065.77 351.952 L2065.77 405.98 L2059.38 405.98 L2059.38 351.952 Z" fill="#000000" fill-rule="evenodd" fill-opacity="1" /><polyline clip-path="url(#clip750)" style="stroke:#808080; stroke-width:6; stroke-opacity:1; fill:none" stroke-dasharray="24, 15" points="
  1612.14,470.78 1755.64,470.78 
  "/>
<path clip-path="url(#clip750)" d="M 0 0 M1779.56 457.811 L1785.95 457.811 L1785.95 496.7 L1779.56 496.7 L1779.56 457.811 M1779.56 442.672 L1785.95 442.672 L1785.95 450.762 L1779.56 450.762 L1779.56 442.672 Z" fill="#000000" fill-rule="evenodd" fill-opacity="1" /><path clip-path="url(#clip750)" d="M 0 0 M1824.98 473.228 L1824.98 496.7 L1818.59 496.7 L1818.59 473.436 Q1818.59 467.915 1816.43 465.172 Q1814.28 462.429 1809.98 462.429 Q1804.8 462.429 1801.82 465.728 Q1798.83 469.026 1798.83 474.721 L1798.83 496.7 L1792.41 496.7 L1792.41 457.811 L1798.83 457.811 L1798.83 463.853 Q1801.12 460.346 1804.21 458.61 Q1807.34 456.874 1811.4 456.874 Q1818.1 456.874 1821.54 461.04 Q1824.98 465.172 1824.98 473.228 Z" fill="#000000" fill-rule="evenodd" fill-opacity="1" /><path clip-path="url(#clip750)" d="M 0 0 M1831.68 457.811 L1838.07 457.811 L1838.07 496.7 L1831.68 496.7 L1831.68 457.811 M1831.68 442.672 L1838.07 442.672 L1838.07 450.762 L1831.68 450.762 L1831.68 442.672 Z" fill="#000000" fill-rule="evenodd" fill-opacity="1" /><path clip-path="url(#clip750)" d="M 0 0 M1851.09 446.769 L1851.09 457.811 L1864.25 457.811 L1864.25 462.776 L1851.09 462.776 L1851.09 483.887 Q1851.09 488.644 1852.37 489.998 Q1853.69 491.353 1857.68 491.353 L1864.25 491.353 L1864.25 496.7 L1857.68 496.7 Q1850.29 496.7 1847.48 493.957 Q1844.66 491.179 1844.66 483.887 L1844.66 462.776 L1839.98 462.776 L1839.98 457.811 L1844.66 457.811 L1844.66 446.769 L1851.09 446.769 Z" fill="#000000" fill-rule="evenodd" fill-opacity="1" /><path clip-path="url(#clip750)" d="M 0 0 M1870.95 457.811 L1877.34 457.811 L1877.34 496.7 L1870.95 496.7 L1870.95 457.811 M1870.95 442.672 L1877.34 442.672 L1877.34 450.762 L1870.95 450.762 L1870.95 442.672 Z" fill="#000000" fill-rule="evenodd" fill-opacity="1" /><path clip-path="url(#clip750)" d="M 0 0 M1901.71 477.151 Q1893.97 477.151 1890.98 478.922 Q1888 480.693 1888 484.964 Q1888 488.366 1890.22 490.38 Q1892.48 492.359 1896.33 492.359 Q1901.64 492.359 1904.84 488.609 Q1908.07 484.825 1908.07 478.575 L1908.07 477.151 L1901.71 477.151 M1914.46 474.512 L1914.46 496.7 L1908.07 496.7 L1908.07 490.797 Q1905.88 494.339 1902.61 496.04 Q1899.35 497.707 1894.63 497.707 Q1888.66 497.707 1885.11 494.373 Q1881.61 491.005 1881.61 485.38 Q1881.61 478.818 1885.98 475.485 Q1890.39 472.151 1899.11 472.151 L1908.07 472.151 L1908.07 471.526 Q1908.07 467.117 1905.15 464.721 Q1902.27 462.29 1897.02 462.29 Q1893.69 462.29 1890.53 463.089 Q1887.37 463.887 1884.46 465.485 L1884.46 459.582 Q1887.96 458.228 1891.26 457.568 Q1894.56 456.874 1897.68 456.874 Q1906.12 456.874 1910.29 461.249 Q1914.46 465.623 1914.46 474.512 Z" fill="#000000" fill-rule="evenodd" fill-opacity="1" /><path clip-path="url(#clip750)" d="M 0 0 M1921.16 442.672 L1927.55 442.672 L1927.55 496.7 L1921.16 496.7 L1921.16 442.672 Z" fill="#000000" fill-rule="evenodd" fill-opacity="1" /><path clip-path="url(#clip750)" d="M 0 0 M1984.84 459.304 L1984.84 465.276 Q1982.13 463.783 1979.39 463.054 Q1976.68 462.29 1973.9 462.29 Q1967.68 462.29 1964.25 466.248 Q1960.81 470.172 1960.81 477.29 Q1960.81 484.408 1964.25 488.366 Q1967.68 492.29 1973.9 492.29 Q1976.68 492.29 1979.39 491.561 Q1982.13 490.797 1984.84 489.304 L1984.84 495.207 Q1982.16 496.457 1979.28 497.082 Q1976.43 497.707 1973.2 497.707 Q1964.42 497.707 1959.25 492.186 Q1954.07 486.665 1954.07 477.29 Q1954.07 467.776 1959.28 462.325 Q1964.52 456.874 1973.62 456.874 Q1976.57 456.874 1979.39 457.499 Q1982.2 458.089 1984.84 459.304 Z" fill="#000000" fill-rule="evenodd" fill-opacity="1" /><path clip-path="url(#clip750)" d="M 0 0 M2006.61 462.29 Q2001.47 462.29 1998.48 466.318 Q1995.5 470.311 1995.5 477.29 Q1995.5 484.269 1998.45 488.297 Q2001.43 492.29 2006.61 492.29 Q2011.71 492.29 2014.7 488.262 Q2017.68 484.235 2017.68 477.29 Q2017.68 470.38 2014.7 466.353 Q2011.71 462.29 2006.61 462.29 M2006.61 456.874 Q2014.94 456.874 2019.7 462.29 Q2024.45 467.707 2024.45 477.29 Q2024.45 486.839 2019.7 492.29 Q2014.94 497.707 2006.61 497.707 Q1998.24 497.707 1993.48 492.29 Q1988.76 486.839 1988.76 477.29 Q1988.76 467.707 1993.48 462.29 Q1998.24 456.874 2006.61 456.874 Z" fill="#000000" fill-rule="evenodd" fill-opacity="1" /><path clip-path="url(#clip750)" d="M 0 0 M2063.48 473.228 L2063.48 496.7 L2057.09 496.7 L2057.09 473.436 Q2057.09 467.915 2054.94 465.172 Q2052.79 462.429 2048.48 462.429 Q2043.31 462.429 2040.32 465.728 Q2037.34 469.026 2037.34 474.721 L2037.34 496.7 L2030.91 496.7 L2030.91 457.811 L2037.34 457.811 L2037.34 463.853 Q2039.63 460.346 2042.72 458.61 Q2045.84 456.874 2049.91 456.874 Q2056.61 456.874 2060.04 461.04 Q2063.48 465.172 2063.48 473.228 Z" fill="#000000" fill-rule="evenodd" fill-opacity="1" /><path clip-path="url(#clip750)" d="M 0 0 M2095.77 463.714 L2095.77 442.672 L2102.16 442.672 L2102.16 496.7 L2095.77 496.7 L2095.77 490.866 Q2093.76 494.339 2090.67 496.04 Q2087.61 497.707 2083.31 497.707 Q2076.26 497.707 2071.82 492.082 Q2067.41 486.457 2067.41 477.29 Q2067.41 468.123 2071.82 462.499 Q2076.26 456.874 2083.31 456.874 Q2087.61 456.874 2090.67 458.575 Q2093.76 460.242 2095.77 463.714 M2074 477.29 Q2074 484.339 2076.88 488.366 Q2079.8 492.359 2084.87 492.359 Q2089.94 492.359 2092.86 488.366 Q2095.77 484.339 2095.77 477.29 Q2095.77 470.242 2092.86 466.248 Q2089.94 462.221 2084.87 462.221 Q2079.8 462.221 2076.88 466.248 Q2074 470.242 2074 477.29 Z" fill="#000000" fill-rule="evenodd" fill-opacity="1" /><path clip-path="url(#clip750)" d="M 0 0 M2108.86 457.811 L2115.25 457.811 L2115.25 496.7 L2108.86 496.7 L2108.86 457.811 M2108.86 442.672 L2115.25 442.672 L2115.25 450.762 L2108.86 450.762 L2108.86 442.672 Z" fill="#000000" fill-rule="evenodd" fill-opacity="1" /><path clip-path="url(#clip750)" d="M 0 0 M2128.27 446.769 L2128.27 457.811 L2141.43 457.811 L2141.43 462.776 L2128.27 462.776 L2128.27 483.887 Q2128.27 488.644 2129.56 489.998 Q2130.88 491.353 2134.87 491.353 L2141.43 491.353 L2141.43 496.7 L2134.87 496.7 Q2127.47 496.7 2124.66 493.957 Q2121.85 491.179 2121.85 483.887 L2121.85 462.776 L2117.16 462.776 L2117.16 457.811 L2121.85 457.811 L2121.85 446.769 L2128.27 446.769 Z" fill="#000000" fill-rule="evenodd" fill-opacity="1" /><path clip-path="url(#clip750)" d="M 0 0 M2148.13 457.811 L2154.52 457.811 L2154.52 496.7 L2148.13 496.7 L2148.13 457.811 M2148.13 442.672 L2154.52 442.672 L2154.52 450.762 L2148.13 450.762 L2148.13 442.672 Z" fill="#000000" fill-rule="evenodd" fill-opacity="1" /><path clip-path="url(#clip750)" d="M 0 0 M2176.29 462.29 Q2171.16 462.29 2168.17 466.318 Q2165.18 470.311 2165.18 477.29 Q2165.18 484.269 2168.13 488.297 Q2171.12 492.29 2176.29 492.29 Q2181.4 492.29 2184.38 488.262 Q2187.37 484.235 2187.37 477.29 Q2187.37 470.38 2184.38 466.353 Q2181.4 462.29 2176.29 462.29 M2176.29 456.874 Q2184.63 456.874 2189.38 462.29 Q2194.14 467.707 2194.14 477.29 Q2194.14 486.839 2189.38 492.29 Q2184.63 497.707 2176.29 497.707 Q2167.93 497.707 2163.17 492.29 Q2158.45 486.839 2158.45 477.29 Q2158.45 467.707 2163.17 462.29 Q2167.93 456.874 2176.29 456.874 Z" fill="#000000" fill-rule="evenodd" fill-opacity="1" /><path clip-path="url(#clip750)" d="M 0 0 M2233.17 473.228 L2233.17 496.7 L2226.78 496.7 L2226.78 473.436 Q2226.78 467.915 2224.63 465.172 Q2222.47 462.429 2218.17 462.429 Q2213 462.429 2210.01 465.728 Q2207.02 469.026 2207.02 474.721 L2207.02 496.7 L2200.6 496.7 L2200.6 457.811 L2207.02 457.811 L2207.02 463.853 Q2209.31 460.346 2212.4 458.61 Q2215.53 456.874 2219.59 456.874 Q2226.29 456.874 2229.73 461.04 Q2233.17 465.172 2233.17 473.228 Z" fill="#000000" fill-rule="evenodd" fill-opacity="1" /></svg>
