<?xml version="1.0" encoding="utf-8"?>
<svg xmlns="http://www.w3.org/2000/svg" xmlns:xlink="http://www.w3.org/1999/xlink" width="600" height="400" viewBox="0 0 2400 1600">
<defs>
  <clipPath id="clip660">
    <rect x="0" y="0" width="2400" height="1600"/>
  </clipPath>
</defs>
<path clip-path="url(#clip660)" d="
M0 1600 L2400 1600 L2400 0 L0 0  Z
  " fill="#ffffff" fill-rule="evenodd" fill-opacity="1"/>
<defs>
  <clipPath id="clip661">
    <rect x="480" y="0" width="1681" height="1600"/>
  </clipPath>
</defs>
<path clip-path="url(#clip660)" d="
M181.32 1401.58 L2352.76 1401.58 L2352.76 47.2441 L181.32 47.2441  Z
  " fill="#ffffff" fill-rule="evenodd" fill-opacity="1"/>
<defs>
  <clipPath id="clip662">
    <rect x="181" y="47" width="2172" height="1355"/>
  </clipPath>
</defs>
<polyline clip-path="url(#clip662)" style="stroke:#000000; stroke-width:2; stroke-opacity:0.1; fill:none" points="
  289.673,1401.58 289.673,47.2441 
  "/>
<polyline clip-path="url(#clip662)" style="stroke:#000000; stroke-width:2; stroke-opacity:0.1; fill:none" points="
  620.881,1401.58 620.881,47.2441 
  "/>
<polyline clip-path="url(#clip662)" style="stroke:#000000; stroke-width:2; stroke-opacity:0.1; fill:none" points="
  952.088,1401.58 952.088,47.2441 
  "/>
<polyline clip-path="url(#clip662)" style="stroke:#000000; stroke-width:2; stroke-opacity:0.1; fill:none" points="
  1283.3,1401.58 1283.3,47.2441 
  "/>
<polyline clip-path="url(#clip662)" style="stroke:#000000; stroke-width:2; stroke-opacity:0.1; fill:none" points="
  1614.5,1401.58 1614.5,47.2441 
  "/>
<polyline clip-path="url(#clip662)" style="stroke:#000000; stroke-width:2; stroke-opacity:0.1; fill:none" points="
  1945.71,1401.58 1945.71,47.2441 
  "/>
<polyline clip-path="url(#clip662)" style="stroke:#000000; stroke-width:2; stroke-opacity:0.1; fill:none" points="
  2276.92,1401.58 2276.92,47.2441 
  "/>
<polyline clip-path="url(#clip662)" style="stroke:#000000; stroke-width:2; stroke-opacity:0.1; fill:none" points="
  181.32,1381.09 2352.76,1381.09 
  "/>
<polyline clip-path="url(#clip662)" style="stroke:#000000; stroke-width:2; stroke-opacity:0.1; fill:none" points="
  181.32,1162.2 2352.76,1162.2 
  "/>
<polyline clip-path="url(#clip662)" style="stroke:#000000; stroke-width:2; stroke-opacity:0.1; fill:none" points="
  181.32,943.304 2352.76,943.304 
  "/>
<polyline clip-path="url(#clip662)" style="stroke:#000000; stroke-width:2; stroke-opacity:0.1; fill:none" points="
  181.32,724.412 2352.76,724.412 
  "/>
<polyline clip-path="url(#clip662)" style="stroke:#000000; stroke-width:2; stroke-opacity:0.1; fill:none" points="
  181.32,505.52 2352.76,505.52 
  "/>
<polyline clip-path="url(#clip662)" style="stroke:#000000; stroke-width:2; stroke-opacity:0.1; fill:none" points="
  181.32,286.629 2352.76,286.629 
  "/>
<polyline clip-path="url(#clip662)" style="stroke:#000000; stroke-width:2; stroke-opacity:0.1; fill:none" points="
  181.32,67.7371 2352.76,67.7371 
  "/>
<polyline clip-path="url(#clip660)" style="stroke:#000000; stroke-width:4; stroke-opacity:1; fill:none" points="
  181.32,1401.58 2352.76,1401.58 
  "/>
<polyline clip-path="url(#clip660)" style="stroke:#000000; stroke-width:4; stroke-opacity:1; fill:none" points="
  181.32,1401.58 181.32,47.2441 
  "/>
<polyline clip-path="url(#clip660)" style="stroke:#000000; stroke-width:4; stroke-opacity:1; fill:none" points="
  289.673,1401.58 289.673,1385.33 
  "/>
<polyline clip-path="url(#clip660)" style="stroke:#000000; stroke-width:4; stroke-opacity:1; fill:none" points="
  620.881,1401.58 620.881,1385.33 
  "/>
<polyline clip-path="url(#clip660)" style="stroke:#000000; stroke-width:4; stroke-opacity:1; fill:none" points="
  952.088,1401.58 952.088,1385.33 
  "/>
<polyline clip-path="url(#clip660)" style="stroke:#000000; stroke-width:4; stroke-opacity:1; fill:none" points="
  1283.3,1401.58 1283.3,1385.33 
  "/>
<polyline clip-path="url(#clip660)" style="stroke:#000000; stroke-width:4; stroke-opacity:1; fill:none" points="
  1614.5,1401.58 1614.5,1385.33 
  "/>
<polyline clip-path="url(#clip660)" style="stroke:#000000; stroke-width:4; stroke-opacity:1; fill:none" points="
  1945.71,1401.58 1945.71,1385.33 
  "/>
<polyline clip-path="url(#clip660)" style="stroke:#000000; stroke-width:4; stroke-opacity:1; fill:none" points="
  2276.92,1401.58 2276.92,1385.33 
  "/>
<polyline clip-path="url(#clip660)" style="stroke:#000000; stroke-width:4; stroke-opacity:1; fill:none" points="
  181.32,1381.09 207.378,1381.09 
  "/>
<polyline clip-path="url(#clip660)" style="stroke:#000000; stroke-width:4; stroke-opacity:1; fill:none" points="
  181.32,1162.2 207.378,1162.2 
  "/>
<polyline clip-path="url(#clip660)" style="stroke:#000000; stroke-width:4; stroke-opacity:1; fill:none" points="
  181.32,943.304 207.378,943.304 
  "/>
<polyline clip-path="url(#clip660)" style="stroke:#000000; stroke-width:4; stroke-opacity:1; fill:none" points="
  181.32,724.412 207.378,724.412 
  "/>
<polyline clip-path="url(#clip660)" style="stroke:#000000; stroke-width:4; stroke-opacity:1; fill:none" points="
  181.32,505.52 207.378,505.52 
  "/>
<polyline clip-path="url(#clip660)" style="stroke:#000000; stroke-width:4; stroke-opacity:1; fill:none" points="
  181.32,286.629 207.378,286.629 
  "/>
<polyline clip-path="url(#clip660)" style="stroke:#000000; stroke-width:4; stroke-opacity:1; fill:none" points="
  181.32,67.7371 207.378,67.7371 
  "/>
<path clip-path="url(#clip660)" d="M 0 0 M265.396 1446.81 L280.992 1446.81 L280.992 1451.56 L265.396 1451.56 L265.396 1446.81 Z" fill="#000000" fill-rule="evenodd" fill-opacity="1" /><path clip-path="url(#clip660)" d="M 0 0 M305.037 1442.13 Q309.233 1443.02 311.576 1445.86 Q313.949 1448.7 313.949 1452.86 Q313.949 1459.26 309.551 1462.76 Q305.153 1466.26 297.051 1466.26 Q294.331 1466.26 291.438 1465.71 Q288.573 1465.19 285.506 1464.12 L285.506 1458.48 Q287.937 1459.89 290.83 1460.62 Q293.724 1461.34 296.877 1461.34 Q302.375 1461.34 305.24 1459.17 Q308.133 1457 308.133 1452.86 Q308.133 1449.04 305.442 1446.9 Q302.78 1444.73 298.006 1444.73 L292.971 1444.73 L292.971 1439.93 L298.237 1439.93 Q302.549 1439.93 304.835 1438.22 Q307.12 1436.48 307.12 1433.24 Q307.12 1429.92 304.748 1428.15 Q302.404 1426.36 298.006 1426.36 Q295.604 1426.36 292.856 1426.88 Q290.107 1427.4 286.808 1428.5 L286.808 1423.29 Q290.136 1422.36 293.029 1421.9 Q295.952 1421.44 298.527 1421.44 Q305.182 1421.44 309.059 1424.48 Q312.936 1427.49 312.936 1432.64 Q312.936 1436.22 310.882 1438.71 Q308.828 1441.17 305.037 1442.13 Z" fill="#000000" fill-rule="evenodd" fill-opacity="1" /><path clip-path="url(#clip660)" d="M 0 0 M597.197 1446.81 L612.793 1446.81 L612.793 1451.56 L597.197 1451.56 L597.197 1446.81 Z" fill="#000000" fill-rule="evenodd" fill-opacity="1" /><path clip-path="url(#clip660)" d="M 0 0 M624.165 1460.5 L644.564 1460.5 L644.564 1465.42 L617.133 1465.42 L617.133 1460.5 Q620.461 1457.06 626.19 1451.27 Q631.948 1445.45 633.424 1443.78 Q636.231 1440.62 637.33 1438.45 Q638.459 1436.25 638.459 1434.14 Q638.459 1430.7 636.028 1428.53 Q633.626 1426.36 629.749 1426.36 Q627 1426.36 623.933 1427.31 Q620.895 1428.27 617.423 1430.21 L617.423 1424.3 Q620.953 1422.89 624.02 1422.16 Q627.087 1421.44 629.633 1421.44 Q636.346 1421.44 640.339 1424.8 Q644.332 1428.15 644.332 1433.76 Q644.332 1436.43 643.32 1438.83 Q642.336 1441.2 639.703 1444.44 Q638.979 1445.28 635.102 1449.3 Q631.225 1453.3 624.165 1460.5 Z" fill="#000000" fill-rule="evenodd" fill-opacity="1" /><path clip-path="url(#clip660)" d="M 0 0 M928.174 1446.81 L943.77 1446.81 L943.77 1451.56 L928.174 1451.56 L928.174 1446.81 Z" fill="#000000" fill-rule="evenodd" fill-opacity="1" /><path clip-path="url(#clip660)" d="M 0 0 M951.119 1460.5 L960.668 1460.5 L960.668 1427.54 L950.28 1429.63 L950.28 1424.3 L960.61 1422.22 L966.455 1422.22 L966.455 1460.5 L976.003 1460.5 L976.003 1465.42 L951.119 1465.42 L951.119 1460.5 Z" fill="#000000" fill-rule="evenodd" fill-opacity="1" /><path clip-path="url(#clip660)" d="M 0 0 M1283.3 1426.07 Q1278.78 1426.07 1276.5 1430.52 Q1274.24 1434.95 1274.24 1443.86 Q1274.24 1452.75 1276.5 1457.2 Q1278.78 1461.63 1283.3 1461.63 Q1287.84 1461.63 1290.1 1457.2 Q1292.38 1452.75 1292.38 1443.86 Q1292.38 1434.95 1290.1 1430.52 Q1287.84 1426.07 1283.3 1426.07 M1283.3 1421.44 Q1290.56 1421.44 1294.38 1427.2 Q1298.23 1432.93 1298.23 1443.86 Q1298.23 1454.77 1294.38 1460.53 Q1290.56 1466.26 1283.3 1466.26 Q1276.03 1466.26 1272.19 1460.53 Q1268.37 1454.77 1268.37 1443.86 Q1268.37 1432.93 1272.19 1427.2 Q1276.03 1421.44 1283.3 1421.44 Z" fill="#000000" fill-rule="evenodd" fill-opacity="1" /><path clip-path="url(#clip660)" d="M 0 0 M1602.48 1460.5 L1612.03 1460.5 L1612.03 1427.54 L1601.64 1429.63 L1601.64 1424.3 L1611.97 1422.22 L1617.82 1422.22 L1617.82 1460.5 L1627.37 1460.5 L1627.37 1465.42 L1602.48 1465.42 L1602.48 1460.5 Z" fill="#000000" fill-rule="evenodd" fill-opacity="1" /><path clip-path="url(#clip660)" d="M 0 0 M1939.03 1460.5 L1959.43 1460.5 L1959.43 1465.42 L1932 1465.42 L1932 1460.5 Q1935.32 1457.06 1941.05 1451.27 Q1946.81 1445.45 1948.29 1443.78 Q1951.09 1440.62 1952.19 1438.45 Q1953.32 1436.25 1953.32 1434.14 Q1953.32 1430.7 1950.89 1428.53 Q1948.49 1426.36 1944.61 1426.36 Q1941.86 1426.36 1938.8 1427.31 Q1935.76 1428.27 1932.29 1430.21 L1932.29 1424.3 Q1935.82 1422.89 1938.88 1422.16 Q1941.95 1421.44 1944.5 1421.44 Q1951.21 1421.44 1955.2 1424.8 Q1959.2 1428.15 1959.2 1433.76 Q1959.2 1436.43 1958.18 1438.83 Q1957.2 1441.2 1954.57 1444.44 Q1953.84 1445.28 1949.97 1449.3 Q1946.09 1453.3 1939.03 1460.5 Z" fill="#000000" fill-rule="evenodd" fill-opacity="1" /><path clip-path="url(#clip660)" d="M 0 0 M2282.23 1442.13 Q2286.42 1443.02 2288.77 1445.86 Q2291.14 1448.7 2291.14 1452.86 Q2291.14 1459.26 2286.74 1462.76 Q2282.35 1466.26 2274.24 1466.26 Q2271.52 1466.26 2268.63 1465.71 Q2265.77 1465.19 2262.7 1464.12 L2262.7 1458.48 Q2265.13 1459.89 2268.02 1460.62 Q2270.92 1461.34 2274.07 1461.34 Q2279.57 1461.34 2282.43 1459.17 Q2285.33 1457 2285.33 1452.86 Q2285.33 1449.04 2282.63 1446.9 Q2279.97 1444.73 2275.2 1444.73 L2270.16 1444.73 L2270.16 1439.93 L2275.43 1439.93 Q2279.74 1439.93 2282.03 1438.22 Q2284.31 1436.48 2284.31 1433.24 Q2284.31 1429.92 2281.94 1428.15 Q2279.6 1426.36 2275.2 1426.36 Q2272.8 1426.36 2270.05 1426.88 Q2267.3 1427.4 2264 1428.5 L2264 1423.29 Q2267.33 1422.36 2270.22 1421.9 Q2273.14 1421.44 2275.72 1421.44 Q2282.37 1421.44 2286.25 1424.48 Q2290.13 1427.49 2290.13 1432.64 Q2290.13 1436.22 2288.07 1438.71 Q2286.02 1441.17 2282.23 1442.13 Z" fill="#000000" fill-rule="evenodd" fill-opacity="1" /><path clip-path="url(#clip660)" d="M 0 0 M64.5257 1384.08 L80.1217 1384.08 L80.1217 1388.83 L64.5257 1388.83 L64.5257 1384.08 Z" fill="#000000" fill-rule="evenodd" fill-opacity="1" /><path clip-path="url(#clip660)" d="M 0 0 M87.4712 1397.77 L97.0197 1397.77 L97.0197 1364.81 L86.632 1366.89 L86.632 1361.57 L96.9619 1359.49 L102.807 1359.49 L102.807 1397.77 L112.355 1397.77 L112.355 1402.69 L87.4712 1402.69 L87.4712 1397.77 Z" fill="#000000" fill-rule="evenodd" fill-opacity="1" /><path clip-path="url(#clip660)" d="M 0 0 M118.692 1395.34 L124.797 1395.34 L124.797 1402.69 L118.692 1402.69 L118.692 1395.34 Z" fill="#000000" fill-rule="evenodd" fill-opacity="1" /><path clip-path="url(#clip660)" d="M 0 0 M131.192 1359.49 L154.137 1359.49 L154.137 1364.41 L136.545 1364.41 L136.545 1375 Q137.818 1374.56 139.091 1374.36 Q140.364 1374.13 141.638 1374.13 Q148.871 1374.13 153.096 1378.09 Q157.32 1382.06 157.32 1388.83 Q157.32 1395.8 152.98 1399.68 Q148.64 1403.53 140.741 1403.53 Q138.021 1403.53 135.185 1403.06 Q132.378 1402.6 129.369 1401.67 L129.369 1395.8 Q131.973 1397.22 134.751 1397.91 Q137.529 1398.61 140.625 1398.61 Q145.631 1398.61 148.553 1395.97 Q151.475 1393.34 151.475 1388.83 Q151.475 1384.31 148.553 1381.68 Q145.631 1379.05 140.625 1379.05 Q138.281 1379.05 135.937 1379.57 Q133.623 1380.09 131.192 1381.19 L131.192 1359.49 Z" fill="#000000" fill-rule="evenodd" fill-opacity="1" /><path clip-path="url(#clip660)" d="M 0 0 M63.2815 1165.19 L78.8775 1165.19 L78.8775 1169.94 L63.2815 1169.94 L63.2815 1165.19 Z" fill="#000000" fill-rule="evenodd" fill-opacity="1" /><path clip-path="url(#clip660)" d="M 0 0 M86.227 1178.88 L95.7755 1178.88 L95.7755 1145.92 L85.3878 1148 L85.3878 1142.68 L95.7176 1140.6 L101.563 1140.6 L101.563 1178.88 L111.111 1178.88 L111.111 1183.8 L86.227 1183.8 L86.227 1178.88 Z" fill="#000000" fill-rule="evenodd" fill-opacity="1" /><path clip-path="url(#clip660)" d="M 0 0 M117.448 1176.45 L123.553 1176.45 L123.553 1183.8 L117.448 1183.8 L117.448 1176.45 Z" fill="#000000" fill-rule="evenodd" fill-opacity="1" /><path clip-path="url(#clip660)" d="M 0 0 M142.39 1144.44 Q137.876 1144.44 135.59 1148.9 Q133.333 1153.33 133.333 1162.24 Q133.333 1171.12 135.59 1175.58 Q137.876 1180 142.39 1180 Q146.933 1180 149.19 1175.58 Q151.475 1171.12 151.475 1162.24 Q151.475 1153.33 149.19 1148.9 Q146.933 1144.44 142.39 1144.44 M142.39 1139.81 Q149.653 1139.81 153.472 1145.57 Q157.32 1151.3 157.32 1162.24 Q157.32 1173.15 153.472 1178.91 Q149.653 1184.63 142.39 1184.63 Q135.127 1184.63 131.279 1178.91 Q127.459 1173.15 127.459 1162.24 Q127.459 1151.3 131.279 1145.57 Q135.127 1139.81 142.39 1139.81 Z" fill="#000000" fill-rule="evenodd" fill-opacity="1" /><path clip-path="url(#clip660)" d="M 0 0 M62.9921 946.298 L78.5881 946.298 L78.5881 951.044 L62.9921 951.044 L62.9921 946.298 Z" fill="#000000" fill-rule="evenodd" fill-opacity="1" /><path clip-path="url(#clip660)" d="M 0 0 M97.4248 925.552 Q92.9109 925.552 90.6251 930.008 Q88.3681 934.435 88.3681 943.347 Q88.3681 952.23 90.6251 956.686 Q92.9109 961.113 97.4248 961.113 Q101.968 961.113 104.225 956.686 Q106.51 952.23 106.51 943.347 Q106.51 934.435 104.225 930.008 Q101.968 925.552 97.4248 925.552 M97.4248 920.922 Q104.688 920.922 108.507 926.68 Q112.355 932.41 112.355 943.347 Q112.355 954.256 108.507 960.014 Q104.688 965.743 97.4248 965.743 Q90.1621 965.743 86.3138 960.014 Q82.4943 954.256 82.4943 943.347 Q82.4943 932.41 86.3138 926.68 Q90.1621 920.922 97.4248 920.922 Z" fill="#000000" fill-rule="evenodd" fill-opacity="1" /><path clip-path="url(#clip660)" d="M 0 0 M118.692 957.554 L124.797 957.554 L124.797 964.904 L118.692 964.904 L118.692 957.554 Z" fill="#000000" fill-rule="evenodd" fill-opacity="1" /><path clip-path="url(#clip660)" d="M 0 0 M131.192 921.704 L154.137 921.704 L154.137 926.623 L136.545 926.623 L136.545 937.213 Q137.818 936.779 139.091 936.576 Q140.364 936.345 141.638 936.345 Q148.871 936.345 153.096 940.309 Q157.32 944.273 157.32 951.044 Q157.32 958.017 152.98 961.894 Q148.64 965.743 140.741 965.743 Q138.021 965.743 135.185 965.28 Q132.378 964.817 129.369 963.891 L129.369 958.017 Q131.973 959.435 134.751 960.129 Q137.529 960.824 140.625 960.824 Q145.631 960.824 148.553 958.191 Q151.475 955.558 151.475 951.044 Q151.475 946.53 148.553 943.897 Q145.631 941.264 140.625 941.264 Q138.281 941.264 135.937 941.785 Q133.623 942.305 131.192 943.405 L131.192 921.704 Z" fill="#000000" fill-rule="evenodd" fill-opacity="1" /><path clip-path="url(#clip660)" d="M 0 0 M96.1806 706.66 Q91.6667 706.66 89.3809 711.116 Q87.1239 715.543 87.1239 724.455 Q87.1239 733.338 89.3809 737.794 Q91.6667 742.221 96.1806 742.221 Q100.723 742.221 102.98 737.794 Q105.266 733.338 105.266 724.455 Q105.266 715.543 102.98 711.116 Q100.723 706.66 96.1806 706.66 M96.1806 702.031 Q103.443 702.031 107.263 707.789 Q111.111 713.518 111.111 724.455 Q111.111 735.364 107.263 741.122 Q103.443 746.851 96.1806 746.851 Q88.9179 746.851 85.0696 741.122 Q81.2501 735.364 81.2501 724.455 Q81.2501 713.518 85.0696 707.789 Q88.9179 702.031 96.1806 702.031 Z" fill="#000000" fill-rule="evenodd" fill-opacity="1" /><path clip-path="url(#clip660)" d="M 0 0 M117.448 738.662 L123.553 738.662 L123.553 746.012 L117.448 746.012 L117.448 738.662 Z" fill="#000000" fill-rule="evenodd" fill-opacity="1" /><path clip-path="url(#clip660)" d="M 0 0 M142.39 706.66 Q137.876 706.66 135.59 711.116 Q133.333 715.543 133.333 724.455 Q133.333 733.338 135.59 737.794 Q137.876 742.221 142.39 742.221 Q146.933 742.221 149.19 737.794 Q151.475 733.338 151.475 724.455 Q151.475 715.543 149.19 711.116 Q146.933 706.66 142.39 706.66 M142.39 702.031 Q149.653 702.031 153.472 707.789 Q157.32 713.518 157.32 724.455 Q157.32 735.364 153.472 741.122 Q149.653 746.851 142.39 746.851 Q135.127 746.851 131.279 741.122 Q127.459 735.364 127.459 724.455 Q127.459 713.518 131.279 707.789 Q135.127 702.031 142.39 702.031 Z" fill="#000000" fill-rule="evenodd" fill-opacity="1" /><path clip-path="url(#clip660)" d="M 0 0 M97.4248 487.769 Q92.9109 487.769 90.6251 492.225 Q88.3681 496.652 88.3681 505.564 Q88.3681 514.447 90.6251 518.903 Q92.9109 523.33 97.4248 523.33 Q101.968 523.33 104.225 518.903 Q106.51 514.447 106.51 505.564 Q106.51 496.652 104.225 492.225 Q101.968 487.769 97.4248 487.769 M97.4248 483.139 Q104.688 483.139 108.507 488.897 Q112.355 494.626 112.355 505.564 Q112.355 516.472 108.507 522.23 Q104.688 527.959 97.4248 527.959 Q90.1621 527.959 86.3138 522.23 Q82.4943 516.472 82.4943 505.564 Q82.4943 494.626 86.3138 488.897 Q90.1621 483.139 97.4248 483.139 Z" fill="#000000" fill-rule="evenodd" fill-opacity="1" /><path clip-path="url(#clip660)" d="M 0 0 M118.692 519.771 L124.797 519.771 L124.797 527.12 L118.692 527.12 L118.692 519.771 Z" fill="#000000" fill-rule="evenodd" fill-opacity="1" /><path clip-path="url(#clip660)" d="M 0 0 M131.192 483.92 L154.137 483.92 L154.137 488.839 L136.545 488.839 L136.545 499.43 Q137.818 498.995 139.091 498.793 Q140.364 498.561 141.638 498.561 Q148.871 498.561 153.096 502.526 Q157.32 506.49 157.32 513.26 Q157.32 520.234 152.98 524.111 Q148.64 527.959 140.741 527.959 Q138.021 527.959 135.185 527.496 Q132.378 527.034 129.369 526.108 L129.369 520.234 Q131.973 521.652 134.751 522.346 Q137.529 523.04 140.625 523.04 Q145.631 523.04 148.553 520.407 Q151.475 517.774 151.475 513.26 Q151.475 508.747 148.553 506.114 Q145.631 503.48 140.625 503.48 Q138.281 503.48 135.937 504.001 Q133.623 504.522 131.192 505.622 L131.192 483.92 Z" fill="#000000" fill-rule="evenodd" fill-opacity="1" /><path clip-path="url(#clip660)" d="M 0 0 M86.227 303.31 L95.7755 303.31 L95.7755 270.353 L85.3878 272.436 L85.3878 267.112 L95.7176 265.029 L101.563 265.029 L101.563 303.31 L111.111 303.31 L111.111 308.229 L86.227 308.229 L86.227 303.31 Z" fill="#000000" fill-rule="evenodd" fill-opacity="1" /><path clip-path="url(#clip660)" d="M 0 0 M117.448 300.879 L123.553 300.879 L123.553 308.229 L117.448 308.229 L117.448 300.879 Z" fill="#000000" fill-rule="evenodd" fill-opacity="1" /><path clip-path="url(#clip660)" d="M 0 0 M142.39 268.877 Q137.876 268.877 135.59 273.333 Q133.333 277.76 133.333 286.672 Q133.333 295.555 135.59 300.011 Q137.876 304.438 142.39 304.438 Q146.933 304.438 149.19 300.011 Q151.475 295.555 151.475 286.672 Q151.475 277.76 149.19 273.333 Q146.933 268.877 142.39 268.877 M142.39 264.247 Q149.653 264.247 153.472 270.006 Q157.32 275.735 157.32 286.672 Q157.32 297.581 153.472 303.339 Q149.653 309.068 142.39 309.068 Q135.127 309.068 131.279 303.339 Q127.459 297.581 127.459 286.672 Q127.459 275.735 131.279 270.006 Q135.127 264.247 142.39 264.247 Z" fill="#000000" fill-rule="evenodd" fill-opacity="1" /><path clip-path="url(#clip660)" d="M 0 0 M87.4712 84.4181 L97.0197 84.4181 L97.0197 51.4611 L86.632 53.5444 L86.632 48.2204 L96.9619 46.1371 L102.807 46.1371 L102.807 84.4181 L112.355 84.4181 L112.355 89.3371 L87.4712 89.3371 L87.4712 84.4181 Z" fill="#000000" fill-rule="evenodd" fill-opacity="1" /><path clip-path="url(#clip660)" d="M 0 0 M118.692 81.9876 L124.797 81.9876 L124.797 89.3371 L118.692 89.3371 L118.692 81.9876 Z" fill="#000000" fill-rule="evenodd" fill-opacity="1" /><path clip-path="url(#clip660)" d="M 0 0 M131.192 46.1371 L154.137 46.1371 L154.137 51.056 L136.545 51.056 L136.545 61.6462 Q137.818 61.2122 139.091 61.0097 Q140.364 60.7782 141.638 60.7782 Q148.871 60.7782 153.096 64.7423 Q157.32 68.7064 157.32 75.4772 Q157.32 82.4505 152.98 86.3278 Q148.64 90.1762 140.741 90.1762 Q138.021 90.1762 135.185 89.7132 Q132.378 89.2503 129.369 88.3243 L129.369 82.4505 Q131.973 83.8683 134.751 84.5628 Q137.529 85.2572 140.625 85.2572 Q145.631 85.2572 148.553 82.6241 Q151.475 79.9911 151.475 75.4772 Q151.475 70.9633 148.553 68.3302 Q145.631 65.6971 140.625 65.6971 Q138.281 65.6971 135.937 66.218 Q133.623 66.7388 131.192 67.8383 L131.192 46.1371 Z" fill="#000000" fill-rule="evenodd" fill-opacity="1" /><path clip-path="url(#clip660)" d="M 0 0 M1288.18 1517.59 L1271.78 1539.66 L1289.03 1562.96 L1280.24 1562.96 L1267.04 1545.13 L1253.83 1562.96 L1245.04 1562.96 L1262.66 1539.22 L1246.54 1517.59 L1255.33 1517.59 L1267.36 1533.75 L1279.39 1517.59 L1288.18 1517.59 Z" fill="#000000" fill-rule="evenodd" fill-opacity="1" /><polyline clip-path="url(#clip662)" style="stroke:#009af9; stroke-width:8; stroke-opacity:1; fill:none" points="
  242.776,943.304 275.292,832.05 307.809,678.489 340.325,502.648 372.841,331.086 405.357,191.203 437.874,105.267 470.39,85.5744 502.906,131.849 535.422,231.5 
  567.939,362.657 600.455,499.272 632.971,617.082 665.487,699.03 698.004,738.881 730.52,742.189 763.036,724.412 795.552,706.634 828.069,709.943 860.585,749.794 
  893.101,831.742 925.617,949.552 958.134,1086.17 990.65,1217.32 1023.17,1316.97 1055.68,1363.25 1088.2,1343.56 1120.71,1257.62 1153.23,1117.74 1185.75,946.176 
  1218.26,770.335 1250.78,616.774 1283.3,505.52 1315.81,445.96 1348.33,435.27 1380.85,459.737 1413.36,498.619 1445.88,529.614 1478.39,534.639 1510.91,504.507 
  1543.43,441.408 1575.94,358.581 1608.46,277.249 1640.98,221.545 1673.49,212.623 1706.01,263.355 1738.52,374.878 1771.04,535.82 1803.56,724.412 1836.07,913.004 
  1868.59,1073.95 1901.11,1185.47 1933.62,1236.2 1966.14,1227.28 1998.65,1171.57 2031.17,1090.24 2063.69,1007.42 2096.2,944.317 2128.72,914.185 2161.24,919.21 
  2193.75,950.205 2226.27,989.086 2258.78,1013.55 2291.3,1002.86 
  "/>
<path clip-path="url(#clip660)" d="
M2011.96 243.589 L2280.37 243.589 L2280.37 92.3886 L2011.96 92.3886  Z
  " fill="#ffffff" fill-rule="evenodd" fill-opacity="1"/>
<polyline clip-path="url(#clip660)" style="stroke:#000000; stroke-width:4; stroke-opacity:1; fill:none" points="
  2011.96,243.589 2280.37,243.589 2280.37,92.3886 2011.96,92.3886 2011.96,243.589 
  "/>
<polyline clip-path="url(#clip660)" style="stroke:#009af9; stroke-width:5; stroke-opacity:1; fill:none" points="
  2036.09,167.989 2180.85,167.989 
  "/>
<path clip-path="url(#clip660)" d="M 0 0 M2204.98 176.799 L2204.98 157.181 L2210.3 157.181 L2210.3 176.597 Q2210.3 181.197 2212.1 183.512 Q2213.89 185.798 2217.48 185.798 Q2221.79 185.798 2224.28 183.049 Q2226.8 180.3 2226.8 175.555 L2226.8 157.181 L2232.12 157.181 L2232.12 189.589 L2226.8 189.589 L2226.8 184.612 Q2224.86 187.563 2222.28 189.01 Q2219.74 190.428 2216.35 190.428 Q2210.77 190.428 2207.87 186.956 Q2204.98 183.483 2204.98 176.799 M2218.38 156.4 L2218.38 156.4 Z" fill="#000000" fill-rule="evenodd" fill-opacity="1" /></svg>
