<?xml version="1.0" encoding="utf-8"?>
<svg xmlns="http://www.w3.org/2000/svg" xmlns:xlink="http://www.w3.org/1999/xlink" width="600" height="400" viewBox="0 0 2400 1600">
<defs>
  <clipPath id="clip920">
    <rect x="0" y="0" width="2400" height="1600"/>
  </clipPath>
</defs>
<path clip-path="url(#clip920)" d="
M0 1600 L2400 1600 L2400 0 L0 0  Z
  " fill="#ffffff" fill-rule="evenodd" fill-opacity="1"/>
<defs>
  <clipPath id="clip921">
    <rect x="480" y="0" width="1681" height="1600"/>
  </clipPath>
</defs>
<path clip-path="url(#clip920)" d="
M287.512 1345.42 L2352.76 1345.42 L2352.76 183.952 L287.512 183.952  Z
  " fill="#ffffff" fill-rule="evenodd" fill-opacity="1"/>
<defs>
  <clipPath id="clip922">
    <rect x="287" y="183" width="2066" height="1162"/>
  </clipPath>
</defs>
<polyline clip-path="url(#clip922)" style="stroke:#000000; stroke-linecap:butt; stroke-linejoin:round; stroke-width:2; stroke-opacity:0.1; fill:none" points="
  345.962,1345.42 345.962,183.952 
  "/>
<polyline clip-path="url(#clip922)" style="stroke:#000000; stroke-linecap:butt; stroke-linejoin:round; stroke-width:2; stroke-opacity:0.1; fill:none" points="
  833.048,1345.42 833.048,183.952 
  "/>
<polyline clip-path="url(#clip922)" style="stroke:#000000; stroke-linecap:butt; stroke-linejoin:round; stroke-width:2; stroke-opacity:0.1; fill:none" points="
  1320.13,1345.42 1320.13,183.952 
  "/>
<polyline clip-path="url(#clip922)" style="stroke:#000000; stroke-linecap:butt; stroke-linejoin:round; stroke-width:2; stroke-opacity:0.1; fill:none" points="
  1807.22,1345.42 1807.22,183.952 
  "/>
<polyline clip-path="url(#clip922)" style="stroke:#000000; stroke-linecap:butt; stroke-linejoin:round; stroke-width:2; stroke-opacity:0.1; fill:none" points="
  2294.31,1345.42 2294.31,183.952 
  "/>
<polyline clip-path="url(#clip920)" style="stroke:#000000; stroke-linecap:butt; stroke-linejoin:round; stroke-width:4; stroke-opacity:1; fill:none" points="
  287.512,1345.42 2352.76,1345.42 
  "/>
<polyline clip-path="url(#clip920)" style="stroke:#000000; stroke-linecap:butt; stroke-linejoin:round; stroke-width:4; stroke-opacity:1; fill:none" points="
  345.962,1345.42 345.962,1326.52 
  "/>
<polyline clip-path="url(#clip920)" style="stroke:#000000; stroke-linecap:butt; stroke-linejoin:round; stroke-width:4; stroke-opacity:1; fill:none" points="
  833.048,1345.42 833.048,1326.52 
  "/>
<polyline clip-path="url(#clip920)" style="stroke:#000000; stroke-linecap:butt; stroke-linejoin:round; stroke-width:4; stroke-opacity:1; fill:none" points="
  1320.13,1345.42 1320.13,1326.52 
  "/>
<polyline clip-path="url(#clip920)" style="stroke:#000000; stroke-linecap:butt; stroke-linejoin:round; stroke-width:4; stroke-opacity:1; fill:none" points="
  1807.22,1345.42 1807.22,1326.52 
  "/>
<polyline clip-path="url(#clip920)" style="stroke:#000000; stroke-linecap:butt; stroke-linejoin:round; stroke-width:4; stroke-opacity:1; fill:none" points="
  2294.31,1345.42 2294.31,1326.52 
  "/>
<path clip-path="url(#clip920)" d="M245.702 1410.83 L301.344 1410.83 L301.344 1418.2 L245.702 1418.2 L245.702 1410.83 Z" fill="#000000" fill-rule="evenodd" fill-opacity="1" /><path clip-path="url(#clip920)" d="M321.787 1435 L336.11 1435 L336.11 1385.57 L320.528 1388.69 L320.528 1380.7 L336.023 1377.58 L344.79 1377.58 L344.79 1435 L359.113 1435 L359.113 1442.38 L321.787 1442.38 L321.787 1435 Z" fill="#000000" fill-rule="evenodd" fill-opacity="1" /><path clip-path="url(#clip920)" d="M376.821 1431.36 L385.979 1431.36 L385.979 1442.38 L376.821 1442.38 L376.821 1431.36 Z" fill="#000000" fill-rule="evenodd" fill-opacity="1" /><path clip-path="url(#clip920)" d="M423.826 1383.35 Q417.056 1383.35 413.627 1390.04 Q410.241 1396.68 410.241 1410.04 Q410.241 1423.37 413.627 1430.05 Q417.056 1436.69 423.826 1436.69 Q430.641 1436.69 434.026 1430.05 Q437.455 1423.37 437.455 1410.04 Q437.455 1396.68 434.026 1390.04 Q430.641 1383.35 423.826 1383.35 M423.826 1376.41 Q434.72 1376.41 440.45 1385.05 Q446.222 1393.64 446.222 1410.04 Q446.222 1426.41 440.45 1435.04 Q434.72 1443.64 423.826 1443.64 Q412.932 1443.64 407.16 1435.04 Q401.431 1426.41 401.431 1410.04 Q401.431 1393.64 407.16 1385.05 Q412.932 1376.41 423.826 1376.41 Z" fill="#000000" fill-rule="evenodd" fill-opacity="1" /><path clip-path="url(#clip920)" d="M733.721 1410.83 L789.363 1410.83 L789.363 1418.2 L733.721 1418.2 L733.721 1410.83 Z" fill="#000000" fill-rule="evenodd" fill-opacity="1" /><path clip-path="url(#clip920)" d="M827.037 1383.35 Q820.266 1383.35 816.837 1390.04 Q813.452 1396.68 813.452 1410.04 Q813.452 1423.37 816.837 1430.05 Q820.266 1436.69 827.037 1436.69 Q833.851 1436.69 837.236 1430.05 Q840.665 1423.37 840.665 1410.04 Q840.665 1396.68 837.236 1390.04 Q833.851 1383.35 827.037 1383.35 M827.037 1376.41 Q837.931 1376.41 843.66 1385.05 Q849.433 1393.64 849.433 1410.04 Q849.433 1426.41 843.66 1435.04 Q837.931 1443.64 827.037 1443.64 Q816.143 1443.64 810.37 1435.04 Q804.641 1426.41 804.641 1410.04 Q804.641 1393.64 810.37 1385.05 Q816.143 1376.41 827.037 1376.41 Z" fill="#000000" fill-rule="evenodd" fill-opacity="1" /><path clip-path="url(#clip920)" d="M864.84 1431.36 L873.998 1431.36 L873.998 1442.38 L864.84 1442.38 L864.84 1431.36 Z" fill="#000000" fill-rule="evenodd" fill-opacity="1" /><path clip-path="url(#clip920)" d="M893.182 1377.58 L927.6 1377.58 L927.6 1384.96 L901.212 1384.96 L901.212 1400.84 Q903.121 1400.19 905.031 1399.89 Q906.941 1399.54 908.851 1399.54 Q919.701 1399.54 926.038 1405.49 Q932.375 1411.43 932.375 1421.59 Q932.375 1432.05 925.864 1437.87 Q919.354 1443.64 907.505 1443.64 Q903.425 1443.64 899.172 1442.94 Q894.962 1442.25 890.448 1440.86 L890.448 1432.05 Q894.354 1434.18 898.521 1435.22 Q902.687 1436.26 907.331 1436.26 Q914.84 1436.26 919.224 1432.31 Q923.607 1428.36 923.607 1421.59 Q923.607 1414.82 919.224 1410.87 Q914.84 1406.92 907.331 1406.92 Q903.816 1406.92 900.3 1407.7 Q896.828 1408.48 893.182 1410.13 L893.182 1377.58 Z" fill="#000000" fill-rule="evenodd" fill-opacity="1" /><path clip-path="url(#clip920)" d="M1277.73 1383.35 Q1270.96 1383.35 1267.53 1390.04 Q1264.14 1396.68 1264.14 1410.04 Q1264.14 1423.37 1267.53 1430.05 Q1270.96 1436.69 1277.73 1436.69 Q1284.54 1436.69 1287.93 1430.05 Q1291.36 1423.37 1291.36 1410.04 Q1291.36 1396.68 1287.93 1390.04 Q1284.54 1383.35 1277.73 1383.35 M1277.73 1376.41 Q1288.62 1376.41 1294.35 1385.05 Q1300.13 1393.64 1300.13 1410.04 Q1300.13 1426.41 1294.35 1435.04 Q1288.62 1443.64 1277.73 1443.64 Q1266.84 1443.64 1261.06 1435.04 Q1255.33 1426.41 1255.33 1410.04 Q1255.33 1393.64 1261.06 1385.05 Q1266.84 1376.41 1277.73 1376.41 Z" fill="#000000" fill-rule="evenodd" fill-opacity="1" /><path clip-path="url(#clip920)" d="M1315.53 1431.36 L1324.69 1431.36 L1324.69 1442.38 L1315.53 1442.38 L1315.53 1431.36 Z" fill="#000000" fill-rule="evenodd" fill-opacity="1" /><path clip-path="url(#clip920)" d="M1362.54 1383.35 Q1355.77 1383.35 1352.34 1390.04 Q1348.95 1396.68 1348.95 1410.04 Q1348.95 1423.37 1352.34 1430.05 Q1355.77 1436.69 1362.54 1436.69 Q1369.35 1436.69 1372.74 1430.05 Q1376.17 1423.37 1376.17 1410.04 Q1376.17 1396.68 1372.74 1390.04 Q1369.35 1383.35 1362.54 1383.35 M1362.54 1376.41 Q1373.43 1376.41 1379.16 1385.05 Q1384.93 1393.64 1384.93 1410.04 Q1384.93 1426.41 1379.16 1435.04 Q1373.43 1443.64 1362.54 1443.64 Q1351.64 1443.64 1345.87 1435.04 Q1340.14 1426.41 1340.14 1410.04 Q1340.14 1393.64 1345.87 1385.05 Q1351.64 1376.41 1362.54 1376.41 Z" fill="#000000" fill-rule="evenodd" fill-opacity="1" /><path clip-path="url(#clip920)" d="M1765.75 1383.35 Q1758.98 1383.35 1755.55 1390.04 Q1752.16 1396.68 1752.16 1410.04 Q1752.16 1423.37 1755.55 1430.05 Q1758.98 1436.69 1765.75 1436.69 Q1772.56 1436.69 1775.95 1430.05 Q1779.38 1423.37 1779.38 1410.04 Q1779.38 1396.68 1775.95 1390.04 Q1772.56 1383.35 1765.75 1383.35 M1765.75 1376.41 Q1776.64 1376.41 1782.37 1385.05 Q1788.14 1393.64 1788.14 1410.04 Q1788.14 1426.41 1782.37 1435.04 Q1776.64 1443.64 1765.75 1443.64 Q1754.85 1443.64 1749.08 1435.04 Q1743.35 1426.41 1743.35 1410.04 Q1743.35 1393.64 1749.08 1385.05 Q1754.85 1376.41 1765.75 1376.41 Z" fill="#000000" fill-rule="evenodd" fill-opacity="1" /><path clip-path="url(#clip920)" d="M1803.55 1431.36 L1812.71 1431.36 L1812.71 1442.38 L1803.55 1442.38 L1803.55 1431.36 Z" fill="#000000" fill-rule="evenodd" fill-opacity="1" /><path clip-path="url(#clip920)" d="M1831.89 1377.58 L1866.31 1377.58 L1866.31 1384.96 L1839.92 1384.96 L1839.92 1400.84 Q1841.83 1400.19 1843.74 1399.89 Q1845.65 1399.54 1847.56 1399.54 Q1858.41 1399.54 1864.75 1405.49 Q1871.09 1411.43 1871.09 1421.59 Q1871.09 1432.05 1864.58 1437.87 Q1858.07 1443.64 1846.22 1443.64 Q1842.14 1443.64 1837.88 1442.94 Q1833.67 1442.25 1829.16 1440.86 L1829.16 1432.05 Q1833.07 1434.18 1837.23 1435.22 Q1841.4 1436.26 1846.04 1436.26 Q1853.55 1436.26 1857.94 1432.31 Q1862.32 1428.36 1862.32 1421.59 Q1862.32 1414.82 1857.94 1410.87 Q1853.55 1406.92 1846.04 1406.92 Q1842.53 1406.92 1839.01 1407.7 Q1835.54 1408.48 1831.89 1410.13 L1831.89 1377.58 Z" fill="#000000" fill-rule="evenodd" fill-opacity="1" /><path clip-path="url(#clip920)" d="M2232.72 1435 L2247.04 1435 L2247.04 1385.57 L2231.46 1388.69 L2231.46 1380.7 L2246.95 1377.58 L2255.72 1377.58 L2255.72 1435 L2270.04 1435 L2270.04 1442.38 L2232.72 1442.38 L2232.72 1435 Z" fill="#000000" fill-rule="evenodd" fill-opacity="1" /><path clip-path="url(#clip920)" d="M2287.75 1431.36 L2296.91 1431.36 L2296.91 1442.38 L2287.75 1442.38 L2287.75 1431.36 Z" fill="#000000" fill-rule="evenodd" fill-opacity="1" /><path clip-path="url(#clip920)" d="M2334.76 1383.35 Q2327.99 1383.35 2324.56 1390.04 Q2321.17 1396.68 2321.17 1410.04 Q2321.17 1423.37 2324.56 1430.05 Q2327.99 1436.69 2334.76 1436.69 Q2341.57 1436.69 2344.96 1430.05 Q2348.39 1423.37 2348.39 1410.04 Q2348.39 1396.68 2344.96 1390.04 Q2341.57 1383.35 2334.76 1383.35 M2334.76 1376.41 Q2345.65 1376.41 2351.38 1385.05 Q2357.15 1393.64 2357.15 1410.04 Q2357.15 1426.41 2351.38 1435.04 Q2345.65 1443.64 2334.76 1443.64 Q2323.86 1443.64 2318.09 1435.04 Q2312.36 1426.41 2312.36 1410.04 Q2312.36 1393.64 2318.09 1385.05 Q2323.86 1376.41 2334.76 1376.41 Z" fill="#000000" fill-rule="evenodd" fill-opacity="1" /><path clip-path="url(#clip920)" d="M1353.36 1521.37 L1327.58 1556.07 L1354.7 1592.67 L1340.89 1592.67 L1320.13 1564.66 L1299.38 1592.67 L1285.57 1592.67 L1313.26 1555.36 L1287.92 1521.37 L1301.74 1521.37 L1320.64 1546.77 L1339.55 1521.37 L1353.36 1521.37 Z" fill="#000000" fill-rule="evenodd" fill-opacity="1" /><polyline clip-path="url(#clip922)" style="stroke:#000000; stroke-linecap:butt; stroke-linejoin:round; stroke-width:2; stroke-opacity:0.1; fill:none" points="
  287.512,1312.55 2352.76,1312.55 
  "/>
<polyline clip-path="url(#clip922)" style="stroke:#000000; stroke-linecap:butt; stroke-linejoin:round; stroke-width:2; stroke-opacity:0.1; fill:none" points="
  287.512,1038.6 2352.76,1038.6 
  "/>
<polyline clip-path="url(#clip922)" style="stroke:#000000; stroke-linecap:butt; stroke-linejoin:round; stroke-width:2; stroke-opacity:0.1; fill:none" points="
  287.512,764.653 2352.76,764.653 
  "/>
<polyline clip-path="url(#clip922)" style="stroke:#000000; stroke-linecap:butt; stroke-linejoin:round; stroke-width:2; stroke-opacity:0.1; fill:none" points="
  287.512,490.706 2352.76,490.706 
  "/>
<polyline clip-path="url(#clip922)" style="stroke:#000000; stroke-linecap:butt; stroke-linejoin:round; stroke-width:2; stroke-opacity:0.1; fill:none" points="
  287.512,216.758 2352.76,216.758 
  "/>
<polyline clip-path="url(#clip920)" style="stroke:#000000; stroke-linecap:butt; stroke-linejoin:round; stroke-width:4; stroke-opacity:1; fill:none" points="
  287.512,1345.42 287.512,183.952 
  "/>
<polyline clip-path="url(#clip920)" style="stroke:#000000; stroke-linecap:butt; stroke-linejoin:round; stroke-width:4; stroke-opacity:1; fill:none" points="
  287.512,1312.55 306.41,1312.55 
  "/>
<polyline clip-path="url(#clip920)" style="stroke:#000000; stroke-linecap:butt; stroke-linejoin:round; stroke-width:4; stroke-opacity:1; fill:none" points="
  287.512,1038.6 306.41,1038.6 
  "/>
<polyline clip-path="url(#clip920)" style="stroke:#000000; stroke-linecap:butt; stroke-linejoin:round; stroke-width:4; stroke-opacity:1; fill:none" points="
  287.512,764.653 306.41,764.653 
  "/>
<polyline clip-path="url(#clip920)" style="stroke:#000000; stroke-linecap:butt; stroke-linejoin:round; stroke-width:4; stroke-opacity:1; fill:none" points="
  287.512,490.706 306.41,490.706 
  "/>
<polyline clip-path="url(#clip920)" style="stroke:#000000; stroke-linecap:butt; stroke-linejoin:round; stroke-width:4; stroke-opacity:1; fill:none" points="
  287.512,216.758 306.41,216.758 
  "/>
<path clip-path="url(#clip920)" d="M50.9921 1313.39 L106.634 1313.39 L106.634 1320.77 L50.9921 1320.77 L50.9921 1313.39 Z" fill="#000000" fill-rule="evenodd" fill-opacity="1" /><path clip-path="url(#clip920)" d="M127.077 1337.57 L141.4 1337.57 L141.4 1288.13 L125.818 1291.26 L125.818 1283.27 L141.313 1280.15 L150.08 1280.15 L150.08 1337.57 L164.403 1337.57 L164.403 1344.95 L127.077 1344.95 L127.077 1337.57 Z" fill="#000000" fill-rule="evenodd" fill-opacity="1" /><path clip-path="url(#clip920)" d="M182.111 1333.92 L191.269 1333.92 L191.269 1344.95 L182.111 1344.95 L182.111 1333.92 Z" fill="#000000" fill-rule="evenodd" fill-opacity="1" /><path clip-path="url(#clip920)" d="M229.116 1285.92 Q222.345 1285.92 218.917 1292.6 Q215.531 1299.25 215.531 1312.61 Q215.531 1325.94 218.917 1332.62 Q222.345 1339.26 229.116 1339.26 Q235.93 1339.26 239.316 1332.62 Q242.745 1325.94 242.745 1312.61 Q242.745 1299.25 239.316 1292.6 Q235.93 1285.92 229.116 1285.92 M229.116 1278.98 Q240.01 1278.98 245.739 1287.61 Q251.512 1296.21 251.512 1312.61 Q251.512 1328.98 245.739 1337.61 Q240.01 1346.21 229.116 1346.21 Q218.222 1346.21 212.45 1337.61 Q206.72 1328.98 206.72 1312.61 Q206.72 1296.21 212.45 1287.61 Q218.222 1278.98 229.116 1278.98 Z" fill="#000000" fill-rule="evenodd" fill-opacity="1" /><path clip-path="url(#clip920)" d="M52.8584 1039.45 L108.5 1039.45 L108.5 1046.83 L52.8584 1046.83 L52.8584 1039.45 Z" fill="#000000" fill-rule="evenodd" fill-opacity="1" /><path clip-path="url(#clip920)" d="M146.174 1011.97 Q139.403 1011.97 135.974 1018.66 Q132.589 1025.3 132.589 1038.67 Q132.589 1051.99 135.974 1058.67 Q139.403 1065.31 146.174 1065.31 Q152.988 1065.31 156.374 1058.67 Q159.802 1051.99 159.802 1038.67 Q159.802 1025.3 156.374 1018.66 Q152.988 1011.97 146.174 1011.97 M146.174 1005.03 Q157.068 1005.03 162.797 1013.67 Q168.57 1022.26 168.57 1038.67 Q168.57 1055.03 162.797 1063.67 Q157.068 1072.26 146.174 1072.26 Q135.28 1072.26 129.507 1063.67 Q123.778 1055.03 123.778 1038.67 Q123.778 1022.26 129.507 1013.67 Q135.28 1005.03 146.174 1005.03 Z" fill="#000000" fill-rule="evenodd" fill-opacity="1" /><path clip-path="url(#clip920)" d="M183.978 1059.98 L193.135 1059.98 L193.135 1071 L183.978 1071 L183.978 1059.98 Z" fill="#000000" fill-rule="evenodd" fill-opacity="1" /><path clip-path="url(#clip920)" d="M212.319 1006.2 L246.738 1006.2 L246.738 1013.58 L220.349 1013.58 L220.349 1029.46 Q222.259 1028.81 224.168 1028.51 Q226.078 1028.16 227.988 1028.16 Q238.838 1028.16 245.175 1034.11 Q251.512 1040.05 251.512 1050.21 Q251.512 1060.67 245.002 1066.49 Q238.491 1072.26 226.642 1072.26 Q222.562 1072.26 218.309 1071.56 Q214.099 1070.87 209.585 1069.48 L209.585 1060.67 Q213.491 1062.8 217.658 1063.84 Q221.825 1064.88 226.469 1064.88 Q233.977 1064.88 238.361 1060.93 Q242.745 1056.98 242.745 1050.21 Q242.745 1043.44 238.361 1039.49 Q233.977 1035.54 226.469 1035.54 Q222.953 1035.54 219.437 1036.32 Q215.965 1037.1 212.319 1038.75 L212.319 1006.2 Z" fill="#000000" fill-rule="evenodd" fill-opacity="1" /><path clip-path="url(#clip920)" d="M144.308 738.026 Q137.537 738.026 134.108 744.71 Q130.723 751.35 130.723 764.718 Q130.723 778.043 134.108 784.727 Q137.537 791.367 144.308 791.367 Q151.122 791.367 154.507 784.727 Q157.936 778.043 157.936 764.718 Q157.936 751.35 154.507 744.71 Q151.122 738.026 144.308 738.026 M144.308 731.081 Q155.202 731.081 160.931 739.718 Q166.703 748.312 166.703 764.718 Q166.703 781.081 160.931 789.718 Q155.202 798.312 144.308 798.312 Q133.414 798.312 127.641 789.718 Q121.912 781.081 121.912 764.718 Q121.912 748.312 127.641 739.718 Q133.414 731.081 144.308 731.081 Z" fill="#000000" fill-rule="evenodd" fill-opacity="1" /><path clip-path="url(#clip920)" d="M182.111 786.029 L191.269 786.029 L191.269 797.053 L182.111 797.053 L182.111 786.029 Z" fill="#000000" fill-rule="evenodd" fill-opacity="1" /><path clip-path="url(#clip920)" d="M229.116 738.026 Q222.345 738.026 218.917 744.71 Q215.531 751.35 215.531 764.718 Q215.531 778.043 218.917 784.727 Q222.345 791.367 229.116 791.367 Q235.93 791.367 239.316 784.727 Q242.745 778.043 242.745 764.718 Q242.745 751.35 239.316 744.71 Q235.93 738.026 229.116 738.026 M229.116 731.081 Q240.01 731.081 245.739 739.718 Q251.512 748.312 251.512 764.718 Q251.512 781.081 245.739 789.718 Q240.01 798.312 229.116 798.312 Q218.222 798.312 212.45 789.718 Q206.72 781.081 206.72 764.718 Q206.72 748.312 212.45 739.718 Q218.222 731.081 229.116 731.081 Z" fill="#000000" fill-rule="evenodd" fill-opacity="1" /><path clip-path="url(#clip920)" d="M146.174 464.078 Q139.403 464.078 135.974 470.762 Q132.589 477.403 132.589 490.771 Q132.589 504.095 135.974 510.779 Q139.403 517.42 146.174 517.42 Q152.988 517.42 156.374 510.779 Q159.802 504.095 159.802 490.771 Q159.802 477.403 156.374 470.762 Q152.988 464.078 146.174 464.078 M146.174 457.134 Q157.068 457.134 162.797 465.771 Q168.57 474.364 168.57 490.771 Q168.57 507.133 162.797 515.77 Q157.068 524.364 146.174 524.364 Q135.28 524.364 129.507 515.77 Q123.778 507.133 123.778 490.771 Q123.778 474.364 129.507 465.771 Q135.28 457.134 146.174 457.134 Z" fill="#000000" fill-rule="evenodd" fill-opacity="1" /><path clip-path="url(#clip920)" d="M183.978 512.081 L193.135 512.081 L193.135 523.106 L183.978 523.106 L183.978 512.081 Z" fill="#000000" fill-rule="evenodd" fill-opacity="1" /><path clip-path="url(#clip920)" d="M212.319 458.306 L246.738 458.306 L246.738 465.684 L220.349 465.684 L220.349 481.569 Q222.259 480.918 224.168 480.614 Q226.078 480.267 227.988 480.267 Q238.838 480.267 245.175 486.213 Q251.512 492.16 251.512 502.316 Q251.512 512.776 245.002 518.592 Q238.491 524.364 226.642 524.364 Q222.562 524.364 218.309 523.67 Q214.099 522.975 209.585 521.586 L209.585 512.776 Q213.491 514.902 217.658 515.944 Q221.825 516.986 226.469 516.986 Q233.977 516.986 238.361 513.036 Q242.745 509.087 242.745 502.316 Q242.745 495.545 238.361 491.595 Q233.977 487.646 226.469 487.646 Q222.953 487.646 219.437 488.427 Q215.965 489.208 212.319 490.857 L212.319 458.306 Z" fill="#000000" fill-rule="evenodd" fill-opacity="1" /><path clip-path="url(#clip920)" d="M127.077 241.78 L141.4 241.78 L141.4 192.344 L125.818 195.469 L125.818 187.483 L141.313 184.358 L150.08 184.358 L150.08 241.78 L164.403 241.78 L164.403 249.158 L127.077 249.158 L127.077 241.78 Z" fill="#000000" fill-rule="evenodd" fill-opacity="1" /><path clip-path="url(#clip920)" d="M182.111 238.134 L191.269 238.134 L191.269 249.158 L182.111 249.158 L182.111 238.134 Z" fill="#000000" fill-rule="evenodd" fill-opacity="1" /><path clip-path="url(#clip920)" d="M229.116 190.131 Q222.345 190.131 218.917 196.815 Q215.531 203.455 215.531 216.823 Q215.531 230.148 218.917 236.832 Q222.345 243.472 229.116 243.472 Q235.93 243.472 239.316 236.832 Q242.745 230.148 242.745 216.823 Q242.745 203.455 239.316 196.815 Q235.93 190.131 229.116 190.131 M229.116 183.186 Q240.01 183.186 245.739 191.823 Q251.512 200.417 251.512 216.823 Q251.512 233.186 245.739 241.823 Q240.01 250.417 229.116 250.417 Q218.222 250.417 212.45 241.823 Q206.72 233.186 206.72 216.823 Q206.72 200.417 212.45 191.823 Q218.222 183.186 229.116 183.186 Z" fill="#000000" fill-rule="evenodd" fill-opacity="1" /><path clip-path="url(#clip920)" d="M881.178 109.342 L881.178 54.4117 L896.085 54.4117 L896.085 108.775 Q896.085 121.657 901.108 128.138 Q906.131 134.539 916.178 134.539 Q928.249 134.539 935.217 126.842 Q942.266 119.145 942.266 105.858 L942.266 54.4117 L957.173 54.4117 L957.173 145.152 L942.266 145.152 L942.266 131.217 Q936.837 139.481 929.627 143.532 Q922.497 147.502 913.018 147.502 Q897.382 147.502 889.28 137.779 Q881.178 128.057 881.178 109.342 M918.689 52.2243 L918.689 52.2243 Z" fill="#000000" fill-rule="evenodd" fill-opacity="1" /><path clip-path="url(#clip920)" d="M1023.69 19.2499 Q1012.83 37.8841 1007.57 56.1131 Q1002.3 74.3422 1002.3 93.0574 Q1002.3 111.773 1007.57 130.164 Q1012.91 148.474 1023.69 167.027 L1010.73 167.027 Q998.573 147.988 992.497 129.597 Q986.501 111.205 986.501 93.0574 Q986.501 74.9903 992.497 56.6803 Q998.492 38.3702 1010.73 19.2499 L1023.69 19.2499 Z" fill="#000000" fill-rule="evenodd" fill-opacity="1" /><path clip-path="url(#clip920)" d="M1128.04 54.4117 L1095.23 98.5666 L1129.74 145.152 L1112.16 145.152 L1085.75 109.504 L1059.34 145.152 L1041.76 145.152 L1077 97.6754 L1044.75 54.4117 L1062.33 54.4117 L1086.4 86.738 L1110.46 54.4117 L1128.04 54.4117 Z" fill="#000000" fill-rule="evenodd" fill-opacity="1" /><path clip-path="url(#clip920)" d="M1154.61 124.573 L1171.71 124.573 L1171.71 138.509 L1158.42 164.434 L1147.97 164.434 L1154.61 138.509 L1154.61 124.573 Z" fill="#000000" fill-rule="evenodd" fill-opacity="1" /><path clip-path="url(#clip920)" d="M1271.04 28.648 L1271.04 54.4117 L1301.74 54.4117 L1301.74 65.9973 L1271.04 65.9973 L1271.04 115.256 Q1271.04 126.356 1274.03 129.516 Q1277.11 132.675 1286.43 132.675 L1301.74 132.675 L1301.74 145.152 L1286.43 145.152 Q1269.17 145.152 1262.61 138.752 Q1256.05 132.27 1256.05 115.256 L1256.05 65.9973 L1245.11 65.9973 L1245.11 54.4117 L1256.05 54.4117 L1256.05 28.648 L1271.04 28.648 Z" fill="#000000" fill-rule="evenodd" fill-opacity="1" /><path clip-path="url(#clip920)" d="M1323.29 69.8052 L1427.16 69.8052 L1427.16 83.4162 L1323.29 83.4162 L1323.29 69.8052 M1323.29 102.861 L1427.16 102.861 L1427.16 116.634 L1323.29 116.634 L1323.29 102.861 Z" fill="#000000" fill-rule="evenodd" fill-opacity="1" /><path clip-path="url(#clip920)" d="M1476.58 131.379 L1533.7 131.379 L1533.7 145.152 L1456.89 145.152 L1456.89 131.379 Q1466.21 121.738 1482.25 105.534 Q1498.37 89.2495 1502.51 84.5505 Q1510.36 75.7195 1513.44 69.6431 Q1516.6 63.4858 1516.6 57.5715 Q1516.6 47.9303 1509.8 41.8539 Q1503.07 35.7776 1492.22 35.7776 Q1484.52 35.7776 1475.93 38.4512 Q1467.42 41.1248 1457.7 46.553 L1457.7 30.0253 Q1467.59 26.0554 1476.17 24.03 Q1484.76 22.0045 1491.89 22.0045 Q1510.69 22.0045 1521.87 31.4026 Q1533.05 40.8007 1533.05 56.5182 Q1533.05 63.9719 1530.21 70.6964 Q1527.46 77.3399 1520.09 86.4139 Q1518.06 88.7634 1507.2 100.025 Q1496.35 111.205 1476.58 131.379 Z" fill="#000000" fill-rule="evenodd" fill-opacity="1" /><path clip-path="url(#clip920)" d="M1568.05 124.573 L1585.14 124.573 L1585.14 145.152 L1568.05 145.152 L1568.05 124.573 Z" fill="#000000" fill-rule="evenodd" fill-opacity="1" /><path clip-path="url(#clip920)" d="M1655.79 34.9674 Q1643.15 34.9674 1636.75 47.4442 Q1630.43 59.84 1630.43 84.7935 Q1630.43 109.666 1636.75 122.143 Q1643.15 134.539 1655.79 134.539 Q1668.51 134.539 1674.83 122.143 Q1681.23 109.666 1681.23 84.7935 Q1681.23 59.84 1674.83 47.4442 Q1668.51 34.9674 1655.79 34.9674 M1655.79 22.0045 Q1676.13 22.0045 1686.82 38.1271 Q1697.6 54.1687 1697.6 84.7935 Q1697.6 115.337 1686.82 131.46 Q1676.13 147.502 1655.79 147.502 Q1635.46 147.502 1624.68 131.46 Q1613.99 115.337 1613.99 84.7935 Q1613.99 54.1687 1624.68 38.1271 Q1635.46 22.0045 1655.79 22.0045 Z" fill="#000000" fill-rule="evenodd" fill-opacity="1" /><path clip-path="url(#clip920)" d="M1721.9 19.2499 L1734.87 19.2499 Q1747.02 38.3702 1753.01 56.6803 Q1759.09 74.9903 1759.09 93.0574 Q1759.09 111.205 1753.01 129.597 Q1747.02 147.988 1734.87 167.027 L1721.9 167.027 Q1732.68 148.474 1737.94 130.164 Q1743.29 111.773 1743.29 93.0574 Q1743.29 74.3422 1737.94 56.1131 Q1732.68 37.8841 1721.9 19.2499 Z" fill="#000000" fill-rule="evenodd" fill-opacity="1" /><circle clip-path="url(#clip922)" cx="345.962" cy="1213.19" r="14" fill="#009af9" fill-rule="evenodd" fill-opacity="1" stroke="#000000" stroke-opacity="1" stroke-width="3.2"/>
<circle clip-path="url(#clip922)" cx="406.848" cy="1204.57" r="14" fill="#009af9" fill-rule="evenodd" fill-opacity="1" stroke="#000000" stroke-opacity="1" stroke-width="3.2"/>
<circle clip-path="url(#clip922)" cx="467.734" cy="1179.04" r="14" fill="#009af9" fill-rule="evenodd" fill-opacity="1" stroke="#000000" stroke-opacity="1" stroke-width="3.2"/>
<circle clip-path="url(#clip922)" cx="528.619" cy="1137.6" r="14" fill="#009af9" fill-rule="evenodd" fill-opacity="1" stroke="#000000" stroke-opacity="1" stroke-width="3.2"/>
<circle clip-path="url(#clip922)" cx="589.505" cy="1081.81" r="14" fill="#009af9" fill-rule="evenodd" fill-opacity="1" stroke="#000000" stroke-opacity="1" stroke-width="3.2"/>
<circle clip-path="url(#clip922)" cx="650.391" cy="1013.84" r="14" fill="#009af9" fill-rule="evenodd" fill-opacity="1" stroke="#000000" stroke-opacity="1" stroke-width="3.2"/>
<circle clip-path="url(#clip922)" cx="711.277" cy="936.299" r="14" fill="#009af9" fill-rule="evenodd" fill-opacity="1" stroke="#000000" stroke-opacity="1" stroke-width="3.2"/>
<circle clip-path="url(#clip922)" cx="772.162" cy="852.158" r="14" fill="#009af9" fill-rule="evenodd" fill-opacity="1" stroke="#000000" stroke-opacity="1" stroke-width="3.2"/>
<circle clip-path="url(#clip922)" cx="833.048" cy="764.653" r="14" fill="#009af9" fill-rule="evenodd" fill-opacity="1" stroke="#000000" stroke-opacity="1" stroke-width="3.2"/>
<circle clip-path="url(#clip922)" cx="893.934" cy="677.148" r="14" fill="#009af9" fill-rule="evenodd" fill-opacity="1" stroke="#000000" stroke-opacity="1" stroke-width="3.2"/>
<circle clip-path="url(#clip922)" cx="954.82" cy="593.007" r="14" fill="#009af9" fill-rule="evenodd" fill-opacity="1" stroke="#000000" stroke-opacity="1" stroke-width="3.2"/>
<circle clip-path="url(#clip922)" cx="1015.71" cy="515.461" r="14" fill="#009af9" fill-rule="evenodd" fill-opacity="1" stroke="#000000" stroke-opacity="1" stroke-width="3.2"/>
<circle clip-path="url(#clip922)" cx="1076.59" cy="447.492" r="14" fill="#009af9" fill-rule="evenodd" fill-opacity="1" stroke="#000000" stroke-opacity="1" stroke-width="3.2"/>
<circle clip-path="url(#clip922)" cx="1137.48" cy="391.711" r="14" fill="#009af9" fill-rule="evenodd" fill-opacity="1" stroke="#000000" stroke-opacity="1" stroke-width="3.2"/>
<circle clip-path="url(#clip922)" cx="1198.36" cy="350.262" r="14" fill="#009af9" fill-rule="evenodd" fill-opacity="1" stroke="#000000" stroke-opacity="1" stroke-width="3.2"/>
<circle clip-path="url(#clip922)" cx="1259.25" cy="324.738" r="14" fill="#009af9" fill-rule="evenodd" fill-opacity="1" stroke="#000000" stroke-opacity="1" stroke-width="3.2"/>
<circle clip-path="url(#clip922)" cx="1320.13" cy="316.119" r="14" fill="#009af9" fill-rule="evenodd" fill-opacity="1" stroke="#000000" stroke-opacity="1" stroke-width="3.2"/>
<circle clip-path="url(#clip922)" cx="1381.02" cy="324.738" r="14" fill="#009af9" fill-rule="evenodd" fill-opacity="1" stroke="#000000" stroke-opacity="1" stroke-width="3.2"/>
<circle clip-path="url(#clip922)" cx="1441.91" cy="350.262" r="14" fill="#009af9" fill-rule="evenodd" fill-opacity="1" stroke="#000000" stroke-opacity="1" stroke-width="3.2"/>
<circle clip-path="url(#clip922)" cx="1502.79" cy="391.711" r="14" fill="#009af9" fill-rule="evenodd" fill-opacity="1" stroke="#000000" stroke-opacity="1" stroke-width="3.2"/>
<circle clip-path="url(#clip922)" cx="1563.68" cy="447.492" r="14" fill="#009af9" fill-rule="evenodd" fill-opacity="1" stroke="#000000" stroke-opacity="1" stroke-width="3.2"/>
<circle clip-path="url(#clip922)" cx="1624.56" cy="515.461" r="14" fill="#009af9" fill-rule="evenodd" fill-opacity="1" stroke="#000000" stroke-opacity="1" stroke-width="3.2"/>
<circle clip-path="url(#clip922)" cx="1685.45" cy="593.007" r="14" fill="#009af9" fill-rule="evenodd" fill-opacity="1" stroke="#000000" stroke-opacity="1" stroke-width="3.2"/>
<circle clip-path="url(#clip922)" cx="1746.33" cy="677.148" r="14" fill="#009af9" fill-rule="evenodd" fill-opacity="1" stroke="#000000" stroke-opacity="1" stroke-width="3.2"/>
<circle clip-path="url(#clip922)" cx="1807.22" cy="764.653" r="14" fill="#009af9" fill-rule="evenodd" fill-opacity="1" stroke="#000000" stroke-opacity="1" stroke-width="3.2"/>
<circle clip-path="url(#clip922)" cx="1868.11" cy="852.158" r="14" fill="#009af9" fill-rule="evenodd" fill-opacity="1" stroke="#000000" stroke-opacity="1" stroke-width="3.2"/>
<circle clip-path="url(#clip922)" cx="1928.99" cy="936.299" r="14" fill="#009af9" fill-rule="evenodd" fill-opacity="1" stroke="#000000" stroke-opacity="1" stroke-width="3.2"/>
<circle clip-path="url(#clip922)" cx="1989.88" cy="1013.84" r="14" fill="#009af9" fill-rule="evenodd" fill-opacity="1" stroke="#000000" stroke-opacity="1" stroke-width="3.2"/>
<circle clip-path="url(#clip922)" cx="2050.76" cy="1081.81" r="14" fill="#009af9" fill-rule="evenodd" fill-opacity="1" stroke="#000000" stroke-opacity="1" stroke-width="3.2"/>
<circle clip-path="url(#clip922)" cx="2111.65" cy="1137.6" r="14" fill="#009af9" fill-rule="evenodd" fill-opacity="1" stroke="#000000" stroke-opacity="1" stroke-width="3.2"/>
<circle clip-path="url(#clip922)" cx="2172.53" cy="1179.04" r="14" fill="#009af9" fill-rule="evenodd" fill-opacity="1" stroke="#000000" stroke-opacity="1" stroke-width="3.2"/>
<circle clip-path="url(#clip922)" cx="2233.42" cy="1204.57" r="14" fill="#009af9" fill-rule="evenodd" fill-opacity="1" stroke="#000000" stroke-opacity="1" stroke-width="3.2"/>
<polyline clip-path="url(#clip922)" style="stroke:#e26f46; stroke-linecap:butt; stroke-linejoin:round; stroke-width:8; stroke-opacity:1; fill:none" points="
  345.962,1213.23 350.719,1213.18 355.476,1213.02 360.233,1212.76 364.989,1212.39 408.973,1204 452.956,1186.79 496.94,1161.1 540.923,1127.45 567.355,1103.68 
  593.787,1077.44 620.22,1048.92 646.652,1018.35 691.348,962.578 736.044,902.703 833.149,764.507 922.672,636.8 970.66,572.051 1018.65,511.907 1074.25,449.865 
  1129.85,397.917 1154.55,378.521 1179.26,361.576 1203.96,347.187 1228.67,335.447 1272,321.469 1315.33,316.128 1362.57,320.268 1409.81,334.7 1457.33,359.266 
  1504.85,393.333 1557.39,441.091 1609.93,498.115 1659.92,559.486 1709.91,626.178 1813.86,774.263 1901.37,898.773 1954.79,970.166 2008.21,1035.48 2058.43,1089.59 
  2108.64,1135.2 2148.87,1164.79 2189.09,1187.66 2229.32,1203.42 2269.54,1211.8 2275.73,1212.43 2281.92,1212.87 2288.12,1213.14 2294.31,1213.23 
  "/>
<polyline clip-path="url(#clip922)" style="stroke:#808080; stroke-linecap:butt; stroke-linejoin:round; stroke-width:8; stroke-opacity:1; fill:none" stroke-dasharray="32, 20" points="
  345.962,1312.55 350.719,1312.48 355.476,1312.29 360.233,1311.97 364.989,1311.52 408.973,1301.28 452.956,1280.26 496.94,1248.88 540.923,1207.78 567.355,1178.74 
  593.787,1146.69 620.22,1111.86 646.652,1074.52 691.348,1006.4 736.044,933.267 833.149,764.474 922.672,608.493 970.66,529.409 1018.65,455.948 1074.25,380.17 
  1129.85,316.72 1154.55,293.031 1179.26,272.333 1203.96,254.759 1228.67,240.42 1272,223.346 1315.33,216.824 1362.57,221.88 1409.81,239.508 1457.33,269.512 
  1504.85,311.122 1557.39,369.453 1609.93,439.103 1659.92,514.062 1709.91,595.519 1813.86,776.391 1901.37,928.468 1954.79,1015.67 2008.21,1095.44 2058.43,1161.53 
  2108.64,1217.24 2148.87,1253.38 2189.09,1281.31 2229.32,1300.56 2269.54,1310.8 2275.73,1311.57 2281.92,1312.11 2288.12,1312.44 2294.31,1312.55 
  "/>
<path clip-path="url(#clip920)" d="
M1386.69 611.468 L2283.91 611.468 L2283.91 222.668 L1386.69 222.668  Z
  " fill="#ffffff" fill-rule="evenodd" fill-opacity="1"/>
<polyline clip-path="url(#clip920)" style="stroke:#000000; stroke-linecap:butt; stroke-linejoin:round; stroke-width:4; stroke-opacity:1; fill:none" points="
  1386.69,611.468 2283.91,611.468 2283.91,222.668 1386.69,222.668 1386.69,611.468 
  "/>
<circle clip-path="url(#clip920)" cx="1478.48" cy="319.868" r="43" fill="#009af9" fill-rule="evenodd" fill-opacity="1" stroke="#000000" stroke-opacity="1" stroke-width="9.6"/>
<path clip-path="url(#clip920)" d="M1610.98 322.928 L1610.98 352.268 L1603 352.268 L1603 323.188 Q1603 316.287 1600.31 312.858 Q1597.62 309.429 1592.23 309.429 Q1585.77 309.429 1582.03 313.553 Q1578.3 317.676 1578.3 324.794 L1578.3 352.268 L1570.27 352.268 L1570.27 303.657 L1578.3 303.657 L1578.3 311.209 Q1581.17 306.825 1585.03 304.655 Q1588.94 302.485 1594.01 302.485 Q1602.39 302.485 1606.69 307.693 Q1610.98 312.858 1610.98 322.928 Z" fill="#000000" fill-rule="evenodd" fill-opacity="1" /><path clip-path="url(#clip920)" d="M1626.09 333.084 L1626.09 303.657 L1634.07 303.657 L1634.07 332.78 Q1634.07 339.681 1636.76 343.153 Q1639.46 346.582 1644.84 346.582 Q1651.3 346.582 1655.04 342.459 Q1658.81 338.335 1658.81 331.217 L1658.81 303.657 L1666.8 303.657 L1666.8 352.268 L1658.81 352.268 L1658.81 344.802 Q1655.91 349.23 1652.04 351.4 Q1648.22 353.526 1643.14 353.526 Q1634.77 353.526 1630.43 348.318 Q1626.09 343.11 1626.09 333.084 M1646.18 302.485 L1646.18 302.485 Z" fill="#000000" fill-rule="evenodd" fill-opacity="1" /><path clip-path="url(#clip920)" d="M1721.1 312.988 Q1724.09 307.606 1728.26 305.046 Q1732.42 302.485 1738.07 302.485 Q1745.66 302.485 1749.78 307.824 Q1753.91 313.119 1753.91 322.928 L1753.91 352.268 L1745.88 352.268 L1745.88 323.188 Q1745.88 316.2 1743.4 312.815 Q1740.93 309.429 1735.85 309.429 Q1729.65 309.429 1726.04 313.553 Q1722.44 317.676 1722.44 324.794 L1722.44 352.268 L1714.41 352.268 L1714.41 323.188 Q1714.41 316.157 1711.94 312.815 Q1709.46 309.429 1704.3 309.429 Q1698.18 309.429 1694.58 313.596 Q1690.97 317.719 1690.97 324.794 L1690.97 352.268 L1682.94 352.268 L1682.94 303.657 L1690.97 303.657 L1690.97 311.209 Q1693.71 306.738 1697.53 304.612 Q1701.35 302.485 1706.6 302.485 Q1711.89 302.485 1715.58 305.176 Q1719.32 307.867 1721.1 312.988 Z" fill="#000000" fill-rule="evenodd" fill-opacity="1" /><path clip-path="url(#clip920)" d="M1811.42 325.966 L1811.42 329.872 L1774.7 329.872 Q1775.22 338.118 1779.65 342.459 Q1784.12 346.756 1792.06 346.756 Q1796.66 346.756 1800.96 345.627 Q1805.3 344.499 1809.55 342.242 L1809.55 349.794 Q1805.25 351.617 1800.74 352.572 Q1796.23 353.526 1791.58 353.526 Q1779.95 353.526 1773.14 346.756 Q1766.36 339.985 1766.36 328.44 Q1766.36 316.504 1772.79 309.516 Q1779.26 302.485 1790.19 302.485 Q1800 302.485 1805.69 308.822 Q1811.42 315.115 1811.42 325.966 M1803.43 323.622 Q1803.34 317.068 1799.74 313.162 Q1796.18 309.256 1790.28 309.256 Q1783.6 309.256 1779.56 313.032 Q1775.57 316.808 1774.96 323.665 L1803.43 323.622 Z" fill="#000000" fill-rule="evenodd" fill-opacity="1" /><path clip-path="url(#clip920)" d="M1852.69 311.122 Q1851.35 310.341 1849.74 309.994 Q1848.18 309.603 1846.27 309.603 Q1839.5 309.603 1835.85 314.03 Q1832.25 318.414 1832.25 326.66 L1832.25 352.268 L1824.22 352.268 L1824.22 303.657 L1832.25 303.657 L1832.25 311.209 Q1834.77 306.782 1838.8 304.655 Q1842.84 302.485 1848.61 302.485 Q1849.44 302.485 1850.44 302.615 Q1851.43 302.702 1852.65 302.919 L1852.69 311.122 Z" fill="#000000" fill-rule="evenodd" fill-opacity="1" /><path clip-path="url(#clip920)" d="M1861.07 303.657 L1869.06 303.657 L1869.06 352.268 L1861.07 352.268 L1861.07 303.657 M1861.07 284.733 L1869.06 284.733 L1869.06 294.846 L1861.07 294.846 L1861.07 284.733 Z" fill="#000000" fill-rule="evenodd" fill-opacity="1" /><path clip-path="url(#clip920)" d="M1920.75 305.523 L1920.75 312.988 Q1917.36 311.122 1913.93 310.211 Q1910.55 309.256 1907.08 309.256 Q1899.31 309.256 1895.01 314.204 Q1890.71 319.108 1890.71 328.006 Q1890.71 336.903 1895.01 341.851 Q1899.31 346.756 1907.08 346.756 Q1910.55 346.756 1913.93 345.844 Q1917.36 344.889 1920.75 343.023 L1920.75 350.401 Q1917.41 351.964 1913.8 352.745 Q1910.24 353.526 1906.21 353.526 Q1895.23 353.526 1888.76 346.625 Q1882.29 339.724 1882.29 328.006 Q1882.29 316.113 1888.8 309.299 Q1895.36 302.485 1906.73 302.485 Q1910.42 302.485 1913.93 303.266 Q1917.45 304.004 1920.75 305.523 Z" fill="#000000" fill-rule="evenodd" fill-opacity="1" /><path clip-path="url(#clip920)" d="M1956.73 327.832 Q1947.05 327.832 1943.32 330.046 Q1939.58 332.259 1939.58 337.598 Q1939.58 341.851 1942.36 344.368 Q1945.18 346.842 1950 346.842 Q1956.64 346.842 1960.63 342.155 Q1964.67 337.424 1964.67 329.612 L1964.67 327.832 L1956.73 327.832 M1972.66 324.533 L1972.66 352.268 L1964.67 352.268 L1964.67 344.889 Q1961.94 349.316 1957.86 351.443 Q1953.78 353.526 1947.87 353.526 Q1940.41 353.526 1935.98 349.36 Q1931.6 345.15 1931.6 338.118 Q1931.6 329.915 1937.07 325.749 Q1942.58 321.582 1953.47 321.582 L1964.67 321.582 L1964.67 320.801 Q1964.67 315.289 1961.03 312.294 Q1957.42 309.256 1950.87 309.256 Q1946.7 309.256 1942.75 310.254 Q1938.8 311.252 1935.16 313.249 L1935.16 305.87 Q1939.54 304.178 1943.66 303.353 Q1947.79 302.485 1951.69 302.485 Q1962.24 302.485 1967.45 307.954 Q1972.66 313.422 1972.66 324.533 Z" fill="#000000" fill-rule="evenodd" fill-opacity="1" /><path clip-path="url(#clip920)" d="M1989.11 284.733 L1997.09 284.733 L1997.09 352.268 L1989.11 352.268 L1989.11 284.733 Z" fill="#000000" fill-rule="evenodd" fill-opacity="1" /><polyline clip-path="url(#clip920)" style="stroke:#e26f46; stroke-linecap:butt; stroke-linejoin:round; stroke-width:7.5; stroke-opacity:1; fill:none" points="
  1409.64,417.068 1547.32,417.068 
  "/>
<path clip-path="url(#clip920)" d="M1595.4 425.032 Q1585.72 425.032 1581.99 427.246 Q1578.26 429.459 1578.26 434.798 Q1578.26 439.051 1581.04 441.568 Q1583.86 444.042 1588.67 444.042 Q1595.32 444.042 1599.31 439.355 Q1603.34 434.624 1603.34 426.812 L1603.34 425.032 L1595.4 425.032 M1611.33 421.733 L1611.33 449.468 L1603.34 449.468 L1603.34 442.089 Q1600.61 446.516 1596.53 448.643 Q1592.45 450.726 1586.55 450.726 Q1579.08 450.726 1574.66 446.56 Q1570.27 442.35 1570.27 435.318 Q1570.27 427.115 1575.74 422.949 Q1581.25 418.782 1592.15 418.782 L1603.34 418.782 L1603.34 418.001 Q1603.34 412.489 1599.7 409.494 Q1596.1 406.456 1589.54 406.456 Q1585.38 406.456 1581.43 407.454 Q1577.48 408.452 1573.83 410.449 L1573.83 403.07 Q1578.21 401.378 1582.34 400.553 Q1586.46 399.685 1590.37 399.685 Q1600.91 399.685 1606.12 405.154 Q1611.33 410.622 1611.33 421.733 Z" fill="#000000" fill-rule="evenodd" fill-opacity="1" /><path clip-path="url(#clip920)" d="M1668.19 420.128 L1668.19 449.468 L1660.2 449.468 L1660.2 420.388 Q1660.2 413.487 1657.51 410.058 Q1654.82 406.629 1649.44 406.629 Q1642.97 406.629 1639.24 410.753 Q1635.51 414.876 1635.51 421.994 L1635.51 449.468 L1627.48 449.468 L1627.48 400.857 L1635.51 400.857 L1635.51 408.409 Q1638.37 404.025 1642.23 401.855 Q1646.14 399.685 1651.22 399.685 Q1659.59 399.685 1663.89 404.893 Q1668.19 410.058 1668.19 420.128 Z" fill="#000000" fill-rule="evenodd" fill-opacity="1" /><path clip-path="url(#clip920)" d="M1706.21 425.032 Q1696.53 425.032 1692.8 427.246 Q1689.06 429.459 1689.06 434.798 Q1689.06 439.051 1691.84 441.568 Q1694.66 444.042 1699.48 444.042 Q1706.12 444.042 1710.11 439.355 Q1714.15 434.624 1714.15 426.812 L1714.15 425.032 L1706.21 425.032 M1722.14 421.733 L1722.14 449.468 L1714.15 449.468 L1714.15 442.089 Q1711.42 446.516 1707.34 448.643 Q1703.26 450.726 1697.35 450.726 Q1689.89 450.726 1685.46 446.56 Q1681.08 442.35 1681.08 435.318 Q1681.08 427.115 1686.55 422.949 Q1692.06 418.782 1702.95 418.782 L1714.15 418.782 L1714.15 418.001 Q1714.15 412.489 1710.51 409.494 Q1706.9 406.456 1700.35 406.456 Q1696.18 406.456 1692.23 407.454 Q1688.28 408.452 1684.64 410.449 L1684.64 403.07 Q1689.02 401.378 1693.14 400.553 Q1697.27 399.685 1701.17 399.685 Q1711.72 399.685 1716.93 405.154 Q1722.14 410.622 1722.14 421.733 Z" fill="#000000" fill-rule="evenodd" fill-opacity="1" /><path clip-path="url(#clip920)" d="M1738.59 381.933 L1746.57 381.933 L1746.57 449.468 L1738.59 449.468 L1738.59 381.933 Z" fill="#000000" fill-rule="evenodd" fill-opacity="1" /><path clip-path="url(#clip920)" d="M1783.51 453.982 Q1780.12 462.662 1776.91 465.31 Q1773.7 467.957 1768.32 467.957 L1761.94 467.957 L1761.94 461.273 L1766.63 461.273 Q1769.92 461.273 1771.75 459.711 Q1773.57 458.148 1775.78 452.332 L1777.22 448.686 L1757.55 400.857 L1766.02 400.857 L1781.21 438.877 L1796.4 400.857 L1804.86 400.857 L1783.51 453.982 Z" fill="#000000" fill-rule="evenodd" fill-opacity="1" /><path clip-path="url(#clip920)" d="M1823.79 387.055 L1823.79 400.857 L1840.24 400.857 L1840.24 407.063 L1823.79 407.063 L1823.79 433.452 Q1823.79 439.398 1825.39 441.091 Q1827.04 442.784 1832.03 442.784 L1840.24 442.784 L1840.24 449.468 L1832.03 449.468 Q1822.79 449.468 1819.27 446.039 Q1815.76 442.567 1815.76 433.452 L1815.76 407.063 L1809.9 407.063 L1809.9 400.857 L1815.76 400.857 L1815.76 387.055 L1823.79 387.055 Z" fill="#000000" fill-rule="evenodd" fill-opacity="1" /><path clip-path="url(#clip920)" d="M1850.74 400.857 L1858.73 400.857 L1858.73 449.468 L1850.74 449.468 L1850.74 400.857 M1850.74 381.933 L1858.73 381.933 L1858.73 392.046 L1850.74 392.046 L1850.74 381.933 Z" fill="#000000" fill-rule="evenodd" fill-opacity="1" /><path clip-path="url(#clip920)" d="M1910.42 402.723 L1910.42 410.188 Q1907.03 408.322 1903.6 407.411 Q1900.22 406.456 1896.75 406.456 Q1888.98 406.456 1884.68 411.404 Q1880.38 416.308 1880.38 425.206 Q1880.38 434.103 1884.68 439.051 Q1888.98 443.956 1896.75 443.956 Q1900.22 443.956 1903.6 443.044 Q1907.03 442.089 1910.42 440.223 L1910.42 447.601 Q1907.08 449.164 1903.47 449.945 Q1899.91 450.726 1895.88 450.726 Q1884.9 450.726 1878.43 443.825 Q1871.96 436.924 1871.96 425.206 Q1871.96 413.313 1878.47 406.499 Q1885.03 399.685 1896.4 399.685 Q1900.09 399.685 1903.6 400.466 Q1907.12 401.204 1910.42 402.723 Z" fill="#000000" fill-rule="evenodd" fill-opacity="1" /><path clip-path="url(#clip920)" d="M1946.4 425.032 Q1936.72 425.032 1932.99 427.246 Q1929.25 429.459 1929.25 434.798 Q1929.25 439.051 1932.03 441.568 Q1934.85 444.042 1939.67 444.042 Q1946.31 444.042 1950.3 439.355 Q1954.34 434.624 1954.34 426.812 L1954.34 425.032 L1946.4 425.032 M1962.33 421.733 L1962.33 449.468 L1954.34 449.468 L1954.34 442.089 Q1951.61 446.516 1947.53 448.643 Q1943.45 450.726 1937.54 450.726 Q1930.08 450.726 1925.65 446.56 Q1921.27 442.35 1921.27 435.318 Q1921.27 427.115 1926.74 422.949 Q1932.25 418.782 1943.14 418.782 L1954.34 418.782 L1954.34 418.001 Q1954.34 412.489 1950.7 409.494 Q1947.09 406.456 1940.54 406.456 Q1936.37 406.456 1932.42 407.454 Q1928.47 408.452 1924.83 410.449 L1924.83 403.07 Q1929.21 401.378 1933.33 400.553 Q1937.46 399.685 1941.36 399.685 Q1951.91 399.685 1957.12 405.154 Q1962.33 410.622 1962.33 421.733 Z" fill="#000000" fill-rule="evenodd" fill-opacity="1" /><path clip-path="url(#clip920)" d="M1978.78 381.933 L1986.76 381.933 L1986.76 449.468 L1978.78 449.468 L1978.78 381.933 Z" fill="#000000" fill-rule="evenodd" fill-opacity="1" /><polyline clip-path="url(#clip920)" style="stroke:#808080; stroke-linecap:butt; stroke-linejoin:round; stroke-width:7.5; stroke-opacity:1; fill:none" stroke-dasharray="30, 19" points="
  1409.64,514.268 1547.32,514.268 
  "/>
<path clip-path="url(#clip920)" d="M1570.27 498.057 L1578.26 498.057 L1578.26 546.668 L1570.27 546.668 L1570.27 498.057 M1570.27 479.133 L1578.26 479.133 L1578.26 489.246 L1570.27 489.246 L1570.27 479.133 Z" fill="#000000" fill-rule="evenodd" fill-opacity="1" /><path clip-path="url(#clip920)" d="M1635.38 517.328 L1635.38 546.668 L1627.39 546.668 L1627.39 517.588 Q1627.39 510.687 1624.7 507.258 Q1622.01 503.829 1616.63 503.829 Q1610.16 503.829 1606.43 507.953 Q1602.69 512.076 1602.69 519.194 L1602.69 546.668 L1594.66 546.668 L1594.66 498.057 L1602.69 498.057 L1602.69 505.609 Q1605.56 501.225 1609.42 499.055 Q1613.33 496.885 1618.41 496.885 Q1626.78 496.885 1631.08 502.093 Q1635.38 507.258 1635.38 517.328 Z" fill="#000000" fill-rule="evenodd" fill-opacity="1" /><path clip-path="url(#clip920)" d="M1651.3 498.057 L1659.29 498.057 L1659.29 546.668 L1651.3 546.668 L1651.3 498.057 M1651.3 479.133 L1659.29 479.133 L1659.29 489.246 L1651.3 489.246 L1651.3 479.133 Z" fill="#000000" fill-rule="evenodd" fill-opacity="1" /><path clip-path="url(#clip920)" d="M1683.9 484.255 L1683.9 498.057 L1700.35 498.057 L1700.35 504.263 L1683.9 504.263 L1683.9 530.652 Q1683.9 536.598 1685.51 538.291 Q1687.16 539.984 1692.15 539.984 L1700.35 539.984 L1700.35 546.668 L1692.15 546.668 Q1682.9 546.668 1679.39 543.239 Q1675.87 539.767 1675.87 530.652 L1675.87 504.263 L1670.01 504.263 L1670.01 498.057 L1675.87 498.057 L1675.87 484.255 L1683.9 484.255 Z" fill="#000000" fill-rule="evenodd" fill-opacity="1" /><path clip-path="url(#clip920)" d="M1710.85 498.057 L1718.84 498.057 L1718.84 546.668 L1710.85 546.668 L1710.85 498.057 M1710.85 479.133 L1718.84 479.133 L1718.84 489.246 L1710.85 489.246 L1710.85 479.133 Z" fill="#000000" fill-rule="evenodd" fill-opacity="1" /><path clip-path="url(#clip920)" d="M1757.64 522.232 Q1747.96 522.232 1744.23 524.446 Q1740.5 526.659 1740.5 531.998 Q1740.5 536.251 1743.27 538.768 Q1746.1 541.242 1750.91 541.242 Q1757.55 541.242 1761.55 536.555 Q1765.58 531.824 1765.58 524.012 L1765.58 522.232 L1757.64 522.232 M1773.57 518.933 L1773.57 546.668 L1765.58 546.668 L1765.58 539.289 Q1762.85 543.716 1758.77 545.843 Q1754.69 547.926 1748.79 547.926 Q1741.32 547.926 1736.89 543.76 Q1732.51 539.55 1732.51 532.518 Q1732.51 524.315 1737.98 520.149 Q1743.49 515.982 1754.39 515.982 L1765.58 515.982 L1765.58 515.201 Q1765.58 509.689 1761.94 506.694 Q1758.34 503.656 1751.78 503.656 Q1747.61 503.656 1743.67 504.654 Q1739.72 505.652 1736.07 507.649 L1736.07 500.27 Q1740.45 498.578 1744.58 497.753 Q1748.7 496.885 1752.61 496.885 Q1763.15 496.885 1768.36 502.354 Q1773.57 507.822 1773.57 518.933 Z" fill="#000000" fill-rule="evenodd" fill-opacity="1" /><path clip-path="url(#clip920)" d="M1790.02 479.133 L1798.01 479.133 L1798.01 546.668 L1790.02 546.668 L1790.02 479.133 Z" fill="#000000" fill-rule="evenodd" fill-opacity="1" /><path clip-path="url(#clip920)" d="M1877.95 499.923 L1877.95 507.388 Q1874.57 505.522 1871.14 504.611 Q1867.75 503.656 1864.28 503.656 Q1856.51 503.656 1852.21 508.604 Q1847.92 513.508 1847.92 522.406 Q1847.92 531.303 1852.21 536.251 Q1856.51 541.156 1864.28 541.156 Q1867.75 541.156 1871.14 540.244 Q1874.57 539.289 1877.95 537.423 L1877.95 544.801 Q1874.61 546.364 1871.01 547.145 Q1867.45 547.926 1863.41 547.926 Q1852.43 547.926 1845.96 541.025 Q1839.5 534.124 1839.5 522.406 Q1839.5 510.513 1846.01 503.699 Q1852.56 496.885 1863.93 496.885 Q1867.62 496.885 1871.14 497.666 Q1874.65 498.404 1877.95 499.923 Z" fill="#000000" fill-rule="evenodd" fill-opacity="1" /><path clip-path="url(#clip920)" d="M1910.68 503.656 Q1904.25 503.656 1900.52 508.69 Q1896.79 513.682 1896.79 522.406 Q1896.79 531.13 1900.48 536.164 Q1904.21 541.156 1910.68 541.156 Q1917.06 541.156 1920.79 536.121 Q1924.52 531.086 1924.52 522.406 Q1924.52 513.769 1920.79 508.734 Q1917.06 503.656 1910.68 503.656 M1910.68 496.885 Q1921.09 496.885 1927.04 503.656 Q1932.99 510.427 1932.99 522.406 Q1932.99 534.341 1927.04 541.156 Q1921.09 547.926 1910.68 547.926 Q1900.22 547.926 1894.27 541.156 Q1888.37 534.341 1888.37 522.406 Q1888.37 510.427 1894.27 503.656 Q1900.22 496.885 1910.68 496.885 Z" fill="#000000" fill-rule="evenodd" fill-opacity="1" /><path clip-path="url(#clip920)" d="M1986.63 517.328 L1986.63 546.668 L1978.65 546.668 L1978.65 517.588 Q1978.65 510.687 1975.96 507.258 Q1973.26 503.829 1967.88 503.829 Q1961.42 503.829 1957.68 507.953 Q1953.95 512.076 1953.95 519.194 L1953.95 546.668 L1945.92 546.668 L1945.92 498.057 L1953.95 498.057 L1953.95 505.609 Q1956.82 501.225 1960.68 499.055 Q1964.58 496.885 1969.66 496.885 Q1978.04 496.885 1982.34 502.093 Q1986.63 507.258 1986.63 517.328 Z" fill="#000000" fill-rule="evenodd" fill-opacity="1" /><path clip-path="url(#clip920)" d="M2034.55 505.435 L2034.55 479.133 L2042.54 479.133 L2042.54 546.668 L2034.55 546.668 L2034.55 539.376 Q2032.03 543.716 2028.17 545.843 Q2024.35 547.926 2018.97 547.926 Q2010.16 547.926 2004.6 540.895 Q1999.09 533.864 1999.09 522.406 Q1999.09 510.947 2004.6 503.916 Q2010.16 496.885 2018.97 496.885 Q2024.35 496.885 2028.17 499.012 Q2032.03 501.095 2034.55 505.435 M2007.34 522.406 Q2007.34 531.216 2010.94 536.251 Q2014.58 541.242 2020.92 541.242 Q2027.26 541.242 2030.9 536.251 Q2034.55 531.216 2034.55 522.406 Q2034.55 513.595 2030.9 508.604 Q2027.26 503.569 2020.92 503.569 Q2014.58 503.569 2010.94 508.604 Q2007.34 513.595 2007.34 522.406 Z" fill="#000000" fill-rule="evenodd" fill-opacity="1" /><path clip-path="url(#clip920)" d="M2058.98 498.057 L2066.97 498.057 L2066.97 546.668 L2058.98 546.668 L2058.98 498.057 M2058.98 479.133 L2066.97 479.133 L2066.97 489.246 L2058.98 489.246 L2058.98 479.133 Z" fill="#000000" fill-rule="evenodd" fill-opacity="1" /><path clip-path="url(#clip920)" d="M2091.58 484.255 L2091.58 498.057 L2108.03 498.057 L2108.03 504.263 L2091.58 504.263 L2091.58 530.652 Q2091.58 536.598 2093.19 538.291 Q2094.84 539.984 2099.83 539.984 L2108.03 539.984 L2108.03 546.668 L2099.83 546.668 Q2090.58 546.668 2087.07 543.239 Q2083.55 539.767 2083.55 530.652 L2083.55 504.263 L2077.69 504.263 L2077.69 498.057 L2083.55 498.057 L2083.55 484.255 L2091.58 484.255 Z" fill="#000000" fill-rule="evenodd" fill-opacity="1" /><path clip-path="url(#clip920)" d="M2118.53 498.057 L2126.52 498.057 L2126.52 546.668 L2118.53 546.668 L2118.53 498.057 M2118.53 479.133 L2126.52 479.133 L2126.52 489.246 L2118.53 489.246 L2118.53 479.133 Z" fill="#000000" fill-rule="evenodd" fill-opacity="1" /><path clip-path="url(#clip920)" d="M2162.07 503.656 Q2155.64 503.656 2151.91 508.69 Q2148.18 513.682 2148.18 522.406 Q2148.18 531.13 2151.87 536.164 Q2155.6 541.156 2162.07 541.156 Q2168.45 541.156 2172.18 536.121 Q2175.91 531.086 2175.91 522.406 Q2175.91 513.769 2172.18 508.734 Q2168.45 503.656 2162.07 503.656 M2162.07 496.885 Q2172.48 496.885 2178.43 503.656 Q2184.37 510.427 2184.37 522.406 Q2184.37 534.341 2178.43 541.156 Q2172.48 547.926 2162.07 547.926 Q2151.61 547.926 2145.66 541.156 Q2139.76 534.341 2139.76 522.406 Q2139.76 510.427 2145.66 503.656 Q2151.61 496.885 2162.07 496.885 Z" fill="#000000" fill-rule="evenodd" fill-opacity="1" /><path clip-path="url(#clip920)" d="M2238.02 517.328 L2238.02 546.668 L2230.03 546.668 L2230.03 517.588 Q2230.03 510.687 2227.34 507.258 Q2224.65 503.829 2219.27 503.829 Q2212.8 503.829 2209.07 507.953 Q2205.34 512.076 2205.34 519.194 L2205.34 546.668 L2197.31 546.668 L2197.31 498.057 L2205.34 498.057 L2205.34 505.609 Q2208.2 501.225 2212.07 499.055 Q2215.97 496.885 2221.05 496.885 Q2229.43 496.885 2233.72 502.093 Q2238.02 507.258 2238.02 517.328 Z" fill="#000000" fill-rule="evenodd" fill-opacity="1" /></svg>
