<?xml version="1.0" encoding="utf-8"?>
<svg xmlns="http://www.w3.org/2000/svg" xmlns:xlink="http://www.w3.org/1999/xlink" width="600" height="400" viewBox="0 0 2400 1600">
<defs>
  <clipPath id="clip800">
    <rect x="0" y="0" width="2400" height="1600"/>
  </clipPath>
</defs>
<path clip-path="url(#clip800)" d="
M0 1600 L2400 1600 L2400 0 L0 0  Z
  " fill="#ffffff" fill-rule="evenodd" fill-opacity="1"/>
<defs>
  <clipPath id="clip801">
    <rect x="480" y="0" width="1681" height="1600"/>
  </clipPath>
</defs>
<path clip-path="url(#clip800)" d="
M156.274 1423.18 L2352.76 1423.18 L2352.76 47.2441 L156.274 47.2441  Z
  " fill="#ffffff" fill-rule="evenodd" fill-opacity="1"/>
<defs>
  <clipPath id="clip802">
    <rect x="156" y="47" width="2197" height="1377"/>
  </clipPath>
</defs>
<polyline clip-path="url(#clip802)" style="stroke:#000000; stroke-linecap:butt; stroke-linejoin:round; stroke-width:2; stroke-opacity:0.1; fill:none" points="
  218.439,1423.18 218.439,47.2441 
  "/>
<polyline clip-path="url(#clip802)" style="stroke:#000000; stroke-linecap:butt; stroke-linejoin:round; stroke-width:2; stroke-opacity:0.1; fill:none" points="
  736.477,1423.18 736.477,47.2441 
  "/>
<polyline clip-path="url(#clip802)" style="stroke:#000000; stroke-linecap:butt; stroke-linejoin:round; stroke-width:2; stroke-opacity:0.1; fill:none" points="
  1254.52,1423.18 1254.52,47.2441 
  "/>
<polyline clip-path="url(#clip802)" style="stroke:#000000; stroke-linecap:butt; stroke-linejoin:round; stroke-width:2; stroke-opacity:0.1; fill:none" points="
  1772.55,1423.18 1772.55,47.2441 
  "/>
<polyline clip-path="url(#clip802)" style="stroke:#000000; stroke-linecap:butt; stroke-linejoin:round; stroke-width:2; stroke-opacity:0.1; fill:none" points="
  2290.59,1423.18 2290.59,47.2441 
  "/>
<polyline clip-path="url(#clip800)" style="stroke:#000000; stroke-linecap:butt; stroke-linejoin:round; stroke-width:4; stroke-opacity:1; fill:none" points="
  156.274,1423.18 2352.76,1423.18 
  "/>
<polyline clip-path="url(#clip800)" style="stroke:#000000; stroke-linecap:butt; stroke-linejoin:round; stroke-width:4; stroke-opacity:1; fill:none" points="
  218.439,1423.18 218.439,1404.28 
  "/>
<polyline clip-path="url(#clip800)" style="stroke:#000000; stroke-linecap:butt; stroke-linejoin:round; stroke-width:4; stroke-opacity:1; fill:none" points="
  736.477,1423.18 736.477,1404.28 
  "/>
<polyline clip-path="url(#clip800)" style="stroke:#000000; stroke-linecap:butt; stroke-linejoin:round; stroke-width:4; stroke-opacity:1; fill:none" points="
  1254.52,1423.18 1254.52,1404.28 
  "/>
<polyline clip-path="url(#clip800)" style="stroke:#000000; stroke-linecap:butt; stroke-linejoin:round; stroke-width:4; stroke-opacity:1; fill:none" points="
  1772.55,1423.18 1772.55,1404.28 
  "/>
<polyline clip-path="url(#clip800)" style="stroke:#000000; stroke-linecap:butt; stroke-linejoin:round; stroke-width:4; stroke-opacity:1; fill:none" points="
  2290.59,1423.18 2290.59,1404.28 
  "/>
<path clip-path="url(#clip800)" d="M218.439 1454.1 Q214.828 1454.1 212.999 1457.66 Q211.193 1461.2 211.193 1468.33 Q211.193 1475.44 212.999 1479.01 Q214.828 1482.55 218.439 1482.55 Q222.073 1482.55 223.879 1479.01 Q225.707 1475.44 225.707 1468.33 Q225.707 1461.2 223.879 1457.66 Q222.073 1454.1 218.439 1454.1 M218.439 1450.39 Q224.249 1450.39 227.304 1455 Q230.383 1459.58 230.383 1468.33 Q230.383 1477.06 227.304 1481.67 Q224.249 1486.25 218.439 1486.25 Q212.629 1486.25 209.55 1481.67 Q206.494 1477.06 206.494 1468.33 Q206.494 1459.58 209.55 1455 Q212.629 1450.39 218.439 1450.39 Z" fill="#000000" fill-rule="evenodd" fill-opacity="1" /><path clip-path="url(#clip800)" d="M726.859 1481.64 L734.498 1481.64 L734.498 1455.28 L726.188 1456.95 L726.188 1452.69 L734.451 1451.02 L739.127 1451.02 L739.127 1481.64 L746.766 1481.64 L746.766 1485.58 L726.859 1485.58 L726.859 1481.64 Z" fill="#000000" fill-rule="evenodd" fill-opacity="1" /><path clip-path="url(#clip800)" d="M1249.17 1481.64 L1265.49 1481.64 L1265.49 1485.58 L1243.54 1485.58 L1243.54 1481.64 Q1246.2 1478.89 1250.79 1474.26 Q1255.39 1469.61 1256.58 1468.27 Q1258.82 1465.74 1259.7 1464.01 Q1260.6 1462.25 1260.6 1460.56 Q1260.6 1457.8 1258.66 1456.07 Q1256.74 1454.33 1253.64 1454.33 Q1251.44 1454.33 1248.98 1455.09 Q1246.55 1455.86 1243.77 1457.41 L1243.77 1452.69 Q1246.6 1451.55 1249.05 1450.97 Q1251.51 1450.39 1253.54 1450.39 Q1258.91 1450.39 1262.11 1453.08 Q1265.3 1455.77 1265.3 1460.26 Q1265.3 1462.39 1264.49 1464.31 Q1263.7 1466.2 1261.6 1468.8 Q1261.02 1469.47 1257.92 1472.69 Q1254.82 1475.88 1249.17 1481.64 Z" fill="#000000" fill-rule="evenodd" fill-opacity="1" /><path clip-path="url(#clip800)" d="M1776.8 1466.95 Q1780.16 1467.66 1782.03 1469.93 Q1783.93 1472.2 1783.93 1475.53 Q1783.93 1480.65 1780.41 1483.45 Q1776.89 1486.25 1770.41 1486.25 Q1768.24 1486.25 1765.92 1485.81 Q1763.63 1485.39 1761.18 1484.54 L1761.18 1480.02 Q1763.12 1481.16 1765.44 1481.74 Q1767.75 1482.32 1770.27 1482.32 Q1774.67 1482.32 1776.96 1480.58 Q1779.28 1478.84 1779.28 1475.53 Q1779.28 1472.48 1777.12 1470.77 Q1775 1469.03 1771.18 1469.03 L1767.15 1469.03 L1767.15 1465.19 L1771.36 1465.19 Q1774.81 1465.19 1776.64 1463.82 Q1778.47 1462.43 1778.47 1459.84 Q1778.47 1457.18 1776.57 1455.77 Q1774.69 1454.33 1771.18 1454.33 Q1769.25 1454.33 1767.06 1454.75 Q1764.86 1455.16 1762.22 1456.04 L1762.22 1451.88 Q1764.88 1451.14 1767.19 1450.77 Q1769.53 1450.39 1771.59 1450.39 Q1776.92 1450.39 1780.02 1452.83 Q1783.12 1455.23 1783.12 1459.35 Q1783.12 1462.22 1781.48 1464.21 Q1779.83 1466.18 1776.8 1466.95 Z" fill="#000000" fill-rule="evenodd" fill-opacity="1" /><path clip-path="url(#clip800)" d="M2293.6 1455.09 L2281.8 1473.54 L2293.6 1473.54 L2293.6 1455.09 M2292.37 1451.02 L2298.25 1451.02 L2298.25 1473.54 L2303.18 1473.54 L2303.18 1477.43 L2298.25 1477.43 L2298.25 1485.58 L2293.6 1485.58 L2293.6 1477.43 L2278 1477.43 L2278 1472.92 L2292.37 1451.02 Z" fill="#000000" fill-rule="evenodd" fill-opacity="1" /><path clip-path="url(#clip800)" d="M1253.58 1522.27 L1253.58 1532.4 L1265.64 1532.4 L1265.64 1536.95 L1253.58 1536.95 L1253.58 1556.3 Q1253.58 1560.66 1254.75 1561.9 Q1255.96 1563.14 1259.62 1563.14 L1265.64 1563.14 L1265.64 1568.04 L1259.62 1568.04 Q1252.84 1568.04 1250.27 1565.53 Q1247.69 1562.98 1247.69 1556.3 L1247.69 1536.95 L1243.39 1536.95 L1243.39 1532.4 L1247.69 1532.4 L1247.69 1522.27 L1253.58 1522.27 Z" fill="#000000" fill-rule="evenodd" fill-opacity="1" /><polyline clip-path="url(#clip802)" style="stroke:#000000; stroke-linecap:butt; stroke-linejoin:round; stroke-width:2; stroke-opacity:0.1; fill:none" points="
  156.274,1264.03 2352.76,1264.03 
  "/>
<polyline clip-path="url(#clip802)" style="stroke:#000000; stroke-linecap:butt; stroke-linejoin:round; stroke-width:2; stroke-opacity:0.1; fill:none" points="
  156.274,1028.46 2352.76,1028.46 
  "/>
<polyline clip-path="url(#clip802)" style="stroke:#000000; stroke-linecap:butt; stroke-linejoin:round; stroke-width:2; stroke-opacity:0.1; fill:none" points="
  156.274,792.89 2352.76,792.89 
  "/>
<polyline clip-path="url(#clip802)" style="stroke:#000000; stroke-linecap:butt; stroke-linejoin:round; stroke-width:2; stroke-opacity:0.1; fill:none" points="
  156.274,557.322 2352.76,557.322 
  "/>
<polyline clip-path="url(#clip802)" style="stroke:#000000; stroke-linecap:butt; stroke-linejoin:round; stroke-width:2; stroke-opacity:0.1; fill:none" points="
  156.274,321.754 2352.76,321.754 
  "/>
<polyline clip-path="url(#clip802)" style="stroke:#000000; stroke-linecap:butt; stroke-linejoin:round; stroke-width:2; stroke-opacity:0.1; fill:none" points="
  156.274,86.1857 2352.76,86.1857 
  "/>
<polyline clip-path="url(#clip800)" style="stroke:#000000; stroke-linecap:butt; stroke-linejoin:round; stroke-width:4; stroke-opacity:1; fill:none" points="
  156.274,1423.18 156.274,47.2441 
  "/>
<polyline clip-path="url(#clip800)" style="stroke:#000000; stroke-linecap:butt; stroke-linejoin:round; stroke-width:4; stroke-opacity:1; fill:none" points="
  156.274,1264.03 175.172,1264.03 
  "/>
<polyline clip-path="url(#clip800)" style="stroke:#000000; stroke-linecap:butt; stroke-linejoin:round; stroke-width:4; stroke-opacity:1; fill:none" points="
  156.274,1028.46 175.172,1028.46 
  "/>
<polyline clip-path="url(#clip800)" style="stroke:#000000; stroke-linecap:butt; stroke-linejoin:round; stroke-width:4; stroke-opacity:1; fill:none" points="
  156.274,792.89 175.172,792.89 
  "/>
<polyline clip-path="url(#clip800)" style="stroke:#000000; stroke-linecap:butt; stroke-linejoin:round; stroke-width:4; stroke-opacity:1; fill:none" points="
  156.274,557.322 175.172,557.322 
  "/>
<polyline clip-path="url(#clip800)" style="stroke:#000000; stroke-linecap:butt; stroke-linejoin:round; stroke-width:4; stroke-opacity:1; fill:none" points="
  156.274,321.754 175.172,321.754 
  "/>
<polyline clip-path="url(#clip800)" style="stroke:#000000; stroke-linecap:butt; stroke-linejoin:round; stroke-width:4; stroke-opacity:1; fill:none" points="
  156.274,86.1857 175.172,86.1857 
  "/>
<path clip-path="url(#clip800)" d="M64.0939 1249.82 Q60.4828 1249.82 58.6541 1253.39 Q56.8486 1256.93 56.8486 1264.06 Q56.8486 1271.17 58.6541 1274.73 Q60.4828 1278.27 64.0939 1278.27 Q67.7281 1278.27 69.5337 1274.73 Q71.3624 1271.17 71.3624 1264.06 Q71.3624 1256.93 69.5337 1253.39 Q67.7281 1249.82 64.0939 1249.82 M64.0939 1246.12 Q69.9041 1246.12 72.9596 1250.73 Q76.0383 1255.31 76.0383 1264.06 Q76.0383 1272.79 72.9596 1277.39 Q69.9041 1281.98 64.0939 1281.98 Q58.2838 1281.98 55.2051 1277.39 Q52.1495 1272.79 52.1495 1264.06 Q52.1495 1255.31 55.2051 1250.73 Q58.2838 1246.12 64.0939 1246.12 Z" fill="#000000" fill-rule="evenodd" fill-opacity="1" /><path clip-path="url(#clip800)" d="M84.2558 1275.43 L89.1401 1275.43 L89.1401 1281.31 L84.2558 1281.31 L84.2558 1275.43 Z" fill="#000000" fill-rule="evenodd" fill-opacity="1" /><path clip-path="url(#clip800)" d="M99.3715 1246.75 L117.728 1246.75 L117.728 1250.68 L103.654 1250.68 L103.654 1259.15 Q104.672 1258.81 105.691 1258.64 Q106.709 1258.46 107.728 1258.46 Q113.515 1258.46 116.895 1261.63 Q120.274 1264.8 120.274 1270.22 Q120.274 1275.8 116.802 1278.9 Q113.33 1281.98 107.01 1281.98 Q104.834 1281.98 102.566 1281.61 Q100.321 1281.24 97.9132 1280.5 L97.9132 1275.8 Q99.9965 1276.93 102.219 1277.49 Q104.441 1278.04 106.918 1278.04 Q110.922 1278.04 113.26 1275.94 Q115.598 1273.83 115.598 1270.22 Q115.598 1266.61 113.26 1264.5 Q110.922 1262.39 106.918 1262.39 Q105.043 1262.39 103.168 1262.81 Q101.316 1263.23 99.3715 1264.11 L99.3715 1246.75 Z" fill="#000000" fill-rule="evenodd" fill-opacity="1" /><path clip-path="url(#clip800)" d="M62.9365 1014.26 Q59.3254 1014.26 57.4967 1017.82 Q55.6912 1021.36 55.6912 1028.49 Q55.6912 1035.6 57.4967 1039.16 Q59.3254 1042.71 62.9365 1042.71 Q66.5707 1042.71 68.3763 1039.16 Q70.205 1035.6 70.205 1028.49 Q70.205 1021.36 68.3763 1017.82 Q66.5707 1014.26 62.9365 1014.26 M62.9365 1010.55 Q68.7467 1010.55 71.8022 1015.16 Q74.8809 1019.74 74.8809 1028.49 Q74.8809 1037.22 71.8022 1041.83 Q68.7467 1046.41 62.9365 1046.41 Q57.1264 1046.41 54.0477 1041.83 Q50.9921 1037.22 50.9921 1028.49 Q50.9921 1019.74 54.0477 1015.16 Q57.1264 1010.55 62.9365 1010.55 Z" fill="#000000" fill-rule="evenodd" fill-opacity="1" /><path clip-path="url(#clip800)" d="M83.0984 1039.86 L87.9827 1039.86 L87.9827 1045.74 L83.0984 1045.74 L83.0984 1039.86 Z" fill="#000000" fill-rule="evenodd" fill-opacity="1" /><path clip-path="url(#clip800)" d="M108.746 1026.59 Q105.598 1026.59 103.746 1028.75 Q101.918 1030.9 101.918 1034.65 Q101.918 1038.38 103.746 1040.55 Q105.598 1042.71 108.746 1042.71 Q111.895 1042.71 113.723 1040.55 Q115.575 1038.38 115.575 1034.65 Q115.575 1030.9 113.723 1028.75 Q111.895 1026.59 108.746 1026.59 M118.029 1011.94 L118.029 1016.2 Q116.27 1015.37 114.464 1014.93 Q112.682 1014.49 110.922 1014.49 Q106.293 1014.49 103.839 1017.61 Q101.409 1020.74 101.061 1027.06 Q102.427 1025.04 104.487 1023.98 Q106.547 1022.89 109.024 1022.89 Q114.233 1022.89 117.242 1026.06 Q120.274 1029.21 120.274 1034.65 Q120.274 1039.97 117.126 1043.19 Q113.978 1046.41 108.746 1046.41 Q102.751 1046.41 99.5798 1041.83 Q96.4085 1037.22 96.4085 1028.49 Q96.4085 1020.3 100.297 1015.44 Q104.186 1010.55 110.737 1010.55 Q112.496 1010.55 114.279 1010.9 Q116.084 1011.25 118.029 1011.94 Z" fill="#000000" fill-rule="evenodd" fill-opacity="1" /><path clip-path="url(#clip800)" d="M64.0013 778.689 Q60.3902 778.689 58.5615 782.253 Q56.756 785.795 56.756 792.925 Q56.756 800.031 58.5615 803.596 Q60.3902 807.137 64.0013 807.137 Q67.6356 807.137 69.4411 803.596 Q71.2698 800.031 71.2698 792.925 Q71.2698 785.795 69.4411 782.253 Q67.6356 778.689 64.0013 778.689 M64.0013 774.985 Q69.8115 774.985 72.867 779.591 Q75.9457 784.175 75.9457 792.925 Q75.9457 801.651 72.867 806.258 Q69.8115 810.841 64.0013 810.841 Q58.1912 810.841 55.1125 806.258 Q52.0569 801.651 52.0569 792.925 Q52.0569 784.175 55.1125 779.591 Q58.1912 774.985 64.0013 774.985 Z" fill="#000000" fill-rule="evenodd" fill-opacity="1" /><path clip-path="url(#clip800)" d="M84.1632 804.29 L89.0475 804.29 L89.0475 810.17 L84.1632 810.17 L84.1632 804.29 Z" fill="#000000" fill-rule="evenodd" fill-opacity="1" /><path clip-path="url(#clip800)" d="M98.0521 775.61 L120.274 775.61 L120.274 777.601 L107.728 810.17 L102.844 810.17 L114.649 779.545 L98.0521 779.545 L98.0521 775.61 Z" fill="#000000" fill-rule="evenodd" fill-opacity="1" /><path clip-path="url(#clip800)" d="M63.1911 543.12 Q59.58 543.12 57.7513 546.685 Q55.9458 550.227 55.9458 557.356 Q55.9458 564.463 57.7513 568.028 Q59.58 571.569 63.1911 571.569 Q66.8254 571.569 68.6309 568.028 Q70.4596 564.463 70.4596 557.356 Q70.4596 550.227 68.6309 546.685 Q66.8254 543.12 63.1911 543.12 M63.1911 539.417 Q69.0013 539.417 72.0568 544.023 Q75.1355 548.607 75.1355 557.356 Q75.1355 566.083 72.0568 570.69 Q69.0013 575.273 63.1911 575.273 Q57.381 575.273 54.3023 570.69 Q51.2468 566.083 51.2468 557.356 Q51.2468 548.607 54.3023 544.023 Q57.381 539.417 63.1911 539.417 Z" fill="#000000" fill-rule="evenodd" fill-opacity="1" /><path clip-path="url(#clip800)" d="M83.3531 568.722 L88.2373 568.722 L88.2373 574.602 L83.3531 574.602 L83.3531 568.722 Z" fill="#000000" fill-rule="evenodd" fill-opacity="1" /><path clip-path="url(#clip800)" d="M108.422 558.19 Q105.089 558.19 103.168 559.972 Q101.27 561.755 101.27 564.88 Q101.27 568.005 103.168 569.787 Q105.089 571.569 108.422 571.569 Q111.756 571.569 113.677 569.787 Q115.598 567.981 115.598 564.88 Q115.598 561.755 113.677 559.972 Q111.779 558.19 108.422 558.19 M103.746 556.199 Q100.737 555.458 99.0474 553.398 Q97.3808 551.338 97.3808 548.375 Q97.3808 544.232 100.321 541.824 Q103.284 539.417 108.422 539.417 Q113.584 539.417 116.524 541.824 Q119.464 544.232 119.464 548.375 Q119.464 551.338 117.774 553.398 Q116.108 555.458 113.121 556.199 Q116.501 556.986 118.376 559.278 Q120.274 561.569 120.274 564.88 Q120.274 569.903 117.195 572.588 Q114.14 575.273 108.422 575.273 Q102.705 575.273 99.6261 572.588 Q96.5706 569.903 96.5706 564.88 Q96.5706 561.569 98.4687 559.278 Q100.367 556.986 103.746 556.199 M102.034 548.815 Q102.034 551.5 103.7 553.005 Q105.39 554.509 108.422 554.509 Q111.432 554.509 113.121 553.005 Q114.834 551.5 114.834 548.815 Q114.834 546.13 113.121 544.625 Q111.432 543.12 108.422 543.12 Q105.39 543.12 103.7 544.625 Q102.034 546.13 102.034 548.815 Z" fill="#000000" fill-rule="evenodd" fill-opacity="1" /><path clip-path="url(#clip800)" d="M63.2837 307.552 Q59.6726 307.552 57.8439 311.117 Q56.0384 314.659 56.0384 321.788 Q56.0384 328.895 57.8439 332.46 Q59.6726 336.001 63.2837 336.001 Q66.918 336.001 68.7235 332.46 Q70.5522 328.895 70.5522 321.788 Q70.5522 314.659 68.7235 311.117 Q66.918 307.552 63.2837 307.552 M63.2837 303.849 Q69.0939 303.849 72.1494 308.455 Q75.2281 313.038 75.2281 321.788 Q75.2281 330.515 72.1494 335.122 Q69.0939 339.705 63.2837 339.705 Q57.4736 339.705 54.3949 335.122 Q51.3393 330.515 51.3393 321.788 Q51.3393 313.038 54.3949 308.455 Q57.4736 303.849 63.2837 303.849 Z" fill="#000000" fill-rule="evenodd" fill-opacity="1" /><path clip-path="url(#clip800)" d="M83.4457 333.154 L88.3299 333.154 L88.3299 339.034 L83.4457 339.034 L83.4457 333.154 Z" fill="#000000" fill-rule="evenodd" fill-opacity="1" /><path clip-path="url(#clip800)" d="M98.6539 338.316 L98.6539 334.057 Q100.413 334.89 102.219 335.33 Q104.024 335.77 105.76 335.77 Q110.39 335.77 112.82 332.668 Q115.274 329.543 115.621 323.2 Q114.279 325.191 112.219 326.256 Q110.158 327.321 107.658 327.321 Q102.473 327.321 99.4409 324.196 Q96.4317 321.048 96.4317 315.608 Q96.4317 310.284 99.5798 307.066 Q102.728 303.849 107.959 303.849 Q113.955 303.849 117.103 308.455 Q120.274 313.038 120.274 321.788 Q120.274 329.96 116.385 334.844 Q112.52 339.705 105.969 339.705 Q104.209 339.705 102.404 339.358 Q100.598 339.011 98.6539 338.316 M107.959 323.663 Q111.108 323.663 112.936 321.511 Q114.788 319.358 114.788 315.608 Q114.788 311.881 112.936 309.728 Q111.108 307.552 107.959 307.552 Q104.811 307.552 102.959 309.728 Q101.131 311.881 101.131 315.608 Q101.131 319.358 102.959 321.511 Q104.811 323.663 107.959 323.663 Z" fill="#000000" fill-rule="evenodd" fill-opacity="1" /><path clip-path="url(#clip800)" d="M53.9088 99.5305 L61.5476 99.5305 L61.5476 73.1649 L53.2375 74.8316 L53.2375 70.5723 L61.5013 68.9057 L66.1772 68.9057 L66.1772 99.5305 L73.8161 99.5305 L73.8161 103.466 L53.9088 103.466 L53.9088 99.5305 Z" fill="#000000" fill-rule="evenodd" fill-opacity="1" /><path clip-path="url(#clip800)" d="M83.2605 97.5861 L88.1447 97.5861 L88.1447 103.466 L83.2605 103.466 L83.2605 97.5861 Z" fill="#000000" fill-rule="evenodd" fill-opacity="1" /><path clip-path="url(#clip800)" d="M108.33 71.9844 Q104.719 71.9844 102.89 75.5492 Q101.084 79.0908 101.084 86.2204 Q101.084 93.3268 102.89 96.8916 Q104.719 100.433 108.33 100.433 Q111.964 100.433 113.77 96.8916 Q115.598 93.3268 115.598 86.2204 Q115.598 79.0908 113.77 75.5492 Q111.964 71.9844 108.33 71.9844 M108.33 68.2807 Q114.14 68.2807 117.195 72.8871 Q120.274 77.4704 120.274 86.2204 Q120.274 94.9472 117.195 99.5537 Q114.14 104.137 108.33 104.137 Q102.52 104.137 99.4409 99.5537 Q96.3854 94.9472 96.3854 86.2204 Q96.3854 77.4704 99.4409 72.8871 Q102.52 68.2807 108.33 68.2807 Z" fill="#000000" fill-rule="evenodd" fill-opacity="1" /><polyline clip-path="url(#clip802)" style="stroke:#009af9; stroke-linecap:butt; stroke-linejoin:round; stroke-width:12; stroke-opacity:1; fill:none" points="
  218.439,86.1857 239.16,104.975 259.882,123.614 280.603,142.104 301.325,160.447 322.046,178.644 342.768,196.695 363.489,214.603 384.211,232.368 404.932,249.991 
  425.654,267.473 446.376,284.816 467.097,302.021 487.819,319.088 508.54,336.02 529.262,352.816 549.983,369.478 570.705,386.008 591.426,402.405 612.148,418.672 
  632.869,434.809 653.591,450.818 674.312,466.698 695.034,482.452 715.755,498.081 736.477,513.584 757.198,528.964 777.92,544.222 798.641,559.357 819.363,574.372 
  840.085,589.268 860.806,604.044 881.528,618.702 902.249,633.244 922.971,647.67 943.692,661.98 964.414,676.177 985.135,690.26 1005.86,704.231 1026.58,718.09 
  1047.3,731.839 1068.02,745.478 1088.74,759.009 1109.46,772.431 1130.19,785.747 1150.91,798.956 1171.63,812.06 1192.35,825.059 1213.07,837.955 1233.79,850.748 
  1254.52,863.439 1275.24,876.028 1295.96,888.517 1316.68,900.907 1337.4,913.198 1358.12,925.39 1378.84,937.486 1399.57,949.485 1420.29,961.388 1441.01,973.196 
  1461.73,984.911 1482.45,996.531 1503.17,1008.06 1523.89,1019.5 1544.62,1030.84 1565.34,1042.09 1586.06,1053.26 1606.78,1064.33 1627.5,1075.32 1648.22,1086.22 
  1668.95,1097.03 1689.67,1107.76 1710.39,1118.4 1731.11,1128.96 1751.83,1139.43 1772.55,1149.82 1793.27,1160.12 1814,1170.35 1834.72,1180.49 1855.44,1190.55 
  1876.16,1200.53 1896.88,1210.43 1917.6,1220.25 1938.33,1230 1959.05,1239.66 1979.77,1249.25 2000.49,1258.76 2021.21,1268.2 2041.93,1277.56 2062.65,1286.85 
  2083.38,1296.06 2104.1,1305.2 2124.82,1314.26 2145.54,1323.26 2166.26,1332.18 2186.98,1341.03 2207.71,1349.81 2228.43,1358.52 2249.15,1367.16 2269.87,1375.73 
  2290.59,1384.24 
  "/>
<path clip-path="url(#clip800)" d="
M1878.38 196.789 L2279.54 196.789 L2279.54 93.1086 L1878.38 93.1086  Z
  " fill="#ffffff" fill-rule="evenodd" fill-opacity="1"/>
<polyline clip-path="url(#clip800)" style="stroke:#000000; stroke-linecap:butt; stroke-linejoin:round; stroke-width:4; stroke-opacity:1; fill:none" points="
  1878.38,196.789 2279.54,196.789 2279.54,93.1086 1878.38,93.1086 1878.38,196.789 
  "/>
<polyline clip-path="url(#clip800)" style="stroke:#009af9; stroke-linecap:butt; stroke-linejoin:round; stroke-width:4; stroke-opacity:1; fill:none" points="
  1902.38,144.949 2046.38,144.949 
  "/>
<path clip-path="url(#clip800)" d="M2094.41 148.201 L2094.41 150.284 L2074.83 150.284 Q2075.11 154.682 2077.47 156.997 Q2079.85 159.289 2084.09 159.289 Q2086.54 159.289 2088.83 158.687 Q2091.15 158.085 2093.42 156.881 L2093.42 160.909 Q2091.12 161.881 2088.72 162.391 Q2086.31 162.9 2083.83 162.9 Q2077.63 162.9 2073.99 159.289 Q2070.38 155.678 2070.38 149.52 Q2070.38 143.155 2073.81 139.428 Q2077.26 135.678 2083.09 135.678 Q2088.32 135.678 2091.36 139.057 Q2094.41 142.414 2094.41 148.201 M2090.15 146.951 Q2090.11 143.456 2088.18 141.372 Q2086.29 139.289 2083.14 139.289 Q2079.57 139.289 2077.42 141.303 Q2075.29 143.317 2074.97 146.974 L2090.15 146.951 Z" fill="#000000" fill-rule="evenodd" fill-opacity="1" /><path clip-path="url(#clip800)" d="M2122.95 146.581 L2122.95 162.229 L2118.69 162.229 L2118.69 146.719 Q2118.69 143.039 2117.26 141.21 Q2115.82 139.382 2112.95 139.382 Q2109.5 139.382 2107.51 141.581 Q2105.52 143.78 2105.52 147.576 L2105.52 162.229 L2101.24 162.229 L2101.24 136.303 L2105.52 136.303 L2105.52 140.331 Q2107.05 137.993 2109.11 136.835 Q2111.19 135.678 2113.9 135.678 Q2118.37 135.678 2120.66 138.456 Q2122.95 141.21 2122.95 146.581 Z" fill="#000000" fill-rule="evenodd" fill-opacity="1" /><path clip-path="url(#clip800)" d="M2153.62 148.201 L2153.62 150.284 L2134.04 150.284 Q2134.32 154.682 2136.68 156.997 Q2139.06 159.289 2143.3 159.289 Q2145.75 159.289 2148.04 158.687 Q2150.36 158.085 2152.63 156.881 L2152.63 160.909 Q2150.34 161.881 2147.93 162.391 Q2145.52 162.9 2143.04 162.9 Q2136.84 162.9 2133.21 159.289 Q2129.6 155.678 2129.6 149.52 Q2129.6 143.155 2133.02 139.428 Q2136.47 135.678 2142.3 135.678 Q2147.54 135.678 2150.57 139.057 Q2153.62 142.414 2153.62 148.201 M2149.36 146.951 Q2149.32 143.456 2147.4 141.372 Q2145.5 139.289 2142.35 139.289 Q2138.79 139.289 2136.63 141.303 Q2134.5 143.317 2134.18 146.974 L2149.36 146.951 Z" fill="#000000" fill-rule="evenodd" fill-opacity="1" /><path clip-path="url(#clip800)" d="M2175.64 140.284 Q2174.92 139.868 2174.06 139.682 Q2173.23 139.474 2172.21 139.474 Q2168.6 139.474 2166.66 141.835 Q2164.73 144.173 2164.73 148.571 L2164.73 162.229 L2160.45 162.229 L2160.45 136.303 L2164.73 136.303 L2164.73 140.331 Q2166.08 137.969 2168.23 136.835 Q2170.38 135.678 2173.46 135.678 Q2173.9 135.678 2174.43 135.747 Q2174.97 135.794 2175.61 135.909 L2175.64 140.284 Z" fill="#000000" fill-rule="evenodd" fill-opacity="1" /><path clip-path="url(#clip800)" d="M2196.33 148.965 Q2196.33 144.335 2194.41 141.789 Q2192.51 139.243 2189.06 139.243 Q2185.64 139.243 2183.72 141.789 Q2181.82 144.335 2181.82 148.965 Q2181.82 153.571 2183.72 156.118 Q2185.64 158.664 2189.06 158.664 Q2192.51 158.664 2194.41 156.118 Q2196.33 153.571 2196.33 148.965 M2200.59 159.011 Q2200.59 165.631 2197.65 168.849 Q2194.71 172.09 2188.65 172.09 Q2186.4 172.09 2184.41 171.742 Q2182.42 171.418 2180.54 170.724 L2180.54 166.58 Q2182.42 167.599 2184.25 168.085 Q2186.08 168.571 2187.98 168.571 Q2192.17 168.571 2194.25 166.372 Q2196.33 164.196 2196.33 159.775 L2196.33 157.668 Q2195.01 159.96 2192.95 161.094 Q2190.89 162.229 2188.02 162.229 Q2183.25 162.229 2180.34 158.594 Q2177.42 154.96 2177.42 148.965 Q2177.42 142.946 2180.34 139.312 Q2183.25 135.678 2188.02 135.678 Q2190.89 135.678 2192.95 136.812 Q2195.01 137.946 2196.33 140.238 L2196.33 136.303 L2200.59 136.303 L2200.59 159.011 Z" fill="#000000" fill-rule="evenodd" fill-opacity="1" /><path clip-path="url(#clip800)" d="M2220.15 164.636 Q2218.35 169.266 2216.63 170.678 Q2214.92 172.09 2212.05 172.09 L2208.65 172.09 L2208.65 168.525 L2211.15 168.525 Q2212.91 168.525 2213.88 167.692 Q2214.85 166.858 2216.03 163.756 L2216.79 161.812 L2206.31 136.303 L2210.82 136.303 L2218.92 156.581 L2227.03 136.303 L2231.54 136.303 L2220.15 164.636 Z" fill="#000000" fill-rule="evenodd" fill-opacity="1" /></svg>
