<?xml version="1.0" encoding="utf-8"?>
<svg xmlns="http://www.w3.org/2000/svg" xmlns:xlink="http://www.w3.org/1999/xlink" width="600" height="400" viewBox="0 0 2400 1600">
<defs>
  <clipPath id="clip190">
    <rect x="0" y="0" width="2400" height="1600"/>
  </clipPath>
</defs>
<path clip-path="url(#clip190)" d="
M0 1600 L2400 1600 L2400 0 L0 0  Z
  " fill="#ffffff" fill-rule="evenodd" fill-opacity="1"/>
<defs>
  <clipPath id="clip191">
    <rect x="480" y="0" width="1681" height="1600"/>
  </clipPath>
</defs>
<path clip-path="url(#clip190)" d="
M193.936 1423.18 L2352.76 1423.18 L2352.76 123.472 L193.936 123.472  Z
  " fill="#ffffff" fill-rule="evenodd" fill-opacity="1"/>
<defs>
  <clipPath id="clip192">
    <rect x="193" y="123" width="2160" height="1301"/>
  </clipPath>
</defs>
<polyline clip-path="url(#clip192)" style="stroke:#000000; stroke-linecap:butt; stroke-linejoin:round; stroke-width:2; stroke-opacity:0.1; fill:none" points="
  255.035,1423.18 255.035,123.472 
  "/>
<polyline clip-path="url(#clip192)" style="stroke:#000000; stroke-linecap:butt; stroke-linejoin:round; stroke-width:2; stroke-opacity:0.1; fill:none" points="
  764.19,1423.18 764.19,123.472 
  "/>
<polyline clip-path="url(#clip192)" style="stroke:#000000; stroke-linecap:butt; stroke-linejoin:round; stroke-width:2; stroke-opacity:0.1; fill:none" points="
  1273.35,1423.18 1273.35,123.472 
  "/>
<polyline clip-path="url(#clip192)" style="stroke:#000000; stroke-linecap:butt; stroke-linejoin:round; stroke-width:2; stroke-opacity:0.1; fill:none" points="
  1782.5,1423.18 1782.5,123.472 
  "/>
<polyline clip-path="url(#clip192)" style="stroke:#000000; stroke-linecap:butt; stroke-linejoin:round; stroke-width:2; stroke-opacity:0.1; fill:none" points="
  2291.66,1423.18 2291.66,123.472 
  "/>
<polyline clip-path="url(#clip190)" style="stroke:#000000; stroke-linecap:butt; stroke-linejoin:round; stroke-width:4; stroke-opacity:1; fill:none" points="
  193.936,1423.18 2352.76,1423.18 
  "/>
<polyline clip-path="url(#clip190)" style="stroke:#000000; stroke-linecap:butt; stroke-linejoin:round; stroke-width:4; stroke-opacity:1; fill:none" points="
  255.035,1423.18 255.035,1404.28 
  "/>
<polyline clip-path="url(#clip190)" style="stroke:#000000; stroke-linecap:butt; stroke-linejoin:round; stroke-width:4; stroke-opacity:1; fill:none" points="
  764.19,1423.18 764.19,1404.28 
  "/>
<polyline clip-path="url(#clip190)" style="stroke:#000000; stroke-linecap:butt; stroke-linejoin:round; stroke-width:4; stroke-opacity:1; fill:none" points="
  1273.35,1423.18 1273.35,1404.28 
  "/>
<polyline clip-path="url(#clip190)" style="stroke:#000000; stroke-linecap:butt; stroke-linejoin:round; stroke-width:4; stroke-opacity:1; fill:none" points="
  1782.5,1423.18 1782.5,1404.28 
  "/>
<polyline clip-path="url(#clip190)" style="stroke:#000000; stroke-linecap:butt; stroke-linejoin:round; stroke-width:4; stroke-opacity:1; fill:none" points="
  2291.66,1423.18 2291.66,1404.28 
  "/>
<path clip-path="url(#clip190)" d="M201.563 1468.75 L231.239 1468.75 L231.239 1472.69 L201.563 1472.69 L201.563 1468.75 Z" fill="#000000" fill-rule="evenodd" fill-opacity="1" /><path clip-path="url(#clip190)" d="M242.141 1481.64 L249.78 1481.64 L249.78 1455.28 L241.47 1456.95 L241.47 1452.69 L249.734 1451.02 L254.41 1451.02 L254.41 1481.64 L262.049 1481.64 L262.049 1485.58 L242.141 1485.58 L242.141 1481.64 Z" fill="#000000" fill-rule="evenodd" fill-opacity="1" /><path clip-path="url(#clip190)" d="M271.493 1479.7 L276.377 1479.7 L276.377 1485.58 L271.493 1485.58 L271.493 1479.7 Z" fill="#000000" fill-rule="evenodd" fill-opacity="1" /><path clip-path="url(#clip190)" d="M296.562 1454.1 Q292.951 1454.1 291.122 1457.66 Q289.317 1461.2 289.317 1468.33 Q289.317 1475.44 291.122 1479.01 Q292.951 1482.55 296.562 1482.55 Q300.196 1482.55 302.002 1479.01 Q303.831 1475.44 303.831 1468.33 Q303.831 1461.2 302.002 1457.66 Q300.196 1454.1 296.562 1454.1 M296.562 1450.39 Q302.372 1450.39 305.428 1455 Q308.507 1459.58 308.507 1468.33 Q308.507 1477.06 305.428 1481.67 Q302.372 1486.25 296.562 1486.25 Q290.752 1486.25 287.673 1481.67 Q284.618 1477.06 284.618 1468.33 Q284.618 1459.58 287.673 1455 Q290.752 1450.39 296.562 1450.39 Z" fill="#000000" fill-rule="evenodd" fill-opacity="1" /><path clip-path="url(#clip190)" d="M711.216 1468.75 L740.892 1468.75 L740.892 1472.69 L711.216 1472.69 L711.216 1468.75 Z" fill="#000000" fill-rule="evenodd" fill-opacity="1" /><path clip-path="url(#clip190)" d="M760.984 1454.1 Q757.373 1454.1 755.545 1457.66 Q753.739 1461.2 753.739 1468.33 Q753.739 1475.44 755.545 1479.01 Q757.373 1482.55 760.984 1482.55 Q764.619 1482.55 766.424 1479.01 Q768.253 1475.44 768.253 1468.33 Q768.253 1461.2 766.424 1457.66 Q764.619 1454.1 760.984 1454.1 M760.984 1450.39 Q766.794 1450.39 769.85 1455 Q772.929 1459.58 772.929 1468.33 Q772.929 1477.06 769.85 1481.67 Q766.794 1486.25 760.984 1486.25 Q755.174 1486.25 752.095 1481.67 Q749.04 1477.06 749.04 1468.33 Q749.04 1459.58 752.095 1455 Q755.174 1450.39 760.984 1450.39 Z" fill="#000000" fill-rule="evenodd" fill-opacity="1" /><path clip-path="url(#clip190)" d="M781.146 1479.7 L786.03 1479.7 L786.03 1485.58 L781.146 1485.58 L781.146 1479.7 Z" fill="#000000" fill-rule="evenodd" fill-opacity="1" /><path clip-path="url(#clip190)" d="M796.262 1451.02 L814.618 1451.02 L814.618 1454.96 L800.544 1454.96 L800.544 1463.43 Q801.563 1463.08 802.581 1462.92 Q803.6 1462.73 804.618 1462.73 Q810.405 1462.73 813.785 1465.9 Q817.165 1469.08 817.165 1474.49 Q817.165 1480.07 813.692 1483.17 Q810.22 1486.25 803.901 1486.25 Q801.725 1486.25 799.456 1485.88 Q797.211 1485.51 794.804 1484.77 L794.804 1480.07 Q796.887 1481.2 799.109 1481.76 Q801.331 1482.32 803.808 1482.32 Q807.813 1482.32 810.151 1480.21 Q812.489 1478.1 812.489 1474.49 Q812.489 1470.88 810.151 1468.77 Q807.813 1466.67 803.808 1466.67 Q801.933 1466.67 800.058 1467.08 Q798.206 1467.5 796.262 1468.38 L796.262 1451.02 Z" fill="#000000" fill-rule="evenodd" fill-opacity="1" /><path clip-path="url(#clip190)" d="M1250.73 1454.1 Q1247.12 1454.1 1245.29 1457.66 Q1243.49 1461.2 1243.49 1468.33 Q1243.49 1475.44 1245.29 1479.01 Q1247.12 1482.55 1250.73 1482.55 Q1254.36 1482.55 1256.17 1479.01 Q1258 1475.44 1258 1468.33 Q1258 1461.2 1256.17 1457.66 Q1254.36 1454.1 1250.73 1454.1 M1250.73 1450.39 Q1256.54 1450.39 1259.6 1455 Q1262.67 1459.58 1262.67 1468.33 Q1262.67 1477.06 1259.6 1481.67 Q1256.54 1486.25 1250.73 1486.25 Q1244.92 1486.25 1241.84 1481.67 Q1238.79 1477.06 1238.79 1468.33 Q1238.79 1459.58 1241.84 1455 Q1244.92 1450.39 1250.73 1450.39 Z" fill="#000000" fill-rule="evenodd" fill-opacity="1" /><path clip-path="url(#clip190)" d="M1270.89 1479.7 L1275.78 1479.7 L1275.78 1485.58 L1270.89 1485.58 L1270.89 1479.7 Z" fill="#000000" fill-rule="evenodd" fill-opacity="1" /><path clip-path="url(#clip190)" d="M1295.96 1454.1 Q1292.35 1454.1 1290.52 1457.66 Q1288.72 1461.2 1288.72 1468.33 Q1288.72 1475.44 1290.52 1479.01 Q1292.35 1482.55 1295.96 1482.55 Q1299.6 1482.55 1301.4 1479.01 Q1303.23 1475.44 1303.23 1468.33 Q1303.23 1461.2 1301.4 1457.66 Q1299.6 1454.1 1295.96 1454.1 M1295.96 1450.39 Q1301.77 1450.39 1304.83 1455 Q1307.91 1459.58 1307.91 1468.33 Q1307.91 1477.06 1304.83 1481.67 Q1301.77 1486.25 1295.96 1486.25 Q1290.15 1486.25 1287.07 1481.67 Q1284.02 1477.06 1284.02 1468.33 Q1284.02 1459.58 1287.07 1455 Q1290.15 1450.39 1295.96 1450.39 Z" fill="#000000" fill-rule="evenodd" fill-opacity="1" /><path clip-path="url(#clip190)" d="M1760.38 1454.1 Q1756.77 1454.1 1754.94 1457.66 Q1753.14 1461.2 1753.14 1468.33 Q1753.14 1475.44 1754.94 1479.01 Q1756.77 1482.55 1760.38 1482.55 Q1764.02 1482.55 1765.82 1479.01 Q1767.65 1475.44 1767.65 1468.33 Q1767.65 1461.2 1765.82 1457.66 Q1764.02 1454.1 1760.38 1454.1 M1760.38 1450.39 Q1766.19 1450.39 1769.25 1455 Q1772.33 1459.58 1772.33 1468.33 Q1772.33 1477.06 1769.25 1481.67 Q1766.19 1486.25 1760.38 1486.25 Q1754.57 1486.25 1751.49 1481.67 Q1748.44 1477.06 1748.44 1468.33 Q1748.44 1459.58 1751.49 1455 Q1754.57 1450.39 1760.38 1450.39 Z" fill="#000000" fill-rule="evenodd" fill-opacity="1" /><path clip-path="url(#clip190)" d="M1780.55 1479.7 L1785.43 1479.7 L1785.43 1485.58 L1780.55 1485.58 L1780.55 1479.7 Z" fill="#000000" fill-rule="evenodd" fill-opacity="1" /><path clip-path="url(#clip190)" d="M1795.66 1451.02 L1814.02 1451.02 L1814.02 1454.96 L1799.94 1454.96 L1799.94 1463.43 Q1800.96 1463.08 1801.98 1462.92 Q1803 1462.73 1804.02 1462.73 Q1809.8 1462.73 1813.18 1465.9 Q1816.56 1469.08 1816.56 1474.49 Q1816.56 1480.07 1813.09 1483.17 Q1809.62 1486.25 1803.3 1486.25 Q1801.12 1486.25 1798.86 1485.88 Q1796.61 1485.51 1794.2 1484.77 L1794.2 1480.07 Q1796.29 1481.2 1798.51 1481.76 Q1800.73 1482.32 1803.21 1482.32 Q1807.21 1482.32 1809.55 1480.21 Q1811.89 1478.1 1811.89 1474.49 Q1811.89 1470.88 1809.55 1468.77 Q1807.21 1466.67 1803.21 1466.67 Q1801.33 1466.67 1799.46 1467.08 Q1797.61 1467.5 1795.66 1468.38 L1795.66 1451.02 Z" fill="#000000" fill-rule="evenodd" fill-opacity="1" /><path clip-path="url(#clip190)" d="M2258.81 1481.64 L2266.45 1481.64 L2266.45 1455.28 L2258.14 1456.95 L2258.14 1452.69 L2266.4 1451.02 L2271.08 1451.02 L2271.08 1481.64 L2278.72 1481.64 L2278.72 1485.58 L2258.81 1485.58 L2258.81 1481.64 Z" fill="#000000" fill-rule="evenodd" fill-opacity="1" /><path clip-path="url(#clip190)" d="M2288.16 1479.7 L2293.05 1479.7 L2293.05 1485.58 L2288.16 1485.58 L2288.16 1479.7 Z" fill="#000000" fill-rule="evenodd" fill-opacity="1" /><path clip-path="url(#clip190)" d="M2313.23 1454.1 Q2309.62 1454.1 2307.79 1457.66 Q2305.99 1461.2 2305.99 1468.33 Q2305.99 1475.44 2307.79 1479.01 Q2309.62 1482.55 2313.23 1482.55 Q2316.87 1482.55 2318.67 1479.01 Q2320.5 1475.44 2320.5 1468.33 Q2320.5 1461.2 2318.67 1457.66 Q2316.87 1454.1 2313.23 1454.1 M2313.23 1450.39 Q2319.04 1450.39 2322.1 1455 Q2325.18 1459.58 2325.18 1468.33 Q2325.18 1477.06 2322.1 1481.67 Q2319.04 1486.25 2313.23 1486.25 Q2307.42 1486.25 2304.34 1481.67 Q2301.29 1477.06 2301.29 1468.33 Q2301.29 1459.58 2304.34 1455 Q2307.42 1450.39 2313.23 1450.39 Z" fill="#000000" fill-rule="evenodd" fill-opacity="1" /><path clip-path="url(#clip190)" d="M1289.96 1532.4 L1277.07 1549.74 L1290.63 1568.04 L1283.72 1568.04 L1273.35 1554.04 L1262.97 1568.04 L1256.06 1568.04 L1269.91 1549.39 L1257.24 1532.4 L1264.15 1532.4 L1273.6 1545.1 L1283.05 1532.4 L1289.96 1532.4 Z" fill="#000000" fill-rule="evenodd" fill-opacity="1" /><polyline clip-path="url(#clip192)" style="stroke:#000000; stroke-linecap:butt; stroke-linejoin:round; stroke-width:2; stroke-opacity:0.1; fill:none" points="
  193.936,1386.4 2352.76,1386.4 
  "/>
<polyline clip-path="url(#clip192)" style="stroke:#000000; stroke-linecap:butt; stroke-linejoin:round; stroke-width:2; stroke-opacity:0.1; fill:none" points="
  193.936,1079.84 2352.76,1079.84 
  "/>
<polyline clip-path="url(#clip192)" style="stroke:#000000; stroke-linecap:butt; stroke-linejoin:round; stroke-width:2; stroke-opacity:0.1; fill:none" points="
  193.936,773.289 2352.76,773.289 
  "/>
<polyline clip-path="url(#clip192)" style="stroke:#000000; stroke-linecap:butt; stroke-linejoin:round; stroke-width:2; stroke-opacity:0.1; fill:none" points="
  193.936,466.736 2352.76,466.736 
  "/>
<polyline clip-path="url(#clip192)" style="stroke:#000000; stroke-linecap:butt; stroke-linejoin:round; stroke-width:2; stroke-opacity:0.1; fill:none" points="
  193.936,160.183 2352.76,160.183 
  "/>
<polyline clip-path="url(#clip190)" style="stroke:#000000; stroke-linecap:butt; stroke-linejoin:round; stroke-width:4; stroke-opacity:1; fill:none" points="
  193.936,1423.18 193.936,123.472 
  "/>
<polyline clip-path="url(#clip190)" style="stroke:#000000; stroke-linecap:butt; stroke-linejoin:round; stroke-width:4; stroke-opacity:1; fill:none" points="
  193.936,1386.4 212.834,1386.4 
  "/>
<polyline clip-path="url(#clip190)" style="stroke:#000000; stroke-linecap:butt; stroke-linejoin:round; stroke-width:4; stroke-opacity:1; fill:none" points="
  193.936,1079.84 212.834,1079.84 
  "/>
<polyline clip-path="url(#clip190)" style="stroke:#000000; stroke-linecap:butt; stroke-linejoin:round; stroke-width:4; stroke-opacity:1; fill:none" points="
  193.936,773.289 212.834,773.289 
  "/>
<polyline clip-path="url(#clip190)" style="stroke:#000000; stroke-linecap:butt; stroke-linejoin:round; stroke-width:4; stroke-opacity:1; fill:none" points="
  193.936,466.736 212.834,466.736 
  "/>
<polyline clip-path="url(#clip190)" style="stroke:#000000; stroke-linecap:butt; stroke-linejoin:round; stroke-width:4; stroke-opacity:1; fill:none" points="
  193.936,160.183 212.834,160.183 
  "/>
<path clip-path="url(#clip190)" d="M50.9921 1386.85 L80.6679 1386.85 L80.6679 1390.78 L50.9921 1390.78 L50.9921 1386.85 Z" fill="#000000" fill-rule="evenodd" fill-opacity="1" /><path clip-path="url(#clip190)" d="M91.5706 1399.74 L99.2095 1399.74 L99.2095 1373.37 L90.8993 1375.04 L90.8993 1370.78 L99.1632 1369.12 L103.839 1369.12 L103.839 1399.74 L111.478 1399.74 L111.478 1403.68 L91.5706 1403.68 L91.5706 1399.74 Z" fill="#000000" fill-rule="evenodd" fill-opacity="1" /><path clip-path="url(#clip190)" d="M120.922 1397.8 L125.807 1397.8 L125.807 1403.68 L120.922 1403.68 L120.922 1397.8 Z" fill="#000000" fill-rule="evenodd" fill-opacity="1" /><path clip-path="url(#clip190)" d="M145.992 1372.19 Q142.381 1372.19 140.552 1375.76 Q138.746 1379.3 138.746 1386.43 Q138.746 1393.54 140.552 1397.1 Q142.381 1400.64 145.992 1400.64 Q149.626 1400.64 151.431 1397.1 Q153.26 1393.54 153.26 1386.43 Q153.26 1379.3 151.431 1375.76 Q149.626 1372.19 145.992 1372.19 M145.992 1368.49 Q151.802 1368.49 154.857 1373.1 Q157.936 1377.68 157.936 1386.43 Q157.936 1395.16 154.857 1399.76 Q151.802 1404.35 145.992 1404.35 Q140.181 1404.35 137.103 1399.76 Q134.047 1395.16 134.047 1386.43 Q134.047 1377.68 137.103 1373.1 Q140.181 1368.49 145.992 1368.49 Z" fill="#000000" fill-rule="evenodd" fill-opacity="1" /><path clip-path="url(#clip190)" d="M51.9875 1080.29 L81.6633 1080.29 L81.6633 1084.23 L51.9875 1084.23 L51.9875 1080.29 Z" fill="#000000" fill-rule="evenodd" fill-opacity="1" /><path clip-path="url(#clip190)" d="M101.756 1065.64 Q98.1447 1065.64 96.316 1069.21 Q94.5104 1072.75 94.5104 1079.88 Q94.5104 1086.98 96.316 1090.55 Q98.1447 1094.09 101.756 1094.09 Q105.39 1094.09 107.196 1090.55 Q109.024 1086.98 109.024 1079.88 Q109.024 1072.75 107.196 1069.21 Q105.39 1065.64 101.756 1065.64 M101.756 1061.94 Q107.566 1061.94 110.621 1066.54 Q113.7 1071.13 113.7 1079.88 Q113.7 1088.6 110.621 1093.21 Q107.566 1097.79 101.756 1097.79 Q95.9456 1097.79 92.8669 1093.21 Q89.8114 1088.6 89.8114 1079.88 Q89.8114 1071.13 92.8669 1066.54 Q95.9456 1061.94 101.756 1061.94 Z" fill="#000000" fill-rule="evenodd" fill-opacity="1" /><path clip-path="url(#clip190)" d="M121.918 1091.24 L126.802 1091.24 L126.802 1097.12 L121.918 1097.12 L121.918 1091.24 Z" fill="#000000" fill-rule="evenodd" fill-opacity="1" /><path clip-path="url(#clip190)" d="M137.033 1062.56 L155.39 1062.56 L155.39 1066.5 L141.316 1066.5 L141.316 1074.97 Q142.334 1074.62 143.353 1074.46 Q144.371 1074.28 145.39 1074.28 Q151.177 1074.28 154.556 1077.45 Q157.936 1080.62 157.936 1086.03 Q157.936 1091.61 154.464 1094.72 Q150.992 1097.79 144.672 1097.79 Q142.496 1097.79 140.228 1097.42 Q137.982 1097.05 135.575 1096.31 L135.575 1091.61 Q137.658 1092.75 139.881 1093.3 Q142.103 1093.86 144.58 1093.86 Q148.584 1093.86 150.922 1091.75 Q153.26 1089.65 153.26 1086.03 Q153.26 1082.42 150.922 1080.32 Q148.584 1078.21 144.58 1078.21 Q142.705 1078.21 140.83 1078.63 Q138.978 1079.04 137.033 1079.92 L137.033 1062.56 Z" fill="#000000" fill-rule="evenodd" fill-opacity="1" /><path clip-path="url(#clip190)" d="M100.76 759.088 Q97.1493 759.088 95.3206 762.653 Q93.515 766.194 93.515 773.324 Q93.515 780.43 95.3206 783.995 Q97.1493 787.537 100.76 787.537 Q104.395 787.537 106.2 783.995 Q108.029 780.43 108.029 773.324 Q108.029 766.194 106.2 762.653 Q104.395 759.088 100.76 759.088 M100.76 755.384 Q106.571 755.384 109.626 759.991 Q112.705 764.574 112.705 773.324 Q112.705 782.051 109.626 786.657 Q106.571 791.24 100.76 791.24 Q94.9502 791.24 91.8715 786.657 Q88.816 782.051 88.816 773.324 Q88.816 764.574 91.8715 759.991 Q94.9502 755.384 100.76 755.384 Z" fill="#000000" fill-rule="evenodd" fill-opacity="1" /><path clip-path="url(#clip190)" d="M120.922 784.69 L125.807 784.69 L125.807 790.569 L120.922 790.569 L120.922 784.69 Z" fill="#000000" fill-rule="evenodd" fill-opacity="1" /><path clip-path="url(#clip190)" d="M145.992 759.088 Q142.381 759.088 140.552 762.653 Q138.746 766.194 138.746 773.324 Q138.746 780.43 140.552 783.995 Q142.381 787.537 145.992 787.537 Q149.626 787.537 151.431 783.995 Q153.26 780.43 153.26 773.324 Q153.26 766.194 151.431 762.653 Q149.626 759.088 145.992 759.088 M145.992 755.384 Q151.802 755.384 154.857 759.991 Q157.936 764.574 157.936 773.324 Q157.936 782.051 154.857 786.657 Q151.802 791.24 145.992 791.24 Q140.181 791.24 137.103 786.657 Q134.047 782.051 134.047 773.324 Q134.047 764.574 137.103 759.991 Q140.181 755.384 145.992 755.384 Z" fill="#000000" fill-rule="evenodd" fill-opacity="1" /><path clip-path="url(#clip190)" d="M101.756 452.535 Q98.1447 452.535 96.316 456.099 Q94.5104 459.641 94.5104 466.771 Q94.5104 473.877 96.316 477.442 Q98.1447 480.983 101.756 480.983 Q105.39 480.983 107.196 477.442 Q109.024 473.877 109.024 466.771 Q109.024 459.641 107.196 456.099 Q105.39 452.535 101.756 452.535 M101.756 448.831 Q107.566 448.831 110.621 453.437 Q113.7 458.021 113.7 466.771 Q113.7 475.497 110.621 480.104 Q107.566 484.687 101.756 484.687 Q95.9456 484.687 92.8669 480.104 Q89.8114 475.497 89.8114 466.771 Q89.8114 458.021 92.8669 453.437 Q95.9456 448.831 101.756 448.831 Z" fill="#000000" fill-rule="evenodd" fill-opacity="1" /><path clip-path="url(#clip190)" d="M121.918 478.136 L126.802 478.136 L126.802 484.016 L121.918 484.016 L121.918 478.136 Z" fill="#000000" fill-rule="evenodd" fill-opacity="1" /><path clip-path="url(#clip190)" d="M137.033 449.456 L155.39 449.456 L155.39 453.391 L141.316 453.391 L141.316 461.863 Q142.334 461.516 143.353 461.354 Q144.371 461.169 145.39 461.169 Q151.177 461.169 154.556 464.34 Q157.936 467.511 157.936 472.928 Q157.936 478.507 154.464 481.608 Q150.992 484.687 144.672 484.687 Q142.496 484.687 140.228 484.317 Q137.982 483.946 135.575 483.206 L135.575 478.507 Q137.658 479.641 139.881 480.196 Q142.103 480.752 144.58 480.752 Q148.584 480.752 150.922 478.646 Q153.26 476.539 153.26 472.928 Q153.26 469.317 150.922 467.21 Q148.584 465.104 144.58 465.104 Q142.705 465.104 140.83 465.521 Q138.978 465.937 137.033 466.817 L137.033 449.456 Z" fill="#000000" fill-rule="evenodd" fill-opacity="1" /><path clip-path="url(#clip190)" d="M91.5706 173.527 L99.2095 173.527 L99.2095 147.162 L90.8993 148.829 L90.8993 144.569 L99.1632 142.903 L103.839 142.903 L103.839 173.527 L111.478 173.527 L111.478 177.463 L91.5706 177.463 L91.5706 173.527 Z" fill="#000000" fill-rule="evenodd" fill-opacity="1" /><path clip-path="url(#clip190)" d="M120.922 171.583 L125.807 171.583 L125.807 177.463 L120.922 177.463 L120.922 171.583 Z" fill="#000000" fill-rule="evenodd" fill-opacity="1" /><path clip-path="url(#clip190)" d="M145.992 145.981 Q142.381 145.981 140.552 149.546 Q138.746 153.088 138.746 160.217 Q138.746 167.324 140.552 170.889 Q142.381 174.43 145.992 174.43 Q149.626 174.43 151.431 170.889 Q153.26 167.324 153.26 160.217 Q153.26 153.088 151.431 149.546 Q149.626 145.981 145.992 145.981 M145.992 142.278 Q151.802 142.278 154.857 146.884 Q157.936 151.467 157.936 160.217 Q157.936 168.944 154.857 173.551 Q151.802 178.134 145.992 178.134 Q140.181 178.134 137.103 173.551 Q134.047 168.944 134.047 160.217 Q134.047 151.467 137.103 146.884 Q140.181 142.278 145.992 142.278 Z" fill="#000000" fill-rule="evenodd" fill-opacity="1" /><path clip-path="url(#clip190)" d="M1027.48 54.671 L1027.48 27.2059 L1034.93 27.2059 L1034.93 54.3874 Q1034.93 60.8284 1037.44 64.0691 Q1039.95 67.2693 1044.98 67.2693 Q1051.01 67.2693 1054.5 63.421 Q1058.02 59.5726 1058.02 52.9291 L1058.02 27.2059 L1065.47 27.2059 L1065.47 72.576 L1058.02 72.576 L1058.02 65.6084 Q1055.31 69.7404 1051.7 71.7658 Q1048.14 73.7508 1043.4 73.7508 Q1035.58 73.7508 1031.53 68.8897 Q1027.48 64.0286 1027.48 54.671 M1046.23 26.1121 L1046.23 26.1121 Z" fill="#000000" fill-rule="evenodd" fill-opacity="1" /><path clip-path="url(#clip190)" d="M1098.73 9.62495 Q1093.3 18.942 1090.67 28.0566 Q1088.04 37.1711 1088.04 46.5287 Q1088.04 55.8863 1090.67 65.0818 Q1093.34 74.2369 1098.73 83.5134 L1092.25 83.5134 Q1086.17 73.9938 1083.14 64.7983 Q1080.14 55.6027 1080.14 46.5287 Q1080.14 37.4952 1083.14 28.3401 Q1086.13 19.1851 1092.25 9.62495 L1098.73 9.62495 Z" fill="#000000" fill-rule="evenodd" fill-opacity="1" /><path clip-path="url(#clip190)" d="M1150.91 27.2059 L1134.5 49.2833 L1151.76 72.576 L1142.97 72.576 L1129.76 54.752 L1116.56 72.576 L1107.77 72.576 L1125.39 48.8377 L1109.26 27.2059 L1118.05 27.2059 L1130.09 43.369 L1142.12 27.2059 L1150.91 27.2059 Z" fill="#000000" fill-rule="evenodd" fill-opacity="1" /><path clip-path="url(#clip190)" d="M1164.19 62.2867 L1172.74 62.2867 L1172.74 69.2543 L1166.1 82.2172 L1160.87 82.2172 L1164.19 69.2543 L1164.19 62.2867 Z" fill="#000000" fill-rule="evenodd" fill-opacity="1" /><path clip-path="url(#clip190)" d="M1222.41 14.324 L1222.41 27.2059 L1237.76 27.2059 L1237.76 32.9987 L1222.41 32.9987 L1222.41 57.6282 Q1222.41 63.1779 1223.9 64.7578 Q1225.44 66.3376 1230.1 66.3376 L1237.76 66.3376 L1237.76 72.576 L1230.1 72.576 Q1221.47 72.576 1218.19 69.3758 Q1214.91 66.1351 1214.91 57.6282 L1214.91 32.9987 L1209.44 32.9987 L1209.44 27.2059 L1214.91 27.2059 L1214.91 14.324 L1222.41 14.324 Z" fill="#000000" fill-rule="evenodd" fill-opacity="1" /><path clip-path="url(#clip190)" d="M1248.53 34.9026 L1300.47 34.9026 L1300.47 41.7081 L1248.53 41.7081 L1248.53 34.9026 M1248.53 51.4303 L1300.47 51.4303 L1300.47 58.3168 L1248.53 58.3168 L1248.53 51.4303 Z" fill="#000000" fill-rule="evenodd" fill-opacity="1" /><path clip-path="url(#clip190)" d="M1340.61 19.2256 L1319.95 51.5113 L1340.61 51.5113 L1340.61 19.2256 M1338.46 12.096 L1348.75 12.096 L1348.75 51.5113 L1357.38 51.5113 L1357.38 58.3168 L1348.75 58.3168 L1348.75 72.576 L1340.61 72.576 L1340.61 58.3168 L1313.31 58.3168 L1313.31 50.4176 L1338.46 12.096 Z" fill="#000000" fill-rule="evenodd" fill-opacity="1" /><path clip-path="url(#clip190)" d="M1370.91 62.2867 L1379.46 62.2867 L1379.46 72.576 L1370.91 72.576 L1370.91 62.2867 Z" fill="#000000" fill-rule="evenodd" fill-opacity="1" /><path clip-path="url(#clip190)" d="M1414.78 17.4837 Q1408.46 17.4837 1405.26 23.7221 Q1402.1 29.92 1402.1 42.3968 Q1402.1 54.833 1405.26 61.0714 Q1408.46 67.2693 1414.78 67.2693 Q1421.14 67.2693 1424.3 61.0714 Q1427.5 54.833 1427.5 42.3968 Q1427.5 29.92 1424.3 23.7221 Q1421.14 17.4837 1414.78 17.4837 M1414.78 11.0023 Q1424.95 11.0023 1430.3 19.0636 Q1435.69 27.0843 1435.69 42.3968 Q1435.69 57.6687 1430.3 65.73 Q1424.95 73.7508 1414.78 73.7508 Q1404.62 73.7508 1399.23 65.73 Q1393.88 57.6687 1393.88 42.3968 Q1393.88 27.0843 1399.23 19.0636 Q1404.62 11.0023 1414.78 11.0023 Z" fill="#000000" fill-rule="evenodd" fill-opacity="1" /><path clip-path="url(#clip190)" d="M1467.57 17.4837 Q1461.25 17.4837 1458.05 23.7221 Q1454.89 29.92 1454.89 42.3968 Q1454.89 54.833 1458.05 61.0714 Q1461.25 67.2693 1467.57 67.2693 Q1473.93 67.2693 1477.09 61.0714 Q1480.29 54.833 1480.29 42.3968 Q1480.29 29.92 1477.09 23.7221 Q1473.93 17.4837 1467.57 17.4837 M1467.57 11.0023 Q1477.73 11.0023 1483.08 19.0636 Q1488.47 27.0843 1488.47 42.3968 Q1488.47 57.6687 1483.08 65.73 Q1477.73 73.7508 1467.57 73.7508 Q1457.4 73.7508 1452.01 65.73 Q1446.66 57.6687 1446.66 42.3968 Q1446.66 27.0843 1452.01 19.0636 Q1457.4 11.0023 1467.57 11.0023 Z" fill="#000000" fill-rule="evenodd" fill-opacity="1" /><path clip-path="url(#clip190)" d="M1500.62 9.62495 L1507.1 9.62495 Q1513.18 19.1851 1516.18 28.3401 Q1519.22 37.4952 1519.22 46.5287 Q1519.22 55.6027 1516.18 64.7983 Q1513.18 73.9938 1507.1 83.5134 L1500.62 83.5134 Q1506.01 74.2369 1508.64 65.0818 Q1511.32 55.8863 1511.32 46.5287 Q1511.32 37.1711 1508.64 28.0566 Q1506.01 18.942 1500.62 9.62495 Z" fill="#000000" fill-rule="evenodd" fill-opacity="1" /><circle clip-path="url(#clip192)" cx="255.035" cy="1184.1" r="14" fill="#009af9" fill-rule="evenodd" fill-opacity="1" stroke="#000000" stroke-opacity="1" stroke-width="3.2"/>
<circle clip-path="url(#clip192)" cx="318.679" cy="1176.21" r="14" fill="#009af9" fill-rule="evenodd" fill-opacity="1" stroke="#000000" stroke-opacity="1" stroke-width="3.2"/>
<circle clip-path="url(#clip192)" cx="382.324" cy="1152.83" r="14" fill="#009af9" fill-rule="evenodd" fill-opacity="1" stroke="#000000" stroke-opacity="1" stroke-width="3.2"/>
<circle clip-path="url(#clip192)" cx="445.968" cy="1114.87" r="14" fill="#009af9" fill-rule="evenodd" fill-opacity="1" stroke="#000000" stroke-opacity="1" stroke-width="3.2"/>
<circle clip-path="url(#clip192)" cx="509.612" cy="1063.78" r="14" fill="#009af9" fill-rule="evenodd" fill-opacity="1" stroke="#000000" stroke-opacity="1" stroke-width="3.2"/>
<circle clip-path="url(#clip192)" cx="573.257" cy="1001.52" r="14" fill="#009af9" fill-rule="evenodd" fill-opacity="1" stroke="#000000" stroke-opacity="1" stroke-width="3.2"/>
<circle clip-path="url(#clip192)" cx="636.901" cy="930.5" r="14" fill="#009af9" fill-rule="evenodd" fill-opacity="1" stroke="#000000" stroke-opacity="1" stroke-width="3.2"/>
<circle clip-path="url(#clip192)" cx="700.546" cy="853.435" r="14" fill="#009af9" fill-rule="evenodd" fill-opacity="1" stroke="#000000" stroke-opacity="1" stroke-width="3.2"/>
<circle clip-path="url(#clip192)" cx="764.19" cy="773.289" r="14" fill="#009af9" fill-rule="evenodd" fill-opacity="1" stroke="#000000" stroke-opacity="1" stroke-width="3.2"/>
<circle clip-path="url(#clip192)" cx="827.835" cy="693.143" r="14" fill="#009af9" fill-rule="evenodd" fill-opacity="1" stroke="#000000" stroke-opacity="1" stroke-width="3.2"/>
<circle clip-path="url(#clip192)" cx="891.479" cy="616.078" r="14" fill="#009af9" fill-rule="evenodd" fill-opacity="1" stroke="#000000" stroke-opacity="1" stroke-width="3.2"/>
<circle clip-path="url(#clip192)" cx="955.124" cy="545.054" r="14" fill="#009af9" fill-rule="evenodd" fill-opacity="1" stroke="#000000" stroke-opacity="1" stroke-width="3.2"/>
<circle clip-path="url(#clip192)" cx="1018.77" cy="482.8" r="14" fill="#009af9" fill-rule="evenodd" fill-opacity="1" stroke="#000000" stroke-opacity="1" stroke-width="3.2"/>
<circle clip-path="url(#clip192)" cx="1082.41" cy="431.711" r="14" fill="#009af9" fill-rule="evenodd" fill-opacity="1" stroke="#000000" stroke-opacity="1" stroke-width="3.2"/>
<circle clip-path="url(#clip192)" cx="1146.06" cy="393.747" r="14" fill="#009af9" fill-rule="evenodd" fill-opacity="1" stroke="#000000" stroke-opacity="1" stroke-width="3.2"/>
<circle clip-path="url(#clip192)" cx="1209.7" cy="370.37" r="14" fill="#009af9" fill-rule="evenodd" fill-opacity="1" stroke="#000000" stroke-opacity="1" stroke-width="3.2"/>
<circle clip-path="url(#clip192)" cx="1273.35" cy="362.476" r="14" fill="#009af9" fill-rule="evenodd" fill-opacity="1" stroke="#000000" stroke-opacity="1" stroke-width="3.2"/>
<circle clip-path="url(#clip192)" cx="1336.99" cy="370.37" r="14" fill="#009af9" fill-rule="evenodd" fill-opacity="1" stroke="#000000" stroke-opacity="1" stroke-width="3.2"/>
<circle clip-path="url(#clip192)" cx="1400.63" cy="393.747" r="14" fill="#009af9" fill-rule="evenodd" fill-opacity="1" stroke="#000000" stroke-opacity="1" stroke-width="3.2"/>
<circle clip-path="url(#clip192)" cx="1464.28" cy="431.711" r="14" fill="#009af9" fill-rule="evenodd" fill-opacity="1" stroke="#000000" stroke-opacity="1" stroke-width="3.2"/>
<circle clip-path="url(#clip192)" cx="1527.92" cy="482.8" r="14" fill="#009af9" fill-rule="evenodd" fill-opacity="1" stroke="#000000" stroke-opacity="1" stroke-width="3.2"/>
<circle clip-path="url(#clip192)" cx="1591.57" cy="545.054" r="14" fill="#009af9" fill-rule="evenodd" fill-opacity="1" stroke="#000000" stroke-opacity="1" stroke-width="3.2"/>
<circle clip-path="url(#clip192)" cx="1655.21" cy="616.078" r="14" fill="#009af9" fill-rule="evenodd" fill-opacity="1" stroke="#000000" stroke-opacity="1" stroke-width="3.2"/>
<circle clip-path="url(#clip192)" cx="1718.86" cy="693.143" r="14" fill="#009af9" fill-rule="evenodd" fill-opacity="1" stroke="#000000" stroke-opacity="1" stroke-width="3.2"/>
<circle clip-path="url(#clip192)" cx="1782.5" cy="773.289" r="14" fill="#009af9" fill-rule="evenodd" fill-opacity="1" stroke="#000000" stroke-opacity="1" stroke-width="3.2"/>
<circle clip-path="url(#clip192)" cx="1846.15" cy="853.435" r="14" fill="#009af9" fill-rule="evenodd" fill-opacity="1" stroke="#000000" stroke-opacity="1" stroke-width="3.2"/>
<circle clip-path="url(#clip192)" cx="1909.79" cy="930.5" r="14" fill="#009af9" fill-rule="evenodd" fill-opacity="1" stroke="#000000" stroke-opacity="1" stroke-width="3.2"/>
<circle clip-path="url(#clip192)" cx="1973.43" cy="1001.52" r="14" fill="#009af9" fill-rule="evenodd" fill-opacity="1" stroke="#000000" stroke-opacity="1" stroke-width="3.2"/>
<circle clip-path="url(#clip192)" cx="2037.08" cy="1063.78" r="14" fill="#009af9" fill-rule="evenodd" fill-opacity="1" stroke="#000000" stroke-opacity="1" stroke-width="3.2"/>
<circle clip-path="url(#clip192)" cx="2100.72" cy="1114.87" r="14" fill="#009af9" fill-rule="evenodd" fill-opacity="1" stroke="#000000" stroke-opacity="1" stroke-width="3.2"/>
<circle clip-path="url(#clip192)" cx="2164.37" cy="1152.83" r="14" fill="#009af9" fill-rule="evenodd" fill-opacity="1" stroke="#000000" stroke-opacity="1" stroke-width="3.2"/>
<circle clip-path="url(#clip192)" cx="2228.01" cy="1176.21" r="14" fill="#009af9" fill-rule="evenodd" fill-opacity="1" stroke="#000000" stroke-opacity="1" stroke-width="3.2"/>
<polyline clip-path="url(#clip192)" style="stroke:#e26f46; stroke-linecap:butt; stroke-linejoin:round; stroke-width:12; stroke-opacity:1; fill:none" points="
  255.035,1184.27 260.007,1184.22 264.979,1184.07 269.952,1183.83 274.924,1183.49 320.9,1175.81 366.877,1160.04 412.853,1136.51 458.829,1105.68 486.459,1083.89 
  514.089,1059.85 541.719,1033.73 569.348,1005.72 616.07,954.624 662.791,899.767 764.296,773.155 857.875,656.153 908.038,596.832 958.201,541.728 1016.32,484.887 
  1074.44,437.294 1100.26,419.524 1126.09,403.999 1151.91,390.816 1177.74,380.061 1223.03,367.253 1268.32,362.361 1317.7,366.153 1367.08,379.376 1416.75,401.883 
  1466.43,433.094 1521.35,476.849 1576.27,529.093 1628.52,585.32 1680.78,646.421 1789.45,782.094 1880.92,896.167 1936.76,961.576 1992.6,1021.41 2045.09,1070.99 
  2097.58,1112.78 2139.63,1139.89 2181.68,1160.84 2223.73,1175.27 2265.77,1182.96 2272.24,1183.53 2278.72,1183.94 2285.19,1184.18 2291.66,1184.27 
  "/>
<polyline clip-path="url(#clip192)" style="stroke:#808080; stroke-linecap:butt; stroke-linejoin:round; stroke-width:12; stroke-opacity:1; fill:none" stroke-dasharray="48, 30" points="
  255.035,1386.4 260.007,1386.32 264.979,1386.11 269.952,1385.75 274.924,1385.24 320.9,1373.78 366.877,1350.26 412.853,1315.15 458.829,1269.16 486.459,1236.66 
  514.089,1200.79 541.719,1161.82 569.348,1120.03 616.07,1043.81 662.791,961.972 764.296,773.089 857.875,598.542 908.038,510.046 958.201,427.841 1016.32,343.044 
  1074.44,272.043 1100.26,245.534 1126.09,222.373 1151.91,202.707 1177.74,186.661 1223.03,167.555 1268.32,160.256 1317.7,165.914 1367.08,185.64 1416.75,219.216 
  1466.43,265.778 1521.35,331.052 1576.27,408.991 1628.52,492.872 1680.78,584.025 1789.45,786.424 1880.92,956.601 1936.76,1054.18 1992.6,1143.44 2045.09,1217.4 
  2097.58,1279.74 2139.63,1320.19 2181.68,1351.44 2223.73,1372.98 2265.77,1384.44 2272.24,1385.3 2278.72,1385.91 2285.19,1386.27 2291.66,1386.4 
  "/>
<path clip-path="url(#clip190)" d="
M1684.66 374.156 L2280.8 374.156 L2280.8 166.796 L1684.66 166.796  Z
  " fill="#ffffff" fill-rule="evenodd" fill-opacity="1"/>
<polyline clip-path="url(#clip190)" style="stroke:#000000; stroke-linecap:butt; stroke-linejoin:round; stroke-width:4; stroke-opacity:1; fill:none" points="
  1684.66,374.156 2280.8,374.156 2280.8,166.796 1684.66,166.796 1684.66,374.156 
  "/>
<circle clip-path="url(#clip190)" cx="1780.66" cy="218.636" r="23" fill="#009af9" fill-rule="evenodd" fill-opacity="1" stroke="#000000" stroke-opacity="1" stroke-width="5.12"/>
<path clip-path="url(#clip190)" d="M1898.38 220.268 L1898.38 235.916 L1894.12 235.916 L1894.12 220.407 Q1894.12 216.726 1892.68 214.897 Q1891.25 213.069 1888.38 213.069 Q1884.93 213.069 1882.94 215.268 Q1880.95 217.467 1880.95 221.263 L1880.95 235.916 L1876.66 235.916 L1876.66 209.99 L1880.95 209.99 L1880.95 214.018 Q1882.47 211.68 1884.53 210.522 Q1886.62 209.365 1889.32 209.365 Q1893.79 209.365 1896.08 212.143 Q1898.38 214.897 1898.38 220.268 Z" fill="#000000" fill-rule="evenodd" fill-opacity="1" /><path clip-path="url(#clip190)" d="M1906.43 225.684 L1906.43 209.99 L1910.69 209.99 L1910.69 225.522 Q1910.69 229.203 1912.13 231.055 Q1913.56 232.883 1916.43 232.883 Q1919.88 232.883 1921.87 230.684 Q1923.88 228.485 1923.88 224.689 L1923.88 209.99 L1928.14 209.99 L1928.14 235.916 L1923.88 235.916 L1923.88 231.934 Q1922.33 234.295 1920.27 235.453 Q1918.24 236.587 1915.53 236.587 Q1911.06 236.587 1908.75 233.809 Q1906.43 231.031 1906.43 225.684 M1917.15 209.365 L1917.15 209.365 Z" fill="#000000" fill-rule="evenodd" fill-opacity="1" /><path clip-path="url(#clip190)" d="M1957.1 214.967 Q1958.7 212.096 1960.92 210.731 Q1963.14 209.365 1966.15 209.365 Q1970.2 209.365 1972.4 212.212 Q1974.6 215.036 1974.6 220.268 L1974.6 235.916 L1970.32 235.916 L1970.32 220.407 Q1970.32 216.68 1969 214.874 Q1967.68 213.069 1964.97 213.069 Q1961.66 213.069 1959.74 215.268 Q1957.82 217.467 1957.82 221.263 L1957.82 235.916 L1953.54 235.916 L1953.54 220.407 Q1953.54 216.657 1952.22 214.874 Q1950.9 213.069 1948.14 213.069 Q1944.88 213.069 1942.96 215.291 Q1941.04 217.49 1941.04 221.263 L1941.04 235.916 L1936.76 235.916 L1936.76 209.99 L1941.04 209.99 L1941.04 214.018 Q1942.5 211.633 1944.53 210.499 Q1946.57 209.365 1949.37 209.365 Q1952.19 209.365 1954.16 210.8 Q1956.15 212.235 1957.1 214.967 Z" fill="#000000" fill-rule="evenodd" fill-opacity="1" /><path clip-path="url(#clip190)" d="M2005.27 221.888 L2005.27 223.971 L1985.69 223.971 Q1985.97 228.369 1988.33 230.684 Q1990.71 232.976 1994.95 232.976 Q1997.4 232.976 1999.69 232.374 Q2002.01 231.772 2004.28 230.569 L2004.28 234.596 Q2001.99 235.568 1999.58 236.078 Q1997.17 236.587 1994.69 236.587 Q1988.49 236.587 1984.86 232.976 Q1981.25 229.365 1981.25 223.207 Q1981.25 216.842 1984.67 213.115 Q1988.12 209.365 1993.95 209.365 Q1999.19 209.365 2002.22 212.745 Q2005.27 216.101 2005.27 221.888 M2001.01 220.638 Q2000.97 217.143 1999.05 215.059 Q1997.15 212.976 1994 212.976 Q1990.44 212.976 1988.28 214.99 Q1986.15 217.004 1985.83 220.661 L2001.01 220.638 Z" fill="#000000" fill-rule="evenodd" fill-opacity="1" /><path clip-path="url(#clip190)" d="M2027.29 213.971 Q2026.57 213.555 2025.71 213.37 Q2024.88 213.161 2023.86 213.161 Q2020.25 213.161 2018.31 215.522 Q2016.38 217.86 2016.38 222.258 L2016.38 235.916 L2012.1 235.916 L2012.1 209.99 L2016.38 209.99 L2016.38 214.018 Q2017.73 211.657 2019.88 210.522 Q2022.03 209.365 2025.11 209.365 Q2025.55 209.365 2026.08 209.434 Q2026.62 209.481 2027.26 209.596 L2027.29 213.971 Z" fill="#000000" fill-rule="evenodd" fill-opacity="1" /><path clip-path="url(#clip190)" d="M2031.75 209.99 L2036.01 209.99 L2036.01 235.916 L2031.75 235.916 L2031.75 209.99 M2031.75 199.897 L2036.01 199.897 L2036.01 205.291 L2031.75 205.291 L2031.75 199.897 Z" fill="#000000" fill-rule="evenodd" fill-opacity="1" /><path clip-path="url(#clip190)" d="M2063.58 210.985 L2063.58 214.967 Q2061.78 213.971 2059.95 213.485 Q2058.14 212.976 2056.29 212.976 Q2052.15 212.976 2049.86 215.615 Q2047.56 218.231 2047.56 222.976 Q2047.56 227.721 2049.86 230.36 Q2052.15 232.976 2056.29 232.976 Q2058.14 232.976 2059.95 232.49 Q2061.78 231.981 2063.58 230.985 L2063.58 234.92 Q2061.8 235.754 2059.88 236.17 Q2057.98 236.587 2055.83 236.587 Q2049.97 236.587 2046.52 232.906 Q2043.07 229.226 2043.07 222.976 Q2043.07 216.633 2046.55 212.999 Q2050.04 209.365 2056.11 209.365 Q2058.07 209.365 2059.95 209.782 Q2061.82 210.175 2063.58 210.985 Z" fill="#000000" fill-rule="evenodd" fill-opacity="1" /><path clip-path="url(#clip190)" d="M2082.77 222.883 Q2077.61 222.883 2075.62 224.064 Q2073.63 225.244 2073.63 228.092 Q2073.63 230.36 2075.11 231.703 Q2076.62 233.022 2079.18 233.022 Q2082.73 233.022 2084.86 230.522 Q2087.01 227.999 2087.01 223.832 L2087.01 222.883 L2082.77 222.883 M2091.27 221.124 L2091.27 235.916 L2087.01 235.916 L2087.01 231.981 Q2085.55 234.342 2083.37 235.476 Q2081.2 236.587 2078.05 236.587 Q2074.07 236.587 2071.71 234.365 Q2069.37 232.119 2069.37 228.369 Q2069.37 223.994 2072.29 221.772 Q2075.23 219.55 2081.04 219.55 L2087.01 219.55 L2087.01 219.133 Q2087.01 216.194 2085.06 214.596 Q2083.14 212.976 2079.65 212.976 Q2077.43 212.976 2075.32 213.508 Q2073.21 214.041 2071.27 215.106 L2071.27 211.17 Q2073.61 210.268 2075.81 209.828 Q2078 209.365 2080.09 209.365 Q2085.71 209.365 2088.49 212.282 Q2091.27 215.198 2091.27 221.124 Z" fill="#000000" fill-rule="evenodd" fill-opacity="1" /><path clip-path="url(#clip190)" d="M2100.04 199.897 L2104.3 199.897 L2104.3 235.916 L2100.04 235.916 L2100.04 199.897 Z" fill="#000000" fill-rule="evenodd" fill-opacity="1" /><polyline clip-path="url(#clip190)" style="stroke:#e26f46; stroke-linecap:butt; stroke-linejoin:round; stroke-width:4; stroke-opacity:1; fill:none" points="
  1708.66,270.476 1852.66,270.476 
  "/>
<path clip-path="url(#clip190)" d="M1890.07 274.723 Q1884.9 274.723 1882.91 275.904 Q1880.92 277.084 1880.92 279.932 Q1880.92 282.2 1882.4 283.543 Q1883.91 284.862 1886.48 284.862 Q1890.02 284.862 1892.15 282.362 Q1894.3 279.839 1894.3 275.672 L1894.3 274.723 L1890.07 274.723 M1898.56 272.964 L1898.56 287.756 L1894.3 287.756 L1894.3 283.821 Q1892.84 286.182 1890.67 287.316 Q1888.49 288.427 1885.34 288.427 Q1881.36 288.427 1879 286.205 Q1876.66 283.959 1876.66 280.209 Q1876.66 275.834 1879.58 273.612 Q1882.52 271.39 1888.33 271.39 L1894.3 271.39 L1894.3 270.973 Q1894.3 268.034 1892.36 266.436 Q1890.44 264.816 1886.94 264.816 Q1884.72 264.816 1882.61 265.348 Q1880.51 265.881 1878.56 266.946 L1878.56 263.01 Q1880.9 262.108 1883.1 261.668 Q1885.3 261.205 1887.38 261.205 Q1893.01 261.205 1895.78 264.122 Q1898.56 267.038 1898.56 272.964 Z" fill="#000000" fill-rule="evenodd" fill-opacity="1" /><path clip-path="url(#clip190)" d="M1928.88 272.108 L1928.88 287.756 L1924.63 287.756 L1924.63 272.247 Q1924.63 268.566 1923.19 266.737 Q1921.76 264.909 1918.88 264.909 Q1915.44 264.909 1913.45 267.108 Q1911.45 269.307 1911.45 273.103 L1911.45 287.756 L1907.17 287.756 L1907.17 261.83 L1911.45 261.83 L1911.45 265.858 Q1912.98 263.52 1915.04 262.362 Q1917.13 261.205 1919.83 261.205 Q1924.3 261.205 1926.59 263.983 Q1928.88 266.737 1928.88 272.108 Z" fill="#000000" fill-rule="evenodd" fill-opacity="1" /><path clip-path="url(#clip190)" d="M1949.16 274.723 Q1944 274.723 1942.01 275.904 Q1940.02 277.084 1940.02 279.932 Q1940.02 282.2 1941.5 283.543 Q1943.01 284.862 1945.57 284.862 Q1949.12 284.862 1951.25 282.362 Q1953.4 279.839 1953.4 275.672 L1953.4 274.723 L1949.16 274.723 M1957.66 272.964 L1957.66 287.756 L1953.4 287.756 L1953.4 283.821 Q1951.94 286.182 1949.76 287.316 Q1947.59 288.427 1944.44 288.427 Q1940.46 288.427 1938.1 286.205 Q1935.76 283.959 1935.76 280.209 Q1935.76 275.834 1938.68 273.612 Q1941.62 271.39 1947.43 271.39 L1953.4 271.39 L1953.4 270.973 Q1953.4 268.034 1951.45 266.436 Q1949.53 264.816 1946.04 264.816 Q1943.82 264.816 1941.71 265.348 Q1939.6 265.881 1937.66 266.946 L1937.66 263.01 Q1940 262.108 1942.19 261.668 Q1944.39 261.205 1946.48 261.205 Q1952.1 261.205 1954.88 264.122 Q1957.66 267.038 1957.66 272.964 Z" fill="#000000" fill-rule="evenodd" fill-opacity="1" /><path clip-path="url(#clip190)" d="M1966.43 251.737 L1970.69 251.737 L1970.69 287.756 L1966.43 287.756 L1966.43 251.737 Z" fill="#000000" fill-rule="evenodd" fill-opacity="1" /><path clip-path="url(#clip190)" d="M1990.39 290.163 Q1988.58 294.793 1986.87 296.205 Q1985.16 297.617 1982.29 297.617 L1978.88 297.617 L1978.88 294.052 L1981.38 294.052 Q1983.14 294.052 1984.12 293.219 Q1985.09 292.385 1986.27 289.283 L1987.03 287.339 L1976.55 261.83 L1981.06 261.83 L1989.16 282.108 L1997.26 261.83 L2001.78 261.83 L1990.39 290.163 Z" fill="#000000" fill-rule="evenodd" fill-opacity="1" /><path clip-path="url(#clip190)" d="M2011.87 254.469 L2011.87 261.83 L2020.64 261.83 L2020.64 265.14 L2011.87 265.14 L2011.87 279.214 Q2011.87 282.385 2012.73 283.288 Q2013.61 284.191 2016.27 284.191 L2020.64 284.191 L2020.64 287.756 L2016.27 287.756 Q2011.34 287.756 2009.46 285.927 Q2007.59 284.075 2007.59 279.214 L2007.59 265.14 L2004.46 265.14 L2004.46 261.83 L2007.59 261.83 L2007.59 254.469 L2011.87 254.469 Z" fill="#000000" fill-rule="evenodd" fill-opacity="1" /><path clip-path="url(#clip190)" d="M2026.25 261.83 L2030.5 261.83 L2030.5 287.756 L2026.25 287.756 L2026.25 261.83 M2026.25 251.737 L2030.5 251.737 L2030.5 257.131 L2026.25 257.131 L2026.25 251.737 Z" fill="#000000" fill-rule="evenodd" fill-opacity="1" /><path clip-path="url(#clip190)" d="M2058.07 262.825 L2058.07 266.807 Q2056.27 265.811 2054.44 265.325 Q2052.63 264.816 2050.78 264.816 Q2046.64 264.816 2044.35 267.455 Q2042.06 270.071 2042.06 274.816 Q2042.06 279.561 2044.35 282.2 Q2046.64 284.816 2050.78 284.816 Q2052.63 284.816 2054.44 284.33 Q2056.27 283.821 2058.07 282.825 L2058.07 286.76 Q2056.29 287.594 2054.37 288.01 Q2052.47 288.427 2050.32 288.427 Q2044.46 288.427 2041.01 284.746 Q2037.56 281.066 2037.56 274.816 Q2037.56 268.473 2041.04 264.839 Q2044.53 261.205 2050.6 261.205 Q2052.56 261.205 2054.44 261.622 Q2056.31 262.015 2058.07 262.825 Z" fill="#000000" fill-rule="evenodd" fill-opacity="1" /><path clip-path="url(#clip190)" d="M2077.26 274.723 Q2072.1 274.723 2070.11 275.904 Q2068.12 277.084 2068.12 279.932 Q2068.12 282.2 2069.6 283.543 Q2071.11 284.862 2073.68 284.862 Q2077.22 284.862 2079.35 282.362 Q2081.5 279.839 2081.5 275.672 L2081.5 274.723 L2077.26 274.723 M2085.76 272.964 L2085.76 287.756 L2081.5 287.756 L2081.5 283.821 Q2080.04 286.182 2077.87 287.316 Q2075.69 288.427 2072.54 288.427 Q2068.56 288.427 2066.2 286.205 Q2063.86 283.959 2063.86 280.209 Q2063.86 275.834 2066.78 273.612 Q2069.72 271.39 2075.53 271.39 L2081.5 271.39 L2081.5 270.973 Q2081.5 268.034 2079.56 266.436 Q2077.63 264.816 2074.14 264.816 Q2071.92 264.816 2069.81 265.348 Q2067.7 265.881 2065.76 266.946 L2065.76 263.01 Q2068.1 262.108 2070.3 261.668 Q2072.5 261.205 2074.58 261.205 Q2080.2 261.205 2082.98 264.122 Q2085.76 267.038 2085.76 272.964 Z" fill="#000000" fill-rule="evenodd" fill-opacity="1" /><path clip-path="url(#clip190)" d="M2094.53 251.737 L2098.79 251.737 L2098.79 287.756 L2094.53 287.756 L2094.53 251.737 Z" fill="#000000" fill-rule="evenodd" fill-opacity="1" /><polyline clip-path="url(#clip190)" style="stroke:#808080; stroke-linecap:butt; stroke-linejoin:round; stroke-width:4; stroke-opacity:1; fill:none" stroke-dasharray="16, 10" points="
  1708.66,322.316 1852.66,322.316 
  "/>
<path clip-path="url(#clip190)" d="M1876.66 313.67 L1880.92 313.67 L1880.92 339.596 L1876.66 339.596 L1876.66 313.67 M1876.66 303.577 L1880.92 303.577 L1880.92 308.971 L1876.66 308.971 L1876.66 303.577 Z" fill="#000000" fill-rule="evenodd" fill-opacity="1" /><path clip-path="url(#clip190)" d="M1911.38 323.948 L1911.38 339.596 L1907.13 339.596 L1907.13 324.087 Q1907.13 320.406 1905.69 318.577 Q1904.26 316.749 1901.38 316.749 Q1897.94 316.749 1895.95 318.948 Q1893.95 321.147 1893.95 324.943 L1893.95 339.596 L1889.67 339.596 L1889.67 313.67 L1893.95 313.67 L1893.95 317.698 Q1895.48 315.36 1897.54 314.202 Q1899.63 313.045 1902.33 313.045 Q1906.8 313.045 1909.09 315.823 Q1911.38 318.577 1911.38 323.948 Z" fill="#000000" fill-rule="evenodd" fill-opacity="1" /><path clip-path="url(#clip190)" d="M1919.88 313.67 L1924.14 313.67 L1924.14 339.596 L1919.88 339.596 L1919.88 313.67 M1919.88 303.577 L1924.14 303.577 L1924.14 308.971 L1919.88 308.971 L1919.88 303.577 Z" fill="#000000" fill-rule="evenodd" fill-opacity="1" /><path clip-path="url(#clip190)" d="M1937.26 306.309 L1937.26 313.67 L1946.04 313.67 L1946.04 316.98 L1937.26 316.98 L1937.26 331.054 Q1937.26 334.225 1938.12 335.128 Q1939 336.031 1941.66 336.031 L1946.04 336.031 L1946.04 339.596 L1941.66 339.596 Q1936.73 339.596 1934.86 337.767 Q1932.98 335.915 1932.98 331.054 L1932.98 316.98 L1929.86 316.98 L1929.86 313.67 L1932.98 313.67 L1932.98 306.309 L1937.26 306.309 Z" fill="#000000" fill-rule="evenodd" fill-opacity="1" /><path clip-path="url(#clip190)" d="M1951.64 313.67 L1955.9 313.67 L1955.9 339.596 L1951.64 339.596 L1951.64 313.67 M1951.64 303.577 L1955.9 303.577 L1955.9 308.971 L1951.64 308.971 L1951.64 303.577 Z" fill="#000000" fill-rule="evenodd" fill-opacity="1" /><path clip-path="url(#clip190)" d="M1976.59 326.563 Q1971.43 326.563 1969.44 327.744 Q1967.45 328.924 1967.45 331.772 Q1967.45 334.04 1968.93 335.383 Q1970.44 336.702 1973 336.702 Q1976.55 336.702 1978.68 334.202 Q1980.83 331.679 1980.83 327.512 L1980.83 326.563 L1976.59 326.563 M1985.09 324.804 L1985.09 339.596 L1980.83 339.596 L1980.83 335.661 Q1979.37 338.022 1977.19 339.156 Q1975.02 340.267 1971.87 340.267 Q1967.89 340.267 1965.53 338.045 Q1963.19 335.799 1963.19 332.049 Q1963.19 327.674 1966.11 325.452 Q1969.05 323.23 1974.86 323.23 L1980.83 323.23 L1980.83 322.813 Q1980.83 319.874 1978.88 318.276 Q1976.96 316.656 1973.47 316.656 Q1971.25 316.656 1969.14 317.188 Q1967.03 317.721 1965.09 318.786 L1965.09 314.85 Q1967.43 313.948 1969.63 313.508 Q1971.82 313.045 1973.91 313.045 Q1979.53 313.045 1982.31 315.962 Q1985.09 318.878 1985.09 324.804 Z" fill="#000000" fill-rule="evenodd" fill-opacity="1" /><path clip-path="url(#clip190)" d="M1993.86 303.577 L1998.12 303.577 L1998.12 339.596 L1993.86 339.596 L1993.86 303.577 Z" fill="#000000" fill-rule="evenodd" fill-opacity="1" /><path clip-path="url(#clip190)" d="M2040.76 314.665 L2040.76 318.647 Q2038.95 317.651 2037.12 317.165 Q2035.32 316.656 2033.47 316.656 Q2029.32 316.656 2027.03 319.295 Q2024.74 321.911 2024.74 326.656 Q2024.74 331.401 2027.03 334.04 Q2029.32 336.656 2033.47 336.656 Q2035.32 336.656 2037.12 336.17 Q2038.95 335.661 2040.76 334.665 L2040.76 338.6 Q2038.98 339.434 2037.06 339.85 Q2035.16 340.267 2033 340.267 Q2027.15 340.267 2023.7 336.586 Q2020.25 332.906 2020.25 326.656 Q2020.25 320.313 2023.72 316.679 Q2027.22 313.045 2033.28 313.045 Q2035.25 313.045 2037.12 313.462 Q2039 313.855 2040.76 314.665 Z" fill="#000000" fill-rule="evenodd" fill-opacity="1" /><path clip-path="url(#clip190)" d="M2058.21 316.656 Q2054.79 316.656 2052.8 319.341 Q2050.81 322.003 2050.81 326.656 Q2050.81 331.309 2052.77 333.994 Q2054.76 336.656 2058.21 336.656 Q2061.62 336.656 2063.61 333.971 Q2065.6 331.286 2065.6 326.656 Q2065.6 322.05 2063.61 319.364 Q2061.62 316.656 2058.21 316.656 M2058.21 313.045 Q2063.77 313.045 2066.94 316.656 Q2070.11 320.267 2070.11 326.656 Q2070.11 333.022 2066.94 336.656 Q2063.77 340.267 2058.21 340.267 Q2052.63 340.267 2049.46 336.656 Q2046.31 333.022 2046.31 326.656 Q2046.31 320.267 2049.46 316.656 Q2052.63 313.045 2058.21 313.045 Z" fill="#000000" fill-rule="evenodd" fill-opacity="1" /><path clip-path="url(#clip190)" d="M2098.72 323.948 L2098.72 339.596 L2094.46 339.596 L2094.46 324.087 Q2094.46 320.406 2093.03 318.577 Q2091.59 316.749 2088.72 316.749 Q2085.27 316.749 2083.28 318.948 Q2081.29 321.147 2081.29 324.943 L2081.29 339.596 L2077.01 339.596 L2077.01 313.67 L2081.29 313.67 L2081.29 317.698 Q2082.82 315.36 2084.88 314.202 Q2086.96 313.045 2089.67 313.045 Q2094.14 313.045 2096.43 315.823 Q2098.72 318.577 2098.72 323.948 Z" fill="#000000" fill-rule="evenodd" fill-opacity="1" /><path clip-path="url(#clip190)" d="M2124.28 317.605 L2124.28 303.577 L2128.54 303.577 L2128.54 339.596 L2124.28 339.596 L2124.28 335.707 Q2122.93 338.022 2120.87 339.156 Q2118.84 340.267 2115.97 340.267 Q2111.27 340.267 2108.31 336.517 Q2105.37 332.767 2105.37 326.656 Q2105.37 320.545 2108.31 316.795 Q2111.27 313.045 2115.97 313.045 Q2118.84 313.045 2120.87 314.179 Q2122.93 315.29 2124.28 317.605 M2109.76 326.656 Q2109.76 331.355 2111.68 334.04 Q2113.63 336.702 2117.01 336.702 Q2120.39 336.702 2122.33 334.04 Q2124.28 331.355 2124.28 326.656 Q2124.28 321.957 2122.33 319.295 Q2120.39 316.61 2117.01 316.61 Q2113.63 316.61 2111.68 319.295 Q2109.76 321.957 2109.76 326.656 Z" fill="#000000" fill-rule="evenodd" fill-opacity="1" /><path clip-path="url(#clip190)" d="M2137.31 313.67 L2141.57 313.67 L2141.57 339.596 L2137.31 339.596 L2137.31 313.67 M2137.31 303.577 L2141.57 303.577 L2141.57 308.971 L2137.31 308.971 L2137.31 303.577 Z" fill="#000000" fill-rule="evenodd" fill-opacity="1" /><path clip-path="url(#clip190)" d="M2154.69 306.309 L2154.69 313.67 L2163.47 313.67 L2163.47 316.98 L2154.69 316.98 L2154.69 331.054 Q2154.69 334.225 2155.55 335.128 Q2156.43 336.031 2159.09 336.031 L2163.47 336.031 L2163.47 339.596 L2159.09 339.596 Q2154.16 339.596 2152.29 337.767 Q2150.41 335.915 2150.41 331.054 L2150.41 316.98 L2147.29 316.98 L2147.29 313.67 L2150.41 313.67 L2150.41 306.309 L2154.69 306.309 Z" fill="#000000" fill-rule="evenodd" fill-opacity="1" /><path clip-path="url(#clip190)" d="M2169.07 313.67 L2173.33 313.67 L2173.33 339.596 L2169.07 339.596 L2169.07 313.67 M2169.07 303.577 L2173.33 303.577 L2173.33 308.971 L2169.07 308.971 L2169.07 303.577 Z" fill="#000000" fill-rule="evenodd" fill-opacity="1" /><path clip-path="url(#clip190)" d="M2192.29 316.656 Q2188.86 316.656 2186.87 319.341 Q2184.88 322.003 2184.88 326.656 Q2184.88 331.309 2186.85 333.994 Q2188.84 336.656 2192.29 336.656 Q2195.69 336.656 2197.68 333.971 Q2199.67 331.286 2199.67 326.656 Q2199.67 322.05 2197.68 319.364 Q2195.69 316.656 2192.29 316.656 M2192.29 313.045 Q2197.84 313.045 2201.01 316.656 Q2204.18 320.267 2204.18 326.656 Q2204.18 333.022 2201.01 336.656 Q2197.84 340.267 2192.29 340.267 Q2186.71 340.267 2183.54 336.656 Q2180.39 333.022 2180.39 326.656 Q2180.39 320.267 2183.54 316.656 Q2186.71 313.045 2192.29 313.045 Z" fill="#000000" fill-rule="evenodd" fill-opacity="1" /><path clip-path="url(#clip190)" d="M2232.8 323.948 L2232.8 339.596 L2228.54 339.596 L2228.54 324.087 Q2228.54 320.406 2227.1 318.577 Q2225.67 316.749 2222.8 316.749 Q2219.35 316.749 2217.36 318.948 Q2215.36 321.147 2215.36 324.943 L2215.36 339.596 L2211.08 339.596 L2211.08 313.67 L2215.36 313.67 L2215.36 317.698 Q2216.89 315.36 2218.95 314.202 Q2221.04 313.045 2223.74 313.045 Q2228.21 313.045 2230.5 315.823 Q2232.8 318.577 2232.8 323.948 Z" fill="#000000" fill-rule="evenodd" fill-opacity="1" /></svg>
