<?xml version="1.0" encoding="utf-8"?>
<svg xmlns="http://www.w3.org/2000/svg" xmlns:xlink="http://www.w3.org/1999/xlink" width="600" height="400" viewBox="0 0 2400 1600">
<defs>
  <clipPath id="clip690">
    <rect x="0" y="0" width="2400" height="1600"/>
  </clipPath>
</defs>
<path clip-path="url(#clip690)" d="
M0 1600 L2400 1600 L2400 0 L0 0  Z
  " fill="#ffffff" fill-rule="evenodd" fill-opacity="1"/>
<defs>
  <clipPath id="clip691">
    <rect x="480" y="0" width="1681" height="1600"/>
  </clipPath>
</defs>
<path clip-path="url(#clip690)" d="
M247.408 1375.66 L2352.76 1375.66 L2352.76 158.032 L247.408 158.032  Z
  " fill="#ffffff" fill-rule="evenodd" fill-opacity="1"/>
<defs>
  <clipPath id="clip692">
    <rect x="247" y="158" width="2106" height="1219"/>
  </clipPath>
</defs>
<polyline clip-path="url(#clip692)" style="stroke:#000000; stroke-linecap:butt; stroke-linejoin:round; stroke-width:2; stroke-opacity:0.1; fill:none" points="
  306.993,1375.66 306.993,158.032 
  "/>
<polyline clip-path="url(#clip692)" style="stroke:#000000; stroke-linecap:butt; stroke-linejoin:round; stroke-width:2; stroke-opacity:0.1; fill:none" points="
  803.538,1375.66 803.538,158.032 
  "/>
<polyline clip-path="url(#clip692)" style="stroke:#000000; stroke-linecap:butt; stroke-linejoin:round; stroke-width:2; stroke-opacity:0.1; fill:none" points="
  1300.08,1375.66 1300.08,158.032 
  "/>
<polyline clip-path="url(#clip692)" style="stroke:#000000; stroke-linecap:butt; stroke-linejoin:round; stroke-width:2; stroke-opacity:0.1; fill:none" points="
  1796.63,1375.66 1796.63,158.032 
  "/>
<polyline clip-path="url(#clip692)" style="stroke:#000000; stroke-linecap:butt; stroke-linejoin:round; stroke-width:2; stroke-opacity:0.1; fill:none" points="
  2293.17,1375.66 2293.17,158.032 
  "/>
<polyline clip-path="url(#clip690)" style="stroke:#000000; stroke-linecap:butt; stroke-linejoin:round; stroke-width:4; stroke-opacity:1; fill:none" points="
  247.408,1375.66 2352.76,1375.66 
  "/>
<polyline clip-path="url(#clip690)" style="stroke:#000000; stroke-linecap:butt; stroke-linejoin:round; stroke-width:4; stroke-opacity:1; fill:none" points="
  306.993,1375.66 306.993,1361.05 
  "/>
<polyline clip-path="url(#clip690)" style="stroke:#000000; stroke-linecap:butt; stroke-linejoin:round; stroke-width:4; stroke-opacity:1; fill:none" points="
  803.538,1375.66 803.538,1361.05 
  "/>
<polyline clip-path="url(#clip690)" style="stroke:#000000; stroke-linecap:butt; stroke-linejoin:round; stroke-width:4; stroke-opacity:1; fill:none" points="
  1300.08,1375.66 1300.08,1361.05 
  "/>
<polyline clip-path="url(#clip690)" style="stroke:#000000; stroke-linecap:butt; stroke-linejoin:round; stroke-width:4; stroke-opacity:1; fill:none" points="
  1796.63,1375.66 1796.63,1361.05 
  "/>
<polyline clip-path="url(#clip690)" style="stroke:#000000; stroke-linecap:butt; stroke-linejoin:round; stroke-width:4; stroke-opacity:1; fill:none" points="
  2293.17,1375.66 2293.17,1361.05 
  "/>
<path clip-path="url(#clip690)" d="M226.785 1431.82 L271.299 1431.82 L271.299 1437.73 L226.785 1437.73 L226.785 1431.82 Z" fill="#000000" fill-rule="evenodd" fill-opacity="1" /><path clip-path="url(#clip690)" d="M287.653 1451.17 L299.111 1451.17 L299.111 1411.62 L286.646 1414.12 L286.646 1407.73 L299.042 1405.23 L306.056 1405.23 L306.056 1451.17 L317.514 1451.17 L317.514 1457.07 L287.653 1457.07 L287.653 1451.17 Z" fill="#000000" fill-rule="evenodd" fill-opacity="1" /><path clip-path="url(#clip690)" d="M331.681 1448.25 L339.007 1448.25 L339.007 1457.07 L331.681 1457.07 L331.681 1448.25 Z" fill="#000000" fill-rule="evenodd" fill-opacity="1" /><path clip-path="url(#clip690)" d="M369.285 1409.85 Q363.868 1409.85 361.125 1415.19 Q358.417 1420.51 358.417 1431.2 Q358.417 1441.86 361.125 1447.21 Q363.868 1452.52 369.285 1452.52 Q374.736 1452.52 377.444 1447.21 Q380.187 1441.86 380.187 1431.2 Q380.187 1420.51 377.444 1415.19 Q374.736 1409.85 369.285 1409.85 M369.285 1404.29 Q378 1404.29 382.583 1411.2 Q387.201 1418.07 387.201 1431.2 Q387.201 1444.29 382.583 1451.2 Q378 1458.07 369.285 1458.07 Q360.569 1458.07 355.951 1451.2 Q351.368 1444.29 351.368 1431.2 Q351.368 1418.07 355.951 1411.2 Q360.569 1404.29 369.285 1404.29 Z" fill="#000000" fill-rule="evenodd" fill-opacity="1" /><path clip-path="url(#clip690)" d="M724.076 1431.82 L768.59 1431.82 L768.59 1437.73 L724.076 1437.73 L724.076 1431.82 Z" fill="#000000" fill-rule="evenodd" fill-opacity="1" /><path clip-path="url(#clip690)" d="M798.729 1409.85 Q793.312 1409.85 790.569 1415.19 Q787.861 1420.51 787.861 1431.2 Q787.861 1441.86 790.569 1447.21 Q793.312 1452.52 798.729 1452.52 Q804.18 1452.52 806.888 1447.21 Q809.631 1441.86 809.631 1431.2 Q809.631 1420.51 806.888 1415.19 Q804.18 1409.85 798.729 1409.85 M798.729 1404.29 Q807.444 1404.29 812.027 1411.2 Q816.645 1418.07 816.645 1431.2 Q816.645 1444.29 812.027 1451.2 Q807.444 1458.07 798.729 1458.07 Q790.013 1458.07 785.395 1451.2 Q780.812 1444.29 780.812 1431.2 Q780.812 1418.07 785.395 1411.2 Q790.013 1404.29 798.729 1404.29 Z" fill="#000000" fill-rule="evenodd" fill-opacity="1" /><path clip-path="url(#clip690)" d="M828.971 1448.25 L836.298 1448.25 L836.298 1457.07 L828.971 1457.07 L828.971 1448.25 Z" fill="#000000" fill-rule="evenodd" fill-opacity="1" /><path clip-path="url(#clip690)" d="M851.645 1405.23 L879.18 1405.23 L879.18 1411.13 L858.069 1411.13 L858.069 1423.84 Q859.596 1423.32 861.124 1423.07 Q862.652 1422.8 864.18 1422.8 Q872.86 1422.8 877.93 1427.55 Q882.999 1432.31 882.999 1440.44 Q882.999 1448.8 877.791 1453.46 Q872.582 1458.07 863.103 1458.07 Q859.839 1458.07 856.437 1457.52 Q853.069 1456.96 849.457 1455.85 L849.457 1448.8 Q852.582 1450.51 855.916 1451.34 Q859.249 1452.17 862.964 1452.17 Q868.971 1452.17 872.478 1449.01 Q875.985 1445.85 875.985 1440.44 Q875.985 1435.02 872.478 1431.86 Q868.971 1428.7 862.964 1428.7 Q860.152 1428.7 857.339 1429.32 Q854.562 1429.95 851.645 1431.27 L851.645 1405.23 Z" fill="#000000" fill-rule="evenodd" fill-opacity="1" /><path clip-path="url(#clip690)" d="M1266.16 1409.85 Q1260.74 1409.85 1258 1415.19 Q1255.29 1420.51 1255.29 1431.2 Q1255.29 1441.86 1258 1447.21 Q1260.74 1452.52 1266.16 1452.52 Q1271.61 1452.52 1274.32 1447.21 Q1277.06 1441.86 1277.06 1431.2 Q1277.06 1420.51 1274.32 1415.19 Q1271.61 1409.85 1266.16 1409.85 M1266.16 1404.29 Q1274.87 1404.29 1279.46 1411.2 Q1284.08 1418.07 1284.08 1431.2 Q1284.08 1444.29 1279.46 1451.2 Q1274.87 1458.07 1266.16 1458.07 Q1257.44 1458.07 1252.83 1451.2 Q1248.24 1444.29 1248.24 1431.2 Q1248.24 1418.07 1252.83 1411.2 Q1257.44 1404.29 1266.16 1404.29 Z" fill="#000000" fill-rule="evenodd" fill-opacity="1" /><path clip-path="url(#clip690)" d="M1296.4 1448.25 L1303.73 1448.25 L1303.73 1457.07 L1296.4 1457.07 L1296.4 1448.25 Z" fill="#000000" fill-rule="evenodd" fill-opacity="1" /><path clip-path="url(#clip690)" d="M1334.01 1409.85 Q1328.59 1409.85 1325.85 1415.19 Q1323.14 1420.51 1323.14 1431.2 Q1323.14 1441.86 1325.85 1447.21 Q1328.59 1452.52 1334.01 1452.52 Q1339.46 1452.52 1342.17 1447.21 Q1344.91 1441.86 1344.91 1431.2 Q1344.91 1420.51 1342.17 1415.19 Q1339.46 1409.85 1334.01 1409.85 M1334.01 1404.29 Q1342.72 1404.29 1347.3 1411.2 Q1351.92 1418.07 1351.92 1431.2 Q1351.92 1444.29 1347.3 1451.2 Q1342.72 1458.07 1334.01 1458.07 Q1325.29 1458.07 1320.67 1451.2 Q1316.09 1444.29 1316.09 1431.2 Q1316.09 1418.07 1320.67 1411.2 Q1325.29 1404.29 1334.01 1404.29 Z" fill="#000000" fill-rule="evenodd" fill-opacity="1" /><path clip-path="url(#clip690)" d="M1763.45 1409.85 Q1758.03 1409.85 1755.29 1415.19 Q1752.58 1420.51 1752.58 1431.2 Q1752.58 1441.86 1755.29 1447.21 Q1758.03 1452.52 1763.45 1452.52 Q1768.9 1452.52 1771.61 1447.21 Q1774.35 1441.86 1774.35 1431.2 Q1774.35 1420.51 1771.61 1415.19 Q1768.9 1409.85 1763.45 1409.85 M1763.45 1404.29 Q1772.16 1404.29 1776.75 1411.2 Q1781.37 1418.07 1781.37 1431.2 Q1781.37 1444.29 1776.75 1451.2 Q1772.16 1458.07 1763.45 1458.07 Q1754.73 1458.07 1750.12 1451.2 Q1745.53 1444.29 1745.53 1431.2 Q1745.53 1418.07 1750.12 1411.2 Q1754.73 1404.29 1763.45 1404.29 Z" fill="#000000" fill-rule="evenodd" fill-opacity="1" /><path clip-path="url(#clip690)" d="M1793.69 1448.25 L1801.02 1448.25 L1801.02 1457.07 L1793.69 1457.07 L1793.69 1448.25 Z" fill="#000000" fill-rule="evenodd" fill-opacity="1" /><path clip-path="url(#clip690)" d="M1816.37 1405.23 L1843.9 1405.23 L1843.9 1411.13 L1822.79 1411.13 L1822.79 1423.84 Q1824.32 1423.32 1825.84 1423.07 Q1827.37 1422.8 1828.9 1422.8 Q1837.58 1422.8 1842.65 1427.55 Q1847.72 1432.31 1847.72 1440.44 Q1847.72 1448.8 1842.51 1453.46 Q1837.3 1458.07 1827.82 1458.07 Q1824.56 1458.07 1821.16 1457.52 Q1817.79 1456.96 1814.18 1455.85 L1814.18 1448.8 Q1817.3 1450.51 1820.64 1451.34 Q1823.97 1452.17 1827.69 1452.17 Q1833.69 1452.17 1837.2 1449.01 Q1840.71 1445.85 1840.71 1440.44 Q1840.71 1435.02 1837.2 1431.86 Q1833.69 1428.7 1827.69 1428.7 Q1824.87 1428.7 1822.06 1429.32 Q1819.28 1429.95 1816.37 1431.27 L1816.37 1405.23 Z" fill="#000000" fill-rule="evenodd" fill-opacity="1" /><path clip-path="url(#clip690)" d="M2243.9 1451.17 L2255.36 1451.17 L2255.36 1411.62 L2242.89 1414.12 L2242.89 1407.73 L2255.29 1405.23 L2262.3 1405.23 L2262.3 1451.17 L2273.76 1451.17 L2273.76 1457.07 L2243.9 1457.07 L2243.9 1451.17 Z" fill="#000000" fill-rule="evenodd" fill-opacity="1" /><path clip-path="url(#clip690)" d="M2287.93 1448.25 L2295.25 1448.25 L2295.25 1457.07 L2287.93 1457.07 L2287.93 1448.25 Z" fill="#000000" fill-rule="evenodd" fill-opacity="1" /><path clip-path="url(#clip690)" d="M2325.53 1409.85 Q2320.11 1409.85 2317.37 1415.19 Q2314.66 1420.51 2314.66 1431.2 Q2314.66 1441.86 2317.37 1447.21 Q2320.11 1452.52 2325.53 1452.52 Q2330.98 1452.52 2333.69 1447.21 Q2336.43 1441.86 2336.43 1431.2 Q2336.43 1420.51 2333.69 1415.19 Q2330.98 1409.85 2325.53 1409.85 M2325.53 1404.29 Q2334.25 1404.29 2338.83 1411.2 Q2343.45 1418.07 2343.45 1431.2 Q2343.45 1444.29 2338.83 1451.2 Q2334.25 1458.07 2325.53 1458.07 Q2316.82 1458.07 2312.2 1451.2 Q2307.61 1444.29 2307.61 1431.2 Q2307.61 1418.07 2312.2 1411.2 Q2316.82 1404.29 2325.53 1404.29 Z" fill="#000000" fill-rule="evenodd" fill-opacity="1" /><path clip-path="url(#clip690)" d="M1327.27 1524.4 L1306.18 1552.78 L1328.36 1582.73 L1317.06 1582.73 L1300.08 1559.82 L1283.1 1582.73 L1271.8 1582.73 L1294.46 1552.21 L1273.73 1524.4 L1285.03 1524.4 L1300.5 1545.18 L1315.97 1524.4 L1327.27 1524.4 Z" fill="#000000" fill-rule="evenodd" fill-opacity="1" /><polyline clip-path="url(#clip692)" style="stroke:#000000; stroke-linecap:butt; stroke-linejoin:round; stroke-width:2; stroke-opacity:0.1; fill:none" points="
  247.408,1341.2 2352.76,1341.2 
  "/>
<polyline clip-path="url(#clip692)" style="stroke:#000000; stroke-linecap:butt; stroke-linejoin:round; stroke-width:2; stroke-opacity:0.1; fill:none" points="
  247.408,1054.01 2352.76,1054.01 
  "/>
<polyline clip-path="url(#clip692)" style="stroke:#000000; stroke-linecap:butt; stroke-linejoin:round; stroke-width:2; stroke-opacity:0.1; fill:none" points="
  247.408,766.811 2352.76,766.811 
  "/>
<polyline clip-path="url(#clip692)" style="stroke:#000000; stroke-linecap:butt; stroke-linejoin:round; stroke-width:2; stroke-opacity:0.1; fill:none" points="
  247.408,479.618 2352.76,479.618 
  "/>
<polyline clip-path="url(#clip692)" style="stroke:#000000; stroke-linecap:butt; stroke-linejoin:round; stroke-width:2; stroke-opacity:0.1; fill:none" points="
  247.408,192.424 2352.76,192.424 
  "/>
<polyline clip-path="url(#clip690)" style="stroke:#000000; stroke-linecap:butt; stroke-linejoin:round; stroke-width:4; stroke-opacity:1; fill:none" points="
  247.408,1375.66 247.408,158.032 
  "/>
<polyline clip-path="url(#clip690)" style="stroke:#000000; stroke-linecap:butt; stroke-linejoin:round; stroke-width:4; stroke-opacity:1; fill:none" points="
  247.408,1341.2 272.672,1341.2 
  "/>
<polyline clip-path="url(#clip690)" style="stroke:#000000; stroke-linecap:butt; stroke-linejoin:round; stroke-width:4; stroke-opacity:1; fill:none" points="
  247.408,1054.01 272.672,1054.01 
  "/>
<polyline clip-path="url(#clip690)" style="stroke:#000000; stroke-linecap:butt; stroke-linejoin:round; stroke-width:4; stroke-opacity:1; fill:none" points="
  247.408,766.811 272.672,766.811 
  "/>
<polyline clip-path="url(#clip690)" style="stroke:#000000; stroke-linecap:butt; stroke-linejoin:round; stroke-width:4; stroke-opacity:1; fill:none" points="
  247.408,479.618 272.672,479.618 
  "/>
<polyline clip-path="url(#clip690)" style="stroke:#000000; stroke-linecap:butt; stroke-linejoin:round; stroke-width:4; stroke-opacity:1; fill:none" points="
  247.408,192.424 272.672,192.424 
  "/>
<path clip-path="url(#clip690)" d="M50.9921 1341.88 L95.5058 1341.88 L95.5058 1347.78 L50.9921 1347.78 L50.9921 1341.88 Z" fill="#000000" fill-rule="evenodd" fill-opacity="1" /><path clip-path="url(#clip690)" d="M111.86 1361.22 L123.318 1361.22 L123.318 1321.67 L110.853 1324.17 L110.853 1317.78 L123.249 1315.28 L130.263 1315.28 L130.263 1361.22 L141.721 1361.22 L141.721 1367.12 L111.86 1367.12 L111.86 1361.22 Z" fill="#000000" fill-rule="evenodd" fill-opacity="1" /><path clip-path="url(#clip690)" d="M155.887 1358.3 L163.214 1358.3 L163.214 1367.12 L155.887 1367.12 L155.887 1358.3 Z" fill="#000000" fill-rule="evenodd" fill-opacity="1" /><path clip-path="url(#clip690)" d="M193.491 1319.9 Q188.075 1319.9 185.332 1325.24 Q182.623 1330.56 182.623 1341.25 Q182.623 1351.91 185.332 1357.26 Q188.075 1362.57 193.491 1362.57 Q198.943 1362.57 201.651 1357.26 Q204.394 1351.91 204.394 1341.25 Q204.394 1330.56 201.651 1325.24 Q198.943 1319.9 193.491 1319.9 M193.491 1314.34 Q202.207 1314.34 206.79 1321.25 Q211.408 1328.13 211.408 1341.25 Q211.408 1354.34 206.79 1361.25 Q202.207 1368.13 193.491 1368.13 Q184.776 1368.13 180.158 1361.25 Q175.575 1354.34 175.575 1341.25 Q175.575 1328.13 180.158 1321.25 Q184.776 1314.34 193.491 1314.34 Z" fill="#000000" fill-rule="evenodd" fill-opacity="1" /><path clip-path="url(#clip690)" d="M52.4852 1054.68 L96.9988 1054.68 L96.9988 1060.58 L52.4852 1060.58 L52.4852 1054.68 Z" fill="#000000" fill-rule="evenodd" fill-opacity="1" /><path clip-path="url(#clip690)" d="M127.138 1032.7 Q121.721 1032.7 118.978 1038.05 Q116.27 1043.36 116.27 1054.06 Q116.27 1064.72 118.978 1070.06 Q121.721 1075.38 127.138 1075.38 Q132.589 1075.38 135.297 1070.06 Q138.04 1064.72 138.04 1054.06 Q138.04 1043.36 135.297 1038.05 Q132.589 1032.7 127.138 1032.7 M127.138 1027.15 Q135.853 1027.15 140.436 1034.06 Q145.054 1040.93 145.054 1054.06 Q145.054 1067.15 140.436 1074.06 Q135.853 1080.93 127.138 1080.93 Q118.422 1080.93 113.804 1074.06 Q109.221 1067.15 109.221 1054.06 Q109.221 1040.93 113.804 1034.06 Q118.422 1027.15 127.138 1027.15 Z" fill="#000000" fill-rule="evenodd" fill-opacity="1" /><path clip-path="url(#clip690)" d="M157.38 1071.11 L164.707 1071.11 L164.707 1079.93 L157.38 1079.93 L157.38 1071.11 Z" fill="#000000" fill-rule="evenodd" fill-opacity="1" /><path clip-path="url(#clip690)" d="M180.054 1028.09 L207.589 1028.09 L207.589 1033.99 L186.478 1033.99 L186.478 1046.7 Q188.005 1046.18 189.533 1045.93 Q191.061 1045.65 192.589 1045.65 Q201.269 1045.65 206.339 1050.41 Q211.408 1055.17 211.408 1063.29 Q211.408 1071.66 206.2 1076.31 Q200.991 1080.93 191.512 1080.93 Q188.248 1080.93 184.846 1080.38 Q181.478 1079.82 177.866 1078.71 L177.866 1071.66 Q180.991 1073.36 184.325 1074.2 Q187.658 1075.03 191.373 1075.03 Q197.38 1075.03 200.887 1071.87 Q204.394 1068.71 204.394 1063.29 Q204.394 1057.88 200.887 1054.72 Q197.38 1051.56 191.373 1051.56 Q188.561 1051.56 185.748 1052.18 Q182.971 1052.81 180.054 1054.13 L180.054 1028.09 Z" fill="#000000" fill-rule="evenodd" fill-opacity="1" /><path clip-path="url(#clip690)" d="M125.645 745.509 Q120.228 745.509 117.485 750.857 Q114.777 756.169 114.777 766.864 Q114.777 777.523 117.485 782.87 Q120.228 788.183 125.645 788.183 Q131.096 788.183 133.804 782.87 Q136.547 777.523 136.547 766.864 Q136.547 756.169 133.804 750.857 Q131.096 745.509 125.645 745.509 M125.645 739.954 Q134.36 739.954 138.943 746.864 Q143.561 753.739 143.561 766.864 Q143.561 779.954 138.943 786.863 Q134.36 793.738 125.645 793.738 Q116.929 793.738 112.311 786.863 Q107.728 779.954 107.728 766.864 Q107.728 753.739 112.311 746.864 Q116.929 739.954 125.645 739.954 Z" fill="#000000" fill-rule="evenodd" fill-opacity="1" /><path clip-path="url(#clip690)" d="M155.887 783.912 L163.214 783.912 L163.214 792.731 L155.887 792.731 L155.887 783.912 Z" fill="#000000" fill-rule="evenodd" fill-opacity="1" /><path clip-path="url(#clip690)" d="M193.491 745.509 Q188.075 745.509 185.332 750.857 Q182.623 756.169 182.623 766.864 Q182.623 777.523 185.332 782.87 Q188.075 788.183 193.491 788.183 Q198.943 788.183 201.651 782.87 Q204.394 777.523 204.394 766.864 Q204.394 756.169 201.651 750.857 Q198.943 745.509 193.491 745.509 M193.491 739.954 Q202.207 739.954 206.79 746.864 Q211.408 753.739 211.408 766.864 Q211.408 779.954 206.79 786.863 Q202.207 793.738 193.491 793.738 Q184.776 793.738 180.158 786.863 Q175.575 779.954 175.575 766.864 Q175.575 753.739 180.158 746.864 Q184.776 739.954 193.491 739.954 Z" fill="#000000" fill-rule="evenodd" fill-opacity="1" /><path clip-path="url(#clip690)" d="M127.138 458.316 Q121.721 458.316 118.978 463.663 Q116.27 468.976 116.27 479.67 Q116.27 490.33 118.978 495.677 Q121.721 500.989 127.138 500.989 Q132.589 500.989 135.297 495.677 Q138.04 490.33 138.04 479.67 Q138.04 468.976 135.297 463.663 Q132.589 458.316 127.138 458.316 M127.138 452.76 Q135.853 452.76 140.436 459.67 Q145.054 466.545 145.054 479.67 Q145.054 492.76 140.436 499.67 Q135.853 506.545 127.138 506.545 Q118.422 506.545 113.804 499.67 Q109.221 492.76 109.221 479.67 Q109.221 466.545 113.804 459.67 Q118.422 452.76 127.138 452.76 Z" fill="#000000" fill-rule="evenodd" fill-opacity="1" /><path clip-path="url(#clip690)" d="M157.38 496.718 L164.707 496.718 L164.707 505.538 L157.38 505.538 L157.38 496.718 Z" fill="#000000" fill-rule="evenodd" fill-opacity="1" /><path clip-path="url(#clip690)" d="M180.054 453.698 L207.589 453.698 L207.589 459.601 L186.478 459.601 L186.478 472.309 Q188.005 471.788 189.533 471.545 Q191.061 471.267 192.589 471.267 Q201.269 471.267 206.339 476.024 Q211.408 480.781 211.408 488.906 Q211.408 497.274 206.2 501.927 Q200.991 506.545 191.512 506.545 Q188.248 506.545 184.846 505.989 Q181.478 505.434 177.866 504.323 L177.866 497.274 Q180.991 498.975 184.325 499.809 Q187.658 500.642 191.373 500.642 Q197.38 500.642 200.887 497.482 Q204.394 494.323 204.394 488.906 Q204.394 483.489 200.887 480.33 Q197.38 477.17 191.373 477.17 Q188.561 477.17 185.748 477.795 Q182.971 478.42 180.054 479.739 L180.054 453.698 Z" fill="#000000" fill-rule="evenodd" fill-opacity="1" /><path clip-path="url(#clip690)" d="M111.86 212.442 L123.318 212.442 L123.318 172.893 L110.853 175.393 L110.853 169.004 L123.249 166.504 L130.263 166.504 L130.263 212.442 L141.721 212.442 L141.721 218.344 L111.86 218.344 L111.86 212.442 Z" fill="#000000" fill-rule="evenodd" fill-opacity="1" /><path clip-path="url(#clip690)" d="M155.887 209.525 L163.214 209.525 L163.214 218.344 L155.887 218.344 L155.887 209.525 Z" fill="#000000" fill-rule="evenodd" fill-opacity="1" /><path clip-path="url(#clip690)" d="M193.491 171.122 Q188.075 171.122 185.332 176.469 Q182.623 181.782 182.623 192.476 Q182.623 203.136 185.332 208.483 Q188.075 213.796 193.491 213.796 Q198.943 213.796 201.651 208.483 Q204.394 203.136 204.394 192.476 Q204.394 181.782 201.651 176.469 Q198.943 171.122 193.491 171.122 M193.491 165.567 Q202.207 165.567 206.79 172.476 Q211.408 179.351 211.408 192.476 Q211.408 205.567 206.79 212.476 Q202.207 219.351 193.491 219.351 Q184.776 219.351 180.158 212.476 Q175.575 205.567 175.575 192.476 Q175.575 179.351 180.158 172.476 Q184.776 165.567 193.491 165.567 Z" fill="#000000" fill-rule="evenodd" fill-opacity="1" /><path clip-path="url(#clip690)" d="M955.188 85.9116 L955.188 42.7521 L966.901 42.7521 L966.901 85.466 Q966.901 95.5875 970.848 100.68 Q974.794 105.709 982.688 105.709 Q992.173 105.709 997.647 99.6615 Q1003.19 93.6141 1003.19 83.1743 L1003.19 42.7521 L1014.9 42.7521 L1014.9 114.048 L1003.19 114.048 L1003.19 103.099 Q998.92 109.592 993.255 112.775 Q987.653 115.894 980.205 115.894 Q967.919 115.894 961.554 108.255 Q955.188 100.616 955.188 85.9116 M984.661 41.0333 L984.661 41.0333 Z" fill="#000000" fill-rule="evenodd" fill-opacity="1" /><path clip-path="url(#clip690)" d="M1067.16 15.1249 Q1058.63 29.766 1054.49 44.0889 Q1050.36 58.4117 1050.36 73.1165 Q1050.36 87.8213 1054.49 102.271 Q1058.69 116.658 1067.16 131.235 L1056.98 131.235 Q1047.43 116.276 1042.65 101.826 Q1037.94 87.3757 1037.94 73.1165 Q1037.94 58.921 1042.65 44.5345 Q1047.36 30.148 1056.98 15.1249 L1067.16 15.1249 Z" fill="#000000" fill-rule="evenodd" fill-opacity="1" /><path clip-path="url(#clip690)" d="M1149.15 42.7521 L1123.37 77.4452 L1150.49 114.048 L1136.67 114.048 L1115.92 86.0389 L1095.17 114.048 L1081.36 114.048 L1109.05 76.745 L1083.71 42.7521 L1097.53 42.7521 L1116.43 68.1513 L1135.34 42.7521 L1149.15 42.7521 Z" fill="#000000" fill-rule="evenodd" fill-opacity="1" /><path clip-path="url(#clip690)" d="M1170.03 97.8791 L1183.46 97.8791 L1183.46 108.828 L1173.02 129.198 L1164.81 129.198 L1170.03 108.828 L1170.03 97.8791 Z" fill="#000000" fill-rule="evenodd" fill-opacity="1" /><path clip-path="url(#clip690)" d="M1261.51 22.5091 L1261.51 42.7521 L1285.63 42.7521 L1285.63 51.855 L1261.51 51.855 L1261.51 90.5585 Q1261.51 99.2796 1263.86 101.762 Q1266.28 104.245 1273.6 104.245 L1285.63 104.245 L1285.63 114.048 L1273.6 114.048 Q1260.04 114.048 1254.89 109.019 Q1249.73 103.927 1249.73 90.5585 L1249.73 51.855 L1241.14 51.855 L1241.14 42.7521 L1249.73 42.7521 L1249.73 22.5091 L1261.51 22.5091 Z" fill="#000000" fill-rule="evenodd" fill-opacity="1" /><path clip-path="url(#clip690)" d="M1302.56 54.8469 L1384.17 54.8469 L1384.17 65.5413 L1302.56 65.5413 L1302.56 54.8469 M1302.56 80.819 L1384.17 80.819 L1384.17 91.6407 L1302.56 91.6407 L1302.56 80.819 Z" fill="#000000" fill-rule="evenodd" fill-opacity="1" /><path clip-path="url(#clip690)" d="M1423 103.226 L1467.88 103.226 L1467.88 114.048 L1407.54 114.048 L1407.54 103.226 Q1414.86 95.6511 1427.46 82.9197 Q1440.13 70.1246 1443.37 66.4325 Q1449.55 59.4939 1451.97 54.7196 Q1454.45 49.8817 1454.45 45.2347 Q1454.45 37.6595 1449.1 32.8852 Q1443.82 28.111 1435.29 28.111 Q1429.24 28.111 1422.49 30.2116 Q1415.81 32.3123 1408.17 36.5774 L1408.17 23.5913 Q1415.94 20.4721 1422.69 18.8807 Q1429.43 17.2893 1435.03 17.2893 Q1449.8 17.2893 1458.59 24.6735 Q1467.37 32.0577 1467.37 44.4072 Q1467.37 50.2636 1465.14 55.5472 Q1462.98 60.767 1457.19 67.8966 Q1455.6 69.7427 1447.07 78.591 Q1438.54 87.3757 1423 103.226 Z" fill="#000000" fill-rule="evenodd" fill-opacity="1" /><path clip-path="url(#clip690)" d="M1494.87 97.8791 L1508.3 97.8791 L1508.3 114.048 L1494.87 114.048 L1494.87 97.8791 Z" fill="#000000" fill-rule="evenodd" fill-opacity="1" /><path clip-path="url(#clip690)" d="M1563.81 27.4744 Q1553.88 27.4744 1548.85 37.2776 Q1543.89 47.0171 1543.89 66.6235 Q1543.89 86.1662 1548.85 95.9694 Q1553.88 105.709 1563.81 105.709 Q1573.81 105.709 1578.77 95.9694 Q1583.8 86.1662 1583.8 66.6235 Q1583.8 47.0171 1578.77 37.2776 Q1573.81 27.4744 1563.81 27.4744 M1563.81 17.2893 Q1579.79 17.2893 1588.19 29.957 Q1596.66 42.5611 1596.66 66.6235 Q1596.66 90.6222 1588.19 103.29 Q1579.79 115.894 1563.81 115.894 Q1547.84 115.894 1539.37 103.29 Q1530.97 90.6222 1530.97 66.6235 Q1530.97 42.5611 1539.37 29.957 Q1547.84 17.2893 1563.81 17.2893 Z" fill="#000000" fill-rule="evenodd" fill-opacity="1" /><path clip-path="url(#clip690)" d="M1615.76 15.1249 L1625.94 15.1249 Q1635.49 30.148 1640.2 44.5345 Q1644.98 58.921 1644.98 73.1165 Q1644.98 87.3757 1640.2 101.826 Q1635.49 116.276 1625.94 131.235 L1615.76 131.235 Q1624.22 116.658 1628.36 102.271 Q1632.56 87.8213 1632.56 73.1165 Q1632.56 58.4117 1628.36 44.0889 Q1624.22 29.766 1615.76 15.1249 Z" fill="#000000" fill-rule="evenodd" fill-opacity="1" /><circle clip-path="url(#clip692)" cx="306.993" cy="1237.03" r="14" fill="#009af9" fill-rule="evenodd" fill-opacity="1" stroke="#000000" stroke-opacity="1" stroke-width="3.2"/>
<circle clip-path="url(#clip692)" cx="369.061" cy="1228" r="14" fill="#009af9" fill-rule="evenodd" fill-opacity="1" stroke="#000000" stroke-opacity="1" stroke-width="3.2"/>
<circle clip-path="url(#clip692)" cx="431.129" cy="1201.24" r="14" fill="#009af9" fill-rule="evenodd" fill-opacity="1" stroke="#000000" stroke-opacity="1" stroke-width="3.2"/>
<circle clip-path="url(#clip692)" cx="493.197" cy="1157.79" r="14" fill="#009af9" fill-rule="evenodd" fill-opacity="1" stroke="#000000" stroke-opacity="1" stroke-width="3.2"/>
<circle clip-path="url(#clip692)" cx="555.265" cy="1099.31" r="14" fill="#009af9" fill-rule="evenodd" fill-opacity="1" stroke="#000000" stroke-opacity="1" stroke-width="3.2"/>
<circle clip-path="url(#clip692)" cx="617.333" cy="1028.05" r="14" fill="#009af9" fill-rule="evenodd" fill-opacity="1" stroke="#000000" stroke-opacity="1" stroke-width="3.2"/>
<circle clip-path="url(#clip692)" cx="679.402" cy="946.757" r="14" fill="#009af9" fill-rule="evenodd" fill-opacity="1" stroke="#000000" stroke-opacity="1" stroke-width="3.2"/>
<circle clip-path="url(#clip692)" cx="741.47" cy="858.547" r="14" fill="#009af9" fill-rule="evenodd" fill-opacity="1" stroke="#000000" stroke-opacity="1" stroke-width="3.2"/>
<circle clip-path="url(#clip692)" cx="803.538" cy="766.811" r="14" fill="#009af9" fill-rule="evenodd" fill-opacity="1" stroke="#000000" stroke-opacity="1" stroke-width="3.2"/>
<circle clip-path="url(#clip692)" cx="865.606" cy="675.076" r="14" fill="#009af9" fill-rule="evenodd" fill-opacity="1" stroke="#000000" stroke-opacity="1" stroke-width="3.2"/>
<circle clip-path="url(#clip692)" cx="927.674" cy="586.866" r="14" fill="#009af9" fill-rule="evenodd" fill-opacity="1" stroke="#000000" stroke-opacity="1" stroke-width="3.2"/>
<circle clip-path="url(#clip692)" cx="989.742" cy="505.57" r="14" fill="#009af9" fill-rule="evenodd" fill-opacity="1" stroke="#000000" stroke-opacity="1" stroke-width="3.2"/>
<circle clip-path="url(#clip692)" cx="1051.81" cy="434.315" r="14" fill="#009af9" fill-rule="evenodd" fill-opacity="1" stroke="#000000" stroke-opacity="1" stroke-width="3.2"/>
<circle clip-path="url(#clip692)" cx="1113.88" cy="375.837" r="14" fill="#009af9" fill-rule="evenodd" fill-opacity="1" stroke="#000000" stroke-opacity="1" stroke-width="3.2"/>
<circle clip-path="url(#clip692)" cx="1175.95" cy="332.384" r="14" fill="#009af9" fill-rule="evenodd" fill-opacity="1" stroke="#000000" stroke-opacity="1" stroke-width="3.2"/>
<circle clip-path="url(#clip692)" cx="1238.01" cy="305.625" r="14" fill="#009af9" fill-rule="evenodd" fill-opacity="1" stroke="#000000" stroke-opacity="1" stroke-width="3.2"/>
<circle clip-path="url(#clip692)" cx="1300.08" cy="296.59" r="14" fill="#009af9" fill-rule="evenodd" fill-opacity="1" stroke="#000000" stroke-opacity="1" stroke-width="3.2"/>
<circle clip-path="url(#clip692)" cx="1362.15" cy="305.625" r="14" fill="#009af9" fill-rule="evenodd" fill-opacity="1" stroke="#000000" stroke-opacity="1" stroke-width="3.2"/>
<circle clip-path="url(#clip692)" cx="1424.22" cy="332.384" r="14" fill="#009af9" fill-rule="evenodd" fill-opacity="1" stroke="#000000" stroke-opacity="1" stroke-width="3.2"/>
<circle clip-path="url(#clip692)" cx="1486.29" cy="375.837" r="14" fill="#009af9" fill-rule="evenodd" fill-opacity="1" stroke="#000000" stroke-opacity="1" stroke-width="3.2"/>
<circle clip-path="url(#clip692)" cx="1548.35" cy="434.315" r="14" fill="#009af9" fill-rule="evenodd" fill-opacity="1" stroke="#000000" stroke-opacity="1" stroke-width="3.2"/>
<circle clip-path="url(#clip692)" cx="1610.42" cy="505.57" r="14" fill="#009af9" fill-rule="evenodd" fill-opacity="1" stroke="#000000" stroke-opacity="1" stroke-width="3.2"/>
<circle clip-path="url(#clip692)" cx="1672.49" cy="586.866" r="14" fill="#009af9" fill-rule="evenodd" fill-opacity="1" stroke="#000000" stroke-opacity="1" stroke-width="3.2"/>
<circle clip-path="url(#clip692)" cx="1734.56" cy="675.076" r="14" fill="#009af9" fill-rule="evenodd" fill-opacity="1" stroke="#000000" stroke-opacity="1" stroke-width="3.2"/>
<circle clip-path="url(#clip692)" cx="1796.63" cy="766.811" r="14" fill="#009af9" fill-rule="evenodd" fill-opacity="1" stroke="#000000" stroke-opacity="1" stroke-width="3.2"/>
<circle clip-path="url(#clip692)" cx="1858.69" cy="858.547" r="14" fill="#009af9" fill-rule="evenodd" fill-opacity="1" stroke="#000000" stroke-opacity="1" stroke-width="3.2"/>
<circle clip-path="url(#clip692)" cx="1920.76" cy="946.757" r="14" fill="#009af9" fill-rule="evenodd" fill-opacity="1" stroke="#000000" stroke-opacity="1" stroke-width="3.2"/>
<circle clip-path="url(#clip692)" cx="1982.83" cy="1028.05" r="14" fill="#009af9" fill-rule="evenodd" fill-opacity="1" stroke="#000000" stroke-opacity="1" stroke-width="3.2"/>
<circle clip-path="url(#clip692)" cx="2044.9" cy="1099.31" r="14" fill="#009af9" fill-rule="evenodd" fill-opacity="1" stroke="#000000" stroke-opacity="1" stroke-width="3.2"/>
<circle clip-path="url(#clip692)" cx="2106.97" cy="1157.79" r="14" fill="#009af9" fill-rule="evenodd" fill-opacity="1" stroke="#000000" stroke-opacity="1" stroke-width="3.2"/>
<circle clip-path="url(#clip692)" cx="2169.03" cy="1201.24" r="14" fill="#009af9" fill-rule="evenodd" fill-opacity="1" stroke="#000000" stroke-opacity="1" stroke-width="3.2"/>
<circle clip-path="url(#clip692)" cx="2231.1" cy="1228" r="14" fill="#009af9" fill-rule="evenodd" fill-opacity="1" stroke="#000000" stroke-opacity="1" stroke-width="3.2"/>
<polyline clip-path="url(#clip692)" style="stroke:#e26f46; stroke-linecap:butt; stroke-linejoin:round; stroke-width:8; stroke-opacity:1; fill:none" points="
  306.993,1237.08 311.842,1237.02 316.692,1236.86 321.541,1236.58 326.39,1236.19 371.227,1227.4 416.065,1209.36 460.902,1182.43 505.74,1147.15 532.685,1122.23 
  559.631,1094.72 586.576,1064.83 613.522,1032.77 659.086,974.307 704.65,911.536 803.641,766.658 894.902,632.776 943.822,564.897 992.743,501.844 1049.42,436.803 
  1106.1,382.343 1131.29,362.009 1156.47,344.244 1181.66,329.16 1206.84,316.853 1251.01,302.198 1295.18,296.6 1343.34,300.939 1391.49,316.069 1439.94,341.823 
  1488.38,377.538 1541.94,427.604 1595.5,487.386 1646.46,551.724 1697.42,621.641 1803.4,776.886 1892.61,907.417 1947.06,982.262 2001.52,1050.73 2052.71,1107.46 
  2103.9,1155.28 2144.91,1186.3 2185.92,1210.27 2226.92,1226.79 2267.93,1235.58 2274.24,1236.24 2280.55,1236.71 2286.86,1236.99 2293.17,1237.08 
  "/>
<polyline clip-path="url(#clip692)" style="stroke:#808080; stroke-linecap:butt; stroke-linejoin:round; stroke-width:8; stroke-opacity:1; fill:none" stroke-dasharray="32, 20" points="
  306.993,1341.2 311.842,1341.13 316.692,1340.93 321.541,1340.59 326.39,1340.12 371.227,1329.38 416.065,1307.34 460.902,1274.45 505.74,1231.36 532.685,1200.92 
  559.631,1167.32 586.576,1130.81 613.522,1091.66 659.086,1020.25 704.65,943.579 803.641,766.624 894.902,603.1 943.822,520.193 992.743,443.179 1049.42,363.738 
  1106.1,297.22 1131.29,272.385 1156.47,250.687 1181.66,232.263 1206.84,217.23 1251.01,199.331 1295.18,192.493 1343.34,197.793 1391.49,216.274 1439.94,247.729 
  1488.38,291.351 1541.94,352.503 1595.5,425.52 1646.46,504.103 1697.42,589.499 1803.4,779.117 1892.61,938.547 1947.06,1029.96 2001.52,1113.59 2052.71,1182.88 
  2103.9,1241.28 2144.91,1279.17 2185.92,1308.45 2226.92,1328.63 2267.93,1339.37 2274.24,1340.17 2280.55,1340.74 2286.86,1341.08 2293.17,1341.2 
  "/>
<path clip-path="url(#clip690)" d="
M1514.45 561.5 L2282.58 561.5 L2282.58 198.62 L1514.45 198.62  Z
  " fill="#ffffff" fill-rule="evenodd" fill-opacity="1"/>
<polyline clip-path="url(#clip690)" style="stroke:#000000; stroke-linecap:butt; stroke-linejoin:round; stroke-width:4; stroke-opacity:1; fill:none" points="
  1514.45,561.5 2282.58,561.5 2282.58,198.62 1514.45,198.62 1514.45,561.5 
  "/>
<circle clip-path="url(#clip690)" cx="1608.02" cy="289.34" r="34" fill="#009af9" fill-rule="evenodd" fill-opacity="1" stroke="#000000" stroke-opacity="1" stroke-width="7.68"/>
<path clip-path="url(#clip690)" d="M1734.16 291.788 L1734.16 315.26 L1727.77 315.26 L1727.77 291.996 Q1727.77 286.475 1725.62 283.732 Q1723.47 280.989 1719.16 280.989 Q1713.99 280.989 1711 284.288 Q1708.02 287.586 1708.02 293.281 L1708.02 315.26 L1701.59 315.26 L1701.59 276.371 L1708.02 276.371 L1708.02 282.413 Q1710.31 278.906 1713.4 277.17 Q1716.52 275.434 1720.59 275.434 Q1727.29 275.434 1730.73 279.6 Q1734.16 283.732 1734.16 291.788 Z" fill="#000000" fill-rule="evenodd" fill-opacity="1" /><path clip-path="url(#clip690)" d="M1746.25 299.913 L1746.25 276.371 L1752.63 276.371 L1752.63 299.67 Q1752.63 305.19 1754.79 307.968 Q1756.94 310.711 1761.25 310.711 Q1766.42 310.711 1769.41 307.413 Q1772.43 304.114 1772.43 298.42 L1772.43 276.371 L1778.82 276.371 L1778.82 315.26 L1772.43 315.26 L1772.43 309.288 Q1770.1 312.829 1767.01 314.565 Q1763.95 316.267 1759.89 316.267 Q1753.19 316.267 1749.72 312.1 Q1746.25 307.933 1746.25 299.913 M1762.32 275.434 L1762.32 275.434 Z" fill="#000000" fill-rule="evenodd" fill-opacity="1" /><path clip-path="url(#clip690)" d="M1822.25 283.836 Q1824.65 279.531 1827.98 277.482 Q1831.32 275.434 1835.83 275.434 Q1841.91 275.434 1845.2 279.704 Q1848.5 283.94 1848.5 291.788 L1848.5 315.26 L1842.08 315.26 L1842.08 291.996 Q1842.08 286.406 1840.1 283.697 Q1838.12 280.989 1834.06 280.989 Q1829.09 280.989 1826.21 284.288 Q1823.33 287.586 1823.33 293.281 L1823.33 315.26 L1816.91 315.26 L1816.91 291.996 Q1816.91 286.371 1814.93 283.697 Q1812.95 280.989 1808.82 280.989 Q1803.92 280.989 1801.04 284.322 Q1798.16 287.621 1798.16 293.281 L1798.16 315.26 L1791.73 315.26 L1791.73 276.371 L1798.16 276.371 L1798.16 282.413 Q1800.34 278.836 1803.4 277.135 Q1806.45 275.434 1810.66 275.434 Q1814.89 275.434 1817.84 277.586 Q1820.83 279.739 1822.25 283.836 Z" fill="#000000" fill-rule="evenodd" fill-opacity="1" /><path clip-path="url(#clip690)" d="M1894.51 294.218 L1894.51 297.343 L1865.13 297.343 Q1865.55 303.94 1869.09 307.413 Q1872.67 310.85 1879.02 310.85 Q1882.7 310.85 1886.14 309.947 Q1889.61 309.044 1893.02 307.239 L1893.02 313.281 Q1889.58 314.739 1885.97 315.503 Q1882.36 316.267 1878.64 316.267 Q1869.34 316.267 1863.88 310.85 Q1858.47 305.433 1858.47 296.197 Q1858.47 286.649 1863.61 281.059 Q1868.78 275.434 1877.53 275.434 Q1885.38 275.434 1889.93 280.503 Q1894.51 285.538 1894.51 294.218 M1888.12 292.343 Q1888.05 287.1 1885.17 283.975 Q1882.32 280.85 1877.6 280.85 Q1872.25 280.85 1869.02 283.871 Q1865.83 286.892 1865.34 292.378 L1888.12 292.343 Z" fill="#000000" fill-rule="evenodd" fill-opacity="1" /><path clip-path="url(#clip690)" d="M1927.53 282.343 Q1926.45 281.718 1925.17 281.44 Q1923.92 281.128 1922.39 281.128 Q1916.97 281.128 1914.06 284.67 Q1911.18 288.177 1911.18 294.774 L1911.18 315.26 L1904.75 315.26 L1904.75 276.371 L1911.18 276.371 L1911.18 282.413 Q1913.19 278.871 1916.42 277.17 Q1919.65 275.434 1924.27 275.434 Q1924.93 275.434 1925.72 275.538 Q1926.52 275.607 1927.5 275.781 L1927.53 282.343 Z" fill="#000000" fill-rule="evenodd" fill-opacity="1" /><path clip-path="url(#clip690)" d="M1934.23 276.371 L1940.62 276.371 L1940.62 315.26 L1934.23 315.26 L1934.23 276.371 M1934.23 261.232 L1940.62 261.232 L1940.62 269.322 L1934.23 269.322 L1934.23 261.232 Z" fill="#000000" fill-rule="evenodd" fill-opacity="1" /><path clip-path="url(#clip690)" d="M1981.97 277.864 L1981.97 283.836 Q1979.27 282.343 1976.52 281.614 Q1973.81 280.85 1971.04 280.85 Q1964.82 280.85 1961.38 284.808 Q1957.95 288.732 1957.95 295.85 Q1957.95 302.968 1961.38 306.926 Q1964.82 310.85 1971.04 310.85 Q1973.81 310.85 1976.52 310.121 Q1979.27 309.357 1981.97 307.864 L1981.97 313.767 Q1979.3 315.017 1976.42 315.642 Q1973.57 316.267 1970.34 316.267 Q1961.56 316.267 1956.38 310.746 Q1951.21 305.225 1951.21 295.85 Q1951.21 286.336 1956.42 280.885 Q1961.66 275.434 1970.76 275.434 Q1973.71 275.434 1976.52 276.059 Q1979.34 276.649 1981.97 277.864 Z" fill="#000000" fill-rule="evenodd" fill-opacity="1" /><path clip-path="url(#clip690)" d="M2010.76 295.711 Q2003.02 295.711 2000.03 297.482 Q1997.04 299.253 1997.04 303.524 Q1997.04 306.926 1999.27 308.94 Q2001.52 310.919 2005.38 310.919 Q2010.69 310.919 2013.88 307.169 Q2017.11 303.385 2017.11 297.135 L2017.11 295.711 L2010.76 295.711 M2023.5 293.072 L2023.5 315.26 L2017.11 315.26 L2017.11 309.357 Q2014.93 312.899 2011.66 314.6 Q2008.4 316.267 2003.68 316.267 Q1997.7 316.267 1994.16 312.933 Q1990.65 309.565 1990.65 303.94 Q1990.65 297.378 1995.03 294.045 Q1999.44 290.711 2008.15 290.711 L2017.11 290.711 L2017.11 290.086 Q2017.11 285.677 2014.2 283.281 Q2011.31 280.85 2006.07 280.85 Q2002.74 280.85 1999.58 281.649 Q1996.42 282.447 1993.5 284.045 L1993.5 278.142 Q1997.01 276.788 2000.31 276.128 Q2003.61 275.434 2006.73 275.434 Q2015.17 275.434 2019.33 279.809 Q2023.5 284.183 2023.5 293.072 Z" fill="#000000" fill-rule="evenodd" fill-opacity="1" /><path clip-path="url(#clip690)" d="M2036.66 261.232 L2043.05 261.232 L2043.05 315.26 L2036.66 315.26 L2036.66 261.232 Z" fill="#000000" fill-rule="evenodd" fill-opacity="1" /><polyline clip-path="url(#clip690)" style="stroke:#e26f46; stroke-linecap:butt; stroke-linejoin:round; stroke-width:6; stroke-opacity:1; fill:none" points="
  1537.84,380.06 1678.2,380.06 
  "/>
<path clip-path="url(#clip690)" d="M1721.7 386.431 Q1713.95 386.431 1710.97 388.202 Q1707.98 389.973 1707.98 394.244 Q1707.98 397.646 1710.2 399.66 Q1712.46 401.639 1716.32 401.639 Q1721.63 401.639 1724.82 397.889 Q1728.05 394.105 1728.05 387.855 L1728.05 386.431 L1721.7 386.431 M1734.44 383.792 L1734.44 405.98 L1728.05 405.98 L1728.05 400.077 Q1725.86 403.619 1722.6 405.32 Q1719.34 406.987 1714.61 406.987 Q1708.64 406.987 1705.1 403.653 Q1701.59 400.285 1701.59 394.66 Q1701.59 388.098 1705.97 384.765 Q1710.38 381.431 1719.09 381.431 L1728.05 381.431 L1728.05 380.806 Q1728.05 376.397 1725.14 374.001 Q1722.25 371.57 1717.01 371.57 Q1713.68 371.57 1710.52 372.369 Q1707.36 373.167 1704.44 374.765 L1704.44 368.862 Q1707.95 367.508 1711.25 366.848 Q1714.54 366.154 1717.67 366.154 Q1726.11 366.154 1730.27 370.529 Q1734.44 374.903 1734.44 383.792 Z" fill="#000000" fill-rule="evenodd" fill-opacity="1" /><path clip-path="url(#clip690)" d="M1779.93 382.508 L1779.93 405.98 L1773.54 405.98 L1773.54 382.716 Q1773.54 377.195 1771.38 374.452 Q1769.23 371.709 1764.93 371.709 Q1759.75 371.709 1756.77 375.008 Q1753.78 378.306 1753.78 384.001 L1753.78 405.98 L1747.36 405.98 L1747.36 367.091 L1753.78 367.091 L1753.78 373.133 Q1756.07 369.626 1759.16 367.89 Q1762.29 366.154 1766.35 366.154 Q1773.05 366.154 1776.49 370.32 Q1779.93 374.452 1779.93 382.508 Z" fill="#000000" fill-rule="evenodd" fill-opacity="1" /><path clip-path="url(#clip690)" d="M1810.34 386.431 Q1802.6 386.431 1799.61 388.202 Q1796.63 389.973 1796.63 394.244 Q1796.63 397.646 1798.85 399.66 Q1801.11 401.639 1804.96 401.639 Q1810.27 401.639 1813.47 397.889 Q1816.7 394.105 1816.7 387.855 L1816.7 386.431 L1810.34 386.431 M1823.09 383.792 L1823.09 405.98 L1816.7 405.98 L1816.7 400.077 Q1814.51 403.619 1811.25 405.32 Q1807.98 406.987 1803.26 406.987 Q1797.29 406.987 1793.75 403.653 Q1790.24 400.285 1790.24 394.66 Q1790.24 388.098 1794.61 384.765 Q1799.02 381.431 1807.74 381.431 L1816.7 381.431 L1816.7 380.806 Q1816.7 376.397 1813.78 374.001 Q1810.9 371.57 1805.66 371.57 Q1802.32 371.57 1799.16 372.369 Q1796 373.167 1793.09 374.765 L1793.09 368.862 Q1796.59 367.508 1799.89 366.848 Q1803.19 366.154 1806.32 366.154 Q1814.75 366.154 1818.92 370.529 Q1823.09 374.903 1823.09 383.792 Z" fill="#000000" fill-rule="evenodd" fill-opacity="1" /><path clip-path="url(#clip690)" d="M1836.25 351.952 L1842.63 351.952 L1842.63 405.98 L1836.25 405.98 L1836.25 351.952 Z" fill="#000000" fill-rule="evenodd" fill-opacity="1" /><path clip-path="url(#clip690)" d="M1872.18 409.591 Q1869.47 416.535 1866.91 418.653 Q1864.34 420.771 1860.03 420.771 L1854.93 420.771 L1854.93 415.424 L1858.68 415.424 Q1861.31 415.424 1862.77 414.174 Q1864.23 412.924 1866 408.271 L1867.15 405.355 L1851.42 367.091 L1858.19 367.091 L1870.34 397.508 L1882.5 367.091 L1889.27 367.091 L1872.18 409.591 Z" fill="#000000" fill-rule="evenodd" fill-opacity="1" /><path clip-path="url(#clip690)" d="M1904.41 356.049 L1904.41 367.091 L1917.56 367.091 L1917.56 372.056 L1904.41 372.056 L1904.41 393.167 Q1904.41 397.924 1905.69 399.278 Q1907.01 400.633 1911 400.633 L1917.56 400.633 L1917.56 405.98 L1911 405.98 Q1903.61 405.98 1900.79 403.237 Q1897.98 400.459 1897.98 393.167 L1897.98 372.056 L1893.29 372.056 L1893.29 367.091 L1897.98 367.091 L1897.98 356.049 L1904.41 356.049 Z" fill="#000000" fill-rule="evenodd" fill-opacity="1" /><path clip-path="url(#clip690)" d="M1925.97 367.091 L1932.36 367.091 L1932.36 405.98 L1925.97 405.98 L1925.97 367.091 M1925.97 351.952 L1932.36 351.952 L1932.36 360.042 L1925.97 360.042 L1925.97 351.952 Z" fill="#000000" fill-rule="evenodd" fill-opacity="1" /><path clip-path="url(#clip690)" d="M1973.71 368.584 L1973.71 374.556 Q1971 373.063 1968.26 372.334 Q1965.55 371.57 1962.77 371.57 Q1956.56 371.57 1953.12 375.528 Q1949.68 379.452 1949.68 386.57 Q1949.68 393.688 1953.12 397.646 Q1956.56 401.57 1962.77 401.57 Q1965.55 401.57 1968.26 400.841 Q1971 400.077 1973.71 398.584 L1973.71 404.487 Q1971.04 405.737 1968.15 406.362 Q1965.31 406.987 1962.08 406.987 Q1953.29 406.987 1948.12 401.466 Q1942.95 395.945 1942.95 386.57 Q1942.95 377.056 1948.15 371.605 Q1953.4 366.154 1962.49 366.154 Q1965.45 366.154 1968.26 366.779 Q1971.07 367.369 1973.71 368.584 Z" fill="#000000" fill-rule="evenodd" fill-opacity="1" /><path clip-path="url(#clip690)" d="M2002.49 386.431 Q1994.75 386.431 1991.77 388.202 Q1988.78 389.973 1988.78 394.244 Q1988.78 397.646 1991 399.66 Q1993.26 401.639 1997.11 401.639 Q2002.43 401.639 2005.62 397.889 Q2008.85 394.105 2008.85 387.855 L2008.85 386.431 L2002.49 386.431 M2015.24 383.792 L2015.24 405.98 L2008.85 405.98 L2008.85 400.077 Q2006.66 403.619 2003.4 405.32 Q2000.13 406.987 1995.41 406.987 Q1989.44 406.987 1985.9 403.653 Q1982.39 400.285 1982.39 394.66 Q1982.39 388.098 1986.77 384.765 Q1991.18 381.431 1999.89 381.431 L2008.85 381.431 L2008.85 380.806 Q2008.85 376.397 2005.93 374.001 Q2003.05 371.57 1997.81 371.57 Q1994.47 371.57 1991.31 372.369 Q1988.15 373.167 1985.24 374.765 L1985.24 368.862 Q1988.74 367.508 1992.04 366.848 Q1995.34 366.154 1998.47 366.154 Q2006.9 366.154 2011.07 370.529 Q2015.24 374.903 2015.24 383.792 Z" fill="#000000" fill-rule="evenodd" fill-opacity="1" /><path clip-path="url(#clip690)" d="M2028.4 351.952 L2034.79 351.952 L2034.79 405.98 L2028.4 405.98 L2028.4 351.952 Z" fill="#000000" fill-rule="evenodd" fill-opacity="1" /><polyline clip-path="url(#clip690)" style="stroke:#808080; stroke-linecap:butt; stroke-linejoin:round; stroke-width:6; stroke-opacity:1; fill:none" stroke-dasharray="24, 15" points="
  1537.84,470.78 1678.2,470.78 
  "/>
<path clip-path="url(#clip690)" d="M1701.59 457.811 L1707.98 457.811 L1707.98 496.7 L1701.59 496.7 L1701.59 457.811 M1701.59 442.672 L1707.98 442.672 L1707.98 450.762 L1701.59 450.762 L1701.59 442.672 Z" fill="#000000" fill-rule="evenodd" fill-opacity="1" /><path clip-path="url(#clip690)" d="M1753.68 473.228 L1753.68 496.7 L1747.29 496.7 L1747.29 473.436 Q1747.29 467.915 1745.14 465.172 Q1742.98 462.429 1738.68 462.429 Q1733.5 462.429 1730.52 465.728 Q1727.53 469.026 1727.53 474.721 L1727.53 496.7 L1721.11 496.7 L1721.11 457.811 L1727.53 457.811 L1727.53 463.853 Q1729.82 460.346 1732.91 458.61 Q1736.04 456.874 1740.1 456.874 Q1746.8 456.874 1750.24 461.04 Q1753.68 465.172 1753.68 473.228 Z" fill="#000000" fill-rule="evenodd" fill-opacity="1" /><path clip-path="url(#clip690)" d="M1766.42 457.811 L1772.81 457.811 L1772.81 496.7 L1766.42 496.7 L1766.42 457.811 M1766.42 442.672 L1772.81 442.672 L1772.81 450.762 L1766.42 450.762 L1766.42 442.672 Z" fill="#000000" fill-rule="evenodd" fill-opacity="1" /><path clip-path="url(#clip690)" d="M1792.5 446.769 L1792.5 457.811 L1805.66 457.811 L1805.66 462.776 L1792.5 462.776 L1792.5 483.887 Q1792.5 488.644 1793.78 489.998 Q1795.1 491.353 1799.09 491.353 L1805.66 491.353 L1805.66 496.7 L1799.09 496.7 Q1791.7 496.7 1788.88 493.957 Q1786.07 491.179 1786.07 483.887 L1786.07 462.776 L1781.38 462.776 L1781.38 457.811 L1786.07 457.811 L1786.07 446.769 L1792.5 446.769 Z" fill="#000000" fill-rule="evenodd" fill-opacity="1" /><path clip-path="url(#clip690)" d="M1814.06 457.811 L1820.45 457.811 L1820.45 496.7 L1814.06 496.7 L1814.06 457.811 M1814.06 442.672 L1820.45 442.672 L1820.45 450.762 L1814.06 450.762 L1814.06 442.672 Z" fill="#000000" fill-rule="evenodd" fill-opacity="1" /><path clip-path="url(#clip690)" d="M1851.49 477.151 Q1843.75 477.151 1840.76 478.922 Q1837.77 480.693 1837.77 484.964 Q1837.77 488.366 1840 490.38 Q1842.25 492.359 1846.11 492.359 Q1851.42 492.359 1854.61 488.609 Q1857.84 484.825 1857.84 478.575 L1857.84 477.151 L1851.49 477.151 M1864.23 474.512 L1864.23 496.7 L1857.84 496.7 L1857.84 490.797 Q1855.66 494.339 1852.39 496.04 Q1849.13 497.707 1844.41 497.707 Q1838.43 497.707 1834.89 494.373 Q1831.38 491.005 1831.38 485.38 Q1831.38 478.818 1835.76 475.485 Q1840.17 472.151 1848.88 472.151 L1857.84 472.151 L1857.84 471.526 Q1857.84 467.117 1854.93 464.721 Q1852.04 462.29 1846.8 462.29 Q1843.47 462.29 1840.31 463.089 Q1837.15 463.887 1834.23 465.485 L1834.23 459.582 Q1837.74 458.228 1841.04 457.568 Q1844.34 456.874 1847.46 456.874 Q1855.9 456.874 1860.06 461.249 Q1864.23 465.623 1864.23 474.512 Z" fill="#000000" fill-rule="evenodd" fill-opacity="1" /><path clip-path="url(#clip690)" d="M1877.39 442.672 L1883.78 442.672 L1883.78 496.7 L1877.39 496.7 L1877.39 442.672 Z" fill="#000000" fill-rule="evenodd" fill-opacity="1" /><path clip-path="url(#clip690)" d="M1947.74 459.304 L1947.74 465.276 Q1945.03 463.783 1942.29 463.054 Q1939.58 462.29 1936.8 462.29 Q1930.59 462.29 1927.15 466.248 Q1923.71 470.172 1923.71 477.29 Q1923.71 484.408 1927.15 488.366 Q1930.59 492.29 1936.8 492.29 Q1939.58 492.29 1942.29 491.561 Q1945.03 490.797 1947.74 489.304 L1947.74 495.207 Q1945.06 496.457 1942.18 497.082 Q1939.34 497.707 1936.11 497.707 Q1927.32 497.707 1922.15 492.186 Q1916.97 486.665 1916.97 477.29 Q1916.97 467.776 1922.18 462.325 Q1927.43 456.874 1936.52 456.874 Q1939.47 456.874 1942.29 457.499 Q1945.1 458.089 1947.74 459.304 Z" fill="#000000" fill-rule="evenodd" fill-opacity="1" /><path clip-path="url(#clip690)" d="M1973.92 462.29 Q1968.78 462.29 1965.79 466.318 Q1962.81 470.311 1962.81 477.29 Q1962.81 484.269 1965.76 488.297 Q1968.74 492.29 1973.92 492.29 Q1979.02 492.29 1982.01 488.262 Q1984.99 484.235 1984.99 477.29 Q1984.99 470.38 1982.01 466.353 Q1979.02 462.29 1973.92 462.29 M1973.92 456.874 Q1982.25 456.874 1987.01 462.29 Q1991.77 467.707 1991.77 477.29 Q1991.77 486.839 1987.01 492.29 Q1982.25 497.707 1973.92 497.707 Q1965.55 497.707 1960.79 492.29 Q1956.07 486.839 1956.07 477.29 Q1956.07 467.707 1960.79 462.29 Q1965.55 456.874 1973.92 456.874 Z" fill="#000000" fill-rule="evenodd" fill-opacity="1" /><path clip-path="url(#clip690)" d="M2034.68 473.228 L2034.68 496.7 L2028.29 496.7 L2028.29 473.436 Q2028.29 467.915 2026.14 465.172 Q2023.99 462.429 2019.68 462.429 Q2014.51 462.429 2011.52 465.728 Q2008.54 469.026 2008.54 474.721 L2008.54 496.7 L2002.11 496.7 L2002.11 457.811 L2008.54 457.811 L2008.54 463.853 Q2010.83 460.346 2013.92 458.61 Q2017.04 456.874 2021.11 456.874 Q2027.81 456.874 2031.24 461.04 Q2034.68 465.172 2034.68 473.228 Z" fill="#000000" fill-rule="evenodd" fill-opacity="1" /><path clip-path="url(#clip690)" d="M2073.02 463.714 L2073.02 442.672 L2079.4 442.672 L2079.4 496.7 L2073.02 496.7 L2073.02 490.866 Q2071 494.339 2067.91 496.04 Q2064.86 497.707 2060.55 497.707 Q2053.5 497.707 2049.06 492.082 Q2044.65 486.457 2044.65 477.29 Q2044.65 468.123 2049.06 462.499 Q2053.5 456.874 2060.55 456.874 Q2064.86 456.874 2067.91 458.575 Q2071 460.242 2073.02 463.714 M2051.24 477.29 Q2051.24 484.339 2054.13 488.366 Q2057.04 492.359 2062.11 492.359 Q2067.18 492.359 2070.1 488.366 Q2073.02 484.339 2073.02 477.29 Q2073.02 470.242 2070.1 466.248 Q2067.18 462.221 2062.11 462.221 Q2057.04 462.221 2054.13 466.248 Q2051.24 470.242 2051.24 477.29 Z" fill="#000000" fill-rule="evenodd" fill-opacity="1" /><path clip-path="url(#clip690)" d="M2092.56 457.811 L2098.95 457.811 L2098.95 496.7 L2092.56 496.7 L2092.56 457.811 M2092.56 442.672 L2098.95 442.672 L2098.95 450.762 L2092.56 450.762 L2092.56 442.672 Z" fill="#000000" fill-rule="evenodd" fill-opacity="1" /><path clip-path="url(#clip690)" d="M2118.64 446.769 L2118.64 457.811 L2131.8 457.811 L2131.8 462.776 L2118.64 462.776 L2118.64 483.887 Q2118.64 488.644 2119.92 489.998 Q2121.24 491.353 2125.24 491.353 L2131.8 491.353 L2131.8 496.7 L2125.24 496.7 Q2117.84 496.7 2115.03 493.957 Q2112.22 491.179 2112.22 483.887 L2112.22 462.776 L2107.53 462.776 L2107.53 457.811 L2112.22 457.811 L2112.22 446.769 L2118.64 446.769 Z" fill="#000000" fill-rule="evenodd" fill-opacity="1" /><path clip-path="url(#clip690)" d="M2140.2 457.811 L2146.59 457.811 L2146.59 496.7 L2140.2 496.7 L2140.2 457.811 M2140.2 442.672 L2146.59 442.672 L2146.59 450.762 L2140.2 450.762 L2140.2 442.672 Z" fill="#000000" fill-rule="evenodd" fill-opacity="1" /><path clip-path="url(#clip690)" d="M2175.03 462.29 Q2169.89 462.29 2166.9 466.318 Q2163.92 470.311 2163.92 477.29 Q2163.92 484.269 2166.87 488.297 Q2169.85 492.29 2175.03 492.29 Q2180.13 492.29 2183.12 488.262 Q2186.1 484.235 2186.1 477.29 Q2186.1 470.38 2183.12 466.353 Q2180.13 462.29 2175.03 462.29 M2175.03 456.874 Q2183.36 456.874 2188.12 462.29 Q2192.88 467.707 2192.88 477.29 Q2192.88 486.839 2188.12 492.29 Q2183.36 497.707 2175.03 497.707 Q2166.66 497.707 2161.9 492.29 Q2157.18 486.839 2157.18 477.29 Q2157.18 467.707 2161.9 462.29 Q2166.66 456.874 2175.03 456.874 Z" fill="#000000" fill-rule="evenodd" fill-opacity="1" /><path clip-path="url(#clip690)" d="M2235.79 473.228 L2235.79 496.7 L2229.4 496.7 L2229.4 473.436 Q2229.4 467.915 2227.25 465.172 Q2225.1 462.429 2220.79 462.429 Q2215.62 462.429 2212.63 465.728 Q2209.65 469.026 2209.65 474.721 L2209.65 496.7 L2203.22 496.7 L2203.22 457.811 L2209.65 457.811 L2209.65 463.853 Q2211.94 460.346 2215.03 458.61 Q2218.15 456.874 2222.22 456.874 Q2228.92 456.874 2232.35 461.04 Q2235.79 465.172 2235.79 473.228 Z" fill="#000000" fill-rule="evenodd" fill-opacity="1" /></svg>
