<?xml version="1.0" encoding="utf-8"?>
<svg xmlns="http://www.w3.org/2000/svg" xmlns:xlink="http://www.w3.org/1999/xlink" width="600" height="400" viewBox="0 0 2400 1600">
<defs>
  <clipPath id="clip630">
    <rect x="0" y="0" width="2400" height="1600"/>
  </clipPath>
</defs>
<path clip-path="url(#clip630)" d="
M0 1600 L2400 1600 L2400 0 L0 0  Z
  " fill="#ffffff" fill-rule="evenodd" fill-opacity="1"/>
<defs>
  <clipPath id="clip631">
    <rect x="480" y="0" width="1681" height="1600"/>
  </clipPath>
</defs>
<path clip-path="url(#clip630)" d="
M258.374 1401.58 L2352.76 1401.58 L2352.76 47.2441 L258.374 47.2441  Z
  " fill="#ffffff" fill-rule="evenodd" fill-opacity="1"/>
<defs>
  <clipPath id="clip632">
    <rect x="258" y="47" width="2095" height="1355"/>
  </clipPath>
</defs>
<polyline clip-path="url(#clip632)" style="stroke:#000000; stroke-linecap:butt; stroke-linejoin:round; stroke-width:2; stroke-opacity:0.1; fill:none" points="
  353.573,1401.58 353.573,47.2441 
  "/>
<polyline clip-path="url(#clip632)" style="stroke:#000000; stroke-linecap:butt; stroke-linejoin:round; stroke-width:2; stroke-opacity:0.1; fill:none" points="
  543.972,1401.58 543.972,47.2441 
  "/>
<polyline clip-path="url(#clip632)" style="stroke:#000000; stroke-linecap:butt; stroke-linejoin:round; stroke-width:2; stroke-opacity:0.1; fill:none" points="
  734.37,1401.58 734.37,47.2441 
  "/>
<polyline clip-path="url(#clip632)" style="stroke:#000000; stroke-linecap:butt; stroke-linejoin:round; stroke-width:2; stroke-opacity:0.1; fill:none" points="
  924.768,1401.58 924.768,47.2441 
  "/>
<polyline clip-path="url(#clip632)" style="stroke:#000000; stroke-linecap:butt; stroke-linejoin:round; stroke-width:2; stroke-opacity:0.1; fill:none" points="
  1115.17,1401.58 1115.17,47.2441 
  "/>
<polyline clip-path="url(#clip632)" style="stroke:#000000; stroke-linecap:butt; stroke-linejoin:round; stroke-width:2; stroke-opacity:0.1; fill:none" points="
  1305.57,1401.58 1305.57,47.2441 
  "/>
<polyline clip-path="url(#clip632)" style="stroke:#000000; stroke-linecap:butt; stroke-linejoin:round; stroke-width:2; stroke-opacity:0.1; fill:none" points="
  1495.96,1401.58 1495.96,47.2441 
  "/>
<polyline clip-path="url(#clip632)" style="stroke:#000000; stroke-linecap:butt; stroke-linejoin:round; stroke-width:2; stroke-opacity:0.1; fill:none" points="
  1686.36,1401.58 1686.36,47.2441 
  "/>
<polyline clip-path="url(#clip632)" style="stroke:#000000; stroke-linecap:butt; stroke-linejoin:round; stroke-width:2; stroke-opacity:0.1; fill:none" points="
  1876.76,1401.58 1876.76,47.2441 
  "/>
<polyline clip-path="url(#clip632)" style="stroke:#000000; stroke-linecap:butt; stroke-linejoin:round; stroke-width:2; stroke-opacity:0.1; fill:none" points="
  2067.16,1401.58 2067.16,47.2441 
  "/>
<polyline clip-path="url(#clip632)" style="stroke:#000000; stroke-linecap:butt; stroke-linejoin:round; stroke-width:2; stroke-opacity:0.1; fill:none" points="
  2257.56,1401.58 2257.56,47.2441 
  "/>
<polyline clip-path="url(#clip630)" style="stroke:#000000; stroke-linecap:butt; stroke-linejoin:round; stroke-width:4; stroke-opacity:1; fill:none" points="
  258.374,1401.58 2352.76,1401.58 
  "/>
<polyline clip-path="url(#clip630)" style="stroke:#000000; stroke-linecap:butt; stroke-linejoin:round; stroke-width:4; stroke-opacity:1; fill:none" points="
  353.573,1401.58 353.573,1385.33 
  "/>
<polyline clip-path="url(#clip630)" style="stroke:#000000; stroke-linecap:butt; stroke-linejoin:round; stroke-width:4; stroke-opacity:1; fill:none" points="
  543.972,1401.58 543.972,1385.33 
  "/>
<polyline clip-path="url(#clip630)" style="stroke:#000000; stroke-linecap:butt; stroke-linejoin:round; stroke-width:4; stroke-opacity:1; fill:none" points="
  734.37,1401.58 734.37,1385.33 
  "/>
<polyline clip-path="url(#clip630)" style="stroke:#000000; stroke-linecap:butt; stroke-linejoin:round; stroke-width:4; stroke-opacity:1; fill:none" points="
  924.768,1401.58 924.768,1385.33 
  "/>
<polyline clip-path="url(#clip630)" style="stroke:#000000; stroke-linecap:butt; stroke-linejoin:round; stroke-width:4; stroke-opacity:1; fill:none" points="
  1115.17,1401.58 1115.17,1385.33 
  "/>
<polyline clip-path="url(#clip630)" style="stroke:#000000; stroke-linecap:butt; stroke-linejoin:round; stroke-width:4; stroke-opacity:1; fill:none" points="
  1305.57,1401.58 1305.57,1385.33 
  "/>
<polyline clip-path="url(#clip630)" style="stroke:#000000; stroke-linecap:butt; stroke-linejoin:round; stroke-width:4; stroke-opacity:1; fill:none" points="
  1495.96,1401.58 1495.96,1385.33 
  "/>
<polyline clip-path="url(#clip630)" style="stroke:#000000; stroke-linecap:butt; stroke-linejoin:round; stroke-width:4; stroke-opacity:1; fill:none" points="
  1686.36,1401.58 1686.36,1385.33 
  "/>
<polyline clip-path="url(#clip630)" style="stroke:#000000; stroke-linecap:butt; stroke-linejoin:round; stroke-width:4; stroke-opacity:1; fill:none" points="
  1876.76,1401.58 1876.76,1385.33 
  "/>
<polyline clip-path="url(#clip630)" style="stroke:#000000; stroke-linecap:butt; stroke-linejoin:round; stroke-width:4; stroke-opacity:1; fill:none" points="
  2067.16,1401.58 2067.16,1385.33 
  "/>
<polyline clip-path="url(#clip630)" style="stroke:#000000; stroke-linecap:butt; stroke-linejoin:round; stroke-width:4; stroke-opacity:1; fill:none" points="
  2257.56,1401.58 2257.56,1385.33 
  "/>
<path clip-path="url(#clip630)" d="M353.573 1433.27 Q349.06 1433.27 346.774 1437.72 Q344.517 1442.15 344.517 1451.06 Q344.517 1459.95 346.774 1464.4 Q349.06 1468.83 353.573 1468.83 Q358.116 1468.83 360.373 1464.4 Q362.659 1459.95 362.659 1451.06 Q362.659 1442.15 360.373 1437.72 Q358.116 1433.27 353.573 1433.27 M353.573 1428.64 Q360.836 1428.64 364.656 1434.4 Q368.504 1440.13 368.504 1451.06 Q368.504 1461.97 364.656 1467.73 Q360.836 1473.46 353.573 1473.46 Q346.311 1473.46 342.462 1467.73 Q338.643 1461.97 338.643 1451.06 Q338.643 1440.13 342.462 1434.4 Q346.311 1428.64 353.573 1428.64 Z" fill="#000000" fill-rule="evenodd" fill-opacity="1" /><path clip-path="url(#clip630)" d="M531.949 1467.7 L541.498 1467.7 L541.498 1434.74 L531.11 1436.83 L531.11 1431.5 L541.44 1429.42 L547.285 1429.42 L547.285 1467.7 L556.833 1467.7 L556.833 1472.62 L531.949 1472.62 L531.949 1467.7 Z" fill="#000000" fill-rule="evenodd" fill-opacity="1" /><path clip-path="url(#clip630)" d="M727.686 1467.7 L748.085 1467.7 L748.085 1472.62 L720.655 1472.62 L720.655 1467.7 Q723.982 1464.26 729.712 1458.47 Q735.47 1452.65 736.945 1450.98 Q739.752 1447.82 740.852 1445.65 Q741.98 1443.45 741.98 1441.34 Q741.98 1437.9 739.549 1435.73 Q737.148 1433.56 733.271 1433.56 Q730.522 1433.56 727.455 1434.51 Q724.416 1435.47 720.944 1437.41 L720.944 1431.5 Q724.474 1430.09 727.541 1429.36 Q730.609 1428.64 733.155 1428.64 Q739.868 1428.64 743.861 1432 Q747.854 1435.35 747.854 1440.96 Q747.854 1443.63 746.841 1446.03 Q745.857 1448.4 743.224 1451.64 Q742.501 1452.48 738.624 1456.5 Q734.746 1460.5 727.686 1467.7 Z" fill="#000000" fill-rule="evenodd" fill-opacity="1" /><path clip-path="url(#clip630)" d="M930.078 1449.33 Q934.274 1450.22 936.617 1453.06 Q938.99 1455.9 938.99 1460.06 Q938.99 1466.46 934.592 1469.96 Q930.194 1473.46 922.092 1473.46 Q919.372 1473.46 916.479 1472.91 Q913.614 1472.39 910.547 1471.32 L910.547 1465.68 Q912.977 1467.09 915.871 1467.82 Q918.764 1468.54 921.918 1468.54 Q927.416 1468.54 930.281 1466.37 Q933.174 1464.2 933.174 1460.06 Q933.174 1456.24 930.483 1454.1 Q927.821 1451.93 923.047 1451.93 L918.012 1451.93 L918.012 1447.13 L923.278 1447.13 Q927.59 1447.13 929.875 1445.42 Q932.161 1443.68 932.161 1440.44 Q932.161 1437.12 929.789 1435.35 Q927.445 1433.56 923.047 1433.56 Q920.645 1433.56 917.896 1434.08 Q915.148 1434.6 911.849 1435.7 L911.849 1430.49 Q915.176 1429.56 918.07 1429.1 Q920.992 1428.64 923.568 1428.64 Q930.223 1428.64 934.1 1431.68 Q937.977 1434.69 937.977 1439.84 Q937.977 1443.42 935.923 1445.91 Q933.869 1448.37 930.078 1449.33 Z" fill="#000000" fill-rule="evenodd" fill-opacity="1" /><path clip-path="url(#clip630)" d="M1118.93 1434.51 L1104.17 1457.57 L1118.93 1457.57 L1118.93 1434.51 M1117.39 1429.42 L1124.74 1429.42 L1124.74 1457.57 L1130.91 1457.57 L1130.91 1462.43 L1124.74 1462.43 L1124.74 1472.62 L1118.93 1472.62 L1118.93 1462.43 L1099.43 1462.43 L1099.43 1456.79 L1117.39 1429.42 Z" fill="#000000" fill-rule="evenodd" fill-opacity="1" /><path clip-path="url(#clip630)" d="M1293.41 1429.42 L1316.36 1429.42 L1316.36 1434.34 L1298.77 1434.34 L1298.77 1444.93 Q1300.04 1444.49 1301.31 1444.29 Q1302.58 1444.06 1303.86 1444.06 Q1311.09 1444.06 1315.32 1448.03 Q1319.54 1451.99 1319.54 1458.76 Q1319.54 1465.73 1315.2 1469.61 Q1310.86 1473.46 1302.96 1473.46 Q1300.24 1473.46 1297.41 1473 Q1294.6 1472.53 1291.59 1471.61 L1291.59 1465.73 Q1294.19 1467.15 1296.97 1467.85 Q1299.75 1468.54 1302.85 1468.54 Q1307.85 1468.54 1310.77 1465.91 Q1313.7 1463.27 1313.7 1458.76 Q1313.7 1454.25 1310.77 1451.61 Q1307.85 1448.98 1302.85 1448.98 Q1300.5 1448.98 1298.16 1449.5 Q1295.84 1450.02 1293.41 1451.12 L1293.41 1429.42 Z" fill="#000000" fill-rule="evenodd" fill-opacity="1" /><path clip-path="url(#clip630)" d="M1496.47 1448.69 Q1492.53 1448.69 1490.22 1451.38 Q1487.93 1454.07 1487.93 1458.76 Q1487.93 1463.42 1490.22 1466.14 Q1492.53 1468.83 1496.47 1468.83 Q1500.4 1468.83 1502.69 1466.14 Q1505.01 1463.42 1505.01 1458.76 Q1505.01 1454.07 1502.69 1451.38 Q1500.4 1448.69 1496.47 1448.69 M1508.07 1430.37 L1508.07 1435.7 Q1505.87 1434.66 1503.62 1434.11 Q1501.39 1433.56 1499.19 1433.56 Q1493.4 1433.56 1490.34 1437.46 Q1487.3 1441.37 1486.86 1449.27 Q1488.57 1446.75 1491.15 1445.42 Q1493.72 1444.06 1496.82 1444.06 Q1503.33 1444.06 1507.09 1448.03 Q1510.88 1451.96 1510.88 1458.76 Q1510.88 1465.42 1506.94 1469.44 Q1503.01 1473.46 1496.47 1473.46 Q1488.98 1473.46 1485.01 1467.73 Q1481.05 1461.97 1481.05 1451.06 Q1481.05 1440.82 1485.91 1434.74 Q1490.77 1428.64 1498.96 1428.64 Q1501.16 1428.64 1503.39 1429.07 Q1505.64 1429.51 1508.07 1430.37 Z" fill="#000000" fill-rule="evenodd" fill-opacity="1" /><path clip-path="url(#clip630)" d="M1672.47 1429.42 L1700.25 1429.42 L1700.25 1431.91 L1684.57 1472.62 L1678.46 1472.62 L1693.22 1434.34 L1672.47 1434.34 L1672.47 1429.42 Z" fill="#000000" fill-rule="evenodd" fill-opacity="1" /><path clip-path="url(#clip630)" d="M1876.76 1452.1 Q1872.59 1452.1 1870.19 1454.33 Q1867.82 1456.56 1867.82 1460.47 Q1867.82 1464.37 1870.19 1466.6 Q1872.59 1468.83 1876.76 1468.83 Q1880.93 1468.83 1883.33 1466.6 Q1885.73 1464.34 1885.73 1460.47 Q1885.73 1456.56 1883.33 1454.33 Q1880.96 1452.1 1876.76 1452.1 M1870.92 1449.62 Q1867.15 1448.69 1865.04 1446.12 Q1862.96 1443.54 1862.96 1439.84 Q1862.96 1434.66 1866.63 1431.65 Q1870.34 1428.64 1876.76 1428.64 Q1883.21 1428.64 1886.89 1431.65 Q1890.56 1434.66 1890.56 1439.84 Q1890.56 1443.54 1888.45 1446.12 Q1886.37 1448.69 1882.63 1449.62 Q1886.86 1450.6 1889.2 1453.46 Q1891.57 1456.33 1891.57 1460.47 Q1891.57 1466.75 1887.73 1470.1 Q1883.91 1473.46 1876.76 1473.46 Q1869.61 1473.46 1865.76 1470.1 Q1861.95 1466.75 1861.95 1460.47 Q1861.95 1456.33 1864.32 1453.46 Q1866.69 1450.6 1870.92 1449.62 M1868.77 1440.39 Q1868.77 1443.74 1870.86 1445.62 Q1872.97 1447.5 1876.76 1447.5 Q1880.52 1447.5 1882.63 1445.62 Q1884.78 1443.74 1884.78 1440.39 Q1884.78 1437.03 1882.63 1435.15 Q1880.52 1433.27 1876.76 1433.27 Q1872.97 1433.27 1870.86 1435.15 Q1868.77 1437.03 1868.77 1440.39 Z" fill="#000000" fill-rule="evenodd" fill-opacity="1" /><path clip-path="url(#clip630)" d="M2055.03 1471.72 L2055.03 1466.4 Q2057.23 1467.44 2059.49 1467.99 Q2061.75 1468.54 2063.92 1468.54 Q2069.7 1468.54 2072.74 1464.66 Q2075.81 1460.76 2076.24 1452.83 Q2074.57 1455.32 2071.99 1456.65 Q2069.42 1457.98 2066.29 1457.98 Q2059.81 1457.98 2056.02 1454.07 Q2052.26 1450.14 2052.26 1443.34 Q2052.26 1436.68 2056.19 1432.66 Q2060.13 1428.64 2066.67 1428.64 Q2074.16 1428.64 2078.1 1434.4 Q2082.06 1440.13 2082.06 1451.06 Q2082.06 1461.28 2077.2 1467.38 Q2072.37 1473.46 2064.18 1473.46 Q2061.98 1473.46 2059.72 1473.02 Q2057.47 1472.59 2055.03 1471.72 M2066.67 1453.41 Q2070.6 1453.41 2072.89 1450.72 Q2075.2 1448.03 2075.2 1443.34 Q2075.2 1438.68 2072.89 1435.99 Q2070.6 1433.27 2066.67 1433.27 Q2062.73 1433.27 2060.42 1435.99 Q2058.13 1438.68 2058.13 1443.34 Q2058.13 1448.03 2060.42 1450.72 Q2062.73 1453.41 2066.67 1453.41 Z" fill="#000000" fill-rule="evenodd" fill-opacity="1" /><path clip-path="url(#clip630)" d="M2225.92 1467.7 L2235.46 1467.7 L2235.46 1434.74 L2225.08 1436.83 L2225.08 1431.5 L2235.41 1429.42 L2241.25 1429.42 L2241.25 1467.7 L2250.8 1467.7 L2250.8 1472.62 L2225.92 1472.62 L2225.92 1467.7 Z" fill="#000000" fill-rule="evenodd" fill-opacity="1" /><path clip-path="url(#clip630)" d="M2275.11 1433.27 Q2270.59 1433.27 2268.31 1437.72 Q2266.05 1442.15 2266.05 1451.06 Q2266.05 1459.95 2268.31 1464.4 Q2270.59 1468.83 2275.11 1468.83 Q2279.65 1468.83 2281.91 1464.4 Q2284.19 1459.95 2284.19 1451.06 Q2284.19 1442.15 2281.91 1437.72 Q2279.65 1433.27 2275.11 1433.27 M2275.11 1428.64 Q2282.37 1428.64 2286.19 1434.4 Q2290.04 1440.13 2290.04 1451.06 Q2290.04 1461.97 2286.19 1467.73 Q2282.37 1473.46 2275.11 1473.46 Q2267.84 1473.46 2263.99 1467.73 Q2260.18 1461.97 2260.18 1451.06 Q2260.18 1440.13 2263.99 1434.4 Q2267.84 1428.64 2275.11 1428.64 Z" fill="#000000" fill-rule="evenodd" fill-opacity="1" /><path clip-path="url(#clip630)" d="M1285.43 1511.92 L1292.93 1511.92 L1292.93 1549.15 L1315.17 1529.59 L1324.69 1529.59 L1300.62 1550.81 L1325.7 1574.96 L1315.98 1574.96 L1292.93 1552.8 L1292.93 1574.96 L1285.43 1574.96 L1285.43 1511.92 Z" fill="#000000" fill-rule="evenodd" fill-opacity="1" /><polyline clip-path="url(#clip632)" style="stroke:#000000; stroke-linecap:butt; stroke-linejoin:round; stroke-width:2; stroke-opacity:0.1; fill:none" points="
  258.374,1340.02 2352.76,1340.02 
  "/>
<polyline clip-path="url(#clip632)" style="stroke:#000000; stroke-linecap:butt; stroke-linejoin:round; stroke-width:2; stroke-opacity:0.1; fill:none" points="
  258.374,1032.22 2352.76,1032.22 
  "/>
<polyline clip-path="url(#clip632)" style="stroke:#000000; stroke-linecap:butt; stroke-linejoin:round; stroke-width:2; stroke-opacity:0.1; fill:none" points="
  258.374,724.412 2352.76,724.412 
  "/>
<polyline clip-path="url(#clip632)" style="stroke:#000000; stroke-linecap:butt; stroke-linejoin:round; stroke-width:2; stroke-opacity:0.1; fill:none" points="
  258.374,416.608 2352.76,416.608 
  "/>
<polyline clip-path="url(#clip632)" style="stroke:#000000; stroke-linecap:butt; stroke-linejoin:round; stroke-width:2; stroke-opacity:0.1; fill:none" points="
  258.374,108.805 2352.76,108.805 
  "/>
<polyline clip-path="url(#clip630)" style="stroke:#000000; stroke-linecap:butt; stroke-linejoin:round; stroke-width:4; stroke-opacity:1; fill:none" points="
  258.374,1401.58 258.374,47.2441 
  "/>
<polyline clip-path="url(#clip630)" style="stroke:#000000; stroke-linecap:butt; stroke-linejoin:round; stroke-width:4; stroke-opacity:1; fill:none" points="
  258.374,1340.02 283.507,1340.02 
  "/>
<polyline clip-path="url(#clip630)" style="stroke:#000000; stroke-linecap:butt; stroke-linejoin:round; stroke-width:4; stroke-opacity:1; fill:none" points="
  258.374,1032.22 283.507,1032.22 
  "/>
<polyline clip-path="url(#clip630)" style="stroke:#000000; stroke-linecap:butt; stroke-linejoin:round; stroke-width:4; stroke-opacity:1; fill:none" points="
  258.374,724.412 283.507,724.412 
  "/>
<polyline clip-path="url(#clip630)" style="stroke:#000000; stroke-linecap:butt; stroke-linejoin:round; stroke-width:4; stroke-opacity:1; fill:none" points="
  258.374,416.608 283.507,416.608 
  "/>
<polyline clip-path="url(#clip630)" style="stroke:#000000; stroke-linecap:butt; stroke-linejoin:round; stroke-width:4; stroke-opacity:1; fill:none" points="
  258.374,108.805 283.507,108.805 
  "/>
<path clip-path="url(#clip630)" d="M50.9921 1340.58 L88.0868 1340.58 L88.0868 1345.5 L50.9921 1345.5 L50.9921 1340.58 Z" fill="#000000" fill-rule="evenodd" fill-opacity="1" /><path clip-path="url(#clip630)" d="M113.202 1322.27 Q108.689 1322.27 106.403 1326.72 Q104.146 1331.15 104.146 1340.06 Q104.146 1348.95 106.403 1353.4 Q108.689 1357.83 113.202 1357.83 Q117.745 1357.83 120.002 1353.4 Q122.288 1348.95 122.288 1340.06 Q122.288 1331.15 120.002 1326.72 Q117.745 1322.27 113.202 1322.27 M113.202 1317.64 Q120.465 1317.64 124.285 1323.4 Q128.133 1329.13 128.133 1340.06 Q128.133 1350.97 124.285 1356.73 Q120.465 1362.46 113.202 1362.46 Q105.94 1362.46 102.091 1356.73 Q98.272 1350.97 98.272 1340.06 Q98.272 1329.13 102.091 1323.4 Q105.94 1317.64 113.202 1317.64 Z" fill="#000000" fill-rule="evenodd" fill-opacity="1" /><path clip-path="url(#clip630)" d="M138.405 1354.27 L144.51 1354.27 L144.51 1361.62 L138.405 1361.62 L138.405 1354.27 Z" fill="#000000" fill-rule="evenodd" fill-opacity="1" /><path clip-path="url(#clip630)" d="M157.299 1318.42 L180.245 1318.42 L180.245 1323.34 L162.652 1323.34 L162.652 1333.93 Q163.926 1333.49 165.199 1333.29 Q166.472 1333.06 167.745 1333.06 Q174.979 1333.06 179.203 1337.02 Q183.428 1340.99 183.428 1347.76 Q183.428 1354.73 179.088 1358.61 Q174.747 1362.46 166.848 1362.46 Q164.128 1362.46 161.292 1362 Q158.486 1361.53 155.477 1360.61 L155.477 1354.73 Q158.081 1356.15 160.858 1356.84 Q163.636 1357.54 166.732 1357.54 Q171.738 1357.54 174.66 1354.91 Q177.583 1352.27 177.583 1347.76 Q177.583 1343.25 174.66 1340.61 Q171.738 1337.98 166.732 1337.98 Q164.389 1337.98 162.045 1338.5 Q159.73 1339.02 157.299 1340.12 L157.299 1318.42 Z" fill="#000000" fill-rule="evenodd" fill-opacity="1" /><path clip-path="url(#clip630)" d="M207.444 1322.27 Q202.93 1322.27 200.644 1326.72 Q198.387 1331.15 198.387 1340.06 Q198.387 1348.95 200.644 1353.4 Q202.93 1357.83 207.444 1357.83 Q211.987 1357.83 214.244 1353.4 Q216.529 1348.95 216.529 1340.06 Q216.529 1331.15 214.244 1326.72 Q211.987 1322.27 207.444 1322.27 M207.444 1317.64 Q214.707 1317.64 218.526 1323.4 Q222.374 1329.13 222.374 1340.06 Q222.374 1350.97 218.526 1356.73 Q214.707 1362.46 207.444 1362.46 Q200.181 1362.46 196.333 1356.73 Q192.513 1350.97 192.513 1340.06 Q192.513 1329.13 196.333 1323.4 Q200.181 1317.64 207.444 1317.64 Z" fill="#000000" fill-rule="evenodd" fill-opacity="1" /><path clip-path="url(#clip630)" d="M52.2363 1032.78 L89.331 1032.78 L89.331 1037.7 L52.2363 1037.7 L52.2363 1032.78 Z" fill="#000000" fill-rule="evenodd" fill-opacity="1" /><path clip-path="url(#clip630)" d="M114.447 1014.46 Q109.933 1014.46 107.647 1018.92 Q105.39 1023.35 105.39 1032.26 Q105.39 1041.14 107.647 1045.6 Q109.933 1050.03 114.447 1050.03 Q118.989 1050.03 121.246 1045.6 Q123.532 1041.14 123.532 1032.26 Q123.532 1023.35 121.246 1018.92 Q118.989 1014.46 114.447 1014.46 M114.447 1009.83 Q121.709 1009.83 125.529 1015.59 Q129.377 1021.32 129.377 1032.26 Q129.377 1043.17 125.529 1048.93 Q121.709 1054.65 114.447 1054.65 Q107.184 1054.65 103.336 1048.93 Q99.5162 1043.17 99.5162 1032.26 Q99.5162 1021.32 103.336 1015.59 Q107.184 1009.83 114.447 1009.83 Z" fill="#000000" fill-rule="evenodd" fill-opacity="1" /><path clip-path="url(#clip630)" d="M139.649 1046.47 L145.754 1046.47 L145.754 1053.82 L139.649 1053.82 L139.649 1046.47 Z" fill="#000000" fill-rule="evenodd" fill-opacity="1" /><path clip-path="url(#clip630)" d="M163.52 1048.9 L183.92 1048.9 L183.92 1053.82 L156.489 1053.82 L156.489 1048.9 Q159.817 1045.45 165.546 1039.67 Q171.304 1033.85 172.78 1032.17 Q175.586 1029.02 176.686 1026.85 Q177.814 1024.65 177.814 1022.54 Q177.814 1019.09 175.384 1016.92 Q172.982 1014.75 169.105 1014.75 Q166.356 1014.75 163.289 1015.71 Q160.251 1016.66 156.779 1018.6 L156.779 1012.7 Q160.309 1011.28 163.376 1010.56 Q166.443 1009.83 168.989 1009.83 Q175.702 1009.83 179.695 1013.19 Q183.688 1016.55 183.688 1022.16 Q183.688 1024.82 182.675 1027.22 Q181.692 1029.6 179.059 1032.84 Q178.335 1033.68 174.458 1037.7 Q170.581 1041.69 163.52 1048.9 Z" fill="#000000" fill-rule="evenodd" fill-opacity="1" /><path clip-path="url(#clip630)" d="M196.246 1010.62 L219.191 1010.62 L219.191 1015.53 L201.599 1015.53 L201.599 1026.12 Q202.872 1025.69 204.145 1025.49 Q205.418 1025.26 206.692 1025.26 Q213.925 1025.26 218.15 1029.22 Q222.374 1033.18 222.374 1039.96 Q222.374 1046.93 218.034 1050.81 Q213.694 1054.65 205.795 1054.65 Q203.075 1054.65 200.239 1054.19 Q197.432 1053.73 194.423 1052.8 L194.423 1046.93 Q197.027 1048.35 199.805 1049.04 Q202.583 1049.74 205.679 1049.74 Q210.685 1049.74 213.607 1047.1 Q216.529 1044.47 216.529 1039.96 Q216.529 1035.44 213.607 1032.81 Q210.685 1030.18 205.679 1030.18 Q203.335 1030.18 200.991 1030.7 Q198.677 1031.22 196.246 1032.32 L196.246 1010.62 Z" fill="#000000" fill-rule="evenodd" fill-opacity="1" /><path clip-path="url(#clip630)" d="M113.202 706.66 Q108.689 706.66 106.403 711.116 Q104.146 715.543 104.146 724.455 Q104.146 733.338 106.403 737.794 Q108.689 742.221 113.202 742.221 Q117.745 742.221 120.002 737.794 Q122.288 733.338 122.288 724.455 Q122.288 715.543 120.002 711.116 Q117.745 706.66 113.202 706.66 M113.202 702.031 Q120.465 702.031 124.285 707.789 Q128.133 713.518 128.133 724.455 Q128.133 735.364 124.285 741.122 Q120.465 746.851 113.202 746.851 Q105.94 746.851 102.091 741.122 Q98.272 735.364 98.272 724.455 Q98.272 713.518 102.091 707.789 Q105.94 702.031 113.202 702.031 Z" fill="#000000" fill-rule="evenodd" fill-opacity="1" /><path clip-path="url(#clip630)" d="M138.405 738.662 L144.51 738.662 L144.51 746.012 L138.405 746.012 L138.405 738.662 Z" fill="#000000" fill-rule="evenodd" fill-opacity="1" /><path clip-path="url(#clip630)" d="M169.741 706.66 Q165.228 706.66 162.942 711.116 Q160.685 715.543 160.685 724.455 Q160.685 733.338 162.942 737.794 Q165.228 742.221 169.741 742.221 Q174.284 742.221 176.541 737.794 Q178.827 733.338 178.827 724.455 Q178.827 715.543 176.541 711.116 Q174.284 706.66 169.741 706.66 M169.741 702.031 Q177.004 702.031 180.824 707.789 Q184.672 713.518 184.672 724.455 Q184.672 735.364 180.824 741.122 Q177.004 746.851 169.741 746.851 Q162.479 746.851 158.63 741.122 Q154.811 735.364 154.811 724.455 Q154.811 713.518 158.63 707.789 Q162.479 702.031 169.741 702.031 Z" fill="#000000" fill-rule="evenodd" fill-opacity="1" /><path clip-path="url(#clip630)" d="M207.444 706.66 Q202.93 706.66 200.644 711.116 Q198.387 715.543 198.387 724.455 Q198.387 733.338 200.644 737.794 Q202.93 742.221 207.444 742.221 Q211.987 742.221 214.244 737.794 Q216.529 733.338 216.529 724.455 Q216.529 715.543 214.244 711.116 Q211.987 706.66 207.444 706.66 M207.444 702.031 Q214.707 702.031 218.526 707.789 Q222.374 713.518 222.374 724.455 Q222.374 735.364 218.526 741.122 Q214.707 746.851 207.444 746.851 Q200.181 746.851 196.333 741.122 Q192.513 735.364 192.513 724.455 Q192.513 713.518 196.333 707.789 Q200.181 702.031 207.444 702.031 Z" fill="#000000" fill-rule="evenodd" fill-opacity="1" /><path clip-path="url(#clip630)" d="M114.447 398.857 Q109.933 398.857 107.647 403.313 Q105.39 407.74 105.39 416.652 Q105.39 425.535 107.647 429.991 Q109.933 434.418 114.447 434.418 Q118.989 434.418 121.246 429.991 Q123.532 425.535 123.532 416.652 Q123.532 407.74 121.246 403.313 Q118.989 398.857 114.447 398.857 M114.447 394.227 Q121.709 394.227 125.529 399.985 Q129.377 405.714 129.377 416.652 Q129.377 427.56 125.529 433.318 Q121.709 439.048 114.447 439.048 Q107.184 439.048 103.336 433.318 Q99.5162 427.56 99.5162 416.652 Q99.5162 405.714 103.336 399.985 Q107.184 394.227 114.447 394.227 Z" fill="#000000" fill-rule="evenodd" fill-opacity="1" /><path clip-path="url(#clip630)" d="M139.649 430.859 L145.754 430.859 L145.754 438.208 L139.649 438.208 L139.649 430.859 Z" fill="#000000" fill-rule="evenodd" fill-opacity="1" /><path clip-path="url(#clip630)" d="M163.52 433.289 L183.92 433.289 L183.92 438.208 L156.489 438.208 L156.489 433.289 Q159.817 429.846 165.546 424.059 Q171.304 418.243 172.78 416.565 Q175.586 413.411 176.686 411.241 Q177.814 409.042 177.814 406.93 Q177.814 403.486 175.384 401.316 Q172.982 399.146 169.105 399.146 Q166.356 399.146 163.289 400.101 Q160.251 401.056 156.779 402.994 L156.779 397.092 Q160.309 395.674 163.376 394.951 Q166.443 394.227 168.989 394.227 Q175.702 394.227 179.695 397.584 Q183.688 400.94 183.688 406.553 Q183.688 409.215 182.675 411.617 Q181.692 413.99 179.059 417.23 Q178.335 418.07 174.458 422.092 Q170.581 426.085 163.52 433.289 Z" fill="#000000" fill-rule="evenodd" fill-opacity="1" /><path clip-path="url(#clip630)" d="M196.246 395.008 L219.191 395.008 L219.191 399.927 L201.599 399.927 L201.599 410.518 Q202.872 410.084 204.145 409.881 Q205.418 409.65 206.692 409.65 Q213.925 409.65 218.15 413.614 Q222.374 417.578 222.374 424.349 Q222.374 431.322 218.034 435.199 Q213.694 439.048 205.795 439.048 Q203.075 439.048 200.239 438.585 Q197.432 438.122 194.423 437.196 L194.423 431.322 Q197.027 432.74 199.805 433.434 Q202.583 434.129 205.679 434.129 Q210.685 434.129 213.607 431.495 Q216.529 428.862 216.529 424.349 Q216.529 419.835 213.607 417.202 Q210.685 414.568 205.679 414.568 Q203.335 414.568 200.991 415.089 Q198.677 415.61 196.246 416.71 L196.246 395.008 Z" fill="#000000" fill-rule="evenodd" fill-opacity="1" /><path clip-path="url(#clip630)" d="M113.202 91.0532 Q108.689 91.0532 106.403 95.5092 Q104.146 99.9362 104.146 108.848 Q104.146 117.731 106.403 122.187 Q108.689 126.614 113.202 126.614 Q117.745 126.614 120.002 122.187 Q122.288 117.731 122.288 108.848 Q122.288 99.9362 120.002 95.5092 Q117.745 91.0532 113.202 91.0532 M113.202 86.4236 Q120.465 86.4236 124.285 92.1816 Q128.133 97.9108 128.133 108.848 Q128.133 119.757 124.285 125.515 Q120.465 131.244 113.202 131.244 Q105.94 131.244 102.091 125.515 Q98.272 119.757 98.272 108.848 Q98.272 97.9108 102.091 92.1816 Q105.94 86.4236 113.202 86.4236 Z" fill="#000000" fill-rule="evenodd" fill-opacity="1" /><path clip-path="url(#clip630)" d="M138.405 123.055 L144.51 123.055 L144.51 130.405 L138.405 130.405 L138.405 123.055 Z" fill="#000000" fill-rule="evenodd" fill-opacity="1" /><path clip-path="url(#clip630)" d="M157.299 87.2048 L180.245 87.2048 L180.245 92.1238 L162.652 92.1238 L162.652 102.714 Q163.926 102.28 165.199 102.077 Q166.472 101.846 167.745 101.846 Q174.979 101.846 179.203 105.81 Q183.428 109.774 183.428 116.545 Q183.428 123.518 179.088 127.396 Q174.747 131.244 166.848 131.244 Q164.128 131.244 161.292 130.781 Q158.486 130.318 155.477 129.392 L155.477 123.518 Q158.081 124.936 160.858 125.631 Q163.636 126.325 166.732 126.325 Q171.738 126.325 174.66 123.692 Q177.583 121.059 177.583 116.545 Q177.583 112.031 174.66 109.398 Q171.738 106.765 166.732 106.765 Q164.389 106.765 162.045 107.286 Q159.73 107.807 157.299 108.906 L157.299 87.2048 Z" fill="#000000" fill-rule="evenodd" fill-opacity="1" /><path clip-path="url(#clip630)" d="M207.444 91.0532 Q202.93 91.0532 200.644 95.5092 Q198.387 99.9362 198.387 108.848 Q198.387 117.731 200.644 122.187 Q202.93 126.614 207.444 126.614 Q211.987 126.614 214.244 122.187 Q216.529 117.731 216.529 108.848 Q216.529 99.9362 214.244 95.5092 Q211.987 91.0532 207.444 91.0532 M207.444 86.4236 Q214.707 86.4236 218.526 92.1816 Q222.374 97.9108 222.374 108.848 Q222.374 119.757 218.526 125.515 Q214.707 131.244 207.444 131.244 Q200.181 131.244 196.333 125.515 Q192.513 119.757 192.513 108.848 Q192.513 97.9108 196.333 92.1816 Q200.181 86.4236 207.444 86.4236 Z" fill="#000000" fill-rule="evenodd" fill-opacity="1" /><polyline clip-path="url(#clip632)" style="stroke:#009af9; stroke-linecap:butt; stroke-linejoin:round; stroke-width:12; stroke-opacity:1; fill:none" points="
  353.573,724.412 543.972,724.412 734.37,724.412 924.768,724.412 1115.17,724.412 1305.57,416.608 1495.96,724.412 1686.36,724.412 1876.76,724.412 2067.16,724.412 
  2257.56,724.412 2447.96,724.412 2638.35,724.412 2828.75,724.412 3019.15,724.412 3209.55,724.412 3399.95,724.412 3590.35,724.412 3780.74,724.412 3971.14,724.412 
  4161.54,724.412 4351.94,724.412 4542.34,724.412 4732.73,724.412 4923.13,724.412 5113.53,724.412 5303.93,724.412 5494.33,724.412 5684.73,724.412 5875.12,724.412 
  6065.52,724.412 6255.92,724.412 6446.32,724.412 
  "/>
<circle clip-path="url(#clip632)" cx="353.573" cy="724.412" r="14" fill="#009af9" fill-rule="evenodd" fill-opacity="1" stroke="#000000" stroke-opacity="1" stroke-width="3.2"/>
<circle clip-path="url(#clip632)" cx="543.972" cy="724.412" r="14" fill="#009af9" fill-rule="evenodd" fill-opacity="1" stroke="#000000" stroke-opacity="1" stroke-width="3.2"/>
<circle clip-path="url(#clip632)" cx="734.37" cy="724.412" r="14" fill="#009af9" fill-rule="evenodd" fill-opacity="1" stroke="#000000" stroke-opacity="1" stroke-width="3.2"/>
<circle clip-path="url(#clip632)" cx="924.768" cy="724.412" r="14" fill="#009af9" fill-rule="evenodd" fill-opacity="1" stroke="#000000" stroke-opacity="1" stroke-width="3.2"/>
<circle clip-path="url(#clip632)" cx="1115.17" cy="724.412" r="14" fill="#009af9" fill-rule="evenodd" fill-opacity="1" stroke="#000000" stroke-opacity="1" stroke-width="3.2"/>
<circle clip-path="url(#clip632)" cx="1305.57" cy="416.608" r="14" fill="#009af9" fill-rule="evenodd" fill-opacity="1" stroke="#000000" stroke-opacity="1" stroke-width="3.2"/>
<circle clip-path="url(#clip632)" cx="1495.96" cy="724.412" r="14" fill="#009af9" fill-rule="evenodd" fill-opacity="1" stroke="#000000" stroke-opacity="1" stroke-width="3.2"/>
<circle clip-path="url(#clip632)" cx="1686.36" cy="724.412" r="14" fill="#009af9" fill-rule="evenodd" fill-opacity="1" stroke="#000000" stroke-opacity="1" stroke-width="3.2"/>
<circle clip-path="url(#clip632)" cx="1876.76" cy="724.412" r="14" fill="#009af9" fill-rule="evenodd" fill-opacity="1" stroke="#000000" stroke-opacity="1" stroke-width="3.2"/>
<circle clip-path="url(#clip632)" cx="2067.16" cy="724.412" r="14" fill="#009af9" fill-rule="evenodd" fill-opacity="1" stroke="#000000" stroke-opacity="1" stroke-width="3.2"/>
<circle clip-path="url(#clip632)" cx="2257.56" cy="724.412" r="14" fill="#009af9" fill-rule="evenodd" fill-opacity="1" stroke="#000000" stroke-opacity="1" stroke-width="3.2"/>
<polyline clip-path="url(#clip632)" style="stroke:#e26f46; stroke-linecap:butt; stroke-linejoin:round; stroke-width:12; stroke-opacity:1; fill:none" points="
  353.573,724.412 543.972,724.412 734.37,1340.02 924.768,724.412 1115.17,724.412 1305.57,724.412 1495.96,724.412 1686.36,724.412 1876.76,724.412 2067.16,724.412 
  2257.56,724.412 2447.96,724.412 2638.35,724.412 2828.75,724.412 3019.15,724.412 3209.55,724.412 3399.95,724.412 3590.35,724.412 3780.74,724.412 3971.14,724.412 
  4161.54,724.412 4351.94,724.412 4542.34,724.412 4732.73,724.412 4923.13,724.412 5113.53,724.412 5303.93,724.412 5494.33,724.412 5684.73,724.412 5875.12,724.412 
  6065.52,724.412 6255.92,724.412 6446.32,724.412 
  "/>
<path clip-path="url(#clip632)" d="M337.573 708.412 L337.573 740.412 L369.573 740.412 L369.573 708.412 L337.573 708.412 Z" fill="#e26f46" fill-rule="evenodd" fill-opacity="1" stroke="#000000" stroke-opacity="1" stroke-width="3.2"/>
<path clip-path="url(#clip632)" d="M527.972 708.412 L527.972 740.412 L559.972 740.412 L559.972 708.412 L527.972 708.412 Z" fill="#e26f46" fill-rule="evenodd" fill-opacity="1" stroke="#000000" stroke-opacity="1" stroke-width="3.2"/>
<path clip-path="url(#clip632)" d="M718.37 1324.02 L718.37 1356.02 L750.37 1356.02 L750.37 1324.02 L718.37 1324.02 Z" fill="#e26f46" fill-rule="evenodd" fill-opacity="1" stroke="#000000" stroke-opacity="1" stroke-width="3.2"/>
<path clip-path="url(#clip632)" d="M908.768 708.412 L908.768 740.412 L940.768 740.412 L940.768 708.412 L908.768 708.412 Z" fill="#e26f46" fill-rule="evenodd" fill-opacity="1" stroke="#000000" stroke-opacity="1" stroke-width="3.2"/>
<path clip-path="url(#clip632)" d="M1099.17 708.412 L1099.17 740.412 L1131.17 740.412 L1131.17 708.412 L1099.17 708.412 Z" fill="#e26f46" fill-rule="evenodd" fill-opacity="1" stroke="#000000" stroke-opacity="1" stroke-width="3.2"/>
<path clip-path="url(#clip632)" d="M1289.57 708.412 L1289.57 740.412 L1321.57 740.412 L1321.57 708.412 L1289.57 708.412 Z" fill="#e26f46" fill-rule="evenodd" fill-opacity="1" stroke="#000000" stroke-opacity="1" stroke-width="3.2"/>
<path clip-path="url(#clip632)" d="M1479.96 708.412 L1479.96 740.412 L1511.96 740.412 L1511.96 708.412 L1479.96 708.412 Z" fill="#e26f46" fill-rule="evenodd" fill-opacity="1" stroke="#000000" stroke-opacity="1" stroke-width="3.2"/>
<path clip-path="url(#clip632)" d="M1670.36 708.412 L1670.36 740.412 L1702.36 740.412 L1702.36 708.412 L1670.36 708.412 Z" fill="#e26f46" fill-rule="evenodd" fill-opacity="1" stroke="#000000" stroke-opacity="1" stroke-width="3.2"/>
<path clip-path="url(#clip632)" d="M1860.76 708.412 L1860.76 740.412 L1892.76 740.412 L1892.76 708.412 L1860.76 708.412 Z" fill="#e26f46" fill-rule="evenodd" fill-opacity="1" stroke="#000000" stroke-opacity="1" stroke-width="3.2"/>
<path clip-path="url(#clip632)" d="M2051.16 708.412 L2051.16 740.412 L2083.16 740.412 L2083.16 708.412 L2051.16 708.412 Z" fill="#e26f46" fill-rule="evenodd" fill-opacity="1" stroke="#000000" stroke-opacity="1" stroke-width="3.2"/>
<path clip-path="url(#clip632)" d="M2241.56 708.412 L2241.56 740.412 L2273.56 740.412 L2273.56 708.412 L2241.56 708.412 Z" fill="#e26f46" fill-rule="evenodd" fill-opacity="1" stroke="#000000" stroke-opacity="1" stroke-width="3.2"/>
<path clip-path="url(#clip630)" d="
M1791.32 319.189 L2282.94 319.189 L2282.94 92.3886 L1791.32 92.3886  Z
  " fill="#ffffff" fill-rule="evenodd" fill-opacity="1"/>
<polyline clip-path="url(#clip630)" style="stroke:#000000; stroke-linecap:butt; stroke-linejoin:round; stroke-width:4; stroke-opacity:1; fill:none" points="
  1791.32,319.189 2282.94,319.189 2282.94,92.3886 1791.32,92.3886 1791.32,319.189 
  "/>
<polyline clip-path="url(#clip630)" style="stroke:#009af9; stroke-linecap:butt; stroke-linejoin:round; stroke-width:5; stroke-opacity:1; fill:none" points="
  1814.59,167.989 1954.22,167.989 
  "/>
<circle clip-path="url(#clip630)" cx="1884.41" cy="167.989" r="28" fill="#009af9" fill-rule="evenodd" fill-opacity="1" stroke="#000000" stroke-opacity="1" stroke-width="6.4"/>
<path clip-path="url(#clip630)" d="M1996.47 162.158 Q1995.58 161.637 1994.5 161.406 Q1993.46 161.145 1992.19 161.145 Q1987.68 161.145 1985.25 164.097 Q1982.84 167.019 1982.84 172.517 L1982.84 189.589 L1977.49 189.589 L1977.49 157.181 L1982.84 157.181 L1982.84 162.216 Q1984.52 159.265 1987.21 157.847 Q1989.9 156.4 1993.75 156.4 Q1994.3 156.4 1994.97 156.487 Q1995.63 156.545 1996.44 156.689 L1996.47 162.158 Z" fill="#000000" fill-rule="evenodd" fill-opacity="1" /><path clip-path="url(#clip630)" d="M2028.47 172.054 L2028.47 174.658 L2004 174.658 Q2004.34 180.156 2007.29 183.049 Q2010.27 185.914 2015.57 185.914 Q2018.64 185.914 2021.5 185.162 Q2024.39 184.409 2027.23 182.905 L2027.23 187.939 Q2024.37 189.155 2021.36 189.791 Q2018.35 190.428 2015.25 190.428 Q2007.5 190.428 2002.95 185.914 Q1998.44 181.4 1998.44 173.703 Q1998.44 165.746 2002.72 161.088 Q2007.03 156.4 2014.33 156.4 Q2020.86 156.4 2024.65 160.625 Q2028.47 164.82 2028.47 172.054 M2023.15 170.491 Q2023.09 166.122 2020.69 163.518 Q2018.32 160.914 2014.38 160.914 Q2009.93 160.914 2007.24 163.431 Q2004.57 165.949 2004.17 170.52 L2023.15 170.491 Z" fill="#000000" fill-rule="evenodd" fill-opacity="1" /><path clip-path="url(#clip630)" d="M2051.94 173.298 Q2045.49 173.298 2043 174.774 Q2040.51 176.25 2040.51 179.809 Q2040.51 182.644 2042.36 184.322 Q2044.24 185.972 2047.46 185.972 Q2051.88 185.972 2054.54 182.847 Q2057.24 179.693 2057.24 174.485 L2057.24 173.298 L2051.94 173.298 M2062.56 171.099 L2062.56 189.589 L2057.24 189.589 L2057.24 184.67 Q2055.41 187.621 2052.69 189.039 Q2049.97 190.428 2046.04 190.428 Q2041.06 190.428 2038.11 187.65 Q2035.19 184.843 2035.19 180.156 Q2035.19 174.687 2038.83 171.909 Q2042.51 169.132 2049.77 169.132 L2057.24 169.132 L2057.24 168.611 Q2057.24 164.936 2054.81 162.939 Q2052.4 160.914 2048.03 160.914 Q2045.26 160.914 2042.62 161.58 Q2039.99 162.245 2037.56 163.576 L2037.56 158.657 Q2040.48 157.529 2043.23 156.979 Q2045.98 156.4 2048.58 156.4 Q2055.62 156.4 2059.09 160.046 Q2062.56 163.692 2062.56 171.099 Z" fill="#000000" fill-rule="evenodd" fill-opacity="1" /><path clip-path="url(#clip630)" d="M2073.53 144.566 L2078.85 144.566 L2078.85 189.589 L2073.53 189.589 L2073.53 144.566 Z" fill="#000000" fill-rule="evenodd" fill-opacity="1" /><path clip-path="url(#clip630)" d="M2102.78 144.624 Q2098.9 151.279 2097.02 157.789 Q2095.14 164.299 2095.14 170.983 Q2095.14 177.667 2097.02 184.236 Q2098.93 190.775 2102.78 197.401 L2098.15 197.401 Q2093.81 190.601 2091.64 184.033 Q2089.5 177.465 2089.5 170.983 Q2089.5 164.531 2091.64 157.992 Q2093.78 151.452 2098.15 144.624 L2102.78 144.624 Z" fill="#000000" fill-rule="evenodd" fill-opacity="1" /><path clip-path="url(#clip630)" d="M2131.4 176.799 L2131.4 157.181 L2136.72 157.181 L2136.72 176.597 Q2136.72 181.197 2138.51 183.512 Q2140.31 185.798 2143.9 185.798 Q2148.21 185.798 2150.7 183.049 Q2153.21 180.3 2153.21 175.555 L2153.21 157.181 L2158.54 157.181 L2158.54 189.589 L2153.21 189.589 L2153.21 184.612 Q2151.27 187.563 2148.7 189.01 Q2146.15 190.428 2142.77 190.428 Q2137.18 190.428 2134.29 186.956 Q2131.4 183.483 2131.4 176.799 M2144.79 156.4 L2144.79 156.4 Z" fill="#000000" fill-rule="evenodd" fill-opacity="1" /><path clip-path="url(#clip630)" d="M2146.96 142.193 L2151.25 142.193 L2158.33 153.073 L2154.31 153.073 L2149.1 145.984 L2143.9 153.073 L2139.87 153.073 L2146.96 142.193 M2149.1 156.4 L2149.1 156.4 Z" fill="#000000" fill-rule="evenodd" fill-opacity="1" /><path clip-path="url(#clip630)" d="M2187.5 144.624 L2192.13 144.624 Q2196.47 151.452 2198.61 157.992 Q2200.78 164.531 2200.78 170.983 Q2200.78 177.465 2198.61 184.033 Q2196.47 190.601 2192.13 197.401 L2187.5 197.401 Q2191.35 190.775 2193.23 184.236 Q2195.14 177.667 2195.14 170.983 Q2195.14 164.299 2193.23 157.789 Q2191.35 151.279 2187.5 144.624 Z" fill="#000000" fill-rule="evenodd" fill-opacity="1" /><polyline clip-path="url(#clip630)" style="stroke:#e26f46; stroke-linecap:butt; stroke-linejoin:round; stroke-width:5; stroke-opacity:1; fill:none" points="
  1814.59,243.589 1954.22,243.589 
  "/>
<path clip-path="url(#clip630)" d="M1852.41 211.589 L1852.41 275.589 L1916.41 275.589 L1916.41 211.589 L1852.41 211.589 Z" fill="#e26f46" fill-rule="evenodd" fill-opacity="1" stroke="#000000" stroke-opacity="1" stroke-width="6.4"/>
<path clip-path="url(#clip630)" d="M1977.49 232.781 L1982.81 232.781 L1982.81 265.189 L1977.49 265.189 L1977.49 232.781 M1977.49 220.166 L1982.81 220.166 L1982.81 226.908 L1977.49 226.908 L1977.49 220.166 Z" fill="#000000" fill-rule="evenodd" fill-opacity="1" /><path clip-path="url(#clip630)" d="M2019.19 239.002 Q2021.18 235.414 2023.96 233.707 Q2026.74 232 2030.5 232 Q2035.56 232 2038.31 235.559 Q2041.06 239.089 2041.06 245.629 L2041.06 265.189 L2035.71 265.189 L2035.71 245.802 Q2035.71 241.144 2034.06 238.887 Q2032.41 236.63 2029.02 236.63 Q2024.89 236.63 2022.48 239.379 Q2020.08 242.127 2020.08 246.873 L2020.08 265.189 L2014.73 265.189 L2014.73 245.802 Q2014.73 241.115 2013.08 238.887 Q2011.43 236.63 2007.99 236.63 Q2003.91 236.63 2001.51 239.408 Q1999.11 242.156 1999.11 246.873 L1999.11 265.189 L1993.75 265.189 L1993.75 232.781 L1999.11 232.781 L1999.11 237.816 Q2000.93 234.836 2003.47 233.418 Q2006.02 232 2009.52 232 Q2013.05 232 2015.51 233.794 Q2018 235.588 2019.19 239.002 Z" fill="#000000" fill-rule="evenodd" fill-opacity="1" /><path clip-path="url(#clip630)" d="M2066.41 248.898 Q2059.96 248.898 2057.47 250.374 Q2054.98 251.85 2054.98 255.409 Q2054.98 258.244 2056.83 259.922 Q2058.71 261.572 2061.92 261.572 Q2066.35 261.572 2069.01 258.447 Q2071.7 255.293 2071.7 250.085 L2071.7 248.898 L2066.41 248.898 M2077.03 246.699 L2077.03 265.189 L2071.7 265.189 L2071.7 260.27 Q2069.88 263.221 2067.16 264.639 Q2064.44 266.028 2060.51 266.028 Q2055.53 266.028 2052.58 263.25 Q2049.65 260.443 2049.65 255.756 Q2049.65 250.287 2053.3 247.509 Q2056.98 244.732 2064.24 244.732 L2071.7 244.732 L2071.7 244.211 Q2071.7 240.536 2069.27 238.539 Q2066.87 236.514 2062.5 236.514 Q2059.72 236.514 2057.09 237.18 Q2054.46 237.845 2052.03 239.176 L2052.03 234.257 Q2054.95 233.129 2057.7 232.579 Q2060.45 232 2063.05 232 Q2070.08 232 2073.56 235.646 Q2077.03 239.292 2077.03 246.699 Z" fill="#000000" fill-rule="evenodd" fill-opacity="1" /><path clip-path="url(#clip630)" d="M2109.32 248.609 Q2109.32 242.822 2106.92 239.639 Q2104.54 236.456 2100.23 236.456 Q2095.95 236.456 2093.55 239.639 Q2091.18 242.822 2091.18 248.609 Q2091.18 254.367 2093.55 257.55 Q2095.95 260.733 2100.23 260.733 Q2104.54 260.733 2106.92 257.55 Q2109.32 254.367 2109.32 248.609 M2114.64 261.167 Q2114.64 269.442 2110.97 273.464 Q2107.29 277.515 2099.71 277.515 Q2096.91 277.515 2094.42 277.081 Q2091.93 276.676 2089.59 275.808 L2089.59 270.628 Q2091.93 271.902 2094.21 272.509 Q2096.5 273.117 2098.87 273.117 Q2104.11 273.117 2106.71 270.368 Q2109.32 267.648 2109.32 262.122 L2109.32 259.488 Q2107.67 262.353 2105.09 263.771 Q2102.52 265.189 2098.93 265.189 Q2092.97 265.189 2089.32 260.646 Q2085.68 256.103 2085.68 248.609 Q2085.68 241.086 2089.32 236.543 Q2092.97 232 2098.93 232 Q2102.52 232 2105.09 233.418 Q2107.67 234.836 2109.32 237.7 L2109.32 232.781 L2114.64 232.781 L2114.64 261.167 Z" fill="#000000" fill-rule="evenodd" fill-opacity="1" /><path clip-path="url(#clip630)" d="M2138.4 220.224 Q2134.52 226.879 2132.64 233.389 Q2130.76 239.899 2130.76 246.583 Q2130.76 253.267 2132.64 259.836 Q2134.55 266.375 2138.4 273.001 L2133.77 273.001 Q2129.43 266.201 2127.26 259.633 Q2125.12 253.065 2125.12 246.583 Q2125.12 240.131 2127.26 233.592 Q2129.4 227.052 2133.77 220.224 L2138.4 220.224 Z" fill="#000000" fill-rule="evenodd" fill-opacity="1" /><path clip-path="url(#clip630)" d="M2167.02 252.399 L2167.02 232.781 L2172.34 232.781 L2172.34 252.197 Q2172.34 256.797 2174.13 259.112 Q2175.93 261.398 2179.52 261.398 Q2183.83 261.398 2186.31 258.649 Q2188.83 255.9 2188.83 251.155 L2188.83 232.781 L2194.16 232.781 L2194.16 265.189 L2188.83 265.189 L2188.83 260.212 Q2186.89 263.163 2184.32 264.61 Q2181.77 266.028 2178.39 266.028 Q2172.8 266.028 2169.91 262.556 Q2167.02 259.083 2167.02 252.399 M2180.41 232 L2180.41 232 Z" fill="#000000" fill-rule="evenodd" fill-opacity="1" /><path clip-path="url(#clip630)" d="M2182.58 217.793 L2186.86 217.793 L2193.95 228.673 L2189.93 228.673 L2184.72 221.584 L2179.52 228.673 L2175.49 228.673 L2182.58 217.793 M2184.72 232 L2184.72 232 Z" fill="#000000" fill-rule="evenodd" fill-opacity="1" /><path clip-path="url(#clip630)" d="M2223.12 220.224 L2227.75 220.224 Q2232.09 227.052 2234.23 233.592 Q2236.4 240.131 2236.4 246.583 Q2236.4 253.065 2234.23 259.633 Q2232.09 266.201 2227.75 273.001 L2223.12 273.001 Q2226.97 266.375 2228.85 259.836 Q2230.76 253.267 2230.76 246.583 Q2230.76 239.899 2228.85 233.389 Q2226.97 226.879 2223.12 220.224 Z" fill="#000000" fill-rule="evenodd" fill-opacity="1" /></svg>
