<?xml version="1.0" encoding="utf-8"?>
<svg xmlns="http://www.w3.org/2000/svg" xmlns:xlink="http://www.w3.org/1999/xlink" width="600" height="400" viewBox="0 0 2400 1600">
<defs>
  <clipPath id="clip660">
    <rect x="0" y="0" width="2400" height="1600"/>
  </clipPath>
</defs>
<path clip-path="url(#clip660)" d="
M0 1600 L2400 1600 L2400 0 L0 0  Z
  " fill="#ffffff" fill-rule="evenodd" fill-opacity="1"/>
<defs>
  <clipPath id="clip661">
    <rect x="480" y="0" width="1681" height="1600"/>
  </clipPath>
</defs>
<path clip-path="url(#clip660)" d="
M164.741 1401.58 L2352.76 1401.58 L2352.76 47.2441 L164.741 47.2441  Z
  " fill="#ffffff" fill-rule="evenodd" fill-opacity="1"/>
<defs>
  <clipPath id="clip662">
    <rect x="164" y="47" width="2189" height="1355"/>
  </clipPath>
</defs>
<polyline clip-path="url(#clip662)" style="stroke:#000000; stroke-linecap:butt; stroke-linejoin:round; stroke-width:2; stroke-opacity:0.1; fill:none" points="
  273.92,1401.58 273.92,47.2441 
  "/>
<polyline clip-path="url(#clip662)" style="stroke:#000000; stroke-linecap:butt; stroke-linejoin:round; stroke-width:2; stroke-opacity:0.1; fill:none" points="
  607.657,1401.58 607.657,47.2441 
  "/>
<polyline clip-path="url(#clip662)" style="stroke:#000000; stroke-linecap:butt; stroke-linejoin:round; stroke-width:2; stroke-opacity:0.1; fill:none" points="
  941.394,1401.58 941.394,47.2441 
  "/>
<polyline clip-path="url(#clip662)" style="stroke:#000000; stroke-linecap:butt; stroke-linejoin:round; stroke-width:2; stroke-opacity:0.1; fill:none" points="
  1275.13,1401.58 1275.13,47.2441 
  "/>
<polyline clip-path="url(#clip662)" style="stroke:#000000; stroke-linecap:butt; stroke-linejoin:round; stroke-width:2; stroke-opacity:0.1; fill:none" points="
  1608.87,1401.58 1608.87,47.2441 
  "/>
<polyline clip-path="url(#clip662)" style="stroke:#000000; stroke-linecap:butt; stroke-linejoin:round; stroke-width:2; stroke-opacity:0.1; fill:none" points="
  1942.6,1401.58 1942.6,47.2441 
  "/>
<polyline clip-path="url(#clip662)" style="stroke:#000000; stroke-linecap:butt; stroke-linejoin:round; stroke-width:2; stroke-opacity:0.1; fill:none" points="
  2276.34,1401.58 2276.34,47.2441 
  "/>
<polyline clip-path="url(#clip660)" style="stroke:#000000; stroke-linecap:butt; stroke-linejoin:round; stroke-width:4; stroke-opacity:1; fill:none" points="
  164.741,1401.58 2352.76,1401.58 
  "/>
<polyline clip-path="url(#clip660)" style="stroke:#000000; stroke-linecap:butt; stroke-linejoin:round; stroke-width:4; stroke-opacity:1; fill:none" points="
  273.92,1401.58 273.92,1385.33 
  "/>
<polyline clip-path="url(#clip660)" style="stroke:#000000; stroke-linecap:butt; stroke-linejoin:round; stroke-width:4; stroke-opacity:1; fill:none" points="
  607.657,1401.58 607.657,1385.33 
  "/>
<polyline clip-path="url(#clip660)" style="stroke:#000000; stroke-linecap:butt; stroke-linejoin:round; stroke-width:4; stroke-opacity:1; fill:none" points="
  941.394,1401.58 941.394,1385.33 
  "/>
<polyline clip-path="url(#clip660)" style="stroke:#000000; stroke-linecap:butt; stroke-linejoin:round; stroke-width:4; stroke-opacity:1; fill:none" points="
  1275.13,1401.58 1275.13,1385.33 
  "/>
<polyline clip-path="url(#clip660)" style="stroke:#000000; stroke-linecap:butt; stroke-linejoin:round; stroke-width:4; stroke-opacity:1; fill:none" points="
  1608.87,1401.58 1608.87,1385.33 
  "/>
<polyline clip-path="url(#clip660)" style="stroke:#000000; stroke-linecap:butt; stroke-linejoin:round; stroke-width:4; stroke-opacity:1; fill:none" points="
  1942.6,1401.58 1942.6,1385.33 
  "/>
<polyline clip-path="url(#clip660)" style="stroke:#000000; stroke-linecap:butt; stroke-linejoin:round; stroke-width:4; stroke-opacity:1; fill:none" points="
  2276.34,1401.58 2276.34,1385.33 
  "/>
<path clip-path="url(#clip660)" d="M235.755 1451.58 L272.85 1451.58 L272.85 1456.5 L235.755 1456.5 L235.755 1451.58 Z" fill="#000000" fill-rule="evenodd" fill-opacity="1" /><path clip-path="url(#clip660)" d="M303.174 1449.33 Q307.369 1450.22 309.713 1453.06 Q312.085 1455.9 312.085 1460.06 Q312.085 1466.46 307.687 1469.96 Q303.289 1473.46 295.187 1473.46 Q292.468 1473.46 289.574 1472.91 Q286.709 1472.39 283.642 1471.32 L283.642 1465.68 Q286.073 1467.09 288.966 1467.82 Q291.86 1468.54 295.014 1468.54 Q300.511 1468.54 303.376 1466.37 Q306.27 1464.2 306.27 1460.06 Q306.27 1456.24 303.579 1454.1 Q300.917 1451.93 296.142 1451.93 L291.108 1451.93 L291.108 1447.13 L296.374 1447.13 Q300.685 1447.13 302.971 1445.42 Q305.257 1443.68 305.257 1440.44 Q305.257 1437.12 302.884 1435.35 Q300.54 1433.56 296.142 1433.56 Q293.741 1433.56 290.992 1434.08 Q288.243 1434.6 284.944 1435.7 L284.944 1430.49 Q288.272 1429.56 291.165 1429.1 Q294.088 1428.64 296.663 1428.64 Q303.318 1428.64 307.195 1431.68 Q311.073 1434.69 311.073 1439.84 Q311.073 1443.42 309.018 1445.91 Q306.964 1448.37 303.174 1449.33 Z" fill="#000000" fill-rule="evenodd" fill-opacity="1" /><path clip-path="url(#clip660)" d="M570.085 1451.58 L607.18 1451.58 L607.18 1456.5 L570.085 1456.5 L570.085 1451.58 Z" fill="#000000" fill-rule="evenodd" fill-opacity="1" /><path clip-path="url(#clip660)" d="M624.83 1467.7 L645.229 1467.7 L645.229 1472.62 L617.799 1472.62 L617.799 1467.7 Q621.126 1464.26 626.855 1458.47 Q632.613 1452.65 634.089 1450.98 Q636.896 1447.82 637.995 1445.65 Q639.124 1443.45 639.124 1441.34 Q639.124 1437.9 636.693 1435.73 Q634.292 1433.56 630.414 1433.56 Q627.666 1433.56 624.598 1434.51 Q621.56 1435.47 618.088 1437.41 L618.088 1431.5 Q621.618 1430.09 624.685 1429.36 Q627.752 1428.64 630.299 1428.64 Q637.012 1428.64 641.005 1432 Q644.998 1435.35 644.998 1440.96 Q644.998 1443.63 643.985 1446.03 Q643.001 1448.4 640.368 1451.64 Q639.645 1452.48 635.767 1456.5 Q631.89 1460.5 624.83 1467.7 Z" fill="#000000" fill-rule="evenodd" fill-opacity="1" /><path clip-path="url(#clip660)" d="M903.59 1451.58 L940.685 1451.58 L940.685 1456.5 L903.59 1456.5 L903.59 1451.58 Z" fill="#000000" fill-rule="evenodd" fill-opacity="1" /><path clip-path="url(#clip660)" d="M954.313 1467.7 L963.862 1467.7 L963.862 1434.74 L953.474 1436.83 L953.474 1431.5 L963.804 1429.42 L969.649 1429.42 L969.649 1467.7 L979.197 1467.7 L979.197 1472.62 L954.313 1472.62 L954.313 1467.7 Z" fill="#000000" fill-rule="evenodd" fill-opacity="1" /><path clip-path="url(#clip660)" d="M1275.13 1433.27 Q1270.62 1433.27 1268.33 1437.72 Q1266.07 1442.15 1266.07 1451.06 Q1266.07 1459.95 1268.33 1464.4 Q1270.62 1468.83 1275.13 1468.83 Q1279.67 1468.83 1281.93 1464.4 Q1284.22 1459.95 1284.22 1451.06 Q1284.22 1442.15 1281.93 1437.72 Q1279.67 1433.27 1275.13 1433.27 M1275.13 1428.64 Q1282.39 1428.64 1286.21 1434.4 Q1290.06 1440.13 1290.06 1451.06 Q1290.06 1461.97 1286.21 1467.73 Q1282.39 1473.46 1275.13 1473.46 Q1267.87 1473.46 1264.02 1467.73 Q1260.2 1461.97 1260.2 1451.06 Q1260.2 1440.13 1264.02 1434.4 Q1267.87 1428.64 1275.13 1428.64 Z" fill="#000000" fill-rule="evenodd" fill-opacity="1" /><path clip-path="url(#clip660)" d="M1596.84 1467.7 L1606.39 1467.7 L1606.39 1434.74 L1596.01 1436.83 L1596.01 1431.5 L1606.34 1429.42 L1612.18 1429.42 L1612.18 1467.7 L1621.73 1467.7 L1621.73 1472.62 L1596.84 1472.62 L1596.84 1467.7 Z" fill="#000000" fill-rule="evenodd" fill-opacity="1" /><path clip-path="url(#clip660)" d="M1935.92 1467.7 L1956.32 1467.7 L1956.32 1472.62 L1928.89 1472.62 L1928.89 1467.7 Q1932.22 1464.26 1937.95 1458.47 Q1943.7 1452.65 1945.18 1450.98 Q1947.99 1447.82 1949.09 1445.65 Q1950.21 1443.45 1950.21 1441.34 Q1950.21 1437.9 1947.78 1435.73 Q1945.38 1433.56 1941.5 1433.56 Q1938.76 1433.56 1935.69 1434.51 Q1932.65 1435.47 1929.18 1437.41 L1929.18 1431.5 Q1932.71 1430.09 1935.78 1429.36 Q1938.84 1428.64 1941.39 1428.64 Q1948.1 1428.64 1952.09 1432 Q1956.09 1435.35 1956.09 1440.96 Q1956.09 1443.63 1955.08 1446.03 Q1954.09 1448.4 1951.46 1451.64 Q1950.73 1452.48 1946.86 1456.5 Q1942.98 1460.5 1935.92 1467.7 Z" fill="#000000" fill-rule="evenodd" fill-opacity="1" /><path clip-path="url(#clip660)" d="M2281.65 1449.33 Q2285.85 1450.22 2288.19 1453.06 Q2290.56 1455.9 2290.56 1460.06 Q2290.56 1466.46 2286.16 1469.96 Q2281.77 1473.46 2273.66 1473.46 Q2270.94 1473.46 2268.05 1472.91 Q2265.19 1472.39 2262.12 1471.32 L2262.12 1465.68 Q2264.55 1467.09 2267.44 1467.82 Q2270.34 1468.54 2273.49 1468.54 Q2278.99 1468.54 2281.85 1466.37 Q2284.75 1464.2 2284.75 1460.06 Q2284.75 1456.24 2282.06 1454.1 Q2279.39 1451.93 2274.62 1451.93 L2269.58 1451.93 L2269.58 1447.13 L2274.85 1447.13 Q2279.16 1447.13 2281.45 1445.42 Q2283.73 1443.68 2283.73 1440.44 Q2283.73 1437.12 2281.36 1435.35 Q2279.02 1433.56 2274.62 1433.56 Q2272.22 1433.56 2269.47 1434.08 Q2266.72 1434.6 2263.42 1435.7 L2263.42 1430.49 Q2266.75 1429.56 2269.64 1429.1 Q2272.56 1428.64 2275.14 1428.64 Q2281.8 1428.64 2285.67 1431.68 Q2289.55 1434.69 2289.55 1439.84 Q2289.55 1443.42 2287.5 1445.91 Q2285.44 1448.37 2281.65 1449.33 Z" fill="#000000" fill-rule="evenodd" fill-opacity="1" /><path clip-path="url(#clip660)" d="M1279.89 1529.59 L1263.49 1551.66 L1280.74 1574.96 L1271.95 1574.96 L1258.75 1557.13 L1245.54 1574.96 L1236.75 1574.96 L1254.37 1551.22 L1238.25 1529.59 L1247.04 1529.59 L1259.07 1545.75 L1271.1 1529.59 L1279.89 1529.59 Z" fill="#000000" fill-rule="evenodd" fill-opacity="1" /><polyline clip-path="url(#clip662)" style="stroke:#000000; stroke-linecap:butt; stroke-linejoin:round; stroke-width:2; stroke-opacity:0.1; fill:none" points="
  164.741,1289.4 2352.76,1289.4 
  "/>
<polyline clip-path="url(#clip662)" style="stroke:#000000; stroke-linecap:butt; stroke-linejoin:round; stroke-width:2; stroke-opacity:0.1; fill:none" points="
  164.741,994.018 2352.76,994.018 
  "/>
<polyline clip-path="url(#clip662)" style="stroke:#000000; stroke-linecap:butt; stroke-linejoin:round; stroke-width:2; stroke-opacity:0.1; fill:none" points="
  164.741,698.632 2352.76,698.632 
  "/>
<polyline clip-path="url(#clip662)" style="stroke:#000000; stroke-linecap:butt; stroke-linejoin:round; stroke-width:2; stroke-opacity:0.1; fill:none" points="
  164.741,403.247 2352.76,403.247 
  "/>
<polyline clip-path="url(#clip662)" style="stroke:#000000; stroke-linecap:butt; stroke-linejoin:round; stroke-width:2; stroke-opacity:0.1; fill:none" points="
  164.741,107.861 2352.76,107.861 
  "/>
<polyline clip-path="url(#clip660)" style="stroke:#000000; stroke-linecap:butt; stroke-linejoin:round; stroke-width:4; stroke-opacity:1; fill:none" points="
  164.741,1401.58 164.741,47.2441 
  "/>
<polyline clip-path="url(#clip660)" style="stroke:#000000; stroke-linecap:butt; stroke-linejoin:round; stroke-width:4; stroke-opacity:1; fill:none" points="
  164.741,1289.4 190.997,1289.4 
  "/>
<polyline clip-path="url(#clip660)" style="stroke:#000000; stroke-linecap:butt; stroke-linejoin:round; stroke-width:4; stroke-opacity:1; fill:none" points="
  164.741,994.018 190.997,994.018 
  "/>
<polyline clip-path="url(#clip660)" style="stroke:#000000; stroke-linecap:butt; stroke-linejoin:round; stroke-width:4; stroke-opacity:1; fill:none" points="
  164.741,698.632 190.997,698.632 
  "/>
<polyline clip-path="url(#clip660)" style="stroke:#000000; stroke-linecap:butt; stroke-linejoin:round; stroke-width:4; stroke-opacity:1; fill:none" points="
  164.741,403.247 190.997,403.247 
  "/>
<polyline clip-path="url(#clip660)" style="stroke:#000000; stroke-linecap:butt; stroke-linejoin:round; stroke-width:4; stroke-opacity:1; fill:none" points="
  164.741,107.861 190.997,107.861 
  "/>
<path clip-path="url(#clip660)" d="M50.9921 1289.97 L88.0868 1289.97 L88.0868 1294.89 L50.9921 1294.89 L50.9921 1289.97 Z" fill="#000000" fill-rule="evenodd" fill-opacity="1" /><path clip-path="url(#clip660)" d="M116.761 1272.9 L102.005 1295.96 L116.761 1295.96 L116.761 1272.9 M115.228 1267.8 L122.577 1267.8 L122.577 1295.96 L128.741 1295.96 L128.741 1300.82 L122.577 1300.82 L122.577 1311 L116.761 1311 L116.761 1300.82 L97.2592 1300.82 L97.2592 1295.18 L115.228 1267.8 Z" fill="#000000" fill-rule="evenodd" fill-opacity="1" /><path clip-path="url(#clip660)" d="M53.5963 994.582 L90.691 994.582 L90.691 999.501 L53.5963 999.501 L53.5963 994.582 Z" fill="#000000" fill-rule="evenodd" fill-opacity="1" /><path clip-path="url(#clip660)" d="M108.341 1010.7 L128.741 1010.7 L128.741 1015.62 L101.31 1015.62 L101.31 1010.7 Q104.638 1007.26 110.367 1001.47 Q116.125 995.653 117.601 993.974 Q120.407 990.82 121.507 988.65 Q122.635 986.451 122.635 984.339 Q122.635 980.896 120.205 978.726 Q117.803 976.555 113.926 976.555 Q111.177 976.555 108.11 977.51 Q105.072 978.465 101.599 980.404 L101.599 974.501 Q105.13 973.083 108.197 972.36 Q111.264 971.637 113.81 971.637 Q120.523 971.637 124.516 974.993 Q128.509 978.349 128.509 983.963 Q128.509 986.625 127.496 989.026 Q126.513 991.399 123.879 994.64 Q123.156 995.479 119.279 999.501 Q115.402 1003.49 108.341 1010.7 Z" fill="#000000" fill-rule="evenodd" fill-opacity="1" /><path clip-path="url(#clip660)" d="M113.81 680.881 Q109.296 680.881 107.01 685.337 Q104.753 689.764 104.753 698.676 Q104.753 707.559 107.01 712.015 Q109.296 716.442 113.81 716.442 Q118.353 716.442 120.61 712.015 Q122.896 707.559 122.896 698.676 Q122.896 689.764 120.61 685.337 Q118.353 680.881 113.81 680.881 M113.81 676.251 Q121.073 676.251 124.892 682.009 Q128.741 687.738 128.741 698.676 Q128.741 709.584 124.892 715.342 Q121.073 721.071 113.81 721.071 Q106.547 721.071 102.699 715.342 Q98.8796 709.584 98.8796 698.676 Q98.8796 687.738 102.699 682.009 Q106.547 676.251 113.81 676.251 Z" fill="#000000" fill-rule="evenodd" fill-opacity="1" /><path clip-path="url(#clip660)" d="M108.341 419.928 L128.741 419.928 L128.741 424.847 L101.31 424.847 L101.31 419.928 Q104.638 416.485 110.367 410.698 Q116.125 404.882 117.601 403.203 Q120.407 400.049 121.507 397.879 Q122.635 395.68 122.635 393.568 Q122.635 390.125 120.205 387.955 Q117.803 385.785 113.926 385.785 Q111.177 385.785 108.11 386.739 Q105.072 387.694 101.599 389.633 L101.599 383.73 Q105.13 382.312 108.197 381.589 Q111.264 380.866 113.81 380.866 Q120.523 380.866 124.516 384.222 Q128.509 387.578 128.509 393.192 Q128.509 395.854 127.496 398.256 Q126.513 400.628 123.879 403.869 Q123.156 404.708 119.279 408.73 Q115.402 412.723 108.341 419.928 Z" fill="#000000" fill-rule="evenodd" fill-opacity="1" /><path clip-path="url(#clip660)" d="M116.761 91.3539 L102.005 114.415 L116.761 114.415 L116.761 91.3539 M115.228 86.2613 L122.577 86.2613 L122.577 114.415 L128.741 114.415 L128.741 119.276 L122.577 119.276 L122.577 129.461 L116.761 129.461 L116.761 119.276 L97.2592 119.276 L97.2592 113.634 L115.228 86.2613 Z" fill="#000000" fill-rule="evenodd" fill-opacity="1" /><polyline clip-path="url(#clip662)" style="stroke:#009af9; stroke-linecap:butt; stroke-linejoin:round; stroke-width:12; stroke-opacity:1; fill:none" points="
  226.666,772.479 259.43,734.946 292.195,683.14 324.959,623.817 357.724,565.938 390.488,518.746 423.253,489.755 456.017,483.111 488.782,498.722 521.546,532.341 
  554.311,576.589 587.075,622.678 619.84,662.423 652.604,690.069 685.369,703.514 718.133,704.63 750.898,698.632 783.663,692.635 816.427,693.751 849.192,707.195 
  881.956,734.842 914.721,774.587 947.485,820.676 980.25,864.924 1013.01,898.542 1045.78,914.154 1078.54,907.51 1111.31,878.518 1144.07,831.327 1176.84,773.448 
  1209.6,714.125 1242.37,662.319 1275.13,624.786 1307.9,604.692 1340.66,601.086 1373.42,609.34 1406.19,622.458 1438.95,632.914 1471.72,634.609 1504.48,624.444 
  1537.25,603.157 1570.01,575.214 1602.78,547.775 1635.54,528.983 1668.3,525.973 1701.07,543.088 1733.83,580.712 1766.6,635.008 1799.36,698.632 1832.13,762.257 
  1864.89,816.553 1897.66,854.177 1930.42,871.292 1963.19,868.282 1995.95,849.489 2028.71,822.051 2061.48,794.108 2094.24,772.821 2127.01,762.655 2159.77,764.35 
  2192.54,774.807 2225.3,787.924 2258.07,796.179 2290.83,792.572 
  "/>
<polyline clip-path="url(#clip662)" style="stroke:#e26f46; stroke-linecap:butt; stroke-linejoin:round; stroke-width:12; stroke-opacity:1; fill:none" points="
  226.666,403.247 259.43,234.868 292.195,118.727 324.959,85.5744 357.724,148.637 390.488,300.287 423.253,513.56 456.017,748.188 488.782,959.719 521.546,1109.59 
  554.311,1173.81 587.075,1148.16 619.84,1048.8 652.604,908.045 685.369,766.399 718.133,662.709 750.898,624.786 783.663,662.709 816.427,766.399 849.192,908.045 
  881.956,1048.8 914.721,1148.16 947.485,1173.81 980.25,1109.59 1013.01,959.719 1045.78,748.188 1078.54,513.56 1111.31,300.287 1144.07,148.637 1176.84,85.5744 
  1209.6,118.727 1242.37,234.868 1275.13,403.247 1307.9,582.977 1340.66,732.737 1373.42,820.482 1406.19,830.889 1438.95,768.763 1471.72,657.627 1504.48,533.823 
  1537.25,437.546 1570.01,402.926 1602.78,449.534 1635.54,577.32 1668.3,766.202 1701.07,980.427 1733.83,1176.67 1766.6,1313.98 1799.36,1363.25 1832.13,1313.98 
  1864.89,1176.67 1897.66,980.427 1930.42,766.202 1963.19,577.32 1995.95,449.534 2028.71,402.926 2061.48,437.546 2094.24,533.823 2127.01,657.627 2159.77,768.763 
  2192.54,830.889 2225.3,820.482 2258.07,732.737 2290.83,582.977 
  "/>
<path clip-path="url(#clip660)" d="
M1887.52 319.189 L2279.82 319.189 L2279.82 92.3886 L1887.52 92.3886  Z
  " fill="#ffffff" fill-rule="evenodd" fill-opacity="1"/>
<polyline clip-path="url(#clip660)" style="stroke:#000000; stroke-linecap:butt; stroke-linejoin:round; stroke-width:4; stroke-opacity:1; fill:none" points="
  1887.52,319.189 2279.82,319.189 2279.82,92.3886 1887.52,92.3886 1887.52,319.189 
  "/>
<polyline clip-path="url(#clip660)" style="stroke:#009af9; stroke-linecap:butt; stroke-linejoin:round; stroke-width:5; stroke-opacity:1; fill:none" points="
  1911.83,167.989 2057.7,167.989 
  "/>
<path clip-path="url(#clip660)" d="M2082.01 176.799 L2082.01 157.181 L2087.33 157.181 L2087.33 176.597 Q2087.33 181.197 2089.13 183.512 Q2090.92 185.798 2094.51 185.798 Q2098.82 185.798 2101.31 183.049 Q2103.83 180.3 2103.83 175.555 L2103.83 157.181 L2109.15 157.181 L2109.15 189.589 L2103.83 189.589 L2103.83 184.612 Q2101.89 187.563 2099.31 189.01 Q2096.77 190.428 2093.38 190.428 Q2087.8 190.428 2084.9 186.956 Q2082.01 183.483 2082.01 176.799 M2095.41 156.4 L2095.41 156.4 Z" fill="#000000" fill-rule="evenodd" fill-opacity="1" /><polyline clip-path="url(#clip660)" style="stroke:#e26f46; stroke-linecap:butt; stroke-linejoin:round; stroke-width:5; stroke-opacity:1; fill:none" points="
  1911.83,243.589 2057.7,243.589 
  "/>
<path clip-path="url(#clip660)" d="M2091.91 266.028 Q2087.83 266.028 2085.16 263.568 Q2082.01 260.646 2082.01 255.351 Q2082.01 249.853 2084.79 245.571 Q2087.65 241.173 2092.8 241.173 Q2096.19 241.173 2098.85 243.285 Q2100.41 244.529 2101.48 246.612 Q2101.86 244.269 2101.86 241.607 Q2101.86 237.7 2100.93 235.443 Q2098.88 230.438 2093.44 230.438 Q2091.39 230.438 2088.2 231.711 L2088.2 226.85 Q2091.56 225.953 2094.57 225.953 Q2102.32 225.953 2105.62 233.071 Q2107.16 236.427 2107.16 241.433 Q2107.16 244.703 2106.43 248.493 Q2104.61 257.984 2099.89 262.498 Q2096.19 266.028 2091.91 266.028 M2086.96 256.219 Q2086.96 259.112 2088.23 260.675 Q2089.59 262.324 2091.67 262.324 Q2093.53 262.324 2095 261.022 Q2097.09 259.228 2098.62 256.306 Q2099.89 253.904 2100.53 251.329 Q2097.95 245.108 2093.5 245.108 Q2089.68 245.108 2088 250.142 Q2086.96 253.267 2086.96 256.219 Z" fill="#000000" fill-rule="evenodd" fill-opacity="1" /><path clip-path="url(#clip660)" d="M2114.94 252.399 L2114.94 232.781 L2120.26 232.781 L2120.26 252.197 Q2120.26 256.797 2122.06 259.112 Q2123.85 261.398 2127.44 261.398 Q2131.75 261.398 2134.24 258.649 Q2136.76 255.9 2136.76 251.155 L2136.76 232.781 L2142.08 232.781 L2142.08 265.189 L2136.76 265.189 L2136.76 260.212 Q2134.82 263.163 2132.24 264.61 Q2129.7 266.028 2126.31 266.028 Q2120.73 266.028 2117.83 262.556 Q2114.94 259.083 2114.94 252.399 M2128.34 232 L2128.34 232 Z" fill="#000000" fill-rule="evenodd" fill-opacity="1" /><path clip-path="url(#clip660)" d="M2162.51 221.989 L2167.43 221.989 L2152.38 270.686 L2147.46 270.686 L2162.51 221.989 Z" fill="#000000" fill-rule="evenodd" fill-opacity="1" /><path clip-path="url(#clip660)" d="M2180.07 266.028 Q2175.99 266.028 2173.33 263.568 Q2170.18 260.646 2170.18 255.351 Q2170.18 249.853 2172.95 245.571 Q2175.82 241.173 2180.97 241.173 Q2184.35 241.173 2187.02 243.285 Q2188.58 244.529 2189.65 246.612 Q2190.02 244.269 2190.02 241.607 Q2190.02 237.7 2189.1 235.443 Q2187.04 230.438 2181.6 230.438 Q2179.55 230.438 2176.37 231.711 L2176.37 226.85 Q2179.72 225.953 2182.73 225.953 Q2190.49 225.953 2193.79 233.071 Q2195.32 236.427 2195.32 241.433 Q2195.32 244.703 2194.6 248.493 Q2192.77 257.984 2188.06 262.498 Q2184.35 266.028 2180.07 266.028 M2175.12 256.219 Q2175.12 259.112 2176.4 260.675 Q2177.76 262.324 2179.84 262.324 Q2181.69 262.324 2183.17 261.022 Q2185.25 259.228 2186.78 256.306 Q2188.06 253.904 2188.69 251.329 Q2186.12 245.108 2181.66 245.108 Q2177.84 245.108 2176.17 250.142 Q2175.12 253.267 2175.12 256.219 Z" fill="#000000" fill-rule="evenodd" fill-opacity="1" /><path clip-path="url(#clip660)" d="M2230.59 232.781 L2218.87 248.551 L2231.2 265.189 L2224.92 265.189 L2215.49 252.457 L2206.05 265.189 L2199.78 265.189 L2212.36 248.233 L2200.85 232.781 L2207.13 232.781 L2215.72 244.326 L2224.31 232.781 L2230.59 232.781 Z" fill="#000000" fill-rule="evenodd" fill-opacity="1" /></svg>
