<?xml version="1.0" encoding="utf-8"?>
<svg xmlns="http://www.w3.org/2000/svg" xmlns:xlink="http://www.w3.org/1999/xlink" width="600" height="400" viewBox="0 0 2400 1600">
<defs>
  <clipPath id="clip600">
    <rect x="0" y="0" width="2400" height="1600"/>
  </clipPath>
</defs>
<path clip-path="url(#clip600)" d="
M0 1600 L2400 1600 L2400 0 L0 0  Z
  " fill="#ffffff" fill-rule="evenodd" fill-opacity="1"/>
<defs>
  <clipPath id="clip601">
    <rect x="480" y="0" width="1681" height="1600"/>
  </clipPath>
</defs>
<path clip-path="url(#clip600)" d="
M220.672 1401.58 L2352.76 1401.58 L2352.76 47.2441 L220.672 47.2441  Z
  " fill="#ffffff" fill-rule="evenodd" fill-opacity="1"/>
<defs>
  <clipPath id="clip602">
    <rect x="220" y="47" width="2133" height="1355"/>
  </clipPath>
</defs>
<polyline clip-path="url(#clip602)" style="stroke:#000000; stroke-linecap:butt; stroke-linejoin:round; stroke-width:2; stroke-opacity:0.1; fill:none" points="
  327.061,1401.58 327.061,47.2441 
  "/>
<polyline clip-path="url(#clip602)" style="stroke:#000000; stroke-linecap:butt; stroke-linejoin:round; stroke-width:2; stroke-opacity:0.1; fill:none" points="
  652.266,1401.58 652.266,47.2441 
  "/>
<polyline clip-path="url(#clip602)" style="stroke:#000000; stroke-linecap:butt; stroke-linejoin:round; stroke-width:2; stroke-opacity:0.1; fill:none" points="
  977.472,1401.58 977.472,47.2441 
  "/>
<polyline clip-path="url(#clip602)" style="stroke:#000000; stroke-linecap:butt; stroke-linejoin:round; stroke-width:2; stroke-opacity:0.1; fill:none" points="
  1302.68,1401.58 1302.68,47.2441 
  "/>
<polyline clip-path="url(#clip602)" style="stroke:#000000; stroke-linecap:butt; stroke-linejoin:round; stroke-width:2; stroke-opacity:0.1; fill:none" points="
  1627.88,1401.58 1627.88,47.2441 
  "/>
<polyline clip-path="url(#clip602)" style="stroke:#000000; stroke-linecap:butt; stroke-linejoin:round; stroke-width:2; stroke-opacity:0.1; fill:none" points="
  1953.09,1401.58 1953.09,47.2441 
  "/>
<polyline clip-path="url(#clip602)" style="stroke:#000000; stroke-linecap:butt; stroke-linejoin:round; stroke-width:2; stroke-opacity:0.1; fill:none" points="
  2278.29,1401.58 2278.29,47.2441 
  "/>
<polyline clip-path="url(#clip600)" style="stroke:#000000; stroke-linecap:butt; stroke-linejoin:round; stroke-width:4; stroke-opacity:1; fill:none" points="
  220.672,1401.58 2352.76,1401.58 
  "/>
<polyline clip-path="url(#clip600)" style="stroke:#000000; stroke-linecap:butt; stroke-linejoin:round; stroke-width:4; stroke-opacity:1; fill:none" points="
  327.061,1401.58 327.061,1385.33 
  "/>
<polyline clip-path="url(#clip600)" style="stroke:#000000; stroke-linecap:butt; stroke-linejoin:round; stroke-width:4; stroke-opacity:1; fill:none" points="
  652.266,1401.58 652.266,1385.33 
  "/>
<polyline clip-path="url(#clip600)" style="stroke:#000000; stroke-linecap:butt; stroke-linejoin:round; stroke-width:4; stroke-opacity:1; fill:none" points="
  977.472,1401.58 977.472,1385.33 
  "/>
<polyline clip-path="url(#clip600)" style="stroke:#000000; stroke-linecap:butt; stroke-linejoin:round; stroke-width:4; stroke-opacity:1; fill:none" points="
  1302.68,1401.58 1302.68,1385.33 
  "/>
<polyline clip-path="url(#clip600)" style="stroke:#000000; stroke-linecap:butt; stroke-linejoin:round; stroke-width:4; stroke-opacity:1; fill:none" points="
  1627.88,1401.58 1627.88,1385.33 
  "/>
<polyline clip-path="url(#clip600)" style="stroke:#000000; stroke-linecap:butt; stroke-linejoin:round; stroke-width:4; stroke-opacity:1; fill:none" points="
  1953.09,1401.58 1953.09,1385.33 
  "/>
<polyline clip-path="url(#clip600)" style="stroke:#000000; stroke-linecap:butt; stroke-linejoin:round; stroke-width:4; stroke-opacity:1; fill:none" points="
  2278.29,1401.58 2278.29,1385.33 
  "/>
<path clip-path="url(#clip600)" d="M288.895 1451.58 L325.99 1451.58 L325.99 1456.5 L288.895 1456.5 L288.895 1451.58 Z" fill="#000000" fill-rule="evenodd" fill-opacity="1" /><path clip-path="url(#clip600)" d="M356.314 1449.33 Q360.51 1450.22 362.853 1453.06 Q365.226 1455.9 365.226 1460.06 Q365.226 1466.46 360.828 1469.96 Q356.43 1473.46 348.328 1473.46 Q345.608 1473.46 342.715 1472.91 Q339.85 1472.39 336.783 1471.32 L336.783 1465.68 Q339.213 1467.09 342.107 1467.82 Q345 1468.54 348.154 1468.54 Q353.652 1468.54 356.517 1466.37 Q359.41 1464.2 359.41 1460.06 Q359.41 1456.24 356.719 1454.1 Q354.057 1451.93 349.283 1451.93 L344.248 1451.93 L344.248 1447.13 L349.514 1447.13 Q353.826 1447.13 356.111 1445.42 Q358.397 1443.68 358.397 1440.44 Q358.397 1437.12 356.025 1435.35 Q353.681 1433.56 349.283 1433.56 Q346.881 1433.56 344.132 1434.08 Q341.384 1434.6 338.085 1435.7 L338.085 1430.49 Q341.412 1429.56 344.306 1429.1 Q347.228 1428.64 349.804 1428.64 Q356.459 1428.64 360.336 1431.68 Q364.213 1434.69 364.213 1439.84 Q364.213 1443.42 362.159 1445.91 Q360.104 1448.37 356.314 1449.33 Z" fill="#000000" fill-rule="evenodd" fill-opacity="1" /><path clip-path="url(#clip600)" d="M614.694 1451.58 L651.789 1451.58 L651.789 1456.5 L614.694 1456.5 L614.694 1451.58 Z" fill="#000000" fill-rule="evenodd" fill-opacity="1" /><path clip-path="url(#clip600)" d="M669.439 1467.7 L689.838 1467.7 L689.838 1472.62 L662.408 1472.62 L662.408 1467.7 Q665.736 1464.26 671.465 1458.47 Q677.223 1452.65 678.698 1450.98 Q681.505 1447.82 682.605 1445.65 Q683.733 1443.45 683.733 1441.34 Q683.733 1437.9 681.303 1435.73 Q678.901 1433.56 675.024 1433.56 Q672.275 1433.56 669.208 1434.51 Q666.17 1435.47 662.697 1437.41 L662.697 1431.5 Q666.227 1430.09 669.295 1429.36 Q672.362 1428.64 674.908 1428.64 Q681.621 1428.64 685.614 1432 Q689.607 1435.35 689.607 1440.96 Q689.607 1443.63 688.594 1446.03 Q687.61 1448.4 684.977 1451.64 Q684.254 1452.48 680.377 1456.5 Q676.499 1460.5 669.439 1467.7 Z" fill="#000000" fill-rule="evenodd" fill-opacity="1" /><path clip-path="url(#clip600)" d="M939.668 1451.58 L976.763 1451.58 L976.763 1456.5 L939.668 1456.5 L939.668 1451.58 Z" fill="#000000" fill-rule="evenodd" fill-opacity="1" /><path clip-path="url(#clip600)" d="M990.391 1467.7 L999.94 1467.7 L999.94 1434.74 L989.552 1436.83 L989.552 1431.5 L999.882 1429.42 L1005.73 1429.42 L1005.73 1467.7 L1015.28 1467.7 L1015.28 1472.62 L990.391 1472.62 L990.391 1467.7 Z" fill="#000000" fill-rule="evenodd" fill-opacity="1" /><path clip-path="url(#clip600)" d="M1302.68 1433.27 Q1298.16 1433.27 1295.88 1437.72 Q1293.62 1442.15 1293.62 1451.06 Q1293.62 1459.95 1295.88 1464.4 Q1298.16 1468.83 1302.68 1468.83 Q1307.22 1468.83 1309.48 1464.4 Q1311.76 1459.95 1311.76 1451.06 Q1311.76 1442.15 1309.48 1437.72 Q1307.22 1433.27 1302.68 1433.27 M1302.68 1428.64 Q1309.94 1428.64 1313.76 1434.4 Q1317.61 1440.13 1317.61 1451.06 Q1317.61 1461.97 1313.76 1467.73 Q1309.94 1473.46 1302.68 1473.46 Q1295.41 1473.46 1291.57 1467.73 Q1287.75 1461.97 1287.75 1451.06 Q1287.75 1440.13 1291.57 1434.4 Q1295.41 1428.64 1302.68 1428.64 Z" fill="#000000" fill-rule="evenodd" fill-opacity="1" /><path clip-path="url(#clip600)" d="M1615.86 1467.7 L1625.41 1467.7 L1625.41 1434.74 L1615.02 1436.83 L1615.02 1431.5 L1625.35 1429.42 L1631.2 1429.42 L1631.2 1467.7 L1640.74 1467.7 L1640.74 1472.62 L1615.86 1472.62 L1615.86 1467.7 Z" fill="#000000" fill-rule="evenodd" fill-opacity="1" /><path clip-path="url(#clip600)" d="M1946.4 1467.7 L1966.8 1467.7 L1966.8 1472.62 L1939.37 1472.62 L1939.37 1467.7 Q1942.7 1464.26 1948.43 1458.47 Q1954.19 1452.65 1955.66 1450.98 Q1958.47 1447.82 1959.57 1445.65 Q1960.7 1443.45 1960.7 1441.34 Q1960.7 1437.9 1958.27 1435.73 Q1955.87 1433.56 1951.99 1433.56 Q1949.24 1433.56 1946.17 1434.51 Q1943.13 1435.47 1939.66 1437.41 L1939.66 1431.5 Q1943.19 1430.09 1946.26 1429.36 Q1949.33 1428.64 1951.87 1428.64 Q1958.59 1428.64 1962.58 1432 Q1966.57 1435.35 1966.57 1440.96 Q1966.57 1443.63 1965.56 1446.03 Q1964.58 1448.4 1961.94 1451.64 Q1961.22 1452.48 1957.34 1456.5 Q1953.46 1460.5 1946.4 1467.7 Z" fill="#000000" fill-rule="evenodd" fill-opacity="1" /><path clip-path="url(#clip600)" d="M2283.6 1449.33 Q2287.8 1450.22 2290.14 1453.06 Q2292.52 1455.9 2292.52 1460.06 Q2292.52 1466.46 2288.12 1469.96 Q2283.72 1473.46 2275.62 1473.46 Q2272.9 1473.46 2270 1472.91 Q2267.14 1472.39 2264.07 1471.32 L2264.07 1465.68 Q2266.5 1467.09 2269.4 1467.82 Q2272.29 1468.54 2275.44 1468.54 Q2280.94 1468.54 2283.81 1466.37 Q2286.7 1464.2 2286.7 1460.06 Q2286.7 1456.24 2284.01 1454.1 Q2281.35 1451.93 2276.57 1451.93 L2271.54 1451.93 L2271.54 1447.13 L2276.8 1447.13 Q2281.12 1447.13 2283.4 1445.42 Q2285.69 1443.68 2285.69 1440.44 Q2285.69 1437.12 2283.31 1435.35 Q2280.97 1433.56 2276.57 1433.56 Q2274.17 1433.56 2271.42 1434.08 Q2268.67 1434.6 2265.37 1435.7 L2265.37 1430.49 Q2268.7 1429.56 2271.6 1429.1 Q2274.52 1428.64 2277.09 1428.64 Q2283.75 1428.64 2287.63 1431.68 Q2291.5 1434.69 2291.5 1439.84 Q2291.5 1443.42 2289.45 1445.91 Q2287.39 1448.37 2283.6 1449.33 Z" fill="#000000" fill-rule="evenodd" fill-opacity="1" /><path clip-path="url(#clip600)" d="M1307.86 1529.59 L1291.45 1551.66 L1308.71 1574.96 L1299.92 1574.96 L1286.71 1557.13 L1273.51 1574.96 L1264.72 1574.96 L1282.34 1551.22 L1266.22 1529.59 L1275.01 1529.59 L1287.04 1545.75 L1299.07 1529.59 L1307.86 1529.59 Z" fill="#000000" fill-rule="evenodd" fill-opacity="1" /><polyline clip-path="url(#clip602)" style="stroke:#000000; stroke-linecap:butt; stroke-linejoin:round; stroke-width:2; stroke-opacity:0.1; fill:none" points="
  220.672,1381.09 2352.76,1381.09 
  "/>
<polyline clip-path="url(#clip602)" style="stroke:#000000; stroke-linecap:butt; stroke-linejoin:round; stroke-width:2; stroke-opacity:0.1; fill:none" points="
  220.672,1162.2 2352.76,1162.2 
  "/>
<polyline clip-path="url(#clip602)" style="stroke:#000000; stroke-linecap:butt; stroke-linejoin:round; stroke-width:2; stroke-opacity:0.1; fill:none" points="
  220.672,943.304 2352.76,943.304 
  "/>
<polyline clip-path="url(#clip602)" style="stroke:#000000; stroke-linecap:butt; stroke-linejoin:round; stroke-width:2; stroke-opacity:0.1; fill:none" points="
  220.672,724.412 2352.76,724.412 
  "/>
<polyline clip-path="url(#clip602)" style="stroke:#000000; stroke-linecap:butt; stroke-linejoin:round; stroke-width:2; stroke-opacity:0.1; fill:none" points="
  220.672,505.52 2352.76,505.52 
  "/>
<polyline clip-path="url(#clip602)" style="stroke:#000000; stroke-linecap:butt; stroke-linejoin:round; stroke-width:2; stroke-opacity:0.1; fill:none" points="
  220.672,286.629 2352.76,286.629 
  "/>
<polyline clip-path="url(#clip602)" style="stroke:#000000; stroke-linecap:butt; stroke-linejoin:round; stroke-width:2; stroke-opacity:0.1; fill:none" points="
  220.672,67.7371 2352.76,67.7371 
  "/>
<polyline clip-path="url(#clip600)" style="stroke:#000000; stroke-linecap:butt; stroke-linejoin:round; stroke-width:4; stroke-opacity:1; fill:none" points="
  220.672,1401.58 220.672,47.2441 
  "/>
<polyline clip-path="url(#clip600)" style="stroke:#000000; stroke-linecap:butt; stroke-linejoin:round; stroke-width:4; stroke-opacity:1; fill:none" points="
  220.672,1381.09 246.257,1381.09 
  "/>
<polyline clip-path="url(#clip600)" style="stroke:#000000; stroke-linecap:butt; stroke-linejoin:round; stroke-width:4; stroke-opacity:1; fill:none" points="
  220.672,1162.2 246.257,1162.2 
  "/>
<polyline clip-path="url(#clip600)" style="stroke:#000000; stroke-linecap:butt; stroke-linejoin:round; stroke-width:4; stroke-opacity:1; fill:none" points="
  220.672,943.304 246.257,943.304 
  "/>
<polyline clip-path="url(#clip600)" style="stroke:#000000; stroke-linecap:butt; stroke-linejoin:round; stroke-width:4; stroke-opacity:1; fill:none" points="
  220.672,724.412 246.257,724.412 
  "/>
<polyline clip-path="url(#clip600)" style="stroke:#000000; stroke-linecap:butt; stroke-linejoin:round; stroke-width:4; stroke-opacity:1; fill:none" points="
  220.672,505.52 246.257,505.52 
  "/>
<polyline clip-path="url(#clip600)" style="stroke:#000000; stroke-linecap:butt; stroke-linejoin:round; stroke-width:4; stroke-opacity:1; fill:none" points="
  220.672,286.629 246.257,286.629 
  "/>
<polyline clip-path="url(#clip600)" style="stroke:#000000; stroke-linecap:butt; stroke-linejoin:round; stroke-width:4; stroke-opacity:1; fill:none" points="
  220.672,67.7371 246.257,67.7371 
  "/>
<path clip-path="url(#clip600)" d="M52.2363 1381.65 L89.331 1381.65 L89.331 1386.57 L52.2363 1386.57 L52.2363 1381.65 Z" fill="#000000" fill-rule="evenodd" fill-opacity="1" /><path clip-path="url(#clip600)" d="M102.959 1397.77 L112.508 1397.77 L112.508 1364.81 L102.12 1366.89 L102.12 1361.57 L112.45 1359.49 L118.295 1359.49 L118.295 1397.77 L127.844 1397.77 L127.844 1402.69 L102.959 1402.69 L102.959 1397.77 Z" fill="#000000" fill-rule="evenodd" fill-opacity="1" /><path clip-path="url(#clip600)" d="M139.649 1395.34 L145.754 1395.34 L145.754 1402.69 L139.649 1402.69 L139.649 1395.34 Z" fill="#000000" fill-rule="evenodd" fill-opacity="1" /><path clip-path="url(#clip600)" d="M158.544 1359.49 L181.489 1359.49 L181.489 1364.41 L163.897 1364.41 L163.897 1375 Q165.17 1374.56 166.443 1374.36 Q167.716 1374.13 168.989 1374.13 Q176.223 1374.13 180.447 1378.09 Q184.672 1382.06 184.672 1388.83 Q184.672 1395.8 180.332 1399.68 Q175.991 1403.53 168.092 1403.53 Q165.372 1403.53 162.537 1403.06 Q159.73 1402.6 156.721 1401.67 L156.721 1395.8 Q159.325 1397.22 162.103 1397.91 Q164.88 1398.61 167.976 1398.61 Q172.982 1398.61 175.905 1395.97 Q178.827 1393.34 178.827 1388.83 Q178.827 1384.31 175.905 1381.68 Q172.982 1379.05 167.976 1379.05 Q165.633 1379.05 163.289 1379.57 Q160.974 1380.09 158.544 1381.19 L158.544 1359.49 Z" fill="#000000" fill-rule="evenodd" fill-opacity="1" /><path clip-path="url(#clip600)" d="M50.9921 1162.76 L88.0868 1162.76 L88.0868 1167.68 L50.9921 1167.68 L50.9921 1162.76 Z" fill="#000000" fill-rule="evenodd" fill-opacity="1" /><path clip-path="url(#clip600)" d="M101.715 1178.88 L111.264 1178.88 L111.264 1145.92 L100.876 1148 L100.876 1142.68 L111.206 1140.6 L117.051 1140.6 L117.051 1178.88 L126.599 1178.88 L126.599 1183.8 L101.715 1183.8 L101.715 1178.88 Z" fill="#000000" fill-rule="evenodd" fill-opacity="1" /><path clip-path="url(#clip600)" d="M138.405 1176.45 L144.51 1176.45 L144.51 1183.8 L138.405 1183.8 L138.405 1176.45 Z" fill="#000000" fill-rule="evenodd" fill-opacity="1" /><path clip-path="url(#clip600)" d="M169.741 1144.44 Q165.228 1144.44 162.942 1148.9 Q160.685 1153.33 160.685 1162.24 Q160.685 1171.12 162.942 1175.58 Q165.228 1180 169.741 1180 Q174.284 1180 176.541 1175.58 Q178.827 1171.12 178.827 1162.24 Q178.827 1153.33 176.541 1148.9 Q174.284 1144.44 169.741 1144.44 M169.741 1139.81 Q177.004 1139.81 180.824 1145.57 Q184.672 1151.3 184.672 1162.24 Q184.672 1173.15 180.824 1178.91 Q177.004 1184.63 169.741 1184.63 Q162.479 1184.63 158.63 1178.91 Q154.811 1173.15 154.811 1162.24 Q154.811 1151.3 158.63 1145.57 Q162.479 1139.81 169.741 1139.81 Z" fill="#000000" fill-rule="evenodd" fill-opacity="1" /><path clip-path="url(#clip600)" d="M52.2363 943.868 L89.331 943.868 L89.331 948.787 L52.2363 948.787 L52.2363 943.868 Z" fill="#000000" fill-rule="evenodd" fill-opacity="1" /><path clip-path="url(#clip600)" d="M114.447 925.552 Q109.933 925.552 107.647 930.008 Q105.39 934.435 105.39 943.347 Q105.39 952.23 107.647 956.686 Q109.933 961.113 114.447 961.113 Q118.989 961.113 121.246 956.686 Q123.532 952.23 123.532 943.347 Q123.532 934.435 121.246 930.008 Q118.989 925.552 114.447 925.552 M114.447 920.922 Q121.709 920.922 125.529 926.68 Q129.377 932.41 129.377 943.347 Q129.377 954.256 125.529 960.014 Q121.709 965.743 114.447 965.743 Q107.184 965.743 103.336 960.014 Q99.5162 954.256 99.5162 943.347 Q99.5162 932.41 103.336 926.68 Q107.184 920.922 114.447 920.922 Z" fill="#000000" fill-rule="evenodd" fill-opacity="1" /><path clip-path="url(#clip600)" d="M139.649 957.554 L145.754 957.554 L145.754 964.904 L139.649 964.904 L139.649 957.554 Z" fill="#000000" fill-rule="evenodd" fill-opacity="1" /><path clip-path="url(#clip600)" d="M158.544 921.704 L181.489 921.704 L181.489 926.623 L163.897 926.623 L163.897 937.213 Q165.17 936.779 166.443 936.576 Q167.716 936.345 168.989 936.345 Q176.223 936.345 180.447 940.309 Q184.672 944.273 184.672 951.044 Q184.672 958.017 180.332 961.894 Q175.991 965.743 168.092 965.743 Q165.372 965.743 162.537 965.28 Q159.73 964.817 156.721 963.891 L156.721 958.017 Q159.325 959.435 162.103 960.129 Q164.88 960.824 167.976 960.824 Q172.982 960.824 175.905 958.191 Q178.827 955.558 178.827 951.044 Q178.827 946.53 175.905 943.897 Q172.982 941.264 167.976 941.264 Q165.633 941.264 163.289 941.785 Q160.974 942.305 158.544 943.405 L158.544 921.704 Z" fill="#000000" fill-rule="evenodd" fill-opacity="1" /><path clip-path="url(#clip600)" d="M113.202 706.66 Q108.689 706.66 106.403 711.116 Q104.146 715.543 104.146 724.455 Q104.146 733.338 106.403 737.794 Q108.689 742.221 113.202 742.221 Q117.745 742.221 120.002 737.794 Q122.288 733.338 122.288 724.455 Q122.288 715.543 120.002 711.116 Q117.745 706.66 113.202 706.66 M113.202 702.031 Q120.465 702.031 124.285 707.789 Q128.133 713.518 128.133 724.455 Q128.133 735.364 124.285 741.122 Q120.465 746.851 113.202 746.851 Q105.94 746.851 102.091 741.122 Q98.272 735.364 98.272 724.455 Q98.272 713.518 102.091 707.789 Q105.94 702.031 113.202 702.031 Z" fill="#000000" fill-rule="evenodd" fill-opacity="1" /><path clip-path="url(#clip600)" d="M138.405 738.662 L144.51 738.662 L144.51 746.012 L138.405 746.012 L138.405 738.662 Z" fill="#000000" fill-rule="evenodd" fill-opacity="1" /><path clip-path="url(#clip600)" d="M169.741 706.66 Q165.228 706.66 162.942 711.116 Q160.685 715.543 160.685 724.455 Q160.685 733.338 162.942 737.794 Q165.228 742.221 169.741 742.221 Q174.284 742.221 176.541 737.794 Q178.827 733.338 178.827 724.455 Q178.827 715.543 176.541 711.116 Q174.284 706.66 169.741 706.66 M169.741 702.031 Q177.004 702.031 180.824 707.789 Q184.672 713.518 184.672 724.455 Q184.672 735.364 180.824 741.122 Q177.004 746.851 169.741 746.851 Q162.479 746.851 158.63 741.122 Q154.811 735.364 154.811 724.455 Q154.811 713.518 158.63 707.789 Q162.479 702.031 169.741 702.031 Z" fill="#000000" fill-rule="evenodd" fill-opacity="1" /><path clip-path="url(#clip600)" d="M114.447 487.769 Q109.933 487.769 107.647 492.225 Q105.39 496.652 105.39 505.564 Q105.39 514.447 107.647 518.903 Q109.933 523.33 114.447 523.33 Q118.989 523.33 121.246 518.903 Q123.532 514.447 123.532 505.564 Q123.532 496.652 121.246 492.225 Q118.989 487.769 114.447 487.769 M114.447 483.139 Q121.709 483.139 125.529 488.897 Q129.377 494.626 129.377 505.564 Q129.377 516.472 125.529 522.23 Q121.709 527.959 114.447 527.959 Q107.184 527.959 103.336 522.23 Q99.5162 516.472 99.5162 505.564 Q99.5162 494.626 103.336 488.897 Q107.184 483.139 114.447 483.139 Z" fill="#000000" fill-rule="evenodd" fill-opacity="1" /><path clip-path="url(#clip600)" d="M139.649 519.771 L145.754 519.771 L145.754 527.12 L139.649 527.12 L139.649 519.771 Z" fill="#000000" fill-rule="evenodd" fill-opacity="1" /><path clip-path="url(#clip600)" d="M158.544 483.92 L181.489 483.92 L181.489 488.839 L163.897 488.839 L163.897 499.43 Q165.17 498.995 166.443 498.793 Q167.716 498.561 168.989 498.561 Q176.223 498.561 180.447 502.526 Q184.672 506.49 184.672 513.26 Q184.672 520.234 180.332 524.111 Q175.991 527.959 168.092 527.959 Q165.372 527.959 162.537 527.496 Q159.73 527.034 156.721 526.108 L156.721 520.234 Q159.325 521.652 162.103 522.346 Q164.88 523.04 167.976 523.04 Q172.982 523.04 175.905 520.407 Q178.827 517.774 178.827 513.26 Q178.827 508.747 175.905 506.114 Q172.982 503.48 167.976 503.48 Q165.633 503.48 163.289 504.001 Q160.974 504.522 158.544 505.622 L158.544 483.92 Z" fill="#000000" fill-rule="evenodd" fill-opacity="1" /><path clip-path="url(#clip600)" d="M101.715 303.31 L111.264 303.31 L111.264 270.353 L100.876 272.436 L100.876 267.112 L111.206 265.029 L117.051 265.029 L117.051 303.31 L126.599 303.31 L126.599 308.229 L101.715 308.229 L101.715 303.31 Z" fill="#000000" fill-rule="evenodd" fill-opacity="1" /><path clip-path="url(#clip600)" d="M138.405 300.879 L144.51 300.879 L144.51 308.229 L138.405 308.229 L138.405 300.879 Z" fill="#000000" fill-rule="evenodd" fill-opacity="1" /><path clip-path="url(#clip600)" d="M169.741 268.877 Q165.228 268.877 162.942 273.333 Q160.685 277.76 160.685 286.672 Q160.685 295.555 162.942 300.011 Q165.228 304.438 169.741 304.438 Q174.284 304.438 176.541 300.011 Q178.827 295.555 178.827 286.672 Q178.827 277.76 176.541 273.333 Q174.284 268.877 169.741 268.877 M169.741 264.247 Q177.004 264.247 180.824 270.006 Q184.672 275.735 184.672 286.672 Q184.672 297.581 180.824 303.339 Q177.004 309.068 169.741 309.068 Q162.479 309.068 158.63 303.339 Q154.811 297.581 154.811 286.672 Q154.811 275.735 158.63 270.006 Q162.479 264.247 169.741 264.247 Z" fill="#000000" fill-rule="evenodd" fill-opacity="1" /><path clip-path="url(#clip600)" d="M102.959 84.4181 L112.508 84.4181 L112.508 51.4611 L102.12 53.5444 L102.12 48.2204 L112.45 46.1371 L118.295 46.1371 L118.295 84.4181 L127.844 84.4181 L127.844 89.3371 L102.959 89.3371 L102.959 84.4181 Z" fill="#000000" fill-rule="evenodd" fill-opacity="1" /><path clip-path="url(#clip600)" d="M139.649 81.9876 L145.754 81.9876 L145.754 89.3371 L139.649 89.3371 L139.649 81.9876 Z" fill="#000000" fill-rule="evenodd" fill-opacity="1" /><path clip-path="url(#clip600)" d="M158.544 46.1371 L181.489 46.1371 L181.489 51.056 L163.897 51.056 L163.897 61.6462 Q165.17 61.2122 166.443 61.0097 Q167.716 60.7782 168.989 60.7782 Q176.223 60.7782 180.447 64.7423 Q184.672 68.7064 184.672 75.4772 Q184.672 82.4505 180.332 86.3278 Q175.991 90.1762 168.092 90.1762 Q165.372 90.1762 162.537 89.7132 Q159.73 89.2503 156.721 88.3243 L156.721 82.4505 Q159.325 83.8683 162.103 84.5628 Q164.88 85.2572 167.976 85.2572 Q172.982 85.2572 175.905 82.6241 Q178.827 79.9911 178.827 75.4772 Q178.827 70.9633 175.905 68.3302 Q172.982 65.6971 167.976 65.6971 Q165.633 65.6971 163.289 66.218 Q160.974 66.7388 158.544 67.8383 L158.544 46.1371 Z" fill="#000000" fill-rule="evenodd" fill-opacity="1" /><polyline clip-path="url(#clip602)" style="stroke:#009af9; stroke-linecap:butt; stroke-linejoin:round; stroke-width:12; stroke-opacity:1; fill:none" points="
  281.014,943.304 312.941,832.05 344.868,678.489 376.795,502.648 408.722,331.086 440.649,191.203 472.576,105.267 504.503,85.5744 536.43,131.849 568.357,231.5 
  600.284,362.657 632.211,499.272 664.138,617.082 696.065,699.03 727.992,738.881 759.919,742.189 791.846,724.412 823.773,706.634 855.7,709.943 887.627,749.794 
  919.554,831.742 951.481,949.552 983.408,1086.17 1015.33,1217.32 1047.26,1316.97 1079.19,1363.25 1111.12,1343.56 1143.04,1257.62 1174.97,1117.74 1206.9,946.176 
  1238.82,770.335 1270.75,616.774 1302.68,505.52 1334.6,445.96 1366.53,435.27 1398.46,459.737 1430.39,498.619 1462.31,529.614 1494.24,534.639 1526.17,504.507 
  1558.09,441.408 1590.02,358.581 1621.95,277.249 1653.87,221.545 1685.8,212.623 1717.73,263.355 1749.66,374.878 1781.58,535.82 1813.51,724.412 1845.44,913.004 
  1877.36,1073.95 1909.29,1185.47 1941.22,1236.2 1973.14,1227.28 2005.07,1171.57 2037,1090.24 2068.93,1007.42 2100.85,944.317 2132.78,914.185 2164.71,919.21 
  2196.63,950.205 2228.56,989.086 2260.49,1013.55 2292.41,1002.86 
  "/>
<path clip-path="url(#clip600)" d="
M2017.65 243.589 L2281.69 243.589 L2281.69 92.3886 L2017.65 92.3886  Z
  " fill="#ffffff" fill-rule="evenodd" fill-opacity="1"/>
<polyline clip-path="url(#clip600)" style="stroke:#000000; stroke-linecap:butt; stroke-linejoin:round; stroke-width:4; stroke-opacity:1; fill:none" points="
  2017.65,243.589 2281.69,243.589 2281.69,92.3886 2017.65,92.3886 2017.65,243.589 
  "/>
<polyline clip-path="url(#clip600)" style="stroke:#009af9; stroke-linecap:butt; stroke-linejoin:round; stroke-width:5; stroke-opacity:1; fill:none" points="
  2041.34,167.989 2183.48,167.989 
  "/>
<path clip-path="url(#clip600)" d="M2207.17 176.799 L2207.17 157.181 L2212.49 157.181 L2212.49 176.597 Q2212.49 181.197 2214.28 183.512 Q2216.08 185.798 2219.67 185.798 Q2223.98 185.798 2226.47 183.049 Q2228.98 180.3 2228.98 175.555 L2228.98 157.181 L2234.31 157.181 L2234.31 189.589 L2228.98 189.589 L2228.98 184.612 Q2227.04 187.563 2224.47 189.01 Q2221.92 190.428 2218.54 190.428 Q2212.95 190.428 2210.06 186.956 Q2207.17 183.483 2207.17 176.799 M2220.56 156.4 L2220.56 156.4 Z" fill="#000000" fill-rule="evenodd" fill-opacity="1" /></svg>
