<?xml version="1.0" encoding="utf-8"?>
<svg xmlns="http://www.w3.org/2000/svg" xmlns:xlink="http://www.w3.org/1999/xlink" width="600" height="400" viewBox="0 0 2400 1600">
<defs>
  <clipPath id="clip470">
    <rect x="0" y="0" width="2400" height="1600"/>
  </clipPath>
</defs>
<path clip-path="url(#clip470)" d="
M0 1600 L2400 1600 L2400 0 L0 0  Z
  " fill="#ffffff" fill-rule="evenodd" fill-opacity="1"/>
<defs>
  <clipPath id="clip471">
    <rect x="480" y="0" width="1681" height="1600"/>
  </clipPath>
</defs>
<path clip-path="url(#clip470)" d="
M193.936 1423.18 L2352.76 1423.18 L2352.76 47.2441 L193.936 47.2441  Z
  " fill="#ffffff" fill-rule="evenodd" fill-opacity="1"/>
<defs>
  <clipPath id="clip472">
    <rect x="193" y="47" width="2160" height="1377"/>
  </clipPath>
</defs>
<polyline clip-path="url(#clip472)" style="stroke:#000000; stroke-linecap:butt; stroke-linejoin:round; stroke-width:2; stroke-opacity:0.1; fill:none" points="
  292.064,1423.18 292.064,47.2441 
  "/>
<polyline clip-path="url(#clip472)" style="stroke:#000000; stroke-linecap:butt; stroke-linejoin:round; stroke-width:2; stroke-opacity:0.1; fill:none" points="
  619.158,1423.18 619.158,47.2441 
  "/>
<polyline clip-path="url(#clip472)" style="stroke:#000000; stroke-linecap:butt; stroke-linejoin:round; stroke-width:2; stroke-opacity:0.1; fill:none" points="
  946.252,1423.18 946.252,47.2441 
  "/>
<polyline clip-path="url(#clip472)" style="stroke:#000000; stroke-linecap:butt; stroke-linejoin:round; stroke-width:2; stroke-opacity:0.1; fill:none" points="
  1273.35,1423.18 1273.35,47.2441 
  "/>
<polyline clip-path="url(#clip472)" style="stroke:#000000; stroke-linecap:butt; stroke-linejoin:round; stroke-width:2; stroke-opacity:0.1; fill:none" points="
  1600.44,1423.18 1600.44,47.2441 
  "/>
<polyline clip-path="url(#clip472)" style="stroke:#000000; stroke-linecap:butt; stroke-linejoin:round; stroke-width:2; stroke-opacity:0.1; fill:none" points="
  1927.53,1423.18 1927.53,47.2441 
  "/>
<polyline clip-path="url(#clip472)" style="stroke:#000000; stroke-linecap:butt; stroke-linejoin:round; stroke-width:2; stroke-opacity:0.1; fill:none" points="
  2254.63,1423.18 2254.63,47.2441 
  "/>
<polyline clip-path="url(#clip470)" style="stroke:#000000; stroke-linecap:butt; stroke-linejoin:round; stroke-width:4; stroke-opacity:1; fill:none" points="
  193.936,1423.18 2352.76,1423.18 
  "/>
<polyline clip-path="url(#clip470)" style="stroke:#000000; stroke-linecap:butt; stroke-linejoin:round; stroke-width:4; stroke-opacity:1; fill:none" points="
  292.064,1423.18 292.064,1404.28 
  "/>
<polyline clip-path="url(#clip470)" style="stroke:#000000; stroke-linecap:butt; stroke-linejoin:round; stroke-width:4; stroke-opacity:1; fill:none" points="
  619.158,1423.18 619.158,1404.28 
  "/>
<polyline clip-path="url(#clip470)" style="stroke:#000000; stroke-linecap:butt; stroke-linejoin:round; stroke-width:4; stroke-opacity:1; fill:none" points="
  946.252,1423.18 946.252,1404.28 
  "/>
<polyline clip-path="url(#clip470)" style="stroke:#000000; stroke-linecap:butt; stroke-linejoin:round; stroke-width:4; stroke-opacity:1; fill:none" points="
  1273.35,1423.18 1273.35,1404.28 
  "/>
<polyline clip-path="url(#clip470)" style="stroke:#000000; stroke-linecap:butt; stroke-linejoin:round; stroke-width:4; stroke-opacity:1; fill:none" points="
  1600.44,1423.18 1600.44,1404.28 
  "/>
<polyline clip-path="url(#clip470)" style="stroke:#000000; stroke-linecap:butt; stroke-linejoin:round; stroke-width:4; stroke-opacity:1; fill:none" points="
  1927.53,1423.18 1927.53,1404.28 
  "/>
<polyline clip-path="url(#clip470)" style="stroke:#000000; stroke-linecap:butt; stroke-linejoin:round; stroke-width:4; stroke-opacity:1; fill:none" points="
  2254.63,1423.18 2254.63,1404.28 
  "/>
<path clip-path="url(#clip470)" d="M261.532 1468.75 L291.208 1468.75 L291.208 1472.69 L261.532 1472.69 L261.532 1468.75 Z" fill="#000000" fill-rule="evenodd" fill-opacity="1" /><path clip-path="url(#clip470)" d="M315.467 1466.95 Q318.823 1467.66 320.698 1469.93 Q322.596 1472.2 322.596 1475.53 Q322.596 1480.65 319.078 1483.45 Q315.559 1486.25 309.078 1486.25 Q306.902 1486.25 304.587 1485.81 Q302.296 1485.39 299.842 1484.54 L299.842 1480.02 Q301.786 1481.16 304.101 1481.74 Q306.416 1482.32 308.939 1482.32 Q313.337 1482.32 315.629 1480.58 Q317.944 1478.84 317.944 1475.53 Q317.944 1472.48 315.791 1470.77 Q313.661 1469.03 309.842 1469.03 L305.814 1469.03 L305.814 1465.19 L310.027 1465.19 Q313.476 1465.19 315.305 1463.82 Q317.133 1462.43 317.133 1459.84 Q317.133 1457.18 315.235 1455.77 Q313.36 1454.33 309.842 1454.33 Q307.921 1454.33 305.722 1454.75 Q303.522 1455.16 300.884 1456.04 L300.884 1451.88 Q303.546 1451.14 305.86 1450.77 Q308.198 1450.39 310.259 1450.39 Q315.583 1450.39 318.684 1452.83 Q321.786 1455.23 321.786 1459.35 Q321.786 1462.22 320.143 1464.21 Q318.499 1466.18 315.467 1466.95 Z" fill="#000000" fill-rule="evenodd" fill-opacity="1" /><path clip-path="url(#clip470)" d="M589.1 1468.75 L618.776 1468.75 L618.776 1472.69 L589.1 1472.69 L589.1 1468.75 Z" fill="#000000" fill-rule="evenodd" fill-opacity="1" /><path clip-path="url(#clip470)" d="M632.896 1481.64 L649.216 1481.64 L649.216 1485.58 L627.271 1485.58 L627.271 1481.64 Q629.934 1478.89 634.517 1474.26 Q639.123 1469.61 640.304 1468.27 Q642.549 1465.74 643.429 1464.01 Q644.332 1462.25 644.332 1460.56 Q644.332 1457.8 642.387 1456.07 Q640.466 1454.33 637.364 1454.33 Q635.165 1454.33 632.711 1455.09 Q630.281 1455.86 627.503 1457.41 L627.503 1452.69 Q630.327 1451.55 632.781 1450.97 Q635.234 1450.39 637.271 1450.39 Q642.642 1450.39 645.836 1453.08 Q649.031 1455.77 649.031 1460.26 Q649.031 1462.39 648.22 1464.31 Q647.433 1466.2 645.327 1468.8 Q644.748 1469.47 641.646 1472.69 Q638.545 1475.88 632.896 1481.64 Z" fill="#000000" fill-rule="evenodd" fill-opacity="1" /><path clip-path="url(#clip470)" d="M916.009 1468.75 L945.685 1468.75 L945.685 1472.69 L916.009 1472.69 L916.009 1468.75 Z" fill="#000000" fill-rule="evenodd" fill-opacity="1" /><path clip-path="url(#clip470)" d="M956.588 1481.64 L964.226 1481.64 L964.226 1455.28 L955.916 1456.95 L955.916 1452.69 L964.18 1451.02 L968.856 1451.02 L968.856 1481.64 L976.495 1481.64 L976.495 1485.58 L956.588 1485.58 L956.588 1481.64 Z" fill="#000000" fill-rule="evenodd" fill-opacity="1" /><path clip-path="url(#clip470)" d="M1273.35 1454.1 Q1269.73 1454.1 1267.91 1457.66 Q1266.1 1461.2 1266.1 1468.33 Q1266.1 1475.44 1267.91 1479.01 Q1269.73 1482.55 1273.35 1482.55 Q1276.98 1482.55 1278.79 1479.01 Q1280.61 1475.44 1280.61 1468.33 Q1280.61 1461.2 1278.79 1457.66 Q1276.98 1454.1 1273.35 1454.1 M1273.35 1450.39 Q1279.16 1450.39 1282.21 1455 Q1285.29 1459.58 1285.29 1468.33 Q1285.29 1477.06 1282.21 1481.67 Q1279.16 1486.25 1273.35 1486.25 Q1267.54 1486.25 1264.46 1481.67 Q1261.4 1477.06 1261.4 1468.33 Q1261.4 1459.58 1264.46 1455 Q1267.54 1450.39 1273.35 1450.39 Z" fill="#000000" fill-rule="evenodd" fill-opacity="1" /><path clip-path="url(#clip470)" d="M1590.82 1481.64 L1598.46 1481.64 L1598.46 1455.28 L1590.15 1456.95 L1590.15 1452.69 L1598.41 1451.02 L1603.09 1451.02 L1603.09 1481.64 L1610.73 1481.64 L1610.73 1485.58 L1590.82 1485.58 L1590.82 1481.64 Z" fill="#000000" fill-rule="evenodd" fill-opacity="1" /><path clip-path="url(#clip470)" d="M1922.19 1481.64 L1938.51 1481.64 L1938.51 1485.58 L1916.56 1485.58 L1916.56 1481.64 Q1919.22 1478.89 1923.81 1474.26 Q1928.41 1469.61 1929.59 1468.27 Q1931.84 1465.74 1932.72 1464.01 Q1933.62 1462.25 1933.62 1460.56 Q1933.62 1457.8 1931.68 1456.07 Q1929.76 1454.33 1926.65 1454.33 Q1924.46 1454.33 1922 1455.09 Q1919.57 1455.86 1916.79 1457.41 L1916.79 1452.69 Q1919.62 1451.55 1922.07 1450.97 Q1924.52 1450.39 1926.56 1450.39 Q1931.93 1450.39 1935.13 1453.08 Q1938.32 1455.77 1938.32 1460.26 Q1938.32 1462.39 1937.51 1464.31 Q1936.72 1466.2 1934.62 1468.8 Q1934.04 1469.47 1930.94 1472.69 Q1927.83 1475.88 1922.19 1481.64 Z" fill="#000000" fill-rule="evenodd" fill-opacity="1" /><path clip-path="url(#clip470)" d="M2258.88 1466.95 Q2262.23 1467.66 2264.11 1469.93 Q2266 1472.2 2266 1475.53 Q2266 1480.65 2262.49 1483.45 Q2258.97 1486.25 2252.49 1486.25 Q2250.31 1486.25 2248 1485.81 Q2245.7 1485.39 2243.25 1484.54 L2243.25 1480.02 Q2245.19 1481.16 2247.51 1481.74 Q2249.82 1482.32 2252.35 1482.32 Q2256.75 1482.32 2259.04 1480.58 Q2261.35 1478.84 2261.35 1475.53 Q2261.35 1472.48 2259.2 1470.77 Q2257.07 1469.03 2253.25 1469.03 L2249.22 1469.03 L2249.22 1465.19 L2253.44 1465.19 Q2256.88 1465.19 2258.71 1463.82 Q2260.54 1462.43 2260.54 1459.84 Q2260.54 1457.18 2258.64 1455.77 Q2256.77 1454.33 2253.25 1454.33 Q2251.33 1454.33 2249.13 1454.75 Q2246.93 1455.16 2244.29 1456.04 L2244.29 1451.88 Q2246.95 1451.14 2249.27 1450.77 Q2251.61 1450.39 2253.67 1450.39 Q2258.99 1450.39 2262.09 1452.83 Q2265.19 1455.23 2265.19 1459.35 Q2265.19 1462.22 2263.55 1464.21 Q2261.91 1466.18 2258.88 1466.95 Z" fill="#000000" fill-rule="evenodd" fill-opacity="1" /><path clip-path="url(#clip470)" d="M1289.96 1532.4 L1277.07 1549.74 L1290.63 1568.04 L1283.72 1568.04 L1273.35 1554.04 L1262.97 1568.04 L1256.06 1568.04 L1269.91 1549.39 L1257.24 1532.4 L1264.15 1532.4 L1273.6 1545.1 L1283.05 1532.4 L1289.96 1532.4 Z" fill="#000000" fill-rule="evenodd" fill-opacity="1" /><polyline clip-path="url(#clip472)" style="stroke:#000000; stroke-linecap:butt; stroke-linejoin:round; stroke-width:2; stroke-opacity:0.1; fill:none" points="
  193.936,1380.18 2352.76,1380.18 
  "/>
<polyline clip-path="url(#clip472)" style="stroke:#000000; stroke-linecap:butt; stroke-linejoin:round; stroke-width:2; stroke-opacity:0.1; fill:none" points="
  193.936,1165.19 2352.76,1165.19 
  "/>
<polyline clip-path="url(#clip472)" style="stroke:#000000; stroke-linecap:butt; stroke-linejoin:round; stroke-width:2; stroke-opacity:0.1; fill:none" points="
  193.936,950.202 2352.76,950.202 
  "/>
<polyline clip-path="url(#clip472)" style="stroke:#000000; stroke-linecap:butt; stroke-linejoin:round; stroke-width:2; stroke-opacity:0.1; fill:none" points="
  193.936,735.212 2352.76,735.212 
  "/>
<polyline clip-path="url(#clip472)" style="stroke:#000000; stroke-linecap:butt; stroke-linejoin:round; stroke-width:2; stroke-opacity:0.1; fill:none" points="
  193.936,520.222 2352.76,520.222 
  "/>
<polyline clip-path="url(#clip472)" style="stroke:#000000; stroke-linecap:butt; stroke-linejoin:round; stroke-width:2; stroke-opacity:0.1; fill:none" points="
  193.936,305.232 2352.76,305.232 
  "/>
<polyline clip-path="url(#clip472)" style="stroke:#000000; stroke-linecap:butt; stroke-linejoin:round; stroke-width:2; stroke-opacity:0.1; fill:none" points="
  193.936,90.2421 2352.76,90.2421 
  "/>
<polyline clip-path="url(#clip470)" style="stroke:#000000; stroke-linecap:butt; stroke-linejoin:round; stroke-width:4; stroke-opacity:1; fill:none" points="
  193.936,1423.18 193.936,47.2441 
  "/>
<polyline clip-path="url(#clip470)" style="stroke:#000000; stroke-linecap:butt; stroke-linejoin:round; stroke-width:4; stroke-opacity:1; fill:none" points="
  193.936,1380.18 212.834,1380.18 
  "/>
<polyline clip-path="url(#clip470)" style="stroke:#000000; stroke-linecap:butt; stroke-linejoin:round; stroke-width:4; stroke-opacity:1; fill:none" points="
  193.936,1165.19 212.834,1165.19 
  "/>
<polyline clip-path="url(#clip470)" style="stroke:#000000; stroke-linecap:butt; stroke-linejoin:round; stroke-width:4; stroke-opacity:1; fill:none" points="
  193.936,950.202 212.834,950.202 
  "/>
<polyline clip-path="url(#clip470)" style="stroke:#000000; stroke-linecap:butt; stroke-linejoin:round; stroke-width:4; stroke-opacity:1; fill:none" points="
  193.936,735.212 212.834,735.212 
  "/>
<polyline clip-path="url(#clip470)" style="stroke:#000000; stroke-linecap:butt; stroke-linejoin:round; stroke-width:4; stroke-opacity:1; fill:none" points="
  193.936,520.222 212.834,520.222 
  "/>
<polyline clip-path="url(#clip470)" style="stroke:#000000; stroke-linecap:butt; stroke-linejoin:round; stroke-width:4; stroke-opacity:1; fill:none" points="
  193.936,305.232 212.834,305.232 
  "/>
<polyline clip-path="url(#clip470)" style="stroke:#000000; stroke-linecap:butt; stroke-linejoin:round; stroke-width:4; stroke-opacity:1; fill:none" points="
  193.936,90.2421 212.834,90.2421 
  "/>
<path clip-path="url(#clip470)" d="M51.9875 1380.63 L81.6633 1380.63 L81.6633 1384.57 L51.9875 1384.57 L51.9875 1380.63 Z" fill="#000000" fill-rule="evenodd" fill-opacity="1" /><path clip-path="url(#clip470)" d="M92.566 1393.53 L100.205 1393.53 L100.205 1367.16 L91.8947 1368.83 L91.8947 1364.57 L100.159 1362.9 L104.834 1362.9 L104.834 1393.53 L112.473 1393.53 L112.473 1397.46 L92.566 1397.46 L92.566 1393.53 Z" fill="#000000" fill-rule="evenodd" fill-opacity="1" /><path clip-path="url(#clip470)" d="M121.918 1391.58 L126.802 1391.58 L126.802 1397.46 L121.918 1397.46 L121.918 1391.58 Z" fill="#000000" fill-rule="evenodd" fill-opacity="1" /><path clip-path="url(#clip470)" d="M137.033 1362.9 L155.39 1362.9 L155.39 1366.84 L141.316 1366.84 L141.316 1375.31 Q142.334 1374.96 143.353 1374.8 Q144.371 1374.61 145.39 1374.61 Q151.177 1374.61 154.556 1377.79 Q157.936 1380.96 157.936 1386.37 Q157.936 1391.95 154.464 1395.05 Q150.992 1398.13 144.672 1398.13 Q142.496 1398.13 140.228 1397.76 Q137.982 1397.39 135.575 1396.65 L135.575 1391.95 Q137.658 1393.09 139.881 1393.64 Q142.103 1394.2 144.58 1394.2 Q148.584 1394.2 150.922 1392.09 Q153.26 1389.99 153.26 1386.37 Q153.26 1382.76 150.922 1380.66 Q148.584 1378.55 144.58 1378.55 Q142.705 1378.55 140.83 1378.97 Q138.978 1379.38 137.033 1380.26 L137.033 1362.9 Z" fill="#000000" fill-rule="evenodd" fill-opacity="1" /><path clip-path="url(#clip470)" d="M50.9921 1165.64 L80.6679 1165.64 L80.6679 1169.58 L50.9921 1169.58 L50.9921 1165.64 Z" fill="#000000" fill-rule="evenodd" fill-opacity="1" /><path clip-path="url(#clip470)" d="M91.5706 1178.54 L99.2095 1178.54 L99.2095 1152.17 L90.8993 1153.84 L90.8993 1149.58 L99.1632 1147.91 L103.839 1147.91 L103.839 1178.54 L111.478 1178.54 L111.478 1182.47 L91.5706 1182.47 L91.5706 1178.54 Z" fill="#000000" fill-rule="evenodd" fill-opacity="1" /><path clip-path="url(#clip470)" d="M120.922 1176.59 L125.807 1176.59 L125.807 1182.47 L120.922 1182.47 L120.922 1176.59 Z" fill="#000000" fill-rule="evenodd" fill-opacity="1" /><path clip-path="url(#clip470)" d="M145.992 1150.99 Q142.381 1150.99 140.552 1154.56 Q138.746 1158.1 138.746 1165.23 Q138.746 1172.33 140.552 1175.9 Q142.381 1179.44 145.992 1179.44 Q149.626 1179.44 151.431 1175.9 Q153.26 1172.33 153.26 1165.23 Q153.26 1158.1 151.431 1154.56 Q149.626 1150.99 145.992 1150.99 M145.992 1147.29 Q151.802 1147.29 154.857 1151.89 Q157.936 1156.48 157.936 1165.23 Q157.936 1173.95 154.857 1178.56 Q151.802 1183.14 145.992 1183.14 Q140.181 1183.14 137.103 1178.56 Q134.047 1173.95 134.047 1165.23 Q134.047 1156.48 137.103 1151.89 Q140.181 1147.29 145.992 1147.29 Z" fill="#000000" fill-rule="evenodd" fill-opacity="1" /><path clip-path="url(#clip470)" d="M51.9875 950.653 L81.6633 950.653 L81.6633 954.588 L51.9875 954.588 L51.9875 950.653 Z" fill="#000000" fill-rule="evenodd" fill-opacity="1" /><path clip-path="url(#clip470)" d="M101.756 936.001 Q98.1447 936.001 96.316 939.565 Q94.5104 943.107 94.5104 950.237 Q94.5104 957.343 96.316 960.908 Q98.1447 964.45 101.756 964.45 Q105.39 964.45 107.196 960.908 Q109.024 957.343 109.024 950.237 Q109.024 943.107 107.196 939.565 Q105.39 936.001 101.756 936.001 M101.756 932.297 Q107.566 932.297 110.621 936.903 Q113.7 941.487 113.7 950.237 Q113.7 958.963 110.621 963.57 Q107.566 968.153 101.756 968.153 Q95.9456 968.153 92.8669 963.57 Q89.8114 958.963 89.8114 950.237 Q89.8114 941.487 92.8669 936.903 Q95.9456 932.297 101.756 932.297 Z" fill="#000000" fill-rule="evenodd" fill-opacity="1" /><path clip-path="url(#clip470)" d="M121.918 961.602 L126.802 961.602 L126.802 967.482 L121.918 967.482 L121.918 961.602 Z" fill="#000000" fill-rule="evenodd" fill-opacity="1" /><path clip-path="url(#clip470)" d="M137.033 932.922 L155.39 932.922 L155.39 936.857 L141.316 936.857 L141.316 945.329 Q142.334 944.982 143.353 944.82 Q144.371 944.635 145.39 944.635 Q151.177 944.635 154.556 947.806 Q157.936 950.977 157.936 956.394 Q157.936 961.973 154.464 965.075 Q150.992 968.153 144.672 968.153 Q142.496 968.153 140.228 967.783 Q137.982 967.412 135.575 966.672 L135.575 961.973 Q137.658 963.107 139.881 963.663 Q142.103 964.218 144.58 964.218 Q148.584 964.218 150.922 962.112 Q153.26 960.005 153.26 956.394 Q153.26 952.783 150.922 950.676 Q148.584 948.57 144.58 948.57 Q142.705 948.57 140.83 948.987 Q138.978 949.403 137.033 950.283 L137.033 932.922 Z" fill="#000000" fill-rule="evenodd" fill-opacity="1" /><path clip-path="url(#clip470)" d="M100.76 721.011 Q97.1493 721.011 95.3206 724.575 Q93.515 728.117 93.515 735.247 Q93.515 742.353 95.3206 745.918 Q97.1493 749.46 100.76 749.46 Q104.395 749.46 106.2 745.918 Q108.029 742.353 108.029 735.247 Q108.029 728.117 106.2 724.575 Q104.395 721.011 100.76 721.011 M100.76 717.307 Q106.571 717.307 109.626 721.913 Q112.705 726.497 112.705 735.247 Q112.705 743.973 109.626 748.58 Q106.571 753.163 100.76 753.163 Q94.9502 753.163 91.8715 748.58 Q88.816 743.973 88.816 735.247 Q88.816 726.497 91.8715 721.913 Q94.9502 717.307 100.76 717.307 Z" fill="#000000" fill-rule="evenodd" fill-opacity="1" /><path clip-path="url(#clip470)" d="M120.922 746.612 L125.807 746.612 L125.807 752.492 L120.922 752.492 L120.922 746.612 Z" fill="#000000" fill-rule="evenodd" fill-opacity="1" /><path clip-path="url(#clip470)" d="M145.992 721.011 Q142.381 721.011 140.552 724.575 Q138.746 728.117 138.746 735.247 Q138.746 742.353 140.552 745.918 Q142.381 749.46 145.992 749.46 Q149.626 749.46 151.431 745.918 Q153.26 742.353 153.26 735.247 Q153.26 728.117 151.431 724.575 Q149.626 721.011 145.992 721.011 M145.992 717.307 Q151.802 717.307 154.857 721.913 Q157.936 726.497 157.936 735.247 Q157.936 743.973 154.857 748.58 Q151.802 753.163 145.992 753.163 Q140.181 753.163 137.103 748.58 Q134.047 743.973 134.047 735.247 Q134.047 726.497 137.103 721.913 Q140.181 717.307 145.992 717.307 Z" fill="#000000" fill-rule="evenodd" fill-opacity="1" /><path clip-path="url(#clip470)" d="M101.756 506.021 Q98.1447 506.021 96.316 509.585 Q94.5104 513.127 94.5104 520.257 Q94.5104 527.363 96.316 530.928 Q98.1447 534.47 101.756 534.47 Q105.39 534.47 107.196 530.928 Q109.024 527.363 109.024 520.257 Q109.024 513.127 107.196 509.585 Q105.39 506.021 101.756 506.021 M101.756 502.317 Q107.566 502.317 110.621 506.923 Q113.7 511.507 113.7 520.257 Q113.7 528.984 110.621 533.59 Q107.566 538.173 101.756 538.173 Q95.9456 538.173 92.8669 533.59 Q89.8114 528.984 89.8114 520.257 Q89.8114 511.507 92.8669 506.923 Q95.9456 502.317 101.756 502.317 Z" fill="#000000" fill-rule="evenodd" fill-opacity="1" /><path clip-path="url(#clip470)" d="M121.918 531.622 L126.802 531.622 L126.802 537.502 L121.918 537.502 L121.918 531.622 Z" fill="#000000" fill-rule="evenodd" fill-opacity="1" /><path clip-path="url(#clip470)" d="M137.033 502.942 L155.39 502.942 L155.39 506.877 L141.316 506.877 L141.316 515.349 Q142.334 515.002 143.353 514.84 Q144.371 514.655 145.39 514.655 Q151.177 514.655 154.556 517.826 Q157.936 520.997 157.936 526.414 Q157.936 531.993 154.464 535.095 Q150.992 538.173 144.672 538.173 Q142.496 538.173 140.228 537.803 Q137.982 537.433 135.575 536.692 L135.575 531.993 Q137.658 533.127 139.881 533.683 Q142.103 534.238 144.58 534.238 Q148.584 534.238 150.922 532.132 Q153.26 530.025 153.26 526.414 Q153.26 522.803 150.922 520.697 Q148.584 518.59 144.58 518.59 Q142.705 518.59 140.83 519.007 Q138.978 519.423 137.033 520.303 L137.033 502.942 Z" fill="#000000" fill-rule="evenodd" fill-opacity="1" /><path clip-path="url(#clip470)" d="M91.5706 318.577 L99.2095 318.577 L99.2095 292.211 L90.8993 293.878 L90.8993 289.619 L99.1632 287.952 L103.839 287.952 L103.839 318.577 L111.478 318.577 L111.478 322.512 L91.5706 322.512 L91.5706 318.577 Z" fill="#000000" fill-rule="evenodd" fill-opacity="1" /><path clip-path="url(#clip470)" d="M120.922 316.632 L125.807 316.632 L125.807 322.512 L120.922 322.512 L120.922 316.632 Z" fill="#000000" fill-rule="evenodd" fill-opacity="1" /><path clip-path="url(#clip470)" d="M145.992 291.031 Q142.381 291.031 140.552 294.596 Q138.746 298.137 138.746 305.267 Q138.746 312.373 140.552 315.938 Q142.381 319.48 145.992 319.48 Q149.626 319.48 151.431 315.938 Q153.26 312.373 153.26 305.267 Q153.26 298.137 151.431 294.596 Q149.626 291.031 145.992 291.031 M145.992 287.327 Q151.802 287.327 154.857 291.934 Q157.936 296.517 157.936 305.267 Q157.936 313.994 154.857 318.6 Q151.802 323.183 145.992 323.183 Q140.181 323.183 137.103 318.6 Q134.047 313.994 134.047 305.267 Q134.047 296.517 137.103 291.934 Q140.181 287.327 145.992 287.327 Z" fill="#000000" fill-rule="evenodd" fill-opacity="1" /><path clip-path="url(#clip470)" d="M92.566 103.587 L100.205 103.587 L100.205 77.2213 L91.8947 78.888 L91.8947 74.6287 L100.159 72.9621 L104.834 72.9621 L104.834 103.587 L112.473 103.587 L112.473 107.522 L92.566 107.522 L92.566 103.587 Z" fill="#000000" fill-rule="evenodd" fill-opacity="1" /><path clip-path="url(#clip470)" d="M121.918 101.642 L126.802 101.642 L126.802 107.522 L121.918 107.522 L121.918 101.642 Z" fill="#000000" fill-rule="evenodd" fill-opacity="1" /><path clip-path="url(#clip470)" d="M137.033 72.9621 L155.39 72.9621 L155.39 76.8973 L141.316 76.8973 L141.316 85.3694 Q142.334 85.0222 143.353 84.8602 Q144.371 84.675 145.39 84.675 Q151.177 84.675 154.556 87.8463 Q157.936 91.0175 157.936 96.4342 Q157.936 102.013 154.464 105.115 Q150.992 108.193 144.672 108.193 Q142.496 108.193 140.228 107.823 Q137.982 107.453 135.575 106.712 L135.575 102.013 Q137.658 103.147 139.881 103.703 Q142.103 104.258 144.58 104.258 Q148.584 104.258 150.922 102.152 Q153.26 100.045 153.26 96.4342 Q153.26 92.8231 150.922 90.7166 Q148.584 88.6102 144.58 88.6102 Q142.705 88.6102 140.83 89.0268 Q138.978 89.4435 137.033 90.3231 L137.033 72.9621 Z" fill="#000000" fill-rule="evenodd" fill-opacity="1" /><polyline clip-path="url(#clip472)" style="stroke:#ff0000; stroke-linecap:butt; stroke-linejoin:round; stroke-width:0; stroke-opacity:1; fill:none" points="
  245.75,305.232 451.269,1083.07 656.788,602.341 862.308,602.341 1067.83,1083.07 1273.35,305.232 1478.87,1083.07 1684.38,602.341 1889.9,602.341 2095.42,1083.07 
  
  "/>
<circle clip-path="url(#clip472)" cx="245.75" cy="305.232" r="28" fill="#ff0000" fill-rule="evenodd" fill-opacity="1" stroke="#000000" stroke-opacity="1" stroke-width="3.2"/>
<circle clip-path="url(#clip472)" cx="451.269" cy="1083.07" r="28" fill="#ff0000" fill-rule="evenodd" fill-opacity="1" stroke="#000000" stroke-opacity="1" stroke-width="3.2"/>
<circle clip-path="url(#clip472)" cx="656.788" cy="602.341" r="28" fill="#ff0000" fill-rule="evenodd" fill-opacity="1" stroke="#000000" stroke-opacity="1" stroke-width="3.2"/>
<circle clip-path="url(#clip472)" cx="862.308" cy="602.341" r="28" fill="#ff0000" fill-rule="evenodd" fill-opacity="1" stroke="#000000" stroke-opacity="1" stroke-width="3.2"/>
<circle clip-path="url(#clip472)" cx="1067.83" cy="1083.07" r="28" fill="#ff0000" fill-rule="evenodd" fill-opacity="1" stroke="#000000" stroke-opacity="1" stroke-width="3.2"/>
<circle clip-path="url(#clip472)" cx="1273.35" cy="305.232" r="28" fill="#ff0000" fill-rule="evenodd" fill-opacity="1" stroke="#000000" stroke-opacity="1" stroke-width="3.2"/>
<circle clip-path="url(#clip472)" cx="1478.87" cy="1083.07" r="28" fill="#ff0000" fill-rule="evenodd" fill-opacity="1" stroke="#000000" stroke-opacity="1" stroke-width="3.2"/>
<circle clip-path="url(#clip472)" cx="1684.38" cy="602.341" r="28" fill="#ff0000" fill-rule="evenodd" fill-opacity="1" stroke="#000000" stroke-opacity="1" stroke-width="3.2"/>
<circle clip-path="url(#clip472)" cx="1889.9" cy="602.341" r="28" fill="#ff0000" fill-rule="evenodd" fill-opacity="1" stroke="#000000" stroke-opacity="1" stroke-width="3.2"/>
<circle clip-path="url(#clip472)" cx="2095.42" cy="1083.07" r="28" fill="#ff0000" fill-rule="evenodd" fill-opacity="1" stroke="#000000" stroke-opacity="1" stroke-width="3.2"/>
<polyline clip-path="url(#clip472)" style="stroke:#ff0000; stroke-linecap:butt; stroke-linejoin:round; stroke-width:12; stroke-opacity:0.2; fill:none" points="
  245.75,305.232 249.095,305.592 252.44,306.67 255.785,308.466 259.13,310.975 262.997,314.76 266.863,319.484 270.729,325.138 274.596,331.708 278.462,339.179 
  282.328,347.536 286.195,356.76 290.061,366.829 293.927,377.722 297.793,389.413 301.66,401.878 305.526,415.087 309.392,429.012 313.259,443.621 317.125,458.882 
  320.991,474.761 328.724,508.228 336.456,543.723 344.189,580.929 351.921,619.513 367.387,699.43 382.852,780.622 392.146,828.821 401.44,875.811 406.087,898.663 
  410.734,920.987 415.381,942.712 420.027,963.766 424.674,984.083 429.321,1003.6 433.968,1022.24 438.615,1039.96 443.262,1056.7 447.909,1072.4 452.556,1087.01 
  457.203,1100.48 461.132,1110.95 465.061,1120.56 468.99,1129.28 472.919,1137.09 476.848,1143.97 480.777,1149.9 484.706,1154.88 488.635,1158.89 492.564,1161.93 
  496.493,1163.97 500.422,1165.03 504.35,1165.1 508.279,1164.17 512.208,1162.26 516.137,1159.36 520.066,1155.48 524.334,1150.16 528.602,1143.72 532.87,1136.16 
  537.138,1127.51 541.406,1117.8 545.674,1107.04 549.942,1095.27 554.21,1082.51 558.478,1068.82 562.746,1054.21 567.014,1038.73 571.281,1022.43 575.549,1005.35 
  579.817,987.528 584.085,969.021 588.353,949.878 596.223,913.087 604.092,874.65 611.961,834.924 619.831,794.274 635.569,711.716 651.308,630.026 659.745,587.648 
  668.181,546.839 672.4,527.159 676.618,508.033 680.836,489.511 685.055,471.643 689.273,454.477 693.491,438.057 697.71,422.427 701.928,407.63 706.147,393.705 
  710.365,380.688 714.583,368.614 718.802,357.516 723.689,345.915 728.577,335.705 733.464,326.922 738.351,319.597 743.239,313.756 748.126,309.42 753.013,306.604 
  757.901,305.319 762.788,305.57 767.676,307.354 772.563,310.667 777.45,315.495 782.338,321.823 787.225,329.626 792.113,338.878 797,349.546 801.343,360.183 
  805.687,371.878 810.03,384.597 814.373,398.306 818.717,412.964 823.06,428.532 827.403,444.965 831.747,462.216 836.09,480.237 840.433,498.977 844.777,518.384 
  849.12,538.402 857.807,580.046 866.493,623.439 881.728,702.28 896.963,782.261 904.581,821.813 912.198,860.614 919.816,898.327 927.433,934.626 931.586,953.706 
  935.738,972.221 939.891,990.126 944.043,1007.37 948.196,1023.92 952.348,1039.72 956.501,1054.74 960.653,1068.93 964.806,1082.26 968.958,1094.7 973.111,1106.21 
  977.263,1116.77 981.416,1126.34 985.568,1134.9 989.721,1142.43 993.873,1148.91 998.051,1154.36 1002.23,1158.71 1006.4,1161.95 1010.58,1164.09 1014.76,1165.1 
  1018.94,1164.99 1023.11,1163.76 1027.29,1161.42 1031.47,1157.96 1035.65,1153.4 1039.82,1147.74 1044,1141.01 1048.18,1133.23 1052.35,1124.4 1056.53,1114.56 
  1060.71,1103.73 1065.33,1090.64 1069.95,1076.41 1074.56,1061.09 1079.18,1044.74 1083.8,1027.4 1088.42,1009.13 1093.04,989.981 1097.66,970.023 1102.27,949.315 
  1106.89,927.925 1111.51,905.92 1116.13,883.371 1125.37,836.929 1134.6,789.191 1152.18,696.96 1169.76,606.489 1174.15,584.639 1178.55,563.224 1182.94,542.305 
  1187.34,521.943 1191.73,502.197 1196.12,483.124 1200.52,464.778 1204.91,447.213 1209.48,429.832 1214.05,413.404 1218.62,397.981 1223.19,383.61 1227.76,370.337 
  1232.33,358.202 1236.9,347.244 1241.47,337.497 1246.03,328.992 1250.6,321.754 1255.17,315.807 1259.74,311.169 1264.31,307.854 1268.88,305.873 1273.45,305.232 
  1278.02,305.934 1281.86,307.563 1285.71,310.138 1289.56,313.653 1293.4,318.101 1297.25,323.471 1301.1,329.752 1304.94,336.93 1308.79,344.989 1312.63,353.911 
  1316.48,363.676 1320.33,374.263 1324.17,385.648 1328.02,397.807 1331.86,410.712 1335.71,424.334 1339.56,438.645 1344.25,457.002 1348.95,476.276 1353.64,496.404 
  1358.34,517.319 1363.04,538.953 1367.73,561.234 1372.43,584.088 1377.12,607.44 1395.91,704.272 1414.69,802.729 1423.29,846.95 1431.9,889.935 1440.5,931.208 
  1449.1,970.315 1453.4,988.919 1457.71,1006.82 1462.01,1023.97 1466.31,1040.32 1470.61,1055.83 1474.91,1070.45 1479.21,1084.15 1483.52,1096.87 1487.49,1107.74 
  1491.46,1117.73 1495.43,1126.82 1499.41,1134.98 1503.38,1142.19 1507.35,1148.45 1511.33,1153.73 1515.3,1158.03 1519.27,1161.33 1523.24,1163.62 1527.22,1164.9 
  1531.19,1165.16 1535.16,1164.41 1539.14,1162.65 1543.11,1159.88 1547.08,1156.11 1551.11,1151.28 1555.13,1145.44 1559.15,1138.6 1563.18,1130.79 1567.2,1122.02 
  1571.23,1112.31 1575.25,1101.69 1579.28,1090.19 1583.3,1077.82 1587.32,1064.62 1591.35,1050.63 1595.37,1035.87 1599.4,1020.39 1603.42,1004.21 1607.45,987.384 
  1611.47,969.946 1615.98,949.73 1620.49,928.86 1625,907.402 1629.51,885.421 1638.53,840.155 1647.55,793.614 1665.59,698.976 1683.63,606.094 1691.81,565.81 
  1699.98,527.217 1704.07,508.676 1708.16,490.701 1712.24,473.337 1716.33,456.626 1720.42,440.611 1724.5,425.332 1728.59,410.827 1732.68,397.132 1736.77,384.281 
  1740.85,372.307 1744.94,361.239 1749.03,351.105 1753.71,340.682 1758.39,331.55 1763.06,323.739 1767.74,317.276 1772.42,312.18 1777.1,308.47 1781.78,306.156 
  1786.46,305.247 1791.14,305.746 1795.82,307.65 1800.5,310.954 1805.18,315.647 1809.86,321.713 1814.54,329.133 1819.22,337.882 1823.9,347.932 1828.23,358.369 
  1832.56,369.863 1836.89,382.383 1841.23,395.893 1845.56,410.355 1849.89,425.729 1854.22,441.971 1858.56,459.037 1862.89,476.877 1867.22,495.443 1871.55,514.681 
  1875.89,534.539 1884.55,575.886 1893.22,619.021 1910.3,707.418 1927.39,797.025 1935.93,841.06 1944.48,883.942 1953.02,925.202 1961.56,964.39 1965.71,982.539 
  1969.86,1000.05 1974,1016.88 1978.15,1032.99 1982.3,1048.33 1986.44,1062.87 1990.59,1076.56 1994.74,1089.38 1998.89,1101.28 2003.03,1112.25 2007.18,1122.24 
  2011.33,1131.24 2015.48,1139.22 2019.62,1146.16 2023.77,1152.05 2027.92,1156.86 2032.17,1160.67 2036.42,1163.33 2040.67,1164.83 2044.92,1165.17 2049.17,1164.35 
  2053.43,1162.36 2057.68,1159.23 2061.93,1154.95 2066.18,1149.53 2070.43,1143 2074.68,1135.36 2078.93,1126.64 2083.19,1116.86 2087.44,1106.06 2091.69,1094.25 
  2095.94,1081.47 2100.6,1066.39 2105.26,1050.24 2109.91,1033.07 2114.57,1014.93 2119.23,995.886 2123.89,975.996 2128.55,955.324 2133.2,933.939 2142.52,889.305 
  2151.84,842.674 2161.15,794.65 2170.47,745.855 2184,674.897 2197.53,605.587 2204.3,572.146 2211.07,539.82 2217.83,508.831 2224.6,479.391 2231.37,451.702 
  2238.13,425.953 2241.52,413.862 2244.9,402.32 2248.28,391.349 2251.67,380.966 2255.05,371.189 2258.43,362.035 2261.82,353.52 2265.2,345.658 2268.58,338.463 
  2271.96,331.947 2275.35,326.121 2278.73,320.995 2284.28,314.123 2289.84,309.191 2295.39,306.223 2300.94,305.232 
  "/>
<polyline clip-path="url(#clip472)" style="stroke:#0000ff; stroke-linecap:butt; stroke-linejoin:round; stroke-width:0; stroke-opacity:0.8; fill:none" points="
  245.75,305.232 451.269,1083.07 656.788,602.341 862.308,602.341 1067.83,1083.07 1273.35,305.232 1478.87,1083.07 1684.38,602.341 1889.9,602.341 2095.42,1083.07 
  
  "/>
<path clip-path="url(#clip472)" d="M245.75 271.232 L237.76 294.216 L213.416 294.726 L232.83 309.448 L225.758 332.738 L245.75 318.832 L265.742 332.738 L258.67 309.448 L278.084 294.726 L253.74 294.216 L245.75 271.232 Z" fill="#0000ff" fill-rule="evenodd" fill-opacity="0.8" stroke="#000000" stroke-opacity="0.8" stroke-width="3.2"/>
<path clip-path="url(#clip472)" d="M451.269 1049.07 L443.279 1072.06 L418.935 1072.57 L438.349 1087.29 L431.277 1110.58 L451.269 1096.67 L471.261 1110.58 L464.189 1087.29 L483.603 1072.57 L459.259 1072.06 L451.269 1049.07 Z" fill="#0000ff" fill-rule="evenodd" fill-opacity="0.8" stroke="#000000" stroke-opacity="0.8" stroke-width="3.2"/>
<path clip-path="url(#clip472)" d="M656.788 568.341 L648.798 591.325 L624.454 591.835 L643.868 606.557 L636.796 629.847 L656.788 615.941 L676.78 629.847 L669.708 606.557 L689.122 591.835 L664.778 591.325 L656.788 568.341 Z" fill="#0000ff" fill-rule="evenodd" fill-opacity="0.8" stroke="#000000" stroke-opacity="0.8" stroke-width="3.2"/>
<path clip-path="url(#clip472)" d="M862.308 568.341 L854.318 591.325 L829.974 591.835 L849.388 606.557 L842.316 629.847 L862.308 615.941 L882.3 629.847 L875.228 606.557 L894.642 591.835 L870.298 591.325 L862.308 568.341 Z" fill="#0000ff" fill-rule="evenodd" fill-opacity="0.8" stroke="#000000" stroke-opacity="0.8" stroke-width="3.2"/>
<path clip-path="url(#clip472)" d="M1067.83 1049.07 L1059.84 1072.06 L1035.49 1072.57 L1054.91 1087.29 L1047.83 1110.58 L1067.83 1096.67 L1087.82 1110.58 L1080.75 1087.29 L1100.16 1072.57 L1075.82 1072.06 L1067.83 1049.07 Z" fill="#0000ff" fill-rule="evenodd" fill-opacity="0.8" stroke="#000000" stroke-opacity="0.8" stroke-width="3.2"/>
<path clip-path="url(#clip472)" d="M1273.35 271.232 L1265.36 294.216 L1241.01 294.726 L1260.43 309.448 L1253.35 332.738 L1273.35 318.832 L1293.34 332.738 L1286.27 309.448 L1305.68 294.726 L1281.34 294.216 L1273.35 271.232 Z" fill="#0000ff" fill-rule="evenodd" fill-opacity="0.8" stroke="#000000" stroke-opacity="0.8" stroke-width="3.2"/>
<path clip-path="url(#clip472)" d="M1478.87 1049.07 L1470.88 1072.06 L1446.53 1072.57 L1465.95 1087.29 L1458.87 1110.58 L1478.87 1096.67 L1498.86 1110.58 L1491.79 1087.29 L1511.2 1072.57 L1486.86 1072.06 L1478.87 1049.07 Z" fill="#0000ff" fill-rule="evenodd" fill-opacity="0.8" stroke="#000000" stroke-opacity="0.8" stroke-width="3.2"/>
<path clip-path="url(#clip472)" d="M1684.38 568.341 L1676.39 591.325 L1652.05 591.835 L1671.46 606.557 L1664.39 629.847 L1684.38 615.941 L1704.38 629.847 L1697.3 606.557 L1716.72 591.835 L1692.37 591.325 L1684.38 568.341 Z" fill="#0000ff" fill-rule="evenodd" fill-opacity="0.8" stroke="#000000" stroke-opacity="0.8" stroke-width="3.2"/>
<path clip-path="url(#clip472)" d="M1889.9 568.341 L1881.91 591.325 L1857.57 591.835 L1876.98 606.557 L1869.91 629.847 L1889.9 615.941 L1909.9 629.847 L1902.82 606.557 L1922.24 591.835 L1897.89 591.325 L1889.9 568.341 Z" fill="#0000ff" fill-rule="evenodd" fill-opacity="0.8" stroke="#000000" stroke-opacity="0.8" stroke-width="3.2"/>
<path clip-path="url(#clip472)" d="M2095.42 1049.07 L2087.43 1072.06 L2063.09 1072.57 L2082.5 1087.29 L2075.43 1110.58 L2095.42 1096.67 L2115.41 1110.58 L2108.34 1087.29 L2127.76 1072.57 L2103.41 1072.06 L2095.42 1049.07 Z" fill="#0000ff" fill-rule="evenodd" fill-opacity="0.8" stroke="#000000" stroke-opacity="0.8" stroke-width="3.2"/>
<polyline clip-path="url(#clip472)" style="stroke:#0000ff; stroke-linecap:butt; stroke-linejoin:round; stroke-width:12; stroke-opacity:0.2; fill:none" points="
  245.75,305.232 249.095,306.041 252.44,308.466 255.785,312.497 259.13,318.119 262.997,326.571 266.863,337.077 270.729,349.585 274.596,364.032 278.462,380.345 
  282.328,398.443 286.195,418.233 290.061,439.617 293.927,462.487 297.793,486.729 301.66,512.219 305.526,538.831 309.392,566.43 313.259,594.878 317.125,624.031 
  320.991,653.744 328.724,714.245 336.456,775.168 344.189,835.289 351.921,893.399 355.788,921.334 359.654,948.332 363.52,974.259 367.387,998.985 371.253,1022.38 
  375.119,1044.34 378.986,1064.74 382.852,1083.48 385.175,1093.91 387.499,1103.69 389.822,1112.8 392.146,1121.22 394.469,1128.94 396.793,1135.94 399.116,1142.22 
  401.44,1147.76 403.763,1152.55 406.087,1156.58 408.41,1159.85 410.734,1162.34 413.057,1164.06 415.381,1165 417.704,1165.16 420.027,1164.54 422.351,1163.13 
  424.674,1160.96 426.998,1158 429.321,1154.28 431.645,1149.8 433.968,1144.57 436.292,1138.59 438.615,1131.88 440.939,1124.45 443.262,1116.31 445.586,1107.49 
  447.909,1097.98 450.233,1087.82 452.556,1077.01 454.88,1065.58 457.203,1053.56 461.132,1031.92 465.061,1008.74 468.99,984.142 472.919,958.25 476.848,931.2 
  480.777,903.133 484.706,874.194 488.635,844.533 496.493,783.666 504.35,721.794 512.208,660.201 520.066,600.163 524.334,568.65 528.602,538.158 532.87,508.873 
  537.138,480.974 541.406,454.633 545.674,430.01 549.942,407.258 554.21,386.514 556.344,376.936 558.478,367.906 560.612,359.44 562.746,351.549 564.88,344.246 
  567.014,337.542 569.148,331.447 571.281,325.971 573.415,321.121 575.549,316.906 577.683,313.332 579.817,310.405 581.951,308.128 584.085,306.506 586.219,305.54 
  588.353,305.232 590.321,305.533 592.288,306.392 594.255,307.81 596.223,309.785 598.19,312.314 600.157,315.393 602.125,319.019 604.092,323.187 608.027,333.126 
  611.961,345.159 615.896,359.223 619.831,375.245 623.765,393.141 627.7,412.818 631.634,434.174 635.569,457.097 639.504,481.469 643.438,507.162 647.373,534.042 
  651.308,561.969 659.745,624.7 668.181,690.072 676.618,756.522 685.055,822.464 689.273,854.749 693.491,886.32 697.71,916.986 701.928,946.564 706.147,974.877 
  710.365,1001.76 714.583,1027.04 718.802,1050.58 721.245,1063.36 723.689,1075.48 726.133,1086.92 728.577,1097.65 731.02,1107.65 733.464,1116.91 735.908,1125.39 
  738.351,1133.1 740.795,1140 743.239,1146.09 745.682,1151.36 748.126,1155.79 750.57,1159.37 753.013,1162.11 755.457,1163.98 757.901,1165 760.345,1165.15 
  762.788,1164.43 765.232,1162.86 767.676,1160.42 770.119,1157.13 772.563,1153 775.007,1148.02 777.45,1142.21 779.894,1135.59 782.338,1128.16 784.782,1119.95 
  787.225,1110.96 789.669,1101.21 792.113,1090.73 794.556,1079.54 797,1067.65 801.343,1044.9 805.687,1020.17 810.03,993.642 814.373,965.472 818.717,935.841 
  823.06,904.937 827.403,872.957 831.747,840.102 840.433,772.61 849.12,704.17 857.807,636.517 866.493,571.364 870.302,544.012 874.111,517.594 877.92,492.237 
  881.728,468.065 885.537,445.197 889.346,423.744 893.155,403.811 896.963,385.495 900.772,368.885 904.581,354.062 908.389,341.099 912.198,330.059 916.007,320.995 
  919.816,313.953 923.624,308.966 927.433,306.059 929.509,305.355 931.586,305.275 933.662,305.819 935.738,306.985 937.814,308.772 939.891,311.178 941.967,314.199 
  944.043,317.83 946.119,322.067 948.196,326.903 950.272,332.331 952.348,338.343 954.424,344.931 956.501,352.085 958.577,359.795 960.653,368.049 964.806,386.143 
  968.958,406.26 973.111,428.285 977.263,452.091 981.416,477.538 985.568,504.479 989.721,532.759 993.873,562.212 1002.23,624.329 1010.58,689.044 1018.94,754.842 
  1027.29,820.179 1031.47,852.195 1035.65,883.525 1039.82,913.984 1044,943.394 1048.18,971.583 1052.35,998.384 1056.53,1023.64 1060.71,1047.21 1063.02,1059.46 
  1065.33,1071.12 1067.64,1082.19 1069.95,1092.63 1072.25,1102.43 1074.56,1111.57 1076.87,1120.04 1079.18,1127.82 1081.49,1134.89 1083.8,1141.25 1086.11,1146.87 
  1088.42,1151.76 1090.73,1155.9 1093.04,1159.29 1095.35,1161.92 1097.66,1163.78 1099.97,1164.87 1102.27,1165.19 1104.58,1164.74 1106.89,1163.52 1109.2,1161.53 
  1111.51,1158.77 1113.82,1155.26 1116.13,1150.99 1118.44,1145.98 1120.75,1140.23 1123.06,1133.75 1125.37,1126.56 1127.68,1118.66 1129.99,1110.08 1132.29,1100.83 
  1134.6,1090.91 1136.8,1080.89 1139,1070.31 1141.2,1059.18 1143.39,1047.53 1147.79,1022.72 1152.18,996.038 1156.58,967.667 1160.97,937.786 1165.36,906.589 
  1169.76,874.28 1178.55,807.168 1187.34,738.189 1196.12,669.134 1204.91,601.792 1209.48,568.041 1214.05,535.465 1218.62,504.29 1223.19,474.737 1227.76,447.012 
  1232.33,421.311 1234.61,409.276 1236.9,397.813 1239.18,386.943 1241.47,376.684 1243.75,367.055 1246.03,358.072 1248.32,349.752 1250.6,342.108 1252.89,335.154 
  1255.17,328.903 1257.46,323.366 1259.74,318.551 1262.03,314.468 1264.31,311.124 1266.6,308.524 1268.88,306.674 1271.16,305.576 1273.45,305.233 1275.73,305.644 
  1278.02,306.81 1279.94,308.375 1281.86,310.47 1283.79,313.095 1285.71,316.244 1289.56,324.102 1293.4,334.006 1297.25,345.906 1301.1,359.742 1304.94,375.447 
  1308.79,392.942 1312.63,412.14 1316.48,432.946 1320.33,455.255 1324.17,478.958 1328.02,503.935 1331.86,530.063 1335.71,557.212 1339.56,585.246 1348.95,656.545 
  1358.34,730.173 1367.73,803.95 1377.12,875.693 1381.82,910.133 1386.51,943.276 1391.21,974.877 1395.91,1004.7 1398.25,1018.88 1400.6,1032.53 1402.95,1045.62 
  1405.3,1058.15 1407.65,1070.07 1409.99,1081.37 1412.34,1092.03 1414.69,1102.03 1416.84,1110.59 1418.99,1118.57 1421.14,1125.96 1423.29,1132.73 1425.44,1138.88 
  1427.59,1144.41 1429.74,1149.3 1431.9,1153.55 1434.05,1157.14 1436.2,1160.08 1438.35,1162.36 1440.5,1163.97 1442.65,1164.91 1444.8,1165.19 1446.95,1164.8 
  1449.1,1163.73 1451.25,1162.01 1453.4,1159.61 1455.55,1156.56 1457.71,1152.85 1459.86,1148.49 1462.01,1143.49 1464.16,1137.85 1466.31,1131.59 1468.46,1124.7 
  1470.61,1117.22 1472.76,1109.13 1474.91,1100.47 1479.21,1081.45 1483.52,1060.28 1487.49,1038.92 1491.46,1015.95 1495.43,991.495 1499.41,965.677 1503.38,938.634 
  1507.35,910.512 1511.33,881.46 1515.3,851.631 1531.19,727.762 1547.08,604.522 1551.11,574.665 1555.13,545.683 1559.15,517.734 1563.18,490.969 1567.2,465.534 
  1571.23,441.569 1575.25,419.203 1579.28,398.558 1583.3,379.747 1587.32,362.872 1591.35,348.026 1595.37,335.288 1597.39,329.732 1599.4,324.729 1601.41,320.285 
  1603.42,316.406 1605.43,313.097 1607.45,310.364 1609.46,308.209 1611.47,306.636 1613.73,305.567 1615.98,305.233 1618.24,305.634 1620.49,306.771 1622.75,308.641 
  1625,311.24 1627.26,314.565 1629.51,318.61 1631.77,323.367 1634.02,328.829 1636.28,334.986 1638.53,341.828 1640.79,349.343 1643.04,357.519 1645.3,366.34 
  1647.55,375.793 1649.81,385.86 1652.06,396.526 1654.32,407.77 1656.57,419.575 1661.08,444.784 1665.59,471.98 1670.1,500.976 1674.61,531.575 1679.12,563.566 
  1683.63,596.732 1691.81,659.093 1699.98,723.162 1708.16,787.501 1716.33,850.666 1720.42,881.364 1724.5,911.241 1728.59,940.13 1732.68,967.866 1736.77,994.296 
  1740.85,1019.27 1744.94,1042.65 1749.03,1064.3 1751.37,1075.87 1753.71,1086.81 1756.05,1097.11 1758.39,1106.74 1760.73,1115.68 1763.06,1123.93 1765.4,1131.45 
  1767.74,1138.25 1770.08,1144.31 1772.42,1149.61 1774.76,1154.15 1777.1,1157.92 1779.44,1160.91 1781.78,1163.11 1784.12,1164.53 1786.46,1165.16 1788.8,1164.99 
  1791.14,1164.04 1793.48,1162.29 1795.82,1159.76 1798.16,1156.44 1800.5,1152.35 1802.84,1147.49 1805.18,1141.88 1807.52,1135.51 1809.86,1128.41 1812.2,1120.58 
  1814.54,1112.04 1816.88,1102.81 1819.22,1092.9 1821.56,1082.33 1823.9,1071.13 1828.23,1048.76 1832.56,1024.41 1836.89,998.234 1841.23,970.399 1845.56,941.079 
  1849.89,910.459 1854.22,878.733 1858.56,846.101 1867.22,778.948 1875.89,710.691 1884.55,643.053 1893.22,577.739 1897.49,546.904 1901.76,517.225 1906.03,488.884 
  1910.3,462.054 1914.58,436.901 1918.85,413.577 1923.12,392.228 1927.39,372.983 1929.53,364.187 1931.66,355.96 1933.8,348.316 1935.93,341.265 1938.07,334.819 
  1940.2,328.987 1942.34,323.778 1944.48,319.201 1946.61,315.263 1948.75,311.969 1950.88,309.324 1953.02,307.333 1955.15,305.999 1957.29,305.323 1959.43,305.307 
  1961.56,305.95 1963.64,307.206 1965.71,309.08 1967.78,311.571 1969.86,314.675 1971.93,318.387 1974,322.702 1976.08,327.614 1978.15,333.115 1980.22,339.199 
  1982.3,345.855 1984.37,353.074 1986.44,360.846 1990.59,378.004 1994.74,397.227 1998.89,418.406 2003.03,441.417 2007.18,466.127 2011.33,492.394 2015.48,520.066 
  2019.62,548.982 2023.77,578.975 2027.92,609.873 2036.42,675.287 2044.92,742.155 2053.43,808.855 2061.93,873.768 2066.18,905.058 2070.43,935.316 2074.68,964.358 
  2078.93,992.007 2083.19,1018.09 2087.44,1042.46 2091.69,1064.96 2095.94,1085.46 2098.27,1095.79 2100.6,1105.47 2102.93,1114.47 2105.26,1122.77 2107.59,1130.37 
  2109.91,1137.25 2112.24,1143.4 2114.57,1148.8 2116.9,1153.44 2119.23,1157.32 2121.56,1160.44 2123.89,1162.77 2126.22,1164.33 2128.55,1165.1 2130.88,1165.09 
  2133.2,1164.29 2135.53,1162.71 2137.86,1160.35 2140.19,1157.22 2142.52,1153.31 2144.85,1148.64 2147.18,1143.22 2149.51,1137.05 2151.84,1130.15 2154.17,1122.53 
  2156.49,1114.2 2158.82,1105.18 2161.15,1095.49 2163.48,1085.14 2165.81,1074.15 2168.14,1062.54 2170.47,1050.33 2173.85,1031.58 2177.23,1011.69 2180.62,990.734 
  2184,968.794 2187.38,945.955 2190.77,922.305 2194.15,897.934 2197.53,872.937 2204.3,821.45 2211.07,768.636 2217.83,715.308 2224.6,662.287 2231.37,610.387 
  2238.13,560.408 2241.52,536.38 2244.9,513.118 2248.28,490.711 2251.67,469.245 2255.05,448.804 2258.43,429.465 2261.82,411.303 2265.2,394.389 2268.58,378.786 
  2271.96,364.556 2275.35,351.753 2278.73,340.427 2281.51,332.266 2284.28,325.149 2287.06,319.097 2289.84,314.123 2292.61,310.241 2295.39,307.46 2298.17,305.79 
  2300.94,305.232 
  "/>
<path clip-path="url(#clip470)" d="
M1872.64 248.629 L2280.8 248.629 L2280.8 93.1086 L1872.64 93.1086  Z
  " fill="#ffffff" fill-rule="evenodd" fill-opacity="1"/>
<polyline clip-path="url(#clip470)" style="stroke:#000000; stroke-linecap:butt; stroke-linejoin:round; stroke-width:4; stroke-opacity:1; fill:none" points="
  1872.64,248.629 2280.8,248.629 2280.8,93.1086 1872.64,93.1086 1872.64,248.629 
  "/>
<polyline clip-path="url(#clip470)" style="stroke:#ff0000; stroke-linecap:butt; stroke-linejoin:round; stroke-width:4; stroke-opacity:1; fill:none" points="
  1896.63,144.949 2040.55,144.949 
  "/>
<circle clip-path="url(#clip470)" cx="1968.59" cy="144.949" r="23" fill="#ff0000" fill-rule="evenodd" fill-opacity="1" stroke="#000000" stroke-opacity="1" stroke-width="2.56"/>
<path clip-path="url(#clip470)" d="M2085.04 137.298 L2085.04 141.28 Q2083.24 140.284 2081.41 139.798 Q2079.6 139.289 2077.75 139.289 Q2073.61 139.289 2071.32 141.928 Q2069.03 144.544 2069.03 149.289 Q2069.03 154.034 2071.32 156.673 Q2073.61 159.289 2077.75 159.289 Q2079.6 159.289 2081.41 158.803 Q2083.24 158.293 2085.04 157.298 L2085.04 161.233 Q2083.26 162.067 2081.34 162.483 Q2079.44 162.9 2077.29 162.9 Q2071.43 162.9 2067.98 159.219 Q2064.54 155.539 2064.54 149.289 Q2064.54 142.946 2068.01 139.312 Q2071.5 135.678 2077.57 135.678 Q2079.54 135.678 2081.41 136.095 Q2083.29 136.488 2085.04 137.298 Z" fill="#000000" fill-rule="evenodd" fill-opacity="1" /><path clip-path="url(#clip470)" d="M2102.5 139.289 Q2099.07 139.289 2097.08 141.974 Q2095.09 144.636 2095.09 149.289 Q2095.09 153.942 2097.06 156.627 Q2099.05 159.289 2102.5 159.289 Q2105.9 159.289 2107.89 156.604 Q2109.88 153.918 2109.88 149.289 Q2109.88 144.682 2107.89 141.997 Q2105.9 139.289 2102.5 139.289 M2102.5 135.678 Q2108.05 135.678 2111.22 139.289 Q2114.4 142.9 2114.4 149.289 Q2114.4 155.655 2111.22 159.289 Q2108.05 162.9 2102.5 162.9 Q2096.92 162.9 2093.75 159.289 Q2090.6 155.655 2090.6 149.289 Q2090.6 142.9 2093.75 139.289 Q2096.92 135.678 2102.5 135.678 Z" fill="#000000" fill-rule="evenodd" fill-opacity="1" /><path clip-path="url(#clip470)" d="M2137.98 137.067 L2137.98 141.094 Q2136.18 140.169 2134.23 139.706 Q2132.29 139.243 2130.21 139.243 Q2127.03 139.243 2125.44 140.215 Q2123.86 141.187 2123.86 143.131 Q2123.86 144.613 2125 145.469 Q2126.13 146.303 2129.56 147.067 L2131.02 147.391 Q2135.55 148.363 2137.45 150.145 Q2139.37 151.905 2139.37 155.076 Q2139.37 158.687 2136.5 160.793 Q2133.66 162.9 2128.66 162.9 Q2126.57 162.9 2124.3 162.483 Q2122.06 162.09 2119.56 161.28 L2119.56 156.881 Q2121.92 158.108 2124.21 158.733 Q2126.5 159.335 2128.75 159.335 Q2131.76 159.335 2133.38 158.317 Q2135 157.275 2135 155.4 Q2135 153.664 2133.82 152.738 Q2132.66 151.812 2128.7 150.956 L2127.22 150.608 Q2123.26 149.775 2121.5 148.062 Q2119.74 146.326 2119.74 143.317 Q2119.74 139.659 2122.34 137.669 Q2124.93 135.678 2129.7 135.678 Q2132.06 135.678 2134.14 136.025 Q2136.22 136.372 2137.98 137.067 Z" fill="#000000" fill-rule="evenodd" fill-opacity="1" /><path clip-path="url(#clip470)" d="M2156.39 126.257 Q2153.28 131.581 2151.78 136.789 Q2150.28 141.997 2150.28 147.344 Q2150.28 152.692 2151.78 157.946 Q2153.31 163.178 2156.39 168.479 L2152.68 168.479 Q2149.21 163.039 2147.47 157.784 Q2145.76 152.53 2145.76 147.344 Q2145.76 142.182 2147.47 136.951 Q2149.19 131.72 2152.68 126.257 L2156.39 126.257 Z" fill="#000000" fill-rule="evenodd" fill-opacity="1" /><path clip-path="url(#clip470)" d="M2178.1 131.743 L2166.29 150.192 L2178.1 150.192 L2178.1 131.743 M2176.87 127.669 L2182.75 127.669 L2182.75 150.192 L2187.68 150.192 L2187.68 154.081 L2182.75 154.081 L2182.75 162.229 L2178.1 162.229 L2178.1 154.081 L2162.5 154.081 L2162.5 149.567 L2176.87 127.669 Z" fill="#000000" fill-rule="evenodd" fill-opacity="1" /><path clip-path="url(#clip470)" d="M2216.36 136.303 L2206.99 148.919 L2216.85 162.229 L2211.83 162.229 L2204.28 152.043 L2196.73 162.229 L2191.71 162.229 L2201.78 148.664 L2192.57 136.303 L2197.59 136.303 L2204.47 145.539 L2211.34 136.303 L2216.36 136.303 Z" fill="#000000" fill-rule="evenodd" fill-opacity="1" /><path clip-path="url(#clip470)" d="M2222.2 126.257 L2225.9 126.257 Q2229.37 131.72 2231.09 136.951 Q2232.82 142.182 2232.82 147.344 Q2232.82 152.53 2231.09 157.784 Q2229.37 163.039 2225.9 168.479 L2222.2 168.479 Q2225.28 163.178 2226.78 157.946 Q2228.31 152.692 2228.31 147.344 Q2228.31 141.997 2226.78 136.789 Q2225.28 131.581 2222.2 126.257 Z" fill="#000000" fill-rule="evenodd" fill-opacity="1" /><polyline clip-path="url(#clip470)" style="stroke:#0000ff; stroke-linecap:butt; stroke-linejoin:round; stroke-width:4; stroke-opacity:0.8; fill:none" points="
  1896.63,196.789 2040.55,196.789 
  "/>
<path clip-path="url(#clip470)" d="M1968.59 171.189 L1962.57 188.494 L1944.24 188.878 L1958.86 199.963 L1953.53 217.499 L1968.59 207.029 L1983.64 217.499 L1978.32 199.963 L1992.93 188.878 L1974.6 188.494 L1968.59 171.189 Z" fill="#0000ff" fill-rule="evenodd" fill-opacity="0.8" stroke="#000000" stroke-opacity="0.8" stroke-width="2.40941"/>
<path clip-path="url(#clip470)" d="M2085.04 189.138 L2085.04 193.12 Q2083.24 192.124 2081.41 191.638 Q2079.6 191.129 2077.75 191.129 Q2073.61 191.129 2071.32 193.768 Q2069.03 196.384 2069.03 201.129 Q2069.03 205.874 2071.32 208.513 Q2073.61 211.129 2077.75 211.129 Q2079.6 211.129 2081.41 210.643 Q2083.24 210.133 2085.04 209.138 L2085.04 213.073 Q2083.26 213.907 2081.34 214.323 Q2079.44 214.74 2077.29 214.74 Q2071.43 214.74 2067.98 211.059 Q2064.54 207.379 2064.54 201.129 Q2064.54 194.786 2068.01 191.152 Q2071.5 187.518 2077.57 187.518 Q2079.54 187.518 2081.41 187.935 Q2083.29 188.328 2085.04 189.138 Z" fill="#000000" fill-rule="evenodd" fill-opacity="1" /><path clip-path="url(#clip470)" d="M2102.5 191.129 Q2099.07 191.129 2097.08 193.814 Q2095.09 196.476 2095.09 201.129 Q2095.09 205.782 2097.06 208.467 Q2099.05 211.129 2102.5 211.129 Q2105.9 211.129 2107.89 208.444 Q2109.88 205.758 2109.88 201.129 Q2109.88 196.522 2107.89 193.837 Q2105.9 191.129 2102.5 191.129 M2102.5 187.518 Q2108.05 187.518 2111.22 191.129 Q2114.4 194.74 2114.4 201.129 Q2114.4 207.495 2111.22 211.129 Q2108.05 214.74 2102.5 214.74 Q2096.92 214.74 2093.75 211.129 Q2090.6 207.495 2090.6 201.129 Q2090.6 194.74 2093.75 191.129 Q2096.92 187.518 2102.5 187.518 Z" fill="#000000" fill-rule="evenodd" fill-opacity="1" /><path clip-path="url(#clip470)" d="M2137.98 188.907 L2137.98 192.934 Q2136.18 192.009 2134.23 191.546 Q2132.29 191.083 2130.21 191.083 Q2127.03 191.083 2125.44 192.055 Q2123.86 193.027 2123.86 194.971 Q2123.86 196.453 2125 197.309 Q2126.13 198.143 2129.56 198.907 L2131.02 199.231 Q2135.55 200.203 2137.45 201.985 Q2139.37 203.745 2139.37 206.916 Q2139.37 210.527 2136.5 212.633 Q2133.66 214.74 2128.66 214.74 Q2126.57 214.74 2124.3 214.323 Q2122.06 213.93 2119.56 213.12 L2119.56 208.721 Q2121.92 209.948 2124.21 210.573 Q2126.5 211.175 2128.75 211.175 Q2131.76 211.175 2133.38 210.157 Q2135 209.115 2135 207.24 Q2135 205.504 2133.82 204.578 Q2132.66 203.652 2128.7 202.796 L2127.22 202.448 Q2123.26 201.615 2121.5 199.902 Q2119.74 198.166 2119.74 195.157 Q2119.74 191.499 2122.34 189.509 Q2124.93 187.518 2129.7 187.518 Q2132.06 187.518 2134.14 187.865 Q2136.22 188.212 2137.98 188.907 Z" fill="#000000" fill-rule="evenodd" fill-opacity="1" /><path clip-path="url(#clip470)" d="M2156.39 178.097 Q2153.28 183.421 2151.78 188.629 Q2150.28 193.837 2150.28 199.184 Q2150.28 204.532 2151.78 209.786 Q2153.31 215.018 2156.39 220.319 L2152.68 220.319 Q2149.21 214.879 2147.47 209.624 Q2145.76 204.37 2145.76 199.184 Q2145.76 194.022 2147.47 188.791 Q2149.19 183.56 2152.68 178.097 L2156.39 178.097 Z" fill="#000000" fill-rule="evenodd" fill-opacity="1" /><path clip-path="url(#clip470)" d="M2175.83 194.925 Q2172.68 194.925 2170.83 197.078 Q2169 199.231 2169 202.981 Q2169 206.708 2170.83 208.883 Q2172.68 211.036 2175.83 211.036 Q2178.98 211.036 2180.81 208.883 Q2182.66 206.708 2182.66 202.981 Q2182.66 199.231 2180.81 197.078 Q2178.98 194.925 2175.83 194.925 M2185.11 180.273 L2185.11 184.532 Q2183.35 183.698 2181.55 183.259 Q2179.77 182.819 2178.01 182.819 Q2173.38 182.819 2170.92 185.944 Q2168.49 189.069 2168.15 195.388 Q2169.51 193.374 2171.57 192.309 Q2173.63 191.222 2176.11 191.222 Q2181.32 191.222 2184.33 194.393 Q2187.36 197.541 2187.36 202.981 Q2187.36 208.305 2184.21 211.522 Q2181.06 214.74 2175.83 214.74 Q2169.84 214.74 2166.66 210.157 Q2163.49 205.55 2163.49 196.823 Q2163.49 188.629 2167.38 183.768 Q2171.27 178.884 2177.82 178.884 Q2179.58 178.884 2181.36 179.231 Q2183.17 179.578 2185.11 180.273 Z" fill="#000000" fill-rule="evenodd" fill-opacity="1" /><path clip-path="url(#clip470)" d="M2216.36 188.143 L2206.99 200.759 L2216.85 214.069 L2211.83 214.069 L2204.28 203.883 L2196.73 214.069 L2191.71 214.069 L2201.78 200.504 L2192.57 188.143 L2197.59 188.143 L2204.47 197.379 L2211.34 188.143 L2216.36 188.143 Z" fill="#000000" fill-rule="evenodd" fill-opacity="1" /><path clip-path="url(#clip470)" d="M2222.2 178.097 L2225.9 178.097 Q2229.37 183.56 2231.09 188.791 Q2232.82 194.022 2232.82 199.184 Q2232.82 204.37 2231.09 209.624 Q2229.37 214.879 2225.9 220.319 L2222.2 220.319 Q2225.28 215.018 2226.78 209.786 Q2228.31 204.532 2228.31 199.184 Q2228.31 193.837 2226.78 188.629 Q2225.28 183.421 2222.2 178.097 Z" fill="#000000" fill-rule="evenodd" fill-opacity="1" /></svg>
