<?xml version="1.0" encoding="utf-8"?>
<svg xmlns="http://www.w3.org/2000/svg" xmlns:xlink="http://www.w3.org/1999/xlink" width="600" height="400" viewBox="0 0 2400 1600">
<defs>
  <clipPath id="clip590">
    <rect x="0" y="0" width="2400" height="1600"/>
  </clipPath>
</defs>
<path clip-path="url(#clip590)" d="
M0 1600 L2400 1600 L2400 0 L0 0  Z
  " fill="#ffffff" fill-rule="evenodd" fill-opacity="1"/>
<defs>
  <clipPath id="clip591">
    <rect x="480" y="0" width="1681" height="1600"/>
  </clipPath>
</defs>
<path clip-path="url(#clip590)" d="
M149.191 1423.18 L2352.76 1423.18 L2352.76 47.2441 L149.191 47.2441  Z
  " fill="#ffffff" fill-rule="evenodd" fill-opacity="1"/>
<defs>
  <clipPath id="clip592">
    <rect x="149" y="47" width="2205" height="1377"/>
  </clipPath>
</defs>
<polyline clip-path="url(#clip592)" style="stroke:#000000; stroke-linecap:butt; stroke-linejoin:round; stroke-width:2; stroke-opacity:0.1; fill:none" points="
  259.146,1423.18 259.146,47.2441 
  "/>
<polyline clip-path="url(#clip592)" style="stroke:#000000; stroke-linecap:butt; stroke-linejoin:round; stroke-width:2; stroke-opacity:0.1; fill:none" points="
  595.255,1423.18 595.255,47.2441 
  "/>
<polyline clip-path="url(#clip592)" style="stroke:#000000; stroke-linecap:butt; stroke-linejoin:round; stroke-width:2; stroke-opacity:0.1; fill:none" points="
  931.364,1423.18 931.364,47.2441 
  "/>
<polyline clip-path="url(#clip592)" style="stroke:#000000; stroke-linecap:butt; stroke-linejoin:round; stroke-width:2; stroke-opacity:0.1; fill:none" points="
  1267.47,1423.18 1267.47,47.2441 
  "/>
<polyline clip-path="url(#clip592)" style="stroke:#000000; stroke-linecap:butt; stroke-linejoin:round; stroke-width:2; stroke-opacity:0.1; fill:none" points="
  1603.58,1423.18 1603.58,47.2441 
  "/>
<polyline clip-path="url(#clip592)" style="stroke:#000000; stroke-linecap:butt; stroke-linejoin:round; stroke-width:2; stroke-opacity:0.1; fill:none" points="
  1939.69,1423.18 1939.69,47.2441 
  "/>
<polyline clip-path="url(#clip592)" style="stroke:#000000; stroke-linecap:butt; stroke-linejoin:round; stroke-width:2; stroke-opacity:0.1; fill:none" points="
  2275.8,1423.18 2275.8,47.2441 
  "/>
<polyline clip-path="url(#clip590)" style="stroke:#000000; stroke-linecap:butt; stroke-linejoin:round; stroke-width:4; stroke-opacity:1; fill:none" points="
  149.191,1423.18 2352.76,1423.18 
  "/>
<polyline clip-path="url(#clip590)" style="stroke:#000000; stroke-linecap:butt; stroke-linejoin:round; stroke-width:4; stroke-opacity:1; fill:none" points="
  259.146,1423.18 259.146,1404.28 
  "/>
<polyline clip-path="url(#clip590)" style="stroke:#000000; stroke-linecap:butt; stroke-linejoin:round; stroke-width:4; stroke-opacity:1; fill:none" points="
  595.255,1423.18 595.255,1404.28 
  "/>
<polyline clip-path="url(#clip590)" style="stroke:#000000; stroke-linecap:butt; stroke-linejoin:round; stroke-width:4; stroke-opacity:1; fill:none" points="
  931.364,1423.18 931.364,1404.28 
  "/>
<polyline clip-path="url(#clip590)" style="stroke:#000000; stroke-linecap:butt; stroke-linejoin:round; stroke-width:4; stroke-opacity:1; fill:none" points="
  1267.47,1423.18 1267.47,1404.28 
  "/>
<polyline clip-path="url(#clip590)" style="stroke:#000000; stroke-linecap:butt; stroke-linejoin:round; stroke-width:4; stroke-opacity:1; fill:none" points="
  1603.58,1423.18 1603.58,1404.28 
  "/>
<polyline clip-path="url(#clip590)" style="stroke:#000000; stroke-linecap:butt; stroke-linejoin:round; stroke-width:4; stroke-opacity:1; fill:none" points="
  1939.69,1423.18 1939.69,1404.28 
  "/>
<polyline clip-path="url(#clip590)" style="stroke:#000000; stroke-linecap:butt; stroke-linejoin:round; stroke-width:4; stroke-opacity:1; fill:none" points="
  2275.8,1423.18 2275.8,1404.28 
  "/>
<path clip-path="url(#clip590)" d="M228.614 1468.75 L258.29 1468.75 L258.29 1472.69 L228.614 1472.69 L228.614 1468.75 Z" fill="#000000" fill-rule="evenodd" fill-opacity="1" /><path clip-path="url(#clip590)" d="M282.549 1466.95 Q285.906 1467.66 287.781 1469.93 Q289.679 1472.2 289.679 1475.53 Q289.679 1480.65 286.16 1483.45 Q282.642 1486.25 276.16 1486.25 Q273.984 1486.25 271.669 1485.81 Q269.378 1485.39 266.924 1484.54 L266.924 1480.02 Q268.869 1481.16 271.183 1481.74 Q273.498 1482.32 276.021 1482.32 Q280.419 1482.32 282.711 1480.58 Q285.026 1478.84 285.026 1475.53 Q285.026 1472.48 282.873 1470.77 Q280.744 1469.03 276.924 1469.03 L272.896 1469.03 L272.896 1465.19 L277.109 1465.19 Q280.558 1465.19 282.387 1463.82 Q284.216 1462.43 284.216 1459.84 Q284.216 1457.18 282.318 1455.77 Q280.443 1454.33 276.924 1454.33 Q275.003 1454.33 272.804 1454.75 Q270.605 1455.16 267.966 1456.04 L267.966 1451.88 Q270.628 1451.14 272.943 1450.77 Q275.281 1450.39 277.341 1450.39 Q282.665 1450.39 285.767 1452.83 Q288.868 1455.23 288.868 1459.35 Q288.868 1462.22 287.225 1464.21 Q285.581 1466.18 282.549 1466.95 Z" fill="#000000" fill-rule="evenodd" fill-opacity="1" /><path clip-path="url(#clip590)" d="M565.197 1468.75 L594.873 1468.75 L594.873 1472.69 L565.197 1472.69 L565.197 1468.75 Z" fill="#000000" fill-rule="evenodd" fill-opacity="1" /><path clip-path="url(#clip590)" d="M608.993 1481.64 L625.313 1481.64 L625.313 1485.58 L603.368 1485.58 L603.368 1481.64 Q606.03 1478.89 610.614 1474.26 Q615.22 1469.61 616.401 1468.27 Q618.646 1465.74 619.526 1464.01 Q620.428 1462.25 620.428 1460.56 Q620.428 1457.8 618.484 1456.07 Q616.563 1454.33 613.461 1454.33 Q611.262 1454.33 608.808 1455.09 Q606.378 1455.86 603.6 1457.41 L603.6 1452.69 Q606.424 1451.55 608.878 1450.97 Q611.331 1450.39 613.368 1450.39 Q618.739 1450.39 621.933 1453.08 Q625.127 1455.77 625.127 1460.26 Q625.127 1462.39 624.317 1464.31 Q623.53 1466.2 621.424 1468.8 Q620.845 1469.47 617.743 1472.69 Q614.641 1475.88 608.993 1481.64 Z" fill="#000000" fill-rule="evenodd" fill-opacity="1" /><path clip-path="url(#clip590)" d="M901.121 1468.75 L930.796 1468.75 L930.796 1472.69 L901.121 1472.69 L901.121 1468.75 Z" fill="#000000" fill-rule="evenodd" fill-opacity="1" /><path clip-path="url(#clip590)" d="M941.699 1481.64 L949.338 1481.64 L949.338 1455.28 L941.028 1456.95 L941.028 1452.69 L949.292 1451.02 L953.968 1451.02 L953.968 1481.64 L961.606 1481.64 L961.606 1485.58 L941.699 1485.58 L941.699 1481.64 Z" fill="#000000" fill-rule="evenodd" fill-opacity="1" /><path clip-path="url(#clip590)" d="M1267.47 1454.1 Q1263.86 1454.1 1262.03 1457.66 Q1260.23 1461.2 1260.23 1468.33 Q1260.23 1475.44 1262.03 1479.01 Q1263.86 1482.55 1267.47 1482.55 Q1271.11 1482.55 1272.91 1479.01 Q1274.74 1475.44 1274.74 1468.33 Q1274.74 1461.2 1272.91 1457.66 Q1271.11 1454.1 1267.47 1454.1 M1267.47 1450.39 Q1273.28 1450.39 1276.34 1455 Q1279.42 1459.58 1279.42 1468.33 Q1279.42 1477.06 1276.34 1481.67 Q1273.28 1486.25 1267.47 1486.25 Q1261.66 1486.25 1258.58 1481.67 Q1255.53 1477.06 1255.53 1468.33 Q1255.53 1459.58 1258.58 1455 Q1261.66 1450.39 1267.47 1450.39 Z" fill="#000000" fill-rule="evenodd" fill-opacity="1" /><path clip-path="url(#clip590)" d="M1593.96 1481.64 L1601.6 1481.64 L1601.6 1455.28 L1593.29 1456.95 L1593.29 1452.69 L1601.56 1451.02 L1606.23 1451.02 L1606.23 1481.64 L1613.87 1481.64 L1613.87 1485.58 L1593.96 1485.58 L1593.96 1481.64 Z" fill="#000000" fill-rule="evenodd" fill-opacity="1" /><path clip-path="url(#clip590)" d="M1934.34 1481.64 L1950.66 1481.64 L1950.66 1485.58 L1928.72 1485.58 L1928.72 1481.64 Q1931.38 1478.89 1935.96 1474.26 Q1940.57 1469.61 1941.75 1468.27 Q1943.99 1465.74 1944.87 1464.01 Q1945.78 1462.25 1945.78 1460.56 Q1945.78 1457.8 1943.83 1456.07 Q1941.91 1454.33 1938.81 1454.33 Q1936.61 1454.33 1934.16 1455.09 Q1931.73 1455.86 1928.95 1457.41 L1928.95 1452.69 Q1931.77 1451.55 1934.23 1450.97 Q1936.68 1450.39 1938.72 1450.39 Q1944.09 1450.39 1947.28 1453.08 Q1950.48 1455.77 1950.48 1460.26 Q1950.48 1462.39 1949.67 1464.31 Q1948.88 1466.2 1946.77 1468.8 Q1946.19 1469.47 1943.09 1472.69 Q1939.99 1475.88 1934.34 1481.64 Z" fill="#000000" fill-rule="evenodd" fill-opacity="1" /><path clip-path="url(#clip590)" d="M2280.05 1466.95 Q2283.4 1467.66 2285.28 1469.93 Q2287.17 1472.2 2287.17 1475.53 Q2287.17 1480.65 2283.66 1483.45 Q2280.14 1486.25 2273.66 1486.25 Q2271.48 1486.25 2269.17 1485.81 Q2266.87 1485.39 2264.42 1484.54 L2264.42 1480.02 Q2266.36 1481.16 2268.68 1481.74 Q2270.99 1482.32 2273.52 1482.32 Q2277.92 1482.32 2280.21 1480.58 Q2282.52 1478.84 2282.52 1475.53 Q2282.52 1472.48 2280.37 1470.77 Q2278.24 1469.03 2274.42 1469.03 L2270.39 1469.03 L2270.39 1465.19 L2274.61 1465.19 Q2278.05 1465.19 2279.88 1463.82 Q2281.71 1462.43 2281.71 1459.84 Q2281.71 1457.18 2279.81 1455.77 Q2277.94 1454.33 2274.42 1454.33 Q2272.5 1454.33 2270.3 1454.75 Q2268.1 1455.16 2265.46 1456.04 L2265.46 1451.88 Q2268.12 1451.14 2270.44 1450.77 Q2272.78 1450.39 2274.84 1450.39 Q2280.16 1450.39 2283.26 1452.83 Q2286.36 1455.23 2286.36 1459.35 Q2286.36 1462.22 2284.72 1464.21 Q2283.08 1466.18 2280.05 1466.95 Z" fill="#000000" fill-rule="evenodd" fill-opacity="1" /><path clip-path="url(#clip590)" d="M1267.59 1532.4 L1254.7 1549.74 L1268.26 1568.04 L1261.35 1568.04 L1250.97 1554.04 L1240.6 1568.04 L1233.69 1568.04 L1247.54 1549.39 L1234.87 1532.4 L1241.77 1532.4 L1251.23 1545.1 L1260.68 1532.4 L1267.59 1532.4 Z" fill="#000000" fill-rule="evenodd" fill-opacity="1" /><polyline clip-path="url(#clip592)" style="stroke:#000000; stroke-linecap:butt; stroke-linejoin:round; stroke-width:2; stroke-opacity:0.1; fill:none" points="
  149.191,1309.21 2352.76,1309.21 
  "/>
<polyline clip-path="url(#clip592)" style="stroke:#000000; stroke-linecap:butt; stroke-linejoin:round; stroke-width:2; stroke-opacity:0.1; fill:none" points="
  149.191,1009.12 2352.76,1009.12 
  "/>
<polyline clip-path="url(#clip592)" style="stroke:#000000; stroke-linecap:butt; stroke-linejoin:round; stroke-width:2; stroke-opacity:0.1; fill:none" points="
  149.191,709.021 2352.76,709.021 
  "/>
<polyline clip-path="url(#clip592)" style="stroke:#000000; stroke-linecap:butt; stroke-linejoin:round; stroke-width:2; stroke-opacity:0.1; fill:none" points="
  149.191,408.925 2352.76,408.925 
  "/>
<polyline clip-path="url(#clip592)" style="stroke:#000000; stroke-linecap:butt; stroke-linejoin:round; stroke-width:2; stroke-opacity:0.1; fill:none" points="
  149.191,108.828 2352.76,108.828 
  "/>
<polyline clip-path="url(#clip590)" style="stroke:#000000; stroke-linecap:butt; stroke-linejoin:round; stroke-width:4; stroke-opacity:1; fill:none" points="
  149.191,1423.18 149.191,47.2441 
  "/>
<polyline clip-path="url(#clip590)" style="stroke:#000000; stroke-linecap:butt; stroke-linejoin:round; stroke-width:4; stroke-opacity:1; fill:none" points="
  149.191,1309.21 168.089,1309.21 
  "/>
<polyline clip-path="url(#clip590)" style="stroke:#000000; stroke-linecap:butt; stroke-linejoin:round; stroke-width:4; stroke-opacity:1; fill:none" points="
  149.191,1009.12 168.089,1009.12 
  "/>
<polyline clip-path="url(#clip590)" style="stroke:#000000; stroke-linecap:butt; stroke-linejoin:round; stroke-width:4; stroke-opacity:1; fill:none" points="
  149.191,709.021 168.089,709.021 
  "/>
<polyline clip-path="url(#clip590)" style="stroke:#000000; stroke-linecap:butt; stroke-linejoin:round; stroke-width:4; stroke-opacity:1; fill:none" points="
  149.191,408.925 168.089,408.925 
  "/>
<polyline clip-path="url(#clip590)" style="stroke:#000000; stroke-linecap:butt; stroke-linejoin:round; stroke-width:4; stroke-opacity:1; fill:none" points="
  149.191,108.828 168.089,108.828 
  "/>
<path clip-path="url(#clip590)" d="M50.9921 1309.67 L80.6679 1309.67 L80.6679 1313.6 L50.9921 1313.6 L50.9921 1309.67 Z" fill="#000000" fill-rule="evenodd" fill-opacity="1" /><path clip-path="url(#clip590)" d="M103.608 1296.01 L91.8021 1314.46 L103.608 1314.46 L103.608 1296.01 M102.381 1291.93 L108.26 1291.93 L108.26 1314.46 L113.191 1314.46 L113.191 1318.35 L108.26 1318.35 L108.26 1326.49 L103.608 1326.49 L103.608 1318.35 L88.0058 1318.35 L88.0058 1313.83 L102.381 1291.93 Z" fill="#000000" fill-rule="evenodd" fill-opacity="1" /><path clip-path="url(#clip590)" d="M53.0754 1009.57 L82.7512 1009.57 L82.7512 1013.5 L53.0754 1013.5 L53.0754 1009.57 Z" fill="#000000" fill-rule="evenodd" fill-opacity="1" /><path clip-path="url(#clip590)" d="M96.8715 1022.46 L113.191 1022.46 L113.191 1026.4 L91.2465 1026.4 L91.2465 1022.46 Q93.9086 1019.71 98.4919 1015.08 Q103.098 1010.43 104.279 1009.08 Q106.524 1006.56 107.404 1004.82 Q108.307 1003.06 108.307 1001.37 Q108.307 998.62 106.362 996.884 Q104.441 995.148 101.339 995.148 Q99.14 995.148 96.6863 995.912 Q94.2558 996.676 91.478 998.226 L91.478 993.504 Q94.3021 992.37 96.7558 991.791 Q99.2095 991.213 101.246 991.213 Q106.617 991.213 109.811 993.898 Q113.006 996.583 113.006 1001.07 Q113.006 1003.2 112.196 1005.12 Q111.408 1007.02 109.302 1009.62 Q108.723 1010.29 105.621 1013.5 Q102.52 1016.7 96.8715 1022.46 Z" fill="#000000" fill-rule="evenodd" fill-opacity="1" /><path clip-path="url(#clip590)" d="M101.246 694.82 Q97.6354 694.82 95.8067 698.385 Q94.0012 701.926 94.0012 709.056 Q94.0012 716.162 95.8067 719.727 Q97.6354 723.269 101.246 723.269 Q104.881 723.269 106.686 719.727 Q108.515 716.162 108.515 709.056 Q108.515 701.926 106.686 698.385 Q104.881 694.82 101.246 694.82 M101.246 691.116 Q107.057 691.116 110.112 695.723 Q113.191 700.306 113.191 709.056 Q113.191 717.783 110.112 722.389 Q107.057 726.972 101.246 726.972 Q95.4363 726.972 92.3576 722.389 Q89.3021 717.783 89.3021 709.056 Q89.3021 700.306 92.3576 695.723 Q95.4363 691.116 101.246 691.116 Z" fill="#000000" fill-rule="evenodd" fill-opacity="1" /><path clip-path="url(#clip590)" d="M96.8715 422.269 L113.191 422.269 L113.191 426.205 L91.2465 426.205 L91.2465 422.269 Q93.9086 419.515 98.4919 414.885 Q103.098 410.232 104.279 408.89 Q106.524 406.367 107.404 404.631 Q108.307 402.871 108.307 401.182 Q108.307 398.427 106.362 396.691 Q104.441 394.955 101.339 394.955 Q99.14 394.955 96.6863 395.719 Q94.2558 396.483 91.478 398.033 L91.478 393.311 Q94.3021 392.177 96.7558 391.598 Q99.2095 391.02 101.246 391.02 Q106.617 391.02 109.811 393.705 Q113.006 396.39 113.006 400.881 Q113.006 403.01 112.196 404.932 Q111.408 406.83 109.302 409.422 Q108.723 410.094 105.621 413.311 Q102.52 416.506 96.8715 422.269 Z" fill="#000000" fill-rule="evenodd" fill-opacity="1" /><path clip-path="url(#clip590)" d="M103.608 95.6222 L91.8021 114.071 L103.608 114.071 L103.608 95.6222 M102.381 91.5481 L108.26 91.5481 L108.26 114.071 L113.191 114.071 L113.191 117.96 L108.26 117.96 L108.26 126.108 L103.608 126.108 L103.608 117.96 L88.0058 117.96 L88.0058 113.446 L102.381 91.5481 Z" fill="#000000" fill-rule="evenodd" fill-opacity="1" /><polyline clip-path="url(#clip592)" style="stroke:#009af9; stroke-linecap:butt; stroke-linejoin:round; stroke-width:12; stroke-opacity:1; fill:none" points="
  211.556,784.045 244.553,745.914 277.551,693.281 310.548,633.012 343.545,574.21 376.543,526.266 409.54,496.812 442.538,490.062 475.535,505.923 508.532,540.078 
  541.53,585.031 574.527,631.855 607.524,672.234 640.522,700.322 673.519,713.98 706.517,715.114 739.514,709.021 772.511,702.928 805.509,704.062 838.506,717.721 
  871.504,745.808 904.501,786.187 937.498,833.011 970.496,877.965 1003.49,912.119 1036.49,927.98 1069.49,921.23 1102.49,891.776 1135.48,843.832 1168.48,785.03 
  1201.48,724.761 1234.47,672.129 1267.47,633.997 1300.47,613.583 1333.47,609.919 1366.46,618.305 1399.46,631.631 1432.46,642.255 1465.46,643.977 1498.45,633.65 
  1531.45,612.023 1564.45,583.634 1597.45,555.758 1630.44,536.666 1663.44,533.608 1696.44,550.996 1729.44,589.22 1762.43,644.382 1795.43,709.021 1828.43,773.66 
  1861.42,828.822 1894.42,867.046 1927.42,884.435 1960.42,881.376 1993.41,862.284 2026.41,834.408 2059.41,806.019 2092.41,784.393 2125.4,774.065 2158.4,775.787 
  2191.4,786.411 2224.4,799.737 2257.39,808.123 2290.39,804.459 
  "/>
<polyline clip-path="url(#clip592)" style="stroke:#e26f46; stroke-linecap:butt; stroke-linejoin:round; stroke-width:12; stroke-opacity:1; fill:none" points="
  211.556,408.925 244.553,237.86 277.551,119.867 310.548,86.1857 343.545,150.255 376.543,304.322 409.54,520.997 442.538,759.367 475.535,974.271 508.532,1126.54 
  541.53,1191.78 574.527,1165.72 607.524,1064.77 640.522,921.774 673.519,777.868 706.517,672.524 739.514,633.997 772.511,672.524 805.509,777.868 838.506,921.774 
  871.504,1064.77 904.501,1165.72 937.498,1191.78 970.496,1126.54 1003.49,974.271 1036.49,759.367 1069.49,520.997 1102.49,304.322 1135.48,150.255 1168.48,86.1857 
  1201.48,119.867 1234.47,237.86 1267.47,408.925 1300.47,591.522 1333.47,743.67 1366.46,832.814 1399.46,843.387 1432.46,780.27 1465.46,667.362 1498.45,541.583 
  1531.45,443.771 1564.45,408.599 1597.45,455.95 1630.44,585.774 1663.44,777.669 1696.44,995.311 1729.44,1194.68 1762.43,1334.18 1795.43,1384.24 1828.43,1334.18 
  1861.42,1194.68 1894.42,995.311 1927.42,777.669 1960.42,585.774 1993.41,455.95 2026.41,408.599 2059.41,443.771 2092.41,541.583 2125.4,667.362 2158.4,780.27 
  2191.4,843.387 2224.4,832.814 2257.39,743.67 2290.39,591.522 
  "/>
<path clip-path="url(#clip590)" d="
M1915.11 248.629 L2279.3 248.629 L2279.3 93.1086 L1915.11 93.1086  Z
  " fill="#ffffff" fill-rule="evenodd" fill-opacity="1"/>
<polyline clip-path="url(#clip590)" style="stroke:#000000; stroke-linecap:butt; stroke-linejoin:round; stroke-width:4; stroke-opacity:1; fill:none" points="
  1915.11,248.629 2279.3,248.629 2279.3,93.1086 1915.11,93.1086 1915.11,248.629 
  "/>
<polyline clip-path="url(#clip590)" style="stroke:#009af9; stroke-linecap:butt; stroke-linejoin:round; stroke-width:4; stroke-opacity:1; fill:none" points="
  1939.6,144.949 2086.5,144.949 
  "/>
<path clip-path="url(#clip590)" d="M2110.98 151.997 L2110.98 136.303 L2115.24 136.303 L2115.24 151.835 Q2115.24 155.516 2116.68 157.368 Q2118.11 159.196 2120.98 159.196 Q2124.43 159.196 2126.42 156.997 Q2128.44 154.798 2128.44 151.002 L2128.44 136.303 L2132.7 136.303 L2132.7 162.229 L2128.44 162.229 L2128.44 158.247 Q2126.89 160.608 2124.83 161.766 Q2122.79 162.9 2120.08 162.9 Q2115.61 162.9 2113.3 160.122 Q2110.98 157.344 2110.98 151.997 M2121.7 135.678 L2121.7 135.678 Z" fill="#000000" fill-rule="evenodd" fill-opacity="1" /><polyline clip-path="url(#clip590)" style="stroke:#e26f46; stroke-linecap:butt; stroke-linejoin:round; stroke-width:4; stroke-opacity:1; fill:none" points="
  1939.6,196.789 2086.5,196.789 
  "/>
<path clip-path="url(#clip590)" d="M2118.9 214.74 Q2115.64 214.74 2113.51 212.772 Q2110.98 210.434 2110.98 206.198 Q2110.98 201.8 2113.21 198.374 Q2115.5 194.856 2119.62 194.856 Q2122.33 194.856 2124.46 196.546 Q2125.71 197.541 2126.56 199.208 Q2126.86 197.333 2126.86 195.203 Q2126.86 192.078 2126.12 190.272 Q2124.48 186.268 2120.13 186.268 Q2118.48 186.268 2115.94 187.286 L2115.94 183.397 Q2118.62 182.68 2121.03 182.68 Q2127.23 182.68 2129.87 188.374 Q2131.1 191.059 2131.1 195.064 Q2131.1 197.68 2130.52 200.712 Q2129.06 208.305 2125.29 211.916 Q2122.33 214.74 2118.9 214.74 M2114.94 206.893 Q2114.94 209.208 2115.96 210.458 Q2117.05 211.777 2118.72 211.777 Q2120.2 211.777 2121.38 210.735 Q2123.04 209.3 2124.27 206.962 Q2125.29 205.041 2125.8 202.981 Q2123.74 198.004 2120.17 198.004 Q2117.12 198.004 2115.78 202.032 Q2114.94 204.532 2114.94 206.893 Z" fill="#000000" fill-rule="evenodd" fill-opacity="1" /><path clip-path="url(#clip590)" d="M2137.33 203.837 L2137.33 188.143 L2141.59 188.143 L2141.59 203.675 Q2141.59 207.356 2143.02 209.208 Q2144.46 211.036 2147.33 211.036 Q2150.78 211.036 2152.77 208.837 Q2154.78 206.638 2154.78 202.842 L2154.78 188.143 L2159.04 188.143 L2159.04 214.069 L2154.78 214.069 L2154.78 210.087 Q2153.23 212.448 2151.17 213.606 Q2149.13 214.74 2146.42 214.74 Q2141.96 214.74 2139.64 211.962 Q2137.33 209.184 2137.33 203.837 M2148.04 187.518 L2148.04 187.518 Z" fill="#000000" fill-rule="evenodd" fill-opacity="1" /><path clip-path="url(#clip590)" d="M2175.38 179.509 L2179.32 179.509 L2167.28 218.467 L2163.35 218.467 L2175.38 179.509 Z" fill="#000000" fill-rule="evenodd" fill-opacity="1" /><path clip-path="url(#clip590)" d="M2189.43 214.74 Q2186.17 214.74 2184.04 212.772 Q2181.52 210.434 2181.52 206.198 Q2181.52 201.8 2183.74 198.374 Q2186.03 194.856 2190.15 194.856 Q2192.86 194.856 2194.99 196.546 Q2196.24 197.541 2197.1 199.208 Q2197.4 197.333 2197.4 195.203 Q2197.4 192.078 2196.66 190.272 Q2195.01 186.268 2190.66 186.268 Q2189.02 186.268 2186.47 187.286 L2186.47 183.397 Q2189.16 182.68 2191.56 182.68 Q2197.77 182.68 2200.41 188.374 Q2201.63 191.059 2201.63 195.064 Q2201.63 197.68 2201.05 200.712 Q2199.6 208.305 2195.82 211.916 Q2192.86 214.74 2189.43 214.74 M2185.47 206.893 Q2185.47 209.208 2186.49 210.458 Q2187.58 211.777 2189.25 211.777 Q2190.73 211.777 2191.91 210.735 Q2193.58 209.3 2194.8 206.962 Q2195.82 205.041 2196.33 202.981 Q2194.27 198.004 2190.71 198.004 Q2187.65 198.004 2186.31 202.032 Q2185.47 204.532 2185.47 206.893 Z" fill="#000000" fill-rule="evenodd" fill-opacity="1" /><path clip-path="url(#clip590)" d="M2229.85 188.143 L2220.47 200.759 L2230.34 214.069 L2225.31 214.069 L2217.77 203.883 L2210.22 214.069 L2205.2 214.069 L2215.27 200.504 L2206.05 188.143 L2211.08 188.143 L2217.95 197.379 L2224.83 188.143 L2229.85 188.143 Z" fill="#000000" fill-rule="evenodd" fill-opacity="1" /></svg>
