<?xml version="1.0" encoding="utf-8"?>
<svg xmlns="http://www.w3.org/2000/svg" xmlns:xlink="http://www.w3.org/1999/xlink" width="600" height="400" viewBox="0 0 2400 1600">
<defs>
  <clipPath id="clip860">
    <rect x="0" y="0" width="2400" height="1600"/>
  </clipPath>
</defs>
<path clip-path="url(#clip860)" d="
M0 1600 L2400 1600 L2400 0 L0 0  Z
  " fill="#ffffff" fill-rule="evenodd" fill-opacity="1"/>
<defs>
  <clipPath id="clip861">
    <rect x="480" y="0" width="1681" height="1600"/>
  </clipPath>
</defs>
<path clip-path="url(#clip860)" d="
M156.274 1423.18 L2352.76 1423.18 L2352.76 47.2441 L156.274 47.2441  Z
  " fill="#ffffff" fill-rule="evenodd" fill-opacity="1"/>
<defs>
  <clipPath id="clip862">
    <rect x="156" y="47" width="2197" height="1377"/>
  </clipPath>
</defs>
<polyline clip-path="url(#clip862)" style="stroke:#000000; stroke-linecap:butt; stroke-linejoin:round; stroke-width:2; stroke-opacity:0.1; fill:none" points="
  218.439,1423.18 218.439,47.2441 
  "/>
<polyline clip-path="url(#clip862)" style="stroke:#000000; stroke-linecap:butt; stroke-linejoin:round; stroke-width:2; stroke-opacity:0.1; fill:none" points="
  736.477,1423.18 736.477,47.2441 
  "/>
<polyline clip-path="url(#clip862)" style="stroke:#000000; stroke-linecap:butt; stroke-linejoin:round; stroke-width:2; stroke-opacity:0.1; fill:none" points="
  1254.52,1423.18 1254.52,47.2441 
  "/>
<polyline clip-path="url(#clip862)" style="stroke:#000000; stroke-linecap:butt; stroke-linejoin:round; stroke-width:2; stroke-opacity:0.1; fill:none" points="
  1772.55,1423.18 1772.55,47.2441 
  "/>
<polyline clip-path="url(#clip862)" style="stroke:#000000; stroke-linecap:butt; stroke-linejoin:round; stroke-width:2; stroke-opacity:0.1; fill:none" points="
  2290.59,1423.18 2290.59,47.2441 
  "/>
<polyline clip-path="url(#clip860)" style="stroke:#000000; stroke-linecap:butt; stroke-linejoin:round; stroke-width:4; stroke-opacity:1; fill:none" points="
  156.274,1423.18 2352.76,1423.18 
  "/>
<polyline clip-path="url(#clip860)" style="stroke:#000000; stroke-linecap:butt; stroke-linejoin:round; stroke-width:4; stroke-opacity:1; fill:none" points="
  218.439,1423.18 218.439,1404.28 
  "/>
<polyline clip-path="url(#clip860)" style="stroke:#000000; stroke-linecap:butt; stroke-linejoin:round; stroke-width:4; stroke-opacity:1; fill:none" points="
  736.477,1423.18 736.477,1404.28 
  "/>
<polyline clip-path="url(#clip860)" style="stroke:#000000; stroke-linecap:butt; stroke-linejoin:round; stroke-width:4; stroke-opacity:1; fill:none" points="
  1254.52,1423.18 1254.52,1404.28 
  "/>
<polyline clip-path="url(#clip860)" style="stroke:#000000; stroke-linecap:butt; stroke-linejoin:round; stroke-width:4; stroke-opacity:1; fill:none" points="
  1772.55,1423.18 1772.55,1404.28 
  "/>
<polyline clip-path="url(#clip860)" style="stroke:#000000; stroke-linecap:butt; stroke-linejoin:round; stroke-width:4; stroke-opacity:1; fill:none" points="
  2290.59,1423.18 2290.59,1404.28 
  "/>
<path clip-path="url(#clip860)" d="M218.439 1454.1 Q214.828 1454.1 212.999 1457.66 Q211.193 1461.2 211.193 1468.33 Q211.193 1475.44 212.999 1479.01 Q214.828 1482.55 218.439 1482.55 Q222.073 1482.55 223.879 1479.01 Q225.707 1475.44 225.707 1468.33 Q225.707 1461.2 223.879 1457.66 Q222.073 1454.1 218.439 1454.1 M218.439 1450.39 Q224.249 1450.39 227.304 1455 Q230.383 1459.58 230.383 1468.33 Q230.383 1477.06 227.304 1481.67 Q224.249 1486.25 218.439 1486.25 Q212.629 1486.25 209.55 1481.67 Q206.494 1477.06 206.494 1468.33 Q206.494 1459.58 209.55 1455 Q212.629 1450.39 218.439 1450.39 Z" fill="#000000" fill-rule="evenodd" fill-opacity="1" /><path clip-path="url(#clip860)" d="M726.859 1481.64 L734.498 1481.64 L734.498 1455.28 L726.188 1456.95 L726.188 1452.69 L734.451 1451.02 L739.127 1451.02 L739.127 1481.64 L746.766 1481.64 L746.766 1485.58 L726.859 1485.58 L726.859 1481.64 Z" fill="#000000" fill-rule="evenodd" fill-opacity="1" /><path clip-path="url(#clip860)" d="M1249.17 1481.64 L1265.49 1481.64 L1265.49 1485.58 L1243.54 1485.58 L1243.54 1481.64 Q1246.2 1478.89 1250.79 1474.26 Q1255.39 1469.61 1256.58 1468.27 Q1258.82 1465.74 1259.7 1464.01 Q1260.6 1462.25 1260.6 1460.56 Q1260.6 1457.8 1258.66 1456.07 Q1256.74 1454.33 1253.64 1454.33 Q1251.44 1454.33 1248.98 1455.09 Q1246.55 1455.86 1243.77 1457.41 L1243.77 1452.69 Q1246.6 1451.55 1249.05 1450.97 Q1251.51 1450.39 1253.54 1450.39 Q1258.91 1450.39 1262.11 1453.08 Q1265.3 1455.77 1265.3 1460.26 Q1265.3 1462.39 1264.49 1464.31 Q1263.7 1466.2 1261.6 1468.8 Q1261.02 1469.47 1257.92 1472.69 Q1254.82 1475.88 1249.17 1481.64 Z" fill="#000000" fill-rule="evenodd" fill-opacity="1" /><path clip-path="url(#clip860)" d="M1776.8 1466.95 Q1780.16 1467.66 1782.03 1469.93 Q1783.93 1472.2 1783.93 1475.53 Q1783.93 1480.65 1780.41 1483.45 Q1776.89 1486.25 1770.41 1486.25 Q1768.24 1486.25 1765.92 1485.81 Q1763.63 1485.39 1761.18 1484.54 L1761.18 1480.02 Q1763.12 1481.16 1765.44 1481.74 Q1767.75 1482.32 1770.27 1482.32 Q1774.67 1482.32 1776.96 1480.58 Q1779.28 1478.84 1779.28 1475.53 Q1779.28 1472.48 1777.12 1470.77 Q1775 1469.03 1771.18 1469.03 L1767.15 1469.03 L1767.15 1465.19 L1771.36 1465.19 Q1774.81 1465.19 1776.64 1463.82 Q1778.47 1462.43 1778.47 1459.84 Q1778.47 1457.18 1776.57 1455.77 Q1774.69 1454.33 1771.18 1454.33 Q1769.25 1454.33 1767.06 1454.75 Q1764.86 1455.16 1762.22 1456.04 L1762.22 1451.88 Q1764.88 1451.14 1767.19 1450.77 Q1769.53 1450.39 1771.59 1450.39 Q1776.92 1450.39 1780.02 1452.83 Q1783.12 1455.23 1783.12 1459.35 Q1783.12 1462.22 1781.48 1464.21 Q1779.83 1466.18 1776.8 1466.95 Z" fill="#000000" fill-rule="evenodd" fill-opacity="1" /><path clip-path="url(#clip860)" d="M2293.6 1455.09 L2281.8 1473.54 L2293.6 1473.54 L2293.6 1455.09 M2292.37 1451.02 L2298.25 1451.02 L2298.25 1473.54 L2303.18 1473.54 L2303.18 1477.43 L2298.25 1477.43 L2298.25 1485.58 L2293.6 1485.58 L2293.6 1477.43 L2278 1477.43 L2278 1472.92 L2292.37 1451.02 Z" fill="#000000" fill-rule="evenodd" fill-opacity="1" /><path clip-path="url(#clip860)" d="M1253.58 1522.27 L1253.58 1532.4 L1265.64 1532.4 L1265.64 1536.95 L1253.58 1536.95 L1253.58 1556.3 Q1253.58 1560.66 1254.75 1561.9 Q1255.96 1563.14 1259.62 1563.14 L1265.64 1563.14 L1265.64 1568.04 L1259.62 1568.04 Q1252.84 1568.04 1250.27 1565.53 Q1247.69 1562.98 1247.69 1556.3 L1247.69 1536.95 L1243.39 1536.95 L1243.39 1532.4 L1247.69 1532.4 L1247.69 1522.27 L1253.58 1522.27 Z" fill="#000000" fill-rule="evenodd" fill-opacity="1" /><polyline clip-path="url(#clip862)" style="stroke:#000000; stroke-linecap:butt; stroke-linejoin:round; stroke-width:2; stroke-opacity:0.1; fill:none" points="
  156.274,1264.03 2352.76,1264.03 
  "/>
<polyline clip-path="url(#clip862)" style="stroke:#000000; stroke-linecap:butt; stroke-linejoin:round; stroke-width:2; stroke-opacity:0.1; fill:none" points="
  156.274,1028.46 2352.76,1028.46 
  "/>
<polyline clip-path="url(#clip862)" style="stroke:#000000; stroke-linecap:butt; stroke-linejoin:round; stroke-width:2; stroke-opacity:0.1; fill:none" points="
  156.274,792.89 2352.76,792.89 
  "/>
<polyline clip-path="url(#clip862)" style="stroke:#000000; stroke-linecap:butt; stroke-linejoin:round; stroke-width:2; stroke-opacity:0.1; fill:none" points="
  156.274,557.322 2352.76,557.322 
  "/>
<polyline clip-path="url(#clip862)" style="stroke:#000000; stroke-linecap:butt; stroke-linejoin:round; stroke-width:2; stroke-opacity:0.1; fill:none" points="
  156.274,321.754 2352.76,321.754 
  "/>
<polyline clip-path="url(#clip862)" style="stroke:#000000; stroke-linecap:butt; stroke-linejoin:round; stroke-width:2; stroke-opacity:0.1; fill:none" points="
  156.274,86.1857 2352.76,86.1857 
  "/>
<polyline clip-path="url(#clip860)" style="stroke:#000000; stroke-linecap:butt; stroke-linejoin:round; stroke-width:4; stroke-opacity:1; fill:none" points="
  156.274,1423.18 156.274,47.2441 
  "/>
<polyline clip-path="url(#clip860)" style="stroke:#000000; stroke-linecap:butt; stroke-linejoin:round; stroke-width:4; stroke-opacity:1; fill:none" points="
  156.274,1264.03 175.172,1264.03 
  "/>
<polyline clip-path="url(#clip860)" style="stroke:#000000; stroke-linecap:butt; stroke-linejoin:round; stroke-width:4; stroke-opacity:1; fill:none" points="
  156.274,1028.46 175.172,1028.46 
  "/>
<polyline clip-path="url(#clip860)" style="stroke:#000000; stroke-linecap:butt; stroke-linejoin:round; stroke-width:4; stroke-opacity:1; fill:none" points="
  156.274,792.89 175.172,792.89 
  "/>
<polyline clip-path="url(#clip860)" style="stroke:#000000; stroke-linecap:butt; stroke-linejoin:round; stroke-width:4; stroke-opacity:1; fill:none" points="
  156.274,557.322 175.172,557.322 
  "/>
<polyline clip-path="url(#clip860)" style="stroke:#000000; stroke-linecap:butt; stroke-linejoin:round; stroke-width:4; stroke-opacity:1; fill:none" points="
  156.274,321.754 175.172,321.754 
  "/>
<polyline clip-path="url(#clip860)" style="stroke:#000000; stroke-linecap:butt; stroke-linejoin:round; stroke-width:4; stroke-opacity:1; fill:none" points="
  156.274,86.1857 175.172,86.1857 
  "/>
<path clip-path="url(#clip860)" d="M64.0939 1249.82 Q60.4828 1249.82 58.6541 1253.39 Q56.8486 1256.93 56.8486 1264.06 Q56.8486 1271.17 58.6541 1274.73 Q60.4828 1278.27 64.0939 1278.27 Q67.7281 1278.27 69.5337 1274.73 Q71.3624 1271.17 71.3624 1264.06 Q71.3624 1256.93 69.5337 1253.39 Q67.7281 1249.82 64.0939 1249.82 M64.0939 1246.12 Q69.9041 1246.12 72.9596 1250.73 Q76.0383 1255.31 76.0383 1264.06 Q76.0383 1272.79 72.9596 1277.39 Q69.9041 1281.98 64.0939 1281.98 Q58.2838 1281.98 55.2051 1277.39 Q52.1495 1272.79 52.1495 1264.06 Q52.1495 1255.31 55.2051 1250.73 Q58.2838 1246.12 64.0939 1246.12 Z" fill="#000000" fill-rule="evenodd" fill-opacity="1" /><path clip-path="url(#clip860)" d="M84.2558 1275.43 L89.1401 1275.43 L89.1401 1281.31 L84.2558 1281.31 L84.2558 1275.43 Z" fill="#000000" fill-rule="evenodd" fill-opacity="1" /><path clip-path="url(#clip860)" d="M99.3715 1246.75 L117.728 1246.75 L117.728 1250.68 L103.654 1250.68 L103.654 1259.15 Q104.672 1258.81 105.691 1258.64 Q106.709 1258.46 107.728 1258.46 Q113.515 1258.46 116.895 1261.63 Q120.274 1264.8 120.274 1270.22 Q120.274 1275.8 116.802 1278.9 Q113.33 1281.98 107.01 1281.98 Q104.834 1281.98 102.566 1281.61 Q100.321 1281.24 97.9132 1280.5 L97.9132 1275.8 Q99.9965 1276.93 102.219 1277.49 Q104.441 1278.04 106.918 1278.04 Q110.922 1278.04 113.26 1275.94 Q115.598 1273.83 115.598 1270.22 Q115.598 1266.61 113.26 1264.5 Q110.922 1262.39 106.918 1262.39 Q105.043 1262.39 103.168 1262.81 Q101.316 1263.23 99.3715 1264.11 L99.3715 1246.75 Z" fill="#000000" fill-rule="evenodd" fill-opacity="1" /><path clip-path="url(#clip860)" d="M62.9365 1014.26 Q59.3254 1014.26 57.4967 1017.82 Q55.6912 1021.36 55.6912 1028.49 Q55.6912 1035.6 57.4967 1039.16 Q59.3254 1042.71 62.9365 1042.71 Q66.5707 1042.71 68.3763 1039.16 Q70.205 1035.6 70.205 1028.49 Q70.205 1021.36 68.3763 1017.82 Q66.5707 1014.26 62.9365 1014.26 M62.9365 1010.55 Q68.7467 1010.55 71.8022 1015.16 Q74.8809 1019.74 74.8809 1028.49 Q74.8809 1037.22 71.8022 1041.83 Q68.7467 1046.41 62.9365 1046.41 Q57.1264 1046.41 54.0477 1041.83 Q50.9921 1037.22 50.9921 1028.49 Q50.9921 1019.74 54.0477 1015.16 Q57.1264 1010.55 62.9365 1010.55 Z" fill="#000000" fill-rule="evenodd" fill-opacity="1" /><path clip-path="url(#clip860)" d="M83.0984 1039.86 L87.9827 1039.86 L87.9827 1045.74 L83.0984 1045.74 L83.0984 1039.86 Z" fill="#000000" fill-rule="evenodd" fill-opacity="1" /><path clip-path="url(#clip860)" d="M108.746 1026.59 Q105.598 1026.59 103.746 1028.75 Q101.918 1030.9 101.918 1034.65 Q101.918 1038.38 103.746 1040.55 Q105.598 1042.71 108.746 1042.71 Q111.895 1042.71 113.723 1040.55 Q115.575 1038.38 115.575 1034.65 Q115.575 1030.9 113.723 1028.75 Q111.895 1026.59 108.746 1026.59 M118.029 1011.94 L118.029 1016.2 Q116.27 1015.37 114.464 1014.93 Q112.682 1014.49 110.922 1014.49 Q106.293 1014.49 103.839 1017.61 Q101.409 1020.74 101.061 1027.06 Q102.427 1025.04 104.487 1023.98 Q106.547 1022.89 109.024 1022.89 Q114.233 1022.89 117.242 1026.06 Q120.274 1029.21 120.274 1034.65 Q120.274 1039.97 117.126 1043.19 Q113.978 1046.41 108.746 1046.41 Q102.751 1046.41 99.5798 1041.83 Q96.4085 1037.22 96.4085 1028.49 Q96.4085 1020.3 100.297 1015.44 Q104.186 1010.55 110.737 1010.55 Q112.496 1010.55 114.279 1010.9 Q116.084 1011.25 118.029 1011.94 Z" fill="#000000" fill-rule="evenodd" fill-opacity="1" /><path clip-path="url(#clip860)" d="M64.0013 778.689 Q60.3902 778.689 58.5615 782.253 Q56.756 785.795 56.756 792.925 Q56.756 800.031 58.5615 803.596 Q60.3902 807.137 64.0013 807.137 Q67.6356 807.137 69.4411 803.596 Q71.2698 800.031 71.2698 792.925 Q71.2698 785.795 69.4411 782.253 Q67.6356 778.689 64.0013 778.689 M64.0013 774.985 Q69.8115 774.985 72.867 779.591 Q75.9457 784.175 75.9457 792.925 Q75.9457 801.651 72.867 806.258 Q69.8115 810.841 64.0013 810.841 Q58.1912 810.841 55.1125 806.258 Q52.0569 801.651 52.0569 792.925 Q52.0569 784.175 55.1125 779.591 Q58.1912 774.985 64.0013 774.985 Z" fill="#000000" fill-rule="evenodd" fill-opacity="1" /><path clip-path="url(#clip860)" d="M84.1632 804.29 L89.0475 804.29 L89.0475 810.17 L84.1632 810.17 L84.1632 804.29 Z" fill="#000000" fill-rule="evenodd" fill-opacity="1" /><path clip-path="url(#clip860)" d="M98.0521 775.61 L120.274 775.61 L120.274 777.601 L107.728 810.17 L102.844 810.17 L114.649 779.545 L98.0521 779.545 L98.0521 775.61 Z" fill="#000000" fill-rule="evenodd" fill-opacity="1" /><path clip-path="url(#clip860)" d="M63.1911 543.12 Q59.58 543.12 57.7513 546.685 Q55.9458 550.227 55.9458 557.356 Q55.9458 564.463 57.7513 568.028 Q59.58 571.569 63.1911 571.569 Q66.8254 571.569 68.6309 568.028 Q70.4596 564.463 70.4596 557.356 Q70.4596 550.227 68.6309 546.685 Q66.8254 543.12 63.1911 543.12 M63.1911 539.417 Q69.0013 539.417 72.0568 544.023 Q75.1355 548.607 75.1355 557.356 Q75.1355 566.083 72.0568 570.69 Q69.0013 575.273 63.1911 575.273 Q57.381 575.273 54.3023 570.69 Q51.2468 566.083 51.2468 557.356 Q51.2468 548.607 54.3023 544.023 Q57.381 539.417 63.1911 539.417 Z" fill="#000000" fill-rule="evenodd" fill-opacity="1" /><path clip-path="url(#clip860)" d="M83.3531 568.722 L88.2373 568.722 L88.2373 574.602 L83.3531 574.602 L83.3531 568.722 Z" fill="#000000" fill-rule="evenodd" fill-opacity="1" /><path clip-path="url(#clip860)" d="M108.422 558.19 Q105.089 558.19 103.168 559.972 Q101.27 561.755 101.27 564.88 Q101.27 568.005 103.168 569.787 Q105.089 571.569 108.422 571.569 Q111.756 571.569 113.677 569.787 Q115.598 567.981 115.598 564.88 Q115.598 561.755 113.677 559.972 Q111.779 558.19 108.422 558.19 M103.746 556.199 Q100.737 555.458 99.0474 553.398 Q97.3808 551.338 97.3808 548.375 Q97.3808 544.232 100.321 541.824 Q103.284 539.417 108.422 539.417 Q113.584 539.417 116.524 541.824 Q119.464 544.232 119.464 548.375 Q119.464 551.338 117.774 553.398 Q116.108 555.458 113.121 556.199 Q116.501 556.986 118.376 559.278 Q120.274 561.569 120.274 564.88 Q120.274 569.903 117.195 572.588 Q114.14 575.273 108.422 575.273 Q102.705 575.273 99.6261 572.588 Q96.5706 569.903 96.5706 564.88 Q96.5706 561.569 98.4687 559.278 Q100.367 556.986 103.746 556.199 M102.034 548.815 Q102.034 551.5 103.7 553.005 Q105.39 554.509 108.422 554.509 Q111.432 554.509 113.121 553.005 Q114.834 551.5 114.834 548.815 Q114.834 546.13 113.121 544.625 Q111.432 543.12 108.422 543.12 Q105.39 543.12 103.7 544.625 Q102.034 546.13 102.034 548.815 Z" fill="#000000" fill-rule="evenodd" fill-opacity="1" /><path clip-path="url(#clip860)" d="M63.2837 307.552 Q59.6726 307.552 57.8439 311.117 Q56.0384 314.659 56.0384 321.788 Q56.0384 328.895 57.8439 332.46 Q59.6726 336.001 63.2837 336.001 Q66.918 336.001 68.7235 332.46 Q70.5522 328.895 70.5522 321.788 Q70.5522 314.659 68.7235 311.117 Q66.918 307.552 63.2837 307.552 M63.2837 303.849 Q69.0939 303.849 72.1494 308.455 Q75.2281 313.038 75.2281 321.788 Q75.2281 330.515 72.1494 335.122 Q69.0939 339.705 63.2837 339.705 Q57.4736 339.705 54.3949 335.122 Q51.3393 330.515 51.3393 321.788 Q51.3393 313.038 54.3949 308.455 Q57.4736 303.849 63.2837 303.849 Z" fill="#000000" fill-rule="evenodd" fill-opacity="1" /><path clip-path="url(#clip860)" d="M83.4457 333.154 L88.3299 333.154 L88.3299 339.034 L83.4457 339.034 L83.4457 333.154 Z" fill="#000000" fill-rule="evenodd" fill-opacity="1" /><path clip-path="url(#clip860)" d="M98.6539 338.316 L98.6539 334.057 Q100.413 334.89 102.219 335.33 Q104.024 335.77 105.76 335.77 Q110.39 335.77 112.82 332.668 Q115.274 329.543 115.621 323.2 Q114.279 325.191 112.219 326.256 Q110.158 327.321 107.658 327.321 Q102.473 327.321 99.4409 324.196 Q96.4317 321.048 96.4317 315.608 Q96.4317 310.284 99.5798 307.066 Q102.728 303.849 107.959 303.849 Q113.955 303.849 117.103 308.455 Q120.274 313.038 120.274 321.788 Q120.274 329.96 116.385 334.844 Q112.52 339.705 105.969 339.705 Q104.209 339.705 102.404 339.358 Q100.598 339.011 98.6539 338.316 M107.959 323.663 Q111.108 323.663 112.936 321.511 Q114.788 319.358 114.788 315.608 Q114.788 311.881 112.936 309.728 Q111.108 307.552 107.959 307.552 Q104.811 307.552 102.959 309.728 Q101.131 311.881 101.131 315.608 Q101.131 319.358 102.959 321.511 Q104.811 323.663 107.959 323.663 Z" fill="#000000" fill-rule="evenodd" fill-opacity="1" /><path clip-path="url(#clip860)" d="M53.9088 99.5305 L61.5476 99.5305 L61.5476 73.1649 L53.2375 74.8316 L53.2375 70.5723 L61.5013 68.9057 L66.1772 68.9057 L66.1772 99.5305 L73.8161 99.5305 L73.8161 103.466 L53.9088 103.466 L53.9088 99.5305 Z" fill="#000000" fill-rule="evenodd" fill-opacity="1" /><path clip-path="url(#clip860)" d="M83.2605 97.5861 L88.1447 97.5861 L88.1447 103.466 L83.2605 103.466 L83.2605 97.5861 Z" fill="#000000" fill-rule="evenodd" fill-opacity="1" /><path clip-path="url(#clip860)" d="M108.33 71.9844 Q104.719 71.9844 102.89 75.5492 Q101.084 79.0908 101.084 86.2204 Q101.084 93.3268 102.89 96.8916 Q104.719 100.433 108.33 100.433 Q111.964 100.433 113.77 96.8916 Q115.598 93.3268 115.598 86.2204 Q115.598 79.0908 113.77 75.5492 Q111.964 71.9844 108.33 71.9844 M108.33 68.2807 Q114.14 68.2807 117.195 72.8871 Q120.274 77.4704 120.274 86.2204 Q120.274 94.9472 117.195 99.5537 Q114.14 104.137 108.33 104.137 Q102.52 104.137 99.4409 99.5537 Q96.3854 94.9472 96.3854 86.2204 Q96.3854 77.4704 99.4409 72.8871 Q102.52 68.2807 108.33 68.2807 Z" fill="#000000" fill-rule="evenodd" fill-opacity="1" /><polyline clip-path="url(#clip862)" style="stroke:#009af9; stroke-linecap:butt; stroke-linejoin:round; stroke-width:12; stroke-opacity:1; fill:none" points="
  218.439,86.1857 270.243,132.878 322.046,178.644 373.85,223.503 425.654,267.473 477.458,310.572 529.262,352.816 581.065,394.223 632.869,434.809 684.673,474.591 
  736.477,513.584 788.281,551.805 840.085,589.268 891.888,625.988 943.692,661.98 995.496,697.259 1047.3,731.839 1099.1,765.733 1150.91,798.956 1202.71,831.52 
  1254.52,863.439 1306.32,894.725 1358.12,925.39 1409.93,955.448 1461.73,984.911 1513.53,1013.79 1565.34,1042.09 1617.14,1069.84 1668.95,1097.03 1720.75,1123.69 
  1772.55,1149.82 1824.36,1175.43 1876.16,1200.53 1927.96,1225.13 1979.77,1249.25 2031.57,1272.89 2083.38,1296.06 2135.18,1318.77 2186.98,1341.03 2238.79,1362.85 
  2290.59,1384.24 
  "/>
<path clip-path="url(#clip860)" d="
M1874.33 196.789 L2279.54 196.789 L2279.54 93.1086 L1874.33 93.1086  Z
  " fill="#ffffff" fill-rule="evenodd" fill-opacity="1"/>
<polyline clip-path="url(#clip860)" style="stroke:#000000; stroke-linecap:butt; stroke-linejoin:round; stroke-width:4; stroke-opacity:1; fill:none" points="
  1874.33,196.789 2279.54,196.789 2279.54,93.1086 1874.33,93.1086 1874.33,196.789 
  "/>
<polyline clip-path="url(#clip860)" style="stroke:#009af9; stroke-linecap:butt; stroke-linejoin:round; stroke-width:4; stroke-opacity:1; fill:none" points="
  1898.74,144.949 2045.17,144.949 
  "/>
<path clip-path="url(#clip860)" d="M2093.6 148.201 L2093.6 150.284 L2074.02 150.284 Q2074.29 154.682 2076.66 156.997 Q2079.04 159.289 2083.28 159.289 Q2085.73 159.289 2088.02 158.687 Q2090.34 158.085 2092.6 156.881 L2092.6 160.909 Q2090.31 161.881 2087.91 162.391 Q2085.5 162.9 2083.02 162.9 Q2076.82 162.9 2073.18 159.289 Q2069.57 155.678 2069.57 149.52 Q2069.57 143.155 2073 139.428 Q2076.45 135.678 2082.28 135.678 Q2087.51 135.678 2090.54 139.057 Q2093.6 142.414 2093.6 148.201 M2089.34 146.951 Q2089.29 143.456 2087.37 141.372 Q2085.48 139.289 2082.33 139.289 Q2078.76 139.289 2076.61 141.303 Q2074.48 143.317 2074.16 146.974 L2089.34 146.951 Z" fill="#000000" fill-rule="evenodd" fill-opacity="1" /><path clip-path="url(#clip860)" d="M2122.14 146.581 L2122.14 162.229 L2117.88 162.229 L2117.88 146.719 Q2117.88 143.039 2116.45 141.21 Q2115.01 139.382 2112.14 139.382 Q2108.69 139.382 2106.7 141.581 Q2104.71 143.78 2104.71 147.576 L2104.71 162.229 L2100.43 162.229 L2100.43 136.303 L2104.71 136.303 L2104.71 140.331 Q2106.24 137.993 2108.3 136.835 Q2110.38 135.678 2113.09 135.678 Q2117.56 135.678 2119.85 138.456 Q2122.14 141.21 2122.14 146.581 Z" fill="#000000" fill-rule="evenodd" fill-opacity="1" /><path clip-path="url(#clip860)" d="M2152.81 148.201 L2152.81 150.284 L2133.23 150.284 Q2133.51 154.682 2135.87 156.997 Q2138.25 159.289 2142.49 159.289 Q2144.94 159.289 2147.23 158.687 Q2149.55 158.085 2151.82 156.881 L2151.82 160.909 Q2149.53 161.881 2147.12 162.391 Q2144.71 162.9 2142.23 162.9 Q2136.03 162.9 2132.4 159.289 Q2128.79 155.678 2128.79 149.52 Q2128.79 143.155 2132.21 139.428 Q2135.66 135.678 2141.49 135.678 Q2146.72 135.678 2149.76 139.057 Q2152.81 142.414 2152.81 148.201 M2148.55 146.951 Q2148.51 143.456 2146.59 141.372 Q2144.69 139.289 2141.54 139.289 Q2137.98 139.289 2135.82 141.303 Q2133.69 143.317 2133.37 146.974 L2148.55 146.951 Z" fill="#000000" fill-rule="evenodd" fill-opacity="1" /><path clip-path="url(#clip860)" d="M2174.83 140.284 Q2174.11 139.868 2173.25 139.682 Q2172.42 139.474 2171.4 139.474 Q2167.79 139.474 2165.85 141.835 Q2163.92 144.173 2163.92 148.571 L2163.92 162.229 L2159.64 162.229 L2159.64 136.303 L2163.92 136.303 L2163.92 140.331 Q2165.27 137.969 2167.42 136.835 Q2169.57 135.678 2172.65 135.678 Q2173.09 135.678 2173.62 135.747 Q2174.16 135.794 2174.8 135.909 L2174.83 140.284 Z" fill="#000000" fill-rule="evenodd" fill-opacity="1" /><path clip-path="url(#clip860)" d="M2195.52 148.965 Q2195.52 144.335 2193.6 141.789 Q2191.7 139.243 2188.25 139.243 Q2184.83 139.243 2182.91 141.789 Q2181.01 144.335 2181.01 148.965 Q2181.01 153.571 2182.91 156.118 Q2184.83 158.664 2188.25 158.664 Q2191.7 158.664 2193.6 156.118 Q2195.52 153.571 2195.52 148.965 M2199.78 159.011 Q2199.78 165.631 2196.84 168.849 Q2193.9 172.09 2187.84 172.09 Q2185.59 172.09 2183.6 171.742 Q2181.61 171.418 2179.73 170.724 L2179.73 166.58 Q2181.61 167.599 2183.44 168.085 Q2185.27 168.571 2187.16 168.571 Q2191.35 168.571 2193.44 166.372 Q2195.52 164.196 2195.52 159.775 L2195.52 157.668 Q2194.2 159.96 2192.14 161.094 Q2190.08 162.229 2187.21 162.229 Q2182.44 162.229 2179.53 158.594 Q2176.61 154.96 2176.61 148.965 Q2176.61 142.946 2179.53 139.312 Q2182.44 135.678 2187.21 135.678 Q2190.08 135.678 2192.14 136.812 Q2194.2 137.946 2195.52 140.238 L2195.52 136.303 L2199.78 136.303 L2199.78 159.011 Z" fill="#000000" fill-rule="evenodd" fill-opacity="1" /><path clip-path="url(#clip860)" d="M2219.34 164.636 Q2217.53 169.266 2215.82 170.678 Q2214.11 172.09 2211.24 172.09 L2207.84 172.09 L2207.84 168.525 L2210.34 168.525 Q2212.09 168.525 2213.07 167.692 Q2214.04 166.858 2215.22 163.756 L2215.98 161.812 L2205.5 136.303 L2210.01 136.303 L2218.11 156.581 L2226.22 136.303 L2230.73 136.303 L2219.34 164.636 Z" fill="#000000" fill-rule="evenodd" fill-opacity="1" /></svg>
