<?xml version="1.0" encoding="utf-8"?>
<svg xmlns="http://www.w3.org/2000/svg" xmlns:xlink="http://www.w3.org/1999/xlink" width="600" height="400" viewBox="0 0 2400 1600">
<defs>
  <clipPath id="clip560">
    <rect x="0" y="0" width="2400" height="1600"/>
  </clipPath>
</defs>
<path clip-path="url(#clip560)" d="
M0 1600 L2400 1600 L2400 0 L0 0  Z
  " fill="#ffffff" fill-rule="evenodd" fill-opacity="1"/>
<defs>
  <clipPath id="clip561">
    <rect x="480" y="0" width="1681" height="1600"/>
  </clipPath>
</defs>
<path clip-path="url(#clip560)" d="
M224.098 1423.18 L2352.76 1423.18 L2352.76 47.2441 L224.098 47.2441  Z
  " fill="#ffffff" fill-rule="evenodd" fill-opacity="1"/>
<defs>
  <clipPath id="clip562">
    <rect x="224" y="47" width="2130" height="1377"/>
  </clipPath>
</defs>
<polyline clip-path="url(#clip562)" style="stroke:#000000; stroke-linecap:butt; stroke-linejoin:round; stroke-width:2; stroke-opacity:0.1; fill:none" points="
  320.855,1423.18 320.855,47.2441 
  "/>
<polyline clip-path="url(#clip562)" style="stroke:#000000; stroke-linecap:butt; stroke-linejoin:round; stroke-width:2; stroke-opacity:0.1; fill:none" points="
  514.369,1423.18 514.369,47.2441 
  "/>
<polyline clip-path="url(#clip562)" style="stroke:#000000; stroke-linecap:butt; stroke-linejoin:round; stroke-width:2; stroke-opacity:0.1; fill:none" points="
  707.884,1423.18 707.884,47.2441 
  "/>
<polyline clip-path="url(#clip562)" style="stroke:#000000; stroke-linecap:butt; stroke-linejoin:round; stroke-width:2; stroke-opacity:0.1; fill:none" points="
  901.398,1423.18 901.398,47.2441 
  "/>
<polyline clip-path="url(#clip562)" style="stroke:#000000; stroke-linecap:butt; stroke-linejoin:round; stroke-width:2; stroke-opacity:0.1; fill:none" points="
  1094.91,1423.18 1094.91,47.2441 
  "/>
<polyline clip-path="url(#clip562)" style="stroke:#000000; stroke-linecap:butt; stroke-linejoin:round; stroke-width:2; stroke-opacity:0.1; fill:none" points="
  1288.43,1423.18 1288.43,47.2441 
  "/>
<polyline clip-path="url(#clip562)" style="stroke:#000000; stroke-linecap:butt; stroke-linejoin:round; stroke-width:2; stroke-opacity:0.1; fill:none" points="
  1481.94,1423.18 1481.94,47.2441 
  "/>
<polyline clip-path="url(#clip562)" style="stroke:#000000; stroke-linecap:butt; stroke-linejoin:round; stroke-width:2; stroke-opacity:0.1; fill:none" points="
  1675.46,1423.18 1675.46,47.2441 
  "/>
<polyline clip-path="url(#clip562)" style="stroke:#000000; stroke-linecap:butt; stroke-linejoin:round; stroke-width:2; stroke-opacity:0.1; fill:none" points="
  1868.97,1423.18 1868.97,47.2441 
  "/>
<polyline clip-path="url(#clip562)" style="stroke:#000000; stroke-linecap:butt; stroke-linejoin:round; stroke-width:2; stroke-opacity:0.1; fill:none" points="
  2062.48,1423.18 2062.48,47.2441 
  "/>
<polyline clip-path="url(#clip562)" style="stroke:#000000; stroke-linecap:butt; stroke-linejoin:round; stroke-width:2; stroke-opacity:0.1; fill:none" points="
  2256,1423.18 2256,47.2441 
  "/>
<polyline clip-path="url(#clip560)" style="stroke:#000000; stroke-linecap:butt; stroke-linejoin:round; stroke-width:4; stroke-opacity:1; fill:none" points="
  224.098,1423.18 2352.76,1423.18 
  "/>
<polyline clip-path="url(#clip560)" style="stroke:#000000; stroke-linecap:butt; stroke-linejoin:round; stroke-width:4; stroke-opacity:1; fill:none" points="
  320.855,1423.18 320.855,1404.28 
  "/>
<polyline clip-path="url(#clip560)" style="stroke:#000000; stroke-linecap:butt; stroke-linejoin:round; stroke-width:4; stroke-opacity:1; fill:none" points="
  514.369,1423.18 514.369,1404.28 
  "/>
<polyline clip-path="url(#clip560)" style="stroke:#000000; stroke-linecap:butt; stroke-linejoin:round; stroke-width:4; stroke-opacity:1; fill:none" points="
  707.884,1423.18 707.884,1404.28 
  "/>
<polyline clip-path="url(#clip560)" style="stroke:#000000; stroke-linecap:butt; stroke-linejoin:round; stroke-width:4; stroke-opacity:1; fill:none" points="
  901.398,1423.18 901.398,1404.28 
  "/>
<polyline clip-path="url(#clip560)" style="stroke:#000000; stroke-linecap:butt; stroke-linejoin:round; stroke-width:4; stroke-opacity:1; fill:none" points="
  1094.91,1423.18 1094.91,1404.28 
  "/>
<polyline clip-path="url(#clip560)" style="stroke:#000000; stroke-linecap:butt; stroke-linejoin:round; stroke-width:4; stroke-opacity:1; fill:none" points="
  1288.43,1423.18 1288.43,1404.28 
  "/>
<polyline clip-path="url(#clip560)" style="stroke:#000000; stroke-linecap:butt; stroke-linejoin:round; stroke-width:4; stroke-opacity:1; fill:none" points="
  1481.94,1423.18 1481.94,1404.28 
  "/>
<polyline clip-path="url(#clip560)" style="stroke:#000000; stroke-linecap:butt; stroke-linejoin:round; stroke-width:4; stroke-opacity:1; fill:none" points="
  1675.46,1423.18 1675.46,1404.28 
  "/>
<polyline clip-path="url(#clip560)" style="stroke:#000000; stroke-linecap:butt; stroke-linejoin:round; stroke-width:4; stroke-opacity:1; fill:none" points="
  1868.97,1423.18 1868.97,1404.28 
  "/>
<polyline clip-path="url(#clip560)" style="stroke:#000000; stroke-linecap:butt; stroke-linejoin:round; stroke-width:4; stroke-opacity:1; fill:none" points="
  2062.48,1423.18 2062.48,1404.28 
  "/>
<polyline clip-path="url(#clip560)" style="stroke:#000000; stroke-linecap:butt; stroke-linejoin:round; stroke-width:4; stroke-opacity:1; fill:none" points="
  2256,1423.18 2256,1404.28 
  "/>
<path clip-path="url(#clip560)" d="M320.855 1454.1 Q317.244 1454.1 315.415 1457.66 Q313.61 1461.2 313.61 1468.33 Q313.61 1475.44 315.415 1479.01 Q317.244 1482.55 320.855 1482.55 Q324.489 1482.55 326.295 1479.01 Q328.124 1475.44 328.124 1468.33 Q328.124 1461.2 326.295 1457.66 Q324.489 1454.1 320.855 1454.1 M320.855 1450.39 Q326.665 1450.39 329.721 1455 Q332.799 1459.58 332.799 1468.33 Q332.799 1477.06 329.721 1481.67 Q326.665 1486.25 320.855 1486.25 Q315.045 1486.25 311.966 1481.67 Q308.911 1477.06 308.911 1468.33 Q308.911 1459.58 311.966 1455 Q315.045 1450.39 320.855 1450.39 Z" fill="#000000" fill-rule="evenodd" fill-opacity="1" /><path clip-path="url(#clip560)" d="M504.751 1481.64 L512.39 1481.64 L512.39 1455.28 L504.08 1456.95 L504.08 1452.69 L512.344 1451.02 L517.02 1451.02 L517.02 1481.64 L524.659 1481.64 L524.659 1485.58 L504.751 1485.58 L504.751 1481.64 Z" fill="#000000" fill-rule="evenodd" fill-opacity="1" /><path clip-path="url(#clip560)" d="M702.537 1481.64 L718.856 1481.64 L718.856 1485.58 L696.912 1485.58 L696.912 1481.64 Q699.574 1478.89 704.157 1474.26 Q708.763 1469.61 709.944 1468.27 Q712.189 1465.74 713.069 1464.01 Q713.972 1462.25 713.972 1460.56 Q713.972 1457.8 712.027 1456.07 Q710.106 1454.33 707.004 1454.33 Q704.805 1454.33 702.351 1455.09 Q699.921 1455.86 697.143 1457.41 L697.143 1452.69 Q699.967 1451.55 702.421 1450.97 Q704.875 1450.39 706.912 1450.39 Q712.282 1450.39 715.476 1453.08 Q718.671 1455.77 718.671 1460.26 Q718.671 1462.39 717.861 1464.31 Q717.074 1466.2 714.967 1468.8 Q714.388 1469.47 711.287 1472.69 Q708.185 1475.88 702.537 1481.64 Z" fill="#000000" fill-rule="evenodd" fill-opacity="1" /><path clip-path="url(#clip560)" d="M905.646 1466.95 Q909.002 1467.66 910.877 1469.93 Q912.775 1472.2 912.775 1475.53 Q912.775 1480.65 909.257 1483.45 Q905.738 1486.25 899.257 1486.25 Q897.081 1486.25 894.766 1485.81 Q892.475 1485.39 890.021 1484.54 L890.021 1480.02 Q891.965 1481.16 894.28 1481.74 Q896.595 1482.32 899.118 1482.32 Q903.516 1482.32 905.808 1480.58 Q908.123 1478.84 908.123 1475.53 Q908.123 1472.48 905.97 1470.77 Q903.84 1469.03 900.021 1469.03 L895.993 1469.03 L895.993 1465.19 L900.206 1465.19 Q903.655 1465.19 905.484 1463.82 Q907.312 1462.43 907.312 1459.84 Q907.312 1457.18 905.414 1455.77 Q903.539 1454.33 900.021 1454.33 Q898.1 1454.33 895.901 1454.75 Q893.701 1455.16 891.063 1456.04 L891.063 1451.88 Q893.725 1451.14 896.039 1450.77 Q898.377 1450.39 900.438 1450.39 Q905.762 1450.39 908.863 1452.83 Q911.965 1455.23 911.965 1459.35 Q911.965 1462.22 910.322 1464.21 Q908.678 1466.18 905.646 1466.95 Z" fill="#000000" fill-rule="evenodd" fill-opacity="1" /><path clip-path="url(#clip560)" d="M1097.92 1455.09 L1086.12 1473.54 L1097.92 1473.54 L1097.92 1455.09 M1096.69 1451.02 L1102.57 1451.02 L1102.57 1473.54 L1107.51 1473.54 L1107.51 1477.43 L1102.57 1477.43 L1102.57 1485.58 L1097.92 1485.58 L1097.92 1477.43 L1082.32 1477.43 L1082.32 1472.92 L1096.69 1451.02 Z" fill="#000000" fill-rule="evenodd" fill-opacity="1" /><path clip-path="url(#clip560)" d="M1278.7 1451.02 L1297.06 1451.02 L1297.06 1454.96 L1282.99 1454.96 L1282.99 1463.43 Q1284.01 1463.08 1285.02 1462.92 Q1286.04 1462.73 1287.06 1462.73 Q1292.85 1462.73 1296.23 1465.9 Q1299.61 1469.08 1299.61 1474.49 Q1299.61 1480.07 1296.14 1483.17 Q1292.66 1486.25 1286.34 1486.25 Q1284.17 1486.25 1281.9 1485.88 Q1279.65 1485.51 1277.25 1484.77 L1277.25 1480.07 Q1279.33 1481.2 1281.55 1481.76 Q1283.77 1482.32 1286.25 1482.32 Q1290.26 1482.32 1292.59 1480.21 Q1294.93 1478.1 1294.93 1474.49 Q1294.93 1470.88 1292.59 1468.77 Q1290.26 1466.67 1286.25 1466.67 Q1284.38 1466.67 1282.5 1467.08 Q1280.65 1467.5 1278.7 1468.38 L1278.7 1451.02 Z" fill="#000000" fill-rule="evenodd" fill-opacity="1" /><path clip-path="url(#clip560)" d="M1482.35 1466.44 Q1479.2 1466.44 1477.35 1468.59 Q1475.52 1470.74 1475.52 1474.49 Q1475.52 1478.22 1477.35 1480.39 Q1479.2 1482.55 1482.35 1482.55 Q1485.49 1482.55 1487.32 1480.39 Q1489.18 1478.22 1489.18 1474.49 Q1489.18 1470.74 1487.32 1468.59 Q1485.49 1466.44 1482.35 1466.44 M1491.63 1451.78 L1491.63 1456.04 Q1489.87 1455.21 1488.06 1454.77 Q1486.28 1454.33 1484.52 1454.33 Q1479.89 1454.33 1477.44 1457.45 Q1475.01 1460.58 1474.66 1466.9 Q1476.03 1464.89 1478.09 1463.82 Q1480.15 1462.73 1482.62 1462.73 Q1487.83 1462.73 1490.84 1465.9 Q1493.87 1469.05 1493.87 1474.49 Q1493.87 1479.82 1490.73 1483.03 Q1487.58 1486.25 1482.35 1486.25 Q1476.35 1486.25 1473.18 1481.67 Q1470.01 1477.06 1470.01 1468.33 Q1470.01 1460.14 1473.9 1455.28 Q1477.79 1450.39 1484.34 1450.39 Q1486.1 1450.39 1487.88 1450.74 Q1489.68 1451.09 1491.63 1451.78 Z" fill="#000000" fill-rule="evenodd" fill-opacity="1" /><path clip-path="url(#clip560)" d="M1664.34 1451.02 L1686.57 1451.02 L1686.57 1453.01 L1674.02 1485.58 L1669.14 1485.58 L1680.94 1454.96 L1664.34 1454.96 L1664.34 1451.02 Z" fill="#000000" fill-rule="evenodd" fill-opacity="1" /><path clip-path="url(#clip560)" d="M1868.97 1469.17 Q1865.64 1469.17 1863.72 1470.95 Q1861.82 1472.73 1861.82 1475.86 Q1861.82 1478.98 1863.72 1480.77 Q1865.64 1482.55 1868.97 1482.55 Q1872.3 1482.55 1874.22 1480.77 Q1876.15 1478.96 1876.15 1475.86 Q1876.15 1472.73 1874.22 1470.95 Q1872.33 1469.17 1868.97 1469.17 M1864.29 1467.18 Q1861.28 1466.44 1859.6 1464.38 Q1857.93 1462.32 1857.93 1459.35 Q1857.93 1455.21 1860.87 1452.8 Q1863.83 1450.39 1868.97 1450.39 Q1874.13 1450.39 1877.07 1452.8 Q1880.01 1455.21 1880.01 1459.35 Q1880.01 1462.32 1878.32 1464.38 Q1876.66 1466.44 1873.67 1467.18 Q1877.05 1467.96 1878.92 1470.26 Q1880.82 1472.55 1880.82 1475.86 Q1880.82 1480.88 1877.74 1483.57 Q1874.69 1486.25 1868.97 1486.25 Q1863.25 1486.25 1860.17 1483.57 Q1857.12 1480.88 1857.12 1475.86 Q1857.12 1472.55 1859.02 1470.26 Q1860.91 1467.96 1864.29 1467.18 M1862.58 1459.79 Q1862.58 1462.48 1864.25 1463.98 Q1865.94 1465.49 1868.97 1465.49 Q1871.98 1465.49 1873.67 1463.98 Q1875.38 1462.48 1875.38 1459.79 Q1875.38 1457.11 1873.67 1455.6 Q1871.98 1454.1 1868.97 1454.1 Q1865.94 1454.1 1864.25 1455.6 Q1862.58 1457.11 1862.58 1459.79 Z" fill="#000000" fill-rule="evenodd" fill-opacity="1" /><path clip-path="url(#clip560)" d="M2052.79 1484.86 L2052.79 1480.6 Q2054.54 1481.44 2056.35 1481.88 Q2058.16 1482.32 2059.89 1482.32 Q2064.52 1482.32 2066.95 1479.21 Q2069.41 1476.09 2069.75 1469.75 Q2068.41 1471.74 2066.35 1472.8 Q2064.29 1473.87 2061.79 1473.87 Q2056.6 1473.87 2053.57 1470.74 Q2050.56 1467.59 2050.56 1462.15 Q2050.56 1456.83 2053.71 1453.61 Q2056.86 1450.39 2062.09 1450.39 Q2068.09 1450.39 2071.23 1455 Q2074.41 1459.58 2074.41 1468.33 Q2074.41 1476.51 2070.52 1481.39 Q2066.65 1486.25 2060.1 1486.25 Q2058.34 1486.25 2056.54 1485.9 Q2054.73 1485.56 2052.79 1484.86 M2062.09 1470.21 Q2065.24 1470.21 2067.07 1468.06 Q2068.92 1465.9 2068.92 1462.15 Q2068.92 1458.43 2067.07 1456.27 Q2065.24 1454.1 2062.09 1454.1 Q2058.94 1454.1 2057.09 1456.27 Q2055.26 1458.43 2055.26 1462.15 Q2055.26 1465.9 2057.09 1468.06 Q2058.94 1470.21 2062.09 1470.21 Z" fill="#000000" fill-rule="evenodd" fill-opacity="1" /><path clip-path="url(#clip560)" d="M2230.69 1481.64 L2238.33 1481.64 L2238.33 1455.28 L2230.02 1456.95 L2230.02 1452.69 L2238.28 1451.02 L2242.95 1451.02 L2242.95 1481.64 L2250.59 1481.64 L2250.59 1485.58 L2230.69 1485.58 L2230.69 1481.64 Z" fill="#000000" fill-rule="evenodd" fill-opacity="1" /><path clip-path="url(#clip560)" d="M2270.04 1454.1 Q2266.43 1454.1 2264.6 1457.66 Q2262.79 1461.2 2262.79 1468.33 Q2262.79 1475.44 2264.6 1479.01 Q2266.43 1482.55 2270.04 1482.55 Q2273.67 1482.55 2275.48 1479.01 Q2277.31 1475.44 2277.31 1468.33 Q2277.31 1461.2 2275.48 1457.66 Q2273.67 1454.1 2270.04 1454.1 M2270.04 1450.39 Q2275.85 1450.39 2278.9 1455 Q2281.98 1459.58 2281.98 1468.33 Q2281.98 1477.06 2278.9 1481.67 Q2275.85 1486.25 2270.04 1486.25 Q2264.23 1486.25 2261.15 1481.67 Q2258.09 1477.06 2258.09 1468.33 Q2258.09 1459.58 2261.15 1455 Q2264.23 1450.39 2270.04 1450.39 Z" fill="#000000" fill-rule="evenodd" fill-opacity="1" /><path clip-path="url(#clip560)" d="M1272.61 1518.52 L1278.5 1518.52 L1278.5 1547.77 L1295.97 1532.4 L1303.45 1532.4 L1284.54 1549.07 L1304.25 1568.04 L1296.61 1568.04 L1278.5 1550.63 L1278.5 1568.04 L1272.61 1568.04 L1272.61 1518.52 Z" fill="#000000" fill-rule="evenodd" fill-opacity="1" /><polyline clip-path="url(#clip562)" style="stroke:#000000; stroke-linecap:butt; stroke-linejoin:round; stroke-width:2; stroke-opacity:0.1; fill:none" points="
  224.098,1360.64 2352.76,1360.64 
  "/>
<polyline clip-path="url(#clip562)" style="stroke:#000000; stroke-linecap:butt; stroke-linejoin:round; stroke-width:2; stroke-opacity:0.1; fill:none" points="
  224.098,1047.92 2352.76,1047.92 
  "/>
<polyline clip-path="url(#clip562)" style="stroke:#000000; stroke-linecap:butt; stroke-linejoin:round; stroke-width:2; stroke-opacity:0.1; fill:none" points="
  224.098,735.212 2352.76,735.212 
  "/>
<polyline clip-path="url(#clip562)" style="stroke:#000000; stroke-linecap:butt; stroke-linejoin:round; stroke-width:2; stroke-opacity:0.1; fill:none" points="
  224.098,422.499 2352.76,422.499 
  "/>
<polyline clip-path="url(#clip562)" style="stroke:#000000; stroke-linecap:butt; stroke-linejoin:round; stroke-width:2; stroke-opacity:0.1; fill:none" points="
  224.098,109.787 2352.76,109.787 
  "/>
<polyline clip-path="url(#clip560)" style="stroke:#000000; stroke-linecap:butt; stroke-linejoin:round; stroke-width:4; stroke-opacity:1; fill:none" points="
  224.098,1423.18 224.098,47.2441 
  "/>
<polyline clip-path="url(#clip560)" style="stroke:#000000; stroke-linecap:butt; stroke-linejoin:round; stroke-width:4; stroke-opacity:1; fill:none" points="
  224.098,1360.64 242.996,1360.64 
  "/>
<polyline clip-path="url(#clip560)" style="stroke:#000000; stroke-linecap:butt; stroke-linejoin:round; stroke-width:4; stroke-opacity:1; fill:none" points="
  224.098,1047.92 242.996,1047.92 
  "/>
<polyline clip-path="url(#clip560)" style="stroke:#000000; stroke-linecap:butt; stroke-linejoin:round; stroke-width:4; stroke-opacity:1; fill:none" points="
  224.098,735.212 242.996,735.212 
  "/>
<polyline clip-path="url(#clip560)" style="stroke:#000000; stroke-linecap:butt; stroke-linejoin:round; stroke-width:4; stroke-opacity:1; fill:none" points="
  224.098,422.499 242.996,422.499 
  "/>
<polyline clip-path="url(#clip560)" style="stroke:#000000; stroke-linecap:butt; stroke-linejoin:round; stroke-width:4; stroke-opacity:1; fill:none" points="
  224.098,109.787 242.996,109.787 
  "/>
<path clip-path="url(#clip560)" d="M50.9921 1361.09 L80.6679 1361.09 L80.6679 1365.02 L50.9921 1365.02 L50.9921 1361.09 Z" fill="#000000" fill-rule="evenodd" fill-opacity="1" /><path clip-path="url(#clip560)" d="M100.76 1346.44 Q97.1493 1346.44 95.3206 1350 Q93.515 1353.54 93.515 1360.67 Q93.515 1367.78 95.3206 1371.34 Q97.1493 1374.88 100.76 1374.88 Q104.395 1374.88 106.2 1371.34 Q108.029 1367.78 108.029 1360.67 Q108.029 1353.54 106.2 1350 Q104.395 1346.44 100.76 1346.44 M100.76 1342.73 Q106.571 1342.73 109.626 1347.34 Q112.705 1351.92 112.705 1360.67 Q112.705 1369.4 109.626 1374.01 Q106.571 1378.59 100.76 1378.59 Q94.9502 1378.59 91.8715 1374.01 Q88.816 1369.4 88.816 1360.67 Q88.816 1351.92 91.8715 1347.34 Q94.9502 1342.73 100.76 1342.73 Z" fill="#000000" fill-rule="evenodd" fill-opacity="1" /><path clip-path="url(#clip560)" d="M120.922 1372.04 L125.807 1372.04 L125.807 1377.92 L120.922 1377.92 L120.922 1372.04 Z" fill="#000000" fill-rule="evenodd" fill-opacity="1" /><path clip-path="url(#clip560)" d="M136.038 1343.36 L154.394 1343.36 L154.394 1347.29 L140.32 1347.29 L140.32 1355.76 Q141.339 1355.42 142.357 1355.26 Q143.376 1355.07 144.394 1355.07 Q150.181 1355.07 153.561 1358.24 Q156.941 1361.41 156.941 1366.83 Q156.941 1372.41 153.468 1375.51 Q149.996 1378.59 143.677 1378.59 Q141.501 1378.59 139.232 1378.22 Q136.987 1377.85 134.58 1377.11 L134.58 1372.41 Q136.663 1373.54 138.885 1374.1 Q141.107 1374.65 143.584 1374.65 Q147.589 1374.65 149.927 1372.55 Q152.265 1370.44 152.265 1366.83 Q152.265 1363.22 149.927 1361.11 Q147.589 1359.01 143.584 1359.01 Q141.709 1359.01 139.834 1359.42 Q137.982 1359.84 136.038 1360.72 L136.038 1343.36 Z" fill="#000000" fill-rule="evenodd" fill-opacity="1" /><path clip-path="url(#clip560)" d="M176.153 1346.44 Q172.542 1346.44 170.714 1350 Q168.908 1353.54 168.908 1360.67 Q168.908 1367.78 170.714 1371.34 Q172.542 1374.88 176.153 1374.88 Q179.788 1374.88 181.593 1371.34 Q183.422 1367.78 183.422 1360.67 Q183.422 1353.54 181.593 1350 Q179.788 1346.44 176.153 1346.44 M176.153 1342.73 Q181.964 1342.73 185.019 1347.34 Q188.098 1351.92 188.098 1360.67 Q188.098 1369.4 185.019 1374.01 Q181.964 1378.59 176.153 1378.59 Q170.343 1378.59 167.265 1374.01 Q164.209 1369.4 164.209 1360.67 Q164.209 1351.92 167.265 1347.34 Q170.343 1342.73 176.153 1342.73 Z" fill="#000000" fill-rule="evenodd" fill-opacity="1" /><path clip-path="url(#clip560)" d="M51.9875 1048.38 L81.6633 1048.38 L81.6633 1052.31 L51.9875 1052.31 L51.9875 1048.38 Z" fill="#000000" fill-rule="evenodd" fill-opacity="1" /><path clip-path="url(#clip560)" d="M101.756 1033.72 Q98.1447 1033.72 96.316 1037.29 Q94.5104 1040.83 94.5104 1047.96 Q94.5104 1055.07 96.316 1058.63 Q98.1447 1062.17 101.756 1062.17 Q105.39 1062.17 107.196 1058.63 Q109.024 1055.07 109.024 1047.96 Q109.024 1040.83 107.196 1037.29 Q105.39 1033.72 101.756 1033.72 M101.756 1030.02 Q107.566 1030.02 110.621 1034.63 Q113.7 1039.21 113.7 1047.96 Q113.7 1056.69 110.621 1061.29 Q107.566 1065.88 101.756 1065.88 Q95.9456 1065.88 92.8669 1061.29 Q89.8114 1056.69 89.8114 1047.96 Q89.8114 1039.21 92.8669 1034.63 Q95.9456 1030.02 101.756 1030.02 Z" fill="#000000" fill-rule="evenodd" fill-opacity="1" /><path clip-path="url(#clip560)" d="M121.918 1059.33 L126.802 1059.33 L126.802 1065.2 L121.918 1065.2 L121.918 1059.33 Z" fill="#000000" fill-rule="evenodd" fill-opacity="1" /><path clip-path="url(#clip560)" d="M141.015 1061.27 L157.334 1061.27 L157.334 1065.2 L135.39 1065.2 L135.39 1061.27 Q138.052 1058.51 142.635 1053.89 Q147.242 1049.23 148.422 1047.89 Q150.668 1045.37 151.547 1043.63 Q152.45 1041.87 152.45 1040.18 Q152.45 1037.43 150.505 1035.69 Q148.584 1033.95 145.482 1033.95 Q143.283 1033.95 140.83 1034.72 Q138.399 1035.48 135.621 1037.03 L135.621 1032.31 Q138.445 1031.18 140.899 1030.6 Q143.353 1030.02 145.39 1030.02 Q150.76 1030.02 153.955 1032.7 Q157.149 1035.39 157.149 1039.88 Q157.149 1042.01 156.339 1043.93 Q155.552 1045.83 153.445 1048.42 Q152.867 1049.09 149.765 1052.31 Q146.663 1055.51 141.015 1061.27 Z" fill="#000000" fill-rule="evenodd" fill-opacity="1" /><path clip-path="url(#clip560)" d="M167.195 1030.64 L185.552 1030.64 L185.552 1034.58 L171.478 1034.58 L171.478 1043.05 Q172.496 1042.7 173.515 1042.54 Q174.533 1042.36 175.552 1042.36 Q181.339 1042.36 184.718 1045.53 Q188.098 1048.7 188.098 1054.12 Q188.098 1059.7 184.626 1062.8 Q181.153 1065.88 174.834 1065.88 Q172.658 1065.88 170.39 1065.51 Q168.144 1065.14 165.737 1064.39 L165.737 1059.7 Q167.82 1060.83 170.042 1061.39 Q172.265 1061.94 174.741 1061.94 Q178.746 1061.94 181.084 1059.83 Q183.422 1057.73 183.422 1054.12 Q183.422 1050.51 181.084 1048.4 Q178.746 1046.29 174.741 1046.29 Q172.866 1046.29 170.991 1046.71 Q169.14 1047.13 167.195 1048.01 L167.195 1030.64 Z" fill="#000000" fill-rule="evenodd" fill-opacity="1" /><path clip-path="url(#clip560)" d="M100.76 721.011 Q97.1493 721.011 95.3206 724.575 Q93.515 728.117 93.515 735.247 Q93.515 742.353 95.3206 745.918 Q97.1493 749.46 100.76 749.46 Q104.395 749.46 106.2 745.918 Q108.029 742.353 108.029 735.247 Q108.029 728.117 106.2 724.575 Q104.395 721.011 100.76 721.011 M100.76 717.307 Q106.571 717.307 109.626 721.913 Q112.705 726.497 112.705 735.247 Q112.705 743.973 109.626 748.58 Q106.571 753.163 100.76 753.163 Q94.9502 753.163 91.8715 748.58 Q88.816 743.973 88.816 735.247 Q88.816 726.497 91.8715 721.913 Q94.9502 717.307 100.76 717.307 Z" fill="#000000" fill-rule="evenodd" fill-opacity="1" /><path clip-path="url(#clip560)" d="M120.922 746.612 L125.807 746.612 L125.807 752.492 L120.922 752.492 L120.922 746.612 Z" fill="#000000" fill-rule="evenodd" fill-opacity="1" /><path clip-path="url(#clip560)" d="M145.992 721.011 Q142.381 721.011 140.552 724.575 Q138.746 728.117 138.746 735.247 Q138.746 742.353 140.552 745.918 Q142.381 749.46 145.992 749.46 Q149.626 749.46 151.431 745.918 Q153.26 742.353 153.26 735.247 Q153.26 728.117 151.431 724.575 Q149.626 721.011 145.992 721.011 M145.992 717.307 Q151.802 717.307 154.857 721.913 Q157.936 726.497 157.936 735.247 Q157.936 743.973 154.857 748.58 Q151.802 753.163 145.992 753.163 Q140.181 753.163 137.103 748.58 Q134.047 743.973 134.047 735.247 Q134.047 726.497 137.103 721.913 Q140.181 717.307 145.992 717.307 Z" fill="#000000" fill-rule="evenodd" fill-opacity="1" /><path clip-path="url(#clip560)" d="M176.153 721.011 Q172.542 721.011 170.714 724.575 Q168.908 728.117 168.908 735.247 Q168.908 742.353 170.714 745.918 Q172.542 749.46 176.153 749.46 Q179.788 749.46 181.593 745.918 Q183.422 742.353 183.422 735.247 Q183.422 728.117 181.593 724.575 Q179.788 721.011 176.153 721.011 M176.153 717.307 Q181.964 717.307 185.019 721.913 Q188.098 726.497 188.098 735.247 Q188.098 743.973 185.019 748.58 Q181.964 753.163 176.153 753.163 Q170.343 753.163 167.265 748.58 Q164.209 743.973 164.209 735.247 Q164.209 726.497 167.265 721.913 Q170.343 717.307 176.153 717.307 Z" fill="#000000" fill-rule="evenodd" fill-opacity="1" /><path clip-path="url(#clip560)" d="M101.756 408.298 Q98.1447 408.298 96.316 411.863 Q94.5104 415.404 94.5104 422.534 Q94.5104 429.64 96.316 433.205 Q98.1447 436.747 101.756 436.747 Q105.39 436.747 107.196 433.205 Q109.024 429.64 109.024 422.534 Q109.024 415.404 107.196 411.863 Q105.39 408.298 101.756 408.298 M101.756 404.594 Q107.566 404.594 110.621 409.201 Q113.7 413.784 113.7 422.534 Q113.7 431.261 110.621 435.867 Q107.566 440.451 101.756 440.451 Q95.9456 440.451 92.8669 435.867 Q89.8114 431.261 89.8114 422.534 Q89.8114 413.784 92.8669 409.201 Q95.9456 404.594 101.756 404.594 Z" fill="#000000" fill-rule="evenodd" fill-opacity="1" /><path clip-path="url(#clip560)" d="M121.918 433.9 L126.802 433.9 L126.802 439.779 L121.918 439.779 L121.918 433.9 Z" fill="#000000" fill-rule="evenodd" fill-opacity="1" /><path clip-path="url(#clip560)" d="M141.015 435.844 L157.334 435.844 L157.334 439.779 L135.39 439.779 L135.39 435.844 Q138.052 433.09 142.635 428.46 Q147.242 423.807 148.422 422.465 Q150.668 419.941 151.547 418.205 Q152.45 416.446 152.45 414.756 Q152.45 412.002 150.505 410.266 Q148.584 408.529 145.482 408.529 Q143.283 408.529 140.83 409.293 Q138.399 410.057 135.621 411.608 L135.621 406.886 Q138.445 405.752 140.899 405.173 Q143.353 404.594 145.39 404.594 Q150.76 404.594 153.955 407.279 Q157.149 409.965 157.149 414.455 Q157.149 416.585 156.339 418.506 Q155.552 420.404 153.445 422.997 Q152.867 423.668 149.765 426.886 Q146.663 430.08 141.015 435.844 Z" fill="#000000" fill-rule="evenodd" fill-opacity="1" /><path clip-path="url(#clip560)" d="M167.195 405.219 L185.552 405.219 L185.552 409.154 L171.478 409.154 L171.478 417.627 Q172.496 417.279 173.515 417.117 Q174.533 416.932 175.552 416.932 Q181.339 416.932 184.718 420.103 Q188.098 423.275 188.098 428.691 Q188.098 434.27 184.626 437.372 Q181.153 440.451 174.834 440.451 Q172.658 440.451 170.39 440.08 Q168.144 439.71 165.737 438.969 L165.737 434.27 Q167.82 435.404 170.042 435.96 Q172.265 436.515 174.741 436.515 Q178.746 436.515 181.084 434.409 Q183.422 432.302 183.422 428.691 Q183.422 425.08 181.084 422.974 Q178.746 420.867 174.741 420.867 Q172.866 420.867 170.991 421.284 Q169.14 421.701 167.195 422.58 L167.195 405.219 Z" fill="#000000" fill-rule="evenodd" fill-opacity="1" /><path clip-path="url(#clip560)" d="M100.76 95.5853 Q97.1493 95.5853 95.3206 99.1501 Q93.515 102.692 93.515 109.821 Q93.515 116.928 95.3206 120.493 Q97.1493 124.034 100.76 124.034 Q104.395 124.034 106.2 120.493 Q108.029 116.928 108.029 109.821 Q108.029 102.692 106.2 99.1501 Q104.395 95.5853 100.76 95.5853 M100.76 91.8816 Q106.571 91.8816 109.626 96.4881 Q112.705 101.071 112.705 109.821 Q112.705 118.548 109.626 123.155 Q106.571 127.738 100.76 127.738 Q94.9502 127.738 91.8715 123.155 Q88.816 118.548 88.816 109.821 Q88.816 101.071 91.8715 96.4881 Q94.9502 91.8816 100.76 91.8816 Z" fill="#000000" fill-rule="evenodd" fill-opacity="1" /><path clip-path="url(#clip560)" d="M120.922 121.187 L125.807 121.187 L125.807 127.067 L120.922 127.067 L120.922 121.187 Z" fill="#000000" fill-rule="evenodd" fill-opacity="1" /><path clip-path="url(#clip560)" d="M136.038 92.5066 L154.394 92.5066 L154.394 96.4418 L140.32 96.4418 L140.32 104.914 Q141.339 104.567 142.357 104.405 Q143.376 104.22 144.394 104.22 Q150.181 104.22 153.561 107.391 Q156.941 110.562 156.941 115.979 Q156.941 121.557 153.468 124.659 Q149.996 127.738 143.677 127.738 Q141.501 127.738 139.232 127.368 Q136.987 126.997 134.58 126.256 L134.58 121.557 Q136.663 122.692 138.885 123.247 Q141.107 123.803 143.584 123.803 Q147.589 123.803 149.927 121.696 Q152.265 119.59 152.265 115.979 Q152.265 112.368 149.927 110.261 Q147.589 108.155 143.584 108.155 Q141.709 108.155 139.834 108.571 Q137.982 108.988 136.038 109.868 L136.038 92.5066 Z" fill="#000000" fill-rule="evenodd" fill-opacity="1" /><path clip-path="url(#clip560)" d="M176.153 95.5853 Q172.542 95.5853 170.714 99.1501 Q168.908 102.692 168.908 109.821 Q168.908 116.928 170.714 120.493 Q172.542 124.034 176.153 124.034 Q179.788 124.034 181.593 120.493 Q183.422 116.928 183.422 109.821 Q183.422 102.692 181.593 99.1501 Q179.788 95.5853 176.153 95.5853 M176.153 91.8816 Q181.964 91.8816 185.019 96.4881 Q188.098 101.071 188.098 109.821 Q188.098 118.548 185.019 123.155 Q181.964 127.738 176.153 127.738 Q170.343 127.738 167.265 123.155 Q164.209 118.548 164.209 109.821 Q164.209 101.071 167.265 96.4881 Q170.343 91.8816 176.153 91.8816 Z" fill="#000000" fill-rule="evenodd" fill-opacity="1" /><polyline clip-path="url(#clip562)" style="stroke:#009af9; stroke-linecap:butt; stroke-linejoin:round; stroke-width:12; stroke-opacity:1; fill:none" points="
  320.855,735.212 514.369,735.212 707.884,735.212 901.398,735.212 1094.91,735.212 1288.43,422.499 1481.94,735.212 1675.46,735.212 1868.97,735.212 2062.48,735.212 
  2256,735.212 2449.51,735.212 2643.03,735.212 2836.54,735.212 3030.06,735.212 3223.57,735.212 3417.08,735.212 3610.6,735.212 3804.11,735.212 3997.63,735.212 
  4191.14,735.212 4384.66,735.212 4578.17,735.212 4771.69,735.212 4965.2,735.212 5158.71,735.212 5352.23,735.212 5545.74,735.212 5739.26,735.212 5932.77,735.212 
  6126.29,735.212 6319.8,735.212 6513.31,735.212 
  "/>
<line clip-path="url(#clip562)" x1="320.855" y1="735.212" x2="320.855" y2="719.212" style="stroke:#009af9; stroke-width:3.2; stroke-opacity:1"/>
<line clip-path="url(#clip562)" x1="320.855" y1="735.212" x2="304.855" y2="735.212" style="stroke:#009af9; stroke-width:3.2; stroke-opacity:1"/>
<line clip-path="url(#clip562)" x1="320.855" y1="735.212" x2="320.855" y2="751.212" style="stroke:#009af9; stroke-width:3.2; stroke-opacity:1"/>
<line clip-path="url(#clip562)" x1="320.855" y1="735.212" x2="336.855" y2="735.212" style="stroke:#009af9; stroke-width:3.2; stroke-opacity:1"/>
<line clip-path="url(#clip562)" x1="514.369" y1="735.212" x2="514.369" y2="719.212" style="stroke:#009af9; stroke-width:3.2; stroke-opacity:1"/>
<line clip-path="url(#clip562)" x1="514.369" y1="735.212" x2="498.369" y2="735.212" style="stroke:#009af9; stroke-width:3.2; stroke-opacity:1"/>
<line clip-path="url(#clip562)" x1="514.369" y1="735.212" x2="514.369" y2="751.212" style="stroke:#009af9; stroke-width:3.2; stroke-opacity:1"/>
<line clip-path="url(#clip562)" x1="514.369" y1="735.212" x2="530.369" y2="735.212" style="stroke:#009af9; stroke-width:3.2; stroke-opacity:1"/>
<line clip-path="url(#clip562)" x1="707.884" y1="735.212" x2="707.884" y2="719.212" style="stroke:#009af9; stroke-width:3.2; stroke-opacity:1"/>
<line clip-path="url(#clip562)" x1="707.884" y1="735.212" x2="691.884" y2="735.212" style="stroke:#009af9; stroke-width:3.2; stroke-opacity:1"/>
<line clip-path="url(#clip562)" x1="707.884" y1="735.212" x2="707.884" y2="751.212" style="stroke:#009af9; stroke-width:3.2; stroke-opacity:1"/>
<line clip-path="url(#clip562)" x1="707.884" y1="735.212" x2="723.884" y2="735.212" style="stroke:#009af9; stroke-width:3.2; stroke-opacity:1"/>
<line clip-path="url(#clip562)" x1="901.398" y1="735.212" x2="901.398" y2="719.212" style="stroke:#009af9; stroke-width:3.2; stroke-opacity:1"/>
<line clip-path="url(#clip562)" x1="901.398" y1="735.212" x2="885.398" y2="735.212" style="stroke:#009af9; stroke-width:3.2; stroke-opacity:1"/>
<line clip-path="url(#clip562)" x1="901.398" y1="735.212" x2="901.398" y2="751.212" style="stroke:#009af9; stroke-width:3.2; stroke-opacity:1"/>
<line clip-path="url(#clip562)" x1="901.398" y1="735.212" x2="917.398" y2="735.212" style="stroke:#009af9; stroke-width:3.2; stroke-opacity:1"/>
<line clip-path="url(#clip562)" x1="1094.91" y1="735.212" x2="1094.91" y2="719.212" style="stroke:#009af9; stroke-width:3.2; stroke-opacity:1"/>
<line clip-path="url(#clip562)" x1="1094.91" y1="735.212" x2="1078.91" y2="735.212" style="stroke:#009af9; stroke-width:3.2; stroke-opacity:1"/>
<line clip-path="url(#clip562)" x1="1094.91" y1="735.212" x2="1094.91" y2="751.212" style="stroke:#009af9; stroke-width:3.2; stroke-opacity:1"/>
<line clip-path="url(#clip562)" x1="1094.91" y1="735.212" x2="1110.91" y2="735.212" style="stroke:#009af9; stroke-width:3.2; stroke-opacity:1"/>
<line clip-path="url(#clip562)" x1="1288.43" y1="422.499" x2="1288.43" y2="406.499" style="stroke:#009af9; stroke-width:3.2; stroke-opacity:1"/>
<line clip-path="url(#clip562)" x1="1288.43" y1="422.499" x2="1272.43" y2="422.499" style="stroke:#009af9; stroke-width:3.2; stroke-opacity:1"/>
<line clip-path="url(#clip562)" x1="1288.43" y1="422.499" x2="1288.43" y2="438.499" style="stroke:#009af9; stroke-width:3.2; stroke-opacity:1"/>
<line clip-path="url(#clip562)" x1="1288.43" y1="422.499" x2="1304.43" y2="422.499" style="stroke:#009af9; stroke-width:3.2; stroke-opacity:1"/>
<line clip-path="url(#clip562)" x1="1481.94" y1="735.212" x2="1481.94" y2="719.212" style="stroke:#009af9; stroke-width:3.2; stroke-opacity:1"/>
<line clip-path="url(#clip562)" x1="1481.94" y1="735.212" x2="1465.94" y2="735.212" style="stroke:#009af9; stroke-width:3.2; stroke-opacity:1"/>
<line clip-path="url(#clip562)" x1="1481.94" y1="735.212" x2="1481.94" y2="751.212" style="stroke:#009af9; stroke-width:3.2; stroke-opacity:1"/>
<line clip-path="url(#clip562)" x1="1481.94" y1="735.212" x2="1497.94" y2="735.212" style="stroke:#009af9; stroke-width:3.2; stroke-opacity:1"/>
<line clip-path="url(#clip562)" x1="1675.46" y1="735.212" x2="1675.46" y2="719.212" style="stroke:#009af9; stroke-width:3.2; stroke-opacity:1"/>
<line clip-path="url(#clip562)" x1="1675.46" y1="735.212" x2="1659.46" y2="735.212" style="stroke:#009af9; stroke-width:3.2; stroke-opacity:1"/>
<line clip-path="url(#clip562)" x1="1675.46" y1="735.212" x2="1675.46" y2="751.212" style="stroke:#009af9; stroke-width:3.2; stroke-opacity:1"/>
<line clip-path="url(#clip562)" x1="1675.46" y1="735.212" x2="1691.46" y2="735.212" style="stroke:#009af9; stroke-width:3.2; stroke-opacity:1"/>
<line clip-path="url(#clip562)" x1="1868.97" y1="735.212" x2="1868.97" y2="719.212" style="stroke:#009af9; stroke-width:3.2; stroke-opacity:1"/>
<line clip-path="url(#clip562)" x1="1868.97" y1="735.212" x2="1852.97" y2="735.212" style="stroke:#009af9; stroke-width:3.2; stroke-opacity:1"/>
<line clip-path="url(#clip562)" x1="1868.97" y1="735.212" x2="1868.97" y2="751.212" style="stroke:#009af9; stroke-width:3.2; stroke-opacity:1"/>
<line clip-path="url(#clip562)" x1="1868.97" y1="735.212" x2="1884.97" y2="735.212" style="stroke:#009af9; stroke-width:3.2; stroke-opacity:1"/>
<line clip-path="url(#clip562)" x1="2062.48" y1="735.212" x2="2062.48" y2="719.212" style="stroke:#009af9; stroke-width:3.2; stroke-opacity:1"/>
<line clip-path="url(#clip562)" x1="2062.48" y1="735.212" x2="2046.48" y2="735.212" style="stroke:#009af9; stroke-width:3.2; stroke-opacity:1"/>
<line clip-path="url(#clip562)" x1="2062.48" y1="735.212" x2="2062.48" y2="751.212" style="stroke:#009af9; stroke-width:3.2; stroke-opacity:1"/>
<line clip-path="url(#clip562)" x1="2062.48" y1="735.212" x2="2078.48" y2="735.212" style="stroke:#009af9; stroke-width:3.2; stroke-opacity:1"/>
<line clip-path="url(#clip562)" x1="2256" y1="735.212" x2="2256" y2="719.212" style="stroke:#009af9; stroke-width:3.2; stroke-opacity:1"/>
<line clip-path="url(#clip562)" x1="2256" y1="735.212" x2="2240" y2="735.212" style="stroke:#009af9; stroke-width:3.2; stroke-opacity:1"/>
<line clip-path="url(#clip562)" x1="2256" y1="735.212" x2="2256" y2="751.212" style="stroke:#009af9; stroke-width:3.2; stroke-opacity:1"/>
<line clip-path="url(#clip562)" x1="2256" y1="735.212" x2="2272" y2="735.212" style="stroke:#009af9; stroke-width:3.2; stroke-opacity:1"/>
<polyline clip-path="url(#clip562)" style="stroke:#e26f46; stroke-linecap:butt; stroke-linejoin:round; stroke-width:12; stroke-opacity:1; fill:none" points="
  320.855,735.212 514.369,735.212 707.884,1360.64 901.398,735.212 1094.91,735.212 1288.43,735.212 1481.94,735.212 1675.46,735.212 1868.97,735.212 2062.48,735.212 
  2256,735.212 2449.51,735.212 2643.03,735.212 2836.54,735.212 3030.06,735.212 3223.57,735.212 3417.08,735.212 3610.6,735.212 3804.11,735.212 3997.63,735.212 
  4191.14,735.212 4384.66,735.212 4578.17,735.212 4771.69,735.212 4965.2,735.212 5158.71,735.212 5352.23,735.212 5545.74,735.212 5739.26,735.212 5932.77,735.212 
  6126.29,735.212 6319.8,735.212 6513.31,735.212 
  "/>
<circle clip-path="url(#clip562)" cx="320.855" cy="735.212" r="14" fill="#e26f46" fill-rule="evenodd" fill-opacity="1" stroke="#000000" stroke-opacity="1" stroke-width="3.2"/>
<circle clip-path="url(#clip562)" cx="514.369" cy="735.212" r="14" fill="#e26f46" fill-rule="evenodd" fill-opacity="1" stroke="#000000" stroke-opacity="1" stroke-width="3.2"/>
<circle clip-path="url(#clip562)" cx="707.884" cy="1360.64" r="14" fill="#e26f46" fill-rule="evenodd" fill-opacity="1" stroke="#000000" stroke-opacity="1" stroke-width="3.2"/>
<circle clip-path="url(#clip562)" cx="901.398" cy="735.212" r="14" fill="#e26f46" fill-rule="evenodd" fill-opacity="1" stroke="#000000" stroke-opacity="1" stroke-width="3.2"/>
<circle clip-path="url(#clip562)" cx="1094.91" cy="735.212" r="14" fill="#e26f46" fill-rule="evenodd" fill-opacity="1" stroke="#000000" stroke-opacity="1" stroke-width="3.2"/>
<circle clip-path="url(#clip562)" cx="1288.43" cy="735.212" r="14" fill="#e26f46" fill-rule="evenodd" fill-opacity="1" stroke="#000000" stroke-opacity="1" stroke-width="3.2"/>
<circle clip-path="url(#clip562)" cx="1481.94" cy="735.212" r="14" fill="#e26f46" fill-rule="evenodd" fill-opacity="1" stroke="#000000" stroke-opacity="1" stroke-width="3.2"/>
<circle clip-path="url(#clip562)" cx="1675.46" cy="735.212" r="14" fill="#e26f46" fill-rule="evenodd" fill-opacity="1" stroke="#000000" stroke-opacity="1" stroke-width="3.2"/>
<circle clip-path="url(#clip562)" cx="1868.97" cy="735.212" r="14" fill="#e26f46" fill-rule="evenodd" fill-opacity="1" stroke="#000000" stroke-opacity="1" stroke-width="3.2"/>
<circle clip-path="url(#clip562)" cx="2062.48" cy="735.212" r="14" fill="#e26f46" fill-rule="evenodd" fill-opacity="1" stroke="#000000" stroke-opacity="1" stroke-width="3.2"/>
<circle clip-path="url(#clip562)" cx="2256" cy="735.212" r="14" fill="#e26f46" fill-rule="evenodd" fill-opacity="1" stroke="#000000" stroke-opacity="1" stroke-width="3.2"/>
<path clip-path="url(#clip560)" d="
M1838.15 248.629 L2281.8 248.629 L2281.8 93.1086 L1838.15 93.1086  Z
  " fill="#ffffff" fill-rule="evenodd" fill-opacity="1"/>
<polyline clip-path="url(#clip560)" style="stroke:#000000; stroke-linecap:butt; stroke-linejoin:round; stroke-width:4; stroke-opacity:1; fill:none" points="
  1838.15,248.629 2281.8,248.629 2281.8,93.1086 1838.15,93.1086 1838.15,248.629 
  "/>
<polyline clip-path="url(#clip560)" style="stroke:#009af9; stroke-linecap:butt; stroke-linejoin:round; stroke-width:4; stroke-opacity:1; fill:none" points="
  1861.81,144.949 2003.72,144.949 
  "/>
<line clip-path="url(#clip560)" x1="1932.76" y1="144.949" x2="1932.76" y2="119.349" style="stroke:#009af9; stroke-width:3.2; stroke-opacity:1"/>
<line clip-path="url(#clip560)" x1="1932.76" y1="144.949" x2="1907.16" y2="144.949" style="stroke:#009af9; stroke-width:3.2; stroke-opacity:1"/>
<line clip-path="url(#clip560)" x1="1932.76" y1="144.949" x2="1932.76" y2="170.549" style="stroke:#009af9; stroke-width:3.2; stroke-opacity:1"/>
<line clip-path="url(#clip560)" x1="1932.76" y1="144.949" x2="1958.36" y2="144.949" style="stroke:#009af9; stroke-width:3.2; stroke-opacity:1"/>
<path clip-path="url(#clip560)" d="M2042.55 140.284 Q2041.84 139.868 2040.98 139.682 Q2040.15 139.474 2039.13 139.474 Q2035.52 139.474 2033.57 141.835 Q2031.65 144.173 2031.65 148.571 L2031.65 162.229 L2027.37 162.229 L2027.37 136.303 L2031.65 136.303 L2031.65 140.331 Q2032.99 137.969 2035.15 136.835 Q2037.3 135.678 2040.38 135.678 Q2040.82 135.678 2041.35 135.747 Q2041.88 135.794 2042.53 135.909 L2042.55 140.284 Z" fill="#000000" fill-rule="evenodd" fill-opacity="1" /><path clip-path="url(#clip560)" d="M2068.16 148.201 L2068.16 150.284 L2048.57 150.284 Q2048.85 154.682 2051.21 156.997 Q2053.6 159.289 2057.83 159.289 Q2060.29 159.289 2062.58 158.687 Q2064.89 158.085 2067.16 156.881 L2067.16 160.909 Q2064.87 161.881 2062.46 162.391 Q2060.05 162.9 2057.58 162.9 Q2051.37 162.9 2047.74 159.289 Q2044.13 155.678 2044.13 149.52 Q2044.13 143.155 2047.55 139.428 Q2051 135.678 2056.84 135.678 Q2062.07 135.678 2065.1 139.057 Q2068.16 142.414 2068.16 148.201 M2063.9 146.951 Q2063.85 143.456 2061.93 141.372 Q2060.03 139.289 2056.88 139.289 Q2053.32 139.289 2051.16 141.303 Q2049.04 143.317 2048.71 146.974 L2063.9 146.951 Z" fill="#000000" fill-rule="evenodd" fill-opacity="1" /><path clip-path="url(#clip560)" d="M2086.93 149.196 Q2081.77 149.196 2079.78 150.377 Q2077.79 151.557 2077.79 154.405 Q2077.79 156.673 2079.27 158.016 Q2080.77 159.335 2083.34 159.335 Q2086.88 159.335 2089.01 156.835 Q2091.16 154.312 2091.16 150.145 L2091.16 149.196 L2086.93 149.196 M2095.42 147.437 L2095.42 162.229 L2091.16 162.229 L2091.16 158.293 Q2089.71 160.655 2087.53 161.789 Q2085.35 162.9 2082.21 162.9 Q2078.22 162.9 2075.86 160.678 Q2073.53 158.432 2073.53 154.682 Q2073.53 150.307 2076.44 148.085 Q2079.38 145.863 2085.19 145.863 L2091.16 145.863 L2091.16 145.446 Q2091.16 142.507 2089.22 140.909 Q2087.3 139.289 2083.8 139.289 Q2081.58 139.289 2079.47 139.821 Q2077.37 140.354 2075.42 141.419 L2075.42 137.483 Q2077.76 136.581 2079.96 136.141 Q2082.16 135.678 2084.24 135.678 Q2089.87 135.678 2092.65 138.594 Q2095.42 141.511 2095.42 147.437 Z" fill="#000000" fill-rule="evenodd" fill-opacity="1" /><path clip-path="url(#clip560)" d="M2104.2 126.21 L2108.46 126.21 L2108.46 162.229 L2104.2 162.229 L2104.2 126.21 Z" fill="#000000" fill-rule="evenodd" fill-opacity="1" /><path clip-path="url(#clip560)" d="M2127.6 126.257 Q2124.5 131.581 2122.99 136.789 Q2121.49 141.997 2121.49 147.344 Q2121.49 152.692 2122.99 157.946 Q2124.52 163.178 2127.6 168.479 L2123.9 168.479 Q2120.42 163.039 2118.69 157.784 Q2116.97 152.53 2116.97 147.344 Q2116.97 142.182 2118.69 136.951 Q2120.4 131.72 2123.9 126.257 L2127.6 126.257 Z" fill="#000000" fill-rule="evenodd" fill-opacity="1" /><path clip-path="url(#clip560)" d="M2150.49 151.997 L2150.49 136.303 L2154.75 136.303 L2154.75 151.835 Q2154.75 155.516 2156.19 157.368 Q2157.62 159.196 2160.49 159.196 Q2163.94 159.196 2165.93 156.997 Q2167.95 154.798 2167.95 151.002 L2167.95 136.303 L2172.21 136.303 L2172.21 162.229 L2167.95 162.229 L2167.95 158.247 Q2166.4 160.608 2164.34 161.766 Q2162.3 162.9 2159.59 162.9 Q2155.12 162.9 2152.81 160.122 Q2150.49 157.344 2150.49 151.997 M2161.21 135.678 L2161.21 135.678 Z" fill="#000000" fill-rule="evenodd" fill-opacity="1" /><path clip-path="url(#clip560)" d="M2162.95 124.312 L2166.37 124.312 L2172.04 133.016 L2168.83 133.016 L2164.66 127.345 L2160.49 133.016 L2157.28 133.016 L2162.95 124.312 M2164.66 135.678 L2164.66 135.678 Z" fill="#000000" fill-rule="evenodd" fill-opacity="1" /><path clip-path="url(#clip560)" d="M2195.38 126.257 L2199.08 126.257 Q2202.55 131.72 2204.27 136.951 Q2206 142.182 2206 147.344 Q2206 152.53 2204.27 157.784 Q2202.55 163.039 2199.08 168.479 L2195.38 168.479 Q2198.46 163.178 2199.96 157.946 Q2201.49 152.692 2201.49 147.344 Q2201.49 141.997 2199.96 136.789 Q2198.46 131.581 2195.38 126.257 Z" fill="#000000" fill-rule="evenodd" fill-opacity="1" /><polyline clip-path="url(#clip560)" style="stroke:#e26f46; stroke-linecap:butt; stroke-linejoin:round; stroke-width:4; stroke-opacity:1; fill:none" points="
  1861.81,196.789 2003.72,196.789 
  "/>
<circle clip-path="url(#clip560)" cx="1932.76" cy="196.789" r="23" fill="#e26f46" fill-rule="evenodd" fill-opacity="1" stroke="#000000" stroke-opacity="1" stroke-width="5.12"/>
<path clip-path="url(#clip560)" d="M2027.37 188.143 L2031.63 188.143 L2031.63 214.069 L2027.37 214.069 L2027.37 188.143 M2027.37 178.05 L2031.63 178.05 L2031.63 183.444 L2027.37 183.444 L2027.37 178.05 Z" fill="#000000" fill-rule="evenodd" fill-opacity="1" /><path clip-path="url(#clip560)" d="M2060.72 193.12 Q2062.32 190.249 2064.54 188.884 Q2066.77 187.518 2069.78 187.518 Q2073.83 187.518 2076.03 190.365 Q2078.22 193.189 2078.22 198.421 L2078.22 214.069 L2073.94 214.069 L2073.94 198.559 Q2073.94 194.833 2072.62 193.027 Q2071.3 191.222 2068.6 191.222 Q2065.29 191.222 2063.36 193.421 Q2061.44 195.62 2061.44 199.416 L2061.44 214.069 L2057.16 214.069 L2057.16 198.559 Q2057.16 194.809 2055.84 193.027 Q2054.52 191.222 2051.77 191.222 Q2048.5 191.222 2046.58 193.444 Q2044.66 195.643 2044.66 199.416 L2044.66 214.069 L2040.38 214.069 L2040.38 188.143 L2044.66 188.143 L2044.66 192.171 Q2046.12 189.786 2048.16 188.652 Q2050.19 187.518 2052.99 187.518 Q2055.82 187.518 2057.79 188.953 Q2059.78 190.388 2060.72 193.12 Z" fill="#000000" fill-rule="evenodd" fill-opacity="1" /><path clip-path="url(#clip560)" d="M2098.5 201.036 Q2093.34 201.036 2091.35 202.217 Q2089.36 203.397 2089.36 206.245 Q2089.36 208.513 2090.84 209.856 Q2092.35 211.175 2094.91 211.175 Q2098.46 211.175 2100.59 208.675 Q2102.74 206.152 2102.74 201.985 L2102.74 201.036 L2098.5 201.036 M2107 199.277 L2107 214.069 L2102.74 214.069 L2102.74 210.133 Q2101.28 212.495 2099.1 213.629 Q2096.93 214.74 2093.78 214.74 Q2089.8 214.74 2087.44 212.518 Q2085.1 210.272 2085.1 206.522 Q2085.1 202.147 2088.02 199.925 Q2090.96 197.703 2096.77 197.703 L2102.74 197.703 L2102.74 197.286 Q2102.74 194.347 2100.79 192.749 Q2098.87 191.129 2095.38 191.129 Q2093.16 191.129 2091.05 191.661 Q2088.94 192.194 2087 193.259 L2087 189.323 Q2089.34 188.421 2091.53 187.981 Q2093.73 187.518 2095.82 187.518 Q2101.44 187.518 2104.22 190.434 Q2107 193.351 2107 199.277 Z" fill="#000000" fill-rule="evenodd" fill-opacity="1" /><path clip-path="url(#clip560)" d="M2132.83 200.805 Q2132.83 196.175 2130.91 193.629 Q2129.01 191.083 2125.56 191.083 Q2122.14 191.083 2120.22 193.629 Q2118.32 196.175 2118.32 200.805 Q2118.32 205.411 2120.22 207.958 Q2122.14 210.504 2125.56 210.504 Q2129.01 210.504 2130.91 207.958 Q2132.83 205.411 2132.83 200.805 M2137.09 210.851 Q2137.09 217.471 2134.15 220.689 Q2131.21 223.93 2125.15 223.93 Q2122.9 223.93 2120.91 223.582 Q2118.92 223.258 2117.04 222.564 L2117.04 218.42 Q2118.92 219.439 2120.75 219.925 Q2122.58 220.411 2124.47 220.411 Q2128.66 220.411 2130.75 218.212 Q2132.83 216.036 2132.83 211.615 L2132.83 209.508 Q2131.51 211.8 2129.45 212.934 Q2127.39 214.069 2124.52 214.069 Q2119.75 214.069 2116.84 210.434 Q2113.92 206.8 2113.92 200.805 Q2113.92 194.786 2116.84 191.152 Q2119.75 187.518 2124.52 187.518 Q2127.39 187.518 2129.45 188.652 Q2131.51 189.786 2132.83 192.078 L2132.83 188.143 L2137.09 188.143 L2137.09 210.851 Z" fill="#000000" fill-rule="evenodd" fill-opacity="1" /><path clip-path="url(#clip560)" d="M2156.09 178.097 Q2152.99 183.421 2151.49 188.629 Q2149.98 193.837 2149.98 199.184 Q2149.98 204.532 2151.49 209.786 Q2153.02 215.018 2156.09 220.319 L2152.39 220.319 Q2148.92 214.879 2147.18 209.624 Q2145.47 204.37 2145.47 199.184 Q2145.47 194.022 2147.18 188.791 Q2148.9 183.56 2152.39 178.097 L2156.09 178.097 Z" fill="#000000" fill-rule="evenodd" fill-opacity="1" /><path clip-path="url(#clip560)" d="M2178.99 203.837 L2178.99 188.143 L2183.25 188.143 L2183.25 203.675 Q2183.25 207.356 2184.68 209.208 Q2186.12 211.036 2188.99 211.036 Q2192.44 211.036 2194.43 208.837 Q2196.44 206.638 2196.44 202.842 L2196.44 188.143 L2200.7 188.143 L2200.7 214.069 L2196.44 214.069 L2196.44 210.087 Q2194.89 212.448 2192.83 213.606 Q2190.79 214.74 2188.09 214.74 Q2183.62 214.74 2181.3 211.962 Q2178.99 209.184 2178.99 203.837 M2189.71 187.518 L2189.71 187.518 Z" fill="#000000" fill-rule="evenodd" fill-opacity="1" /><path clip-path="url(#clip560)" d="M2191.44 176.152 L2194.87 176.152 L2200.54 184.856 L2197.32 184.856 L2193.15 179.185 L2188.99 184.856 L2185.77 184.856 L2191.44 176.152 M2193.15 187.518 L2193.15 187.518 Z" fill="#000000" fill-rule="evenodd" fill-opacity="1" /><path clip-path="url(#clip560)" d="M2223.87 178.097 L2227.58 178.097 Q2231.05 183.56 2232.76 188.791 Q2234.5 194.022 2234.5 199.184 Q2234.5 204.37 2232.76 209.624 Q2231.05 214.879 2227.58 220.319 L2223.87 220.319 Q2226.95 215.018 2228.46 209.786 Q2229.98 204.532 2229.98 199.184 Q2229.98 193.837 2228.46 188.629 Q2226.95 183.421 2223.87 178.097 Z" fill="#000000" fill-rule="evenodd" fill-opacity="1" /></svg>
